<svg xmlns="http://www.w3.org/2000/svg" width="50" height="50" viewBox="0 0 50 50"><title>AD-Connector_light-bg</title><g id="Working"><path d="M50,35a13.08,13.08,0,0,1-25.47,4.21,1,1,0,1,1,1.89-.64,11.08,11.08,0,1,0,.08-7.36,1,1,0,0,1-1.88-.68A13.08,13.08,0,0,1,50,35Zm-16.48.79H2.3a2.28,2.28,0,0,1-2-3.41L17.23,3.08a2.27,2.27,0,0,1,3.94,0L31.49,20.94a1,1,0,0,1-1.74,1L19.44,4.08a.25.25,0,0,0-.48,0L2.06,33.36a.24.24,0,0,0,0,.27.28.28,0,0,0,.24.14H33.57a5.67,5.67,0,0,1,5.55-4.47,1,1,0,0,1,1,1v1h3.64a1,1,0,0,1,0,2H40.12v3.28h3.64a1,1,0,0,1,0,2H40.12v1a1,1,0,0,1-1,1A5.67,5.67,0,0,1,33.5,35.77ZM35.43,35a3.69,3.69,0,0,0,2.69,3.54V31.43A3.7,3.7,0,0,0,35.43,35Z" style="fill:#d6242d"/></g></svg>