<svg xmlns="http://www.w3.org/2000/svg" xmlns:xlink="http://www.w3.org/1999/xlink" viewBox="0 0 75 75"><defs><style>.cls-1{fill:url(#RedGradient);}.cls-2{fill:#fff;}</style><linearGradient id="RedGradient" x1="13.3" y1="28.08" x2="13.3" y2="-121.92" gradientTransform="translate(-5.08 61.27) rotate(45)" gradientUnits="userSpaceOnUse"><stop offset="0" stop-color="#bd0816"/><stop offset="1" stop-color="#ff5252"/></linearGradient></defs><title>Amazon-Macie</title><g id="Reference"><rect id="Red_Gradient" data-name="Red Gradient" class="cls-1" width="75" height="75"/><g id="Icon_Test" data-name="Icon Test"><path class="cls-2" d="M37.22,49.57c-1,0-2.2-1.19-4.28-4.42-2,3.15-2.84,4-3.68,4-1.22,0-2.19-1.6-4.45-5.71a39.05,39.05,0,0,0-2.17-3.66c-.82.58-2.6,2.22-3.95,3.46-5.34,4.92-7.32,6.55-8.58,5.45-.68-.58-.31-1.5,0-2.25a131.83,131.83,0,0,1,6.2-12c5.16-9,5.8-9,6.48-9,1,0,1.6.95,6.1,8.88C30,36.35,31.52,39,33,41.37l.39-.63c4.53-7.33,6.18-9.63,7.7-9.55.84,0,2.38.94,5.06,2.91,3.37-6,4.79-8.16,6.2-8.16,2.75,0,9.64,12.39,11.53,16.68s1.59,5.53,1,6.21c-1.1,1.2-2.69.24-13.1-7.91-1.55-1.21-3.31-2.59-5-3.84C42,45.55,39.51,49.54,37.24,49.57Zm.17-2Zm-3.27-4.33c1.37,2.19,2.56,3.9,3.18,4.28,1.53-.42,5.54-7.59,7.82-11.69A22.87,22.87,0,0,0,41,33.21c-1.1.66-4.15,5.6-6,8.59C34.71,42.32,34.41,42.82,34.12,43.27Zm13.6-8c1.45,1.11,3.18,2.45,5.21,4,3.61,2.82,8.39,6.56,10.32,7.6-.6-3.61-8.46-17.4-10.92-18.94C51.44,28.74,49.43,32.24,47.72,35.31Zm-25,2.26h0c1,0,1.78,1.28,3.75,4.86a37,37,0,0,0,2.71,4.47,38.08,38.08,0,0,0,2.5-3.63c-1.25-2-2.76-4.66-4.64-8-1.58-2.78-3.48-6.13-4.42-7.46-2.08,2.69-8.3,13.75-10.34,18.26,1.45-1.12,3.54-3,5-4.36C21,38.39,21.93,37.57,22.76,37.57Zm18.37-4.4,11-5.26Zm-29-.61"/></g></g></svg>