<svg xmlns="http://www.w3.org/2000/svg" xmlns:xlink="http://www.w3.org/1999/xlink" width="75" height="75" viewBox="0 0 75 75"><defs><linearGradient id="Red_Gradient" x1="-20.83" y1="131.69" x2="-20.83" y2="-18.31" gradientTransform="translate(92.31 12.14) rotate(45)" gradientUnits="userSpaceOnUse"><stop offset="0" stop-color="#bd0816"/><stop offset="1" stop-color="#ff5252"/></linearGradient></defs><title>Amazon-Detective</title><g id="Example"><rect id="Green_Gradient" data-name="Green Gradient" width="75" height="75" style="fill:url(#Red_Gradient)"/><path d="M53.45,55.84h2v6.67h-2Zm-8.75-12-4.94,4.94-4.94-4.94L33.4,45.24l5.65,5.65a1,1,0,0,0,.71.3,1,1,0,0,0,.71-.3l5.65-5.65ZM36.49,57.24a3.07,3.07,0,0,1,0,4.33,3.1,3.1,0,0,1-2.16.92h0a3,3,0,0,1-2.13-.88l-5.74-5.74a9.53,9.53,0,1,1,4.38-4.39Zm-14.25-2.4a7.48,7.48,0,1,0-7.47-7.48A7.49,7.49,0,0,0,22.24,54.84Zm12.84,3.81-5.41-5.43a9.53,9.53,0,0,1-1.55,1.56l5.41,5.41a1,1,0,0,0,.73.3,1.12,1.12,0,0,0,.78-.34A1.07,1.07,0,0,0,35.08,58.65ZM54.69,44.59l.47-.48a1,1,0,0,0-.11-1.51l-4.52-3.39-1.2,1.6,3.6,2.7-.64.64h-.1v.1l-6.36,6.36a1,1,0,0,0,0,1.41l2.75,2.75-5.07,6.08,1.54,1.28,5.65-6.78A1,1,0,0,0,50.64,54L48,51.32l5.09-5.09c3.57.59,7.18,4.7,7.18,8.48v7.8h2v-7.8C62.23,50.36,58.73,46,54.69,44.59ZM21.84,26.72a1,1,0,0,1,.45-1.13l5.33-3.19,4.79-9a1,1,0,0,1,.22-.27,2.92,2.92,0,0,1,3.31-.3L39.47,15a.57.57,0,0,0,.58,0l3.53-2.12a2.56,2.56,0,0,1,3.49.84l4.82,8.68,5.34,3.2a1,1,0,0,1,.45,1.13,1,1,0,0,1-1,.73,25.32,25.32,0,0,0-5.79,1.43c-.13,5-6.07,14.39-11.16,14.39s-11-9.41-11.16-14.39a25.32,25.32,0,0,0-5.79-1.43A1,1,0,0,1,21.84,26.72Zm27,2.84-.32.1C45,30.85,41.62,32,39.76,32S34.53,30.85,31,29.66l-.32-.1c.61,4.46,5.65,11.71,9.11,11.71S48.26,34,48.87,29.56Zm-19-7.06c3.49,1.28,8.55,2.95,9.92,2.95s6.42-1.67,9.91-2.94l-4.32-7.79a.57.57,0,0,0-.74-.14L41.08,16.7a2.55,2.55,0,0,1-2.64,0l-3.53-2.12a1,1,0,0,0-.84,0Zm-4.19,3.42c1.72.43,3.8,1.13,6,1.84C34.86,28.85,38.23,30,39.76,30s4.9-1.12,8.16-2.21c2.15-.71,4.23-1.41,5.95-1.84L51,24.17c-2,.74-9.05,3.28-11.2,3.28s-9.19-2.54-11.2-3.28Z" style="fill:#fff"/></g></svg>