<svg xmlns="http://www.w3.org/2000/svg" viewBox="0 0 75 75"><defs><style>.cls-1{fill:#d6242d;}.cls-2{fill:#fff;}</style></defs><title>Amazon-Cloud-Directory_light-bg</title><g id="Reference"><rect id="Red_Light_BG" data-name="Red Light BG" class="cls-1" width="75" height="75"/><g id="Product_Icon" data-name="Product Icon"><path class="cls-2" d="M47.49,48.72V45.5a1,1,0,0,0-1-1h-8V41.23a6,6,0,1,0-2,0V44.5h-8a1,1,0,0,0-1,1v3.22a3.52,3.52,0,1,0,2,0V46.5h7v2.22a3.51,3.51,0,1,0,2,0V46.5h7v2.22a3.52,3.52,0,1,0,2,0ZM30,52.07a1.5,1.5,0,1,1-1.5-1.5A1.5,1.5,0,0,1,30,52.07Zm9,0a1.5,1.5,0,1,1-1.5-1.5A1.5,1.5,0,0,1,39,52.07Zm-1.5-12.75a4,4,0,1,1,4-4A4,4,0,0,1,37.51,39.32Zm9,14.25a1.5,1.5,0,1,1,1.5-1.5A1.5,1.5,0,0,1,46.51,53.57Z"/><path class="cls-2" d="M52.51,19.32a.18.18,0,0,1,0,.1v-.1Z"/><path class="cls-2" d="M37.51,12.5c-8.24,0-17,2.39-17,6.82h0V55.68c0,4.43,8.77,6.82,17,6.82s17-2.39,17-6.82V19.46a.34.34,0,0,0,0-.14C54.51,14.89,45.74,12.5,37.51,12.5Zm15,43.18c0,2-5.71,4.82-15,4.82s-15-2.8-15-4.82v-33c3.05,2.28,9.16,3.48,15,3.48s11.92-1.2,15-3.47Zm0-36.26c-.17,2-5.84,4.71-15,4.71-9.3,0-15-2.8-15-4.81s5.7-4.82,15-4.82,15,2.8,15,4.82A.18.18,0,0,1,52.49,19.42Z"/></g></g></svg>