<svg xmlns="http://www.w3.org/2000/svg" viewBox="0 0 75 75"><defs><style>.cls-1{fill:#d6242d;}.cls-2{fill:#fff;}</style></defs><title>Amazon-Inspector_light-bg</title><g id="Reference"><rect id="Red_Light_BG" data-name="Red Light BG" class="cls-1" width="75" height="75"/><g id="Product_Icon" data-name="Product Icon"><path class="cls-2" d="M60.94,52.74,49.28,42.24a19.51,19.51,0,1,0-6.45,7.24L54.44,60a4.86,4.86,0,1,0,6.5-7.22ZM14.54,33.3A17.43,17.43,0,1,1,32,50.73,17.43,17.43,0,0,1,14.54,33.3ZM59.75,58.21a2.79,2.79,0,0,1-3.92.2L44.51,48.2a19.41,19.41,0,0,0,3.7-4.13L59.55,54.28A2.8,2.8,0,0,1,59.75,58.21Z"/><path class="cls-2" d="M32,18.8a14.5,14.5,0,1,0,14.5,14.5A14.52,14.52,0,0,0,32,18.8Zm0,26.93a12.43,12.43,0,1,1,11.41-7.5l-6.7-1a5.34,5.34,0,0,0-2.21-2.91V30.92a4.23,4.23,0,1,0-2-.11v2.78a4.6,4.6,0,0,0-.84-.09,5.25,5.25,0,0,0-3.48,1.34l-2.06-2.07A5.3,5.3,0,0,0,26.86,30a5.36,5.36,0,0,0-2.48-4.54L23.3,27.16a3.4,3.4,0,0,1-1.84,6.26v2a5.33,5.33,0,0,0,3.23-1.1l2.18,2.19a5.22,5.22,0,0,0-.55,2.29,5.29,5.29,0,0,0,10.54.58l5.45.8A12.44,12.44,0,0,1,32,45.73Zm-.34-10.2a3.28,3.28,0,1,1-3.27,3.27A3.28,3.28,0,0,1,31.62,35.53Zm2-6.61a2.11,2.11,0,1,1,2.12-2.11A2.11,2.11,0,0,1,33.65,28.92Z"/></g></g></svg>