<svg xmlns="http://www.w3.org/2000/svg" viewBox="0 0 75 75"><defs><style>.cls-1{fill:#d6242d;}.cls-2{fill:#fff;}</style></defs><title>AWS-Identity-and-Access-Management_IAM_light-bg</title><g id="Reference"><rect id="Red_Light_BG" data-name="Red Light BG" class="cls-1" width="75" height="75"/><g id="Product_Icon" data-name="Product Icon"><path class="cls-2" d="M59.7,19H15.3a2.81,2.81,0,0,0-2.8,2.8V53.2A2.81,2.81,0,0,0,15.3,56H59.7a2.81,2.81,0,0,0,2.8-2.8V21.8A2.81,2.81,0,0,0,59.7,19Zm.8,34.2a.8.8,0,0,1-.8.8H15.3a.8.8,0,0,1-.8-.8V21.8a.8.8,0,0,1,.8-.8H59.7a.8.8,0,0,1,.8.8Z"/><rect class="cls-2" x="40.5" y="32" width="10" height="2"/><rect class="cls-2" x="54.5" y="32" width="2" height="2"/><path class="cls-2" d="M36.21,35.3A1,1,0,0,0,35.5,35h-14V30A3.63,3.63,0,0,1,23,27.15,5.74,5.74,0,0,1,26.5,26a5.55,5.55,0,0,1,3.6,1.26A3.64,3.64,0,0,1,31.5,30v5h2V29.6a5.07,5.07,0,0,0-2.11-4A7.92,7.92,0,0,0,26.5,24c-3.86,0-7,2.51-7,5.59V35h-2a1,1,0,0,0-1,1V50a1,1,0,0,0,1,1h18a1,1,0,0,0,1-1V36A1,1,0,0,0,36.21,35.3ZM34.5,40h-3v2h3v2h-3v2h3v3h-16V37h16Z"/><path class="cls-2" d="M26.5,38.57a2.93,2.93,0,0,0-1,5.68V47h2V44.25a2.93,2.93,0,0,0-1-5.68Zm0,4.2a1.27,1.27,0,1,1,1.27-1.27A1.27,1.27,0,0,1,26.5,42.77Z"/><rect class="cls-2" x="40.5" y="37" width="7" height="2"/><rect class="cls-2" x="51.5" y="37" width="5" height="2"/><rect class="cls-2" x="40.5" y="42" width="13" height="2"/></g></g></svg>