<svg xmlns="http://www.w3.org/2000/svg" viewBox="0 0 50 50"><defs><style>.cls-1{fill:#d6242d;}</style></defs><title>AWS-Identity-and-Access-Management-IAM_Encrypted-Data_light-bg</title><g id="Working"><path class="cls-1" d="M41.12,48.5H8.88a2.7,2.7,0,0,1-2.69-2.7V4.2A2.7,2.7,0,0,1,8.88,1.5h24l10.9,10.9V45.8A2.7,2.7,0,0,1,41.12,48.5ZM8.88,3.5a.69.69,0,0,0-.69.7V45.8a.69.69,0,0,0,.69.7H41.12a.69.69,0,0,0,.69-.7V13.23L32.09,3.5Z"/><path class="cls-1" d="M35.31,41.94H14.73a1,1,0,0,1-1-1V24.06a1,1,0,0,1,1-1H35.31a1,1,0,0,1,1,1V40.94a1,1,0,0,1-1,1Zm-19.58-2H34.31V25.07H15.73Z"/><path class="cls-1" d="M31.61,24.06h-2V19.59a5,5,0,0,0-1.35-3.43A4.46,4.46,0,0,0,25,14.75h0a4.55,4.55,0,0,0-3.26,1.38,4.87,4.87,0,0,0-1.37,3.4l0,4.52h-2l0-4.52a6.81,6.81,0,0,1,1.94-4.78,6.54,6.54,0,0,1,4.69-2h0a6.5,6.5,0,0,1,4.68,2,6.93,6.93,0,0,1,1.9,4.81Z"/><rect class="cls-1" x="41.81" y="13.44" width="2" height="12.89"/><path class="cls-1" d="M42.81,13.81H32.5a1,1,0,0,1-1-1V2.5h2v9.31h9.31Z"/><path class="cls-1" d="M25,33.52h0a3.21,3.21,0,1,1,0-6.42h0a3.21,3.21,0,1,1,0,6.42Zm0-4.42a1.17,1.17,0,0,0-.85.35A1.21,1.21,0,0,0,25,31.52h0a1.2,1.2,0,0,0,1.21-1.21h0A1.2,1.2,0,0,0,25,29.1Z"/><rect class="cls-1" x="24" y="32.5" width="2" height="4.69"/></g></svg>