<svg xmlns="http://www.w3.org/2000/svg" viewBox="0 0 75 75"><defs><style>.cls-1{fill:#d6242d;}.cls-2{fill:#fff;}</style></defs><title>AWS-Resource-Access-Manager_light-bg</title><g id="Reference"><rect id="Red_Light_BG" data-name="Red Light BG" class="cls-1" width="75" height="75"/><g id="Product_Icon" data-name="Product Icon"><path class="cls-2" d="M61.5,12.5h-48a1,1,0,0,0-1,1v44a1,1,0,0,0,1,1h8.67a9.11,9.11,0,0,1-.55-2H14.5v-42h46v42H53.67a3.43,3.43,0,0,1-.4.54L51.92,58.5H61.5a1,1,0,0,0,1-1v-44A1,1,0,0,0,61.5,12.5Z"/><path class="cls-2" d="M51.84,54.37l-2.05-2.5A1,1,0,0,0,49,51.5H37.68a7.61,7.61,0,0,0-6.68-4,7.5,7.5,0,0,0,0,15c3.22,0,5.72-1.48,6.82-4h1l1.51,1a1,1,0,0,0,1.14,0l1.37-1h.51l1.5,1a1,1,0,0,0,1.14,0l1.37-1h1.38a1,1,0,0,0,.73-.32l2.32-2.5A1,1,0,0,0,51.84,54.37ZM48.31,56.5H47.05a1,1,0,0,0-.58.19l-1.07.77-1.19-.79a1,1,0,0,0-.55-.17H42.53a1,1,0,0,0-.58.19l-1.08.77-1.18-.79a1,1,0,0,0-.55-.17h-2a1,1,0,0,0-1,.7c-.66,2.07-2.59,3.3-5.18,3.3a5.5,5.5,0,0,1,0-11,5.57,5.57,0,0,1,5.12,3.38,1,1,0,0,0,.92.62h11.5L49.74,55Z"/><path class="cls-2" d="M29,52.25A2.75,2.75,0,1,0,31.77,55,2.75,2.75,0,0,0,29,52.25Zm0,3.5a.75.75,0,1,1,.75-.75A.76.76,0,0,1,29,55.75Z"/><path class="cls-2" d="M53.5,33.5h-10a1,1,0,0,0-1,1v10a1,1,0,0,0,1,1h10a1,1,0,0,0,1-1v-10A1,1,0,0,0,53.5,33.5Zm-1,10h-8v-8h8Z"/><path class="cls-2" d="M27,33a6.5,6.5,0,1,0,6.5,6.5A6.51,6.51,0,0,0,27,33Zm0,11a4.5,4.5,0,1,1,4.5-4.5A4.51,4.51,0,0,1,27,44Z"/><path class="cls-2" d="M34.82,27.92l-7-10a1,1,0,0,0-1.64,0l-7,10A1,1,0,0,0,20,29.5H34a1,1,0,0,0,.82-1.58Zm-12.9-.42L27,20.22l5.08,7.28Z"/><path class="cls-2" d="M55.54,24l-6-6.24a1,1,0,0,0-1.41,0l-6.25,6a1,1,0,0,0-.31.7,1,1,0,0,0,.28.71l6,6.25a1,1,0,0,0,.73.31,1,1,0,0,0,.69-.28l6.24-6a1,1,0,0,0,.31-.7A1,1,0,0,0,55.54,24ZM48.6,29.27,44,24.47l4.8-4.59,4.59,4.8Z"/></g></g></svg>