<svg xmlns="http://www.w3.org/2000/svg" viewBox="0 0 75 75"><defs><style>.cls-1{fill:#d6242d;}.cls-2{fill:#fff;}</style></defs><title>AWS-CloudHSM_light-bg</title><g id="Reference"><rect id="Red_Light_BG" data-name="Red Light BG" class="cls-1" width="75" height="75"/><g id="Product_Icon" data-name="Product Icon"><path class="cls-2" d="M47,44a2.5,2.5,0,1,0,2.5,2.5A2.5,2.5,0,0,0,47,44Zm0,3.15a.65.65,0,1,1,.65-.65A.65.65,0,0,1,47,47.15Z"/><path class="cls-2" d="M62.21,57.26l-7.49-7.48a7,7,0,0,0,.43-2.47A7.33,7.33,0,0,0,47.83,40a4.06,4.06,0,0,0-.51,0H47l-.16,0a4.6,4.6,0,0,0-.59.09,7.37,7.37,0,0,0-1.11.32c-.23.09-.45.19-.7.31s-.4.22-.59.35a7.26,7.26,0,0,0-3.38,6.15,7.33,7.33,0,0,0,7.33,7.31,7.09,7.09,0,0,0,2.43-.41l.24.22V56a1,1,0,0,0,1,1h1.59l.41.41V59a1,1,0,0,0,1,1h2.58l1.68,1.7a1,1,0,0,0,.71.3h2a1,1,0,0,0,1-1V58A1,1,0,0,0,62.21,57.26ZM60.5,60h-.61l-1.68-1.7a1,1,0,0,0-.71-.3h-2V57a1,1,0,0,0-.29-.71l-1-1A1,1,0,0,0,53.5,55h-1V54a1,1,0,0,0-.31-.73l-1-1a1,1,0,0,0-1.11-.18,5.18,5.18,0,0,1-2.23.49A5.3,5.3,0,0,1,45,42.84l.42-.25.51-.23a5,5,0,0,1,.8-.22l.42-.07h.35l.14,0,.23,0a5.32,5.32,0,0,1,5.32,5.31,5.06,5.06,0,0,1-.51,2.26,1,1,0,0,0,.19,1.15l7.67,7.66Z"/><path class="cls-2" d="M18.5,48.68V15.32a.3.3,0,0,1,.28-.32H52.22a.3.3,0,0,1,.28.32V39h2V15.32A2.3,2.3,0,0,0,52.22,13H18.78a2.3,2.3,0,0,0-2.28,2.32V20h-3a1,1,0,0,0-1,1v6a1,1,0,0,0,1,1h3v8h-3a1,1,0,0,0-1,1v6a1,1,0,0,0,1,1h3v4.68A2.3,2.3,0,0,0,18.78,51H38.5V49H18.78A.3.3,0,0,1,18.5,48.68ZM14.5,26V22h2v4Zm0,16V38h2v4Z"/><path class="cls-2" d="M34.5,23A9,9,0,0,1,43,29.13l1.9-.64a11,11,0,1,0,0,7L43,34.87A9,9,0,1,1,34.5,23Z"/><path class="cls-2" d="M48.5,31H40.41a6,6,0,1,0,0,2H48.5Zm-14,5a4,4,0,1,1,4-4A4,4,0,0,1,34.5,36Z"/></g></g></svg>