<svg xmlns="http://www.w3.org/2000/svg" viewBox="0 0 50 50"><defs><style>.cls-1{fill:#d6242d;}</style></defs><title>AWS-Identity-and-Access-Management-IAM_Temporary-Security-Credential_light-bg</title><g id="Working"><path class="cls-1" d="M11.16,37.47a9.67,9.67,0,1,1,9-13.31h1.56l2-2a1,1,0,0,1,1.41,0l2,2h.68l2-2a1,1,0,0,1,1.42,0l2,2h1.85a1,1,0,0,1,.66.25l.87.76-1.32,1.51-.58-.52H32.65a1,1,0,0,1-.71-.29l-1.56-1.55-1.55,1.55a1,1,0,0,1-.71.29H26.61a1,1,0,0,1-.7-.29l-1.56-1.55L22.8,25.87a1,1,0,0,1-.71.29H19.42a1,1,0,0,1-1-.69,7.67,7.67,0,1,0,0,4.67,1,1,0,0,1,1-.7h9.06v2H20.12A9.6,9.6,0,0,1,11.16,37.47Zm-2.63-6a3.64,3.64,0,1,1,3.64-3.64A3.64,3.64,0,0,1,8.53,31.44Zm0-5.27a1.64,1.64,0,1,0,1.64,1.63A1.64,1.64,0,0,0,8.53,26.17Z"/><path class="cls-1" d="M38.83,21.07a9.6,9.6,0,0,1-8.95-6H28.32l-2,2a1,1,0,0,1-1.41,0l-2-2h-.68l-2,2a1,1,0,0,1-1.41,0l-2-2H15.09a1,1,0,0,1-.66-.24l-3-2.64a1,1,0,0,1-.1-1.4l2.26-2.64a1,1,0,0,1,.76-.35H29.88a9.66,9.66,0,1,1,9,13.3ZM27.91,13h2.67a1,1,0,0,1,1,.7,7.67,7.67,0,1,0,0-4.67,1,1,0,0,1-1,.7H14.8l-1.32,1.54,2,1.73h1.88a1,1,0,0,1,.71.3l1.56,1.55,1.55-1.55a1,1,0,0,1,.71-.3h1.5a1,1,0,0,1,.71.3l1.55,1.55,1.56-1.55A1,1,0,0,1,27.91,13Zm13.56,2a3.64,3.64,0,1,1,3.64-3.63A3.64,3.64,0,0,1,41.47,15Zm0-5.27a1.64,1.64,0,1,0,1.64,1.64A1.64,1.64,0,0,0,41.47,9.77Z"/><path class="cls-1" d="M25.94,42.64H2.5a1,1,0,0,1-1-1V37h2v3.69H25.94Z"/><path class="cls-1" d="M38.12,48.26A10.38,10.38,0,1,1,48.5,37.89,10.38,10.38,0,0,1,38.12,48.26Zm0-18.75a8.38,8.38,0,1,0,8.38,8.38A8.39,8.39,0,0,0,38.12,29.51Z"/><polygon class="cls-1" points="39.13 39.82 32.5 39.82 32.5 37.82 37.13 37.82 37.13 31.32 39.13 31.32 39.13 39.82"/></g></svg>