<svg xmlns="http://www.w3.org/2000/svg" viewBox="0 0 75 75"><defs><style>.cls-1{fill:#d6242d;}.cls-2{fill:#fff;}</style></defs><title>AWS-Directory-Service_light-bg</title><g id="Reference"><rect id="Red_Light_BG" data-name="Red Light BG" class="cls-1" width="75" height="75"/><g id="Product_Icon" data-name="Product Icon"><path class="cls-2" d="M15.26,51.39a3.62,3.62,0,0,1-2.76-3.53V22.14a3.64,3.64,0,0,1,3.64-3.64H54.86a3.62,3.62,0,0,1,3.53,2.76l-1.94.48a1.63,1.63,0,0,0-1.59-1.24H16.14a1.65,1.65,0,0,0-1.64,1.64V47.86a1.63,1.63,0,0,0,1.24,1.59Z"/><rect class="cls-2" x="21.5" y="40.5" width="10" height="2"/><rect class="cls-2" x="21.5" y="45.5" width="7" height="2"/><rect class="cls-2" x="29.5" y="45.5" width="3" height="2"/><path class="cls-2" d="M58.89,23.5H21.11a3.61,3.61,0,0,0-3.61,3.61V52.89a3.61,3.61,0,0,0,3.61,3.61H58.89a3.61,3.61,0,0,0,3.61-3.61V27.11A3.61,3.61,0,0,0,58.89,23.5ZM60.5,52.89a1.61,1.61,0,0,1-1.61,1.61H21.11a1.61,1.61,0,0,1-1.61-1.61V35.5h17v15a1,1,0,0,0,1,1h19a1,1,0,0,0,1-1v-15h3Zm-11.87-13a3.55,3.55,0,0,1-3.38,0,3.5,3.5,0,1,1,3.38,0Zm-4.1,1.92a5.91,5.91,0,0,0,4.92,0A7.73,7.73,0,0,1,55,49.25v.25H39v-.25A7.74,7.74,0,0,1,44.53,41.82Zm6.67-1.48a5.5,5.5,0,1,0-8.48,0,9.51,9.51,0,0,0-4.22,3.68V30.5h17V44.05A9.61,9.61,0,0,0,51.2,40.34Zm9.3-6.84h-3v-4a1,1,0,0,0-1-1h-19a1,1,0,0,0-1,1v4h-17V27.11a1.61,1.61,0,0,1,1.61-1.61H58.89a1.61,1.61,0,0,1,1.61,1.61Z"/></g></g></svg>