<svg xmlns="http://www.w3.org/2000/svg" xmlns:xlink="http://www.w3.org/1999/xlink" viewBox="0 0 75 75"><defs><style>.cls-1{fill:url(#RedGradient);}.cls-2{fill:#fff;}</style><linearGradient id="RedGradient" x1="-2042.54" y1="1985.47" x2="-1936.47" y2="2091.54" gradientTransform="translate(-2001 -1952) rotate(-90)" gradientUnits="userSpaceOnUse"><stop offset="0" stop-color="#bd0816"/><stop offset="1" stop-color="#ff5252"/></linearGradient></defs><title>AWS-Secrets-Manager</title><g id="Reference"><rect id="Red_Gradient" data-name="Red Gradient" class="cls-1" width="75" height="75"/><g id="Icon_Test" data-name="Icon Test"><rect class="cls-2" x="54.52" y="47.08" width="2" height="16.91" transform="translate(-23.01 55.53) rotate(-45)"/><rect class="cls-2" x="19.13" y="10.77" width="2" height="18.74" transform="translate(-8.35 20.13) rotate(-45)"/><rect class="cls-2" x="15.05" y="54.05" width="9.9" height="2" transform="translate(-33.07 30.27) rotate(-45)"/><rect class="cls-2" x="50.05" y="19.05" width="9.9" height="2" transform="translate(1.93 44.76) rotate(-45)"/><path class="cls-2" d="M60.46,36.52a22.87,22.87,0,0,0-4.31-12.44l-1.62,1.18a20.86,20.86,0,0,1,3.93,11.26h-2v2h2a20.7,20.7,0,0,1-3.93,11.32L56.15,51a22.72,22.72,0,0,0,4.31-12.5h2v-2Z"/><path class="cls-2" d="M25.21,20.52A20.77,20.77,0,0,1,36.5,16.59v1.93h2V16.59a20.77,20.77,0,0,1,11.29,3.93L51,18.9A22.81,22.81,0,0,0,38.5,14.59V12.52h-2v2.07A22.81,22.81,0,0,0,24,18.9Z"/><path class="cls-2" d="M49.79,54.58A20.77,20.77,0,0,1,38.5,58.51v-2h-2v2a20.77,20.77,0,0,1-11.29-3.93L24,56.2A22.81,22.81,0,0,0,36.5,60.51v2h2v-2A22.81,22.81,0,0,0,51,56.2Z"/><path class="cls-2" d="M18.85,51l1.62-1.18a20.7,20.7,0,0,1-3.93-11.32h2v-2h-2a20.86,20.86,0,0,1,3.93-11.26l-1.62-1.18a22.87,22.87,0,0,0-4.31,12.44h-2v2h2A22.72,22.72,0,0,0,18.85,51Z"/><path class="cls-2" d="M42.39,24.25a7.5,7.5,0,0,0-4.89-1.73h0c-3.86,0-7,2.73-7,6.09v4.91h-2a1,1,0,0,0-1,1v14a1,1,0,0,0,.29.71,1,1,0,0,0,.71.29h18a1,1,0,0,0,1-1v-14a1,1,0,0,0-.29-.7,1,1,0,0,0-.71-.3h-2v-4.9A5.71,5.71,0,0,0,42.39,24.25ZM32.5,28.61c0-2.26,2.25-4.09,5-4.09h0a5.55,5.55,0,0,1,3.6,1.25,3.76,3.76,0,0,1,1.41,2.85v4.9h-10Zm13,9.91h-3v2h3v2h-3v2h3v3h-16v-12h16Z"/><path class="cls-2" d="M36.5,42.76v2.76h2V42.76a2.93,2.93,0,1,0-2,0Zm1-3.82A1.08,1.08,0,1,1,36.43,40,1.07,1.07,0,0,1,37.5,38.94Z"/></g></g></svg>