<svg xmlns="http://www.w3.org/2000/svg" viewBox="0 0 50 50"><defs><style>.cls-1{fill:#d6242d;}</style></defs><title>AWS-Identity-and-Access-Management-IAM_AWS-STS-Alternate_light-bg</title><g id="Working"><path class="cls-1" d="M41,48.5H9a2.81,2.81,0,0,1-2.8-2.81V4.31A2.81,2.81,0,0,1,9,1.5H41a2.81,2.81,0,0,1,2.8,2.81V45.69A2.81,2.81,0,0,1,41,48.5ZM9,3.5a.8.8,0,0,0-.8.81V45.69a.8.8,0,0,0,.8.81H41a.8.8,0,0,0,.8-.81V4.31A.8.8,0,0,0,41,3.5Z"/><path class="cls-1" d="M17.5,38.49a3.72,3.72,0,0,1-1.57-1,2.21,2.21,0,0,1-.48-1.46,2.3,2.3,0,0,1,.37-1.3,2.46,2.46,0,0,1,1.05-.9,3.72,3.72,0,0,1,1.62-.33,6.93,6.93,0,0,1,2.43.47v1.07a7.79,7.79,0,0,0-2.33-.41,2.12,2.12,0,0,0-1.32.35,1.16,1.16,0,0,0-.47,1,1.1,1.1,0,0,0,.32.83,3.32,3.32,0,0,0,1.16.62l1.2.45a3.56,3.56,0,0,1,1.53,1,2.16,2.16,0,0,1,.46,1.44,2.48,2.48,0,0,1-.9,2,3.65,3.65,0,0,1-2.42.75,6,6,0,0,1-2.62-.54v-1a8.4,8.4,0,0,0,2.6.46,2.35,2.35,0,0,0,1.46-.41,1.32,1.32,0,0,0,.53-1.1,1.09,1.09,0,0,0-.31-.81,2.92,2.92,0,0,0-1-.61Z"/><path class="cls-1" d="M25.27,42.81v-8h-2.9v-1.1h7.14v1.1H26.6v8Z"/><path class="cls-1" d="M32.51,38.49a3.61,3.61,0,0,1-1.56-1,2.22,2.22,0,0,1-.49-1.46,2.38,2.38,0,0,1,.37-1.3,2.55,2.55,0,0,1,1.06-.9,3.72,3.72,0,0,1,1.62-.33,6.93,6.93,0,0,1,2.43.47v1.07a7.9,7.9,0,0,0-2.34-.41,2.12,2.12,0,0,0-1.32.35,1.15,1.15,0,0,0-.46,1,1.09,1.09,0,0,0,.31.83,3.39,3.39,0,0,0,1.17.62l1.19.45a3.56,3.56,0,0,1,1.53,1,2.17,2.17,0,0,1,.47,1.44,2.48,2.48,0,0,1-.9,2,3.67,3.67,0,0,1-2.42.75,6,6,0,0,1-2.63-.54v-1a8.45,8.45,0,0,0,2.6.46,2.35,2.35,0,0,0,1.46-.41,1.31,1.31,0,0,0,.54-1.1,1.13,1.13,0,0,0-.31-.81,3.08,3.08,0,0,0-1-.61Z"/><path class="cls-1" d="M25,26A10.38,10.38,0,1,1,35.38,15.62,10.38,10.38,0,0,1,25,26ZM25,7.25a8.38,8.38,0,1,0,8.38,8.37A8.38,8.38,0,0,0,25,7.25Z"/><polygon class="cls-1" points="26 17.56 19.38 17.56 19.38 15.56 24 15.56 24 9.06 26 9.06 26 17.56"/></g></svg>