<svg xmlns="http://www.w3.org/2000/svg" viewBox="0 0 50 50"><defs><style>.cls-1{fill:#d6242d;}</style></defs><title>AWS-Identity-and-Access-Management-IAM_Long-term-Security-Credential_light-bg</title><g id="Working"><path class="cls-1" d="M11.17,40.83a9.67,9.67,0,1,1,9-13.3h1.56l2-2a1,1,0,0,1,1.41,0l2,2h.68l2-2a1,1,0,0,1,1.41,0l2,2h1.85a1,1,0,0,1,.66.25l3,2.63a1,1,0,0,1,.1,1.41l-2.26,2.64a1,1,0,0,1-.76.34H20.12A9.6,9.6,0,0,1,11.17,40.83Zm0-17.33a7.67,7.67,0,1,0,7.3,10,1,1,0,0,1,1-.7H35.2l1.32-1.53-2-1.74H32.65a1,1,0,0,1-.71-.29l-1.56-1.56-1.55,1.56a1,1,0,0,1-.71.29h-1.5a1,1,0,0,1-.71-.29l-1.55-1.56L22.8,29.24a1,1,0,0,1-.71.29H19.42a1,1,0,0,1-1-.7A7.63,7.63,0,0,0,11.17,23.5ZM8.53,34.8a3.64,3.64,0,1,1,3.64-3.63A3.64,3.64,0,0,1,8.53,34.8Zm0-5.27a1.64,1.64,0,1,0,1.64,1.64A1.64,1.64,0,0,0,8.53,29.53Z"/><path class="cls-1" d="M38.83,23.5a9.6,9.6,0,0,1-8.95-6H28.32l-2,2a1,1,0,0,1-1.41,0l-2-2h-.68l-2,2a1,1,0,0,1-1.41,0l-2-2H15.09a1,1,0,0,1-.66-.25l-3-2.63a1,1,0,0,1-.1-1.41l2.26-2.64a1,1,0,0,1,.76-.34H29.88a9.66,9.66,0,1,1,9,13.3Zm-10.92-8h2.67a1,1,0,0,1,1,.7,7.67,7.67,0,1,0,0-4.67,1,1,0,0,1-1,.7H14.8l-1.32,1.53,2,1.74h1.88a1,1,0,0,1,.71.29l1.56,1.56,1.55-1.56a1,1,0,0,1,.71-.29h1.5a1,1,0,0,1,.71.29l1.55,1.56,1.56-1.56A1,1,0,0,1,27.91,15.47Zm13.56,2a3.64,3.64,0,1,1,3.64-3.64A3.64,3.64,0,0,1,41.47,17.47Zm0-5.27a1.64,1.64,0,1,0,1.64,1.63A1.64,1.64,0,0,0,41.47,12.2Z"/><path class="cls-1" d="M47.5,46H2.5a1,1,0,0,1-1-1V40.31h2V44h43V40.31h2V45A1,1,0,0,1,47.5,46Z"/></g></svg>