<svg xmlns="http://www.w3.org/2000/svg" viewBox="0 0 50 50"><defs><style>.cls-1{fill:#d6242d;}</style></defs><title>AWS-WAF_Filtering-rule_light-bg copy</title><g id="Working"><path class="cls-1" d="M25,48.5A23.5,23.5,0,1,1,48.5,25,23.52,23.52,0,0,1,25,48.5Zm0-45A21.5,21.5,0,1,0,46.5,25,21.52,21.52,0,0,0,25,3.5Z"/><path class="cls-1" d="M22.19,41a1,1,0,0,1-1-1V32.79l-10.62-17,1.69-1.06L23,32a1.08,1.08,0,0,1,.15.53v6.38a15.72,15.72,0,0,0,3-1.12l.65-.29v-5A1.08,1.08,0,0,1,27,32L37.75,14.69l1.69,1.06-10.63,17v5.33a1,1,0,0,1-.61.93c-.41.16-.81.35-1.22.53A11.84,11.84,0,0,1,22.19,41Z"/><path class="cls-1" d="M25,18.28c-5.44,0-14.58-.4-14.58-3.06S19.56,12.16,25,12.16s14.59.4,14.59,3.06S30.45,18.28,25,18.28ZM13.24,15.22A49.44,49.44,0,0,0,25,16.28a49.48,49.48,0,0,0,11.77-1.06A49.48,49.48,0,0,0,25,14.16,49.44,49.44,0,0,0,13.24,15.22Z"/></g></svg>