<svg xmlns="http://www.w3.org/2000/svg" viewBox="0 0 75 75"><defs><style>.cls-1{fill:#d6242d;}.cls-2{fill:#fff;}</style></defs><title>AWS-Security-Hub_light-bg</title><g id="Reference"><rect id="Red_Light_BG" data-name="Red Light BG" class="cls-1" width="75" height="75"/><g id="Product_Icon" data-name="Product Icon"><path class="cls-2" d="M37.5,21.65a4.45,4.45,0,1,1,4.44-4.44A4.44,4.44,0,0,1,37.5,21.65Zm0-6.89a2.45,2.45,0,1,0,2.44,2.45A2.45,2.45,0,0,0,37.5,14.76Z"/><path class="cls-2" d="M55.37,29.39A4.45,4.45,0,1,1,59.81,25,4.44,4.44,0,0,1,55.37,29.39Zm0-6.89A2.45,2.45,0,1,0,57.81,25,2.45,2.45,0,0,0,55.37,22.5Z"/><path class="cls-2" d="M19.93,53.42A4.45,4.45,0,1,1,24.37,49,4.44,4.44,0,0,1,19.93,53.42Zm0-6.89A2.45,2.45,0,1,0,22.37,49,2.45,2.45,0,0,0,19.93,46.53Z"/><path class="cls-2" d="M37.5,62.24a4.45,4.45,0,1,1,4.44-4.45A4.45,4.45,0,0,1,37.5,62.24Zm0-6.89a2.45,2.45,0,1,0,2.44,2.44A2.45,2.45,0,0,0,37.5,55.35Z"/><path class="cls-2" d="M19.63,29.14a4.45,4.45,0,1,1,4.45-4.44A4.44,4.44,0,0,1,19.63,29.14Zm0-6.89a2.45,2.45,0,1,0,2.45,2.45A2.45,2.45,0,0,0,19.63,22.25Z"/><rect class="cls-2" x="24.45" y="25.29" width="2" height="6.56" transform="translate(-12.56 33) rotate(-54.95)"/><rect class="cls-2" x="46.4" y="26.85" width="6.65" height="2" transform="translate(-7.12 23.76) rotate(-25.14)"/><rect class="cls-2" x="22.58" y="44.48" width="5.8" height="2" transform="translate(-21.44 22.76) rotate(-34.9)"/><rect class="cls-2" x="36.5" y="21.47" width="2" height="4.12"/><rect class="cls-2" x="36.5" y="49.83" width="2" height="4.24"/><path class="cls-2" d="M55.37,52.83a4.45,4.45,0,1,1,4.44-4.44A4.44,4.44,0,0,1,55.37,52.83Zm0-6.89a2.45,2.45,0,1,0,2.44,2.45A2.45,2.45,0,0,0,55.37,45.94Z"/><rect class="cls-2" x="49.05" y="42.45" width="2" height="5.22" transform="translate(-15.55 60.3) rotate(-55.08)"/><path class="cls-2" d="M37.56,50.15A12.65,12.65,0,1,1,50.21,37.5,12.66,12.66,0,0,1,37.56,50.15Zm0-23.3A10.65,10.65,0,1,0,48.21,37.5,10.67,10.67,0,0,0,37.56,26.85Z"/><path class="cls-2" d="M37.8,47.31c-6,0-7.65-5.29-7.65-8.09V31.44a1,1,0,0,1,.62-.92l6.64-2.75a1,1,0,0,1,.77,0l6.64,2.75a1,1,0,0,1,.62.92v7.8C45.44,42,43.84,47.31,37.8,47.31Zm-5.65-15.2v7.11c0,.25.1,6.09,5.65,6.09s5.64-5.82,5.64-6.07V32.11L37.8,29.78Z"/><path class="cls-2" d="M37.8,44c-3.73,0-4.62-4.49-4.66-4.68a1.23,1.23,0,0,1,0-.19V34a1,1,0,0,1,.63-.93l3.67-1.48a1,1,0,0,1,.75,0L41.84,33a1,1,0,0,1,.63.93v5.18a1.23,1.23,0,0,1,0,.19C42.42,39.51,41.52,44,37.8,44Zm-2.68-5c.12.48.8,3,2.68,3s2.56-2.49,2.67-3v-4.4L37.8,33.54l-2.68,1.08Z"/><rect class="cls-2" x="36.81" y="33.23" width="2" height="10.54"/></g></g></svg>