<svg xmlns="http://www.w3.org/2000/svg" viewBox="0 0 75 75"><defs><style>.cls-1{fill:#d6242d;}.cls-2{fill:#fff;}</style></defs><title>AWS-Single-Sign-On_light-bg</title><g id="Reference"><rect id="Red_Light_BG" data-name="Red Light BG" class="cls-1" width="75" height="75"/><g id="Product_Icon" data-name="Product Icon"><path class="cls-2" d="M29.5,45.21H22.35c-5.24,0-9.55-3.82-9.83-8.67,0-.21,0-.42,0-.64A8.79,8.79,0,0,1,19,27.1c0-.23,0-.46,0-.7a13,13,0,0,1,7.84-11.54A13.52,13.52,0,0,1,41.6,17.65a14,14,0,0,1,3,4.2,6.09,6.09,0,0,1,3.71-1.26c2.8,0,5.74,1.95,6.3,6.28C59.71,28.09,62.5,31.3,62.5,36c0,5-2.73,8.31-7.5,9.09l-.32-2c2.65-.43,5.82-2,5.82-7.11,0-3.93-2.35-6.38-7-7.28a1,1,0,0,1-.81-.92c-.23-3.82-2.5-5.17-4.37-5.17a4.12,4.12,0,0,0-3.26,1.62,1,1,0,0,1-.94.38,1,1,0,0,1-.79-.64,12.59,12.59,0,0,0-3.12-4.85,11.59,11.59,0,0,0-12.63-2.39A11.12,11.12,0,0,0,21,26.4a11.2,11.2,0,0,0,.08,1.3.49.49,0,0,1,0,.12h0a1,1,0,0,1-.85,1c-2.19.55-5.75,2.21-5.75,7.06,0,.18,0,.36,0,.53.22,3.79,3.66,6.78,7.83,6.79H29.5Z"/><path class="cls-2" d="M61.5,61.21H58.56a1,1,0,0,1-.7-.28l-1.77-1.72H51.5a1,1,0,0,1-1-1V55.62l-1.41-1.41H46.5a1,1,0,0,1-1-1V50.5l-.38-.61a10.3,10.3,0,0,1-3.45.6A10.16,10.16,0,0,1,36.2,31.76c.26-.17.55-.33.83-.48s.63-.3.94-.43a10.15,10.15,0,0,1,1.54-.44,5.73,5.73,0,0,1,.81-.13l.25,0h.32l.15,0a4.34,4.34,0,0,1,.63-.06A10.19,10.19,0,0,1,51.84,40.32a9.06,9.06,0,0,1-.61,3.52l11,11a1.05,1.05,0,0,1,.29.71v4.69A1,1,0,0,1,61.5,61.21Zm-2.53-2H60.5V55.94L49.33,44.77a1,1,0,0,1-.22-1.08v0a7.1,7.1,0,0,0,.72-3.35,8.18,8.18,0,0,0-8.17-8.17,2.09,2.09,0,0,0-.36,0l-.23,0H41l-.2,0-.22,0a4.28,4.28,0,0,0-.61.09,8.84,8.84,0,0,0-1.25.35c-.2.09-.48.21-.75.35s-.45.25-.67.39a8.16,8.16,0,0,0,7.82,14.29,1,1,0,0,1,1.27.37l1,1.57a1,1,0,0,1,.15.53v2h2a1,1,0,0,1,.71.29l2,2a1,1,0,0,1,.29.71v2h4a1,1,0,0,1,.7.28Zm-19-17h0a3.61,3.61,0,0,1-2.61-1.1,3.69,3.69,0,0,1,5.23-5.22,3.61,3.61,0,0,1,1.1,2.61A3.74,3.74,0,0,1,40,42.21Zm0-5.26a1.66,1.66,0,0,0-1.19.49,1.7,1.7,0,0,0-.5,1.2,1.68,1.68,0,0,0,.5,1.2,1.67,1.67,0,0,0,2.4,0h0a1.7,1.7,0,0,0,.5-1.2,1.67,1.67,0,0,0-.5-1.19A1.75,1.75,0,0,0,39.94,37Z"/></g></g></svg>