<svg xmlns="http://www.w3.org/2000/svg" viewBox="0 0 50 50"><defs><style>.cls-1{fill:#d6242d;}</style></defs><title>AWS-Certificate-Manager_Certificate-Manager_light-bg</title><g id="Working"><path class="cls-1" d="M47.5,46.62H42.81v-2H46.5l0-33.62H3.5V44.62H33.44v2H2.5a1,1,0,0,1-1-1V10a1,1,0,0,1,1-1h45a1,1,0,0,1,1,1l0,35.62a1,1,0,0,1-1,1Z"/><path class="cls-1" d="M47.45,11H2.5a1,1,0,0,1-1-1V4.38a1,1,0,0,1,1-1h45a1,1,0,0,1,1,1V10A1,1,0,0,1,47.45,11ZM3.5,9h43V5.38H3.5Z"/><path class="cls-1" d="M25,32.56a9.44,9.44,0,1,1,9.44-9.44A9.45,9.45,0,0,1,25,32.56Zm0-16.87a7.44,7.44,0,1,0,7.44,7.43A7.44,7.44,0,0,0,25,15.69Z"/><path class="cls-1" d="M29.69,42.88a1,1,0,0,1-.64-.23L25,39.33,21,42.65a1,1,0,0,1-1.64-.77V33.44h2v6.32l3.06-2.49a1,1,0,0,1,1.26,0l3.06,2.49V33.44h2v8.44a1,1,0,0,1-.57.9A1.12,1.12,0,0,1,29.69,42.88Z"/><path class="cls-1" d="M23.44,27.88a1,1,0,0,1-.73-.32l-3.12-3.28L21,22.9l2.4,2.52L29,19.62,30.41,21l-6.25,6.56A1,1,0,0,1,23.44,27.88Z"/></g></svg>