<svg xmlns="http://www.w3.org/2000/svg" viewBox="0 0 50 50"><defs><style>.cls-1{fill:#d6242d;}</style></defs><title>AWS-Identity-and-Access-Management-IAM_AWS-STS_light-bg</title><g id="Working"><path class="cls-1" d="M15.19,35.43a10.41,10.41,0,1,1,9.66-14.26h1.78L28.79,19a1,1,0,0,1,1.42,0l2.16,2.16h.8L35.33,19a1,1,0,0,1,1.42,0l2.16,2.16h2a1,1,0,0,1,.66.25l3.27,2.86a1,1,0,0,1,.1,1.4l-2.46,2.86a1,1,0,0,1-.75.35H24.85A10.35,10.35,0,0,1,15.19,35.43Zm0-18.81a8.41,8.41,0,1,0,8,11,1,1,0,0,1,.95-.7H41.31l1.51-1.76-2.25-2H38.49a1,1,0,0,1-.7-.29L36,21.13l-1.75,1.75a1,1,0,0,1-.7.29H32a1.05,1.05,0,0,1-.71-.29L29.5,21.13l-1.75,1.75a1,1,0,0,1-.71.29h-2.9a1,1,0,0,1-.95-.7A8.36,8.36,0,0,0,15.19,16.62ZM12.32,28.89A3.86,3.86,0,1,1,16.19,25,3.86,3.86,0,0,1,12.32,28.89Zm0-5.72A1.86,1.86,0,1,0,14.19,25,1.86,1.86,0,0,0,12.32,23.17Z"/><path class="cls-1" d="M47.5,40.06H2.5a1,1,0,0,1-1-1V10.94a1,1,0,0,1,1-1h45a1,1,0,0,1,1,1V39.06A1,1,0,0,1,47.5,40.06Zm-44-2h43V11.94H3.5Z"/></g></svg>