<svg xmlns="http://www.w3.org/2000/svg" viewBox="0 0 75 75"><defs><style>.cls-1{fill:#d6242d;}.cls-2{fill:#fff;}</style></defs><title>AWS-Certificate-Manager_light-bg</title><g id="Reference"><rect id="Red_Light_BG" data-name="Red Light BG" class="cls-1" width="75" height="75"/><g id="Product_Icon" data-name="Product Icon"><rect class="cls-2" x="32.5" y="48.5" width="19" height="2"/><rect class="cls-2" x="23.5" y="48.5" width="5" height="2"/><rect class="cls-2" x="32.5" y="52.5" width="12" height="2"/><rect class="cls-2" x="23.5" y="52.5" width="5" height="2"/><rect class="cls-2" x="13.5" y="20.5" width="48" height="2"/><path class="cls-2" d="M61.5,60.5h-5v-2h4.2v-42H14.5v42h32v2h-33a1,1,0,0,1-1-1v-44a1,1,0,0,1,1-1H61.44a1,1,0,0,1,1.06,1v44a1,1,0,0,1-.29.71A1,1,0,0,1,61.5,60.5Z"/><path class="cls-2" d="M31.72,44.59a1,1,0,0,1-.58-.19,1,1,0,0,1-.4-1l1-5.92-4.31-4.2A1,1,0,0,1,28,31.6l5.94-.87,2.66-5.39a1,1,0,0,1,.89-.56h0a1,1,0,0,1,.9.56l2.66,5.39,6,.85a1,1,0,0,1,.56,1.71l-4.3,4.2,1,5.92a1,1,0,0,1-.4,1,1,1,0,0,1-1.05.07l-5.32-2.79-5.32,2.8A1,1,0,0,1,31.72,44.59ZM30.29,33.28l3.23,3.15a1,1,0,0,1,.29.88l-.76,4.45,4-2.1a1,1,0,0,1,.93,0l4,2.09-.76-4.44a1,1,0,0,1,.28-.89l3.23-3.15-4.46-.64a1,1,0,0,1-.76-.55l-2-4-2,4.05a1,1,0,0,1-.75.54Z"/></g></g></svg>