<svg xmlns="http://www.w3.org/2000/svg" viewBox="0 0 50 50"><defs><style>.cls-1{fill:#d6242d;}</style></defs><title>AWS-Identity-and-Access-Management-IAM_MFA-Token_light-bg</title><g id="Working"><path class="cls-1" d="M25,45.69A20.69,20.69,0,1,1,45.69,25,20.71,20.71,0,0,1,25,45.69ZM25,6.31A18.69,18.69,0,1,0,43.69,25,18.72,18.72,0,0,0,25,6.31Z"/><path class="cls-1" d="M19.87,29.69V21.9l-2.7,5.18H15.52l-2.61-5.15v7.76H11.23V19.29h2l3.12,6.2,3.18-6.2h2v10.4Z"/><path class="cls-1" d="M24,29.69V19.29h6.31v1.47H25.81v3h3.67v1.47H25.81v4.46Z"/><path class="cls-1" d="M37.68,29.69l-.88-2.61H32.65l-.84,2.61H30l3.8-10.4h2l3.75,10.4Zm-4.59-4h3.29l-1.65-4.8Z"/></g></svg>