<svg xmlns="http://www.w3.org/2000/svg" width="50" height="50" viewBox="0 0 50 50"><title>AWS-Managed-Microsoft-AD_light-bg</title><g id="Working"><path d="M27.31,38.28a1,1,0,0,1-1,1h-25a1,1,0,0,1-.86-1.5L21.5,1.24a1,1,0,0,1,1.74,0L33.29,18.65A1,1,0,0,1,32.92,20a1,1,0,0,1-1.36-.37L22.37,3.74,3,37.28h23.3A1,1,0,0,1,27.31,38.28Zm22.42-13h0V45.11c0,2.85-5.48,4.15-10.57,4.15S28.6,48,28.6,45.11V25.3h0c0-2.85,5.47-4.14,10.56-4.14S49.72,22.45,49.73,25.3Zm-2,2.57c-2.06,1.08-5.39,1.59-8.57,1.59S32.65,29,30.6,27.87V45.11c0,.62,3,2.15,8.56,2.15s8.57-1.53,8.57-2.15Zm0-2.57c0-.62-3-2.14-8.57-2.14S30.6,24.68,30.6,25.3s3,2.16,8.56,2.16S47.73,25.93,47.73,25.3ZM36.29,38.45l-2.08-4.13H32.85v6.93H34V36.08l1.74,3.43h1.1l1.8-3.45v5.19h1.12V34.32H38.41Zm6.36-.39.88.34a2.46,2.46,0,0,1,.8.44.75.75,0,0,1,.23.56.83.83,0,0,1-.38.73,1.9,1.9,0,0,1-1.07.26,5.7,5.7,0,0,1-1-.09,6.21,6.21,0,0,1-1-.25v1a4.08,4.08,0,0,0,.93.29,5.37,5.37,0,0,0,1.06.11,3,3,0,0,0,2-.58,1.93,1.93,0,0,0,.71-1.58,1.7,1.7,0,0,0-.37-1.12,2.75,2.75,0,0,0-1.2-.75l-.84-.31a2.64,2.64,0,0,1-.84-.44.77.77,0,0,1-.23-.56c0-.59.43-.89,1.3-.89a5.9,5.9,0,0,1,1.75.3v-1a5.29,5.29,0,0,0-1.87-.36,2.71,2.71,0,0,0-1.77.54,1.82,1.82,0,0,0-.65,1.48,1.64,1.64,0,0,0,.37,1.11A3,3,0,0,0,42.65,38.06Z" style="fill:#d6242d"/></g></svg>