<svg xmlns="http://www.w3.org/2000/svg" viewBox="0 0 75 75"><defs><style>.cls-1{fill:#d6242d;}.cls-2{fill:#fff;}</style></defs><title>AWS-Firewall-Manager_light-bg</title><g id="Reference"><rect id="Red_Light_BG" data-name="Red Light BG" class="cls-1" width="75" height="75"/><g id="Product_Icon" data-name="Product Icon"><path class="cls-2" d="M47.32,38.35a1,1,0,0,0-.94,0,1,1,0,0,0-.54.79,14.3,14.3,0,0,1-.57,2.81,15.29,15.29,0,0,0-4.39-10.25,16.14,16.14,0,0,0-4.67-3.3A11.65,11.65,0,0,0,31,26.17a1,1,0,0,0-1.09.57,1,1,0,0,0,.28,1.19,10.06,10.06,0,0,1,2.69,9.51c-1.3-1.75-3.44-4-6-4a1,1,0,0,0-.82.44,1,1,0,0,0-.11.92c0,.06,2.38,6.24.1,9.83-.12.18-.23.36-.35.56A10.4,10.4,0,0,0,28.86,58.7a30.24,30.24,0,0,0,7,3.5l.15.06,0-.06.32.13h.09c1.21-.11,11.8-1.31,14-9.57C53.22,41.73,47.55,38.49,47.32,38.35ZM30,57.06a8.36,8.36,0,0,1-2.55-10.89c.08-.16.18-.32.28-.48,2-3.11,1.29-7.42.66-9.83a12.86,12.86,0,0,1,4,4.48,1,1,0,0,0,.95.53,1,1,0,0,0,.87-.67c1.78-5.07.7-8.79-.58-11.09a7.51,7.51,0,0,1,1.23.78A.52.52,0,0,0,35,30a9.16,9.16,0,0,1,1.19,1.11s0,0,0,0a2.94,2.94,0,0,1,.32.4,9.92,9.92,0,0,1,2,6.23,15.13,15.13,0,0,1-2,7.34c-.21.38-.39.76-.58,1.15a21.08,21.08,0,0,0-1.1,13.42A27.47,27.47,0,0,1,30,57.06Zm18.44-4.8c-1.57,6-9.09,7.63-11.43,8a19.18,19.18,0,0,1,.68-13.15q.24-.51.51-1a17,17,0,0,0,2.26-8.32,13.21,13.21,0,0,0-.69-4.29C42,35.89,44,39.84,43,45.86a1,1,0,0,0,1.62.94c.09-.08,2-1.67,2.88-5.57C48.68,42.75,50.05,46,48.45,52.26Z"/><path class="cls-2" d="M36,62.2l0,.06a.84.84,0,0,0,.35.07h0Z"/><path class="cls-2" d="M15.17,37.67c0-.17,0-.33,0-.5a4.5,4.5,0,0,0,2-8.55,21.86,21.86,0,0,1,6.25-8.08L22.14,19a23.67,23.67,0,0,0-7,9.19,4.5,4.5,0,0,0-1.94,8.54q0,.48,0,1a24,24,0,0,0,8.26,18.11l1.33-1.5A22,22,0,0,1,15.17,37.67Zm-2.5-5a2.5,2.5,0,1,1,2.5,2.5A2.5,2.5,0,0,1,12.67,32.67Z"/><path class="cls-2" d="M59.83,29.17h-.21a23,23,0,0,0-2-4.13l-1.69,1.06a22,22,0,0,1,1.79,3.6,4.5,4.5,0,0,0,1.48,8.41,21.74,21.74,0,0,1-4.28,12.61l1.59,1.2a23.61,23.61,0,0,0,4.69-14,4.5,4.5,0,0,0-1.33-8.8Zm0,7a2.5,2.5,0,1,1,2.5-2.5A2.5,2.5,0,0,1,59.83,36.17Z"/><path class="cls-2" d="M47.54,18.27a22,22,0,0,0-13.65-2.35l-.3-2a24,24,0,0,1,14.9,2.57Z"/><path class="cls-2" d="M52.67,25.67a4.5,4.5,0,1,1,4.5-4.5A4.51,4.51,0,0,1,52.67,25.67Zm0-7a2.5,2.5,0,1,0,2.5,2.5A2.51,2.51,0,0,0,52.67,18.67Z"/><path class="cls-2" d="M28.17,21.67a4.5,4.5,0,1,1,4.5-4.5A4.51,4.51,0,0,1,28.17,21.67Zm0-7a2.5,2.5,0,1,0,2.5,2.5A2.51,2.51,0,0,0,28.17,14.67Z"/></g></g></svg>