<svg xmlns="http://www.w3.org/2000/svg" width="50" height="50" viewBox="0 0 50 50"><title>Security-Hub_Finding_light-bg</title><g id="Working"><path id="_48px_Compound" data-name="48px Compound" d="M27.06,43.39a11.5,11.5,0,0,0,1.46,1.66A20.37,20.37,0,0,1,22,46C5.48,46,5,31.64,5,30V12a1,1,0,0,1,.6-.92l16-7a1,1,0,0,1,.82,0l15,7A1,1,0,0,1,38,12V26.19A11,11,0,0,0,36,26V12.64L22,6.1,7,12.65V30C7,43.61,20.5,44,22,44A19,19,0,0,0,27.06,43.39ZM31,27.21V15.62l-8-4V39a13.3,13.3,0,0,0,2.14-.3,10.69,10.69,0,0,0,.48,1.95A16.16,16.16,0,0,1,22,41c-9.47,0-12-6.29-12-10V15a1,1,0,0,1,.59-.91l11-5a1,1,0,0,1,.86,0l10,5A1,1,0,0,1,33,15V26.43A10.51,10.51,0,0,0,31,27.21ZM21,39V11.55l-9,4.09V31C12,31.79,12.29,38.47,21,39Zm24-2a9,9,0,1,1-9-9A9,9,0,0,1,45,37Zm-2,0a7,7,0,1,0-7,7A7,7,0,0,0,43,37Zm-8,1h2V32H35Zm0,4h2V40H35Z" style="fill:#d6242d"/></g></svg>