<svg xmlns="http://www.w3.org/2000/svg" width="50" height="50" viewBox="0 0 50 50"><title>Simple-AD_light-bg</title><g id="Working"><path d="M27.31,38.28a1,1,0,0,1-1,1h-25a1,1,0,0,1-.86-1.5L21.5,1.24a1,1,0,0,1,1.74,0L33.29,18.65A1,1,0,0,1,32.92,20a1,1,0,0,1-1.36-.37L22.37,3.74,3,37.28h23.3A1,1,0,0,1,27.31,38.28Zm22.42-13h0v19.8c0,2.85-5.48,4.15-10.57,4.15S28.6,48,28.6,45.11V25.31h0c0-2.85,5.47-4.14,10.56-4.14S49.72,22.45,49.73,25.3Zm-2,2.57c-2.06,1.08-5.39,1.59-8.57,1.59S32.65,29,30.6,27.87V45.11c0,.62,3,2.15,8.56,2.15s8.57-1.53,8.57-2.15Zm0-2.56c0-.63-3-2.15-8.57-2.15s-8.56,1.52-8.56,2.15,3,2.15,8.56,2.15S47.73,25.93,47.73,25.31Z" style="fill:#d6242d"/></g></svg>