<?xml version="1.0" encoding="utf-8"?>
<!-- Generator: Adobe Illustrator 21.0.0, SVG Export Plug-In . SVG Version: 6.00 Build 0)  -->
<svg version="1.1" id="Layer_1" xmlns="http://www.w3.org/2000/svg" xmlns:xlink="http://www.w3.org/1999/xlink" x="0px" y="0px"
	 width="100px" height="100px" viewBox="0 0 100 100" style="enable-background:new 0 0 100 100;" xml:space="preserve">
<style type="text/css">
	.st0{fill:#4B612C;}
	.st1{fill:#759C3E;}
	.st2{fill:#3C4929;}
	.st3{fill:#B7CA9D;}
</style>
<polygon class="st0" points="21.8,77 16,74.1 16,25.9 21.8,23 "/>
<polygon class="st1" points="56.8,68.5 21.8,77 21.8,23 56.8,31.6 "/>
<polygon class="st0" points="35.5,83.8 26.6,79.4 26.6,20.6 35.5,16.2 "/>
<polygon class="st1" points="84,74.1 78.2,77 78.2,23 84,25.9 "/>
<polygon class="st0" points="43.2,68.5 78.2,77 78.2,23 43.2,31.6 "/>
<polygon class="st1" points="71.1,71.4 35.5,83.9 35.5,16.2 71.1,28.6 "/>
<g>
	<polygon class="st0" points="50,83.9 38.7,79.2 38.7,20.3 50,15.6 	"/>
	<polygon class="st0" points="32.4,76.6 24.7,73.5 24.7,26.2 32.4,23 	"/>
</g>
<polygon class="st1" points="73.4,79.4 64.5,83.8 64.5,16.2 73.4,20.6 "/>
<polygon class="st0" points="49.9,78.7 64.5,83.7 64.5,16.2 49.9,21.3 "/>
<polygon class="st1" points="50,83.9 61.4,79.2 61.4,20.3 50,15.6 "/>
<polygon class="st1" points="68.6,76.3 75.4,73.4 75.4,26.2 68.6,23.3 "/>
<polygon class="st0" points="50,91.1 43.2,87.6 43.2,12.4 50,8.9 "/>
<polygon class="st1" points="50,91.1 56.8,87.6 56.8,12.4 50,8.9 "/>
</svg>
