<?xml version="1.0" encoding="utf-8"?>
<!-- Generator: Adobe Illustrator 21.0.0, SVG Export Plug-In . SVG Version: 6.00 Build 0)  -->
<svg version="1.1" id="Layer_1" xmlns="http://www.w3.org/2000/svg" xmlns:xlink="http://www.w3.org/1999/xlink" x="0px" y="0px"
	 width="100px" height="100px" viewBox="0 0 100 100" style="enable-background:new 0 0 100 100;" xml:space="preserve">
<style type="text/css">
	.st0{fill:#4B612C;}
	.st1{fill:#759C3E;}
	.st2{fill:#3C4929;}
	.st3{fill:#B7CA9D;}
</style>
<g>
	<polygon class="st0" points="25.5,78.7 16,74 16,25.9 25.5,21.2 38.5,50.7 	"/>
	<polygon class="st1" points="56.8,29.6 25.5,21.2 25.5,78.7 56.8,70 	"/>
	<polygon class="st0" points="71.2,65.7 78.5,68.1 83.1,52.3 78.5,36.5 71.2,37.5 	"/>
	<polygon class="st2" points="78.5,36.9 71.2,37.8 66.9,36.9 74.4,21.3 	"/>
	<polygon class="st0" points="66.9,36.9 74.4,35.9 74.4,21.2 66.9,23.2 	"/>
	<polygon class="st2" points="43.1,31.6 50,24.4 68,34.3 61.4,35.4 	"/>
	<polygon class="st3" points="78.5,63.1 71.2,62.3 66.9,63.1 74.4,78.8 	"/>
	<polygon class="st0" points="66.9,63.1 74.4,64.1 74.4,78.8 66.9,76.8 	"/>
	<polygon class="st1" points="68,34.3 50,29.9 50,9 68,18.1 	"/>
	<polygon class="st1" points="84,26 74.4,21.2 74.4,35.9 84,38.2 	"/>
	<polygon class="st3" points="43.1,68.4 50,82.1 68,65.7 61.4,64.6 	"/>
	<polygon class="st1" points="68,65.7 50,70.1 50,91 68,82 	"/>
	<polygon class="st1" points="84,74.1 74.4,78.8 74.4,64.1 84,61.8 	"/>
	<polygon class="st0" points="31.9,81.9 50,91 58.3,50.1 50,9 31.9,18 	"/>
	<polygon class="st1" points="60.2,85.9 50,91 50,9.3 60.2,14.4 	"/>
	<polygon class="st1" points="78.5,76.8 84,74.1 84,26 78.5,24.8 	"/>
</g>
</svg>
