<?xml version="1.0" encoding="utf-8"?>
<!-- Generator: Adobe Illustrator 21.0.0, SVG Export Plug-In . SVG Version: 6.00 Build 0)  -->
<svg version="1.1" id="Layer_1" xmlns="http://www.w3.org/2000/svg" xmlns:xlink="http://www.w3.org/1999/xlink" x="0px" y="0px"
	 width="100px" height="100px" viewBox="0 0 100 100" style="enable-background:new 0 0 100 100;" xml:space="preserve">
<style type="text/css">
	.st0{fill:#4B612C;}
	.st1{fill:#759C3E;}
	.st2{fill:#3C4929;}
	.st3{fill:#B7CA9D;}
</style>
<g>
	<polygon class="st1" points="60.8,69 25.6,78.7 25.6,21.2 60.8,30.7 	"/>
	<polygon class="st0" points="25.6,78.7 16.1,74 16.1,26 25.6,21.2 	"/>
	<polygon class="st0" points="31.9,41.9 50,39.7 50,60.2 31.9,57.9 	"/>
	<polygon class="st2" points="83.9,38 67.5,39.7 31.9,34 50,9 	"/>
	<polygon class="st0" points="31.9,18 50,9 50,29.5 31.9,34 	"/>
	<polygon class="st3" points="83.9,62 67.5,60.3 31.9,65.9 50,90.8 	"/>
	<polygon class="st0" points="31.9,81.9 50,91 50,70.5 31.9,65.9 	"/>
	<polygon class="st1" points="83.9,38 50,29.5 50,9 83.9,26 	"/>
	<polygon class="st1" points="83.9,55.9 50,60.2 50,39.6 83.9,43.9 	"/>
	<polygon class="st1" points="83.9,74 50,91 50,70.5 83.9,62 	"/>
</g>
</svg>
