<?xml version="1.0" encoding="utf-8"?>
<!-- Generator: Adobe Illustrator 21.0.0, SVG Export Plug-In . SVG Version: 6.00 Build 0)  -->
<svg version="1.1" id="Layer_1" xmlns="http://www.w3.org/2000/svg" xmlns:xlink="http://www.w3.org/1999/xlink" x="0px" y="0px"
	 width="100px" height="100px" viewBox="0 0 100 100" style="enable-background:new 0 0 100 100;" xml:space="preserve">
<style type="text/css">
	.st0{fill:#4B612C;}
	.st1{fill:#759C3E;}
	.st2{fill:#3C4929;}
	.st3{fill:#B7CA9D;}
</style>
<g>
	<polygon class="st3" points="29.6,60.4 24.7,59.5 16,60.3 20.3,75.4 	"/>
	<polygon class="st0" points="16,43.1 16,56.8 20.4,57.5 29,50.4 20.4,42.5 	"/>
	<polygon class="st1" points="20.4,61.3 29.6,60.4 29.6,74.1 20.4,74.8 16.9,67.6 	"/>
	<polygon class="st2" points="24.8,40.5 29.6,39.7 20.4,24.4 16,39.7 	"/>
	<polygon class="st1" points="20.4,23.8 29.6,25.9 29.6,39.7 20.4,38.7 	"/>
	<polygon class="st1" points="20.4,42.5 29.6,43.2 29.6,56.9 20.4,57.5 	"/>
	<polygon class="st2" points="29.6,35.6 36.6,33.9 27,20.8 20.4,34.3 	"/>
	<polygon class="st1" points="27,20.5 36.6,23.2 36.6,33.9 27,32.3 	"/>
	<polygon class="st3" points="36.6,66 29.6,64.4 20.4,65.7 27,79.5 	"/>
	<polygon class="st1" points="27,67.7 36.6,66 36.6,76.8 27,79.5 18.3,72.8 	"/>
	<polygon class="st2" points="83.9,39.7 75.1,40.5 63.4,38.5 72.9,20.5 	"/>
	<polygon class="st0" points="20.4,65.7 20.4,61.3 16,60.3 16,74 27,79.5 27,67.7 	"/>
	<polygon class="st3" points="83.9,60.3 75.1,59.5 63.3,61.5 72.9,79.2 	"/>
	<polygon class="st0" points="72.9,20.5 63.4,23.2 63.4,38.5 72.9,37.3 83.3,31.1 	"/>
	<polygon class="st0" points="72.9,41.5 63.4,42.3 63.4,57.6 72.9,58.4 83.3,50.3 	"/>
	<polygon class="st0" points="72.9,62.7 63.4,61.6 63.4,76.9 72.9,79.6 82.5,68.6 	"/>
	<polygon class="st2" points="39.9,16 30.3,31.3 40.1,33.1 50,30.8 	"/>
	<polygon class="st2" points="69.6,36.6 59.8,37.9 39.9,34.6 50,9.1 	"/>
	<polygon class="st0" points="50,61.7 68.9,50 50,38.3 39.9,39.7 39.9,60.2 	"/>
	<polygon class="st1" points="50,38.3 50,61.7 69.6,58.9 69.6,41.1 	"/>
	<polygon class="st3" points="69.6,63.4 59.8,62.1 39.9,65.4 50,91 	"/>
	<polygon class="st3" points="49.9,69.1 40.1,66.8 30.3,68.7 39.5,85.4 	"/>
	<polygon class="st0" points="30.3,68.6 30.3,81.1 50,91 68.4,72.8 50,67.6 39.9,65.4 39.9,71.5 	"/>
	<polygon class="st0" points="27,32.3 27,20.5 16,26 16,39.7 20.4,38.7 20.4,34.3 	"/>
	<polygon class="st0" points="39.9,28.5 39.9,34.6 50,32.4 68.1,27.2 50,9 30.3,18.9 30.3,31.4 	"/>
	<polygon class="st1" points="50,9 50,32.4 69.6,36.6 69.6,18.8 	"/>
	<polygon class="st1" points="84,39.7 84,26 72.9,20.5 72.9,37.3 	"/>
	<polygon class="st1" points="84,56.8 84,43.1 72.9,41.6 72.9,58.4 	"/>
	<polygon class="st1" points="50,67.6 50,91 69.6,81.2 69.6,63.4 	"/>
	<polygon class="st1" points="84,74 84,60.3 72.9,62.7 72.9,79.5 	"/>
</g>
</svg>
