<?xml version="1.0" encoding="utf-8"?>
<!-- Generator: Adobe Illustrator 21.0.0, SVG Export Plug-In . SVG Version: 6.00 Build 0)  -->
<svg version="1.1" id="Layer_1" xmlns="http://www.w3.org/2000/svg" xmlns:xlink="http://www.w3.org/1999/xlink" x="0px" y="0px"
	 width="100px" height="100px" viewBox="0 0 100 100" style="enable-background:new 0 0 100 100;" xml:space="preserve">
<style type="text/css">
	.st0{fill:#4B612C;}
	.st1{fill:#759C3E;}
	.st2{fill:#3C4929;}
	.st3{fill:#B7CA9D;}
</style>
<g>
	<polygon class="st0" points="16,74.1 22.8,77.5 64.8,50.2 22.8,22.5 16,25.9 25.6,50 	"/>
	<polygon class="st3" points="45.8,50 70.1,54 77.2,22.5 45.8,30.4 	"/>
	<polygon class="st2" points="47.3,50 70.4,50.1 77.2,77.5 47.3,70 	"/>
	<polygon class="st3" points="52.8,30.1 22.8,22.5 35.7,50 57.2,58.4 	"/>
	<polygon class="st0" points="55.5,21.3 50,23.1 50,14.1 55.5,11.7 	"/>
	<polygon class="st0" points="55.5,88.3 50,85.9 50,72.9 55.5,74.4 	"/>
	<polygon class="st1" points="44.5,21.3 50,23.1 50,14.1 44.5,11.7 	"/>
	<polygon class="st1" points="44.5,88.3 50,85.9 50,68.7 44.5,70 	"/>
	<polygon class="st1" points="77.2,77.5 84,74 74.4,50 84,26 77.2,22.5 64.4,50 	"/>
	<polygon class="st0" points="44.5,11.7 31.9,18 40.3,32.9 50,49.8 59.1,27.2 50,19.2 	"/>
	<polygon class="st1" points="55.5,11.7 50,19.3 50,19.4 50,49.8 50.1,50 59.8,32.8 68.2,18 	"/>
	<polygon class="st2" points="61.5,50 35.7,50 22.8,77.5 61.5,67.8 	"/>
	<polygon class="st0" points="40.3,67.1 31.9,82 44.5,88.3 50,80.8 50,80.6 60.6,73.8 50,50.2 	"/>
	<polygon class="st1" points="59.8,67.2 50.1,50 50,50.2 50,80.6 50,80.7 55.5,88.3 68.2,82 	"/>
</g>
</svg>
