<svg xmlns="http://www.w3.org/2000/svg" xmlns:xlink="http://www.w3.org/1999/xlink" viewBox="0 0 75 75"><defs><style>.cls-1{fill:url(#PinkGradient);}.cls-2{fill:#fff;}</style><linearGradient id="PinkGradient" x1="1131.1" y1="-516.48" x2="1131.1" y2="-366.48" gradientTransform="translate(1149.48 525.13) rotate(-135)" gradientUnits="userSpaceOnUse"><stop offset="0" stop-color="#b0084d"/><stop offset="1" stop-color="#ff4f8b"/></linearGradient></defs><title>Amazon-MQ</title><g id="Working"><rect id="Pink_Gradient" data-name="Pink Gradient" class="cls-1" width="75" height="75"/><g id="Icon_Test" data-name="Icon Test"><path class="cls-2" d="M53.33,58.7a4.83,4.83,0,1,1,3.43-1.41h0A4.83,4.83,0,0,1,53.33,58.7Zm0-7.69a2.85,2.85,0,0,0-2.85,2.85,2.82,2.82,0,0,0,.84,2,2.85,2.85,0,0,0,4,0h0a2.86,2.86,0,0,0,0-4A2.88,2.88,0,0,0,53.33,51Z"/><path class="cls-2" d="M60.15,42.41A4.85,4.85,0,1,1,63.58,41h0A4.87,4.87,0,0,1,60.15,42.41Zm0-7.7a2.85,2.85,0,1,0,2,4.87h0a2.85,2.85,0,0,0,.84-2,2.87,2.87,0,0,0-2.85-2.85Z"/><path class="cls-2" d="M53.33,25a4.85,4.85,0,1,1,3.43-1.42A4.83,4.83,0,0,1,53.33,25Zm0-7.7a2.85,2.85,0,0,0-2,4.87,2.85,2.85,0,0,0,4.86-2,2.8,2.8,0,0,0-.83-2A2.85,2.85,0,0,0,53.33,17.33Z"/><path class="cls-2" d="M27.88,36.8l-3.4-3.4-1.41,1.41,1.69,1.7H19.57a4.84,4.84,0,0,0-8.15-2.37,4.85,4.85,0,0,0,0,6.85,4.85,4.85,0,0,0,8.18-2.48h5.16L23.07,40.2l1.42,1.41,3.39-3.4A1,1,0,0,0,27.88,36.8Zm-11,2.78a2.85,2.85,0,1,1-4-4,2.86,2.86,0,0,1,4,0A2.85,2.85,0,0,1,16.86,39.58Z"/><path class="cls-2" d="M52.8,36.8l-.3-.29L49.4,33.4,48,34.81l1.69,1.7h-6a11.32,11.32,0,0,1,3-7.24,1,1,0,0,0,0-1.41,1,1,0,0,0-1.41,0c-4.09,4.09-12.42,4.08-16.51,0a1,1,0,0,0-1.41,0,1,1,0,0,0,0,1.41c4.09,4.09,4.09,12.42,0,16.51a1,1,0,0,0-.29.7,1,1,0,0,0,.29.71,1,1,0,0,0,1.41,0c4.09-4.09,12.42-4.09,16.51,0a1,1,0,0,0,1.41,0,1,1,0,0,0,.29-.71,1,1,0,0,0-.29-.7,11.39,11.39,0,0,1-3-7.27h6L48,40.2l1.41,1.41,3.4-3.4A1,1,0,0,0,52.8,36.8ZM42.65,43.18a15.67,15.67,0,0,0-11.33,0,15.55,15.55,0,0,0,0-11.31,15.6,15.6,0,0,0,11.33,0,15.78,15.78,0,0,0,0,11.32Z"/><path class="cls-2" d="M47,17.92a22.06,22.06,0,0,0-19.25-.39l-.84-1.81A23.78,23.78,0,0,1,37,13.51,24,24,0,0,1,47.9,16.14Z"/><path class="cls-2" d="M15.84,31.06l-1.91-.59a23.58,23.58,0,0,1,2.57-5.64l1.69,1.06A21.78,21.78,0,0,0,15.84,31.06Z"/><path class="cls-2" d="M57.86,30.3a21,21,0,0,0-1.8-3.92l1.72-1a23,23,0,0,1,2,4.28Z"/><path class="cls-2" d="M58.06,48.87l-1.72-1a22.42,22.42,0,0,0,1.8-3.92l1.89.65A23,23,0,0,1,58.06,48.87Z"/><path class="cls-2" d="M37,61.49A23.63,23.63,0,0,1,26.34,59l.89-1.79a22.08,22.08,0,0,0,19.84-.17L48,58.83A24.23,24.23,0,0,1,37,61.49Z"/><path class="cls-2" d="M16.11,49.53a23.84,23.84,0,0,1-2.18-5l1.91-.59a22.25,22.25,0,0,0,2,4.59Z"/><path class="cls-2" d="M21.66,58.7a4.83,4.83,0,1,1,3.43-1.41A4.86,4.86,0,0,1,21.66,58.7Zm0-7.69a2.85,2.85,0,1,0,2,.83A2.84,2.84,0,0,0,21.66,51Z"/><path class="cls-2" d="M21.66,25a4.87,4.87,0,0,1-3.43-1.42h0A4.85,4.85,0,1,1,21.66,25Zm-2-2.83a2.85,2.85,0,0,0,4.86-2,2.85,2.85,0,0,0-4.86-2,2.85,2.85,0,0,0,0,4Z"/></g></g></svg>