<svg xmlns="http://www.w3.org/2000/svg" viewBox="0 0 50 50"><defs><style>.cls-1{fill:#cd2264;}</style></defs><title>Amazon-Simple-Queue-Service-SQS_Message_light-bg</title><g id="Working"><path class="cls-1" d="M15.16,48.5H3a1,1,0,0,1-1-1V2.5a1,1,0,0,1,1-1H15.16a1,1,0,0,1,1,1v45A1,1,0,0,1,15.16,48.5ZM4,46.5H14.16V3.5H4Z"/><path class="cls-1" d="M32.09,4.5h-2v-1h-1v-2h2a1,1,0,0,1,1,1Z"/><path class="cls-1" d="M32.09,43.64h-2V39.91h2Zm0-5.59h-2V34.32h2Zm0-5.6h-2V28.73h2Zm0-5.59h-2V23.14h2Zm0-5.59h-2V17.55h2Zm0-5.59h-2V12h2Zm0-5.59h-2V6.36h2Z"/><path class="cls-1" d="M31.09,48.5h-2v-2h1v-1h2v2A1,1,0,0,1,31.09,48.5Z"/><rect class="cls-1" x="22.95" y="46.5" width="4.09" height="2"/><path class="cls-1" d="M20.91,48.5h-2a1,1,0,0,1-1-1v-2h2v1h1Z"/><path class="cls-1" d="M19.91,43.64h-2V39.91h2Zm0-5.59h-2V34.32h2Zm0-5.6h-2V28.73h2Zm0-5.59h-2V23.14h2Zm0-5.59h-2V17.55h2Zm0-5.59h-2V12h2Zm0-5.59h-2V6.36h2Z"/><path class="cls-1" d="M19.91,4.5h-2v-2a1,1,0,0,1,1-1h2v2h-1Z"/><rect class="cls-1" x="22.95" y="1.5" width="4.09" height="2"/><path class="cls-1" d="M48,4.5H46v-1H45v-2h2a1,1,0,0,1,1,1Z"/><path class="cls-1" d="M48,43.64H46V39.91h2Zm0-5.59H46V34.32h2Zm0-5.6H46V28.73h2Zm0-5.59H46V23.14h2Zm0-5.59H46V17.55h2Zm0-5.59H46V12h2Zm0-5.59H46V6.36h2Z"/><path class="cls-1" d="M47,48.5H45v-2h1v-1h2v2A1,1,0,0,1,47,48.5Z"/><rect class="cls-1" x="38.89" y="46.5" width="4.09" height="2"/><path class="cls-1" d="M36.84,48.5h-2a1,1,0,0,1-1-1v-2h2v1h1Z"/><path class="cls-1" d="M35.84,43.64h-2V39.91h2Zm0-5.59h-2V34.32h2Zm0-5.6h-2V28.73h2Zm0-5.59h-2V23.14h2Zm0-5.59h-2V17.55h2Zm0-5.59h-2V12h2Zm0-5.59h-2V6.36h2Z"/><path class="cls-1" d="M35.84,4.5h-2v-2a1,1,0,0,1,1-1h2v2h-1Z"/><rect class="cls-1" x="38.89" y="1.5" width="4.09" height="2"/></g></svg>