<svg xmlns="http://www.w3.org/2000/svg" width="48" height="48" viewBox="0 0 48 48"><title>Amazon-EventBridge_Default-Event-Bus_light-bg</title><g id="Icons_Final" data-name="Icons Final"><path d="M13.09,27.2l5-8.7A1,1,0,0,1,19,18H29a1,1,0,0,1,.87.5l5,8.7a1,1,0,0,1,0,1l-3.84,6.64-1.73-1,3.55-6.14L28.44,20H19.56l-4.45,7.7,3.55,6.14-1.73,1L13.09,28.2A1,1,0,0,1,13.09,27.2ZM25,9H23v7h2Zm-7.52,8.15L13.88,11l-1.73,1,3.6,6.16Zm-12,1.41-1,1.74,6.24,3.56,1-1.74ZM2,31H9V29H2Zm37-2v2h7V29Zm3.57-10.4-6.25,3.56,1,1.73,6.25-3.55ZM35.88,12l-1.73-1-3.61,6.16,1.73,1ZM11,39H37V37H11Z" style="fill:#cd2264"/></g></svg>