<svg xmlns="http://www.w3.org/2000/svg" width="48" height="48" viewBox="0 0 48 48"><title>Amazon-EventBridge_Custom-Event-Bus_Resource-Icon_light-bg</title><g id="Icons_Final" data-name="Icons Final"><path d="M12.14,23.5l4.62-8a1,1,0,0,1,.87-.5h9.23a1,1,0,0,1,.87.5l4.62,8-1.73,1L26.29,17H18.2l-4,7,4,7H22v2H17.63a1,1,0,0,1-.87-.5l-4.62-8A1,1,0,0,1,12.14,23.5Zm9.44-12.21-.81-6.4-2,.25.81,6.4ZM15,13.41,11,8.27,9.42,9.49l3.94,5.13Zm-4.67,5.11L4.26,16,3.5,17.87l6,2.49ZM8.82,25.24l-6.48.82.25,2,6.48-.82ZM5.75,35.69,7,37.28l5.21-3.91L11,31.77Zm7.83,6.64,1.84.78,2.53-6-1.84-.79ZM38.74,13.41l-1.2-1.6-5.21,3.91,1.2,1.6ZM30.91,6.77,29.07,6l-2.53,5.95,1.84.78ZM45.66,22.56a1,1,0,0,1-.36.68l-20,16.59a1,1,0,0,1-.55.23l-3.45.3H21.2a1,1,0,0,1-.77-.36,1,1,0,0,1-.19-.91l.94-3.33a.93.93,0,0,1,.32-.5l20-16.59a1,1,0,0,1,1.41.13l2.51,3A1,1,0,0,1,45.66,22.56ZM27,33.3l1.24,1.49,12.42-10.3L39.42,23Zm-.3,2.76-1.24-1.49L23,36.6l-.46,1.64,1.69-.15ZM43.25,22.34,42,20.85,41,21.72l1.24,1.49Z" style="fill:#cd2264"/></g></svg>