<svg xmlns="http://www.w3.org/2000/svg" width="48" height="48" viewBox="0 0 48 48"><title>Amazon-EventBridge__Resource-Icon_light-bg</title><g id="Icons_Final" data-name="Icons Final"><rect x="20.75" y="2.71" width="2" height="7.02" transform="translate(-0.61 2.78) rotate(-7.21)" style="fill:#cd2264"/><rect x="12.05" y="6.22" width="2" height="7.04" transform="translate(-3.23 9.96) rotate(-37.52)" style="fill:#cd2264"/><rect x="6.28" y="13.54" width="2" height="7.09" transform="translate(-11.29 17.28) rotate(-67.52)" style="fill:#cd2264"/><rect x="2.44" y="25.28" width="7.11" height="2" transform="translate(-3.25 0.96) rotate(-7.21)" style="fill:#cd2264"/><rect x="5.99" y="33.86" width="7.09" height="2" transform="translate(-19.02 12.71) rotate(-36.9)" style="fill:#cd2264"/><rect x="13.43" y="39.54" width="7.04" height="2" transform="translate(-26.99 40.21) rotate(-66.89)" style="fill:#cd2264"/><rect x="25.25" y="38.27" width="2" height="7.02" transform="matrix(0.99, -0.13, 0.13, 0.99, -5.04, 3.63)" style="fill:#cd2264"/><rect x="33.95" y="34.74" width="2" height="7.04" transform="translate(-16.07 29.2) rotate(-37.52)" style="fill:#cd2264"/><rect x="39.72" y="27.37" width="2" height="7.09" transform="translate(-3.42 56.71) rotate(-67.52)" style="fill:#cd2264"/><rect x="38.45" y="20.72" width="7.11" height="2" transform="translate(-2.39 5.44) rotate(-7.21)" style="fill:#cd2264"/><rect x="34.92" y="12.14" width="7.09" height="2" transform="translate(-0.18 25.73) rotate(-36.9)" style="fill:#cd2264"/><rect x="27.53" y="6.46" width="7.04" height="2" transform="translate(12 33.1) rotate(-66.89)" style="fill:#cd2264"/><path d="M33,28.67l0-9.15a1,1,0,0,0-.48-.85l.09-.15-8-4.71a1,1,0,0,0-1,0l-8.11,4.62,0,.06a1,1,0,0,0-.43.8L15,28.62a1,1,0,0,0,.5.86l8.05,4.71.05-.09a1,1,0,0,0,.4.1,1,1,0,0,0,.5-.14l7.94-4.53A1,1,0,0,0,33,28.67ZM24,15.82l6.13,3.59-6,3.44L18,19.27ZM17,21l6,3.51,0,7-6-3.51Zm13.91,7L25,31.47l0-6.84L31,21.24Z" style="fill:#cd2264"/></g></svg>