<svg xmlns="http://www.w3.org/2000/svg" xmlns:xlink="http://www.w3.org/1999/xlink" viewBox="0 0 75 75"><defs><style>.cls-1{fill:url(#PinkGradient);}.cls-2{fill:#fff;}</style><linearGradient id="PinkGradient" x1="-15.53" y1="90.53" x2="90.53" y2="-15.53" gradientTransform="translate(0 0)" gradientUnits="userSpaceOnUse"><stop offset="0" stop-color="#b0084d"/><stop offset="1" stop-color="#ff4f8b"/></linearGradient></defs><title>Amazon-AppSync</title><g id="Working"><rect id="Pink_Gradient" data-name="Pink Gradient" class="cls-1" width="75" height="75"/><g id="Icon_Test" data-name="Icon Test"><path class="cls-2" d="M37.61,60.23a22.58,22.58,0,0,1-10.9-2.81l1-1.75a20.69,20.69,0,0,0,27.55-29l-1,5-2-.39L53.71,24a1,1,0,0,1,1.17-.79l7.34,1.45-.39,2-4.9-1A22.72,22.72,0,0,1,37.61,60.23ZM20.28,51.51a1.07,1.07,0,0,1-.25,0l-7.25-1.82.49-1.94,4.66,1.17A22.69,22.69,0,0,1,48.42,17.58l-1,1.75A20.69,20.69,0,0,0,19.83,48.17L21.13,43l1.94.48-1.82,7.25A1,1,0,0,1,20.28,51.51ZM45.52,47.2a4,4,0,0,1-3.87-3H33.4a4,4,0,1,1-3.88-5,4.2,4.2,0,0,1,1.08.14l4.18-7.24a4,4,0,1,1,5.5,0l4.18,7.24a4.17,4.17,0,0,1,1.06-.14,4,4,0,0,1,0,8Zm0-6a2,2,0,1,0,2,2A2,2,0,0,0,45.52,41.2Zm-16,0a2,2,0,1,0,2,2A2,2,0,0,0,29.52,41.2Zm3.88,1h8.25a4,4,0,0,1,1.08-1.87l-4.2-7.27a4,4,0,0,1-2,0l-4.19,7.28A4,4,0,0,1,33.4,42.21Zm4.12-15a2,2,0,1,0,2,2A2,2,0,0,0,37.52,27.2Z"/></g></g></svg>