<svg xmlns="http://www.w3.org/2000/svg" width="50" height="50" viewBox="0 0 50 50"><title>Application-Integration_Event_Resource-Name_light-bg</title><g id="Working"><path d="M13.59,49.21h-12a1,1,0,0,1-1-1V1.79a1,1,0,0,1,1-1h12a1,1,0,0,1,1,1V48.21A1,1,0,0,1,13.59,49.21Zm-11-2h10V2.79h-10ZM42.49,36.05H30.7a1,1,0,0,1-.87-.5L23.94,25.33a1,1,0,0,1,0-1l5.89-10.21a1,1,0,0,1,.87-.5H42.49a1,1,0,0,1,.87.5l5.9,10.21a1,1,0,0,1,0,1l-5.9,10.22A1,1,0,0,1,42.49,36.05Zm-11.21-2H41.92l5.32-9.22-5.32-9.21H31.28L26,24.83Zm.51,14.16V39.85h-2v7.36h-10V2.79h10V10.7h2V1.79a1,1,0,0,0-1-1h-12a1,1,0,0,0-1,1V48.21a1,1,0,0,0,1,1h12A1,1,0,0,0,31.79,48.21Z" style="fill:#cd2264"/></g></svg>