<svg xmlns="http://www.w3.org/2000/svg" xmlns:xlink="http://www.w3.org/1999/xlink" width="75" height="75" viewBox="0 0 75 75"><defs><linearGradient id="Pink_Gradient" x1="-20.83" y1="131.69" x2="-20.83" y2="-18.31" gradientTransform="translate(92.31 12.14) rotate(45)" gradientUnits="userSpaceOnUse"><stop offset="0" stop-color="#b0084d"/><stop offset="1" stop-color="#ff4f8b"/></linearGradient></defs><title>Console-Mobile-App</title><g id="Example"><rect id="Green_Gradient" data-name="Green Gradient" width="75" height="75" style="fill:url(#Pink_Gradient)"/></g><g id="Working"><path d="M58.51,17.06a5.28,5.28,0,0,0-5.3-5.24H35.87a5.28,5.28,0,0,0-5.31,5.25V32.78h2V20.15H56.51V55.49H32.56V46.35h-2V58.9a4.31,4.31,0,0,0,4.32,4.28H54.19a4.31,4.31,0,0,0,4.32-4.28V17.07ZM32.56,18.15V17.07a3.29,3.29,0,0,1,3.31-3.25H53.21a3.28,3.28,0,0,1,3.3,3.25v1.08Zm21.63,43H34.88a2.3,2.3,0,0,1-2.32-2.28V57.49H56.51V58.9A2.3,2.3,0,0,1,54.19,61.18ZM43,15h6.32v2H43Zm-3.17,0h1.9v2h-1.9Zm-.62,29.54H50.28A4,4,0,0,0,54,40.44a3.93,3.93,0,0,0-2.86-3.9,3.06,3.06,0,0,0-2.06-2.36,2.71,2.71,0,0,0-1.8.1,5.64,5.64,0,0,0-.86-1.12,5.27,5.27,0,0,0-6-1.18,5.55,5.55,0,0,0-3.17,4.73,3.88,3.88,0,0,0-2.3,3.7v.25A4.11,4.11,0,0,0,39.17,44.52Zm-.55-6.15a1,1,0,0,0,.75-1.09,2.73,2.73,0,0,1,0-.41,3.29,3.29,0,0,1,3.31-3.34,3.43,3.43,0,0,1,2.39,1,4.43,4.43,0,0,1,1,1.58,1,1,0,0,0,1.74.26.75.75,0,0,1,.82-.31c.39.11.66.56.72,1.2a1,1,0,0,0,.83,1A2.09,2.09,0,0,1,52,40.44a2,2,0,0,1-1.84,2.09h-11a2.09,2.09,0,0,1-2.13-2v-.15A1.92,1.92,0,0,1,38.62,38.37Zm-4.21-.83H18.55v-2H34.41Zm-1.59,5.3H10.49v-2H32.82Z" style="fill:#fff"/></g></svg>