<svg xmlns="http://www.w3.org/2000/svg" xmlns:xlink="http://www.w3.org/1999/xlink" width="75" height="75" viewBox="0 0 75 75"><defs><linearGradient id="Pink_Gradient" x1="-20.83" y1="131.69" x2="-20.83" y2="-18.31" gradientTransform="translate(92.31 12.14) rotate(45)" gradientUnits="userSpaceOnUse"><stop offset="0" stop-color="#b0084d"/><stop offset="1" stop-color="#ff4f8b"/></linearGradient></defs><title>AWS-Express-Workflows</title><g id="Example"><rect id="Green_Gradient" data-name="Green Gradient" width="75" height="75" style="fill:url(#Pink_Gradient)"/><path d="M51.49,49.25H23.35V46.61h6.34a1,1,0,0,0,1-.74l1.55-5.79a1,1,0,0,0-.17-.87,1,1,0,0,0-.8-.39H23.35V36.18h6.34a1,1,0,0,0,1-.74l1.55-5.79a1,1,0,0,0-1-1.26H23.35V25.75H51.49v4.8h2v-5.8a1,1,0,0,0-1-1H38.42V22.17a5.05,5.05,0,1,0-2,0v1.58H22.35a1,1,0,0,0-1,1v3.64H13.86a1,1,0,0,0-1,.74l-1.55,5.79a1,1,0,0,0,.17.87,1,1,0,0,0,.8.39h9v2.64H13.86a1,1,0,0,0-1,.74l-1.55,5.79a1,1,0,0,0,1,1.26h9v3.64a1,1,0,0,0,1,1H36.42v1.58a5.06,5.06,0,1,0,2,0V51.25H52.49a1,1,0,0,0,1-1v-5.8h-2Zm-17.12-32a3.06,3.06,0,1,1,3.05,3.05A3.06,3.06,0,0,1,34.37,17.22ZM14.63,30.39H29.94l-1,3.79H13.61Zm0,10.43H29.94l-1,3.79H13.61Zm25.85,17a3.06,3.06,0,1,1-3.06-3.05A3.06,3.06,0,0,1,40.48,57.78Z" style="fill:#fff"/><path d="M63.49,33.41A1,1,0,0,0,62.7,33H43a1,1,0,0,0-1,.74l-1.86,7a1,1,0,0,0,.17.87,1,1,0,0,0,.8.39h19.7a1,1,0,0,0,1-.74l1.86-7A1,1,0,0,0,63.49,33.41ZM60.06,40H42.43l1.33-5H61.39Z" style="fill:#fff"/></g></svg>