<svg xmlns="http://www.w3.org/2000/svg" viewBox="0 0 75 75"><defs><style>.cls-1{fill:#cc2264;}.cls-2{fill:#fff;}</style></defs><title>AWS-Step-Functions_light-bg</title><g id="Working"><rect id="Pink_Light_BG" data-name="Pink Light BG" class="cls-1" width="75" height="75"/><g id="Product_Icon" data-name="Product Icon"><path class="cls-2" d="M53.5,31.5v-6a1,1,0,0,0-1-1h-14V22.4a5,5,0,1,0-2,0v2.1h-14a1,1,0,0,0-1,1v4h-8a1,1,0,0,0-1,1v5a1,1,0,0,0,1,1h8v2h-8a1,1,0,0,0-1,1v5a1,1,0,0,0,1,1h8v4a1,1,0,0,0,1,1h14v2.1a5,5,0,1,0,2,0V50.5h14a1,1,0,0,0,1-1v-5h-2v4h-28v-3h8a1,1,0,0,0,1-1v-5a1,1,0,0,0-1-1h-8v-2h8a1,1,0,0,0,1-1v-5a1,1,0,0,0-1-1h-8v-3h28v5Zm-13,26a3,3,0,1,1-3-3A3,3,0,0,1,40.5,57.5Zm-10-17v3h-16v-3Zm0-9v3h-16v-3Zm4-14a3,3,0,1,1,3,3A3,3,0,0,1,34.5,17.5Z"/><path class="cls-2" d="M61.5,33.5h-20a1,1,0,0,0-1,1v7a1,1,0,0,0,1,1h20a1,1,0,0,0,1-1v-7A1,1,0,0,0,61.5,33.5Zm-1,7h-18v-5h18Z"/></g></g></svg>