<?xml version="1.0" encoding="UTF-8"?>
<svg width="56px" height="55px" viewBox="0 0 56 55" version="1.1" xmlns="http://www.w3.org/2000/svg" xmlns:xlink="http://www.w3.org/1999/xlink">
    <!-- Generator: Sketch 56.2 (81672) - https://sketch.com -->
    <title>Custom-Event-Bus_Resource_Icon_64_White</title>
    <desc>Created with Sketch.</desc>
    <g id="Page-1" stroke="none" stroke-width="1" fill="none" fill-rule="evenodd">
        <g id="AWS-Storage-Product-Icons_White" transform="translate(-120.000000, -2028.000000)" fill="#FFFFFF">
            <path d="M133.134,2078.7485 L134.866,2079.7485 L137.866,2074.5525 L136.134,2073.5525 L133.134,2078.7485 Z M123.251,2068.1335 L124.251,2069.8665 L129.447,2066.8665 L128.447,2065.1335 L123.251,2068.1335 Z M120,2055.9995 L126,2055.9995 L126,2053.9995 L120,2053.9995 L120,2055.9995 Z M129.447,2043.1335 L124.251,2040.1335 L123.251,2041.8665 L128.447,2044.8665 L129.447,2043.1335 Z M137.866,2035.4475 L134.866,2030.2515 L133.134,2031.2515 L136.134,2036.4475 L137.866,2035.4475 Z M147,2033.9995 L149,2033.9995 L149,2027.9995 L147,2027.9995 L147,2033.9995 Z M162.866,2031.2515 L161.134,2030.2515 L158.134,2035.4475 L159.866,2036.4475 L162.866,2031.2515 Z M172.749,2041.8665 L171.749,2040.1335 L166.553,2043.1335 L167.553,2044.8665 L172.749,2041.8665 Z M173.586,2052.5505 L171.449,2050.4145 L169.659,2052.2045 L171.781,2054.3545 L173.586,2052.5505 Z M170.367,2055.7695 L168.245,2053.6185 L149.784,2072.0795 L151.921,2074.2155 L170.367,2055.7695 Z M150.507,2075.6295 L148.37,2073.4935 L144.768,2077.0965 L143.625,2080.3745 L146.905,2079.2325 L150.507,2075.6295 Z M175.707,2053.2575 L148.156,2080.8095 C148.05,2080.9155 147.921,2080.9975 147.779,2081.0465 L142.329,2082.9445 C142.222,2082.9815 142.111,2082.9995 142,2082.9995 C141.739,2082.9995 141.484,2082.8975 141.293,2082.7065 C141.022,2082.4355 140.93,2082.0335 141.056,2081.6705 L142.954,2076.2225 C143.004,2076.0805 143.085,2075.9505 143.192,2075.8445 L170.742,2048.2925 C171.117,2047.9175 171.781,2047.9175 172.156,2048.2925 L175.707,2051.8435 C176.098,2052.2345 176.098,2052.8675 175.707,2053.2575 L175.707,2053.2575 Z M144.586,2071.9995 L138.415,2071.9995 L128.853,2054.9995 L138.415,2037.9995 L157.585,2037.9995 L165.145,2051.4405 L163.677,2052.9085 L156.415,2039.9995 L139.585,2039.9995 L131.148,2054.9995 L139.585,2069.9995 L146.586,2069.9995 L144.586,2071.9995 Z" id="Custom-Event-Bus_Resource_Icon_64_White"></path>
        </g>
    </g>
</svg>