<?xml version="1.0" encoding="UTF-8"?>
<svg width="56px" height="55px" viewBox="0 0 56 55" version="1.1" xmlns="http://www.w3.org/2000/svg" xmlns:xlink="http://www.w3.org/1999/xlink">
    <!-- Generator: Sketch 56.2 (81672) - https://sketch.com -->
    <title>Custom-Event-Bus_Resource_Icon_64_Squid</title>
    <desc>Created with Sketch.</desc>
    <g id="Page-1" stroke="none" stroke-width="1" fill="none" fill-rule="evenodd">
        <g id="AWS-Storage-Product-Icons_Squid" transform="translate(-121.000000, -2028.000000)" fill="#232F3E">
            <path d="M134.134,2078.7485 L135.866,2079.7485 L138.866,2074.5525 L137.134,2073.5525 L134.134,2078.7485 Z M124.251,2068.1335 L125.251,2069.8665 L130.447,2066.8665 L129.447,2065.1335 L124.251,2068.1335 Z M121,2055.9995 L127,2055.9995 L127,2053.9995 L121,2053.9995 L121,2055.9995 Z M130.447,2043.1335 L125.251,2040.1335 L124.251,2041.8665 L129.447,2044.8665 L130.447,2043.1335 Z M138.866,2035.4475 L135.866,2030.2515 L134.134,2031.2515 L137.134,2036.4475 L138.866,2035.4475 Z M148,2033.9995 L150,2033.9995 L150,2027.9995 L148,2027.9995 L148,2033.9995 Z M163.866,2031.2515 L162.134,2030.2515 L159.134,2035.4475 L160.866,2036.4475 L163.866,2031.2515 Z M173.749,2041.8665 L172.749,2040.1335 L167.553,2043.1335 L168.553,2044.8665 L173.749,2041.8665 Z M174.586,2052.5505 L172.449,2050.4145 L170.659,2052.2045 L172.781,2054.3545 L174.586,2052.5505 Z M171.367,2055.7695 L169.245,2053.6185 L150.784,2072.0795 L152.921,2074.2155 L171.367,2055.7695 Z M151.507,2075.6295 L149.37,2073.4935 L145.768,2077.0965 L144.625,2080.3745 L147.905,2079.2325 L151.507,2075.6295 Z M176.707,2053.2575 L149.156,2080.8095 C149.05,2080.9155 148.921,2080.9975 148.779,2081.0465 L143.329,2082.9445 C143.222,2082.9815 143.111,2082.9995 143,2082.9995 C142.739,2082.9995 142.484,2082.8975 142.293,2082.7065 C142.022,2082.4355 141.93,2082.0335 142.056,2081.6705 L143.954,2076.2225 C144.004,2076.0805 144.085,2075.9505 144.192,2075.8445 L171.742,2048.2925 C172.117,2047.9175 172.781,2047.9175 173.156,2048.2925 L176.707,2051.8435 C177.098,2052.2345 177.098,2052.8675 176.707,2053.2575 L176.707,2053.2575 Z M145.586,2071.9995 L139.415,2071.9995 L129.853,2054.9995 L139.415,2037.9995 L158.585,2037.9995 L166.145,2051.4405 L164.677,2052.9085 L157.415,2039.9995 L140.585,2039.9995 L132.148,2054.9995 L140.585,2069.9995 L147.586,2069.9995 L145.586,2071.9995 Z" id="Custom-Event-Bus_Resource_Icon_64_Squid"></path>
        </g>
    </g>
</svg>