<?xml version="1.0" encoding="UTF-8"?>
<svg width="56px" height="45px" viewBox="0 0 56 45" version="1.1" xmlns="http://www.w3.org/2000/svg" xmlns:xlink="http://www.w3.org/1999/xlink">
    <!-- Generator: Sketch 56.2 (81672) - https://sketch.com -->
    <title>Default-Event-Bus_Resource_Icon_64_Squid</title>
    <desc>Created with Sketch.</desc>
    <g id="Page-1" stroke="none" stroke-width="1" fill="none" fill-rule="evenodd">
        <g id="AWS-Storage-Product-Icons_Squid" transform="translate(-25.000000, -2028.000000)" fill="#232F3E">
            <path d="M52,2034 L54,2034 L54,2028 L52,2028 L52,2034 Z M63.134,2035.447 L64.866,2036.447 L67.866,2031.252 L66.134,2030.252 L63.134,2035.447 Z M38.134,2031.252 L41.133,2036.447 L42.866,2035.447 L39.866,2030.252 L38.134,2031.252 Z M43.415,2038 L33.852,2055 L41.727,2069 L44.022,2069 L36.147,2055 L44.585,2040 L61.415,2040 L69.852,2055 L61.977,2069 L64.272,2069 L72.147,2055 L62.585,2038 L43.415,2038 Z M71.553,2043.133 L72.552,2044.866 L77.749,2041.866 L76.749,2040.134 L71.553,2043.133 Z M28.251,2041.866 L33.447,2044.866 L34.447,2043.133 L29.251,2040.134 L28.251,2041.866 Z M75,2056 L80.999,2056 L80.999,2054 L75,2054 L75,2056 Z M25,2056 L31,2056 L31,2054 L25,2054 L25,2056 Z M30,2073 L76,2073 L76,2071 L30,2071 L30,2073 Z" id="Default-Event-Bus_Resource_Icon_64_Squid"></path>
        </g>
    </g>
</svg>