<?xml version="1.0" encoding="UTF-8"?>
<svg width="56px" height="45px" viewBox="0 0 56 45" version="1.1" xmlns="http://www.w3.org/2000/svg" xmlns:xlink="http://www.w3.org/1999/xlink">
    <!-- Generator: Sketch 56.2 (81672) - https://sketch.com -->
    <title>Default-Event-Bus_Resource_Icon_64_White</title>
    <desc>Created with Sketch.</desc>
    <g id="Page-1" stroke="none" stroke-width="1" fill="none" fill-rule="evenodd">
        <g id="AWS-Storage-Product-Icons_White" transform="translate(-24.000000, -2028.000000)" fill="#FFFFFF">
            <path d="M51,2034 L53,2034 L53,2028 L51,2028 L51,2034 Z M62.134,2035.447 L63.866,2036.447 L66.866,2031.252 L65.134,2030.252 L62.134,2035.447 Z M37.134,2031.252 L40.133,2036.447 L41.866,2035.447 L38.866,2030.252 L37.134,2031.252 Z M42.415,2038 L32.852,2055 L40.727,2069 L43.022,2069 L35.147,2055 L43.585,2040 L60.415,2040 L68.852,2055 L60.977,2069 L63.272,2069 L71.147,2055 L61.585,2038 L42.415,2038 Z M70.553,2043.133 L71.552,2044.866 L76.749,2041.866 L75.749,2040.134 L70.553,2043.133 Z M27.251,2041.866 L32.447,2044.866 L33.447,2043.133 L28.251,2040.134 L27.251,2041.866 Z M74,2056 L79.999,2056 L79.999,2054 L74,2054 L74,2056 Z M24,2056 L30,2056 L30,2054 L24,2054 L24,2056 Z M29,2073 L75,2073 L75,2071 L29,2071 L29,2073 Z" id="Default-Event-Bus_Resource_Icon_64_White"></path>
        </g>
    </g>
</svg>