<?xml version="1.0" encoding="UTF-8"?>
<svg width="56px" height="54px" viewBox="0 0 56 54" version="1.1" xmlns="http://www.w3.org/2000/svg" xmlns:xlink="http://www.w3.org/1999/xlink">
    <!-- Generator: Sketch 56.2 (81672) - https://sketch.com -->
    <title>SaaS-Event-Bus_Resource_Icon_64_White</title>
    <desc>Created with Sketch.</desc>
    <g id="Page-1" stroke="none" stroke-width="1" fill="none" fill-rule="evenodd">
        <g id="AWS-Storage-Product-Icons_White" transform="translate(-206.000000, -2028.000000)" fill="#FFFFFF">
            <path d="M253.553,2065.1338 L258.749,2068.1338 L257.749,2069.8658 L252.553,2066.8658 L253.553,2065.1338 Z M245.866,2073.5528 L248.866,2078.7488 L247.134,2079.7488 L244.134,2074.5528 L245.866,2073.5528 Z M233,2081.9998 L235,2081.9998 L235,2075.9998 L233,2075.9998 L233,2081.9998 Z M222.134,2073.5528 L223.866,2074.5528 L220.866,2079.7488 L219.134,2078.7488 L222.134,2073.5528 Z M214.448,2065.1338 L215.448,2066.8658 L210.251,2069.8658 L209.251,2068.1338 L214.448,2065.1338 Z M206,2055.9998 L212,2055.9998 L212,2053.9998 L206,2053.9998 L206,2055.9998 Z M210.251,2040.1338 L215.448,2043.1338 L214.448,2044.8658 L209.251,2041.8658 L210.251,2040.1338 Z M222.134,2036.4468 L219.134,2031.2518 L220.866,2030.2518 L223.866,2035.4468 L222.134,2036.4468 Z M233,2033.9998 L235,2033.9998 L235,2027.9998 L233,2027.9998 L233,2033.9998 Z M245.866,2036.4468 L244.134,2035.4468 L247.134,2030.2518 L248.866,2031.2518 L245.866,2036.4468 Z M253.553,2044.8658 L252.553,2043.1338 L257.749,2040.1338 L258.749,2041.8658 L253.553,2044.8658 Z M256,2055.9998 L262,2055.9998 L262,2053.9998 L256,2053.9998 L256,2055.9998 Z M248,2063.3628 L235,2069.4298 L235,2052.3538 L248,2046.5428 L248,2063.3628 Z M234.015,2050.6038 L221.846,2044.7758 L234,2039.1038 L246.594,2044.9808 L234.015,2050.6038 Z M233,2069.4298 L220,2063.3628 L220,2046.1088 L233,2052.3348 L233,2069.4298 Z M249.423,2044.0938 L234.423,2037.0938 C234.156,2036.9688 233.845,2036.9688 233.577,2037.0938 L218.577,2044.0938 C218.225,2044.2588 218,2044.6118 218,2044.9998 L218,2063.9998 C218,2064.3888 218.225,2064.7418 218.577,2064.9058 L233.577,2071.9058 C233.711,2071.9688 233.856,2071.9998 234,2071.9998 C234.145,2071.9998 234.289,2071.9688 234.423,2071.9058 L249.423,2064.9058 C249.776,2064.7418 250,2064.3888 250,2063.9998 L250,2044.9998 C250,2044.6118 249.776,2044.2588 249.423,2044.0938 L249.423,2044.0938 Z" id="SaaS-Event-Bus_Resource_Icon_64_White"></path>
        </g>
    </g>
</svg>