<?xml version="1.0" encoding="UTF-8"?>
<svg width="56px" height="54px" viewBox="0 0 56 54" version="1.1" xmlns="http://www.w3.org/2000/svg" xmlns:xlink="http://www.w3.org/1999/xlink">
    <!-- Generator: Sketch 56.2 (81672) - https://sketch.com -->
    <title>SaaS-Event-Bus_Resource_Icon_64_Squid</title>
    <desc>Created with Sketch.</desc>
    <g id="Page-1" stroke="none" stroke-width="1" fill="none" fill-rule="evenodd">
        <g id="AWS-Storage-Product-Icons_Squid" transform="translate(-207.000000, -2028.000000)" fill="#232F3E">
            <path d="M254.553,2065.1338 L259.749,2068.1338 L258.749,2069.8658 L253.553,2066.8658 L254.553,2065.1338 Z M246.866,2073.5528 L249.866,2078.7488 L248.134,2079.7488 L245.134,2074.5528 L246.866,2073.5528 Z M234,2081.9998 L236,2081.9998 L236,2075.9998 L234,2075.9998 L234,2081.9998 Z M223.134,2073.5528 L224.866,2074.5528 L221.866,2079.7488 L220.134,2078.7488 L223.134,2073.5528 Z M215.448,2065.1338 L216.448,2066.8658 L211.251,2069.8658 L210.251,2068.1338 L215.448,2065.1338 Z M207,2055.9998 L213,2055.9998 L213,2053.9998 L207,2053.9998 L207,2055.9998 Z M211.251,2040.1338 L216.448,2043.1338 L215.448,2044.8658 L210.251,2041.8658 L211.251,2040.1338 Z M223.134,2036.4468 L220.134,2031.2518 L221.866,2030.2518 L224.866,2035.4468 L223.134,2036.4468 Z M234,2033.9998 L236,2033.9998 L236,2027.9998 L234,2027.9998 L234,2033.9998 Z M246.866,2036.4468 L245.134,2035.4468 L248.134,2030.2518 L249.866,2031.2518 L246.866,2036.4468 Z M254.553,2044.8658 L253.553,2043.1338 L258.749,2040.1338 L259.749,2041.8658 L254.553,2044.8658 Z M257,2055.9998 L263,2055.9998 L263,2053.9998 L257,2053.9998 L257,2055.9998 Z M249,2063.3628 L236,2069.4298 L236,2052.3538 L249,2046.5428 L249,2063.3628 Z M235.015,2050.6038 L222.846,2044.7758 L235,2039.1038 L247.594,2044.9808 L235.015,2050.6038 Z M234,2069.4298 L221,2063.3628 L221,2046.1088 L234,2052.3348 L234,2069.4298 Z M250.423,2044.0938 L235.423,2037.0938 C235.156,2036.9688 234.845,2036.9688 234.577,2037.0938 L219.577,2044.0938 C219.225,2044.2588 219,2044.6118 219,2044.9998 L219,2063.9998 C219,2064.3888 219.225,2064.7418 219.577,2064.9058 L234.577,2071.9058 C234.711,2071.9688 234.856,2071.9998 235,2071.9998 C235.145,2071.9998 235.289,2071.9688 235.423,2071.9058 L250.423,2064.9058 C250.776,2064.7418 251,2064.3888 251,2063.9998 L251,2044.9998 C251,2044.6118 250.776,2044.2588 250.423,2044.0938 L250.423,2044.0938 Z" id="SaaS-Event-Bus_Resource_Icon_64_Squid"></path>
        </g>
    </g>
</svg>