<svg xmlns="http://www.w3.org/2000/svg" viewBox="0 0 50 50"><defs><style>.cls-1{fill:#693cc5;}</style></defs><title>Amazon-Route-53_Hosted-Zone_light-bg</title><g id="Working"><path class="cls-1" d="M25,48.76l-.61-.47A28.11,28.11,0,0,0,13.85,43.6C6.12,42.22,1.5,38,1.5,32.32A14.35,14.35,0,0,1,4,24.62c1-1.75,1.89-3.26,1.89-5.31a10,10,0,0,0-3.4-7.15l-.79-.64.65-.78c0-.07,5.51-6.68,6.76-8.39l.71-1,.83.88a9.68,9.68,0,0,0,6.88,3.43c2.61,0,4.67-1.17,6.68-3.79l.79-1,.79,1c2,2.62,4.07,3.79,6.68,3.79a9.68,9.68,0,0,0,6.88-3.43l.83-.88.71,1c1.25,1.71,6.71,8.32,6.76,8.39l.65.78-.79.64a10.11,10.11,0,0,0-3.4,7.15c0,2.05.88,3.56,1.89,5.31a14.35,14.35,0,0,1,2.5,7.7c0,5.68-4.62,9.9-12.35,11.28a28.11,28.11,0,0,0-10.54,4.69ZM4.48,11.29a11.77,11.77,0,0,1,3.41,8,12.12,12.12,0,0,1-2.16,6.31c-1.15,2-2.23,3.84-2.23,6.7,0,6.86,8.19,8.86,10.7,9.32A29.33,29.33,0,0,1,25,46.27a29.33,29.33,0,0,1,10.8-4.63c2.51-.46,10.7-2.46,10.7-9.32,0-2.86-1.08-4.72-2.23-6.7a12.12,12.12,0,0,1-2.16-6.31,11.77,11.77,0,0,1,3.41-8C44.29,9.8,41.47,6.37,40,4.45a11.21,11.21,0,0,1-7.51,3.23A9.55,9.55,0,0,1,25,4.07a9.55,9.55,0,0,1-7.47,3.61A11.21,11.21,0,0,1,10,4.45C8.53,6.37,5.71,9.8,4.48,11.29Z"/></g></svg>