<svg xmlns="http://www.w3.org/2000/svg" xmlns:xlink="http://www.w3.org/1999/xlink" viewBox="0 0 75 75"><defs><style>.cls-1{fill:url(#PurpleGradient);}.cls-2{fill:#fff;}</style><linearGradient id="PurpleGradient" x1="-15.54" y1="90.54" x2="90.53" y2="-15.53" gradientTransform="translate(0 0)" gradientUnits="userSpaceOnUse"><stop offset="0" stop-color="#4d27a8"/><stop offset="1" stop-color="#a166ff"/></linearGradient></defs><title>Amazon-API-Gateway</title><g id="Reference"><rect id="Purple_Gradient" data-name="Purple Gradient" class="cls-1" width="75" height="75"/><g id="Icon_Test" data-name="Icon Test"><path class="cls-2" d="M48.51,61.5a1,1,0,0,1-.59-.19,1,1,0,0,1-.42-.81v-46a1,1,0,0,1,.48-.85,1,1,0,0,1,1-.05l13,6.35a1,1,0,0,1,.56.89V56.18a1,1,0,0,1-.69,1l-13,4.32A1.19,1.19,0,0,1,48.51,61.5Zm1-45.39v43l11-3.65v-34Z"/><path class="cls-2" d="M26.5,61.5a1.19,1.19,0,0,1-.32,0l-13-4.32a1,1,0,0,1-.68-1V20.84a1,1,0,0,1,.56-.89l13-6.35a1,1,0,0,1,1,.05,1,1,0,0,1,.47.85v46a1,1,0,0,1-.42.81A.94.94,0,0,1,26.5,61.5Zm-12-6,11,3.65v-43l-11,5.37Z"/><path class="cls-2" d="M47.5,27.5h-3v-2h3Zm-6,0h-3v-2h3Zm-6,0h-3v-2h3Zm-6,0h-3v-2h3Z"/><path class="cls-2" d="M47.5,49.5h-3v-2h3Zm-6,0h-3v-2h3Zm-6,0h-3v-2h3Zm-6,0h-3v-2h3Z"/><path class="cls-2" d="M33.11,40.94l-3.76-3.21a1,1,0,0,1,0-1.52L33.1,33l1.3,1.52L31.54,37l2.86,2.45Z"/><path class="cls-2" d="M41.9,40.94l-1.3-1.52L43.46,37l-2.87-2.44L41.89,33l3.76,3.2a1,1,0,0,1,0,1.52Z"/><rect class="cls-2" x="31.29" y="36.5" width="12.41" height="2" transform="translate(-10.04 61) rotate(-71.32)"/></g></g></svg>