<svg xmlns="http://www.w3.org/2000/svg" viewBox="0 0 50 50"><defs><style>.cls-1{fill:#693cc5;}</style></defs><title>Amazon-Route-53_Route-Table_light-bg</title><g id="Working"><path class="cls-1" d="M6.8,12.57V7l-1.49.7V7l1.57-.89h.86v6.5Z"/><path class="cls-1" d="M10.47,12.57l2.11-5.72H9.72V6.07h3.81v.7l-2.08,5.8Z"/><path class="cls-1" d="M14.85,6.56a3.34,3.34,0,0,1,.87-.46A2.51,2.51,0,0,1,16.58,6a1.52,1.52,0,0,1,1.19.46,1.75,1.75,0,0,1,.43,1.27,2.48,2.48,0,0,1-.18.89,6.13,6.13,0,0,1-.66,1.14c-.32.45-.86,1.15-1.63,2.08h2.71v.78H14.7v-.7c.67-.83,1.18-1.49,1.54-2A7.79,7.79,0,0,0,17,8.66a2.06,2.06,0,0,0,.23-.93c0-.65-.27-1-.8-1a3.14,3.14,0,0,0-1.57.6Z"/><path class="cls-1" d="M20.07,12.66a.57.57,0,0,1-.43-.16.59.59,0,0,1-.17-.44.58.58,0,0,1,.6-.6.56.56,0,0,1,.43.17.58.58,0,0,1,.17.43.59.59,0,0,1-.17.44A.56.56,0,0,1,20.07,12.66Z"/><path class="cls-1" d="M23.57,12.57V7l-1.49.7V7l1.57-.89h.86v6.5Z"/><path class="cls-1" d="M28.91,6.69a1.16,1.16,0,0,0-1.05.56A3.73,3.73,0,0,0,27.46,9a2.54,2.54,0,0,1,1.31-.38A1.51,1.51,0,0,1,30,9.18a2,2,0,0,1,.46,1.39,2.25,2.25,0,0,1-.52,1.55,1.8,1.8,0,0,1-1.4.57A1.67,1.67,0,0,1,27,11.92a4.53,4.53,0,0,1-.5-2.39,4.86,4.86,0,0,1,.6-2.65A1.87,1.87,0,0,1,28.79,6a2.72,2.72,0,0,1,.69.09,2.34,2.34,0,0,1,.6.22V7a2.93,2.93,0,0,0-.57-.19A3.26,3.26,0,0,0,28.91,6.69Zm-.4,2.68a2.35,2.35,0,0,0-1.06.27v.07a4.18,4.18,0,0,0,.26,1.7.89.89,0,0,0,.84.54c.63,0,.94-.44.94-1.32a1.45,1.45,0,0,0-.25-.93A.85.85,0,0,0,28.51,9.37Z"/><path class="cls-1" d="M32,12.66a.57.57,0,0,1-.43-.16.59.59,0,0,1-.17-.44.6.6,0,1,1,1.2,0,.59.59,0,0,1-.17.44A.57.57,0,0,1,32,12.66Z"/><path class="cls-1" d="M35.55,12.69A1.67,1.67,0,0,1,34,11.83a4.86,4.86,0,0,1-.53-2.51A4.86,4.86,0,0,1,34,6.81,1.69,1.69,0,0,1,35.55,6a1.67,1.67,0,0,1,1.52.86,4.86,4.86,0,0,1,.53,2.51,4.86,4.86,0,0,1-.53,2.51A1.65,1.65,0,0,1,35.55,12.69Zm0-.76a.86.86,0,0,0,.82-.62,5.36,5.36,0,0,0,.26-2,5.4,5.4,0,0,0-.26-2,.86.86,0,0,0-1.65,0,5.62,5.62,0,0,0-.26,2,5.58,5.58,0,0,0,.26,2A.86.86,0,0,0,35.55,11.93Z"/><path class="cls-1" d="M39.09,12.66a.57.57,0,0,1-.43-.16.59.59,0,0,1-.17-.44.6.6,0,1,1,1.2,0,.59.59,0,0,1-.17.44A.57.57,0,0,1,39.09,12.66Z"/><path class="cls-1" d="M42.64,12.69a1.67,1.67,0,0,1-1.53-.86,4.86,4.86,0,0,1-.53-2.51,4.86,4.86,0,0,1,.53-2.51A1.69,1.69,0,0,1,42.64,6a1.67,1.67,0,0,1,1.52.86,4.86,4.86,0,0,1,.53,2.51,4.86,4.86,0,0,1-.53,2.51A1.65,1.65,0,0,1,42.64,12.69Zm0-.76a.86.86,0,0,0,.82-.62,5.36,5.36,0,0,0,.26-2,5.4,5.4,0,0,0-.26-2,.86.86,0,0,0-1.65,0,5.62,5.62,0,0,0-.26,2,5.58,5.58,0,0,0,.26,2A.86.86,0,0,0,42.64,11.93Z"/><path class="cls-1" d="M6.8,27.93V22.39l-1.49.71v-.77l1.57-.89h.86v6.49Z"/><path class="cls-1" d="M10.47,27.93l2.11-5.71H9.72v-.78h3.81v.69l-2.08,5.8Z"/><path class="cls-1" d="M14.85,21.92a3.68,3.68,0,0,1,.87-.46,2.5,2.5,0,0,1,.86-.14,1.55,1.55,0,0,1,1.19.45A1.76,1.76,0,0,1,18.2,23a2.44,2.44,0,0,1-.18.89,5.55,5.55,0,0,1-.66,1.14c-.32.45-.86,1.15-1.63,2.09h2.71v.77H14.7v-.7c.67-.83,1.18-1.49,1.54-2A7.8,7.8,0,0,0,17,24a2,2,0,0,0,.23-.92c0-.65-.27-1-.8-1a3.14,3.14,0,0,0-1.57.6Z"/><path class="cls-1" d="M20.07,28a.58.58,0,0,1-.6-.6.6.6,0,0,1,.17-.44.57.57,0,0,1,.43-.16.56.56,0,0,1,.43.16.6.6,0,0,1,.17.44.58.58,0,0,1-.17.43A.56.56,0,0,1,20.07,28Z"/><path class="cls-1" d="M23.57,27.93V22.39l-1.49.71v-.77l1.57-.89h.86v6.49Z"/><path class="cls-1" d="M28.91,22.06a1.15,1.15,0,0,0-1.05.55,3.8,3.8,0,0,0-.4,1.78A2.53,2.53,0,0,1,28.77,24a1.5,1.5,0,0,1,1.21.52,2,2,0,0,1,.46,1.4,2.22,2.22,0,0,1-.52,1.54,1.78,1.78,0,0,1-1.4.58A1.66,1.66,0,0,1,27,27.28a4.49,4.49,0,0,1-.5-2.38,4.87,4.87,0,0,1,.6-2.66,1.86,1.86,0,0,1,1.68-.92,2.71,2.71,0,0,1,.69.08,2.79,2.79,0,0,1,.6.22v.69a2.38,2.38,0,0,0-.57-.18A2.58,2.58,0,0,0,28.91,22.06Zm-.4,2.68a2.47,2.47,0,0,0-1.06.26v.08a4.21,4.21,0,0,0,.26,1.7.89.89,0,0,0,.84.54c.63,0,.94-.44.94-1.33a1.49,1.49,0,0,0-.25-.93A.87.87,0,0,0,28.51,24.74Z"/><path class="cls-1" d="M32,28a.58.58,0,0,1-.6-.6.6.6,0,0,1,.17-.44.66.66,0,0,1,.86,0,.6.6,0,0,1,.17.44.58.58,0,0,1-.6.6Z"/><path class="cls-1" d="M35.5,27.93V22.39L34,23.1v-.77l1.57-.89h.86v6.49Z"/><path class="cls-1" d="M39.09,28a.58.58,0,0,1-.6-.6.6.6,0,0,1,.17-.44.66.66,0,0,1,.86,0,.6.6,0,0,1,.17.44.58.58,0,0,1-.6.6Z"/><path class="cls-1" d="M42.64,28.06a1.68,1.68,0,0,1-1.53-.87,4.86,4.86,0,0,1-.53-2.51,4.88,4.88,0,0,1,.53-2.51,1.68,1.68,0,0,1,1.53-.85,1.66,1.66,0,0,1,1.52.85,4.88,4.88,0,0,1,.53,2.51,4.87,4.87,0,0,1-.53,2.52A1.67,1.67,0,0,1,42.64,28.06Zm0-.76a.87.87,0,0,0,.82-.62,5.42,5.42,0,0,0,.26-2,5.43,5.43,0,0,0-.26-2,.86.86,0,0,0-1.65,0,5.66,5.66,0,0,0-.26,2,5.65,5.65,0,0,0,.26,2A.87.87,0,0,0,42.64,27.3Z"/><path class="cls-1" d="M6.8,44.22V38.68l-1.49.7v-.77l1.57-.89h.86v6.5Z"/><path class="cls-1" d="M10.47,44.22l2.11-5.72H9.72v-.78h3.81v.7l-2.08,5.8Z"/><path class="cls-1" d="M14.85,38.21a3.34,3.34,0,0,1,.87-.46,2.51,2.51,0,0,1,.86-.15,1.55,1.55,0,0,1,1.19.45,1.78,1.78,0,0,1,.43,1.27,2.49,2.49,0,0,1-.18.9,5.8,5.8,0,0,1-.66,1.13c-.32.46-.86,1.15-1.63,2.09h2.71v.78H14.7v-.7c.67-.84,1.18-1.5,1.54-2A8.28,8.28,0,0,0,17,40.31a2.12,2.12,0,0,0,.23-.93c0-.65-.27-1-.8-1a3.14,3.14,0,0,0-1.57.6Z"/><path class="cls-1" d="M20.07,44.31a.57.57,0,0,1-.43-.16.6.6,0,0,1-.17-.44.58.58,0,0,1,.6-.6.56.56,0,0,1,.43.17.58.58,0,0,1,.17.43.6.6,0,0,1-.17.44A.56.56,0,0,1,20.07,44.31Z"/><path class="cls-1" d="M23.57,44.22V38.68l-1.49.7v-.77l1.57-.89h.86v6.5Z"/><path class="cls-1" d="M28.91,38.34a1.16,1.16,0,0,0-1.05.56,3.73,3.73,0,0,0-.4,1.78,2.54,2.54,0,0,1,1.31-.38,1.54,1.54,0,0,1,1.21.52,2.06,2.06,0,0,1,.46,1.4,2.25,2.25,0,0,1-.52,1.55,1.8,1.8,0,0,1-1.4.57A1.67,1.67,0,0,1,27,43.57a4.53,4.53,0,0,1-.5-2.39,4.92,4.92,0,0,1,.6-2.66,1.88,1.88,0,0,1,1.68-.92,3.25,3.25,0,0,1,.69.08,2.78,2.78,0,0,1,.6.23v.68a3.83,3.83,0,0,0-.57-.18A2.58,2.58,0,0,0,28.91,38.34ZM28.51,41a2.47,2.47,0,0,0-1.06.26v.08a4.21,4.21,0,0,0,.26,1.7.89.89,0,0,0,.84.54c.63,0,.94-.44.94-1.32a1.45,1.45,0,0,0-.25-.93A.85.85,0,0,0,28.51,41Z"/><path class="cls-1" d="M32,44.31a.57.57,0,0,1-.43-.16.6.6,0,0,1-.17-.44.6.6,0,1,1,1.2,0,.6.6,0,0,1-.17.44A.57.57,0,0,1,32,44.31Z"/><path class="cls-1" d="M33.87,38.21a3.34,3.34,0,0,1,.87-.46,2.51,2.51,0,0,1,.86-.15,1.55,1.55,0,0,1,1.19.45,1.78,1.78,0,0,1,.43,1.27,2.49,2.49,0,0,1-.18.9,5.8,5.8,0,0,1-.66,1.13c-.32.46-.86,1.15-1.63,2.09h2.71v.78H33.72v-.7c.67-.84,1.18-1.5,1.54-2A8.28,8.28,0,0,0,36,40.31a2.12,2.12,0,0,0,.23-.93c0-.65-.27-1-.8-1a3.14,3.14,0,0,0-1.57.6Z"/><path class="cls-1" d="M39.09,44.31a.57.57,0,0,1-.43-.16.6.6,0,0,1-.17-.44.6.6,0,1,1,1.2,0,.6.6,0,0,1-.17.44A.57.57,0,0,1,39.09,44.31Z"/><path class="cls-1" d="M42.64,44.34a1.69,1.69,0,0,1-1.53-.86A4.88,4.88,0,0,1,40.58,41a4.86,4.86,0,0,1,.53-2.51,1.69,1.69,0,0,1,1.53-.86,1.67,1.67,0,0,1,1.52.86A4.86,4.86,0,0,1,44.69,41a4.86,4.86,0,0,1-.53,2.51A1.67,1.67,0,0,1,42.64,44.34Zm0-.76a.86.86,0,0,0,.82-.62,5.4,5.4,0,0,0,.26-2,5.36,5.36,0,0,0-.26-2,.86.86,0,0,0-1.65,0,5.58,5.58,0,0,0-.26,2,5.62,5.62,0,0,0,.26,2A.86.86,0,0,0,42.64,43.58Z"/><path class="cls-1" d="M47.5,16.16H2.5a1,1,0,0,1-1-1V3a1,1,0,0,1,1-1h45a1,1,0,0,1,1,1V15.16A1,1,0,0,1,47.5,16.16Zm-44-2h43V4H3.5Z"/><path class="cls-1" d="M47.5,32.09H2.5a1,1,0,0,1-1-1V18.91a1,1,0,0,1,1-1h45a1,1,0,0,1,1,1V31.09A1,1,0,0,1,47.5,32.09Zm-44-2h43V19.91H3.5Z"/><path class="cls-1" d="M47.5,48H2.5a1,1,0,0,1-1-1V34.84a1,1,0,0,1,1-1h45a1,1,0,0,1,1,1V47A1,1,0,0,1,47.5,48Zm-44-2h43V35.84H3.5Z"/></g></svg>