<svg xmlns="http://www.w3.org/2000/svg" width="50" height="50" viewBox="0 0 50 50"><title>Amazon-VPC-Traffic-Mirroring_light-bg</title><g id="Working"><path d="M25,3A22,22,0,1,1,3,25,22,22,0,0,1,25,3m0-2A24,24,0,1,0,49,25,24,24,0,0,0,25,1Z" style="fill:#693cc5"/><polygon points="14.71 36.71 13.29 35.29 16 32.59 16 24.41 9.29 17.71 10.71 16.29 18 23.59 18 33.41 14.71 36.71" style="fill:#693cc5"/><rect x="33.5" y="32.38" width="2" height="4.24" transform="translate(-14.29 34.5) rotate(-45)" style="fill:#693cc5"/><rect x="32" y="29.09" width="2" height="2.91" style="fill:#693cc5"/><rect x="32" y="25.06" width="2" height="2.94" style="fill:#693cc5"/><rect x="33.59" y="21.01" width="2.79" height="2" transform="translate(-5.32 31.19) rotate(-45)" style="fill:#693cc5"/><rect x="36.57" y="18.01" width="2.85" height="2" transform="translate(-2.31 32.43) rotate(-45)" style="fill:#693cc5"/><polygon points="23 40 21 40 21 17.41 15.79 12.21 17.21 10.79 23 16.59 23 40" style="fill:#693cc5"/><polygon points="19 38 12 38 12 31 14 31 14 36 19 36 19 38" style="fill:#693cc5"/><polygon points="38 38 31 38 31 36 36 36 36 31 38 31 38 38" style="fill:#693cc5"/><polygon points="17.02 18 15.02 18 15.02 10 23 10 23 12 17.02 12 17.02 18" style="fill:#693cc5"/><polygon points="35 18 33 18 33 12 27.02 12 27.02 10 35 10 35 18" style="fill:#693cc5"/><rect x="27" y="37" width="2" height="3" style="fill:#693cc5"/><rect x="27" y="33" width="2" height="3" style="fill:#693cc5"/><rect x="27" y="29" width="2" height="3" style="fill:#693cc5"/><rect x="27" y="25" width="2" height="3" style="fill:#693cc5"/><rect x="27" y="21" width="2" height="3" style="fill:#693cc5"/><rect x="27" y="17" width="2" height="3" style="fill:#693cc5"/><rect x="28.5" y="13.5" width="3" height="2" transform="translate(-1.47 25.46) rotate(-45)" style="fill:#693cc5"/><rect x="36" y="25" width="3" height="2" style="fill:#693cc5"/><rect x="40" y="25" width="3" height="2" style="fill:#693cc5"/><path d="M41,30a1,1,0,0,1-.71-.29,1,1,0,0,1,0-1.42l3-3a1,1,0,0,1,1.42,1.42l-3,3A1,1,0,0,1,41,30Z" style="fill:#693cc5"/><path d="M44,27a1,1,0,0,1-.71-.29l-3-3a1,1,0,0,1,1.42-1.42l3,3a1,1,0,0,1,0,1.42A1,1,0,0,1,44,27Z" style="fill:#693cc5"/><rect x="6" y="25" width="8" height="2" style="fill:#693cc5"/><path d="M9,30a1,1,0,0,1-.71-.29l-3-3a1,1,0,0,1,1.42-1.42l3,3a1,1,0,0,1,0,1.42A1,1,0,0,1,9,30Z" style="fill:#693cc5"/><path d="M6,27a1,1,0,0,1-.71-.29,1,1,0,0,1,0-1.42l3-3a1,1,0,0,1,1.42,1.42l-3,3A1,1,0,0,1,6,27Z" style="fill:#693cc5"/></g></svg>