<svg xmlns="http://www.w3.org/2000/svg" viewBox="0 0 50 50"><defs><style>.cls-1{fill:#693cc5;}</style></defs><title>Amazon-VPC_Router_light-bg</title><g id="Working"><path class="cls-1" d="M25,48.5A23.5,23.5,0,1,1,48.5,25,23.52,23.52,0,0,1,25,48.5Zm0-45A21.5,21.5,0,1,0,46.5,25,21.52,21.52,0,0,0,25,3.5Z"/><path class="cls-1" d="M28.9,12.46,25,7.92l-3.9,4.54-1.51-1.3,4.65-5.43a1,1,0,0,1,1.52,0l4.65,5.43Z"/><rect class="cls-1" x="24" y="7.12" width="2" height="35.75"/><path class="cls-1" d="M25,44.62h0a1,1,0,0,1-.71-.29l-4.65-4.66,1.41-1.41,3.95,4,3.95-4,1.41,1.41-4.65,4.66A1,1,0,0,1,25,44.62Z"/><path class="cls-1" d="M18,30.36,16.53,29,20.48,25l-3.95-3.95L18,19.64l4.65,4.65a1,1,0,0,1,0,1.42Z"/><path class="cls-1" d="M32.05,30.36,27.4,25.71a1,1,0,0,1,0-1.42l4.65-4.65,1.42,1.41L29.52,25,33.47,29Z"/><rect class="cls-1" x="28.1" y="24" width="17.07" height="2"/><rect class="cls-1" x="4.83" y="24" width="17.07" height="2"/></g></svg>