<svg xmlns="http://www.w3.org/2000/svg" viewBox="0 0 50 50"><defs><style>.cls-1{fill:#693cc5;}</style></defs><title>Amazon-VPC_Elastic-Network-Interface_light-bg</title><g id="Working"><path class="cls-1" d="M25,48.5A23.5,23.5,0,1,1,48.5,25,23.52,23.52,0,0,1,25,48.5Zm0-45A21.5,21.5,0,1,0,46.5,25,21.52,21.52,0,0,0,25,3.5Z"/><path class="cls-1" d="M13.75,37.25H10.38v-2h2.37V16.62H10.38v-2h3.37a1,1,0,0,1,1,1V36.25A1,1,0,0,1,13.75,37.25Z"/><path class="cls-1" d="M37.19,35.38H32.5a1,1,0,0,1-1-1V32.56H29.75v1.82a1,1,0,0,1-1,1H19.38a1,1,0,0,1-1-1V32.56H17.5a1,1,0,0,1-1-1V17.5a1,1,0,0,1,1-1H40.94a1,1,0,0,1,1,1V31.56a1,1,0,0,1-1,1H38.19v1.82A1,1,0,0,1,37.19,35.38Zm-3.69-2h2.69V31.56a1,1,0,0,1,1-1h2.75V18.5H18.5V30.56h.88a1,1,0,0,1,1,1v1.82h7.37V31.56a1,1,0,0,1,1-1H32.5a1,1,0,0,1,1,1Z"/><path class="cls-1" d="M35.31,28.81H22.19a1,1,0,0,1-1-1V21.25a1,1,0,0,1,1-1H35.31a1,1,0,0,1,1,1v6.56A1,1,0,0,1,35.31,28.81Zm-12.12-2H34.31V22.25H23.19Z"/><rect class="cls-1" x="27.75" y="21.25" width="2" height="6.56"/></g></svg>