<svg xmlns="http://www.w3.org/2000/svg" viewBox="0 0 50 50"><defs><style>.cls-1{fill:#693cc5;}</style></defs><title>Amazon-VPC_Peering_light-bg</title><g id="Working"><path class="cls-1" d="M29,11.74,25,7.79l-3.95,4-1.41-1.41,4.65-4.66a1,1,0,0,1,1.42,0l4.65,4.66Z"/><rect class="cls-1" x="24" y="32.47" width="2" height="10.41"/><rect class="cls-1" x="24" y="7.12" width="2" height="9.6"/><path class="cls-1" d="M25,44.62a1,1,0,0,1-.71-.29l-4.65-4.66,1.41-1.41,3.95,4,3.95-4,1.41,1.41-4.65,4.66A1,1,0,0,1,25,44.62Z"/><path class="cls-1" d="M39.67,30.36,38.26,29l4-3.95-4-3.95,1.41-1.41,4.66,4.65a1,1,0,0,1,0,1.42Z"/><rect class="cls-1" x="7.12" y="24" width="7.15" height="2"/><rect class="cls-1" x="35.7" y="24" width="7.18" height="2"/><path class="cls-1" d="M10.33,30.36,5.67,25.71a1,1,0,0,1,0-1.42l4.66-4.65,1.41,1.41L7.79,25l4,3.95Z"/><path class="cls-1" d="M25,48.5A23.5,23.5,0,1,1,48.5,25,23.52,23.52,0,0,1,25,48.5Zm0-45A21.5,21.5,0,1,0,46.5,25,21.52,21.52,0,0,0,25,3.5Z"/><path class="cls-1" d="M30.28,30.66H20.11A4.22,4.22,0,0,1,15.86,27c0-.09,0-.17,0-.26a3.71,3.71,0,0,1,2.22-3.54,5.33,5.33,0,0,1,3.05-4.48,5.14,5.14,0,0,1,5.74,1.13,5,5,0,0,1,.82,1A2.77,2.77,0,0,1,31.4,23a3.74,3.74,0,0,1,2.75,3.71,3.66,3.66,0,0,1-3.82,3.9ZM23.2,20.29a3.34,3.34,0,0,0-1.31.27,3.28,3.28,0,0,0-1.83,2.82c0,.13,0,.26,0,.39a1,1,0,0,1-.74,1.09,1.77,1.77,0,0,0-1.49,1.87v.15a2.22,2.22,0,0,0,2.25,1.78H30.17c2,0,2-1.44,2-1.91s0-1.56-1.85-1.94a1,1,0,0,1-.8-.92c0-.74-.36-1.21-.82-1.21a.76.76,0,0,0-.58.31,1,1,0,0,1-1.74-.26,4,4,0,0,0-.9-1.47A3.29,3.29,0,0,0,23.2,20.29Z"/></g></svg>