<svg xmlns="http://www.w3.org/2000/svg" viewBox="0 0 50 50"><defs><style>.cls-1{fill:#693cc5;}</style></defs><title>Amazon-VPC_Elastic-Network-Adapter_light-bg</title><g id="Working"><path class="cls-1" d="M30.67,48.5a1.12,1.12,0,0,1-.31,0,1,1,0,0,1-.69-1V40.06H4.05a2.59,2.59,0,0,1-2.6-2.56l.1-25A2.58,2.58,0,0,1,4.14,9.94H29.76l-.09-7.43a1,1,0,0,1,1.8-.61L48.35,24.4a1,1,0,0,1,0,1.2L31.47,48.1A1,1,0,0,1,30.67,48.5ZM4.14,11.94a.57.57,0,0,0-.59.56l-.1,25a.58.58,0,0,0,.6.56H30.67a1,1,0,0,1,1,1V44.5L46.3,25,31.71,5.55l.06,5.38a1,1,0,0,1-1,1Z"/><path class="cls-1" d="M8.17,36.31H4.8v-2H7.17V15.69H4.8v-2H8.17a1,1,0,0,1,1,1V35.31A1,1,0,0,1,8.17,36.31Z"/><path class="cls-1" d="M31.61,34.44H26.92a1,1,0,0,1-1-1V31.62H24.17v1.82a1,1,0,0,1-1,1H13.8a1,1,0,0,1-1-1V31.62h-.88a1,1,0,0,1-1-1V16.56a1,1,0,0,1,1-1H35.36a1,1,0,0,1,1,1V30.62a1,1,0,0,1-1,1H32.61v1.82A1,1,0,0,1,31.61,34.44Zm-3.69-2h2.69V30.62a1,1,0,0,1,1-1h2.75V17.56H12.92V29.62h.88a1,1,0,0,1,1,1v1.82h7.37V30.62a1,1,0,0,1,1-1h3.75a1,1,0,0,1,1,1Z"/><path class="cls-1" d="M29.74,27.88H16.61a1,1,0,0,1-1-1V20.31a1,1,0,0,1,1-1H29.74a1,1,0,0,1,1,1v6.57A1,1,0,0,1,29.74,27.88Zm-12.13-2H28.74V21.31H17.61Z"/><rect class="cls-1" x="22.17" y="20.31" width="2" height="6.56"/></g></svg>