<svg xmlns="http://www.w3.org/2000/svg" viewBox="0 0 50 50"><defs><style>.cls-1{fill:#693cc5;}</style></defs><title>Amazon-CloudFront_Download-Distribution_light-bg</title><g id="Working"><path class="cls-1" d="M25,48.5A23.5,23.5,0,1,1,48.5,25,23.52,23.52,0,0,1,25,48.5Zm0-45A21.5,21.5,0,1,0,46.5,25,21.52,21.52,0,0,0,25,3.5Z"/><rect class="cls-1" x="24" y="9.06" width="2" height="2"/><path class="cls-1" d="M26,34.2H24V30.34h2Zm0-5.79H24V24.56h2Zm0-5.78H24V18.77h2Zm0-5.78H24V13h2Z"/><rect class="cls-1" x="24" y="36.13" width="2" height="2"/><rect class="cls-1" x="32.67" y="29.39" width="2" height="2" transform="translate(-11.63 32.71) rotate(-45)"/><rect class="cls-1" x="27.37" y="33.38" width="4.63" height="2" transform="translate(-15.61 31.06) rotate(-45)"/><path class="cls-1" d="M25,40.06a1,1,0,0,1-.71-.29l-1.41-1.41,1.41-1.42.71.71.71-.71,1.41,1.42-1.41,1.41A1,1,0,0,1,25,40.06Z"/><rect class="cls-1" x="19.31" y="32.06" width="2" height="4.63" transform="translate(-18.36 24.43) rotate(-45)"/><rect class="cls-1" x="15.33" y="29.39" width="2" height="2" transform="translate(-16.71 20.45) rotate(-45)"/></g></svg>