<svg xmlns="http://www.w3.org/2000/svg" viewBox="0 0 50 50"><defs><style>.cls-1{fill:#693cc5;}</style></defs><title>Amazon-VPC_Internet-Gateway_light-bg</title><g id="Working"><path class="cls-1" d="M25,48.5A23.5,23.5,0,1,1,48.5,25,23.52,23.52,0,0,1,25,48.5Zm0-45A21.5,21.5,0,1,0,46.5,25,21.52,21.52,0,0,0,25,3.5Z"/><path class="cls-1" d="M36.25,39.12H32.49a1,1,0,0,1-1-1V18.72a14.3,14.3,0,0,0-6.25-1.58,14.67,14.67,0,0,0-6.77,1.8V38.12a1,1,0,0,1-1,1H13.75a1,1,0,0,1-1-1V16.3a1,1,0,0,1,.34-.75,18.48,18.48,0,0,1,12.16-4.17,19,19,0,0,1,11.62,3.71,1,1,0,0,1,.38.79V38.12A1,1,0,0,1,36.25,39.12Zm-2.76-2h1.76V16.37a17.18,17.18,0,0,0-10-3,16.73,16.73,0,0,0-10.5,3.38V37.12h1.72V18.32a1,1,0,0,1,.55-.9,17.55,17.55,0,0,1,8.22-2.28,17.12,17.12,0,0,1,7.57,2l.1,0a1,1,0,0,1,.58.91Z"/></g></svg>