<svg xmlns="http://www.w3.org/2000/svg" xmlns:xlink="http://www.w3.org/1999/xlink" viewBox="0 0 75 75"><defs><style>.cls-1{fill:url(#PurpleGradient);}.cls-2{fill:#fff;}</style><linearGradient id="PurpleGradient" x1="-191.38" y1="383.01" x2="-41.38" y2="383.01" gradientTransform="translate(-151.03 -315.62) rotate(-45)" gradientUnits="userSpaceOnUse"><stop offset="0" stop-color="#4d27a8"/><stop offset="1" stop-color="#a166ff"/></linearGradient></defs><title>AWS-Cloud-Map</title><g id="Reference"><rect id="Purple_Gradient" data-name="Purple Gradient" class="cls-1" width="75" height="75"/><g id="Icon_Test" data-name="Icon Test"><path class="cls-2" d="M48.31,39.86h0a1,1,0,0,1-.79-.4c-.57-.79-5.59-7.76-5.59-11a6.39,6.39,0,1,1,12.77,0c0,3.22-5,10.19-5.59,11A1,1,0,0,1,48.31,39.86Zm0-15.81a4.43,4.43,0,0,0-4.42,4.43c0,1.7,2.46,5.84,4.42,8.7,2-2.86,4.43-7,4.43-8.7A4.43,4.43,0,0,0,48.31,24.05Z"/><path class="cls-2" d="M48.31,31.9a3.42,3.42,0,1,1,3.42-3.41A3.41,3.41,0,0,1,48.31,31.9Zm0-4.87a1.46,1.46,0,1,0,1.46,1.46A1.46,1.46,0,0,0,48.31,27Z"/><path class="cls-2" d="M53.3,53.75l-30.68,0a9.6,9.6,0,0,1-9.68-8.84c0-.25,0-.5,0-.76a9,9,0,0,1,6.42-9.07q0-.39,0-.78A13.55,13.55,0,0,1,27,22.35a12.88,12.88,0,0,1,14.55,2.9l-1.39,1.38a10.91,10.91,0,0,0-12.39-2.47,11.63,11.63,0,0,0-6.5,10.11,10.54,10.54,0,0,0,.09,1.38,1,1,0,0,1-.81,1.08,7.15,7.15,0,0,0-5.67,7.39c0,.21,0,.43,0,.63a7.63,7.63,0,0,0,7.72,7l30.6,0c.21,0,6.9-.68,6.9-7.6,0-5.81-4.79-7.26-6.85-7.61l.33-1.93c2,.34,8.48,2,8.48,9.54C62.08,52.93,53.39,53.74,53.3,53.75Z"/><path class="cls-2" d="M30,32H20.82V30H29V22.2h2V31A1,1,0,0,1,30,32Z"/><path class="cls-2" d="M17.78,50.59l-1.34-1.43L28.68,37.69V36.52H20.44v-2h9.22a1,1,0,0,1,1,1v2.57a1,1,0,0,1-.31.72Z"/><path class="cls-2" d="M20.49,53l-1.35-1.42,10.15-9.73a1,1,0,0,1,1.66.71V52.77H29V44.84Z"/><path class="cls-2" d="M40.56,38.48H34.38a1,1,0,0,1-1-1V22.2h2V36.52h4.22V29h2V37.5A1,1,0,0,1,40.56,38.48Z"/><path class="cls-2" d="M40.56,47.28H34.38a1,1,0,0,1-1-1V40.5a1,1,0,0,1,1-1h6.18a1,1,0,0,1,1,1v5.8A1,1,0,0,1,40.56,47.28Zm-5.2-2h4.22V41.48H35.36Z"/><path class="cls-2" d="M40.62,53.75H34.44a1,1,0,0,1-1-1V49.28a1,1,0,0,1,1-1h6.18a1,1,0,0,1,1,1v3.49A1,1,0,0,1,40.62,53.75Zm-5.2-2h4.22V50.26H35.42Z"/><path class="cls-2" d="M46.12,53.1h-2V42.22a1,1,0,0,1,1-1h16v2h-15Z"/></g></g></svg>