<svg xmlns="http://www.w3.org/2000/svg" xmlns:xlink="http://www.w3.org/1999/xlink" viewBox="0 0 75 75"><defs><style>.cls-1{fill:url(#PurpleGradient);}.cls-2{fill:#fff;}</style><linearGradient id="PurpleGradient" x1="-15.53" y1="90.53" x2="90.53" y2="-15.53" gradientTransform="translate(0 0)" gradientUnits="userSpaceOnUse"><stop offset="0" stop-color="#4d27a8"/><stop offset="1" stop-color="#a166ff"/></linearGradient></defs><title>AWS-Client-VPN</title><g id="Reference"><rect id="Purple_Gradient" data-name="Purple Gradient" class="cls-1" width="75" height="75"/><g id="Icon_Test" data-name="Icon Test"><path class="cls-2" d="M45.5,58.43h-16a3,3,0,0,1-3-3V43.21a3,3,0,0,1,3-3h16a3,3,0,0,1,3,3V55.42A3,3,0,0,1,45.5,58.43ZM29.5,42.2a1,1,0,0,0-1,1V55.42a1,1,0,0,0,1,1h16a1,1,0,0,0,1-1V43.21a1,1,0,0,0-1-1Z"/><path class="cls-2" d="M44.89,39h-2V36.68a3,3,0,0,0-3-3h-4.8a3,3,0,0,0-3,3V39h-2V36.68a5,5,0,0,1,5-5h4.8a5,5,0,0,1,5,5Z"/><path class="cls-2" d="M37.53,55a3.76,3.76,0,0,1-2-6.93V45.69a2,2,0,0,1,4.07,0v2.36a3.77,3.77,0,0,1-2,6.93Zm0-9.32v3a1,1,0,0,1-.63.92,1.76,1.76,0,1,0,1.32,0,1,1,0,0,1-.62-.92v-3Zm0-.1Z"/><path class="cls-2" d="M53.19,48.88H49.48v-2h3.63c.19,0,6.82-.68,6.82-7.52,0-5.74-4.74-7.17-6.78-7.52a1,1,0,0,1-.82-1.14s0-.13,0-.14A3.73,3.73,0,0,0,50,26.32c-1.66-.74-4-.66-5.11.9a1,1,0,0,1-1,.4,1,1,0,0,1-.8-.66,13.25,13.25,0,0,0-3-5,10.81,10.81,0,0,0-12.28-2.45,11.51,11.51,0,0,0-6.43,10,12.4,12.4,0,0,0,.08,1.36A1,1,0,0,1,20.69,32a7.06,7.06,0,0,0-5.62,7.3c0,.22,0,.43,0,.63a7.57,7.57,0,0,0,7.64,6.93h2.79v2H22.73a9.56,9.56,0,0,1-9.63-8.8c0-.25,0-.5,0-.76a8.92,8.92,0,0,1,6.37-9c0-.26,0-.51,0-.76a13.44,13.44,0,0,1,7.65-11.85,12.8,12.8,0,0,1,14.47,2.87,14.73,14.73,0,0,1,3,4.34,6.68,6.68,0,0,1,6.35-.39,5.64,5.64,0,0,1,3.59,5.58c2.57.65,7.5,2.77,7.5,9.29C61.93,46.33,56.21,48.63,53.19,48.88Z"/></g></g></svg>