<svg xmlns="http://www.w3.org/2000/svg" xmlns:xlink="http://www.w3.org/1999/xlink" viewBox="0 0 75 75"><defs><style>.cls-1{fill:url(#PurpleGradient);}.cls-2{fill:#fff;}</style><linearGradient id="PurpleGradient" x1="-2112.4" y1="827.02" x2="-2112.4" y2="977.02" gradientTransform="translate(-2094.02 -818.37) rotate(-135)" gradientUnits="userSpaceOnUse"><stop offset="0" stop-color="#4d27a8"/><stop offset="1" stop-color="#a166ff"/></linearGradient></defs><title>AWS-PrivateLink</title><g id="Reference"><rect id="Purple_Gradient" data-name="Purple Gradient" class="cls-1" width="75" height="75"/><g id="Icon_Test" data-name="Icon Test"><path class="cls-2" d="M46.24,47.89H41.5v-2h4.26A4.1,4.1,0,0,0,48,45.32,4,4,0,0,0,49.89,42,4.12,4.12,0,0,0,46,37.89H38.92a7,7,0,0,0-1.19.12,4.66,4.66,0,0,0-3.11,3.2,4,4,0,0,0-.16,1.16,4.4,4.4,0,0,0,.44,1.93l-2,1a6.54,6.54,0,0,1-.66-2.92,6.46,6.46,0,0,1,.23-1.73,5.89,5.89,0,0,1,1.72-3,6.46,6.46,0,0,1,1.72-1.11,11.2,11.2,0,0,1,2.33-.65c.52,0,.38,0,8.12,0a5.93,5.93,0,0,1,5.75,5.75c0,2.33-.7,4.38-2.92,5.58A6.14,6.14,0,0,1,46.24,47.89ZM37.9,49A6.21,6.21,0,0,0,39,48.14a6,6,0,0,0,1.76-4.25,5.35,5.35,0,0,0,0-.58,6,6,0,0,0-2.27-4.13L37.2,40.76a4,4,0,0,1,1.52,2.76c0,.12,0,.24,0,.38a4,4,0,0,1-1.18,2.83,3.57,3.57,0,0,1-.72.56,3.82,3.82,0,0,1-2.08.6H27.23a4,4,0,0,1,0-8H31.5v-2H27.23a6,6,0,1,0,0,12h7.53A5.88,5.88,0,0,0,37.9,49Zm25.6-4.4c0-4.92-2.9-8.3-8.19-9.6-.41-3.25-2.15-5.61-4.76-6.41a6.13,6.13,0,0,0-5.64,1.1,15.25,15.25,0,0,0-3.16-4.5,13.68,13.68,0,0,0-23.47,9.25c0,.27,0,.53,0,.8a9.24,9.24,0,0,0-6.8,9.28c0,.24,0,.46,0,.69.28,5,4.48,8.69,10,8.69h32C60,53.89,63.5,50.59,63.5,44.59ZM20.36,35.84a13.18,13.18,0,0,1-.08-1.41,11.68,11.68,0,0,1,20.08-7.81,13.57,13.57,0,0,1,3.26,5.17,1,1,0,0,0,.79.65,1,1,0,0,0,.94-.38A4.24,4.24,0,0,1,50,30.49c2,.61,3.24,2.61,3.41,5.37a1,1,0,0,0,.8.92c4.86,1,7.32,3.61,7.32,7.81,0,4.85-2.69,7.3-8,7.3h-32c-4.4,0-7.76-2.86-8-6.8,0-.19,0-.38,0-.58,0-5.22,3.75-7,6-7.56A1,1,0,0,0,20.36,35.84Z"/></g></g></svg>