<svg xmlns="http://www.w3.org/2000/svg" xmlns:xlink="http://www.w3.org/1999/xlink" viewBox="0 0 75 75"><defs><style>.cls-1{fill:url(#PurpleGradient);}.cls-2{fill:#fff;}</style><linearGradient id="PurpleGradient" x1="-15.53" y1="90.53" x2="90.53" y2="-15.53" gradientTransform="translate(0 0)" gradientUnits="userSpaceOnUse"><stop offset="0" stop-color="#4d27a8"/><stop offset="1" stop-color="#a166ff"/></linearGradient></defs><title>AWS-Site-to-Site-VPN</title><g id="Reference"><rect id="Purple_Gradient" data-name="Purple Gradient" class="cls-1" width="75" height="75"/><path class="cls-2" d="M52.89,35.57H48.3V30.94h-2v4.63H29.59V30.94h-2v4.62H22.9a1,1,0,0,0-1,1V60a1,1,0,0,0,1,1h30a1,1,0,0,0,1-1V36.57a1,1,0,0,0-.29-.7A1,1,0,0,0,52.89,35.57ZM51.88,59h-28V37.56h28Z"/><path class="cls-2" d="M36.89,48.12v5.56h2V48.12a4.13,4.13,0,0,0,1.93-6.93A4.08,4.08,0,0,0,37.9,40h0a4.14,4.14,0,0,0-1,8.15Zm-.51-5.52A2.11,2.11,0,0,1,37.89,42h0a2.16,2.16,0,0,1,1.52.63A2.13,2.13,0,0,1,40,44.11h0a2.17,2.17,0,0,1-.62,1.52,2.14,2.14,0,0,1-1.51.62h0a2.14,2.14,0,0,1-1.51-3.65Z"/><path class="cls-2" d="M29.59,24.86A8.66,8.66,0,0,1,38,16c4.59,0,8.32,4,8.3,9v.32h2V25A10.66,10.66,0,0,0,38,14,10.66,10.66,0,0,0,27.59,24.85v.42h2Z"/><path class="cls-2" d="M58.32,27.36l-4.79-4.61-1.39,1.44,3.08,3H19.76l3-3L21.4,22.73,16.67,27.4a1,1,0,0,0,0,1.42L21.4,33.5l1.41-1.43-3-2.92H55.16l-2.92,3,1.42,1.41,4.68-4.73a1,1,0,0,0,.29-.72A1,1,0,0,0,58.32,27.36Z"/></g></svg>