<svg xmlns="http://www.w3.org/2000/svg" viewBox="0 0 75 75"><defs><style>.cls-1{fill:#693cc5;}.cls-2{fill:#fff;}</style></defs><title>Elastic-Load-Balancing_light-bg</title><g id="Reference"><rect id="Orange_Light_BG" data-name="Orange Light BG" class="cls-1" width="75" height="75"/><g id="Product_Icon" data-name="Product Icon"><path class="cls-2" d="M49.54,38.5a6.22,6.22,0,1,0,0-2H42.08a14.11,14.11,0,0,0-1.4-5.3l9-7.61a6.22,6.22,0,1,0-2.36-4.87,6.08,6.08,0,0,0,1,3.4l-8.7,7.33a14.5,14.5,0,1,0,0,16.1l8.7,7.33a6.08,6.08,0,0,0-1,3.4,6.21,6.21,0,1,0,2.36-4.87l-9-7.61a14.11,14.11,0,0,0,1.4-5.3Zm6.12-5.22a4.22,4.22,0,1,1-4.21,4.22A4.22,4.22,0,0,1,55.66,33.28ZM53.58,14.5a4.22,4.22,0,1,1-4.22,4.22A4.22,4.22,0,0,1,53.58,14.5Zm0,37.57a4.22,4.22,0,1,1-4.22,4.21A4.22,4.22,0,0,1,53.58,52.07ZM27.62,50a12.5,12.5,0,1,1,12.5-12.5A12.52,12.52,0,0,1,27.62,50Z"/></g></g></svg>