<?xml version="1.0" encoding="utf-8"?>
<!-- Generator: Adobe Illustrator 21.0.0, SVG Export Plug-In . SVG Version: 6.00 Build 0)  -->
<svg version="1.1" id="Layer_1" xmlns="http://www.w3.org/2000/svg" xmlns:xlink="http://www.w3.org/1999/xlink" x="0px" y="0px"
	 width="100px" height="100px" viewBox="0 0 100 100" style="enable-background:new 0 0 100 100;" xml:space="preserve">
<style type="text/css">
	.st0{fill:#4C622C;}
	.st1{fill:#759C3F;}
	.st2{fill:#010101;}
</style>
<polygon class="st0" points="20.2,71.1 24,73 30.6,47.1 24,27 20.2,28.9 "/>
<polygon class="st1" points="24,73 31.9,71.1 31.9,28.9 24,27 "/>
<polygon class="st0" points="28.6,65.2 34.1,66.8 39.9,47.4 34.1,33.2 28.6,34.8 "/>
<polygon class="st1" points="34.1,66.8 42.9,65.2 42.9,34.8 34.1,33.2 "/>
<polygon class="st0" points="50,57.2 41.1,56.3 41.1,43.7 50,42.8 57.1,50 "/>
<polygon class="st0" points="76,73 67.9,71.1 67.9,28.9 76,27 79,50 "/>
<polygon class="st0" points="65.9,66.8 57.1,65.2 57.1,34.8 65.9,33.2 70,50 "/>
<polygon class="st1" points="76,27 79.8,28.9 79.8,71.1 76,73 "/>
<polygon class="st1" points="65.9,66.8 71.4,65.2 71.4,34.8 65.9,33.2 "/>
<polygon class="st1" points="50,57.2 58.9,56.3 58.9,43.7 50,42.8 "/>
</svg>
