<svg xmlns="http://www.w3.org/2000/svg" xmlns:xlink="http://www.w3.org/1999/xlink" viewBox="0 0 75 75"><defs><style>.cls-1{fill:url(#OrangeGradient);}.cls-2{fill:#fff;}</style><linearGradient id="OrangeGradient" x1="559.53" y1="533.53" x2="453.47" y2="427.47" gradientTransform="translate(518 -469) rotate(90)" gradientUnits="userSpaceOnUse"><stop offset="0" stop-color="#c8511b"/><stop offset="1" stop-color="#f90"/></linearGradient></defs><title>Amazon-Kinesis-Video-Streams</title><g id="Reference"><rect id="Orange_Gradient" data-name="Orange Gradient" class="cls-1" width="75" height="75"/><g id="Icon_Test" data-name="Icon Test"><path class="cls-2" d="M53.68,32.5H62.5v2H53.68c-23.09,0-41.18-9.1-41.18-20.74a8.88,8.88,0,0,1,.08-1.26h2a7.64,7.64,0,0,0-.1,1.26C14.48,24.09,32.07,32.5,53.68,32.5ZM12.5,27.85v2.91c4.37,3.77,12.46,5.73,20.39,6.73h0c-7.93,1-16,3-20.38,6.81V47c2.73-3.52,9.83-6.11,20-7.45l.19,0a137.57,137.57,0,0,1,17.57-1H62.5v-2H50.26C30.69,36.47,16.62,33.25,12.5,27.85Zm45.87.65c-18.56,0-32.55-6.13-32.55-14.17,0-.36,0-1.35,0-1.83H23.74c0,.68,0,1.81,0,1.83,0,9.37,14.57,16.17,34.64,16.17H62.5v-2ZM12.5,61.27a8.38,8.38,0,0,0,.08,1.23h2a8.38,8.38,0,0,1-.09-1.23c0-6.61,7.2-12.43,18-15.77V43.4C20.43,47,12.5,53.57,12.5,61.27Zm11.27-.7s0,1.27,0,1.93h2c0-.41,0-1.54,0-1.93,0-3.37,2.48-6.4,6.73-8.77V49.56C27,52.37,23.77,56.19,23.77,60.57ZM62.5,44.51v14a4,4,0,0,1-4,4h-20a4,4,0,0,1-4-4v-14a4,4,0,0,1,4-4h20A4,4,0,0,1,62.5,44.51Zm-2,0a2,2,0,0,0-2-2h-20a2,2,0,0,0-2,2v14a2,2,0,0,0,2,2h20a2,2,0,0,0,2-2Zm-5,7a1,1,0,0,1-.59.91l-11,5a1.06,1.06,0,0,1-.42.09,1,1,0,0,1-.54-.16,1,1,0,0,1-.46-.84v-10a1,1,0,0,1,.46-.84,1,1,0,0,1,1-.07l11,5A1,1,0,0,1,55.52,51.49Zm-3.4,0L44.5,48.05v6.89Z"/></g></g></svg>