<svg xmlns="http://www.w3.org/2000/svg" xmlns:xlink="http://www.w3.org/1999/xlink" viewBox="0 0 75 75"><defs><style>.cls-1{fill:url(#OrangeGradient);}.cls-2{fill:#fff;}</style><linearGradient id="OrangeGradient" x1="1224.48" y1="472.1" x2="1074.48" y2="472.1" gradientTransform="translate(1184.13 -441.48) rotate(135)" gradientUnits="userSpaceOnUse"><stop offset="0" stop-color="#c8511b"/><stop offset="1" stop-color="#f90"/></linearGradient></defs><title>Amazon-Elastic-Transcoder</title><g id="Reference"><rect id="Orange_Gradient" data-name="Orange Gradient" class="cls-1" width="75" height="75"/><g id="Icon_Test" data-name="Icon Test"><path class="cls-2" d="M53.75,45.5a8.51,8.51,0,0,0-8.43,7.4L33.75,48.64V44.05l12-5.07a8.5,8.5,0,1,0,9.66-11.31A8.71,8.71,0,0,0,50,23.92c-.52-3.77-3.11-5.49-5.41-5.49a5,5,0,0,0-3,1,12.66,12.66,0,0,0-2.44-3.51,11,11,0,0,0-12.45-2.46,11.51,11.51,0,0,0-6.59,10.17c0,.18,0,.35,0,.52a7.77,7.77,0,0,0-5.41,7.74A9,9,0,0,0,15.67,36l1.78-.9a7.1,7.1,0,0,1-.7-3.17,5.83,5.83,0,0,1,4.65-6,1,1,0,0,0,.57-.32,1,1,0,0,0,.24-.78,9.89,9.89,0,0,1-.06-1.13,9.55,9.55,0,0,1,5.37-8.33,9,9,0,0,1,10.25,2,11,11,0,0,1,2.56,4.17,1,1,0,0,0,1.74.27,3.21,3.21,0,0,1,2.55-1.34c1.57,0,3.24,1.3,3.48,4.2a1,1,0,0,0,.82,1.1,7.75,7.75,0,0,1,3.89,1.82A8.51,8.51,0,0,0,45.25,36a8.72,8.72,0,0,0,.06,1L33.75,41.88V38.5a1,1,0,0,0-1-1h-19a1,1,0,0,0-1,1v17a1,1,0,0,0,1,1h19a1,1,0,0,0,1-1V50.78L45.31,55a8.5,8.5,0,1,0,8.44-9.54Zm0-16a6.5,6.5,0,1,1-6.5,6.5A6.51,6.51,0,0,1,53.75,29.5Zm-22,25h-17v-15h17Zm22,6a6.5,6.5,0,1,1,6.5-6.5A6.51,6.51,0,0,1,53.75,60.5Zm-35-7.93a1,1,0,0,1-.52-.14,1,1,0,0,1-.48-.86V42.42a1,1,0,0,1,.48-.85,1,1,0,0,1,1,0l8.86,4.58a1,1,0,0,1,.55.89,1,1,0,0,1-.55.89l-8.86,4.57A1,1,0,0,1,18.75,52.57Zm1-8.51v5.87L25.44,47Zm32-3.56a1,1,0,0,1-1-1v-7a1,1,0,0,1,.49-.86,1,1,0,0,1,1,0l6.5,3.5a1,1,0,0,1,.53.88,1,1,0,0,1-.53.88l-6.5,3.5A1,1,0,0,1,51.75,40.5Zm1-6.33v3.65L56.14,36Zm-1,24.33a1,1,0,0,1-1-1v-7a1,1,0,0,1,.49-.86,1,1,0,0,1,1,0l6.5,3.5a1,1,0,0,1,.53.88,1,1,0,0,1-.53.88l-6.5,3.5A1,1,0,0,1,51.75,58.5Zm1-6.33v3.65L56.14,54Z"/></g></g></svg>