<svg xmlns="http://www.w3.org/2000/svg" xmlns:xlink="http://www.w3.org/1999/xlink" viewBox="0 0 75 75"><defs><style>.cls-1{fill:url(#OrangeGradient);}.cls-2{fill:#fff;}</style><linearGradient id="OrangeGradient" x1="124.6" y1="274.82" x2="124.6" y2="168.75" gradientTransform="translate(106.22 -207.43) rotate(45)" gradientUnits="userSpaceOnUse"><stop offset="0" stop-color="#c8511b"/><stop offset="1" stop-color="#f90"/></linearGradient></defs><title>AWS-Elemental-MediaConnect</title><g id="Reference"><rect id="Orange_Gradient" data-name="Orange Gradient" class="cls-1" width="75" height="75"/><g id="Icon_Test" data-name="Icon Test"><path class="cls-2" d="M23.12,23.86,27,26.1a1,1,0,0,0,1.5-.86V20.76l9-5.2,9,5.2v4.49a1,1,0,0,0,.5.86,1,1,0,0,0,1,0l3.89-2.24L57,26.82l1-1.73-5.61-3.24a1,1,0,0,0-1,0L48.5,23.52V20.18a1,1,0,0,0-.5-.87L38,13.54a1,1,0,0,0-1,0L27,19.31a1,1,0,0,0-.5.87v3.33l-2.88-1.67a1,1,0,0,0-1,0L17,25.09l1,1.73ZM58,48.18,46.77,41.7l-1,1.73,9.73,5.62-18,10.39-18-10.39,9.73-5.62-1-1.74L17,48.18a1,1,0,0,0,0,1.73L37,61.46a1,1,0,0,0,.5.13,1,1,0,0,0,.5-.13L58,49.91a1,1,0,0,0,0-1.73ZM33.83,50.83l-1,1.74L37,55a1,1,0,0,0,.5.14A1,1,0,0,0,38,55l4.17-2.4-1-1.74L38.5,52.38V39.23l2.67,1.54,1-1.73L38,36.63a1,1,0,0,0-1,0L32.83,39l1,1.73,2.67-1.54V52.37ZM17,38.37l5.62,3.24a1,1,0,0,0,1,0l5.61-3.24a1,1,0,0,0,.5-.87V31.59l2.15-1.24L37,33.3a1,1,0,0,0,1,0l5.11-2.95,2.16,1.24V37.5a1,1,0,0,0,.5.87l5.61,3.24a1,1,0,0,0,.5.13,1,1,0,0,0,.5-.13L58,38.37a1,1,0,0,0,.5-.87V31a1,1,0,0,0-.5-.87l-5.62-3.24a1,1,0,0,0-1,0l-5.11,2.95-2.15-1.24V22.71a1,1,0,0,0-.5-.87L38,18.6a1,1,0,0,0-1,0l-5.61,3.24a1,1,0,0,0-.5.87v5.9l-2.16,1.25-5.11-2.95a1,1,0,0,0-1,0L17,30.15a1,1,0,0,0-.5.87V37.5A1,1,0,0,0,17,38.37Zm30.27-6.78,4.61-2.66,4.62,2.66v5.33l-4.62,2.67-4.61-2.67Zm-14.38-8.3,4.61-2.67,4.62,2.67v5.33L37.5,31.28l-4.61-2.66ZM18.5,31.59l4.62-2.66,4.61,2.66v5.33l-4.61,2.67L18.5,36.92Z"/></g></g></svg>