<svg xmlns="http://www.w3.org/2000/svg" width="75" height="75" viewBox="0 0 75 75"><title>AWS-Elemental-Delta_light-bg</title><g id="Example"><rect id="Green_Light_BG" data-name="Green Light BG" width="75" height="75" style="fill:#d86613"/><path d="M38.5,56.6h-2V51.25l-4.9-2.82a1,1,0,0,1-.5-.87V45.23H16.5v-2H31.1V41.32a1,1,0,0,1,.5-.86L37,37.34a1,1,0,0,1,1,0l5.4,3.12a1,1,0,0,1,.5.86v1.91H58.5v2H43.9v2.33a1,1,0,0,1-.5.87l-4.9,2.82ZM33.1,47l4.4,2.54L41.9,47V41.9l-4.4-2.54L33.1,41.9ZM58.5,34.35h-42a1,1,0,0,1-1-1v-14a1,1,0,0,1,1-1h42a1,1,0,0,1,1,1v14A1,1,0,0,1,58.5,34.35Zm-41-2h40v-12h-40Zm37.05-4.2H42.35v-2h12.2ZM25,28.15H20.45v-2H25Z" style="fill:#fff"/></g></svg>