<svg xmlns="http://www.w3.org/2000/svg" viewBox="0 0 75 75"><defs><style>.cls-1{fill:#d86613;}.cls-2{fill:#fff;}</style></defs><title>AWS-Elemental-MediaPackage_light-bg</title><g id="Reference"><rect id="Orange_Light_BG" data-name="Orange Light BG" class="cls-1" width="75" height="75"/><g id="Product_Icon" data-name="Product Icon"><path class="cls-2" d="M37.5,62.75a1,1,0,0,1-.5-.14L16,50.49a1,1,0,0,1-.5-.87V25.38a1,1,0,0,1,.5-.87L37,12.39a1,1,0,0,1,1,0L59,24.51a1,1,0,0,1,.5.87V49.62a1,1,0,0,1-.5.87L38,62.61A1,1,0,0,1,37.5,62.75Zm-1-12h2V60l18-10.4-4.17-2.4-5.34,3a1,1,0,0,1-1,0l-6-3.33A1,1,0,0,1,39.5,46V39.32a1,1,0,0,1,.51-.88l6-3.33a1,1,0,0,1,1,0l6,3.33a1,1,0,0,1,.51.88v6.27l4,2.3V27.11l-8.11,4.68-1-1.73,8.11-4.68L38.5,15V19.7L44,22.75a1,1,0,0,1,.51.88v6.66a1,1,0,0,1-.51.88L38,34.5a1,1,0,0,1-1,0l-6-3.33a1,1,0,0,1-.51-.88V23.63a1,1,0,0,1,.51-.88L36.5,19.7V15l-18,10.4,8.11,4.68-1,1.73L17.5,27.11V47.89l4-2.31V39.45a1,1,0,0,1,.5-.87l6-3.46a1,1,0,0,1,1,0l6,3.46a1,1,0,0,1,.5.87v6.93a1,1,0,0,1-.5.86l-6,3.47a1,1,0,0,1-1,0l-5.69-3.29-3.81,2.2L36.5,60Zm-13-5,5,2.89,5-2.89V40l-5-2.88L23.5,40Zm18-.4,5,2.78,5-2.78V39.91l-5-2.78-5,2.78Zm-9-15.69,5,2.77,5-2.77v-5.5l-5-2.78-5,2.78Z"/></g></g></svg>