<svg xmlns="http://www.w3.org/2000/svg" xmlns:xlink="http://www.w3.org/1999/xlink" viewBox="0 0 75 75"><defs><style>.cls-1{fill:url(#OrangeGradient);}.cls-2{fill:#fff;}</style><linearGradient id="OrangeGradient" x1="-15.53" y1="90.53" x2="90.53" y2="-15.53" gradientTransform="translate(0 0)" gradientUnits="userSpaceOnUse"><stop offset="0" stop-color="#c8511b"/><stop offset="1" stop-color="#f90"/></linearGradient></defs><title>AWS-Elemental-MediaLive</title><g id="Reference"><rect id="Orange_Gradient" data-name="Orange Gradient" class="cls-1" width="75" height="75"/><g id="Icon_Test" data-name="Icon Test"><path class="cls-2" d="M43,18.73,37.5,15.56,32,18.73,31,17l6-3.46a1,1,0,0,1,1,0L44,17ZM24,51.64,18.5,48.47v-6h-2v6.55a1,1,0,0,0,.5.86l6,3.46Zm34-1.73a1,1,0,0,0,.5-.86V42.5h-2v6L51,51.64l1,1.73Zm.5-24V32.5h-2V27.69l-5,2.88V45a1,1,0,0,1-.5.86L38.5,53.09v5.77L43,56.27,44,58l-6,3.46a1,1,0,0,1-1,0L31,58l1-1.73,4.49,2.59V53.09L24,45.87a1,1,0,0,1-.5-.86V30.58l-5-2.89V32.5h-2V26a1,1,0,0,1,.5-.86l6-3.46,1,1.73L19.5,26l5,2.89L37,21.62a1,1,0,0,1,1,0l12.5,7.22,5-2.89L51,23.36l1-1.73,6,3.46A1,1,0,0,1,58.5,26Zm-9,4.62-12-6.93-12,6.93V44.43l12,6.93,12-6.93Zm-3.28,3L43.5,35.19v5.2a1,1,0,0,1-.5.86l-4.5,2.6V47.5h-2V43.85L32,41.25a1,1,0,0,1-.5-.86v-5.2l-2.7-1.56,1-1.73,2.7,1.56,4.5-2.6a1,1,0,0,1,1,0l4.5,2.6,2.72-1.57ZM41.5,35.19l-4-2.31-4,2.31v4.62l4,2.31,4-2.31Z"/></g></g></svg>