<svg xmlns="http://www.w3.org/2000/svg" xmlns:xlink="http://www.w3.org/1999/xlink" viewBox="0 0 75 75"><defs><style>.cls-1{fill:url(#OrangeGradient);}.cls-2{fill:#fff;}</style><linearGradient id="OrangeGradient" x1="-153.65" y1="-374.97" x2="-153.65" y2="-524.97" gradientTransform="translate(-172.03 464.32) rotate(45)" gradientUnits="userSpaceOnUse"><stop offset="0" stop-color="#c8511b"/><stop offset="1" stop-color="#f90"/></linearGradient></defs><title>AWS-Elemental-MediaTailor</title><g id="Reference"><rect id="Orange_Gradient" data-name="Orange Gradient" class="cls-1" width="75" height="75"/><g id="Icon_Test" data-name="Icon Test"><path class="cls-2" d="M38.5,61.05h-2v-9L22.05,43.73a1,1,0,0,1-.5-.87,1,1,0,0,1,.5-.86l6.85-4-6.85-3.95a1,1,0,0,1,0-1.74l10.8-6.23-1.35-.78a1,1,0,0,1-.5-.86V18.13a1,1,0,0,1,.5-.87L37,14.08a1,1,0,0,1,1,0l5.5,3.18a1,1,0,0,1,.5.87v6.35a1,1,0,0,1-.5.86l-1.35.78L53,32.35a1,1,0,0,1,0,1.74L46.1,38,53,42a1,1,0,0,1,.5.86,1,1,0,0,1-.5.87L38.5,52.07ZM24.55,42.86l13,7.48,13-7.48L44.1,39.2l-5.6,3.23v.43h-2v-.43L30.9,39.2Zm0-9.64,13,7.48,13-7.48-10.3-5.94-1.65.95v4.82h-2V28.23l-1.65-1ZM33,23.9l4.5,2.6L42,23.9V18.7l-4.5-2.6L33,18.7ZM43.74,58.69l-1-1.73L56.5,49V41.14h2v8.45a1,1,0,0,1-.5.87Zm-12.48,0L17,50.46a1,1,0,0,1-.5-.87V41.14h2V49l13.76,8ZM58.5,34.94h-2V27.07L47.74,22l1-1.73L58,25.63a1,1,0,0,1,.5.87Zm-40,0h-2V26.5a1,1,0,0,1,.5-.87l9.26-5.35,1,1.74L18.5,27.07Z"/></g></g></svg>