<svg xmlns="http://www.w3.org/2000/svg" viewBox="0 0 75 75"><defs><style>.cls-1{fill:#d86613;}.cls-2{fill:#fff;}</style></defs><title>AWS-Elemental-MediaLive_light-bg</title><g id="Reference"><rect id="Orange_Light_BG" data-name="Orange Light BG" class="cls-1" width="75" height="75"/><g id="Product_Icon" data-name="Product Icon"><path class="cls-2" d="M37.5,61.59a1,1,0,0,1-.5-.13l-8-4.6,1-1.73,6.46,3.73V51.51h2v7.36L45,55.13l1,1.73-8,4.6A1,1,0,0,1,37.5,61.59ZM52,53.22a1,1,0,0,1-.5-.13L46,49.91a1,1,0,0,1-.5-.86V42.7a1,1,0,0,1,.5-.87l5.5-3.17a1,1,0,0,1,1,0L58,41.83a1,1,0,0,1,.5.87v6.35a1,1,0,0,1-.5.86l-5.5,3.18A1,1,0,0,1,52,53.22Zm-4.5-4.75,4.5,2.6,4.5-2.6v-5.2L52,40.68l-4.5,2.59ZM23,53.22a1,1,0,0,1-.5-.13L17,49.91a1,1,0,0,1-.5-.86V42.7a1,1,0,0,1,.5-.87l5.49-3.17a1,1,0,0,1,1,0L29,41.83a1,1,0,0,1,.5.87v6.35a1,1,0,0,1-.5.86l-5.5,3.18A1,1,0,0,1,23,53.22Zm-4.49-4.75L23,51.07l4.5-2.6v-5.2L23,40.68l-4.49,2.59Zm14-1.76a1,1,0,0,1-.5-.13,1,1,0,0,1-.5-.87V29.22a1,1,0,0,1,.5-.86,1,1,0,0,1,1,0L47.28,36.6a1,1,0,0,1,.5.87,1,1,0,0,1-.5.86L33,46.58A1,1,0,0,1,32.5,46.71ZM33.5,31V44l11.28-6.51Zm25,4.55h-2V27.69l-6.38,3.67-1-1.73L55.5,26,49,22.22l1-1.73,8,4.6a1,1,0,0,1,.5.86Zm-40,0h-2V26a1,1,0,0,1,.5-.86l8-4.6,1,1.73L19.51,26l6.37,3.68-1,1.73L18.5,27.68Zm19-7.4A1,1,0,0,1,37,28L31.5,24.8a1,1,0,0,1-.5-.87V17.58a1,1,0,0,1,.5-.86L37,13.54a1,1,0,0,1,1,0l5.5,3.18a1,1,0,0,1,.5.86v6.35a1,1,0,0,1-.5.87L38,28A1,1,0,0,1,37.5,28.11ZM33,23.36,37.5,26,42,23.36v-5.2l-4.5-2.6L33,18.16Z"/></g></g></svg>