<svg xmlns="http://www.w3.org/2000/svg" viewBox="0 0 75 75"><defs><style>.cls-1{fill:#d86613;}.cls-2{fill:#fff;}</style></defs><title>AWS-Elemental-MediaStore_light-bg</title><g id="Reference"><rect id="Orange_Light_BG" data-name="Orange Light BG" class="cls-1" width="75" height="75"/><g id="Product_Icon" data-name="Product Icon"><path class="cls-2" d="M37.5,61.6a1,1,0,0,1-.5-.14h0l-9.16-5.29,1-1.73,7.66,4.42V38.08L27,32.59h0l-8.47-4.9v8.76h-2V26a1,1,0,0,1,.5-.87l10-5.75,0,0,0,0,10-5.75a1,1,0,0,1,1,0L58,25.08a1,1,0,0,1,.5.87v23.1a1,1,0,0,1-.5.86L38,61.46A1,1,0,0,1,37.5,61.6Zm1-10.82v8.08l7-4Zm10-6.93v9.24l8-4.62V39.23Zm-10,4.62,8,4.62V43.85l-3.88-2.24,1-1.73,2.88,1.66V32.3l-8-4.62v3.76h-2V26.53l-8-4.62v9.24L38,36.63a1,1,0,0,1,.5.87Zm10-16.17v9.24l8-4.62V27.68ZM39.5,26l8,4.62,8-4.62-8-4.62Zm-20,0,7,4V21.91Zm10-5.77,8,4.62,8-4.62-8-4.62Zm-6.5,33a1.09,1.09,0,0,1-.5-.13L17,49.91a1,1,0,0,1-.5-.87V42.69a1,1,0,0,1,.5-.86l5.5-3.18a1,1,0,0,1,1,0L29,41.83a1,1,0,0,1,.5.86V49a1,1,0,0,1-.5.87l-5.5,3.18A1.13,1.13,0,0,1,23,53.22Zm-4.5-4.75,4.5,2.6,4.5-2.6v-5.2L23,40.67l-4.5,2.6Z"/></g></g></svg>