<svg xmlns="http://www.w3.org/2000/svg" width="75" height="75" viewBox="0 0 75 75"><title>Amazon-CodeGuru_light-bg</title><g id="Example"><rect id="Green_Light_BG" data-name="Green Light BG" width="75" height="75" style="fill:#cd2264"/><path d="M38.5,17h-2V12.39h2ZM20.33,33.14H15.75v2h4.58Zm38.92,0H54.67v2h4.58ZM46.51,52.45V45.78a14.73,14.73,0,1,0-18,0v6.67a1,1,0,0,0,1,1h16A1,1,0,0,0,46.51,52.45Zm-16-7.17a1,1,0,0,0-.42-.81,12.73,12.73,0,1,1,14.86,0,1,1,0,0,0-.42.81v6.17h-14ZM42.35,62.14l2.86-4.58a1,1,0,0,0,0-1,1,1,0,0,0-.87-.52H30.63a1,1,0,0,0-.85,1.53l2.87,4.58a1,1,0,0,0,.84.47h8A1,1,0,0,0,42.35,62.14ZM32.44,58H42.56L41,60.61h-6.9Zm1.28-19.91-3-4,3-4L32.12,29l-3.43,4.58a1,1,0,0,0,0,1.2l3.43,4.58Zm12.59-3.38a1,1,0,0,0,0-1.2L42.88,29l-1.6,1.2,3,4-3,4,1.6,1.2Zm-6.68-8.47-2-.28L35.37,42l2,.28Zm14.6-7.45-1.41-1.41-3.44,3.43,1.42,1.42Zm-28.61,2-3.44-3.43-1.41,1.41,3.43,3.44Z" style="fill:#fff"/></g></svg>