<svg xmlns="http://www.w3.org/2000/svg" viewBox="0 0 75 75"><defs><style>.cls-1{fill:#cc2264;}.cls-2{fill:#fff;}</style></defs><title>AWS-Managed-Services_light-bg</title><g id="Reference"><rect id="Pink_Light_BG" data-name="Pink Light BG" class="cls-1" width="75" height="75"/><g id="Product_Icon" data-name="Product Icon"><path class="cls-2" d="M36.72,48.06a.94.94,0,0,1-.64-.24,1,1,0,0,1-.36-.72l-.07-1.75a11,11,0,0,1-1.79-.47L33,46.36a1,1,0,0,1-.67.46,1,1,0,0,1-.79-.19L27.7,43.72a1,1,0,0,1-.38-.7,1,1,0,0,1,.25-.76L28.75,41a10.6,10.6,0,0,1-.94-1.63l-1.66.4a1,1,0,0,1-.8-.15,1,1,0,0,1-.43-.69l-.63-4.79A1,1,0,0,1,25.23,33L27,32.89A9.87,9.87,0,0,1,27.43,31L26,30.12a1,1,0,0,1-.27-1.44l2.89-3.86a1,1,0,0,1,.71-.4,1,1,0,0,1,.77.27l1.25,1.16a10.53,10.53,0,0,1,1.61-1l-.39-1.7a1,1,0,0,1,.15-.79,1,1,0,0,1,.68-.43l4.73-.67a1,1,0,0,1,.78.23,1,1,0,0,1,.36.72L39.31,24a11,11,0,0,1,1.79.47L42,23a1,1,0,0,1,1.46-.27l3.79,2.91a1,1,0,0,1,.39.7,1,1,0,0,1-.26.76l-1.16,1.29A11.59,11.59,0,0,1,47.16,30l1.65-.39a1,1,0,0,1,1.22.84l.64,4.78a1,1,0,0,1-.23.78,1,1,0,0,1-.72.36L48,36.46a9.87,9.87,0,0,1-.48,1.85l1.46.92a1,1,0,0,1,.27,1.44l-2.89,3.86a1,1,0,0,1-1.49.13L43.63,43.5a9.64,9.64,0,0,1-1.61,1l.39,1.7a1,1,0,0,1-.83,1.22l-4.72.67Zm-3.26-5.43a1,1,0,0,1,.41.09,8.72,8.72,0,0,0,2.83.75,1,1,0,0,1,.91,1l.06,1.49,2.55-.36-.33-1.46a1,1,0,0,1,.62-1.16A8.64,8.64,0,0,0,43,41.43a1,1,0,0,1,1.33,0l1.06,1L47,40.34l-1.24-.78a1,1,0,0,1-.38-1.26,8.69,8.69,0,0,0,.75-2.89,1,1,0,0,1,.95-.91l1.46-.06-.34-2.61-1.4.34a1,1,0,0,1-1.18-.63A8.63,8.63,0,0,0,44.15,29a1,1,0,0,1,0-1.31l1-1.1L43.12,25l-.76,1.25a1,1,0,0,1-1.27.39,8.72,8.72,0,0,0-2.83-.75,1,1,0,0,1-.92-.95l-.06-1.48-2.55.36.33,1.46a1,1,0,0,1-.61,1.15,9,9,0,0,0-2.54,1.51,1,1,0,0,1-1.33,0l-1.06-1L28,29l1.25.78a1,1,0,0,1,.38,1.26,8.7,8.7,0,0,0-.75,2.88,1,1,0,0,1-.95.92l-1.47.06.35,2.61,1.41-.34a1,1,0,0,1,1.17.63,8.8,8.8,0,0,0,1.47,2.56,1,1,0,0,1,0,1.31l-1,1.11,2,1.58.77-1.26A1,1,0,0,1,33.46,42.63Z"/><path class="cls-2" d="M37.57,41.15a6.77,6.77,0,0,1-1.09-.09,6.48,6.48,0,1,1,1.09.09Zm0-10.92a4.46,4.46,0,1,0,4.4,5.2,4.48,4.48,0,0,0-3.66-5.14A4.71,4.71,0,0,0,37.56,30.23Z"/><path class="cls-2" d="M53.46,61.11a1,1,0,0,1-1-.7l-.31-1a7.44,7.44,0,0,1-2-.52l-.75.72a1,1,0,0,1-1.4,0L45.5,57.06a1,1,0,0,1,0-1.4l.71-.76a7.41,7.41,0,0,1-.54-2l-1-.3A1,1,0,0,1,44,51.43l.92-3.51a1,1,0,0,1,1.19-.72l1,.23a6.88,6.88,0,0,1,.66-.77A8.15,8.15,0,0,1,48.5,46l-.25-1a1,1,0,0,1,.71-1.2l3.5-1a1,1,0,0,1,1.22.67l.31,1A7.17,7.17,0,0,1,56,45l.75-.72a1,1,0,0,1,1.39,0l2.58,2.54a1,1,0,0,1,0,1.39L60,49a7.43,7.43,0,0,1,.55,2l1,.3a1,1,0,0,1,.69,1.21L61.32,56a1,1,0,0,1-1.19.72l-1-.23a8.21,8.21,0,0,1-.67.77,9.72,9.72,0,0,1-.76.68l.24,1a1,1,0,0,1-.7,1.2l-3.5,1A.84.84,0,0,1,53.46,61.11ZM50,56.7a1,1,0,0,1,.48.12,5.37,5.37,0,0,0,2.45.63,1,1,0,0,1,.94.71l.23.73,1.63-.45-.18-.73A1,1,0,0,1,56,56.62a5.8,5.8,0,0,0,1.79-1.81,1,1,0,0,1,1.07-.46l.74.17.43-1.64-.74-.22a1,1,0,0,1-.72-.93,5.33,5.33,0,0,0-.67-2.45,1,1,0,0,1,.14-1.16l.52-.56-1.2-1.18-.55.53a1,1,0,0,1-1.16.15,5.59,5.59,0,0,0-2.46-.64,1,1,0,0,1-.94-.7L52.05,45l-1.63.45.18.73a1,1,0,0,1-.44,1.09,5.4,5.4,0,0,0-1,.8,5.75,5.75,0,0,0-.79,1,1,1,0,0,1-1.08.46l-.73-.17L46.13,51l.73.22a1,1,0,0,1,.72.93,5.45,5.45,0,0,0,.67,2.45,1,1,0,0,1-.14,1.16l-.51.55,1.2,1.18.54-.52A1,1,0,0,1,50,56.7Z"/><path class="cls-2" d="M53.09,55.84a3.89,3.89,0,0,1-2.77-6.64h0a3.9,3.9,0,1,1,2.8,6.64Zm-1.35-5.23a1.9,1.9,0,0,0,1.35,3.23h0a1.9,1.9,0,0,0,1.33-.57A1.88,1.88,0,0,0,55,51.93a1.86,1.86,0,0,0-.56-1.34,1.9,1.9,0,0,0-2.69,0Z"/><path class="cls-2" d="M56.6,25.4l-1.78.91A19.47,19.47,0,0,0,18.27,32L20,30.25l1.42,1.41-3.5,3.5-.22.22a1,1,0,0,1-.71.3,1,1,0,0,1-.71-.3l-3.72-3.72L14,30.25l2.2,2.19A21.34,21.34,0,0,1,37.48,13.89,21.21,21.21,0,0,1,56.6,25.4Z"/><polygon class="cls-2" points="16.01 35.09 16.08 35.16 16.01 35.16 16.01 35.09"/><polygon class="cls-2" points="18.01 35.09 18.01 35.16 17.94 35.16 18.01 35.09"/><path class="cls-2" d="M62.42,37.82,61,39.24,58.9,37.13a21.78,21.78,0,0,1-1.27,5.56L55.76,42a20,20,0,0,0,1.1-4.63L55,39.24l-1.42-1.42,3.72-3.72a1,1,0,0,1,1.42,0Z"/><path class="cls-2" d="M37.53,56.28A21.39,21.39,0,0,1,18.4,44.56l1.78-.91a19.44,19.44,0,0,0,22.39,10l.53,1.93A21.13,21.13,0,0,1,37.53,56.28Z"/></g></g></svg>