<svg xmlns="http://www.w3.org/2000/svg" viewBox="0 0 50 50"><defs><style>.cls-1{fill:#cd2264;}</style></defs><title>AWS-Organizations_Organizational-Unit-OU_light-bg</title><g id="Reference"><path class="cls-1" d="M42.44,32.3H33.81v-2h6.63v-.06a6.71,6.71,0,0,0-4.8-6.44,5.35,5.35,0,0,1-4.38,0,6.45,6.45,0,0,0-1.83.88L28.3,23a8.44,8.44,0,0,1,2.82-1.26l.38-.09.34.18a3.38,3.38,0,0,0,3.22,0l.34-.18.38.09a8.71,8.71,0,0,1,6.66,8.47Z"/><path class="cls-1" d="M33.44,24.25a5.06,5.06,0,0,1-2.4-.61,5,5,0,1,1,4.79,0h0A5,5,0,0,1,33.44,24.25Zm0-7.88a3,3,0,0,0-3,2.95A2.93,2.93,0,0,0,32,21.88a3,3,0,0,0,2.88,0h0a2.92,2.92,0,0,0,1.54-2.56A3,3,0,0,0,33.44,16.37Z"/><path class="cls-1" d="M32.17,37.27H7.56v-2.5a11.9,11.9,0,0,1,9.1-11.58l.38-.1.33.19a5.24,5.24,0,0,0,5,0l.34-.18.37.09a11.9,11.9,0,0,1,9.12,11.58Zm-22.61-2H30.17v-.5a9.92,9.92,0,0,0-7.24-9.55,7.28,7.28,0,0,1-6.14,0,9.91,9.91,0,0,0-7.23,9.55Z"/><path class="cls-1" d="M19.85,25.88a6.63,6.63,0,0,1-3.2-.82,6.63,6.63,0,1,1,6.38,0h0A6.72,6.72,0,0,1,19.85,25.88Zm0-11.15a4.61,4.61,0,0,0-4.63,4.58,4.54,4.54,0,0,0,2.38,4,4.71,4.71,0,0,0,4.48,0h0a4.53,4.53,0,0,0,2.39-4A4.6,4.6,0,0,0,19.85,14.73Z"/><path class="cls-1" d="M48.84,45.44H1.16V4.56H48.84Zm-45.68-2H46.84V6.56H3.16Z"/></g></svg>