<svg xmlns="http://www.w3.org/2000/svg" viewBox="0 0 75 75"><defs><style>.cls-1{fill:#cc2264;}.cls-2{fill:#fff;}</style></defs><title>AWS-Systems-Manager_light-bg</title><g id="Reference"><rect id="Pink_Light_BG" data-name="Pink Light BG" class="cls-1" width="75" height="75"/><g id="Product_Icon" data-name="Product Icon"><path class="cls-2" d="M43.5,50.5h12v2h-12v1h-2v-1h-3v-2h3v-1h2Zm4-6h-2v1h-7v2h7v1h2v-1h8v-2h-8ZM18.43,42.87a8.15,8.15,0,0,1-3.93-7.21,7.23,7.23,0,0,1,5.85-7.48,1,1,0,0,0,.75-1L21,25.69a11.73,11.73,0,0,1,6.6-10.22A11.14,11.14,0,0,1,40.2,18a13.56,13.56,0,0,1,3.14,5.12,1,1,0,0,0,.79.65,1,1,0,0,0,.95-.39,4.17,4.17,0,0,1,4.64-1.52c1.88.62,3,2.45,3,5a1,1,0,0,0,.15.76,1,1,0,0,0,.66.42c2.1.37,7,1.84,7,7.71,0,.24,0,.46,0,.68l2,.08c0-.24,0-.49,0-.76,0-6.75-5.22-8.87-7.8-9.5-.21-3.14-1.81-5.47-4.35-6.31a6.15,6.15,0,0,0-5.72,1,15,15,0,0,0-3-4.41,13.12,13.12,0,0,0-14.79-2.93A13.71,13.71,0,0,0,19,25.75l0,.72a9.11,9.11,0,0,0-6.55,9.19,10.19,10.19,0,0,0,4.86,8.9,5.31,5.31,0,0,0,2.95.94h8.11v-2H20.31A3.3,3.3,0,0,1,18.43,42.87ZM51.5,39.5h-2v1h-11v2h11v1h2v-1h4v-2h-4Zm10.69,3.29a1,1,0,0,1,.31.72v6a1,1,0,0,1-.31.72,1,1,0,0,1-.75.28l-1.67-.1a13.84,13.84,0,0,1-1.14,2.76l1.25,1.11a.94.94,0,0,1,.33.72,1,1,0,0,1-.29.73l-4.21,4.22a1.13,1.13,0,0,1-.74.29,1,1,0,0,1-.72-.33l-1.11-1.25a13.63,13.63,0,0,1-2.76,1.15l.1,1.66a1,1,0,0,1-.27.74,1,1,0,0,1-.73.32h-6a1,1,0,0,1-.73-.32,1,1,0,0,1-.27-.74l.1-1.66a13.63,13.63,0,0,1-2.76-1.15l-1.11,1.25a1,1,0,0,1-.72.33,1.09,1.09,0,0,1-.74-.29L33.08,55.7a1,1,0,0,1-.29-.73.94.94,0,0,1,.33-.72l1.24-1.11a13.84,13.84,0,0,1-1.14-2.76l-1.66.1a1.08,1.08,0,0,1-.75-.27,1,1,0,0,1-.31-.73v-6a1,1,0,0,1,1.06-1l1.67.09a14,14,0,0,1,1.14-2.75l-1.25-1.12a.94.94,0,0,1-.33-.71,1,1,0,0,1,.29-.74l4.21-4.22a1.08,1.08,0,0,1,.74-.29,1,1,0,0,1,.72.34l1.12,1.25a13.52,13.52,0,0,1,2.75-1.14l-.1-1.68a1,1,0,0,1,.27-.74,1,1,0,0,1,.73-.31h6a1,1,0,0,1,.73.31,1,1,0,0,1,.27.74l-.1,1.68a13.52,13.52,0,0,1,2.75,1.14l1.12-1.25a1,1,0,0,1,.72-.34,1.08,1.08,0,0,1,.74.29l4.21,4.22a1,1,0,0,1,.29.74.94.94,0,0,1-.33.71l-1.25,1.12a13.52,13.52,0,0,1,1.14,2.75l1.67-.09A1,1,0,0,1,62.19,42.79ZM60.5,44.57l-1.43.09a1,1,0,0,1-1-.78,11.8,11.8,0,0,0-1.52-3.69,1,1,0,0,1,.18-1.28L57.76,38,55,35.24l-1,1.07a1,1,0,0,1-1.28.18A11.65,11.65,0,0,0,49.12,35a1,1,0,0,1-.78-1l.08-1.44H44.58l.08,1.43a1,1,0,0,1-.78,1,11.65,11.65,0,0,0-3.68,1.52,1,1,0,0,1-1.28-.18l-1-1.07L35.24,38l1.08,1a1,1,0,0,1,.18,1.28A11.45,11.45,0,0,0,35,43.88a1,1,0,0,1-1,.78l-1.43-.09v3.85l1.43-.08a1,1,0,0,1,1,.78,11.67,11.67,0,0,0,1.53,3.68,1,1,0,0,1-.18,1.28l-1.07,1L38,57.75l.95-1.06a1,1,0,0,1,1.28-.18A11.82,11.82,0,0,0,43.88,58a1,1,0,0,1,.78,1l-.08,1.43h3.84l-.08-1.43a1,1,0,0,1,.78-1,11.82,11.82,0,0,0,3.69-1.53,1,1,0,0,1,1.28.18L55,57.75,57.76,55l-1.07-1a1,1,0,0,1-.18-1.28A11.77,11.77,0,0,0,58,49.12a1,1,0,0,1,1-.78l1.43.08Z"/></g></g></svg>