<svg xmlns="http://www.w3.org/2000/svg" viewBox="0 0 50 50"><defs><style>.cls-1{fill:#cd2264;}</style></defs><title>AWS-Organizations_Account_light-bg</title><g id="Reference"><path class="cls-1" d="M23.49,36.33h-20V33.21A16.42,16.42,0,0,1,16,17.24l.37-.09.34.18a7.85,7.85,0,0,0,7.41,0l.34-.18.37.09a16.53,16.53,0,0,1,8.32,5l-1.48,1.34a14.55,14.55,0,0,0-7-4.28,9.85,9.85,0,0,1-8.59,0A14.44,14.44,0,0,0,5.45,33.21v1.12h18Z"/><path class="cls-1" d="M20.4,20.22a9,9,0,0,1-4.32-1.09,9,9,0,1,1,8.62,0h0A9.12,9.12,0,0,1,20.4,20.22Zm0-15.74A6.86,6.86,0,0,0,17,17.37a7.11,7.11,0,0,0,6.72,0A6.86,6.86,0,0,0,20.4,4.48Z"/><path class="cls-1" d="M35.91,47.68,25.27,41.54V29.25l10.64-6.14,10.64,6.14V41.54Zm-8.64-7.3,8.64,5,8.64-5v-10l-8.64-5-8.64,5Z"/><polygon class="cls-1" points="35.91 36.55 25.77 30.7 26.77 28.97 35.91 34.24 45.05 28.97 46.05 30.7 35.91 36.55"/><rect class="cls-1" x="34.91" y="35.4" width="2" height="11.13"/></g></svg>