<svg xmlns="http://www.w3.org/2000/svg" viewBox="0 0 75 75"><defs><style>.cls-1{fill:#cc2264;}.cls-2{fill:#fff;opacity:0.99;}</style></defs><title>AWS-Service-Catalog_light-bg</title><g id="Reference"><rect id="Pink_Light_BG" data-name="Pink Light BG" class="cls-1" width="75" height="75"/><g id="Product_Icon" data-name="Product Icon"><path class="cls-2" d="M52,35.8l-6.5-3.75V24.54a1,1,0,0,0-.5-.87l-7-4a1,1,0,0,0-1,0l-7,4a1,1,0,0,0-.5.87v7.51L23,35.8a1,1,0,0,0-.5.87v8.08a1,1,0,0,0,.5.87l7,4a1,1,0,0,0,1,0l6.5-3.75L44,49.66a1,1,0,0,0,1,0l7-4a1,1,0,0,0,.5-.87V36.67A1,1,0,0,0,52,35.8ZM29.5,47.06l-5-2.89V38.4l5,2.88Zm1-7.51-5-2.89,5-2.88,5,2.88Zm6,4.62-5,2.89V41.28l5-2.88Zm0-9.24-5-2.88V26.28l5,2.88Zm-4-10.39,5-2.89,5,2.89-5,2.89Zm11,1.74v5.77l-5,2.88V29.16Zm0,20.78-5-2.89V38.4l5,2.88Zm1-7.51-5-2.89,5-2.88,5,2.88Zm6,4.62-5,2.89V41.28l5-2.88Zm10-11.61-2,.3a19.85,19.85,0,0,1,.21,2.94A21.23,21.23,0,0,1,44.09,56a17.47,17.47,0,0,1-1.73.5,5,5,0,0,0-9.91,1,2.63,2.63,0,0,0,0,.31,5,5,0,0,0,9.87.78,18.68,18.68,0,0,0,2.4-.65,23.24,23.24,0,0,0,16-22.14A22.57,22.57,0,0,0,60.52,32.56ZM40.44,57.69a3,3,0,0,1-6-.06V57.5a3,3,0,0,1,6,0A1.77,1.77,0,0,1,40.44,57.69ZM57.5,21a4.85,4.85,0,0,0-1.78.33,21.22,21.22,0,0,0-1.53-1.73,23.28,23.28,0,0,0-33.44-.06L22.19,21A21.28,21.28,0,0,1,52.76,21,17.17,17.17,0,0,1,54,22.43,4.94,4.94,0,0,0,52.5,26a5,5,0,0,0,5,5,5,5,0,0,0,1.76-.32A5,5,0,0,0,57.5,21Zm1,7.81a2.84,2.84,0,0,1-1,.19,3,3,0,0,1-3-3A3,3,0,0,1,56,23.45,2.91,2.91,0,0,1,57.5,23a3,3,0,0,1,1,5.81Zm-42.4,7a20.5,20.5,0,0,1,.21-3c.09-.63.21-1.26.35-1.87a5.16,5.16,0,0,0,.79.06A5,5,0,0,0,20,21.7,5,5,0,0,0,17.5,21a5,5,0,0,0-2.67,9.22,22.25,22.25,0,0,0-.45,2.3A23.31,23.31,0,0,0,30.17,57.94l.62-1.9A21.23,21.23,0,0,1,16.15,35.8ZM14.5,26a3,3,0,0,1,3-3,2.89,2.89,0,0,1,1.51.42A3,3,0,0,1,20.5,26a3,3,0,0,1-3,3,2.8,2.8,0,0,1-1.12-.22A3,3,0,0,1,14.5,26Z"/></g></g></svg>