<svg xmlns="http://www.w3.org/2000/svg" viewBox="0 0 50 50"><defs><style>.cls-1{fill:#cd2264;}</style></defs><title>AWS-Systems-Manager_Inventory_light-bg</title><g id="Reference"><path class="cls-1" d="M48.5,48.5H1.5V14.78L25,1.35,48.5,14.78Zm-45-2h43V15.94L25,3.65,3.5,15.94Z"/><path class="cls-1" d="M42.88,44.75H7.12V16.5H42.88Zm-33.76-2H40.88V18.5H9.12Z"/><path class="cls-1" d="M16.62,26H10.88V20.25h5.74Zm-3.74-2h1.74V22.25H12.88Z"/><path class="cls-1" d="M24.12,26H18.38V20.25h5.74Zm-3.74-2h1.74V22.25H20.38Z"/><path class="cls-1" d="M16.62,33.5H10.88V27.75h5.74Zm-3.74-2h1.74V29.75H12.88Z"/><path class="cls-1" d="M24.12,33.5H18.38V27.75h5.74Zm-3.74-2h1.74V29.75H20.38Z"/><path class="cls-1" d="M31.62,33.5H25.88V27.75h5.74Zm-3.74-2h1.74V29.75H27.88Z"/><path class="cls-1" d="M16.62,41H10.88V35.25h5.74Zm-3.74-2h1.74V37.25H12.88Z"/><path class="cls-1" d="M24.12,41H18.38V35.25h5.74Zm-3.74-2h1.74V37.25H20.38Z"/><path class="cls-1" d="M31.62,41H25.88V35.25h5.74Zm-3.74-2h1.74V37.25H27.88Z"/><path class="cls-1" d="M39.12,41H33.38V35.25h5.74Zm-3.74-2h1.74V37.25H35.38Z"/></g></svg>