<svg xmlns="http://www.w3.org/2000/svg" viewBox="0 0 50 50"><defs><style>.cls-1{fill:#cd2264;}</style></defs><title>AWS-Trusted-Advisor_Checklist-Security_light-bg</title><g id="Reference"><path class="cls-1" d="M25.93,38.19H2.49a1,1,0,0,1-1-1V2.5a1,1,0,0,1,1-1H30.62a1,1,0,0,1,1,1V25h-2V3.5H3.49V36.19H25.93Z"/><rect class="cls-1" x="15.62" y="9" width="12.19" height="2"/><rect class="cls-1" x="15.62" y="19.31" width="12.19" height="2"/><rect class="cls-1" x="15.62" y="28.69" width="12.19" height="2"/><path class="cls-1" d="M8.3,12.6a1,1,0,0,1-.7-.29l-3-3L6,7.92,8.2,10.09l3.81-5L13.6,6.27,9.1,12.21a1,1,0,0,1-.72.39Z"/><path class="cls-1" d="M8.3,22.6a1,1,0,0,1-.7-.29l-3-3L6,17.92,8.2,20.09l3.81-5,1.59,1.21L9.1,22.21a1,1,0,0,1-.72.39Z"/><path class="cls-1" d="M8.3,32.6a1,1,0,0,1-.7-.29l-3-3L6,27.92,8.2,30.09l3.81-5,1.59,1.21L9.1,32.21a1,1,0,0,1-.72.39Z"/><path class="cls-1" d="M47.5,48.5H28.74a1,1,0,0,1-1-1v-15a1,1,0,0,1,1-1H47.51a1,1,0,0,1,1,1v15A1,1,0,0,1,47.5,48.5Zm-17.76-2H46.5v-13H29.75Z"/><path class="cls-1" d="M42.73,32.63V28.51a4.21,4.21,0,0,0-1.31-3.07,4.72,4.72,0,0,0-3.27-1.3h0a4.74,4.74,0,0,0-3.28,1.28,4.15,4.15,0,0,0-1.34,3l0,4.15h-2l0-4.15a6.11,6.11,0,0,1,2-4.49,6.77,6.77,0,0,1,4.65-1.82h0A6.77,6.77,0,0,1,42.8,24a6.22,6.22,0,0,1,1.92,4.51v4.12Z"/></g></svg>