<svg xmlns="http://www.w3.org/2000/svg" viewBox="0 0 75 75"><defs><style>.cls-1{fill:#cc2264;}.cls-2{fill:#fff;}</style></defs><title>AWS-Management-Console_light-bg</title><g id="Reference"><rect id="Pink_Light_BG" data-name="Pink Light BG" class="cls-1" width="75" height="75"/><g id="Product_Icon" data-name="Product Icon"><path class="cls-2" d="M61.5,61.5h-7v-2h6v-36h-46v36h28v2h-29a1,1,0,0,1-1-1v-46a1,1,0,0,1,1-1h48a1,1,0,0,1,1,1v46A1,1,0,0,1,61.5,61.5Zm-47-40h46v-6h-46ZM40.18,56.42H34.82a1,1,0,0,1-1-1v-.89a13.81,13.81,0,0,1-2.61-1.08l-.63.63a1,1,0,0,1-1.41,0L25.38,50.3a1,1,0,0,1-.29-.71,1,1,0,0,1,.29-.71l.64-.63a13,13,0,0,1-1.09-2.61H24a1,1,0,0,1-1-1V39.29a1,1,0,0,1,1-1h.9A13.54,13.54,0,0,1,26,35.68L25.38,35a1,1,0,0,1,0-1.41l3.79-3.79a1,1,0,0,1,.7-.29h0a1,1,0,0,1,.71.29l.64.64a13.72,13.72,0,0,1,2.6-1.08v-.9a1,1,0,0,1,1-1h5.36a1,1,0,0,1,1,1v.91a12.53,12.53,0,0,1,2.6,1.08l.64-.65a1,1,0,0,1,.71-.29h0a1,1,0,0,1,.7.29l3.79,3.79a1,1,0,0,1,0,1.41l-.64.64a12.39,12.39,0,0,1,1.08,2.61H51a1,1,0,0,1,1,1v5.35a1,1,0,0,1-1,1h-.9A12.61,12.61,0,0,1,49,48.25l.64.63a1,1,0,0,1,0,1.42l-3.79,3.78a1,1,0,0,1-1.41,0l-.63-.63a13.18,13.18,0,0,1-2.61,1.08v.89A1,1,0,0,1,40.18,56.42Zm-4.36-2h3.36v-.66a1,1,0,0,1,.77-1,11.22,11.22,0,0,0,3.47-1.43,1,1,0,0,1,1.24.14l.47.47,2.37-2.37L47,49.11a1,1,0,0,1-.14-1.24,10.65,10.65,0,0,0,1.43-3.45,1,1,0,0,1,1-.78H50V40.29h-.67a1,1,0,0,1-1-.78,10.93,10.93,0,0,0-1.43-3.46A1,1,0,0,1,47,34.81l.48-.48L45.13,32l-.48.49a1,1,0,0,1-1.25.13A10.76,10.76,0,0,0,40,31.16a1,1,0,0,1-.77-1V29.5H35.82v.68a1,1,0,0,1-.78,1,11.21,11.21,0,0,0-3.45,1.43,1,1,0,0,1-1.24-.14L29.87,32,27.5,34.33l.48.48a1,1,0,0,1,.14,1.25,11,11,0,0,0-1.43,3.45,1,1,0,0,1-1,.78H25v3.35h.67a1,1,0,0,1,1,.78,11.16,11.16,0,0,0,1.43,3.46A1,1,0,0,1,28,49.12l-.48.47L29.87,52l.48-.48a1,1,0,0,1,1.24-.13A11.11,11.11,0,0,0,35,52.78a1,1,0,0,1,.78,1Zm1.68-7.08A5.38,5.38,0,1,1,42.88,42,5.39,5.39,0,0,1,37.5,47.34Zm0-8.75A3.38,3.38,0,1,0,40.88,42,3.38,3.38,0,0,0,37.5,38.59ZM26.5,19.5h-2v-2h2Zm-4,0h-2v-2h2Zm-4,0h-2v-2h2Z"/></g></g></svg>