<svg xmlns="http://www.w3.org/2000/svg" viewBox="0 0 50 50"><defs><style>.cls-1{fill:#cd2264;}</style></defs><title>AWS-CloudFormation_Change-Set_light-bg</title><g id="Reference"><path class="cls-1" d="M43.75,48.5H6.25a1,1,0,0,1-1-1V2.5a1,1,0,0,1,1-1h37.5a1,1,0,0,1,1,1v45A1,1,0,0,1,43.75,48.5Zm-36.5-2h35.5V3.5H7.25Z"/><path class="cls-1" d="M16.56,15.69H10a1,1,0,0,1-1-1V8.12a1,1,0,0,1,1-1h6.56a1,1,0,0,1,1,1v6.57A1,1,0,0,1,16.56,15.69Zm-5.56-2h4.56V9.12H11Z"/><path class="cls-1" d="M13.28,29.75a4.28,4.28,0,1,1,4.28-4.28A4.28,4.28,0,0,1,13.28,29.75Zm0-6.56a2.28,2.28,0,1,0,2.28,2.28A2.28,2.28,0,0,0,13.28,23.19Z"/><path class="cls-1" d="M13.28,45.69C10.88,45.69,9,43.19,9,40s1.88-5.69,4.28-5.69,4.28,2.5,4.28,5.69S15.68,45.69,13.28,45.69Zm0-9.38C12,36.31,11,38,11,40s1,3.69,2.28,3.69S15.56,42,15.56,40,14.52,36.31,13.28,36.31Z"/><path class="cls-1" d="M36.72,28.81c-3,0-5.22-1.43-5.22-3.34s2.24-3.35,5.22-3.35,5.22,1.44,5.22,3.35S39.69,28.81,36.72,28.81Zm0-4.69c-1.94,0-3.22.81-3.22,1.35s1.28,1.34,3.22,1.34,3.22-.81,3.22-1.34S38.65,24.12,36.72,24.12Z"/><path class="cls-1" d="M40,15.69H31.56a1,1,0,0,1-.87-1.49l4.22-7.5a1,1,0,0,1,1.74,0l4.22,7.5a1,1,0,0,1,0,1A1,1,0,0,1,40,15.69Zm-6.73-2h5L35.78,9.23Z"/><rect class="cls-1" x="35.72" y="35.83" width="2" height="9.28" transform="translate(-17.86 37.82) rotate(-45)"/><rect class="cls-1" x="32.08" y="39.47" width="9.28" height="2" transform="translate(-17.86 37.82) rotate(-45)"/><path class="cls-1" d="M26.64,14.46,25.23,13l2.11-2.1L25.23,8.83l1.41-1.41,2.82,2.81a1,1,0,0,1,0,1.41Z"/><rect class="cls-1" x="19.38" y="9.94" width="8.44" height="2"/><path class="cls-1" d="M26.64,29.46,25.23,28l2.11-2.1-2.11-2.11,1.41-1.41,2.82,2.81a1,1,0,0,1,0,1.41Z"/><rect class="cls-1" x="19.38" y="24.94" width="8.44" height="2"/><path class="cls-1" d="M26.64,44.46,25.23,43l2.11-2.1-2.11-2.11,1.41-1.41,2.82,2.81a1,1,0,0,1,0,1.41Z"/><rect class="cls-1" x="19.38" y="39.94" width="8.44" height="2"/></g></svg>