<svg xmlns="http://www.w3.org/2000/svg" viewBox="0 0 50 50"><defs><style>.cls-1{fill:#cd2264;}</style></defs><title>AWS-Trusted-Advisor_Checklist_light-bg</title><g id="Reference"><path class="cls-1" d="M43.75,48.5H6.25a1,1,0,0,1-1-1V2.5a1,1,0,0,1,1-1h37.5a1,1,0,0,1,1,1v45A1,1,0,0,1,43.75,48.5Zm-36.5-2h35.5V3.5H7.25Z"/><rect class="cls-1" x="23.13" y="10.88" width="15.94" height="2"/><rect class="cls-1" x="23.13" y="25.88" width="15.94" height="2"/><rect class="cls-1" x="23.13" y="39.94" width="15.94" height="2"/><path class="cls-1" d="M13.75,13.81a1,1,0,0,1-.71-.29L9.29,9.77l1.42-1.41,2.93,2.93,4.94-6.58,1.59,1.2-5.62,7.5a1,1,0,0,1-.73.4Z"/><path class="cls-1" d="M13.75,28.81a1,1,0,0,1-.71-.29L9.29,24.77l1.42-1.41,2.93,2.93,4.94-6.58,1.59,1.2-5.62,7.5a1,1,0,0,1-.73.4Z"/><path class="cls-1" d="M13.75,43.81a1,1,0,0,1-.71-.29L9.29,39.77l1.42-1.41,2.93,2.93,4.94-6.58,1.59,1.2-5.62,7.5a1,1,0,0,1-.73.4Z"/></g></svg>