<svg xmlns="http://www.w3.org/2000/svg" viewBox="0 0 50 50"><defs><style>.cls-1{fill:#cd2264;}</style></defs><title>AWS-Trusted-Advisor_Checklist-Fault-Tolerant_light-bg</title><g id="Reference"><path class="cls-1" d="M25.94,38.52H2.5a1,1,0,0,1-1-1V2.83a1,1,0,0,1,1-1H30.62a1,1,0,0,1,1,1V30h-2V3.83H3.5V36.52H25.94Z"/><rect class="cls-1" x="15.63" y="9.33" width="12.19" height="2"/><rect class="cls-1" x="15.63" y="19.65" width="12.19" height="2"/><rect class="cls-1" x="15.63" y="29.02" width="12.19" height="2"/><path class="cls-1" d="M8.31,12.93a1,1,0,0,1-.7-.28l-3-3L6,8.25,8.2,10.42l3.82-5L13.61,6.6l-4.5,5.94a1,1,0,0,1-.73.39Z"/><path class="cls-1" d="M8.31,22.93a1,1,0,0,1-.7-.28l-3-3L6,18.25,8.2,20.42l3.82-5,1.59,1.21-4.5,5.94a1,1,0,0,1-.73.39Z"/><path class="cls-1" d="M8.31,32.93a1,1,0,0,1-.7-.28l-3-3L6,28.25,8.2,30.42l3.82-5,1.59,1.21-4.5,5.94a1,1,0,0,1-.73.39Z"/><path class="cls-1" d="M47.5,48.83H23.12a1,1,0,0,1-.86-.5,1,1,0,0,1,0-1L34.45,26.7a1,1,0,0,1,1.72,0L48.36,47.32a1,1,0,0,1-.86,1.51Zm-22.62-2H45.75L35.31,29.17Z"/><path class="cls-1" d="M35.31,45.29A1.22,1.22,0,0,1,34.05,44a1.19,1.19,0,0,1,.35-.91,1.21,1.21,0,0,1,.91-.36,1.27,1.27,0,1,1,0,2.54Zm-.81-3.44-.31-6.46a2.56,2.56,0,0,1,1.12-.27,2.6,2.6,0,0,1,1.13.27l-.31,6.46Z"/></g></svg>