<svg xmlns="http://www.w3.org/2000/svg" xmlns:xlink="http://www.w3.org/1999/xlink" viewBox="0 0 75 75"><defs><style>.cls-1{fill:url(#PinkGradient);}.cls-2{fill:#fff;}</style><linearGradient id="PinkGradient" x1="179.53" y1="153.53" x2="73.47" y2="47.47" gradientTransform="translate(138 -89) rotate(90)" gradientUnits="userSpaceOnUse"><stop offset="0" stop-color="#b0084d"/><stop offset="1" stop-color="#ff4f8b"/></linearGradient></defs><title>AWS-CloudTrail</title><g id="Reference"><rect id="Pink_Gradient" data-name="Pink Gradient" class="cls-1" width="75" height="75"/><g id="Icon_Test" data-name="Icon Test"><path class="cls-2" d="M55.48,35a6,6,0,0,0-3.91-5.58,5.63,5.63,0,0,0-5.15.84,13.13,13.13,0,0,0-2.66-3.82,11.94,11.94,0,0,0-13.35-2.61,12.23,12.23,0,0,0-7.06,10.85l0,.54a8.27,8.27,0,0,0-5.35,5h2.18a6.65,6.65,0,0,1,4.46-3.33,1,1,0,0,0,.75-1l-.08-1.27a10.31,10.31,0,0,1,5.83-8.95,10,10,0,0,1,11.19,2.2,11.69,11.69,0,0,1,2.76,4.48,1,1,0,0,0,.8.65,1,1,0,0,0,.94-.39,3.64,3.64,0,0,1,4.07-1.29c1.65.55,2.59,2.16,2.59,4.34a1,1,0,0,0,.82,1.14c1.84.32,6.14,1.6,6.14,6.7,0,6.09-6,6.73-6.18,6.75H33.52v2H54.4c2.8-.25,8.08-2.4,8.08-8.75C62.48,38.43,59,35.82,55.48,35Zm-41,17.25h-2v-2h2Zm9,0h-7v-2h7Zm8,0h-6v-2h6Zm-9-4h-9v-2h9Zm19,0h-12v-2h12Zm-10-4h-6v-2h6Zm-8,0h-8v-2h8Zm4,4h-3v-2h3Z"/></g></g></svg>