<svg xmlns="http://www.w3.org/2000/svg" viewBox="0 0 50 50"><defs><style>.cls-1{fill:#cd2264;}</style></defs><title>AWS-Trusted-Advisor_Checklist-Cost_light-bg</title><g id="Reference"><path class="cls-1" d="M24.06,38.19H2.5a1,1,0,0,1-1-1V2.5a1,1,0,0,1,1-1H30.62a1,1,0,0,1,1,1V21.25h-2V3.5H3.5V36.19H24.06Z"/><rect class="cls-1" x="15.63" y="9" width="12.19" height="2"/><rect class="cls-1" x="15.63" y="19.31" width="12.19" height="2"/><rect class="cls-1" x="15.63" y="28.69" width="5.63" height="2"/><path class="cls-1" d="M8.31,12.6a1,1,0,0,1-.7-.29l-3-3L6,7.92l2.19,2.17,3.81-5,1.59,1.21-4.5,5.94a1,1,0,0,1-.73.39Z"/><path class="cls-1" d="M8.31,22.6a1,1,0,0,1-.7-.29l-3-3L6,17.92l2.19,2.17,3.81-5,1.59,1.21-4.5,5.94a1,1,0,0,1-.73.39Z"/><path class="cls-1" d="M8.31,32.6a1,1,0,0,1-.7-.29l-3-3L6,27.92l2.19,2.17,3.81-5,1.59,1.21-4.5,5.94a1,1,0,0,1-.73.39Z"/><path class="cls-1" d="M38.12,48.5a1,1,0,0,1-.7-.29L23.36,34.14a1,1,0,0,1-.3-.7V24.06a1,1,0,0,1,1-1h9.38a1,1,0,0,1,.7.3L48.21,37.42a1,1,0,0,1,0,1.41l-9.38,9.38A1,1,0,0,1,38.12,48.5ZM25.06,33,38.12,46.09l8-8L33,25.06h-8Z"/><path class="cls-1" d="M28.28,30.68A2.39,2.39,0,1,1,30,30,2.42,2.42,0,0,1,28.28,30.68Zm0-2.81a.41.41,0,0,0-.29.69c.21.21.37.21.57,0h0a.37.37,0,0,0,.12-.28.37.37,0,0,0-.12-.29A.39.39,0,0,0,28.28,27.87Z"/></g></svg>