<svg xmlns="http://www.w3.org/2000/svg" viewBox="0 0 50 50"><defs><style>.cls-1{fill:#cd2264;}</style></defs><title>AWS-Systems-Manager_Run-Command_light-bg</title><g id="Reference"><path class="cls-1" d="M39.38,41.47h-26a2.49,2.49,0,0,1-2.43-3l5.93-28a2.5,2.5,0,0,1,2.44-2h26a2.49,2.49,0,0,1,2.43,3l-5.93,28A2.5,2.5,0,0,1,39.38,41.47ZM19.29,10.53a.49.49,0,0,0-.48.39l-5.93,28a.47.47,0,0,0,.1.41.45.45,0,0,0,.37.18h26a.49.49,0,0,0,.47-.39l5.93-28a.48.48,0,0,0-.09-.41.49.49,0,0,0-.38-.18Z"/><rect class="cls-1" x="16.9" y="14.1" width="29.06" height="2"/><path class="cls-1" d="M37.61,29.28H18.67l2.38-9.5H40Zm-16.37-2H36.05l1.37-5.5H22.61Z"/><rect class="cls-1" x="1.21" y="14.16" width="13.13" height="2"/><rect class="cls-1" x="1.21" y="20.72" width="11.25" height="2"/><rect class="cls-1" x="1.21" y="27.28" width="9.38" height="2"/></g></svg>