<svg xmlns="http://www.w3.org/2000/svg" xmlns:xlink="http://www.w3.org/1999/xlink" viewBox="0 0 75 75"><defs><style>.cls-1{fill:url(#PinkGradient);}.cls-2{fill:#fff;}</style><linearGradient id="PinkGradient" x1="-598.85" y1="-1449.77" x2="-598.85" y2="-1599.77" gradientTransform="translate(-617.23 1539.12) rotate(45)" gradientUnits="userSpaceOnUse"><stop offset="0" stop-color="#b0084d"/><stop offset="1" stop-color="#ff4f8b"/></linearGradient></defs><title>AWS-Well-Architected-Tool</title><g id="Reference"><rect id="Pink_Gradient" data-name="Pink Gradient" class="cls-1" width="75" height="75"/><path class="cls-2" d="M34.16,39.21a1.42,1.42,0,0,0-1.35-.78H21.32a1.15,1.15,0,0,0-1.06.62l-.17.28-1.44,2.5c-1.25,2.17-2.66,4.62-4.06,7a1.66,1.66,0,0,0,0,1.84c2,3.38,3.77,6.48,5.49,9.5a1.63,1.63,0,0,0,1.55.93h0c1.29,0,2.56,0,3.87,0H28.8c1.26,0,2.56,0,3.83,0h.06a1.62,1.62,0,0,0,1.54-.91c2-3.43,4-6.93,5.59-9.59a1.51,1.51,0,0,0,0-1.67C37.82,45.53,35.85,42.13,34.16,39.21ZM32.53,59.12h-7c-1.23,0-2.5,0-3.77,0-1.64-2.87-3.41-5.93-5.4-9.35,1.39-2.38,2.79-4.81,4-7l1.34-2.34,0,0h10.8c1.74,3,3.61,6.23,5.44,9.35-1.36,2.31-3.39,5.75-5.42,9.29L32.52,59Z"/><path class="cls-2" d="M35.42,48.28c-.86-1.44-1.88-3.13-2.86-4.83A2.81,2.81,0,0,0,30,42h-.11c-.63,0-1.27,0-1.89,0h-3.8a2.64,2.64,0,0,0-2.36,1.37c-.93,1.63-1.92,3.33-2.93,5.05a2.7,2.7,0,0,0,0,2.81c.94,1.6,1.9,3.26,2.85,4.93a2.81,2.81,0,0,0,2.53,1.47c1.91,0,3.79,0,5.74,0a2.77,2.77,0,0,0,2.5-1.46c.92-1.59,1.89-3.22,2.87-4.84A2.78,2.78,0,0,0,35.42,48.28Zm-1.74,2c-1,1.63-1.95,3.27-2.88,4.88a.82.82,0,0,1-.79.46H24.27a.78.78,0,0,1-.77-.46c-1-1.7-1.93-3.37-2.86-5a.71.71,0,0,1,0-.8c1-1.68,2-3.38,2.93-5.05A.66.66,0,0,1,24.2,44H28c.66,0,1.31,0,2,0h0a.83.83,0,0,1,.83.48c1,1.72,2,3.36,2.88,4.88A.8.8,0,0,1,33.68,50.25Z"/><path class="cls-2" d="M36.55,35.28h0l-.06.1a2,2,0,0,0-.15.29,1,1,0,0,0,0,.84,1,1,0,0,0,.68.48,1.58,1.58,0,0,0,.37,0h1.28c.73,0,1.49,0,2.24,0H41a1.44,1.44,0,0,0,1.38-.83c.64-1.16,1.32-2.32,2-3.45l.73-1.27h.12l.48,0h5.57a.83.83,0,0,1,.85.5c.47.84,1,1.7,1.45,2.52l0,.05,1,1.78a1.25,1.25,0,0,0,1.14.73h3.85a1,1,0,0,0,1-.46,1.11,1.11,0,0,0-.07-1.12l-.12-.2-1.26-2.19c-1.2-2.08-2.45-4.23-3.66-6.35a1.36,1.36,0,0,0-1.3-.76H42.81a1.36,1.36,0,0,0-1.3.75c-1.32,2.32-2.68,4.66-4,6.93ZM39,35l.2-.33c1.32-2.29,2.62-4.53,3.89-6.75H53.87c1.13,2,2.3,4,3.42,5.94L58,35H56.21l-.77-1.33-.13-.23c-.47-.81-1-1.65-1.43-2.49a2.87,2.87,0,0,0-2.64-1.53H45.68l-.59,0-1.18.07-1.33,2.3c-.6,1-1.22,2.1-1.81,3.17H39Z"/><path class="cls-2" d="M15.39,24.89A2,2,0,0,0,16,25h3.53a1.32,1.32,0,0,0,1.26-.76L22,22.15l.06-.09c.42-.72.85-1.46,1.26-2.2a.77.77,0,0,1,.78-.46h0l2.92,0c.93,0,1.75,0,2.51,0h.09a1,1,0,0,1,1.05.68.75.75,0,0,0,.07.12l.61,1c.57,1,1.15,2,1.72,3a1.27,1.27,0,0,0,1.19.74h.08c.38,0,.77,0,1.2,0H38.1a1,1,0,0,0,.9-.48,1.07,1.07,0,0,0,0-1.05l-.12-.2L37.56,21q-1.86-3.21-3.69-6.42a1.31,1.31,0,0,0-1.27-.71H21.27a1.4,1.4,0,0,0-1.36.77c-1,1.82-2.08,3.63-3.13,5.44l-1.31,2.28-.14.23c-.17.3-.37.63-.53,1a.91.91,0,0,0,0,.79A1,1,0,0,0,15.39,24.89ZM27,17.43c-1,0-1.93,0-2.89,0h-.07a2.74,2.74,0,0,0-2.53,1.49c-.41.74-.84,1.48-1.23,2.14l-.09.16c-.34.59-.68,1.17-1,1.77H17.44l1.22-2.11c.95-1.65,1.9-3.29,2.86-5H32.3q1.76,3.06,3.52,6.12l.56,1H34.64c-.51-.9-1-1.78-1.54-2.67l-.61-1.05a3,3,0,0,0-2.89-1.85h-.14C28.72,17.42,27.92,17.43,27,17.43Z"/><path class="cls-2" d="M59.71,37.58v0H58.37c-.82,0-1.68,0-2.51,0h0a1.27,1.27,0,0,0-1.2.75c-.37.65-.75,1.3-1.13,2s-.88,1.51-1.32,2.29a1,1,0,0,1-1,.57H48.26c-.86,0-1.62,0-2.32,0h-.06a1.19,1.19,0,0,1-1.19-.71c-.43-.78-.89-1.57-1.29-2.27s-.69-1.18-1-1.78A1.4,1.4,0,0,0,41,37.56h0c-.43,0-.88,0-1.43,0H37.39a1,1,0,0,0-.91,1.58L38.4,42.5l.14.24c1,1.72,2,3.44,3,5.16a1.31,1.31,0,0,0,1.28.72c1.36,0,2.76,0,4.1,0h4.67c.92,0,1.68,0,2.38,0H54a1.64,1.64,0,0,0,1.56-.93c1-1.86,2.14-3.73,3.19-5.55l.17-.29,1.41-2.45.06-.1a2.28,2.28,0,0,0,.18-.35.95.95,0,0,0-.87-1.37ZM48.26,45.12h2.9a3,3,0,0,0,2.75-1.6c.42-.74.85-1.49,1.3-2.25l.08-.14c.3-.52.61-1,.91-1.57h1.73l-.69,1.2c-1.05,1.81-2.24,3.85-3.36,5.84-.68,0-1.42,0-2.32,0H43.08l-3-5.23-1-1.8h1.72l.9,1.56.07.12c.38.66.82,1.41,1.22,2.14a3.14,3.14,0,0,0,2.94,1.75H46C46.7,45.12,47.44,45.12,48.26,45.12Z"/><path class="cls-2" d="M15,27.24l.11-.06-.11.06.06.1.92,1.6.9,1.55c1,1.79,2.06,3.57,3.08,5.36a1.16,1.16,0,0,0,1,.71h4a1,1,0,0,0,.78-.33.81.81,0,0,0,.22-.66,1.73,1.73,0,0,0-.23-.64l-1.14-2-1.38-2.38c-.83-1.44-1.69-2.92-2.52-4.39a1.19,1.19,0,0,0-1.1-.67h-.1c-.42,0-.85,0-1.26,0H16.84c-.41,0-.83,0-1.24,0a.92.92,0,0,0-.77.41,1,1,0,0,0-.06.89C14.84,27,14.91,27.11,15,27.24Zm2.47.28h1.72l2.22,3.84L22.89,34l.35.61H21.52L18.6,29.49Z"/><path class="cls-2" d="M34,34.7a1,1,0,0,0,.83-.48c.15-.24.29-.48.4-.69l.44-.84c.23-.44.47-.89.72-1.33.4-.68.81-1.35,1.22-2L38.94,27A1,1,0,0,0,39,26a1.08,1.08,0,0,0-.95-.48H34.23a1.28,1.28,0,0,0-1.2.74c-.53,1-1.12,2-1.85,3.22a1.27,1.27,0,0,0,0,1.41l.29.49.81,1.39.41.72.14.25.06.11c.07.12.15.24.23.36A1,1,0,0,0,34,34.7Zm0-3.07c-.24-.43-.49-.86-.74-1.29l-.1-.16c.58-1,1.07-1.81,1.53-2.65h1.7l-.47.78c-.41.68-.82,1.37-1.22,2.06C34.37,30.78,34.14,31.21,33.92,31.63Z"/><path class="cls-2" d="M32.36,34.12l-.44-.75c-.33-.56-.66-1.13-1-1.7a1.12,1.12,0,0,0-1.09-.6c-.39,0-.8,0-1.19,0H26a1,1,0,0,0-.89.43,1.06,1.06,0,0,0,0,1l.06.11.63,1.1,0,.06c.41.7.81,1.41,1.21,2.11a1.18,1.18,0,0,0,1.13.65h3.71a1.18,1.18,0,0,0,1.05-.48A1.15,1.15,0,0,0,32.82,35Zm-2.06.44H28.58l-.86-1.48h1.72l.75,1.3Z"/></g></svg>