<svg xmlns="http://www.w3.org/2000/svg" xmlns:xlink="http://www.w3.org/1999/xlink" viewBox="0 0 75 75"><defs><style>.cls-1{fill:url(#PinkGradient);}.cls-2{fill:#fff;}</style><linearGradient id="PinkGradient" x1="-1139.36" y1="423.97" x2="-1139.36" y2="573.97" gradientTransform="translate(-1120.97 -415.32) rotate(-135)" gradientUnits="userSpaceOnUse"><stop offset="0" stop-color="#b0084d"/><stop offset="1" stop-color="#ff4f8b"/></linearGradient></defs><title>AWS-License-Manager</title><g id="Reference"><rect id="Pink_Gradient" data-name="Pink Gradient" class="cls-1" width="75" height="75"/><g id="Icon_Test" data-name="Icon Test"><path class="cls-2" d="M53.87,21.07H47.63a1,1,0,0,1-1-1V13.84h2v5.23h5.24Z"/><path class="cls-2" d="M53.87,56.93H44.52v-2h8.35V20.49l-5.65-5.65H22.13V54.93h8.35v2H21.13a1,1,0,0,1-1-1V13.84a1,1,0,0,1,1-1h26.5a1,1,0,0,1,.71.29l6.24,6.24a1,1,0,0,1,.29.7V55.93A1,1,0,0,1,53.87,56.93Z"/><path class="cls-2" d="M42.18,62.16a1,1,0,0,1-.64-.23l-4-3.36-4,3.36a1,1,0,0,1-1.06.14,1,1,0,0,1-.58-.91V52.81h2V59l3-2.53a1,1,0,0,1,1.28,0l3,2.53V52.81h2v8.35a1,1,0,0,1-1,1Z"/><path class="cls-2" d="M37.5,53.81a3.35,3.35,0,0,1-3.09-2.08,10,10,0,0,1-1.17-.49,3.28,3.28,0,0,1-1.2.23,3.34,3.34,0,0,1-3.33-3.34,3.22,3.22,0,0,1,.22-1.19,9.91,9.91,0,0,1-.48-1.17,3.34,3.34,0,0,1,0-6.18,8.69,8.69,0,0,1,.48-1.17,3.32,3.32,0,0,1,4.31-4.31,10,10,0,0,1,1.17-.49,3.34,3.34,0,0,1,6.18,0,10,10,0,0,1,1.17.49,3.28,3.28,0,0,1,1.2-.23,3.35,3.35,0,0,1,3.11,4.54,8.69,8.69,0,0,1,.48,1.17,3.34,3.34,0,0,1,0,6.18,9.91,9.91,0,0,1-.48,1.17,3.22,3.22,0,0,1,.22,1.19A3.34,3.34,0,0,1,43,51.47a3.28,3.28,0,0,1-1.2-.23,10,10,0,0,1-1.17.49A3.35,3.35,0,0,1,37.5,53.81Zm-4.24-4.69a1.05,1.05,0,0,1,.49.13,7.64,7.64,0,0,0,1.72.72,1,1,0,0,1,.72.77,1.34,1.34,0,0,0,2.62,0,1,1,0,0,1,.72-.77,7.64,7.64,0,0,0,1.72-.72,1,1,0,0,1,1,0,1.33,1.33,0,0,0,2-1.14,1.25,1.25,0,0,0-.2-.69,1,1,0,0,1,0-1,7.89,7.89,0,0,0,.71-1.72,1,1,0,0,1,.77-.71,1.35,1.35,0,0,0,1.07-1.31,1.33,1.33,0,0,0-1.07-1.31,1,1,0,0,1-.77-.72,8.09,8.09,0,0,0-.71-1.72,1,1,0,0,1,0-1,1.25,1.25,0,0,0,.2-.69A1.34,1.34,0,0,0,43,35.88a1.38,1.38,0,0,0-.7.2,1,1,0,0,1-1,0,7.17,7.17,0,0,0-1.72-.71,1,1,0,0,1-.72-.77,1.33,1.33,0,0,0-2.62,0,1,1,0,0,1-.72.77,7.17,7.17,0,0,0-1.72.71,1,1,0,0,1-1,0,1.38,1.38,0,0,0-.7-.2,1.34,1.34,0,0,0-1.33,1.34,1.25,1.25,0,0,0,.2.69,1,1,0,0,1,0,1,7.89,7.89,0,0,0-.71,1.72,1,1,0,0,1-.77.72,1.33,1.33,0,0,0-1.07,1.31A1.35,1.35,0,0,0,29.44,44a1,1,0,0,1,.77.71,7.69,7.69,0,0,0,.71,1.72,1,1,0,0,1,0,1,1.25,1.25,0,0,0-.2.69,1.33,1.33,0,0,0,2,1.14A1,1,0,0,1,33.26,49.12Z"/><rect class="cls-2" x="25.03" y="17.27" width="9.35" height="2"/><rect class="cls-2" x="25.03" y="22.19" width="24.94" height="2"/><rect class="cls-2" x="25.03" y="25.31" width="24.94" height="2"/><rect class="cls-2" x="25.03" y="28.43" width="24.94" height="2"/><path class="cls-2" d="M36.64,45.33a1,1,0,0,1-.71-.29l-1.68-1.68L35.67,42l1,1,2.65-2.65,1.41,1.41L37.35,45A1,1,0,0,1,36.64,45.33Z"/><path class="cls-2" d="M37.48,49.53a6.88,6.88,0,1,1,6.87-6.88A6.88,6.88,0,0,1,37.48,49.53Zm0-11.75a4.88,4.88,0,1,0,4.87,4.87A4.88,4.88,0,0,0,37.48,37.78Z"/></g></g></svg>