<svg xmlns="http://www.w3.org/2000/svg" viewBox="0 0 50 50"><defs><style>.cls-1{fill:#cd2264;}</style></defs><title>AWS-Systems-Manager_Parameter-Store_light-bg</title><g id="Reference"><path class="cls-1" d="M26,43.81H3.48a1,1,0,0,1-1-1V13.75a1,1,0,0,1,1-1h30a1,1,0,0,1,1,1v9.37h-2V14.75h-28V41.81H26Z"/><path class="cls-1" d="M33.49,11H3.43a1,1,0,0,1-.81-1.58L8,1.92a1,1,0,0,1,.81-.42H28.15a1,1,0,0,1,.81.42l5.35,7.5A1,1,0,0,1,33.49,11ZM5.37,9H31.55L27.63,3.5H9.29Z"/><path class="cls-1" d="M25.06,37.25H11.93a1,1,0,0,1-1-1V19.38a1,1,0,0,1,1-1H25.06a1,1,0,0,1,1,1V36.25A1,1,0,0,1,25.06,37.25Zm-12.13-2H24.06V20.38H12.93Z"/><rect class="cls-1" x="14.7" y="23.06" width="7.5" height="2"/><rect class="cls-1" x="14.7" y="26.81" width="7.5" height="2"/><rect class="cls-1" x="14.7" y="30.56" width="7.5" height="2"/><path class="cls-1" d="M46.56,48.5H29.7a1,1,0,0,1-1-1V33.44a1,1,0,0,1,.29-.71,1,1,0,0,1,.71-.29H46.57a1,1,0,0,1,1,1V47.5A1,1,0,0,1,46.56,48.5Zm-15.86-2H45.56V34.44H30.7Z"/><path class="cls-1" d="M43.81,33.56h-2V29.71a3.88,3.88,0,0,0-3.66-4h0a3.86,3.86,0,0,0-3.69,4l0,3.89h-2l0-3.88a5.86,5.86,0,0,1,5.69-6h0a5.87,5.87,0,0,1,5.65,6Z"/><path class="cls-1" d="M38.13,41.61h0a2.8,2.8,0,0,1-2.8-2.81,2.8,2.8,0,0,1,2.8-2.8h0a2.81,2.81,0,1,1,0,5.61Zm0-3.61a.81.81,0,0,0,0,1.61h0a.79.79,0,0,0,.57-.23.8.8,0,0,0,.24-.58h0a.81.81,0,0,0-.23-.57.83.83,0,0,0-.58-.23Z"/><line class="cls-1" x1="38.13" y1="40.61" x2="38.13" y2="44.49"/><rect class="cls-1" x="37.13" y="40.61" width="2" height="3.87"/></g></svg>