<svg xmlns="http://www.w3.org/2000/svg" viewBox="0 0 75 75"><defs><style>.cls-1{fill:#cc2264;}.cls-2{fill:#fff;}</style></defs><title>AWS-Trusted-Advisor_light-bg</title><g id="Reference"><rect id="Pink_Light_BG" data-name="Pink Light BG" class="cls-1" width="75" height="75"/><g id="Product_Icon" data-name="Product Icon"><path class="cls-2" d="M58.5,48.85a4.06,4.06,0,0,0-2,.57l-3.2-3.84a26.09,26.09,0,0,0,7.59-9.29l-1.8-.88a24,24,0,0,1-43.1,0l-1.8.88a26,26,0,0,0,7.39,9.13l-3.22,3.87a4.07,4.07,0,0,0-1.82-.44,4,4,0,1,0,4,4,3.86,3.86,0,0,0-.69-2.21l3.36-4A26,26,0,0,0,36.3,50.83V56a4,4,0,1,0,2-.1v-5.1a25.74,25.74,0,0,0,13.31-4.12L55,50.85a4,4,0,0,0-.54,2,4,4,0,1,0,4-4Zm-42,6a2,2,0,1,1,2-2A2,2,0,0,1,16.5,54.85Zm23,5a2,2,0,1,1-2-2A2,2,0,0,1,39.5,59.85Zm19-5a2,2,0,1,1,2-2A2,2,0,0,1,58.5,54.85ZM50.85,16l-13-4.82a1.05,1.05,0,0,0-.7,0L24.15,16a1,1,0,0,0-.65.94V31.35a21.27,21.27,0,0,0,1.71,7.76,12.63,12.63,0,0,0,12.29,8c13.84,0,14-14.69,14-14.85V17A1,1,0,0,0,50.85,16ZM49.5,32.23A17.18,17.18,0,0,1,48,38.72c-2,4.22-5.5,6.36-10.47,6.36-11.83,0-12-13.17-12-13.73V17.66l12-4.44,12,4.44ZM46.86,18.7l-9-3.53a1.11,1.11,0,0,0-.72,0l-9,3.53a1,1,0,0,0-.64.93v13.2a1.1,1.1,0,0,0,0,.18c.08.43,2,10.5,10,10.5s9.9-10.07,10-10.5a1.1,1.1,0,0,0,0-.18V19.63A1,1,0,0,0,46.86,18.7ZM36.5,41.42c-5.16-.81-6.82-7.84-7-8.7V20.32l7-2.74Zm9-8.7c-.18.86-1.82,7.89-7,8.7V17.58l7,2.74Z"/></g></g></svg>