<svg xmlns="http://www.w3.org/2000/svg" viewBox="0 0 50 50"><defs><style>.cls-1{fill:#cd2264;}</style></defs><title>AWS-OpsWorks_Instances_light-bg</title><g id="Reference"><path class="cls-1" d="M13.75,14.75H2.5a1,1,0,0,1-1-1V2.5a1,1,0,0,1,1-1H13.75a1,1,0,0,1,1,1V13.75A1,1,0,0,1,13.75,14.75Zm-10.25-2h9.25V3.5H3.5Z"/><path class="cls-1" d="M47.5,14.75H36.25a1,1,0,0,1-1-1V2.5a1,1,0,0,1,1-1H47.5a1,1,0,0,1,1,1V13.75A1,1,0,0,1,47.5,14.75Zm-10.25-2H46.5V3.5H37.25Z"/><path class="cls-1" d="M30.62,14.75H19.38a1,1,0,0,1-1-1V2.5a1,1,0,0,1,1-1H30.62a1,1,0,0,1,1,1V13.75A1,1,0,0,1,30.62,14.75Zm-10.24-2h9.24V3.5H20.38Z"/><path class="cls-1" d="M13.75,31.62H2.5a1,1,0,0,1-1-1V19.38a1,1,0,0,1,1-1H13.75a1,1,0,0,1,1,1V30.62A1,1,0,0,1,13.75,31.62Zm-10.25-2h9.25V20.38H3.5Z"/><path class="cls-1" d="M47.5,31.62H36.25a1,1,0,0,1-1-1V19.38a1,1,0,0,1,1-1H47.5a1,1,0,0,1,1,1V30.62A1,1,0,0,1,47.5,31.62Zm-10.25-2H46.5V20.38H37.25Z"/><path class="cls-1" d="M30.62,31.62H19.38a1,1,0,0,1-1-1V19.38a1,1,0,0,1,1-1H30.62a1,1,0,0,1,1,1V30.62A1,1,0,0,1,30.62,31.62Zm-10.24-2h9.24V20.38H20.38Z"/><path class="cls-1" d="M13.75,48.5H2.5a1,1,0,0,1-1-1V36.25a1,1,0,0,1,1-1H13.75a1,1,0,0,1,1,1V47.5A1,1,0,0,1,13.75,48.5ZM3.5,46.5h9.25V37.25H3.5Z"/><path class="cls-1" d="M47.5,48.5H36.25a1,1,0,0,1-1-1V36.25a1,1,0,0,1,1-1H47.5a1,1,0,0,1,1,1V47.5A1,1,0,0,1,47.5,48.5Zm-10.25-2H46.5V37.25H37.25Z"/><path class="cls-1" d="M30.62,48.5H19.38a1,1,0,0,1-1-1V36.25a1,1,0,0,1,1-1H30.62a1,1,0,0,1,1,1V47.5A1,1,0,0,1,30.62,48.5Zm-10.24-2h9.24V37.25H20.38Z"/></g></svg>