<svg xmlns="http://www.w3.org/2000/svg" viewBox="0 0 75 75"><defs><style>.cls-1{fill:#cc2264;}.cls-2{fill:#fff;}</style></defs><title>AWS-OpsWorks_light-bg</title><g id="Reference"><rect id="Pink_Light_BG" data-name="Pink Light BG" class="cls-1" width="75" height="75"/><g id="Product_Icon" data-name="Product Icon"><path class="cls-2" d="M57.5,62.5h-6a1,1,0,0,1-1-1v-10a1,1,0,0,1,1-1h2v-2h-15v2h2a1,1,0,0,1,1,1v10a1,1,0,0,1-1,1h-6a1,1,0,0,1-1-1v-10a1,1,0,0,1,1-1h2v-2h-15v2h2a1,1,0,0,1,1,1v10a1,1,0,0,1-1,1h-6a1,1,0,0,1-1-1v-10a1,1,0,0,1,1-1h2v-3a1,1,0,0,1,1-1h16v-4h2v4h16a1,1,0,0,1,1,1v3h2a1,1,0,0,1,1,1v10A1,1,0,0,1,57.5,62.5Zm-5-2h4v-8h-4Zm-17,0h4v-8h-4Zm-17,0h4v-8h-4Zm21.58-20H34.92a1,1,0,0,1-.73-.31,1,1,0,0,1-.27-.74L34,38.1a12.23,12.23,0,0,1-2.22-.92l-.89,1a.94.94,0,0,1-.72.33,1,1,0,0,1-.73-.29l-3.66-3.65a1,1,0,0,1,0-1.45l1-.9A12,12,0,0,1,25.9,30l-1.34.08a1,1,0,0,1-1.06-1V23.91a1,1,0,0,1,1.06-1L25.9,23a11.58,11.58,0,0,1,.92-2.21l-1-.9a1,1,0,0,1-.33-.72,1,1,0,0,1,.29-.73l3.66-3.66a1,1,0,0,1,.73-.29,1,1,0,0,1,.72.33l.9,1A12.14,12.14,0,0,1,34,14.9l-.07-1.34a1,1,0,0,1,.27-.75,1,1,0,0,1,.73-.31h5.16a1,1,0,0,1,.73.31,1,1,0,0,1,.27.75L41,14.9a12.89,12.89,0,0,1,2.21.92l.9-1a1,1,0,0,1,.72-.33,1,1,0,0,1,.73.29l3.66,3.66a1,1,0,0,1,.29.73,1,1,0,0,1-.33.72l-1,.9A11.58,11.58,0,0,1,49.1,23l1.34-.07a1,1,0,0,1,.75.27,1,1,0,0,1,.31.72v5.17a1,1,0,0,1-.31.73,1.08,1.08,0,0,1-.75.27L49.1,30a12,12,0,0,1-.92,2.22l1,.9a1,1,0,0,1,0,1.45l-3.66,3.65a1,1,0,0,1-.73.29.94.94,0,0,1-.72-.33l-.89-1A12,12,0,0,1,41,38.1l.07,1.34a1,1,0,0,1-.27.74A1,1,0,0,1,40.08,40.49Zm-4.1-2h3L39,37.4a1,1,0,0,1,.78-1,9.94,9.94,0,0,0,3.16-1.31,1,1,0,0,1,1.28.18l.73.82,2.15-2.16-.82-.73a1,1,0,0,1-.18-1.28,9.79,9.79,0,0,0,1.31-3.15,1,1,0,0,1,1-.78l1.1.06V25L48.4,25a1,1,0,0,1-1-.77,10.26,10.26,0,0,0-1.31-3.15,1,1,0,0,1,.18-1.28l.82-.74-2.15-2.15-.74.82a1,1,0,0,1-1.28.18,10,10,0,0,0-3.15-1.3,1,1,0,0,1-.78-1L39,14.5H36L36,15.6a1,1,0,0,1-.78,1,10,10,0,0,0-3.15,1.3,1,1,0,0,1-1.28-.18l-.74-.83-2.15,2.16.82.74a1,1,0,0,1,.18,1.28,10.26,10.26,0,0,0-1.31,3.15,1,1,0,0,1-1,.77L25.5,25V28L26.6,28a1,1,0,0,1,1,.78,9.79,9.79,0,0,0,1.31,3.15,1,1,0,0,1-.18,1.28l-.82.73,2.15,2.16.73-.82a1,1,0,0,1,1.28-.18,10.42,10.42,0,0,0,3.16,1.31,1,1,0,0,1,.78,1ZM37.5,32.7a6.2,6.2,0,1,1,6.2-6.2A6.21,6.21,0,0,1,37.5,32.7Zm0-10.4a4.2,4.2,0,1,0,4.2,4.2A4.2,4.2,0,0,0,37.5,22.3Z"/></g></g></svg>