<svg xmlns="http://www.w3.org/2000/svg" viewBox="0 0 50 50"><defs><style>.cls-1{fill:#cd2264;}</style></defs><title>AWS-Systems-Manager_Maintenance-Windows_light-bg</title><g id="Reference"><path class="cls-1" d="M29.47,48.5H20.53a1,1,0,0,1-.73-.31,1,1,0,0,1-.27-.75l.17-2.89a20.54,20.54,0,0,1-4.77-2L13,44.74a1,1,0,0,1-.72.33,1.11,1.11,0,0,1-.74-.29L5.22,38.46a1,1,0,0,1-.29-.74A1,1,0,0,1,5.26,37l2.17-1.93a20.09,20.09,0,0,1-2-4.77l-2.9.17a1,1,0,0,1-.75-.27,1,1,0,0,1-.31-.73V20.53a1,1,0,0,1,1.06-1l2.91.17a20,20,0,0,1,2-4.76L5.26,13a1,1,0,0,1-.33-.72,1,1,0,0,1,.29-.74l6.32-6.32a1.06,1.06,0,0,1,.74-.29,1,1,0,0,1,.72.33l1.94,2.18a20,20,0,0,1,4.76-2l-.17-2.91a1,1,0,0,1,.27-.75,1,1,0,0,1,.73-.31h8.94a1,1,0,0,1,.73.31,1,1,0,0,1,.27.75L30.3,5.47a20.62,20.62,0,0,1,4.75,2l2-2.18a1,1,0,0,1,1.46,0l6.32,6.32a1,1,0,0,1,.29.74,1,1,0,0,1-.33.72l-2.18,1.94a20.47,20.47,0,0,1,2,4.76l2.9-.17a1.07,1.07,0,0,1,.75.27,1,1,0,0,1,.31.73v8.94a1,1,0,0,1-.31.73,1,1,0,0,1-.75.27l-2.9-.17a20.26,20.26,0,0,1-2,4.77L44.74,37a1,1,0,0,1,.33.72,1,1,0,0,1-.29.74l-6.32,6.32a1.08,1.08,0,0,1-.74.29,1,1,0,0,1-.72-.33l-1.93-2.17a19.71,19.71,0,0,1-4.77,2l.17,2.89a1,1,0,0,1-.27.75A1,1,0,0,1,29.47,48.5Zm-7.88-2h6.82l-.15-2.67a1,1,0,0,1,.78-1,17.87,17.87,0,0,0,5.69-2.36,1,1,0,0,1,1.28.18l1.78,2,4.83-4.83-2-1.78a1,1,0,0,1-.18-1.28A18.18,18.18,0,0,0,42.79,29a1,1,0,0,1,1-.78l2.68.15V21.59l-2.68.15a1,1,0,0,1-1-.78,18,18,0,0,0-2.36-5.68A1,1,0,0,1,40.61,14l2-1.79L37.79,7.38,36,9.39a1,1,0,0,1-1.28.18A18.46,18.46,0,0,0,29,7.22a1,1,0,0,1-.78-1l.15-2.69H21.59l.15,2.69a1,1,0,0,1-.78,1,17.8,17.8,0,0,0-5.68,2.35A1,1,0,0,1,14,9.39l-1.79-2L7.38,12.21l2,1.79a1,1,0,0,1,.18,1.28A18.24,18.24,0,0,0,7.21,21a1,1,0,0,1-1,.78L3.5,21.59v6.82l2.67-.15a1,1,0,0,1,1,.78,17.94,17.94,0,0,0,2.35,5.69A1,1,0,0,1,9.38,36l-2,1.78,4.83,4.83,1.78-2a1,1,0,0,1,1.28-.18A18.2,18.2,0,0,0,21,42.8a1,1,0,0,1,.78,1Z"/><path class="cls-1" d="M25,39.12A14.12,14.12,0,1,1,39.12,25,14.13,14.13,0,0,1,25,39.12Zm0-26.24A12.12,12.12,0,1,0,37.12,25,12.12,12.12,0,0,0,25,12.88Z"/><path class="cls-1" d="M33.44,26.94H25a1,1,0,0,1-1-1V14.69h2V24.94h7.44Z"/></g></svg>