<svg xmlns="http://www.w3.org/2000/svg" viewBox="0 0 75 75"><defs><style>.cls-1{fill:#cc2264;}.cls-2{fill:#fff;}</style></defs><title>AWS-Organizations_light-bg</title><g id="Reference"><rect id="Pink_Light_BG" data-name="Pink Light BG" class="cls-1" width="75" height="75"/><g id="Product_Icon" data-name="Product Icon"><path class="cls-2" d="M49,19,38,12.63a1,1,0,0,0-1,0L26,19a1,1,0,0,0-.5.87v12.7a1,1,0,0,0,.5.87l11,6.35a1,1,0,0,0,1,0l11-6.35a1,1,0,0,0,.5-.87V19.85A1,1,0,0,0,49,19ZM36.5,37.17,27.5,32V21.59l9,5.19Zm1-12.12-9-5.2,9-5.2,9,5.2ZM47.5,32l-9,5.19V26.78l9-5.19Z"/><path class="cls-2" d="M61.5,50.5h-4v-5a1,1,0,0,0-1-1h-18v-3h-2v3h-18a1,1,0,0,0-1,1v5h-4a1,1,0,0,0-1,1v10a1,1,0,0,0,1,1h10a1,1,0,0,0,1-1v-10a1,1,0,0,0-1-1h-4v-4h17v4h-4a1,1,0,0,0-1,1v10a1,1,0,0,0,1,1h10a1,1,0,0,0,1-1v-10a1,1,0,0,0-1-1h-4v-4h17v4h-4a1,1,0,0,0-1,1v10a1,1,0,0,0,1,1h10a1,1,0,0,0,1-1v-10A1,1,0,0,0,61.5,50.5Zm-39,2v8h-8v-8Zm19,0v8h-8v-8Zm19,8h-8v-8h8Z"/></g></g></svg>