<svg xmlns="http://www.w3.org/2000/svg" viewBox="0 0 50 50"><defs><style>.cls-1{fill:#cd2264;}</style></defs><title>AWS-OpsWorks_Resources_light-bg</title><g id="Reference"><path class="cls-1" d="M25,48.65a1,1,0,0,1-.5-.14L4.89,37.19a1,1,0,0,1-.5-.87V13.68a1,1,0,0,1,.5-.87L24.5,1.49a1,1,0,0,1,1,0L45.11,12.81a1,1,0,0,1,.5.87V36.32a1,1,0,0,1-.5.87L25.5,48.51A1,1,0,0,1,25,48.65ZM6.39,35.75,25,46.49,43.61,35.75V14.25L25,3.51,6.39,14.25Z"/><path class="cls-1" d="M25,26.48a1,1,0,0,1-.5-.14L4.89,15l1-1.73L25,24.32l19.11-11,1,1.73L25.5,26.34A1,1,0,0,1,25,26.48Z"/><rect class="cls-1" x="24" y="25.79" width="2" height="21.56"/></g></svg>