<svg xmlns="http://www.w3.org/2000/svg" viewBox="0 0 50 50"><defs><style>.cls-1{fill:#cd2264;}</style></defs><title>AWS-Systems-Manager_Automation_light-bg</title><g id="Reference"><path class="cls-1" d="M29,48H20a1,1,0,0,1-.73-.31,1,1,0,0,1-.27-.75l.17-2.89a20.54,20.54,0,0,1-4.77-2L12.5,44.24a1,1,0,0,1-.72.33,1.08,1.08,0,0,1-.74-.29L4.72,38a1,1,0,0,1-.29-.74,1,1,0,0,1,.33-.72l2.17-1.93A20.09,20.09,0,0,1,5,29.8L2.06,30A1,1,0,0,1,1,29V20a1,1,0,0,1,.31-.73A1,1,0,0,1,2.06,19L5,19.2a20,20,0,0,1,2-4.76L4.76,12.5a1,1,0,0,1-.33-.72A1,1,0,0,1,4.72,11L11,4.72a1.1,1.1,0,0,1,.74-.29,1,1,0,0,1,.72.33l1.94,2.18A20,20,0,0,1,19.2,5L19,2.06a1,1,0,0,1,.27-.75A1,1,0,0,1,20,1H29a1,1,0,0,1,.73.31,1,1,0,0,1,.27.75L29.8,5a20.62,20.62,0,0,1,4.75,2l2-2.18a1,1,0,0,1,.72-.33,1,1,0,0,1,.74.29L44.28,11a1,1,0,0,1,.29.74,1,1,0,0,1-.33.72l-2.18,1.94a20.47,20.47,0,0,1,2,4.76l2.9-.17a1,1,0,0,1,.75.27A1,1,0,0,1,48,20V29a1,1,0,0,1-.31.73,1,1,0,0,1-.75.27L44,29.8a20.26,20.26,0,0,1-2,4.77l2.17,1.93a1,1,0,0,1,.33.72,1,1,0,0,1-.29.74L38,44.28a1.06,1.06,0,0,1-.74.29,1,1,0,0,1-.72-.33l-1.93-2.17a19.71,19.71,0,0,1-4.77,2L30,46.94a1,1,0,0,1-.27.75A1,1,0,0,1,29,48Zm-7.88-2h6.82l-.15-2.67a1,1,0,0,1,.78-1,17.87,17.87,0,0,0,5.69-2.36,1,1,0,0,1,1.28.18l1.78,2,4.83-4.83-2-1.78a1,1,0,0,1-.18-1.28,18.18,18.18,0,0,0,2.35-5.69,1,1,0,0,1,1-.78l2.68.15V21.09l-2.68.15a1,1,0,0,1-1-.78,18,18,0,0,0-2.36-5.68,1,1,0,0,1,.18-1.28l2-1.79L37.29,6.88l-1.79,2a1,1,0,0,1-1.29.18,18.31,18.31,0,0,0-5.67-2.35,1,1,0,0,1-.78-1L27.91,3H21.09l.15,2.69a1,1,0,0,1-.78,1,17.8,17.8,0,0,0-5.68,2.35,1,1,0,0,1-1.28-.18l-1.79-2L6.88,11.71l2,1.79a1,1,0,0,1,.18,1.28,18.24,18.24,0,0,0-2.36,5.68,1,1,0,0,1-1,.78L3,21.09v6.82l2.67-.15a1,1,0,0,1,1,.78,17.85,17.85,0,0,0,2.35,5.69,1,1,0,0,1-.18,1.28l-2,1.78,4.83,4.83,1.78-2a1,1,0,0,1,1.28-.18,18.2,18.2,0,0,0,5.69,2.36,1,1,0,0,1,.78,1Z"/><path class="cls-1" d="M24.57,36.28a11.73,11.73,0,0,1-11.46-9l2-.46a9.78,9.78,0,0,0,19.09-.32l2,.4A11.81,11.81,0,0,1,24.57,36.28Z"/><path class="cls-1" d="M15,22.54l-2-.4a11.79,11.79,0,0,1,22.86-.94L34,21.76a9.79,9.79,0,0,0-19,.78Z"/><polygon class="cls-1" points="30.73 20.12 31.11 19.39 34.71 21.21 36.27 17.48 37.03 17.8 35.13 22.34 30.73 20.12"/><path class="cls-1" d="M13.33,34.05l-2-.41,1.44-6.88A1,1,0,0,1,13.94,26l7.19,1.13-.31,2-6.25-1Z"/><path class="cls-1" d="M35.34,23.34a1,1,0,0,1-.4-.08l-6.65-3,.82-1.82L34.88,21l2.76-5.41,1.78.91L36.24,22.8A1,1,0,0,1,35.34,23.34Z"/></g></svg>