<svg xmlns="http://www.w3.org/2000/svg" viewBox="0 0 75 75"><defs><style>.cls-1{fill:#cc2264;}.cls-2{fill:#fff;}</style></defs><title>AWS-Auto-Scaling_light-bg</title><g id="Reference"><rect id="Pink_Light_BG" data-name="Pink Light BG" class="cls-1" width="75" height="75"/><g id="Product_Icon" data-name="Product Icon"><path class="cls-2" d="M36.5,16v9.45h2V16l4.66,4.65,1.41-1.41-6.36-6.37a1,1,0,0,0-1.42,0l-6.36,6.37,1.41,1.41Z"/><path class="cls-2" d="M38.5,59V49.43h-2V59l-4.66-4.66-1.41,1.42,6.36,6.36a1,1,0,0,0,1.42,0l6.36-6.36-1.41-1.42Z"/><path class="cls-2" d="M18.77,30.42l-1.41,1.42L22,36.43H12.5v2h9.59l-4.73,4.72,1.41,1.41,6.37-6.36a1,1,0,0,0,0-1.41Z"/><path class="cls-2" d="M62.5,36.43H53.05l4.59-4.59-1.42-1.42-6.36,6.37a1,1,0,0,0,0,1.41l6.36,6.36,1.42-1.41-4.73-4.72H62.5Z"/><path class="cls-2" d="M46,32.05l-8-4.5a1,1,0,0,0-1,0l-8,4.5a1,1,0,0,0-.51.87v9a1,1,0,0,0,.51.87l8,4.49a.94.94,0,0,0,.48.13.91.91,0,0,0,.48-.13l8-4.49a1,1,0,0,0,.51-.87v-9A1,1,0,0,0,46,32.05ZM37.5,29.59l6,3.38-6,3.48-6-3.48Zm-7,5.12,6,3.47v6.5l-6-3.37Zm8,10V38.19l6-3.48v6.6Z"/></g></g></svg>