<svg xmlns="http://www.w3.org/2000/svg" viewBox="0 0 50 50"><defs><style>.cls-1{fill:#cd2264;}</style></defs><title>AWS-OpsWorks_Deployments_light-bg</title><g id="Reference"><path class="cls-1" d="M13.75,49a1,1,0,0,1-.71-.29l-7.5-7.5L7,39.76l6.79,6.79,6.79-6.79L22,41.18l-7.5,7.5A1,1,0,0,1,13.75,49Z"/><path class="cls-1" d="M36.25,49a1,1,0,0,1-.71-.29L28,41.18l1.42-1.42,6.79,6.79L43,39.76l1.42,1.42L37,48.68A1,1,0,0,1,36.25,49Z"/><path class="cls-1" d="M14.75,48h-2V27.61A2.77,2.77,0,0,1,14,25.32l10-6.75V2h2V19.1a1,1,0,0,1-.44.83L15.11,27a.75.75,0,0,0-.36.63Z"/><path class="cls-1" d="M37.25,48h-2V27.61a.75.75,0,0,0-.36-.63l-10.45-7,1.12-1.66L36,25.32a2.77,2.77,0,0,1,1.24,2.29Z"/></g></svg>