<svg xmlns="http://www.w3.org/2000/svg" viewBox="0 0 50 50"><defs><style>.cls-1{fill:#cd2264;}</style></defs><title>AWS-Trusted-Advisor_Checklist-Performance_light-bg</title><g id="Reference"><path class="cls-1" d="M23.12,38.19H2.5a1,1,0,0,1-1-1V2.5a1,1,0,0,1,1-1H30.62a1,1,0,0,1,1,1V23.12h-2V3.5H3.5V36.19H23.12Z"/><rect class="cls-1" x="15.63" y="9" width="12.19" height="2"/><rect class="cls-1" x="15.63" y="19.31" width="12.19" height="2"/><rect class="cls-1" x="15.63" y="28.69" width="7.5" height="2"/><path class="cls-1" d="M8.31,12.6a1,1,0,0,1-.7-.29l-3-3L6,7.92l2.19,2.17,3.81-5,1.59,1.21-4.5,5.94a1,1,0,0,1-.73.39Z"/><path class="cls-1" d="M8.31,22.6a1,1,0,0,1-.7-.29l-3-3L6,17.92l2.19,2.17,3.81-5,1.59,1.21-4.5,5.94a1,1,0,0,1-.73.39Z"/><path class="cls-1" d="M8.31,32.6a1,1,0,0,1-.7-.29l-3-3L6,27.92l2.19,2.17,3.81-5,1.59,1.21-4.5,5.94a1,1,0,0,1-.73.39Z"/><path class="cls-1" d="M47.5,48.5H25.94a1,1,0,0,1-1-1V25.94a1,1,0,0,1,1-1H47.5a1,1,0,0,1,1,1V47.5A1,1,0,0,1,47.5,48.5Zm-20.56-2H46.5V26.94H26.94Z"/><path class="cls-1" d="M29.3,39.89l-1.1-1.66,5.62-3.75a1,1,0,0,1,1.07,0l3.8,2.28,4.19-7.54,1.74,1-4.68,8.44a1,1,0,0,1-.62.48,1,1,0,0,1-.77-.11L34.4,36.5Z"/><rect class="cls-1" x="28.69" y="40.94" width="2" height="3.75"/><rect class="cls-1" x="33.38" y="39.06" width="2" height="5.63"/><rect class="cls-1" x="38.06" y="40.94" width="2" height="3.75"/><rect class="cls-1" x="42.75" y="36.25" width="2" height="8.44"/><path class="cls-1" d="M44.05,32.66,43.49,30l-2.69.56-.4-2,3.67-.76a1,1,0,0,1,1.18.78L46,32.26Z"/></g></svg>