<svg xmlns="http://www.w3.org/2000/svg" viewBox="0 0 50 50"><defs><style>.cls-1{fill:#cd2264;}</style></defs><title>AWS-Systems-Manager_State-Manager_light-bg</title><g id="Reference"><path class="cls-1" d="M42.05,48.5H8A6.45,6.45,0,0,1,1.5,42.05V8A6.45,6.45,0,0,1,8,1.5h34.1A6.45,6.45,0,0,1,48.5,8v34.1A6.45,6.45,0,0,1,42.05,48.5ZM8,3.5A4.46,4.46,0,0,0,3.5,8v34.1A4.46,4.46,0,0,0,8,46.5h34.1a4.46,4.46,0,0,0,4.45-4.45V8A4.46,4.46,0,0,0,42.05,3.5Z"/><path class="cls-1" d="M41.41,12.88a3.35,3.35,0,1,1,3.34-3.35A3.35,3.35,0,0,1,41.41,12.88Zm0-4.69a1.35,1.35,0,1,0,1.34,1.34A1.35,1.35,0,0,0,41.41,8.19Z"/><path class="cls-1" d="M33,12.88a3.35,3.35,0,1,1,3.34-3.35A3.35,3.35,0,0,1,33,12.88Zm0-4.69a1.35,1.35,0,1,0,1.34,1.34A1.35,1.35,0,0,0,33,8.19Z"/><path class="cls-1" d="M26.88,12.88H7.19a1,1,0,0,1-1-1V8.12a1,1,0,0,1,1-1H26.88a1,1,0,0,1,1,1v3.76A1,1,0,0,1,26.88,12.88Zm-18.69-2H25.88V9.12H8.19Z"/><path class="cls-1" d="M16.56,43.81H5.31a1,1,0,0,1-1-1V30.62a1,1,0,0,1,1-1H16.56a1,1,0,0,1,1,1V42.81A1,1,0,0,1,16.56,43.81Zm-10.25-2h9.25V31.62H6.31Z"/><path class="cls-1" d="M30.62,43.81H19.38a1,1,0,0,1-1-1V19.38a1,1,0,0,1,1-1H30.62a1,1,0,0,1,1,1V42.81A1,1,0,0,1,30.62,43.81Zm-10.24-2h9.24V20.38H20.38Z"/><path class="cls-1" d="M44.69,43.81H33.44a1,1,0,0,1-1-1V23.12a1,1,0,0,1,1-1H44.69a1,1,0,0,1,1,1V42.81A1,1,0,0,1,44.69,43.81Zm-10.25-2h9.25V24.12H34.44Z"/><path class="cls-1" d="M10.94,40.06a3.34,3.34,0,1,1,3.34-3.34A3.35,3.35,0,0,1,10.94,40.06Zm0-4.68a1.34,1.34,0,1,0,1.34,1.34A1.35,1.35,0,0,0,10.94,35.38Z"/><path class="cls-1" d="M27.81,40.06H22.19a1,1,0,0,1-.86-1.51l2.81-4.69a1,1,0,0,1,1.72,0l2.81,4.69a1,1,0,0,1-.86,1.51Zm-3.86-2h2.1L25,36.32Z"/><path class="cls-1" d="M41.88,40.06H36.25a1,1,0,0,1-1-1V33.44a1,1,0,0,1,1-1h5.63a1,1,0,0,1,1,1v5.62A1,1,0,0,1,41.88,40.06Zm-4.63-2h3.63V34.44H37.25Z"/></g></svg>