<svg height="50" viewBox="0 0 50 50" width="50" xmlns="http://www.w3.org/2000/svg"><g fill="none"><g stroke="#cd2264" stroke-miterlimit="10" stroke-width="2"><path d="m31.77 4.14a20 20 0 0 0 -21.63.06"/><path d="m2.48 13.45a19.77 19.77 0 0 0 -1.48 7.55 20 20 0 1 0 36.86-10.77"/><path d="m8 5.84a20 20 0 0 0 -4.38 5.35"/><path d="m38 31 9.39 8.72a5.22 5.22 0 0 1 -.1 7.36 5.21 5.21 0 0 1 -7.37.1l-8.92-8.25"/><path d="m13.19 15.19 8 8 18-22"/><path d="m21 1v7"/><path d="m21 34v7"/><path d="m1 21h7"/><path d="m34 21h7"/></g><path d="m0 0h50v50h-50z"/><path d="m34 41 7-7" stroke="#cd2264" stroke-miterlimit="10" stroke-width="2"/></g></svg>