<svg xmlns="http://www.w3.org/2000/svg" viewBox="0 0 75 75"><defs><style>.cls-1{fill:#d86613;}.cls-2{fill:#fff;}</style></defs><title>Amazon-Managed-Blockchain_light-bg</title><g id="Working"><rect id="Orange_Light_BG" data-name="Orange Light BG" class="cls-1" width="75" height="75"/><g id="Product_Icon" data-name="Product Icon"><path class="cls-2" d="M20.85,41H17.37a1.76,1.76,0,0,1-1.75-1.75V35.73A1.76,1.76,0,0,1,17.37,34h3.48a1.75,1.75,0,0,1,1.75,1.75v3.48A1.75,1.75,0,0,1,20.85,41Zm-3.48-5.48a.25.25,0,0,0-.25.25v3.48a.25.25,0,0,0,.25.25h3.48a.25.25,0,0,0,.25-.25V35.73a.25.25,0,0,0-.25-.25Z"/><path class="cls-2" d="M34.09,41H30.61a1.76,1.76,0,0,1-1.75-1.75V35.73A1.76,1.76,0,0,1,30.61,34h3.48a1.75,1.75,0,0,1,1.75,1.75v3.48A1.75,1.75,0,0,1,34.09,41Zm-3.48-5.48a.25.25,0,0,0-.25.25v3.48a.25.25,0,0,0,.25.25h3.48a.25.25,0,0,0,.25-.25V35.73a.25.25,0,0,0-.25-.25Z"/><path class="cls-2" d="M47.34,41H43.86a1.75,1.75,0,0,1-1.75-1.75V35.77A1.75,1.75,0,0,1,43.86,34h3.48a1.74,1.74,0,0,1,1.75,1.74v3.48A1.75,1.75,0,0,1,47.34,41Zm-3.48-5.47a.25.25,0,0,0-.25.24v3.48a.25.25,0,0,0,.25.25h3.48a.25.25,0,0,0,.25-.25V35.77a.25.25,0,0,0-.25-.24Z"/><path class="cls-2" d="M50.24,43.68h-9.3a1.53,1.53,0,0,1-1.53-1.53V40h-.85v2.19A1.53,1.53,0,0,1,37,43.68H27.73a1.53,1.53,0,0,1-1.54-1.53V39.93h-.9v2.21a1.52,1.52,0,0,1-1.53,1.53h-9.3a1.53,1.53,0,0,1-1.53-1.53v-9.3a1.53,1.53,0,0,1,1.53-1.53h9.3a1.52,1.52,0,0,1,1.53,1.53v2.68h.9V32.85a1.53,1.53,0,0,1,1.54-1.53H37a1.53,1.53,0,0,1,1.54,1.53v2.68h.85V32.85a1.53,1.53,0,0,1,1.53-1.53h9.3a1.53,1.53,0,0,1,1.54,1.53v1.68h4.61V36H50.28V32.85l-9.34,0,0,4.21H37.06V32.85l-9.33,0,0,4.21h-3.9V32.85l-9.33,0,0,9.33,9.33,0,0-3.73,3.9,0v3.73l9.33,0,0-3.72h3.85v3.7l9.33,0,0-3.46H60.77v1.5h-9v1.93A1.53,1.53,0,0,1,50.24,43.68Z"/><polygon class="cls-2" points="55.32 38.03 54.26 36.97 55.84 35.39 54.11 33.67 55.17 32.6 57.96 35.39 55.32 38.03"/><polygon class="cls-2" points="59.44 42.18 58.37 41.12 59.95 39.54 58.23 37.81 59.28 36.75 62.07 39.54 59.44 42.18"/><path class="cls-2" d="M32.43,53.33A15.66,15.66,0,0,1,19,45.78L20.26,45a14.26,14.26,0,0,0,24.51-.29l1.3.75A15.82,15.82,0,0,1,32.43,53.33Z"/><path class="cls-2" d="M20.27,30.29,19,29.54a15.82,15.82,0,0,1,13.64-7.87,15.64,15.64,0,0,1,13.45,7.55L44.78,30a14.15,14.15,0,0,0-12.17-6.83A14.3,14.3,0,0,0,20.27,30.29Z"/></g></g></svg>