<svg xmlns="http://www.w3.org/2000/svg" width="50" height="50" viewBox="0 0 50 50"><title>Blockchain_Resource-Icon_light-bg</title><g id="Working"><path d="M13,27.55H8.9a.5.5,0,0,1-.5-.5V23a.5.5,0,0,1,.5-.5H13a.5.5,0,0,1,.5.5v4.1A.5.5,0,0,1,13,27.55Zm-3.6-1h3.1v-3.1H9.4Zm34.4,4.37H34.4a1.22,1.22,0,0,1-1.22-1.22V26.58H30.92V29.7a1.22,1.22,0,0,1-1.22,1.22H20.3a1.22,1.22,0,0,1-1.22-1.22V26.58H16.82V29.7a1.22,1.22,0,0,1-1.22,1.22H6.2A1.22,1.22,0,0,1,5,29.7V20.3A1.22,1.22,0,0,1,6.2,19.08h9.4a1.22,1.22,0,0,1,1.22,1.22v3.12h2.26V20.3a1.22,1.22,0,0,1,1.22-1.22h9.4a1.22,1.22,0,0,1,1.22,1.22v3.12h2.26V20.3a1.22,1.22,0,0,1,1.22-1.22h9.4A1.22,1.22,0,0,1,45,20.3v9.4A1.22,1.22,0,0,1,43.8,30.92ZM29.92,25.58h4.26V29.7a.22.22,0,0,0,.22.22h9.4A.22.22,0,0,0,44,29.7V20.3a.22.22,0,0,0-.22-.22H34.4a.22.22,0,0,0-.22.22v4.12H29.92V20.3a.22.22,0,0,0-.22-.22H20.3a.22.22,0,0,0-.22.22v4.12H15.82V20.3a.22.22,0,0,0-.22-.22H6.2A.22.22,0,0,0,6,20.3v9.4a.22.22,0,0,0,.22.22h9.4a.22.22,0,0,0,.22-.22V25.58h4.26V29.7a.22.22,0,0,0,.22.22h9.4a.22.22,0,0,0,.22-.22Zm-2.87,2H23a.5.5,0,0,1-.5-.5V23a.5.5,0,0,1,.5-.5h4.1a.5.5,0,0,1,.5.5v4.1A.5.5,0,0,1,27.05,27.55Zm-3.6-1h3.1v-3.1h-3.1Zm17.86,1h-4.1a.5.5,0,0,1-.5-.5V23a.5.5,0,0,1,.5-.5h4.1a.5.5,0,0,1,.5.5v4.1A.5.5,0,0,1,41.31,27.55Zm-3.6-1h3.1v-3.1h-3.1Z" style="fill:#d86613"/></g></svg>