<svg xmlns="http://www.w3.org/2000/svg" width="75" height="75" viewBox="0 0 75 75"><title>AWS-Braket_light-bg</title><g id="Example"><rect id="Green_Light_BG" data-name="Green Light BG" width="75" height="75" style="fill:#d86613"/><g id="_48px_Live_-_Product" data-name="48px Live - Product"><path d="M20.54,53.46a1,1,0,0,0,1,1h3.69c.93-.58,1.93-1.26,3-2H22.54V22.54H52.46v5.68c.74-1,1.41-2,2-3V21.54a1,1,0,0,0-1-1h-4.7V15.7h-2v4.84h-3.7V15.7h-2v4.84h-3.7V15.7h-2v4.84h-3.7V15.7h-2v4.84H26V15.7H24v4.84H21.54a1,1,0,0,0-1,1V24H15.7v2h4.84v3.7H15.7v2h4.84v3.7H15.7v2h4.84v3.7H15.7v2h4.84v3.7H15.7v2h4.84Z" style="fill:#fff"/><path d="M54.46,34.7c-.65.81-1.31,1.63-2,2.46v15.3H37.13c-.81.67-1.63,1.34-2.46,2h.69V59.3h2V54.46h3.7V59.3h2V54.46h3.7V59.3h2V54.46h4.7a1,1,0,0,0,1-1v-4.7H59.3v-2H54.46v-3.7H59.3v-2H54.46v-3.7H59.3v-2H54.46Z" style="fill:#fff"/><path d="M60.77,14.22c-1.37-1.38-3.83-1.34-7.31.1v2.19c2.92-1.33,5.11-1.67,5.9-.87,1.75,1.75-1.87,10.65-13.11,22.92a5.55,5.55,0,0,0-8.61,4.64,5.61,5.61,0,0,0,.91,3C26.29,57.49,17.4,61.12,15.63,59.36c-.64-.64-.66-2.52.87-5.9H14.33c-1.43,3.47-1.49,5.94-.11,7.32a3.8,3.8,0,0,0,2.8,1c5.22,0,14.57-6.44,22.92-14.09A5.55,5.55,0,0,0,47.7,40C57,29.77,64.58,18,60.77,14.22ZM43.2,46.76a3.56,3.56,0,1,1,3.56-3.56A3.56,3.56,0,0,1,43.2,46.76Z" style="fill:#fff"/></g></g></svg>