<svg xmlns="http://www.w3.org/2000/svg" viewBox="0 0 75 75"><defs><style>.cls-1{fill:#3b48cc;}.cls-2{fill:#fff;}</style></defs><title>Amazon-Connect_light-bg</title><g id="Reference"><rect id="Blue_Light_BG" data-name="Blue Light BG" class="cls-1" width="75" height="75"/><g id="Product_Icon" data-name="Product Icon"><path class="cls-2" d="M54.7,29.3c-.21-3.15-1.81-5.49-4.36-6.33a6.13,6.13,0,0,0-5.71,1,14.82,14.82,0,0,0-3-4.43,13.09,13.09,0,0,0-14.79-2.94A13.78,13.78,0,0,0,19,28.81l0,.73a9.13,9.13,0,0,0-6.55,9.22,10.21,10.21,0,0,0,4.86,8.93,5.51,5.51,0,0,0,3.14.73l9,.08v10a1,1,0,0,0,.55.89,1,1,0,0,0,1-.08L45.83,48.5h7.74c.09,0,8.93-.77,8.93-9.66C62.5,32.05,57.27,29.93,54.7,29.3ZM53.5,46.5h-8a1,1,0,0,0-.59.19L31.5,56.53v-9a1,1,0,0,0-1-1h-10a3.76,3.76,0,0,1-2.07-.5,8.16,8.16,0,0,1-3.93-7.24,7.27,7.27,0,0,1,5.84-7.52,1,1,0,0,0,.75-1L21,28.75a11.81,11.81,0,0,1,6.6-10.28,11.77,11.77,0,0,1,4.6-1,11.52,11.52,0,0,1,8,3.5,13.48,13.48,0,0,1,3.12,5.13,1,1,0,0,0,.8.66,1,1,0,0,0,.95-.39,4.15,4.15,0,0,1,4.64-1.52c1.9.63,3,2.5,3,5.09a1,1,0,0,0,.81,1.14c2.1.36,7,1.83,7,7.74C60.5,45.86,53.71,46.48,53.5,46.5Z"/><path class="cls-2" d="M48,29.5A3.5,3.5,0,0,0,44.5,33,3.37,3.37,0,0,0,45,34.85l-3.53,4A3.4,3.4,0,0,1,43,40.2l3.55-4A3.26,3.26,0,0,0,48,36.5a3.5,3.5,0,0,0,0-7Zm0,5A1.5,1.5,0,1,1,49.5,33,1.5,1.5,0,0,1,48,34.5Z"/><path class="cls-2" d="M43,40.2a3.4,3.4,0,0,0-1.48-1.35A3.35,3.35,0,0,0,40,38.5a3.31,3.31,0,0,0-1,.14l-3.47-5.29A3.43,3.43,0,0,0,36.5,31a3.5,3.5,0,0,0-7,0A3.4,3.4,0,0,0,30,32.7l-4.27,4.23A3.5,3.5,0,1,0,27.5,40a3.4,3.4,0,0,0-.42-1.65l4.29-4.26a3.44,3.44,0,0,0,2.49.3l3.5,5.33A3.43,3.43,0,0,0,36.5,42a3.5,3.5,0,0,0,7,0A3.37,3.37,0,0,0,43,40.2ZM24,41.5A1.5,1.5,0,1,1,25.5,40,1.5,1.5,0,0,1,24,41.5Zm9-9A1.5,1.5,0,1,1,34.5,31,1.5,1.5,0,0,1,33,32.5Zm7,11A1.5,1.5,0,1,1,41.5,42,1.5,1.5,0,0,1,40,43.5Z"/></g></g></svg>