<svg xmlns="http://www.w3.org/2000/svg" viewBox="0 0 50 50"><defs><style>.cls-1{fill:#3b48cc;}</style></defs><title>Amazon-Simple-Email-Service-SES_Email_light-bg</title><g id="Working"><path class="cls-1" d="M47.12,44.93h-45a1,1,0,0,1-1-1v-22h2v21h43V14H18.78V12H47.12a1,1,0,0,1,1,1V43.93A1,1,0,0,1,47.12,44.93Z"/><path class="cls-1" d="M24.62,32.74a1,1,0,0,1-.64-.23L11.91,22.44l1.28-1.54,11.43,9.54L46.48,12.22l1.29,1.54L25.27,32.51A1.05,1.05,0,0,1,24.62,32.74Z"/><rect class="cls-1" x="36.84" y="24.11" width="2" height="24.16" transform="translate(-14.19 42.09) rotate(-50.19)"/><rect class="cls-1" x="-0.68" y="35.19" width="24.16" height="2" transform="translate(-20.53 15.7) rotate(-39.83)"/><path class="cls-1" d="M8.3,18.92a7.78,7.78,0,0,0,2.75-.53v1.74a6.58,6.58,0,0,1-3,.66,6.62,6.62,0,0,1-3.5-.88,5.63,5.63,0,0,1-2.22-2.52,9.35,9.35,0,0,1-.76-3.92A11.07,11.07,0,0,1,2.73,8.32,8.59,8.59,0,0,1,5.79,4.87,7.64,7.64,0,0,1,10,3.65a7.25,7.25,0,0,1,3.57.83,5.5,5.5,0,0,1,2.26,2.39,8.24,8.24,0,0,1,.77,3.69A8.89,8.89,0,0,1,16,13.9a5.27,5.27,0,0,1-1.54,2.25,3.35,3.35,0,0,1-2.14.79,2.67,2.67,0,0,1-1.22-.28,2.13,2.13,0,0,1-.84-.79,3.65,3.65,0,0,1-1.1.81A2.72,2.72,0,0,1,8,17a2.1,2.1,0,0,1-1.85-.93,4.71,4.71,0,0,1-.63-2.66,8.58,8.58,0,0,1,.51-3A5.65,5.65,0,0,1,7.34,8.24,2.42,2.42,0,0,1,9,7.49a2.17,2.17,0,0,1,1.79,1L11,7.78h1.83L12,13.9a3.09,3.09,0,0,0,0,.55.9.9,0,0,0,.16.57.52.52,0,0,0,.43.2,1.29,1.29,0,0,0,1-.68,5.16,5.16,0,0,0,.75-1.72,8.87,8.87,0,0,0,.27-2.24,5.38,5.38,0,0,0-1.19-3.77A4.52,4.52,0,0,0,9.93,5.52,5.19,5.19,0,0,0,6.74,6.58,6.89,6.89,0,0,0,4.56,9.43a9.84,9.84,0,0,0-.77,4A6.25,6.25,0,0,0,5,17.52,4.11,4.11,0,0,0,8.3,18.92Zm.61-3.74a1.34,1.34,0,0,0,1-.49,1.23,1.23,0,0,1,0-.19v-.16a4.78,4.78,0,0,1,0-.71l.55-4a1.69,1.69,0,0,0-.9-.35c-.48,0-.87.37-1.19,1.1a6.86,6.86,0,0,0-.49,2.8C7.92,14.51,8.25,15.18,8.91,15.18Z"/></g></svg>