<svg xmlns="http://www.w3.org/2000/svg" xmlns:xlink="http://www.w3.org/1999/xlink" viewBox="0 0 75 75"><defs><style>.cls-1{fill:url(#BlueGradient);}.cls-2{fill:#fff;}</style><linearGradient id="BlueGradient" x1="427.47" y1="-484.53" x2="533.53" y2="-378.47" gradientTransform="translate(469 518) rotate(-90)" gradientUnits="userSpaceOnUse"><stop offset="0" stop-color="#2e27ad"/><stop offset="1" stop-color="#527fff"/></linearGradient></defs><title>Amazon-Pinpoint</title><g id="Reference"><rect id="Blue_Gradient" data-name="Blue Gradient" class="cls-1" width="75" height="75"/><g id="Icon_Test" data-name="Icon Test"><path class="cls-2" d="M37.5,61.5a24,24,0,1,1,9.67-46l-.81,1.83A22,22,0,1,0,59.5,37.5a21.53,21.53,0,0,0-1.85-8.82l1.83-.81a23.59,23.59,0,0,1,2,9.63A24,24,0,0,1,37.5,61.5Z"/><path class="cls-2" d="M53.8,15.42A5.82,5.82,0,0,0,48,21.23,5.68,5.68,0,0,0,49,24.55L47.68,25.9a15.36,15.36,0,1,0,1.42,1.41L50.45,26A5.74,5.74,0,0,0,53.8,27a5.81,5.81,0,1,0,0-11.62ZM51,37.5a13.48,13.48,0,1,1-4.69-10.19l-3.9,3.89a8,8,0,1,0,1.42,1.42l3.9-3.89A13.34,13.34,0,0,1,51,37.5Zm-7.49,0a6,6,0,1,1-2.53-4.87l-4.16,4.15,1.42,1.42,4.16-4.15A5.89,5.89,0,0,1,43.46,37.5ZM53.8,25a3.81,3.81,0,1,1,3.81-3.81A3.82,3.82,0,0,1,53.8,25Z"/></g></g></svg>