<svg xmlns="http://www.w3.org/2000/svg" width="75" height="75" viewBox="0 0 75 75"><title>AWS-Professional-Services_light-bg</title><g id="Example"><rect id="Green_Light_BG" data-name="Green Light BG" width="75" height="75" style="fill:#3b48cc"/><path id="_48x" data-name="48x" d="M31,37.42c.5,0,1,.09,1.53.09a13.13,13.13,0,0,0,1.54-.1,18.88,18.88,0,0,1,8.44,2.84c.58.37,1.16.78,1.72,1.21l1.47-1.86a22.35,22.35,0,0,0-1.92-1.36,21.13,21.13,0,0,0-5-2.3,13.24,13.24,0,1,0-12.53,0A23,23,0,0,0,10.47,58.07v1.19H39V56.88H12.88C13.44,46.53,21.22,38.2,31,37.42ZM21.62,24.27A10.87,10.87,0,1,1,34,35Q33.22,35,32.45,35c-.46,0-.91,0-1.36.08A10.88,10.88,0,0,1,21.62,24.27ZM64.47,47.76a1.18,1.18,0,0,0-1-.81l-8-1.16-3.58-7.25a1.24,1.24,0,0,0-2.13,0l-3.58,7.25-8,1.16a1.18,1.18,0,0,0-1,.81,1.2,1.2,0,0,0,.3,1.22l5.79,5.64-1.36,8a1.18,1.18,0,0,0,1.72,1.25l7.16-3.76L58,63.84a1.25,1.25,0,0,0,.55.14,1.17,1.17,0,0,0,.7-.23,1.2,1.2,0,0,0,.48-1.16l-1.37-8L64.17,49A1.2,1.2,0,0,0,64.47,47.76Zm-8.2,5.59a1.22,1.22,0,0,0-.34,1.06L57,60.62l-5.58-2.94a1.2,1.2,0,0,0-.55-.13,1.24,1.24,0,0,0-.56.13l-5.58,2.94,1.07-6.21a1.22,1.22,0,0,0-.34-1.06L40.94,49l6.24-.9a1.21,1.21,0,0,0,.9-.65l2.79-5.65,2.79,5.65a1.18,1.18,0,0,0,.89.65l6.24.9Z" style="fill:#fff"/></g></svg>