<svg xmlns="http://www.w3.org/2000/svg" xmlns:xlink="http://www.w3.org/1999/xlink" width="75" height="75" viewBox="0 0 75 75"><defs><linearGradient id="Blue_Gradient" x1="-20.83" y1="131.69" x2="-20.83" y2="-18.31" gradientTransform="translate(92.31 12.14) rotate(45)" gradientUnits="userSpaceOnUse"><stop offset="0" stop-color="#2e27ad"/><stop offset="1" stop-color="#527fff"/></linearGradient></defs><title>AWS-IQ</title><g id="Example"><rect id="Green_Gradient" data-name="Green Gradient" width="75" height="75" style="fill:url(#Blue_Gradient)"/></g><g id="Working"><path d="M24.87,50.64l6.78-5.7,1.43,1.71L25,53.49l-5.32-4L21,47.74Zm-9.19-12H13.44a11.79,11.79,0,0,1,7.84-11.25,7.79,7.79,0,1,1,8.87.05,12.82,12.82,0,0,1,2.07,1l.46.31-1.27,1.83L31,30.32a10,10,0,0,0-15.35,8.29ZM25.74,26.55A5.56,5.56,0,1,0,20.19,21,5.57,5.57,0,0,0,25.74,26.55ZM61.56,55.48H36.69L25.74,61.8,14.6,55.37V42.49l11.14-6.43,8.42,4.86a16.43,16.43,0,0,1,5.49-3.12,10.17,10.17,0,1,1,10.2,0,16.19,16.19,0,0,1,3.47,1.64,17.55,17.55,0,0,1,8.24,14.93ZM44.75,37A7.94,7.94,0,1,0,36.82,29,7.94,7.94,0,0,0,44.75,37ZM34.66,43.78l-8.92-5.14-8.91,5.14v10.3l8.91,5.14,8.92-5.14Zm24.62,9.47a15.32,15.32,0,0,0-7.15-11.92,13.82,13.82,0,0,0-15.91.78l.67.38V53.25Z" style="fill:#fff"/></g></svg>