<svg xmlns="http://www.w3.org/2000/svg" xmlns:xlink="http://www.w3.org/1999/xlink" width="75" height="75" viewBox="0 0 75 75"><defs><linearGradient id="Blue_Gradient" x1="-20.83" y1="131.69" x2="-20.83" y2="-18.31" gradientTransform="translate(92.31 12.14) rotate(45)" gradientUnits="userSpaceOnUse"><stop offset="0" stop-color="#2e27ad"/><stop offset="1" stop-color="#527fff"/></linearGradient></defs><title>AWS-Managed-Services</title><g id="Example"><rect id="Green_Gradient" data-name="Green Gradient" width="75" height="75" style="fill:url(#Blue_Gradient)"/><path d="M51.5,50.42h0a4.35,4.35,0,0,0,3.1,7.41,4.35,4.35,0,1,0-3.1-7.41ZM56.09,55a2.1,2.1,0,0,1-3,0,2.1,2.1,0,0,1,3-3A2.09,2.09,0,0,1,56.09,55Zm-36-23.41-4,4a1.13,1.13,0,0,1-.8.33,1.11,1.11,0,0,1-.79-.33l-4-4L12.08,30l2.22,2.22a23.14,23.14,0,0,1,43.6-7.94l-2,1a20.87,20.87,0,0,0-39.26,6.54L18.49,30Zm34.47,6.55,4-4a1.15,1.15,0,0,1,.8-.33,1.14,1.14,0,0,1,.8.33l4,4-1.59,1.59-2.25-2.24A22.93,22.93,0,0,1,59,43l-2.11-.79A20.8,20.8,0,0,0,58,37.83l-1.85,1.85Zm-11.79,17,.59,2.17A23.16,23.16,0,0,1,16.73,45.4l2-1a20.92,20.92,0,0,0,24,10.69Zm21-2.39-1.05-.31a8.3,8.3,0,0,0-.57-2.06l.74-.79a1.13,1.13,0,0,0,0-1.57L60,45.21a1.13,1.13,0,0,0-1.57,0l-.78.75a8.31,8.31,0,0,0-2.07-.54l-.33-1a1.12,1.12,0,0,0-1.37-.75l-3.76,1a1.13,1.13,0,0,0-.8,1.35l.26,1a9,9,0,0,0-1.5,1.52L47,48.33a1.12,1.12,0,0,0-1.33.81l-1,3.78a1.12,1.12,0,0,0,.77,1.36l1,.31a7.86,7.86,0,0,0,.57,2.07l-.74.79a1.14,1.14,0,0,0,0,1.57l2.78,2.73a1.13,1.13,0,0,0,1.57,0l.78-.75a7.44,7.44,0,0,0,2.07.54l.32,1.05a1.13,1.13,0,0,0,1.08.79,1,1,0,0,0,.3,0l3.76-1A1.12,1.12,0,0,0,59.85,61L59.6,59.9a7.45,7.45,0,0,0,.79-.71,6,6,0,0,0,.7-.81l1.06.25a1.13,1.13,0,0,0,1.34-.82l1-3.77A1.14,1.14,0,0,0,63.71,52.67Zm-2.12,3.52L60.85,56a1.13,1.13,0,0,0-1.22.52,5.27,5.27,0,0,1-.84,1.07,5.71,5.71,0,0,1-1.06.86,1.12,1.12,0,0,0-.5,1.22l.18.74-1.66.46-.23-.74a1.14,1.14,0,0,0-1.06-.79,5.77,5.77,0,0,1-2.62-.68,1.1,1.1,0,0,0-1.31.18l-.55.52-1.22-1.2.52-.56a1.12,1.12,0,0,0,.16-1.31,5.71,5.71,0,0,1-.72-2.61,1.13,1.13,0,0,0-.8-1.05l-.75-.22.44-1.66.74.17a1.12,1.12,0,0,0,1.21-.52,6,6,0,0,1,1.91-1.93,1.14,1.14,0,0,0,.5-1.22l-.18-.74,1.66-.46.23.74a1.13,1.13,0,0,0,1.06.79,5.77,5.77,0,0,1,2.62.68,1.12,1.12,0,0,0,1.31-.18l.55-.53,1.22,1.21-.52.56a1.12,1.12,0,0,0-.16,1.31,5.84,5.84,0,0,1,.72,2.61,1.1,1.1,0,0,0,.8,1l.75.22ZM46.09,45.82a1.11,1.11,0,0,0,.8-.45L50,41.22a1.1,1.1,0,0,0,.2-.88,1.08,1.08,0,0,0-.5-.74l-1.54-1a11.28,11.28,0,0,0,.5-1.92l1.8-.08a1.13,1.13,0,0,0,1.07-1.27l-.69-5.15a1.12,1.12,0,0,0-1.38-.94l-1.73.41a11.52,11.52,0,0,0-1-1.7L48,26.63A1.12,1.12,0,0,0,47.83,25l-4.07-3.13a1.12,1.12,0,0,0-1.65.3l-1,1.55a11.72,11.72,0,0,0-1.85-.49l-.08-1.82A1.12,1.12,0,0,0,38,20.32L32.87,21a1.11,1.11,0,0,0-.77.47,1.16,1.16,0,0,0-.17.89l.41,1.79a12.29,12.29,0,0,0-1.67,1L29.36,24a1.11,1.11,0,0,0-.87-.3,1.13,1.13,0,0,0-.8.45l-3.1,4.15a1.11,1.11,0,0,0,.3,1.62l1.53,1a12.47,12.47,0,0,0-.5,1.91l-1.8.09a1.11,1.11,0,0,0-.81.4,1.14,1.14,0,0,0-.25.87l.68,5.15a1.14,1.14,0,0,0,.48.78,1.1,1.1,0,0,0,.9.16l1.74-.42a11.28,11.28,0,0,0,1,1.69L26.6,42.86a1.14,1.14,0,0,0-.28.86,1.09,1.09,0,0,0,.43.79l4.08,3.13a1.13,1.13,0,0,0,.89.22,1.15,1.15,0,0,0,.75-.52l1-1.56a11.69,11.69,0,0,0,1.85.48l.07,1.84a1.12,1.12,0,0,0,.4.82,1.14,1.14,0,0,0,.72.26h.16l5.08-.72a1.14,1.14,0,0,0,.77-.47,1.13,1.13,0,0,0,.17-.89l-.41-1.8a13.34,13.34,0,0,0,1.67-1l1.31,1.22A1.16,1.16,0,0,0,46.09,45.82ZM43.24,42a9.12,9.12,0,0,1-2.71,1.62,1.12,1.12,0,0,0-.69,1.3l.34,1.51-2.63.38-.06-1.55a1.14,1.14,0,0,0-1-1.07,9,9,0,0,1-3-.8,1.13,1.13,0,0,0-1.43.44l-.8,1.31-2.12-1.63,1-1.16a1.12,1.12,0,0,0,0-1.47,9.37,9.37,0,0,1-1.58-2.74,1.13,1.13,0,0,0-1.32-.71l-1.46.35-.36-2.69L27,35A1.14,1.14,0,0,0,28,34a9.47,9.47,0,0,1,.8-3.09,1.12,1.12,0,0,0-.43-1.41l-1.29-.81,1.62-2.17,1.1,1a1.13,1.13,0,0,0,1.5,0,9.34,9.34,0,0,1,2.71-1.62,1.12,1.12,0,0,0,.7-1.3l-.35-1.51L37,22.72l.06,1.53a1.12,1.12,0,0,0,1,1.08,9,9,0,0,1,3,.79,1.13,1.13,0,0,0,1.43-.43l.8-1.3L45.49,26l-1,1.14a1.13,1.13,0,0,0,0,1.48A9.27,9.27,0,0,1,46,31.39a1.13,1.13,0,0,0,1.32.7l1.46-.35.35,2.7-1.51.07a1.12,1.12,0,0,0-1.07,1,9.34,9.34,0,0,1-.8,3.08A1.12,1.12,0,0,0,46.17,40l1.29.81L45.84,43l-1.1-1A1.13,1.13,0,0,0,43.24,42ZM38.38,28.33a6.5,6.5,0,1,0-2.17,12.82,5.71,5.71,0,0,0,1.08.1,6.51,6.51,0,0,0,6.41-5.42h0A6.51,6.51,0,0,0,38.38,28.33Zm3.1,7.12a4.25,4.25,0,1,1-4.19-5,4.34,4.34,0,0,1,.71.06A4.26,4.26,0,0,1,41.48,35.45Z" style="fill:#fff"/></g></svg>