<svg xmlns="http://www.w3.org/2000/svg" xmlns:xlink="http://www.w3.org/1999/xlink" width="75" height="75" viewBox="0 0 75 75"><defs><linearGradient id="Blue_Gradient" x1="-20.83" y1="131.69" x2="-20.83" y2="-18.31" gradientTransform="translate(92.31 12.14) rotate(45)" gradientUnits="userSpaceOnUse"><stop offset="0" stop-color="#2e27ad"/><stop offset="1" stop-color="#527fff"/></linearGradient></defs><title>AWS-Support</title><g id="Example"><rect id="Green_Gradient" data-name="Green Gradient" width="75" height="75" style="fill:url(#Blue_Gradient)"/><path id="_48x" data-name="48x" d="M37.3,38.81h.06a9.36,9.36,0,0,1,7,3.41l1.78-1.6A13.33,13.33,0,0,0,42,37.48a8.89,8.89,0,1,0-9.31,0C27.9,39.7,24.41,45.22,23.82,52l-7.43-4V23.88l21-11.07L58.3,23.88v14h2.39V22.44L37.35,10.1,14,22.44v27L37.32,62l7-3.39L43.22,56.5l-5.85,2.85L26.15,53.29C26.45,45.15,31.27,38.84,37.3,38.81Zm-6.47-8.88a6.49,6.49,0,1,1,6.53,6.48H37.3A6.48,6.48,0,0,1,30.83,29.93ZM66.3,48.22a1.19,1.19,0,0,0-.88-.32l-.64,0a10.36,10.36,0,0,0-.43-1l.47-.43a1.16,1.16,0,0,0,.4-.85,1.24,1.24,0,0,0-.35-.89L62.18,42a1.2,1.2,0,0,0-1.74,0l-.43.48a8.45,8.45,0,0,0-1-.43l0-.64a1.2,1.2,0,0,0-1.19-1.27H54a1.2,1.2,0,0,0-.87.38,1.17,1.17,0,0,0-.32.89l0,.64a7.85,7.85,0,0,0-1,.43l-.43-.48a1.2,1.2,0,0,0-1.74,0l-2.69,2.69a1.24,1.24,0,0,0-.35.89,1.19,1.19,0,0,0,.4.86l.48.42a8.52,8.52,0,0,0-.44,1l-.64,0a1.18,1.18,0,0,0-1.26,1.19V52.9a1.18,1.18,0,0,0,.37.87,1.22,1.22,0,0,0,.89.33l.64,0a8,8,0,0,0,.43,1l-.47.42a1.19,1.19,0,0,0-.4.86,1.2,1.2,0,0,0,.35.88L49.63,60a1.13,1.13,0,0,0,.88.35,1.19,1.19,0,0,0,.86-.4l.42-.47a9.69,9.69,0,0,0,1.05.44l0,.63a1.17,1.17,0,0,0,.32.89,1.19,1.19,0,0,0,.87.37h3.81a1.19,1.19,0,0,0,.87-.37,1.21,1.21,0,0,0,.32-.89l0-.63A8,8,0,0,0,60,59.44l.42.47a1.19,1.19,0,0,0,.86.4,1.12,1.12,0,0,0,.88-.35l2.69-2.69a1.2,1.2,0,0,0,.35-.88,1.19,1.19,0,0,0-.4-.86l-.47-.42a9.63,9.63,0,0,0,.43-1l.64,0a1.21,1.21,0,0,0,1.26-1.2V49.09A1.22,1.22,0,0,0,66.3,48.22Zm-2,3.41H64a1.21,1.21,0,0,0-1.23.93,7.06,7.06,0,0,1-.91,2.18A1.19,1.19,0,0,0,62,56.26l.24.21-.9.9-.21-.23a1.19,1.19,0,0,0-1.53-.22,7,7,0,0,1-2.19.9,1.21,1.21,0,0,0-.93,1.24l0,.32H55.27l0-.32a1.2,1.2,0,0,0-.93-1.24,6.84,6.84,0,0,1-2.18-.9,1.2,1.2,0,0,0-1.54.21l-.21.24-.9-.9.24-.21A1.19,1.19,0,0,0,50,54.73a7.18,7.18,0,0,1-.9-2.18,1.21,1.21,0,0,0-1.23-.93h-.33V50.36l.33,0a1.24,1.24,0,0,0,1.24-.93,6.8,6.8,0,0,1,.9-2.18,1.19,1.19,0,0,0-.22-1.53l-.24-.22.9-.9.22.25a1.2,1.2,0,0,0,1.53.21,7.08,7.08,0,0,1,2.18-.9A1.2,1.2,0,0,0,55.29,43l0-.33h1.27l0,.33a1.2,1.2,0,0,0,.93,1.23,7.08,7.08,0,0,1,2.18.9,1.2,1.2,0,0,0,1.53-.21l.22-.25.9.9-.24.22a1.19,1.19,0,0,0-.22,1.53,6.71,6.71,0,0,1,.9,2.18,1.24,1.24,0,0,0,1.24.93l.33,0ZM55.9,46.21A4.79,4.79,0,1,0,60.69,51,4.79,4.79,0,0,0,55.9,46.21Zm0,7.18A2.4,2.4,0,1,1,58.3,51,2.39,2.39,0,0,1,55.9,53.39Z" style="fill:#fff"/></g></svg>