<svg xmlns="http://www.w3.org/2000/svg" width="75" height="75" viewBox="0 0 75 75"><title>AWS-Support_light-bg</title><g id="Example"><rect id="Green_Light_BG" data-name="Green Light BG" width="75" height="75" style="fill:#3b48cc"/><path id="_48x" data-name="48x" d="M37.3,40.24h.06a9.36,9.36,0,0,1,7,3.41l1.78-1.6A13.33,13.33,0,0,0,42,38.91a8.89,8.89,0,1,0-9.31,0c-4.76,2.23-8.25,7.75-8.84,14.55l-7.43-4V25.31l21-11.07L58.3,25.31v14h2.39V23.87L37.35,11.53,14,23.87v27L37.32,63.47l7-3.38-1.05-2.16-5.85,2.85L26.15,54.72C26.45,46.58,31.27,40.27,37.3,40.24Zm-6.47-8.88a6.49,6.49,0,1,1,6.53,6.49H37.3A6.49,6.49,0,0,1,30.83,31.36ZM66.3,49.66a1.16,1.16,0,0,0-.88-.33l-.64,0a9.63,9.63,0,0,0-.43-1l.47-.42a1.19,1.19,0,0,0,.4-.86,1.2,1.2,0,0,0-.35-.88l-2.69-2.69a1.2,1.2,0,0,0-1.74.05L60,44a10.36,10.36,0,0,0-1-.43l0-.64a1.2,1.2,0,0,0-1.19-1.27H54a1.2,1.2,0,0,0-.87.38,1.17,1.17,0,0,0-.32.89l0,.64a9.47,9.47,0,0,0-1,.43l-.43-.47a1.15,1.15,0,0,0-.86-.4,1.18,1.18,0,0,0-.88.35l-2.69,2.69a1.2,1.2,0,0,0-.35.88,1.19,1.19,0,0,0,.4.86l.48.42a8,8,0,0,0-.44,1l-.64,0a1.2,1.2,0,0,0-1.26,1.2v3.8a1.18,1.18,0,0,0,.37.87,1.22,1.22,0,0,0,.89.33l.64,0a8,8,0,0,0,.43,1L47,57a1.19,1.19,0,0,0-.4.86,1.2,1.2,0,0,0,.35.88l2.69,2.7a1.2,1.2,0,0,0,.88.35,1.22,1.22,0,0,0,.86-.4l.42-.48a8,8,0,0,0,1.05.44l0,.63a1.17,1.17,0,0,0,.32.89,1.2,1.2,0,0,0,.87.38h3.81A1.2,1.2,0,0,0,59,61.94l0-.63A9.63,9.63,0,0,0,60,60.88l.42.47a1.22,1.22,0,0,0,.86.4,1.19,1.19,0,0,0,.88-.35l2.69-2.7a1.2,1.2,0,0,0,.35-.88,1.19,1.19,0,0,0-.4-.86l-.47-.42a9.63,9.63,0,0,0,.43-1l.64,0a1.21,1.21,0,0,0,1.26-1.2v-3.8A1.19,1.19,0,0,0,66.3,49.66Zm-2,3.41-.33,0a1.21,1.21,0,0,0-1.23.93,7,7,0,0,1-.91,2.18A1.19,1.19,0,0,0,62,57.69l.24.22-.9.9-.21-.24a1.19,1.19,0,0,0-1.53-.22,7,7,0,0,1-2.19.91,1.2,1.2,0,0,0-.93,1.23l0,.32H55.27l0-.32a1.19,1.19,0,0,0-.93-1.23,6.86,6.86,0,0,1-2.18-.91,1.21,1.21,0,0,0-1.54.22l-.21.24-.9-.9.24-.22A1.19,1.19,0,0,0,50,56.16a7.08,7.08,0,0,1-.9-2.18,1.21,1.21,0,0,0-1.23-.93l-.33,0V51.79l.33,0a1.24,1.24,0,0,0,1.24-.93,6.66,6.66,0,0,1,.9-2.17,1.21,1.21,0,0,0-.22-1.54L49.53,47l.9-.9.22.25a1.19,1.19,0,0,0,1.53.22,6.86,6.86,0,0,1,2.18-.91,1.2,1.2,0,0,0,.93-1.23l0-.33h1.27l0,.33a1.2,1.2,0,0,0,.93,1.23,6.86,6.86,0,0,1,2.18.91,1.19,1.19,0,0,0,1.53-.22l.22-.25.9.9-.24.22a1.19,1.19,0,0,0-.22,1.53,6.8,6.8,0,0,1,.9,2.18,1.24,1.24,0,0,0,1.24.93l.33,0ZM55.9,47.64a4.79,4.79,0,1,0,4.79,4.79A4.79,4.79,0,0,0,55.9,47.64Zm0,7.18a2.39,2.39,0,1,1,2.4-2.39A2.39,2.39,0,0,1,55.9,54.82Z" style="fill:#fff"/></g></svg>