<svg xmlns="http://www.w3.org/2000/svg" viewBox="0 0 50 50"><defs><style>.cls-1{fill:#d86613;}</style></defs><title>Amazon-EC2_R5-Instance_light-bg</title><g id="Working"><path class="cls-1" d="M16.84,30.09V19.44h4.1a3.77,3.77,0,0,1,2.62.88,3,3,0,0,1,1,2.38A2.86,2.86,0,0,1,24,24.36a3.27,3.27,0,0,1-1.42,1.15l2.64,4.58H22.86L20.55,26h-1.5v4.13Zm2.21-5.73h1.6a1.43,1.43,0,0,0,1.61-1.63,1.41,1.41,0,0,0-1.58-1.6H19.05Z"/><path class="cls-1" d="M26.27,28a10.29,10.29,0,0,0,3,.59,2.17,2.17,0,0,0,1.44-.43,1.59,1.59,0,0,0,.49-1.26,1.45,1.45,0,0,0-.49-1.22,2.43,2.43,0,0,0-1.52-.39,23.48,23.48,0,0,0-2.52.15V24L27,19.44h6V21.2H28.88l-.17,2.51A5.68,5.68,0,0,1,30,23.56a3.61,3.61,0,0,1,2.53.88,3.06,3.06,0,0,1,1,2.36A3.43,3.43,0,0,1,33,28.61a3.39,3.39,0,0,1-1.43,1.26,5,5,0,0,1-2.18.45,7.76,7.76,0,0,1-3.15-.65Z"/><path class="cls-1" d="M44.31,44.31H5.69V5.69H44.31Zm-36.62-2H42.31V7.69H7.69Z"/><rect class="cls-1" x="11.21" y="1" width="2" height="5.69"/><rect class="cls-1" x="17.48" y="1" width="2" height="5.69"/><rect class="cls-1" x="23.76" y="1" width="2" height="5.69"/><rect class="cls-1" x="30.04" y="1" width="2" height="5.69"/><rect class="cls-1" x="36.32" y="1" width="2" height="5.69"/><rect class="cls-1" x="11.21" y="43.31" width="2" height="5.69"/><rect class="cls-1" x="17.48" y="43.31" width="2" height="5.69"/><rect class="cls-1" x="23.76" y="43.31" width="2" height="5.69"/><rect class="cls-1" x="30.04" y="43.31" width="2" height="5.69"/><rect class="cls-1" x="36.32" y="43.31" width="2" height="5.69"/><rect class="cls-1" x="43.31" y="11.45" width="5.69" height="2"/><rect class="cls-1" x="43.31" y="17.72" width="5.69" height="2"/><rect class="cls-1" x="43.31" y="24" width="5.69" height="2"/><rect class="cls-1" x="43.31" y="30.28" width="5.69" height="2"/><rect class="cls-1" x="43.31" y="36.55" width="5.69" height="2"/><rect class="cls-1" x="1" y="11.45" width="5.69" height="2"/><rect class="cls-1" x="1" y="17.72" width="5.69" height="2"/><rect class="cls-1" x="1" y="24" width="5.69" height="2"/><rect class="cls-1" x="1" y="30.28" width="5.69" height="2"/><rect class="cls-1" x="1" y="36.55" width="5.69" height="2"/></g></svg>