<svg xmlns="http://www.w3.org/2000/svg" viewBox="0 0 50 50"><defs><style>.cls-1{fill:#d86613;}</style></defs><title>Amazon-EC2_R5a_light-bg</title><g id="Working"><path class="cls-1" d="M12.64,30.09V19.44h4.1a3.78,3.78,0,0,1,2.63.88,3,3,0,0,1,1,2.38,2.86,2.86,0,0,1-.51,1.66,3.3,3.3,0,0,1-1.43,1.15L21,30.09H18.66L16.36,26H14.85v4.13Zm2.21-5.73h1.6a1.44,1.44,0,0,0,1.62-1.63,1.41,1.41,0,0,0-1.59-1.6H14.85Z"/><path class="cls-1" d="M22.07,28a10.35,10.35,0,0,0,3.05.59,2.17,2.17,0,0,0,1.44-.43,1.59,1.59,0,0,0,.49-1.26,1.45,1.45,0,0,0-.49-1.22A2.45,2.45,0,0,0,25,25.24a23.48,23.48,0,0,0-2.52.15V24l.28-4.57h6V21.2H24.68l-.16,2.51a5.68,5.68,0,0,1,1.32-.15,3.61,3.61,0,0,1,2.53.88,3.05,3.05,0,0,1,.95,2.36,3.28,3.28,0,0,1-1.92,3.07,5,5,0,0,1-2.18.45,7.83,7.83,0,0,1-3.15-.65Z"/><path class="cls-1" d="M35.77,30.09l-.18-.69a3.84,3.84,0,0,1-1.1.68,3.11,3.11,0,0,1-1.2.25,2.53,2.53,0,0,1-1.82-.64A2.24,2.24,0,0,1,30.78,28a2.38,2.38,0,0,1,.37-1.3,2.51,2.51,0,0,1,1.06-.88,3.73,3.73,0,0,1,1.63-.32,7.16,7.16,0,0,1,1.63.2V24.9a1.29,1.29,0,0,0-.29-1,1.7,1.7,0,0,0-1.08-.26,9.57,9.57,0,0,0-2.78.47V22.65a5.59,5.59,0,0,1,1.43-.46A8.52,8.52,0,0,1,34.5,22a3.43,3.43,0,0,1,2.31.64,2.5,2.5,0,0,1,.73,2v5.44Zm-1.85-1.26a2.12,2.12,0,0,0,.79-.17,3.15,3.15,0,0,0,.76-.46V26.86a8,8,0,0,0-1.22-.1c-.89,0-1.33.35-1.33,1.07a1,1,0,0,0,.26.74A1,1,0,0,0,33.92,28.83Z"/><path class="cls-1" d="M44.31,44.31H5.69V5.69H44.31Zm-36.62-2H42.31V7.69H7.69Z"/><rect class="cls-1" x="11.21" y="1" width="2" height="5.69"/><rect class="cls-1" x="17.48" y="1" width="2" height="5.69"/><rect class="cls-1" x="23.76" y="1" width="2" height="5.69"/><rect class="cls-1" x="30.04" y="1" width="2" height="5.69"/><rect class="cls-1" x="36.32" y="1" width="2" height="5.69"/><rect class="cls-1" x="11.21" y="43.31" width="2" height="5.69"/><rect class="cls-1" x="17.48" y="43.31" width="2" height="5.69"/><rect class="cls-1" x="23.76" y="43.31" width="2" height="5.69"/><rect class="cls-1" x="30.04" y="43.31" width="2" height="5.69"/><rect class="cls-1" x="36.32" y="43.31" width="2" height="5.69"/><rect class="cls-1" x="43.31" y="11.45" width="5.69" height="2"/><rect class="cls-1" x="43.31" y="17.72" width="5.69" height="2"/><rect class="cls-1" x="43.31" y="24" width="5.69" height="2"/><rect class="cls-1" x="43.31" y="30.28" width="5.69" height="2"/><rect class="cls-1" x="43.31" y="36.55" width="5.69" height="2"/><rect class="cls-1" x="1" y="11.45" width="5.69" height="2"/><rect class="cls-1" x="1" y="17.72" width="5.69" height="2"/><rect class="cls-1" x="1" y="24" width="5.69" height="2"/><rect class="cls-1" x="1" y="30.28" width="5.69" height="2"/><rect class="cls-1" x="1" y="36.55" width="5.69" height="2"/></g></svg>