<svg xmlns="http://www.w3.org/2000/svg" viewBox="0 0 50 50"><defs><style>.cls-1{fill:#d86613;}</style></defs><title>Amazon-EC2_M5a-Instance_light-bg</title><g id="Working"><path class="cls-1" d="M19.68,30.09V22.72l-2.35,4.77h-2l-2.35-4.77v7.37h-2V19.44h2.52l2.9,6.06,2.92-6.06h2.47V30.09Z"/><path class="cls-1" d="M23.82,28a10.29,10.29,0,0,0,3,.59,2.17,2.17,0,0,0,1.44-.43,1.59,1.59,0,0,0,.49-1.26,1.45,1.45,0,0,0-.49-1.22,2.43,2.43,0,0,0-1.52-.39,23.48,23.48,0,0,0-2.52.15V24l.28-4.57h6V21.2H26.43l-.17,2.51a5.68,5.68,0,0,1,1.32-.15,3.61,3.61,0,0,1,2.53.88,3.06,3.06,0,0,1,1,2.36,3.43,3.43,0,0,1-.49,1.81,3.39,3.39,0,0,1-1.43,1.26,5,5,0,0,1-2.18.45,7.76,7.76,0,0,1-3.15-.65Z"/><path class="cls-1" d="M37.52,30.09l-.19-.69a3.79,3.79,0,0,1-1.09.68,3.2,3.2,0,0,1-1.21.25,2.54,2.54,0,0,1-1.82-.64A2.23,2.23,0,0,1,32.53,28a2.37,2.37,0,0,1,.36-1.3A2.51,2.51,0,0,1,34,25.79a3.8,3.8,0,0,1,1.63-.32,7.09,7.09,0,0,1,1.63.2V24.9a1.29,1.29,0,0,0-.29-1,1.68,1.68,0,0,0-1.08-.26,9.63,9.63,0,0,0-2.78.47V22.65a5.59,5.59,0,0,1,1.43-.46A8.59,8.59,0,0,1,36.24,22a3.41,3.41,0,0,1,2.31.64,2.5,2.5,0,0,1,.73,2v5.44Zm-1.86-1.26a2.08,2.08,0,0,0,.79-.17,3,3,0,0,0,.76-.46V26.86a7.87,7.87,0,0,0-1.21-.1c-.89,0-1.34.35-1.34,1.07a.91.91,0,0,0,1,1Z"/><path class="cls-1" d="M44.31,44.31H5.69V5.69H44.31Zm-36.62-2H42.31V7.69H7.69Z"/><rect class="cls-1" x="11.21" y="1" width="2" height="5.69"/><rect class="cls-1" x="17.48" y="1" width="2" height="5.69"/><rect class="cls-1" x="23.76" y="1" width="2" height="5.69"/><rect class="cls-1" x="30.04" y="1" width="2" height="5.69"/><rect class="cls-1" x="36.32" y="1" width="2" height="5.69"/><rect class="cls-1" x="11.21" y="43.31" width="2" height="5.69"/><rect class="cls-1" x="17.48" y="43.31" width="2" height="5.69"/><rect class="cls-1" x="23.76" y="43.31" width="2" height="5.69"/><rect class="cls-1" x="30.04" y="43.31" width="2" height="5.69"/><rect class="cls-1" x="36.32" y="43.31" width="2" height="5.69"/><rect class="cls-1" x="43.31" y="11.45" width="5.69" height="2"/><rect class="cls-1" x="43.31" y="17.72" width="5.69" height="2"/><rect class="cls-1" x="43.31" y="24" width="5.69" height="2"/><rect class="cls-1" x="43.31" y="30.28" width="5.69" height="2"/><rect class="cls-1" x="43.31" y="36.55" width="5.69" height="2"/><rect class="cls-1" x="1" y="11.45" width="5.69" height="2"/><rect class="cls-1" x="1" y="17.72" width="5.69" height="2"/><rect class="cls-1" x="1" y="24" width="5.69" height="2"/><rect class="cls-1" x="1" y="30.28" width="5.69" height="2"/><rect class="cls-1" x="1" y="36.55" width="5.69" height="2"/></g></svg>