<svg xmlns="http://www.w3.org/2000/svg" viewBox="0 0 50 50"><defs><style>.cls-1{fill:#d86613;}</style></defs><title>Amazon-EC2_Spot-Instance_light-bg</title><g id="Working"><path class="cls-1" d="M29.75,31.43h-9.5a1.65,1.65,0,0,1-1.65-1.65v-9.5a1.65,1.65,0,0,1,1.65-1.65h9.5a1.65,1.65,0,0,1,1.65,1.65v9.5A1.65,1.65,0,0,1,29.75,31.43Zm-9.15-2h8.8v-8.8H20.6Z"/><path class="cls-1" d="M24.58,36.83h-10a1.43,1.43,0,0,1-1.42-1.42v-10A1.43,1.43,0,0,1,14.62,24H17.8v2H15.2v8.8H24v-2.6h2v3.18A1.43,1.43,0,0,1,24.58,36.83Z"/><path class="cls-1" d="M35.38,26H32.2V24h2.6v-8.8H26V17.8H24V14.65a1.43,1.43,0,0,1,1.42-1.42h10a1.43,1.43,0,0,1,1.42,1.42v10A1.43,1.43,0,0,1,35.38,26Z"/><rect class="cls-1" x="10.95" y="3.71" width="2" height="16.55" transform="translate(-4.97 11.96) rotate(-45)"/><rect class="cls-1" x="37.05" y="29.81" width="2" height="16.55" transform="translate(-15.78 38.06) rotate(-45)"/><rect class="cls-1" x="4.8" y="39.78" width="8.91" height="2" transform="translate(-26.13 18.48) rotate(-45)"/><rect class="cls-1" x="36.3" y="8.28" width="8.91" height="2" transform="translate(5.37 31.53) rotate(-45)"/><rect class="cls-1" x="2.5" y="24.03" width="5.4" height="2"/><rect class="cls-1" x="42.1" y="24.03" width="5.4" height="2"/><rect class="cls-1" x="24" y="42.13" width="2" height="5.34"/><rect class="cls-1" x="24" y="2.53" width="2" height="5.4"/><path class="cls-1" d="M41.87,37.21,40.25,36a18.85,18.85,0,0,0,0-22l1.62-1.17a20.84,20.84,0,0,1,0,24.36Z"/><path class="cls-1" d="M36,9.78a18.85,18.85,0,0,0-22,0L12.82,8.16a20.84,20.84,0,0,1,24.36,0Z"/><path class="cls-1" d="M25,45.83A20.68,20.68,0,0,1,12.82,41.9L14,40.28a18.85,18.85,0,0,0,22,0l1.17,1.62A20.68,20.68,0,0,1,25,45.83Z"/><path class="cls-1" d="M8.13,37.21a20.84,20.84,0,0,1,0-24.36L9.75,14a18.85,18.85,0,0,0,0,22Z"/></g></svg>