<svg xmlns="http://www.w3.org/2000/svg" viewBox="0 0 50 50"><defs><style>.cls-1{fill:#d86613;}</style></defs><title>Amazon-EC2_M5-Instance_light-bg</title><g id="Working"><path class="cls-1" d="M23.88,30.09V22.72l-2.35,4.77H19.47l-2.35-4.77v7.37h-2V19.44h2.52l2.9,6.06,2.92-6.06h2.48V30.09Z"/><path class="cls-1" d="M28,28a10.29,10.29,0,0,0,3,.59,2.18,2.18,0,0,0,1.45-.43A1.62,1.62,0,0,0,33,26.85a1.48,1.48,0,0,0-.49-1.22A2.46,2.46,0,0,0,31,25.24a23.45,23.45,0,0,0-2.51.15V24l.27-4.57h6V21.2H30.62l-.17,2.51a5.68,5.68,0,0,1,1.32-.15,3.63,3.63,0,0,1,2.54.88,3.09,3.09,0,0,1,.95,2.36,3.34,3.34,0,0,1-.49,1.81,3.39,3.39,0,0,1-1.43,1.26,5,5,0,0,1-2.18.45A7.76,7.76,0,0,1,28,29.67Z"/><path class="cls-1" d="M44.31,44.31H5.69V5.69H44.31Zm-36.62-2H42.31V7.69H7.69Z"/><rect class="cls-1" x="11.21" y="1" width="2" height="5.69"/><rect class="cls-1" x="17.48" y="1" width="2" height="5.69"/><rect class="cls-1" x="23.76" y="1" width="2" height="5.69"/><rect class="cls-1" x="30.04" y="1" width="2" height="5.69"/><rect class="cls-1" x="36.32" y="1" width="2" height="5.69"/><rect class="cls-1" x="11.21" y="43.31" width="2" height="5.69"/><rect class="cls-1" x="17.48" y="43.31" width="2" height="5.69"/><rect class="cls-1" x="23.76" y="43.31" width="2" height="5.69"/><rect class="cls-1" x="30.04" y="43.31" width="2" height="5.69"/><rect class="cls-1" x="36.32" y="43.31" width="2" height="5.69"/><rect class="cls-1" x="43.31" y="11.45" width="5.69" height="2"/><rect class="cls-1" x="43.31" y="17.72" width="5.69" height="2"/><rect class="cls-1" x="43.31" y="24" width="5.69" height="2"/><rect class="cls-1" x="43.31" y="30.28" width="5.69" height="2"/><rect class="cls-1" x="43.31" y="36.55" width="5.69" height="2"/><rect class="cls-1" x="1" y="11.45" width="5.69" height="2"/><rect class="cls-1" x="1" y="17.72" width="5.69" height="2"/><rect class="cls-1" x="1" y="24" width="5.69" height="2"/><rect class="cls-1" x="1" y="30.28" width="5.69" height="2"/><rect class="cls-1" x="1" y="36.55" width="5.69" height="2"/></g></svg>