<svg xmlns="http://www.w3.org/2000/svg" viewBox="0 0 50 50"><defs><style>.cls-1{fill:#d86613;}</style></defs><title>Amazon-EC2_P3-Instance_light-bg</title><g id="Working"><path class="cls-1" d="M19.22,26.2v3.89H17V19.44H21a3.7,3.7,0,0,1,2.63.91,3.22,3.22,0,0,1,1,2.47,3.22,3.22,0,0,1-1,2.48,3.7,3.7,0,0,1-2.63.9Zm0-1.72h1.56A1.57,1.57,0,0,0,22,24.06a1.72,1.72,0,0,0,.41-1.24A1.71,1.71,0,0,0,22,21.59a1.58,1.58,0,0,0-1.18-.43H19.22Z"/><path class="cls-1" d="M30.11,23.88a3.55,3.55,0,0,1,2.32.88,2.76,2.76,0,0,1,.84,2.1,3.29,3.29,0,0,1-.5,1.8,3.25,3.25,0,0,1-1.45,1.22,5.31,5.31,0,0,1-2.23.44,7.26,7.26,0,0,1-2.9-.63V28a9.26,9.26,0,0,0,2.83.59,2.3,2.3,0,0,0,1.49-.42A1.51,1.51,0,0,0,31,26.88a1.23,1.23,0,0,0-.48-1.07,2.53,2.53,0,0,0-1.47-.34l-.69,0-.74.07V24.16l2.75-3H26.33V19.44h6.48v1.69Z"/><path class="cls-1" d="M44.31,44.31H5.69V5.69H44.31Zm-36.62-2H42.31V7.69H7.69Z"/><rect class="cls-1" x="11.21" y="1" width="2" height="5.69"/><rect class="cls-1" x="17.48" y="1" width="2" height="5.69"/><rect class="cls-1" x="23.76" y="1" width="2" height="5.69"/><rect class="cls-1" x="30.04" y="1" width="2" height="5.69"/><rect class="cls-1" x="36.32" y="1" width="2" height="5.69"/><rect class="cls-1" x="11.21" y="43.31" width="2" height="5.69"/><rect class="cls-1" x="17.48" y="43.31" width="2" height="5.69"/><rect class="cls-1" x="23.76" y="43.31" width="2" height="5.69"/><rect class="cls-1" x="30.04" y="43.31" width="2" height="5.69"/><rect class="cls-1" x="36.32" y="43.31" width="2" height="5.69"/><rect class="cls-1" x="43.31" y="11.45" width="5.69" height="2"/><rect class="cls-1" x="43.31" y="17.72" width="5.69" height="2"/><rect class="cls-1" x="43.31" y="24" width="5.69" height="2"/><rect class="cls-1" x="43.31" y="30.28" width="5.69" height="2"/><rect class="cls-1" x="43.31" y="36.55" width="5.69" height="2"/><rect class="cls-1" x="1" y="11.45" width="5.69" height="2"/><rect class="cls-1" x="1" y="17.72" width="5.69" height="2"/><rect class="cls-1" x="1" y="24" width="5.69" height="2"/><rect class="cls-1" x="1" y="30.28" width="5.69" height="2"/><rect class="cls-1" x="1" y="36.55" width="5.69" height="2"/></g></svg>