<svg xmlns="http://www.w3.org/2000/svg" viewBox="0 0 50 50"><defs><style>.cls-1{fill:#d86613;}</style></defs><title>Amazon-EC2_G3-Instance_light-bg</title><g id="Working"><path class="cls-1" d="M21.64,28.45a10.44,10.44,0,0,0,1.14-.08v-2.6h-2V24.11H24.9v5.33a6.42,6.42,0,0,1-1.72.6,9.21,9.21,0,0,1-2,.22,5.06,5.06,0,0,1-3.83-1.4,5.49,5.49,0,0,1-1.34-4,5.76,5.76,0,0,1,1.39-4.17,5.33,5.33,0,0,1,4-1.43,7.15,7.15,0,0,1,3.12.63v1.75a9.63,9.63,0,0,0-2.88-.51,3.27,3.27,0,0,0-2.5.85,3.83,3.83,0,0,0-.8,2.68V25a3.75,3.75,0,0,0,.79,2.65A3.32,3.32,0,0,0,21.64,28.45Z"/><path class="cls-1" d="M30.8,23.88a3.55,3.55,0,0,1,2.32.88,2.76,2.76,0,0,1,.84,2.1,3.21,3.21,0,0,1-.5,1.8A3.25,3.25,0,0,1,32,29.88a5.31,5.31,0,0,1-2.23.44,7.26,7.26,0,0,1-2.9-.63V28a9.26,9.26,0,0,0,2.83.59,2.35,2.35,0,0,0,1.5-.42,1.54,1.54,0,0,0,.51-1.24,1.23,1.23,0,0,0-.48-1.07,2.51,2.51,0,0,0-1.47-.34l-.68,0-.75.07V24.16l2.75-3H27V19.44H33.5v1.69Z"/><path class="cls-1" d="M44.31,44.31H5.69V5.69H44.31Zm-36.62-2H42.31V7.69H7.69Z"/><rect class="cls-1" x="11.21" y="1" width="2" height="5.69"/><rect class="cls-1" x="17.48" y="1" width="2" height="5.69"/><rect class="cls-1" x="23.76" y="1" width="2" height="5.69"/><rect class="cls-1" x="30.04" y="1" width="2" height="5.69"/><rect class="cls-1" x="36.32" y="1" width="2" height="5.69"/><rect class="cls-1" x="11.21" y="43.31" width="2" height="5.69"/><rect class="cls-1" x="17.48" y="43.31" width="2" height="5.69"/><rect class="cls-1" x="23.76" y="43.31" width="2" height="5.69"/><rect class="cls-1" x="30.04" y="43.31" width="2" height="5.69"/><rect class="cls-1" x="36.32" y="43.31" width="2" height="5.69"/><rect class="cls-1" x="43.31" y="11.45" width="5.69" height="2"/><rect class="cls-1" x="43.31" y="17.72" width="5.69" height="2"/><rect class="cls-1" x="43.31" y="24" width="5.69" height="2"/><rect class="cls-1" x="43.31" y="30.28" width="5.69" height="2"/><rect class="cls-1" x="43.31" y="36.55" width="5.69" height="2"/><rect class="cls-1" x="1" y="11.45" width="5.69" height="2"/><rect class="cls-1" x="1" y="17.72" width="5.69" height="2"/><rect class="cls-1" x="1" y="24" width="5.69" height="2"/><rect class="cls-1" x="1" y="30.28" width="5.69" height="2"/><rect class="cls-1" x="1" y="36.55" width="5.69" height="2"/></g></svg>