<svg xmlns="http://www.w3.org/2000/svg" viewBox="0 0 50 50"><defs><style>.cls-1{fill:#d86613;}</style></defs><title>Amazon-EC2_Optimized-Instance_light-bg</title><g id="Working"><path class="cls-1" d="M41.55,48H7.45A6.45,6.45,0,0,1,1,41.55V7.45A6.45,6.45,0,0,1,7.45,1h34.1A6.45,6.45,0,0,1,48,7.45v34.1A6.45,6.45,0,0,1,41.55,48ZM7.45,3A4.46,4.46,0,0,0,3,7.45v34.1A4.46,4.46,0,0,0,7.45,46h34.1A4.46,4.46,0,0,0,46,41.55V7.45A4.46,4.46,0,0,0,41.55,3Z"/><path class="cls-1" d="M22.64,33.38a12.81,12.81,0,0,1-4.59.81q-4.31,0-6.53-2.38t-2.22-7q0-4.55,2.3-7a8.59,8.59,0,0,1,6.58-2.44,12.35,12.35,0,0,1,4.2.71v2.18a17.92,17.92,0,0,0-3.89-.55q-3.3,0-4.83,1.61T12.14,24.5v.63q0,3.47,1.48,5.1t4.71,1.62a18.59,18.59,0,0,0,4.31-.65Z"/><path class="cls-1" d="M30.75,23.48l.26,0h.27a5.84,5.84,0,0,1,4.12,1.41,4.88,4.88,0,0,1,1.52,3.76,5.07,5.07,0,0,1-1.85,4.11,7.51,7.51,0,0,1-5,1.54,12.15,12.15,0,0,1-4.88-1.05v-2.1a16,16,0,0,0,4.88.94,4.69,4.69,0,0,0,3.08-.89,3.13,3.13,0,0,0,1.07-2.55q0-3.16-4-3.17a23,23,0,0,0-2.5.13V23.85l5.52-6H25.47V15.68H36.16v2.08Z"/></g></svg>