<svg xmlns="http://www.w3.org/2000/svg" viewBox="0 0 50 50"><defs><style>.cls-1{fill:#d86613;}</style></defs><title>Amazon-EC2_z1d-Instance_light-bg</title><g id="Working"><path class="cls-1" d="M12.5,30.09v-1.6l4-4.59H12.66V22.24H19v1.6l-4.09,4.59h4.16v1.66Z"/><path class="cls-1" d="M23.75,30.09v-8.4L21,22.55V20.8l3-1.36h2V30.09Z"/><path class="cls-1" d="M35,30.09l-.18-.69a3.29,3.29,0,0,1-2.26.86,3,3,0,0,1-1.71-.49,3.13,3.13,0,0,1-1.14-1.4,5.38,5.38,0,0,1-.41-2.17,4.76,4.76,0,0,1,.91-3.05A2.9,2.9,0,0,1,32.56,22a3.36,3.36,0,0,1,2.11.69v-4h2.24V30.09Zm-1.7-1.52a2.64,2.64,0,0,0,1.41-.43V24.08a3,3,0,0,0-1.52-.38,1.35,1.35,0,0,0-1.22.61,3.41,3.41,0,0,0-.39,1.83A3.21,3.21,0,0,0,32,28,1.47,1.47,0,0,0,33.26,28.57Z"/><path class="cls-1" d="M44.31,44.31H5.69V5.69H44.31Zm-36.62-2H42.31V7.69H7.69Z"/><rect class="cls-1" x="11.21" y="1" width="2" height="5.69"/><rect class="cls-1" x="17.48" y="1" width="2" height="5.69"/><rect class="cls-1" x="23.76" y="1" width="2" height="5.69"/><rect class="cls-1" x="30.04" y="1" width="2" height="5.69"/><rect class="cls-1" x="36.32" y="1" width="2" height="5.69"/><rect class="cls-1" x="11.21" y="43.31" width="2" height="5.69"/><rect class="cls-1" x="17.48" y="43.31" width="2" height="5.69"/><rect class="cls-1" x="23.76" y="43.31" width="2" height="5.69"/><rect class="cls-1" x="30.04" y="43.31" width="2" height="5.69"/><rect class="cls-1" x="36.32" y="43.31" width="2" height="5.69"/><rect class="cls-1" x="43.31" y="11.45" width="5.69" height="2"/><rect class="cls-1" x="43.31" y="17.72" width="5.69" height="2"/><rect class="cls-1" x="43.31" y="24" width="5.69" height="2"/><rect class="cls-1" x="43.31" y="30.28" width="5.69" height="2"/><rect class="cls-1" x="43.31" y="36.55" width="5.69" height="2"/><rect class="cls-1" x="1" y="11.45" width="5.69" height="2"/><rect class="cls-1" x="1" y="17.72" width="5.69" height="2"/><rect class="cls-1" x="1" y="24" width="5.69" height="2"/><rect class="cls-1" x="1" y="30.28" width="5.69" height="2"/><rect class="cls-1" x="1" y="36.55" width="5.69" height="2"/></g></svg>