<svg xmlns="http://www.w3.org/2000/svg" viewBox="0 0 50 50"><defs><style>.cls-1{fill:#d86613;}</style></defs><title>Amazon-EC2_T3-Instance_light-bg_1</title><g id="Working"><path class="cls-1" d="M19.35,30.09v-8.8H16.11V19.44h8.78v1.85H21.65v8.8Z"/><path class="cls-1" d="M29.93,23.88a3.53,3.53,0,0,1,2.32.88,2.76,2.76,0,0,1,.84,2.1,3.21,3.21,0,0,1-.5,1.8,3.25,3.25,0,0,1-1.45,1.22,5.26,5.26,0,0,1-2.22.44A7.31,7.31,0,0,1,26,29.69V28a9.26,9.26,0,0,0,2.83.59,2.35,2.35,0,0,0,1.5-.42,1.54,1.54,0,0,0,.51-1.24,1.25,1.25,0,0,0-.47-1.07,2.55,2.55,0,0,0-1.48-.34l-.68,0-.75.07V24.16l2.75-3H26.15V19.44h6.48v1.69Z"/><path class="cls-1" d="M44.31,44.31H5.69V5.69H44.31Zm-36.62-2H42.31V7.69H7.69Z"/><rect class="cls-1" x="11.21" y="1" width="2" height="5.69"/><rect class="cls-1" x="17.48" y="1" width="2" height="5.69"/><rect class="cls-1" x="23.76" y="1" width="2" height="5.69"/><rect class="cls-1" x="30.04" y="1" width="2" height="5.69"/><rect class="cls-1" x="36.32" y="1" width="2" height="5.69"/><rect class="cls-1" x="11.21" y="43.31" width="2" height="5.69"/><rect class="cls-1" x="17.48" y="43.31" width="2" height="5.69"/><rect class="cls-1" x="23.76" y="43.31" width="2" height="5.69"/><rect class="cls-1" x="30.04" y="43.31" width="2" height="5.69"/><rect class="cls-1" x="36.32" y="43.31" width="2" height="5.69"/><rect class="cls-1" x="43.31" y="11.45" width="5.69" height="2"/><rect class="cls-1" x="43.31" y="17.72" width="5.69" height="2"/><rect class="cls-1" x="43.31" y="24" width="5.69" height="2"/><rect class="cls-1" x="43.31" y="30.28" width="5.69" height="2"/><rect class="cls-1" x="43.31" y="36.55" width="5.69" height="2"/><rect class="cls-1" x="1" y="11.45" width="5.69" height="2"/><rect class="cls-1" x="1" y="17.72" width="5.69" height="2"/><rect class="cls-1" x="1" y="24" width="5.69" height="2"/><rect class="cls-1" x="1" y="30.28" width="5.69" height="2"/><rect class="cls-1" x="1" y="36.55" width="5.69" height="2"/></g></svg>