<svg xmlns="http://www.w3.org/2000/svg" viewBox="0 0 50 50"><defs><style>.cls-1{fill:#d86613;}</style></defs><title>Amazon-EC2_I3-Instance_light-bg</title><g id="Working"><path class="cls-1" d="M19.35,30.09V19.44h2.3V30.09Z"/><path class="cls-1" d="M27.79,23.88a3.51,3.51,0,0,1,2.32.88,2.73,2.73,0,0,1,.85,2.1,3.18,3.18,0,0,1-1.95,3,5.34,5.34,0,0,1-2.23.44,7.26,7.26,0,0,1-2.9-.63V28a9.26,9.26,0,0,0,2.83.59,2.3,2.3,0,0,0,1.49-.42,1.54,1.54,0,0,0,.52-1.24,1.23,1.23,0,0,0-.48-1.07,2.53,2.53,0,0,0-1.47-.34l-.69,0-.74.07V24.16l2.75-3H24V19.44H30.5v1.69Z"/><path class="cls-1" d="M44.31,44.31H5.69V5.69H44.31Zm-36.62-2H42.31V7.69H7.69Z"/><rect class="cls-1" x="11.21" y="1" width="2" height="5.69"/><rect class="cls-1" x="17.48" y="1" width="2" height="5.69"/><rect class="cls-1" x="23.76" y="1" width="2" height="5.69"/><rect class="cls-1" x="30.04" y="1" width="2" height="5.69"/><rect class="cls-1" x="36.32" y="1" width="2" height="5.69"/><rect class="cls-1" x="11.21" y="43.31" width="2" height="5.69"/><rect class="cls-1" x="17.48" y="43.31" width="2" height="5.69"/><rect class="cls-1" x="23.76" y="43.31" width="2" height="5.69"/><rect class="cls-1" x="30.04" y="43.31" width="2" height="5.69"/><rect class="cls-1" x="36.32" y="43.31" width="2" height="5.69"/><rect class="cls-1" x="43.31" y="11.45" width="5.69" height="2"/><rect class="cls-1" x="43.31" y="17.72" width="5.69" height="2"/><rect class="cls-1" x="43.31" y="24" width="5.69" height="2"/><rect class="cls-1" x="43.31" y="30.28" width="5.69" height="2"/><rect class="cls-1" x="43.31" y="36.55" width="5.69" height="2"/><rect class="cls-1" x="1" y="11.45" width="5.69" height="2"/><rect class="cls-1" x="1" y="17.72" width="5.69" height="2"/><rect class="cls-1" x="1" y="24" width="5.69" height="2"/><rect class="cls-1" x="1" y="30.28" width="5.69" height="2"/><rect class="cls-1" x="1" y="36.55" width="5.69" height="2"/></g></svg>