<svg xmlns="http://www.w3.org/2000/svg" viewBox="0 0 50 50"><defs><style>.cls-1{fill:#d86613;}</style></defs><title>Amazon-EC2_P2-Instance_light-bg</title><g id="Working"><path class="cls-1" d="M19.22,26.2v3.89H17V19.44H21a3.7,3.7,0,0,1,2.63.91,3.22,3.22,0,0,1,1,2.47,3.22,3.22,0,0,1-1,2.48,3.7,3.7,0,0,1-2.63.9Zm0-1.72h1.56A1.57,1.57,0,0,0,22,24.06a1.72,1.72,0,0,0,.41-1.24A1.71,1.71,0,0,0,22,21.59a1.58,1.58,0,0,0-1.18-.43H19.22Z"/><path class="cls-1" d="M26.37,20.41a6.13,6.13,0,0,1,1.69-.94,5.47,5.47,0,0,1,1.82-.29,3.29,3.29,0,0,1,2.34.82,2.78,2.78,0,0,1,.88,2.15,3.71,3.71,0,0,1-.44,1.66,9.87,9.87,0,0,1-1.42,1.94c-.64.72-1.51,1.57-2.59,2.56h4.88v1.78H26.1V28.43q2-2,2.94-3.1a11.33,11.33,0,0,0,1.35-1.78,2.62,2.62,0,0,0,.38-1.25,1.17,1.17,0,0,0-.36-.91,1.32,1.32,0,0,0-.95-.33,4.19,4.19,0,0,0-1.47.3,7.85,7.85,0,0,0-1.62.88Z"/><path class="cls-1" d="M44.31,44.31H5.69V5.69H44.31Zm-36.62-2H42.31V7.69H7.69Z"/><rect class="cls-1" x="11.21" y="1" width="2" height="5.69"/><rect class="cls-1" x="17.48" y="1" width="2" height="5.69"/><rect class="cls-1" x="23.76" y="1" width="2" height="5.69"/><rect class="cls-1" x="30.04" y="1" width="2" height="5.69"/><rect class="cls-1" x="36.32" y="1" width="2" height="5.69"/><rect class="cls-1" x="11.21" y="43.31" width="2" height="5.69"/><rect class="cls-1" x="17.48" y="43.31" width="2" height="5.69"/><rect class="cls-1" x="23.76" y="43.31" width="2" height="5.69"/><rect class="cls-1" x="30.04" y="43.31" width="2" height="5.69"/><rect class="cls-1" x="36.32" y="43.31" width="2" height="5.69"/><rect class="cls-1" x="43.31" y="11.45" width="5.69" height="2"/><rect class="cls-1" x="43.31" y="17.72" width="5.69" height="2"/><rect class="cls-1" x="43.31" y="24" width="5.69" height="2"/><rect class="cls-1" x="43.31" y="30.28" width="5.69" height="2"/><rect class="cls-1" x="43.31" y="36.55" width="5.69" height="2"/><rect class="cls-1" x="1" y="11.45" width="5.69" height="2"/><rect class="cls-1" x="1" y="17.72" width="5.69" height="2"/><rect class="cls-1" x="1" y="24" width="5.69" height="2"/><rect class="cls-1" x="1" y="30.28" width="5.69" height="2"/><rect class="cls-1" x="1" y="36.55" width="5.69" height="2"/></g></svg>