<svg xmlns="http://www.w3.org/2000/svg" viewBox="0 0 50 50"><defs><style>.cls-1{fill:#d86613;}</style></defs><title>Amazon-EC2_D2-Instance_light-bg</title><g id="Working"><path class="cls-1" d="M16.27,30.09V19.44h3.82a4.77,4.77,0,0,1,3.67,1.38A5.59,5.59,0,0,1,25,24.76a5.63,5.63,0,0,1-1.28,3.94,4.67,4.67,0,0,1-3.62,1.39Zm2.3-8.86v7.08h1.32c1.86,0,2.78-1.13,2.78-3.4v-.3c0-2.26-.93-3.38-2.79-3.38Z"/><path class="cls-1" d="M27.08,20.41a6,6,0,0,1,1.68-.94,5.56,5.56,0,0,1,1.82-.29,3.3,3.3,0,0,1,2.35.82,2.81,2.81,0,0,1,.88,2.15,3.61,3.61,0,0,1-.45,1.66A9.38,9.38,0,0,1,32,25.75a35.61,35.61,0,0,1-2.6,2.56h4.89v1.78H26.8V28.43q2-2,2.95-3.1a11.33,11.33,0,0,0,1.35-1.78,2.6,2.6,0,0,0,.37-1.25,1.16,1.16,0,0,0-.35-.91,1.34,1.34,0,0,0-.95-.33,4.28,4.28,0,0,0-1.48.3,7.79,7.79,0,0,0-1.61.88Z"/><path class="cls-1" d="M44.31,44.31H5.69V5.69H44.31Zm-36.62-2H42.31V7.69H7.69Z"/><rect class="cls-1" x="11.21" y="1" width="2" height="5.69"/><rect class="cls-1" x="17.48" y="1" width="2" height="5.69"/><rect class="cls-1" x="23.76" y="1" width="2" height="5.69"/><rect class="cls-1" x="30.04" y="1" width="2" height="5.69"/><rect class="cls-1" x="36.32" y="1" width="2" height="5.69"/><rect class="cls-1" x="11.21" y="43.31" width="2" height="5.69"/><rect class="cls-1" x="17.48" y="43.31" width="2" height="5.69"/><rect class="cls-1" x="23.76" y="43.31" width="2" height="5.69"/><rect class="cls-1" x="30.04" y="43.31" width="2" height="5.69"/><rect class="cls-1" x="36.32" y="43.31" width="2" height="5.69"/><rect class="cls-1" x="43.31" y="11.45" width="5.69" height="2"/><rect class="cls-1" x="43.31" y="17.72" width="5.69" height="2"/><rect class="cls-1" x="43.31" y="24" width="5.69" height="2"/><rect class="cls-1" x="43.31" y="30.28" width="5.69" height="2"/><rect class="cls-1" x="43.31" y="36.55" width="5.69" height="2"/><rect class="cls-1" x="1" y="11.45" width="5.69" height="2"/><rect class="cls-1" x="1" y="17.72" width="5.69" height="2"/><rect class="cls-1" x="1" y="24" width="5.69" height="2"/><rect class="cls-1" x="1" y="30.28" width="5.69" height="2"/><rect class="cls-1" x="1" y="36.55" width="5.69" height="2"/></g></svg>