<svg xmlns="http://www.w3.org/2000/svg" viewBox="0 0 50 50"><defs><style>.cls-1{fill:#d86613;}</style></defs><title>Amazon-EC2_T3a-Instance_light-bg</title><g id="Working"><path class="cls-1" d="M15.15,30.09v-8.8H11.91V19.44H20.7v1.85H17.46v8.8Z"/><path class="cls-1" d="M25.74,23.88a3.55,3.55,0,0,1,2.32.88,2.76,2.76,0,0,1,.84,2.1,3.18,3.18,0,0,1-1.95,3,5.31,5.31,0,0,1-2.23.44,7.26,7.26,0,0,1-2.9-.63V28a9.26,9.26,0,0,0,2.83.59,2.3,2.3,0,0,0,1.49-.42,1.51,1.51,0,0,0,.52-1.24,1.23,1.23,0,0,0-.48-1.07,2.53,2.53,0,0,0-1.47-.34l-.69,0-.74.07V24.16l2.75-3H22V19.44h6.48v1.69Z"/><path class="cls-1" d="M35.46,30.09l-.18-.69a4,4,0,0,1-1.1.68,3.2,3.2,0,0,1-1.21.25,2.54,2.54,0,0,1-1.82-.64A2.27,2.27,0,0,1,30.47,28a2.3,2.3,0,0,1,.37-1.3,2.45,2.45,0,0,1,1.06-.88,3.72,3.72,0,0,1,1.62-.32,7,7,0,0,1,1.63.2V24.9a1.29,1.29,0,0,0-.29-1,1.65,1.65,0,0,0-1.07-.26,9.69,9.69,0,0,0-2.79.47V22.65a5.59,5.59,0,0,1,1.43-.46A8.59,8.59,0,0,1,34.18,22a3.46,3.46,0,0,1,2.32.64,2.53,2.53,0,0,1,.73,2v5.44ZM33.6,28.83a2.08,2.08,0,0,0,.79-.17,3,3,0,0,0,.76-.46V26.86a7.87,7.87,0,0,0-1.21-.1c-.89,0-1.34.35-1.34,1.07a.91.91,0,0,0,1,1Z"/><path class="cls-1" d="M44.31,44.31H5.69V5.69H44.31Zm-36.62-2H42.31V7.69H7.69Z"/><rect class="cls-1" x="11.21" y="1" width="2" height="5.69"/><rect class="cls-1" x="17.48" y="1" width="2" height="5.69"/><rect class="cls-1" x="23.76" y="1" width="2" height="5.69"/><rect class="cls-1" x="30.04" y="1" width="2" height="5.69"/><rect class="cls-1" x="36.32" y="1" width="2" height="5.69"/><rect class="cls-1" x="11.21" y="43.31" width="2" height="5.69"/><rect class="cls-1" x="17.48" y="43.31" width="2" height="5.69"/><rect class="cls-1" x="23.76" y="43.31" width="2" height="5.69"/><rect class="cls-1" x="30.04" y="43.31" width="2" height="5.69"/><rect class="cls-1" x="36.32" y="43.31" width="2" height="5.69"/><rect class="cls-1" x="43.31" y="11.45" width="5.69" height="2"/><rect class="cls-1" x="43.31" y="17.72" width="5.69" height="2"/><rect class="cls-1" x="43.31" y="24" width="5.69" height="2"/><rect class="cls-1" x="43.31" y="30.28" width="5.69" height="2"/><rect class="cls-1" x="43.31" y="36.55" width="5.69" height="2"/><rect class="cls-1" x="1" y="11.45" width="5.69" height="2"/><rect class="cls-1" x="1" y="17.72" width="5.69" height="2"/><rect class="cls-1" x="1" y="24" width="5.69" height="2"/><rect class="cls-1" x="1" y="30.28" width="5.69" height="2"/><rect class="cls-1" x="1" y="36.55" width="5.69" height="2"/></g></svg>