<svg xmlns="http://www.w3.org/2000/svg" viewBox="0 0 50 50"><defs><style>.cls-1{fill:#d86613;}</style></defs><title>Amazon-EC2_T3-Instance_light-bg</title><g id="Working"><path class="cls-1" d="M19.35,30.09v-8.8H16.11V19.44h8.78v1.85H21.65v8.8Z"/><path class="cls-1" d="M26.2,20.41a6,6,0,0,1,1.68-.94,5.51,5.51,0,0,1,1.82-.29A3.29,3.29,0,0,1,32,20a2.78,2.78,0,0,1,.88,2.15,3.59,3.59,0,0,1-.44,1.66,10.19,10.19,0,0,1-1.41,1.94c-.65.72-1.51,1.57-2.6,2.56h4.89v1.78H25.92V28.43q2-2,2.94-3.1a11.33,11.33,0,0,0,1.35-1.78,2.62,2.62,0,0,0,.38-1.25,1.2,1.2,0,0,0-.35-.91,1.36,1.36,0,0,0-.95-.33,4.2,4.2,0,0,0-1.48.3,7.79,7.79,0,0,0-1.61.88Z"/><path class="cls-1" d="M44.31,44.31H5.69V5.69H44.31Zm-36.62-2H42.31V7.69H7.69Z"/><rect class="cls-1" x="11.21" y="1" width="2" height="5.69"/><rect class="cls-1" x="17.48" y="1" width="2" height="5.69"/><rect class="cls-1" x="23.76" y="1" width="2" height="5.69"/><rect class="cls-1" x="30.04" y="1" width="2" height="5.69"/><rect class="cls-1" x="36.32" y="1" width="2" height="5.69"/><rect class="cls-1" x="11.21" y="43.31" width="2" height="5.69"/><rect class="cls-1" x="17.48" y="43.31" width="2" height="5.69"/><rect class="cls-1" x="23.76" y="43.31" width="2" height="5.69"/><rect class="cls-1" x="30.04" y="43.31" width="2" height="5.69"/><rect class="cls-1" x="36.32" y="43.31" width="2" height="5.69"/><rect class="cls-1" x="43.31" y="11.45" width="5.69" height="2"/><rect class="cls-1" x="43.31" y="17.72" width="5.69" height="2"/><rect class="cls-1" x="43.31" y="24" width="5.69" height="2"/><rect class="cls-1" x="43.31" y="30.28" width="5.69" height="2"/><rect class="cls-1" x="43.31" y="36.55" width="5.69" height="2"/><rect class="cls-1" x="1" y="11.45" width="5.69" height="2"/><rect class="cls-1" x="1" y="17.72" width="5.69" height="2"/><rect class="cls-1" x="1" y="24" width="5.69" height="2"/><rect class="cls-1" x="1" y="30.28" width="5.69" height="2"/><rect class="cls-1" x="1" y="36.55" width="5.69" height="2"/></g></svg>