<svg xmlns="http://www.w3.org/2000/svg" viewBox="0 0 50 50"><defs><style>.cls-1{fill:#d86613;}</style></defs><title>Amazon-EC2_C4-Instance_light-bg</title><g id="Working"><path class="cls-1" d="M24.75,29.81a7.69,7.69,0,0,1-2.78.48A5.21,5.21,0,0,1,18,28.9a5.68,5.68,0,0,1-1.33-4.08,5.7,5.7,0,0,1,1.4-4.12A5.19,5.19,0,0,1,22,19.24a7.77,7.77,0,0,1,2.56.43v1.82a10.75,10.75,0,0,0-2.29-.31,3.11,3.11,0,0,0-2.38.84,3.68,3.68,0,0,0-.79,2.59V25a3.7,3.7,0,0,0,.76,2.56,3.07,3.07,0,0,0,2.35.83A12.24,12.24,0,0,0,24.75,28Z"/><path class="cls-1" d="M30.52,30.09V28h-5V26.34l4.82-6.9h2.09v6.82h1.35V28H32.47v2.11Zm0-3.83V22.18l-2.85,4.08Z"/><path class="cls-1" d="M44.31,44.31H5.69V5.69H44.31Zm-36.62-2H42.31V7.69H7.69Z"/><rect class="cls-1" x="11.21" y="1" width="2" height="5.69"/><rect class="cls-1" x="17.48" y="1" width="2" height="5.69"/><rect class="cls-1" x="23.76" y="1" width="2" height="5.69"/><rect class="cls-1" x="30.04" y="1" width="2" height="5.69"/><rect class="cls-1" x="36.32" y="1" width="2" height="5.69"/><rect class="cls-1" x="11.21" y="43.31" width="2" height="5.69"/><rect class="cls-1" x="17.48" y="43.31" width="2" height="5.69"/><rect class="cls-1" x="23.76" y="43.31" width="2" height="5.69"/><rect class="cls-1" x="30.04" y="43.31" width="2" height="5.69"/><rect class="cls-1" x="36.32" y="43.31" width="2" height="5.69"/><rect class="cls-1" x="43.31" y="11.45" width="5.69" height="2"/><rect class="cls-1" x="43.31" y="17.72" width="5.69" height="2"/><rect class="cls-1" x="43.31" y="24" width="5.69" height="2"/><rect class="cls-1" x="43.31" y="30.28" width="5.69" height="2"/><rect class="cls-1" x="43.31" y="36.55" width="5.69" height="2"/><rect class="cls-1" x="1" y="11.45" width="5.69" height="2"/><rect class="cls-1" x="1" y="17.72" width="5.69" height="2"/><rect class="cls-1" x="1" y="24" width="5.69" height="2"/><rect class="cls-1" x="1" y="30.28" width="5.69" height="2"/><rect class="cls-1" x="1" y="36.55" width="5.69" height="2"/></g></svg>