<svg xmlns="http://www.w3.org/2000/svg" viewBox="0 0 50 50"><defs><style>.cls-1{fill:#d86613;}</style></defs><title>Amazon-EC2_X1e-Instance_light-bg</title><g id="Working"><path class="cls-1" d="M18.53,30.09,16.3,26.16l-2.2,3.93H11.57L15,24.56l-3.19-5.12h2.59l2,3.46,1.95-3.46h2.53l-3.24,5.09,3.5,5.56Z"/><path class="cls-1" d="M25.34,30.09v-8.4l-2.73.86V20.8l3-1.36h2V30.09Z"/><path class="cls-1" d="M32.93,26.71a2,2,0,0,0,.62,1.47,2.71,2.71,0,0,0,1.73.45,9.24,9.24,0,0,0,2.4-.38v1.49a5.64,5.64,0,0,1-1.28.43,7.84,7.84,0,0,1-1.55.15,3.92,3.92,0,0,1-3-1.06,4.31,4.31,0,0,1-1-3.1,4.36,4.36,0,0,1,1-3.06A3.65,3.65,0,0,1,34.68,22a3.14,3.14,0,0,1,2.35.84,3.28,3.28,0,0,1,.82,2.39,7.42,7.42,0,0,1-.05.76,4.65,4.65,0,0,1-.11.71Zm1.68-3.15a1.58,1.58,0,0,0-1.19.45,2.06,2.06,0,0,0-.5,1.32h3v-.26C35.93,24.06,35.49,23.56,34.61,23.56Z"/><path class="cls-1" d="M44.31,44.31H5.69V5.69H44.31Zm-36.62-2H42.31V7.69H7.69Z"/><rect class="cls-1" x="11.21" y="1" width="2" height="5.69"/><rect class="cls-1" x="17.48" y="1" width="2" height="5.69"/><rect class="cls-1" x="23.76" y="1" width="2" height="5.69"/><rect class="cls-1" x="30.04" y="1" width="2" height="5.69"/><rect class="cls-1" x="36.32" y="1" width="2" height="5.69"/><rect class="cls-1" x="11.21" y="43.31" width="2" height="5.69"/><rect class="cls-1" x="17.48" y="43.31" width="2" height="5.69"/><rect class="cls-1" x="23.76" y="43.31" width="2" height="5.69"/><rect class="cls-1" x="30.04" y="43.31" width="2" height="5.69"/><rect class="cls-1" x="36.32" y="43.31" width="2" height="5.69"/><rect class="cls-1" x="43.31" y="11.45" width="5.69" height="2"/><rect class="cls-1" x="43.31" y="17.72" width="5.69" height="2"/><rect class="cls-1" x="43.31" y="24" width="5.69" height="2"/><rect class="cls-1" x="43.31" y="30.28" width="5.69" height="2"/><rect class="cls-1" x="43.31" y="36.55" width="5.69" height="2"/><rect class="cls-1" x="1" y="11.45" width="5.69" height="2"/><rect class="cls-1" x="1" y="17.72" width="5.69" height="2"/><rect class="cls-1" x="1" y="24" width="5.69" height="2"/><rect class="cls-1" x="1" y="30.28" width="5.69" height="2"/><rect class="cls-1" x="1" y="36.55" width="5.69" height="2"/></g></svg>