<svg xmlns="http://www.w3.org/2000/svg" viewBox="0 0 50 50"><defs><style>.cls-1{fill:#3b48cc;}</style></defs><title>Amazon-ElastiCache_Cache-Node_light-bg</title><g id="Working"><path class="cls-1" d="M15.08,17.24a3.84,3.84,0,0,1-1.72.38c-2.18,0-3.26-1.44-3.26-4.31a5.29,5.29,0,0,1,.84-3.24A2.9,2.9,0,0,1,13.41,9,4.06,4.06,0,0,1,15,9.29v1A4.89,4.89,0,0,0,13.54,10a1.9,1.9,0,0,0-1.67.75,4.2,4.2,0,0,0-.53,2.41v.29a4.32,4.32,0,0,0,.51,2.4,1.85,1.85,0,0,0,1.65.75,6.35,6.35,0,0,0,1.58-.31Z"/><path class="cls-1" d="M20.5,17.5l-.58-2.28H17.37L16.8,17.5H15.59L18,9.05h1.28l2.44,8.45Zm-2.91-3.18h2.1l-1.05-4.13Z"/><path class="cls-1" d="M27.25,17.24a3.79,3.79,0,0,1-1.71.38q-3.27,0-3.27-4.31a5.29,5.29,0,0,1,.84-3.24A2.92,2.92,0,0,1,25.59,9a4.1,4.1,0,0,1,1.57.33v1A5,5,0,0,0,25.72,10a1.93,1.93,0,0,0-1.68.75,4.28,4.28,0,0,0-.53,2.41v.29a4.23,4.23,0,0,0,.52,2.4,1.84,1.84,0,0,0,1.64.75,6.27,6.27,0,0,0,1.58-.31Z"/><path class="cls-1" d="M32.82,17.5V13.66H29.75V17.5H28.57V9.05h1.18V12.7h3.07V9.05H34V17.5Z"/><path class="cls-1" d="M35.83,17.5V9.05h4.28V10H37v2.66h2.56v.95H37v2.94h3.09v.95Z"/><path class="cls-1" d="M42.05,48.5H8A6.45,6.45,0,0,1,1.5,42.05V8A6.45,6.45,0,0,1,8,1.5h34.1A6.45,6.45,0,0,1,48.5,8v34.1A6.45,6.45,0,0,1,42.05,48.5ZM8,3.5A4.46,4.46,0,0,0,3.5,8v34.1A4.46,4.46,0,0,0,8,46.5h34.1a4.46,4.46,0,0,0,4.45-4.45V8A4.46,4.46,0,0,0,42.05,3.5Z"/></g></svg>