<svg xmlns="http://www.w3.org/2000/svg" viewBox="0 0 50 50"><defs><style>.cls-1{fill:#3b48cc;}</style></defs><title>Amazon-DynamoDB_Global-Secondary-Index_light-bg</title><g id="Working"><path class="cls-1" d="M11,11.94H1.5V1.5H11Zm-7.5-2H9V3.5H3.5Z"/><path class="cls-1" d="M11,24.12H1.5V13.69H11Zm-7.5-2H9V15.69H3.5Z"/><path class="cls-1" d="M11,36.31H1.5V25.88H11Zm-7.5-2H9V27.88H3.5Z"/><path class="cls-1" d="M11,48.5H1.5V38.06H11Zm-7.5-2H9V40.06H3.5Z"/><path class="cls-1" d="M22.25,11.94h-9.5V1.5h9.5Zm-7.5-2h5.5V3.5h-5.5Z"/><path class="cls-1" d="M22.25,24.12h-9.5V13.69h9.5Zm-7.5-2h5.5V15.69h-5.5Z"/><path class="cls-1" d="M22.25,36.31h-9.5V25.88h9.5Zm-7.5-2h5.5V27.88h-5.5Z"/><path class="cls-1" d="M22.25,48.5h-9.5V38.06h9.5Zm-7.5-2h5.5V40.06h-5.5Z"/><path class="cls-1" d="M48.5,11.94H24V1.5H48.5ZM26,9.94H46.5V3.5H26Z"/><path class="cls-1" d="M48.5,24.12H24V13.69H48.5Zm-22.5-2H46.5V15.69H26Z"/><path class="cls-1" d="M48.5,36.31H24V25.88H48.5Zm-22.5-2H46.5V27.88H26Z"/><path class="cls-1" d="M48.5,48.5H24V38.06H48.5ZM26,46.5H46.5V40.06H26Z"/></g></svg>