<svg xmlns="http://www.w3.org/2000/svg" width="50" height="50" viewBox="0 0 50 50"><title>DynamoDB_DAX_light-bg</title><g id="Working"><path d="M12.49,24.26V13.12c2.86,2.1,8.38,3.21,13.66,3.21s10.72-1.08,13.6-3.15v2.65h2V10.41a2.88,2.88,0,0,0,.07-.59c0-4.27-6.31-7.13-15.7-7.13-8.54,0-15.5,3.05-15.6,6.82l0,.31h0V24.26Zm0-14.68c0-2,5.3-4.89,13.6-4.89,7.68,0,13.7,2.25,13.7,5.13,0,1.89-5.2,4.51-13.67,4.51S12.6,11.76,12.49,9.88Zm18.41,33,.3,2a33.84,33.84,0,0,1-5.08.37c-7.78,0-15.66-2.18-15.66-6.35h2c0,2.06,5.61,4.35,13.66,4.35A31.18,31.18,0,0,0,30.93,42.59ZM49.56,26.51a1,1,0,0,0-.9-.56H43.83l3.56-7.16a1,1,0,0,0-.89-1.45H36.94a1,1,0,0,0-.91.59L30.65,29.76a1,1,0,0,0,.91,1.42h5.16L32.78,46.06a1,1,0,0,0,.53,1.15,1,1,0,0,0,1.23-.29L49.46,27.56A1,1,0,0,0,49.56,26.51ZM36,41.77l3-11.34a1,1,0,0,0-1-1.25h-4.9l4.46-9.84h7.3L41.31,26.5a1,1,0,0,0,0,1,1,1,0,0,0,.85.47h4.42ZM23.71,32.19v-3h-3v-2h3v-3h2v3h3v2h-3v3Zm-5.56-3H1.34v-2H18.15ZM7.56,34.73h24v2h-24Z" style="fill:#3b48cc"/></g></svg>