<svg xmlns="http://www.w3.org/2000/svg" viewBox="0 0 50 50"><defs><style>.cls-1{fill:#3b48cc;}</style></defs><title>Amazon-ElastiCache_For-Memcached_light-bg</title><g id="Working"><path class="cls-1" d="M25,46.15c-6.3,0-12.69-1.68-12.69-4.88V19.68h2V41.27c0,1,3.77,2.87,10.68,2.87s10.69-1.9,10.69-2.87V19.68h2V41.27C37.71,44.47,31.32,46.15,25,46.15Z"/><path class="cls-1" d="M16.77,30.68c-3.68-1.13-4.45-2.69-4.45-3.8h2c0,.38.81,1.2,3,1.88Z"/><path class="cls-1" d="M34.29,30.33l-.73-1.87c1.69-.67,2.14-1.31,2.14-1.58h2C37.71,27.84,37.12,29.22,34.29,30.33Z"/><path class="cls-1" d="M16.77,37.88c-3.68-1.13-4.45-2.7-4.45-3.81h2c0,.38.81,1.2,3,1.89Z"/><path class="cls-1" d="M34.29,37.52l-.73-1.87c1.69-.66,2.14-1.31,2.14-1.58h2C37.71,35,37.12,36.41,34.29,37.52Z"/><path class="cls-1" d="M25,24.56c-6.31,0-12.7-1.67-12.7-4.88s6.39-4.89,12.7-4.89,12.69,1.68,12.69,4.89S31.32,24.56,25,24.56Zm0-7.76c-6.92,0-10.69,1.9-10.69,2.88S18.1,22.56,25,22.56s10.68-1.9,10.68-2.88S31.93,16.8,25,16.8Z"/><path class="cls-1" d="M6.84,29.47h-2V26.63a1,1,0,0,1,1-1h4.68v2H6.84Z"/><path class="cls-1" d="M45.16,30.47H39.54v-2h4.62v-.84H39.54v-2h5.62a1,1,0,0,1,1,1v2.84A1,1,0,0,1,45.16,30.47Z"/><path class="cls-1" d="M48,30.47H39.54v-2H47V13.85a4.11,4.11,0,0,1,0-7.78V5.86H3v.2A4,4,0,0,1,5.85,10,4,4,0,0,1,3,13.86V28.47h7.48v2H2a1,1,0,0,1-1-1V13a1,1,0,0,1,1-1,1.94,1.94,0,0,0,1.81-2A1.94,1.94,0,0,0,2,7.92a1,1,0,0,1-1-1V4.85a1,1,0,0,1,1-1H48a1,1,0,0,1,1,1V6.92a1,1,0,0,1-1,1,1.93,1.93,0,0,0-1.78,2A1.93,1.93,0,0,0,48,12a1,1,0,0,1,1,1V29.47A1,1,0,0,1,48,30.47Z"/><path class="cls-1" d="M18.07,14.32h-2V8.64a1,1,0,0,1,1-1h6.55a1,1,0,0,1,1,1v4.73h-2V9.64H18.07Z"/><path class="cls-1" d="M34,14.32H32V9.64H27.44v3.73h-2V8.64a1,1,0,0,1,1-1H33a1,1,0,0,1,1,1Z"/><path class="cls-1" d="M42.35,23.85H39.54v-2h1.81V9.64H36.8v5.63h-2V8.64a1,1,0,0,1,1-1h6.55a1,1,0,0,1,1,1v14.2A1,1,0,0,1,42.35,23.85Z"/><path class="cls-1" d="M10.51,23.85H7.71a1,1,0,0,1-1-1V8.64a1,1,0,0,1,1-1h6.55a1,1,0,0,1,1,1v6.63h-2V9.64H8.71v12.2h1.8Z"/><polygon class="cls-1" points="29.68 40.59 29.68 30.77 26.31 37.3 24.25 37.3 20.99 30.8 20.99 40.59 18.89 40.59 18.89 27.47 21.44 27.47 25.34 35.29 29.31 27.47 31.78 27.47 31.78 40.59 29.68 40.59"/></g></svg>