<svg xmlns="http://www.w3.org/2000/svg" xmlns:xlink="http://www.w3.org/1999/xlink" viewBox="0 0 75 75"><defs><style>.cls-1{fill:url(#BlueGradient);}.cls-2{fill:#fff;}</style><linearGradient id="BlueGradient" x1="806.75" y1="-382.13" x2="806.75" y2="-232.13" gradientTransform="translate(825.13 390.78) rotate(-135)" gradientUnits="userSpaceOnUse"><stop offset="0" stop-color="#2e27ad"/><stop offset="1" stop-color="#527fff"/></linearGradient></defs><title>Amazon-DocumentDB-with-MongoDB-compatibility</title><g id="Reference"><rect id="Blue_Gradient" data-name="Blue Gradient" class="cls-1" width="75" height="75"/><g id="Icon_Test" data-name="Icon Test"><path class="cls-2" d="M40.06,51.25h-1.3a1,1,0,0,1-1-1V28a1,1,0,0,1,1-1H50.57a1,1,0,0,1,.74.34l3,3.61L52.9,32.24,50.13,29H39.72V49.33h.34Z"/><path class="cls-2" d="M58.32,54.87H42.16a1,1,0,0,1-1-1V31.62a1,1,0,0,1,1-1H54.63a1,1,0,0,1,.68.28L59,34.64a1,1,0,0,1,.28.68V53.91A1,1,0,0,1,58.32,54.87ZM43.12,53H57.36V35.72l-3.13-3.14H43.12Z"/><path class="cls-2" d="M58.32,37.28H53.63a1,1,0,0,1-1-1v-4.7h1.92v3.73h3.73Z"/><path class="cls-2" d="M49.38,49.65h-.63a1.62,1.62,0,0,1-1.28-.58,2.68,2.68,0,0,1-.41-2C47,45.29,46,45,46,45a1,1,0,0,1,0-1.87c.09,0,1-.37,1-2.13,0-1.05.49-2.22,1.66-2.26h.66v1.93H49A1.2,1.2,0,0,0,49,41a4.42,4.42,0,0,1-1,3.08,4.41,4.41,0,0,1,1,3.07.55.55,0,0,1,0,.18,2.06,2.06,0,0,0,0,.43h.43Z"/><path class="cls-2" d="M52.07,49.65V47.73h.37a1.73,1.73,0,0,0,0-.32,4.42,4.42,0,0,1,1-3.08,4.41,4.41,0,0,1-1-3.07,1.1,1.1,0,0,1,0-.18,2,2,0,0,0,0-.42h-.43V38.73h.63a1.65,1.65,0,0,1,1.28.58,2.7,2.7,0,0,1,.41,2c0,1.7,1,2,1,2.06a1,1,0,0,1,.69,1,.93.93,0,0,1-.71.91c-.08,0-1,.37-1,2.14,0,1.05-.49,2.22-1.66,2.25Z"/><path class="cls-2" d="M32.23,27.2c-8,0-16.51-2.46-16.51-7s8.5-7,16.51-7,16.51,2.46,16.51,7S40.23,27.2,32.23,27.2Zm0-12.12c-8.6,0-14.59,2.69-14.59,5.1s6,5.09,14.59,5.09,14.58-2.68,14.58-5.09S40.82,15.08,32.23,15.08Z"/><rect class="cls-2" x="46.81" y="20.18" width="1.92" height="6.06"/><path class="cls-2" d="M32.23,61.84c-8,0-16.51-2.46-16.51-7V20.18h1.92V54.82c0,2.41,6,5.1,14.59,5.1s14.58-2.69,14.58-5.1h1.93C48.74,59.38,40.23,61.84,32.23,61.84Z"/><path class="cls-2" d="M32.26,39.31c-9.39,0-16.47-3-16.47-7h1.93c0,2.41,6,5.1,14.54,5.1a37.82,37.82,0,0,0,4.31-.25l.22,1.91A39.27,39.27,0,0,1,32.26,39.31Z"/><path class="cls-2" d="M32.26,51.21c-9.39,0-16.47-3-16.47-7h1.93c0,2.41,6,5.1,14.54,5.1a38.51,38.51,0,0,0,4.31-.24L36.78,51A42.21,42.21,0,0,1,32.26,51.21Z"/></g></g></svg>