<svg xmlns="http://www.w3.org/2000/svg" viewBox="0 0 50 50"><defs><style>.cls-1{fill:#3b48cc;}</style></defs><title>Amazon-Redshift_Dense-Storage-Node_light-bg</title><g id="Working"><rect class="cls-1" x="15.21" y="12.69" width="12.08" height="2" transform="translate(-3.87 16.47) rotate(-39.11)"/><rect class="cls-1" x="20.25" y="30.27" width="2" height="12.08" transform="translate(-20.33 29.89) rotate(-50.89)"/><rect class="cls-1" x="30.56" y="23.03" width="2" height="15.81" transform="translate(-7.77 51.08) rotate(-71.54)"/><rect class="cls-1" x="23.66" y="18.07" width="15.81" height="2" transform="translate(-4.41 10.98) rotate(-18.47)"/><rect class="cls-1" x="33.84" y="9.05" width="2" height="21.58" transform="translate(-5.12 23.14) rotate(-34.38)"/><path class="cls-1" d="M42.49,13.6c-3.36-2.64-8.65-6.5-8.7-6.54L35,5.44c.06,0,5.38,3.92,8.77,6.59Z"/><path class="cls-1" d="M34.38,11.94H25.94a1,1,0,0,1-1-1V2.5a1,1,0,0,1,1-1h8.44a1,1,0,0,1,1,1v8.44A1,1,0,0,1,34.38,11.94Zm-7.44-2h6.44V3.5H26.94Z"/><rect class="cls-1" x="24.05" y="29.16" width="21.58" height="2" transform="translate(-9.72 41.89) rotate(-55.63)"/><path class="cls-1" d="M35,44.56l-1.17-1.62c.05,0,5.34-3.9,8.7-6.54L43.73,38C40.34,40.64,35,44.52,35,44.56Z"/><path class="cls-1" d="M34.38,48.5H25.94a1,1,0,0,1-1-1V39.06a1,1,0,0,1,1-1h8.44a1,1,0,0,1,1,1V47.5A1,1,0,0,1,34.38,48.5Zm-7.44-2h6.44V40.06H26.94Z"/><path class="cls-1" d="M47.5,38.19H39.06a1,1,0,0,1-1-1V28.75a1,1,0,0,1,1-1H47.5a1,1,0,0,1,1,1v8.44A1,1,0,0,1,47.5,38.19Zm-7.44-2H46.5V29.75H40.06Z"/><path class="cls-1" d="M47.5,22.25H39.06a1,1,0,0,1-1-1V12.81a1,1,0,0,1,1-1H47.5a1,1,0,0,1,1,1v8.44A1,1,0,0,1,47.5,22.25Zm-7.44-2H46.5V13.81H40.06Z"/><path class="cls-1" d="M24.06,33.5H2.5a1,1,0,0,1-1-1v-15a1,1,0,0,1,1-1H24.06a1,1,0,0,1,1,1v15A1,1,0,0,1,24.06,33.5ZM3.5,31.5H23.06v-13H3.5Z"/><path class="cls-1" d="M7.39,29.06V20.62H9.94a2.81,2.81,0,0,1,2.39,1.07,5.14,5.14,0,0,1,.81,3.14,5.19,5.19,0,0,1-.8,3.16A2.74,2.74,0,0,1,10,29.06ZM9.1,21.92v5.84h.72A1.28,1.28,0,0,0,11,27.07,4.42,4.42,0,0,0,11.39,25v-.25A4.36,4.36,0,0,0,11,22.6a1.28,1.28,0,0,0-1.2-.68Z"/><path class="cls-1" d="M15.8,25.3a3.76,3.76,0,0,1-1.29-1.05,2.33,2.33,0,0,1-.39-1.37,2.39,2.39,0,0,1,.34-1.29,2.33,2.33,0,0,1,.93-.86,3,3,0,0,1,1.36-.3,4.55,4.55,0,0,1,1.91.44v1.29a5.15,5.15,0,0,0-1.74-.36,1.16,1.16,0,0,0-.8.25.89.89,0,0,0-.3.71,1,1,0,0,0,.19.62,2.39,2.39,0,0,0,.73.54l.66.35a5.08,5.08,0,0,1,1,.69,2.11,2.11,0,0,1,.55.76,2.57,2.57,0,0,1,.18,1,2.35,2.35,0,0,1-.75,1.84,3,3,0,0,1-2.07.68,4.94,4.94,0,0,1-1.14-.14,3.88,3.88,0,0,1-1-.35V27.48a6.24,6.24,0,0,0,1,.28,4.81,4.81,0,0,0,1,.12,1.3,1.3,0,0,0,.89-.27,1,1,0,0,0,.3-.79,1,1,0,0,0-.21-.64,2.45,2.45,0,0,0-.71-.53Z"/></g></svg>