<svg xmlns="http://www.w3.org/2000/svg" xmlns:xlink="http://www.w3.org/1999/xlink" width="75" height="75" viewBox="0 0 75 75"><defs><linearGradient id="linear-gradient" x1="-20.83" y1="131.69" x2="-20.83" y2="-18.31" gradientTransform="translate(92.31 12.14) rotate(45)" gradientUnits="userSpaceOnUse"><stop offset="0" stop-color="#2e27ad"/><stop offset="1" stop-color="#527fff"/></linearGradient></defs><title>Amazon-Managed-Apache-Cassandra-Service</title><g id="Working"><rect id="Green_Gradient" data-name="Green Gradient" width="75" height="75" style="fill:url(#linear-gradient)"/><rect x="11" y="10" width="54" height="56" style="fill:none"/><rect width="75" height="75" style="fill:none"/><g id="Page-1"><g id="White"><path id="Amazon-Managed-Apache-Service_64_White" data-name="Amazon-Managed-Apache-Service 64 White" d="M65,26l-3.22.76,2.52,2.82a2.4,2.4,0,0,1-.75.91A2.3,2.3,0,0,1,62.5,31l-2-3.39-2,3.39a2.31,2.31,0,0,1-1.06-.44,2.43,2.43,0,0,1-.76-.91l2.52-2.82L56.06,26a3.2,3.2,0,0,1-.05-.45,2.31,2.31,0,0,1,.73-1.68l3,1.49-.39-3.62a2.93,2.93,0,0,1,1.17-.25,2.83,2.83,0,0,1,1.18.25l-.39,3.62,3-1.49A2.16,2.16,0,0,1,65,26ZM49.93,49.28a16.21,16.21,0,0,0,5-.9V50.3a12.25,12.25,0,0,1-5.12,1.15q-4.76,0-7.22-2.73c-1.64-1.81-2.46-4.49-2.46-8s.84-6.17,2.5-8,4.09-2.76,7.26-2.76a11.85,11.85,0,0,1,4.8,1v1.93A14.74,14.74,0,0,0,50,32.1q-3.88,0-5.63,2c-1.17,1.32-1.75,3.45-1.75,6.37V41q0,4.26,1.77,6.29c1.17,1.35,3,2,5.53,2ZM28,10c10.77,0,18,3.1,18,6s-7.23,6-18,6S11,19,11,16s6.36-6,17-6ZM46,59c0,2.9-7.23,6-18,6-8.36,0-17-2.24-17-6V48.88C14,51.44,20.08,53,28,53a46.55,46.55,0,0,0,11.24-1.26l-.48-1.94A44.65,44.65,0,0,1,28,51c-8.36,0-17-2.23-17-6V34.8c3,2.58,9.17,4.2,17,4.2a46.67,46.67,0,0,0,11.25-1.27l-.5-1.94A44.6,44.6,0,0,1,28,37c-10.64,0-17-3-17-6V19.8c3,2.58,9.17,4.2,17,4.2,7.26,0,14.58-1.47,18-4.3V23h2V16c0-5.25-10.06-8-20-8C16.81,8,9,11.29,9,16V59c0,4.78,7.64,8,19,8,9.94,0,20-2.75,20-8V57H46Z" style="fill:#fff;fill-rule:evenodd"/></g></g></g></svg>