<svg xmlns="http://www.w3.org/2000/svg" viewBox="0 0 75 75"><defs><style>.cls-1{fill:#3b48cc;}.cls-2{fill:#fff;}</style></defs><title>Amazon-RDS-on-VMware_light-bg</title><g id="Reference"><rect id="Blue_Light_BG" data-name="Blue Light BG" class="cls-1" width="75" height="75"/><g id="Product_Icon" data-name="Product Icon"><path class="cls-2" d="M35.48,22.8c-4.81,0-10,1.22-10,3.9V43.3c0,2.68,5.17,3.9,10,3.9s10-1.22,10-3.9V26.7C45.46,24,40.28,22.8,35.48,22.8Zm-8,3.9c.15-.57,3-1.9,8-1.9s7.84,1.33,8,1.9c-.13.58-3,1.9-8,1.9s-7.86-1.33-8-1.89Zm16,16.59c-.12.57-3,1.91-8,1.91s-7.86-1.34-8-1.9V40.65a19.29,19.29,0,0,0,8,1.46,19.31,19.31,0,0,0,7.94-1.42Zm0-5c-.38.61-3.2,1.82-7.94,1.82-5,0-7.83-1.32-8-1.9h0V35a19.29,19.29,0,0,0,8,1.46A19.31,19.31,0,0,0,43.46,35Zm0-5.7c-.38.61-3.19,1.82-7.94,1.82-5,0-7.83-1.32-8-1.9h0V29.17a19.44,19.44,0,0,0,8,1.43,19.5,19.5,0,0,0,8-1.43Zm2-.08a1.72,1.72,0,0,1,0,.39v-.39Zm0,5.7a1.72,1.72,0,0,1,0,.39v-.39ZM21.11,43.13c-5.47-2-8.61-5-8.61-8.35s3.14-6.36,8.61-8.36l.69,1.88c-4.57,1.67-7.3,4.09-7.3,6.48s2.73,4.81,7.3,6.47Zm28.23.19-.64-1.89c4.88-1.67,7.8-4.15,7.8-6.65s-2.92-5-7.8-6.66l.64-1.89c5.82,2,9.16,5.1,9.16,8.55S55.16,41.34,49.34,43.32ZM58.5,13.5v8h-2V15.92l-6.29,6.29-1.42-1.42,6.29-6.29H49.5v-2h8A1,1,0,0,1,58.5,13.5ZM22.21,20.79l-1.42,1.42L14.5,15.92V21.5h-2v-8a1,1,0,0,1,1-1h8v2H15.92ZM15.92,55.5H21.5v2h-8a1,1,0,0,1-1-1v-8h2v5.58l6.29-6.29,1.42,1.42Zm45.58,7h-24a1,1,0,0,1-1-1V53.79a1,1,0,0,1,.34-.75l5-4.36a1,1,0,0,1,1.27,0l3.39,2.63V47.5a1,1,0,0,1,1-1h14a1,1,0,0,1,1,1v14A1,1,0,0,1,61.5,62.5Zm-23-2h22v-12h-12v4.81a1,1,0,0,1-.56.89,1,1,0,0,1-1-.1l-4.35-3.37-4,3.52Zm14-7h-2v-3h2Zm3,0h-2v-3h2Zm3,0h-2v-3h2Z"/></g></g></svg>