<svg xmlns="http://www.w3.org/2000/svg" width="50" height="50" viewBox="0 0 50 50"><title>Amazon-RDS_SQL-Server_instance-alt_light-bg</title><g id="Working"><path d="M4.86,10.6A2.92,2.92,0,0,1,3.8,9.73a1.82,1.82,0,0,1-.32-1.11,2,2,0,0,1,.28-1.07,1.84,1.84,0,0,1,.76-.7A2.5,2.5,0,0,1,5.64,6.6,3.75,3.75,0,0,1,7.21,7V8a4.42,4.42,0,0,0-1.43-.29,1,1,0,0,0-.66.21.73.73,0,0,0-.24.58A.8.8,0,0,0,5,9a1.77,1.77,0,0,0,.6.45l.54.29a4.15,4.15,0,0,1,.82.55,1.93,1.93,0,0,1,.45.63,2.09,2.09,0,0,1,.14.83A1.92,1.92,0,0,1,7,13.28a2.43,2.43,0,0,1-1.69.56,4.4,4.4,0,0,1-1-.11,3.19,3.19,0,0,1-.78-.29v-1a5.19,5.19,0,0,0,.83.23,4.45,4.45,0,0,0,.8.1,1.06,1.06,0,0,0,.73-.23.83.83,0,0,0,.25-.64A.79.79,0,0,0,6,11.32a1.93,1.93,0,0,0-.58-.43Z" style="fill:#3b48cc"/><path d="M8.44,10.22a4.26,4.26,0,0,1,.73-2.67,2.42,2.42,0,0,1,2.05-1,2.45,2.45,0,0,1,2,1A4.33,4.33,0,0,1,14,10.22a4.87,4.87,0,0,1-.46,2.22,2.45,2.45,0,0,1-1.31,1.23,2.58,2.58,0,0,0,.69.39,4.06,4.06,0,0,0,.93.2V15.4a4.67,4.67,0,0,1-1.52-.53,4.5,4.5,0,0,1-1.25-1,2.41,2.41,0,0,1-1.95-1A4.36,4.36,0,0,1,8.44,10.22Zm1.44,0a4,4,0,0,0,.34,1.86,1.11,1.11,0,0,0,2,0,4.11,4.11,0,0,0,.34-1.86,4.06,4.06,0,0,0-.33-1.87,1.09,1.09,0,0,0-1-.62,1.07,1.07,0,0,0-1,.62A4.06,4.06,0,0,0,9.88,10.22Z" style="fill:#3b48cc"/><path d="M15.18,13.69V6.76h1.4v5.82h2.36v1.11Z" style="fill:#3b48cc"/><path d="M22.88,10.6a2.92,2.92,0,0,1-1.06-.87,1.82,1.82,0,0,1-.32-1.11,2,2,0,0,1,.28-1.07,1.84,1.84,0,0,1,.76-.7,2.5,2.5,0,0,1,1.12-.25A3.75,3.75,0,0,1,25.23,7V8a4.47,4.47,0,0,0-1.43-.29,1,1,0,0,0-.66.21.73.73,0,0,0-.24.58.8.8,0,0,0,.15.5,1.77,1.77,0,0,0,.6.45l.53.29a4,4,0,0,1,.83.55,1.93,1.93,0,0,1,.45.63,2.09,2.09,0,0,1,.14.83A1.92,1.92,0,0,1,25,13.28a2.44,2.44,0,0,1-1.69.56,4.4,4.4,0,0,1-.95-.11,3.19,3.19,0,0,1-.78-.29v-1a5.19,5.19,0,0,0,.83.23,4.45,4.45,0,0,0,.8.1,1,1,0,0,0,.72-.23.8.8,0,0,0,.25-.64.79.79,0,0,0-.17-.53,1.93,1.93,0,0,0-.58-.43Z" style="fill:#3b48cc"/><path d="M27.56,11.48a1.63,1.63,0,0,0,.3,1,1.17,1.17,0,0,0,.88.3,2.67,2.67,0,0,0,.56-.08,5.67,5.67,0,0,0,.67-.2v.92a2.43,2.43,0,0,1-.69.28,3.88,3.88,0,0,1-.82.09c-1.43,0-2.14-.89-2.14-2.67a3.25,3.25,0,0,1,.52-2,1.81,1.81,0,0,1,1.52-.7c1.13,0,1.7.7,1.7,2.08a4.72,4.72,0,0,1-.1,1Zm.76-2.1c-.49,0-.74.41-.76,1.24H28.9v-.23a1.51,1.51,0,0,0-.15-.78A.45.45,0,0,0,28.32,9.38Z" style="fill:#3b48cc"/><path d="M31,13.69V8.58h1.12l.14.65a2.63,2.63,0,0,1,.6-.54,1.27,1.27,0,0,1,.63-.17,1.87,1.87,0,0,1,.32,0V9.77a2.55,2.55,0,0,0-.53,0,1.82,1.82,0,0,0-.91.24v3.73Z" style="fill:#3b48cc"/><path d="M35.82,13.69,34.27,8.58h1.46l.73,3.64.77-3.64h1.4L37.1,13.69Z" style="fill:#3b48cc"/><path d="M40.27,11.48a1.62,1.62,0,0,0,.31,1,1.14,1.14,0,0,0,.87.3,2.67,2.67,0,0,0,.57-.08,5.53,5.53,0,0,0,.66-.2v.92a2.24,2.24,0,0,1-.68.28,3.91,3.91,0,0,1-.83.09c-1.42,0-2.14-.89-2.14-2.67a3.24,3.24,0,0,1,.53-2,1.81,1.81,0,0,1,1.52-.7c1.13,0,1.69.7,1.69,2.08a4.1,4.1,0,0,1-.1,1ZM41,9.38c-.48,0-.73.41-.76,1.24h1.34v-.23a1.52,1.52,0,0,0-.14-.78A.45.45,0,0,0,41,9.38Z" style="fill:#3b48cc"/><path d="M43.71,13.69V8.58h1.12l.16.65a2.25,2.25,0,0,1,.59-.54,1.29,1.29,0,0,1,.63-.17,1.65,1.65,0,0,1,.31,0V9.77a2.4,2.4,0,0,0-.52,0,1.86,1.86,0,0,0-.92.24v3.73Z" style="fill:#3b48cc"/><path d="M43.55,0H6.45A6.45,6.45,0,0,0,0,6.45v37.1A6.45,6.45,0,0,0,6.45,50h37.1A6.45,6.45,0,0,0,50,43.55V6.45A6.45,6.45,0,0,0,43.55,0ZM48,43.55A4.46,4.46,0,0,1,43.55,48H6.45A4.46,4.46,0,0,1,2,43.55V6.45A4.46,4.46,0,0,1,6.45,2h37.1A4.46,4.46,0,0,1,48,6.45Z" style="fill:#3b48cc"/></g></svg>