<svg xmlns="http://www.w3.org/2000/svg" width="50" height="50" viewBox="0 0 50 50"><title>Amazon-RDS_PIOP_light-bg</title><g id="Working"><path d="M23.85,35.5H21v9h1.78V41.16h1.07a2.46,2.46,0,0,0,1.9-.76,3.37,3.37,0,0,0,0-4.14A2.46,2.46,0,0,0,23.85,35.5Zm.55,3.93a.88.88,0,0,1-.77.38h-.85v-3h.85a.88.88,0,0,1,.77.38,1.86,1.86,0,0,1,.27,1.1A1.88,1.88,0,0,1,24.4,39.43Z" style="fill:#3b48cc"/><rect x="27.94" y="35.5" width="1.82" height="9.01" style="fill:#3b48cc"/><path d="M35,35.3a3.16,3.16,0,0,0-2.66,1.23A5.56,5.56,0,0,0,31.35,40a5.59,5.59,0,0,0,.95,3.47,3.48,3.48,0,0,0,5.33,0A5.59,5.59,0,0,0,38.58,40a5.56,5.56,0,0,0-.95-3.46A3.17,3.17,0,0,0,35,35.3Zm1.3,7.11a1.44,1.44,0,0,1-2.6,0A5.27,5.27,0,0,1,33.22,40a5.25,5.25,0,0,1,.43-2.43A1.39,1.39,0,0,1,35,36.77a1.41,1.41,0,0,1,1.32.79A5.4,5.4,0,0,1,36.7,40,5.14,5.14,0,0,1,36.26,42.41Z" style="fill:#3b48cc"/><path d="M43,35.5H40.11v9h1.78V41.16H43a2.46,2.46,0,0,0,1.9-.76,3.37,3.37,0,0,0,0-4.14A2.46,2.46,0,0,0,43,35.5Zm.55,3.93a.88.88,0,0,1-.77.38h-.85v-3h.85a.88.88,0,0,1,.77.38,1.86,1.86,0,0,1,.27,1.1A1.88,1.88,0,0,1,43.51,39.43Z" style="fill:#3b48cc"/><path d="M43.55,0H6.45A6.45,6.45,0,0,0,0,6.45v37.1A6.45,6.45,0,0,0,6.45,50h37.1A6.45,6.45,0,0,0,50,43.55V6.45A6.45,6.45,0,0,0,43.55,0ZM48,43.55A4.46,4.46,0,0,1,43.55,48H6.45A4.46,4.46,0,0,1,2,43.55V6.45A4.46,4.46,0,0,1,6.45,2h37.1A4.46,4.46,0,0,1,48,6.45Z" style="fill:#3b48cc"/></g></svg>