<svg xmlns="http://www.w3.org/2000/svg" width="50" height="50" viewBox="0 0 50 50"><title>Amazon-RDS_PostgreSQL_instance-alt_light-bg</title><g id="Working"><path d="M6.34,6.78a1.79,1.79,0,0,0-1-.27h-2v6.93h.94V10.75H5.35a1.7,1.7,0,0,0,1.35-.58,2.26,2.26,0,0,0,.52-1.54A2.57,2.57,0,0,0,7,7.53,1.76,1.76,0,0,0,6.34,6.78ZM6,9.62a.86.86,0,0,1-.73.36h-1V7.28h1A.88.88,0,0,1,6,7.63a1.63,1.63,0,0,1,.27,1A1.62,1.62,0,0,1,6,9.62Z" style="fill:#3b48cc"/><path d="M10,8.24a1.7,1.7,0,0,0-1.46.69,3.28,3.28,0,0,0-.5,2,3.29,3.29,0,0,0,.5,2,1.7,1.7,0,0,0,1.46.69,1.69,1.69,0,0,0,1.45-.69,3.29,3.29,0,0,0,.51-2,3.28,3.28,0,0,0-.51-2A1.69,1.69,0,0,0,10,8.24Zm.77,4.1a.83.83,0,0,1-.77.47.81.81,0,0,1-.77-.47,3.09,3.09,0,0,1-.25-1.44,3.12,3.12,0,0,1,.25-1.44A.81.81,0,0,1,10,9a.83.83,0,0,1,.77.46A3.26,3.26,0,0,1,11,10.9,3.23,3.23,0,0,1,10.73,12.34Z" style="fill:#3b48cc"/><path d="M14.75,10.7l-.6-.3a1.4,1.4,0,0,1-.46-.33.64.64,0,0,1-.13-.42.63.63,0,0,1,.19-.49A.8.8,0,0,1,14.29,9a2.63,2.63,0,0,1,1.13.26V8.56a2.49,2.49,0,0,0-1.21-.32,1.51,1.51,0,0,0-1.09.4,1.4,1.4,0,0,0-.41,1,1.43,1.43,0,0,0,.89,1.38l.65.32c.37.18.56.41.56.7a.71.71,0,0,1-.21.55.77.77,0,0,1-.58.2,3.73,3.73,0,0,1-1.35-.31v.68a2.73,2.73,0,0,0,1.41.37,1.58,1.58,0,0,0,1.15-.42A1.5,1.5,0,0,0,15.65,12a1.41,1.41,0,0,0-.21-.79A1.65,1.65,0,0,0,14.75,10.7Z" style="fill:#3b48cc"/><path d="M17.77,12.57a.88.88,0,0,1-.12-.53V9.13h1.16V8.37H17.65V7h-.77l-.13,1.44L16,8.51v.62h.71v3A1.57,1.57,0,0,0,17,13.16a1.14,1.14,0,0,0,.92.34,2.38,2.38,0,0,0,.91-.18v-.69a1.91,1.91,0,0,1-.62.1A.51.51,0,0,1,17.77,12.57Z" style="fill:#3b48cc"/><path d="M22.38,8.78a1.79,1.79,0,0,0-1.21-.54,1.36,1.36,0,0,0-1.21.7,3.39,3.39,0,0,0-.46,1.89,4.07,4.07,0,0,0,.2,1.32,2,2,0,0,0,.57.87,1.31,1.31,0,0,0,.88.32,1.67,1.67,0,0,0,1.14-.51v.37A2.34,2.34,0,0,1,22,14.46a1,1,0,0,1-.89.38,3.47,3.47,0,0,1-1.32-.31v.72a2.74,2.74,0,0,0,1.4.37c1.33,0,2-.82,2-2.47V8.37h-.79Zm-.09,3.41a1.39,1.39,0,0,1-.87.38.77.77,0,0,1-.73-.44,2.7,2.7,0,0,1-.25-1.33,3.11,3.11,0,0,1,.23-1.36A.75.75,0,0,1,21.38,9a1.51,1.51,0,0,1,.91.36Z" style="fill:#3b48cc"/><path d="M26,8.48a1.87,1.87,0,0,0-.57.5l-.09-.61h-.78v5.07h.94V9.56a1.64,1.64,0,0,1,1-.37,2.74,2.74,0,0,1,.45,0V8.36a1.66,1.66,0,0,0-.32,0A1.47,1.47,0,0,0,26,8.48Z" style="fill:#3b48cc"/><path d="M29.36,8.23a1.67,1.67,0,0,0-1.43.69,3.36,3.36,0,0,0-.5,2,3.34,3.34,0,0,0,.5,2,1.79,1.79,0,0,0,1.52.66,2.64,2.64,0,0,0,1.42-.38V12.5a3.06,3.06,0,0,1-1.26.31,1.13,1.13,0,0,1-1-.4,2.27,2.27,0,0,1-.32-1.3h2.56a3.6,3.6,0,0,0,.08-.83,2.47,2.47,0,0,0-.4-1.53A1.42,1.42,0,0,0,29.36,8.23Zm.77,2.11c0,.05,0,.09,0,.13h-1.8a2.26,2.26,0,0,1,.29-1.14A.82.82,0,0,1,29.32,9a.67.67,0,0,1,.61.3,1.72,1.72,0,0,1,.2.95Z" style="fill:#3b48cc"/><path d="M34.39,9.71l-.71-.36a1.86,1.86,0,0,1-.63-.49,1.07,1.07,0,0,1-.19-.63,1.05,1.05,0,0,1,.28-.75,1,1,0,0,1,.74-.27,3.35,3.35,0,0,1,1.43.31V6.74a3.8,3.8,0,0,0-1.5-.36,1.94,1.94,0,0,0-1.39.52,1.87,1.87,0,0,0-.53,1.38,1.86,1.86,0,0,0,.3,1.08,2.64,2.64,0,0,0,1,.78l.72.36a1.24,1.24,0,0,1,.79,1.13,1,1,0,0,1-1.14,1.13,4.12,4.12,0,0,1-1.59-.35v.77a2.35,2.35,0,0,0,.74.3,3.22,3.22,0,0,0,.88.11A2.11,2.11,0,0,0,35.08,13a2,2,0,0,0,.57-1.47,1.9,1.9,0,0,0-.3-1.08A2.41,2.41,0,0,0,34.39,9.71Z" style="fill:#3b48cc"/><path d="M41.36,12.31A5,5,0,0,0,41.84,10a4.47,4.47,0,0,0-.69-2.66,2.45,2.45,0,0,0-3.86,0A4.47,4.47,0,0,0,36.6,10a5.6,5.6,0,0,0,.29,1.89,2.68,2.68,0,0,0,.84,1.24,2.4,2.4,0,0,0,1.35.48,5,5,0,0,0,1.25,1,4.2,4.2,0,0,0,1.44.47V14.2a4,4,0,0,1-1-.23,3.41,3.41,0,0,1-.83-.49A2.25,2.25,0,0,0,41.36,12.31Zm-2.14.46A1.32,1.32,0,0,1,38,12.06,4.24,4.24,0,0,1,37.59,10,4.24,4.24,0,0,1,38,7.9a1.41,1.41,0,0,1,2.44,0A4.13,4.13,0,0,1,40.85,10a4.13,4.13,0,0,1-.41,2.08A1.31,1.31,0,0,1,39.22,12.77Z" style="fill:#3b48cc"/><polygon points="44.16 6.51 43.19 6.51 43.19 13.44 46.67 13.44 46.67 12.63 44.16 12.63 44.16 6.51" style="fill:#3b48cc"/><path d="M43.55,0H6.45A6.45,6.45,0,0,0,0,6.45v37.1A6.45,6.45,0,0,0,6.45,50h37.1A6.45,6.45,0,0,0,50,43.55V6.45A6.45,6.45,0,0,0,43.55,0ZM48,43.55A4.46,4.46,0,0,1,43.55,48H6.45A4.46,4.46,0,0,1,2,43.55V6.45A4.46,4.46,0,0,1,6.45,2h37.1A4.46,4.46,0,0,1,48,6.45Z" style="fill:#3b48cc"/></g></svg>