<svg xmlns="http://www.w3.org/2000/svg" width="50" height="50" viewBox="0 0 50 50"><title>Amazon-RDS_PIOP_light-bg</title><g id="Working"><path d="M17.51,40.66V44H15.72V35h2.85a2.49,2.49,0,0,1,1.91.76,3.39,3.39,0,0,1,0,4.15,2.49,2.49,0,0,1-1.91.76Zm0-1.35h.84a.88.88,0,0,0,.77-.38,2.4,2.4,0,0,0,0-2.21.88.88,0,0,0-.77-.38h-.84Z" style="fill:#3b48cc"/><path d="M22.67,44V35h1.82v9Z" style="fill:#3b48cc"/><path d="M26.07,39.49A5.59,5.59,0,0,1,27,36a3.19,3.19,0,0,1,2.67-1.22A3.18,3.18,0,0,1,32.35,36a5.59,5.59,0,0,1,.95,3.47A5.59,5.59,0,0,1,32.35,43,3.48,3.48,0,0,1,27,43,5.59,5.59,0,0,1,26.07,39.49Zm1.88,0a5.2,5.2,0,0,0,.44,2.42,1.44,1.44,0,0,0,2.6,0,5.33,5.33,0,0,0,.44-2.42A5.25,5.25,0,0,0,31,37.06a1.48,1.48,0,0,0-2.62,0A5.25,5.25,0,0,0,28,39.49Z" style="fill:#3b48cc"/><path d="M36.62,40.66V44H34.83V35h2.85a2.49,2.49,0,0,1,1.91.76,3.43,3.43,0,0,1,0,4.15,2.49,2.49,0,0,1-1.91.76Zm0-1.35h.84a.88.88,0,0,0,.77-.38,2.4,2.4,0,0,0,0-2.21.88.88,0,0,0-.77-.38h-.84Z" style="fill:#3b48cc"/><path d="M43.16,40a3.78,3.78,0,0,1-1.38-1.11,2.49,2.49,0,0,1-.42-1.46A2.64,2.64,0,0,1,41.72,36a2.58,2.58,0,0,1,1-.91,3.19,3.19,0,0,1,1.45-.31,4.87,4.87,0,0,1,2,.46v1.38a5.44,5.44,0,0,0-1.86-.39,1.24,1.24,0,0,0-.86.28,1,1,0,0,0-.31.75,1.06,1.06,0,0,0,.2.66,2.44,2.44,0,0,0,.78.57l.7.38a5.2,5.2,0,0,1,1.07.73,2.28,2.28,0,0,1,.59.81,2.93,2.93,0,0,1,.18,1.09,2.47,2.47,0,0,1-.8,1.95,3.11,3.11,0,0,1-2.2.73,5.09,5.09,0,0,1-1.22-.15,3.64,3.64,0,0,1-1-.38V42.31a8,8,0,0,0,1.09.31,5.43,5.43,0,0,0,1,.12,1.4,1.4,0,0,0,1-.29,1.08,1.08,0,0,0,.33-.84,1,1,0,0,0-.23-.68,2.49,2.49,0,0,0-.76-.57Z" style="fill:#3b48cc"/><path d="M43.55,50H6.45A6.45,6.45,0,0,1,0,43.55V6.45A6.45,6.45,0,0,1,6.45,0h37.1A6.45,6.45,0,0,1,50,6.45v37.1A6.45,6.45,0,0,1,43.55,50ZM6.45,2A4.46,4.46,0,0,0,2,6.45v37.1A4.46,4.46,0,0,0,6.45,48h37.1A4.46,4.46,0,0,0,48,43.55V6.45A4.46,4.46,0,0,0,43.55,2Z" style="fill:#3b48cc"/></g></svg>