<svg xmlns="http://www.w3.org/2000/svg" width="50" height="50" viewBox="0 0 50 50"><title>Amazon-RDS_MySQL_instance-alt_light-bg</title><g id="Working"><polygon points="11.38 13.22 9.52 8.18 7.44 8.18 7.44 17.18 9.06 17.18 9.06 10.91 10.57 14.96 12.12 14.96 13.64 10.87 13.64 17.18 15.26 17.18 15.26 8.18 13.23 8.18 11.38 13.22" style="fill:#3b48cc"/><path d="M19.08,15.43l-1-4.89H16.2l2.14,6.77,0,.24a1.47,1.47,0,0,1-.33.87,1,1,0,0,1-.74.26,5,5,0,0,1-.62-.05v1.19a3.6,3.6,0,0,0,1.14.2,1.67,1.67,0,0,0,1.2-.43,3.16,3.16,0,0,0,.73-1.39l2.19-7.66H20.06Z" style="fill:#3b48cc"/><path d="M27,12.8A5.2,5.2,0,0,0,26,12.08l-.7-.38a2.57,2.57,0,0,1-.77-.57,1,1,0,0,1-.2-.67.93.93,0,0,1,.31-.75,1.27,1.27,0,0,1,.86-.27,5.43,5.43,0,0,1,1.85.39V8.45a4.82,4.82,0,0,0-2-.47,3.22,3.22,0,0,0-1.45.32,2.42,2.42,0,0,0-1,.91,2.6,2.6,0,0,0-.36,1.38,2.46,2.46,0,0,0,.41,1.46,4,4,0,0,0,1.38,1.12l.7.38a2.37,2.37,0,0,1,.76.56,1.18,1.18,0,0,1-.1,1.52,1.32,1.32,0,0,1-.94.29,5.52,5.52,0,0,1-1-.12,7,7,0,0,1-1.08-.3v1.36a3.89,3.89,0,0,0,1,.38,5.73,5.73,0,0,0,1.23.14,3.17,3.17,0,0,0,2.2-.72,2.51,2.51,0,0,0,.8-2,2.9,2.9,0,0,0-.19-1.08A2.41,2.41,0,0,0,27,12.8Z" style="fill:#3b48cc"/><path d="M35.55,15.57a6.37,6.37,0,0,0,.59-2.9,5.56,5.56,0,0,0-1-3.46,3.5,3.5,0,0,0-5.33,0,5.56,5.56,0,0,0-.95,3.46,5.7,5.7,0,0,0,.9,3.42,3.11,3.11,0,0,0,2.54,1.29A5.86,5.86,0,0,0,34,18.72a6,6,0,0,0,2,.69V17.93a5.64,5.64,0,0,1-1.21-.26,3.33,3.33,0,0,1-.9-.51A3.19,3.19,0,0,0,35.55,15.57Zm-1.72-.48a1.44,1.44,0,0,1-2.6,0,5.14,5.14,0,0,1-.44-2.42,5.4,5.4,0,0,1,.42-2.43,1.41,1.41,0,0,1,1.32-.79,1.4,1.4,0,0,1,1.31.79,5.25,5.25,0,0,1,.43,2.43A5.27,5.27,0,0,1,33.83,15.09Z" style="fill:#3b48cc"/><polygon points="39.49 8.18 37.67 8.18 37.67 17.18 42.56 17.18 42.56 15.74 39.49 15.74 39.49 8.18" style="fill:#3b48cc"/><path d="M43.55,0H6.45A6.45,6.45,0,0,0,0,6.45v37.1A6.45,6.45,0,0,0,6.45,50h37.1A6.45,6.45,0,0,0,50,43.55V6.45A6.45,6.45,0,0,0,43.55,0ZM48,43.55A4.46,4.46,0,0,1,43.55,48H6.45A4.46,4.46,0,0,1,2,43.55V6.45A4.46,4.46,0,0,1,6.45,2h37.1A4.46,4.46,0,0,1,48,6.45Z" style="fill:#3b48cc"/></g></svg>