<svg xmlns="http://www.w3.org/2000/svg" viewBox="0 0 50 50"><defs><style>.cls-1{fill:#3b48cc;}</style></defs><title>Amazon-DynamoDB_Item_light-bg</title><g id="Working"><path class="cls-1" d="M48.5,24.12H25.88V1.5H48.5Zm-20.62-2H46.5V3.5H27.88Z"/><path class="cls-1" d="M48.5,48.5H25.88V25.88H48.5Zm-20.62-2H46.5V27.88H27.88Z"/><path class="cls-1" d="M24.12,24.12H1.5V1.5H24.12Zm-20.62-2H22.12V3.5H3.5Z"/><path class="cls-1" d="M24.12,48.5H1.5V25.88H24.12ZM3.5,46.5H22.12V27.88H3.5Z"/><path class="cls-1" d="M37.19,20.38a7.57,7.57,0,1,1,7.56-7.57A7.58,7.58,0,0,1,37.19,20.38Zm0-13.13a5.57,5.57,0,1,0,5.56,5.56A5.58,5.58,0,0,0,37.19,7.25Z"/></g></svg>