<svg xmlns="http://www.w3.org/2000/svg" viewBox="0 0 75 75"><defs><style>.cls-1{fill:#3b48cc;}.cls-2{fill:#fff;}</style></defs><title>Amazon-Timestream_light-bg</title><g id="Reference"><rect id="Blue_Light_BG" data-name="Blue Light BG" class="cls-1" width="75" height="75"/><g id="Product_Icon" data-name="Product Icon"><path class="cls-2" d="M31.68,26.75c-9.32,0-16.62-3-16.62-6.93s7.3-6.93,16.62-6.93,16.62,3,16.62,6.93S41,26.75,31.68,26.75Zm0-12.36c-8.91,0-15.12,2.86-15.12,5.43s6.21,5.43,15.12,5.43S46.8,22.39,46.8,19.82,40.59,14.39,31.68,14.39Z"/><rect class="cls-2" x="46.8" y="19.82" width="1.5" height="11.83"/><path class="cls-2" d="M31.68,62.11c-9.32,0-16.62-3-16.62-6.93V19.82h1.5V55.18c0,2.57,6.21,5.43,15.12,5.43S46.8,57.75,46.8,55.18V51.8h1.5v3.38C48.3,59.07,41,62.11,31.68,62.11Z"/><path class="cls-2" d="M31.72,39.12c-9.3,0-16.58-3-16.58-6.94h1.5c0,2.57,6.19,5.44,15.08,5.44a39.94,39.94,0,0,0,4.42-.25l.17,1.49A40.59,40.59,0,0,1,31.72,39.12Z"/><path class="cls-2" d="M31.72,51.27c-9.3,0-16.58-3.05-16.58-6.94h1.5c0,2.57,6.19,5.44,15.08,5.44a40.78,40.78,0,0,0,4.42-.25L36.3,51A41.09,41.09,0,0,1,31.72,51.27Z"/><path class="cls-2" d="M58.78,51.11H38.4a.74.74,0,0,1-.75-.75V30.82h1.5V49.61H58.78Z"/><rect class="cls-2" x="40.13" y="44.45" width="3.09" height="1.5" transform="translate(-19.76 42.71) rotate(-45)"/><polygon class="cls-2" points="45.48 42.46 44.42 41.4 46.46 39.35 51.55 39.35 58.25 32.66 59.31 33.72 52.18 40.85 47.08 40.85 45.48 42.46"/><polygon class="cls-2" points="47.13 37.16 44.64 34.67 40.22 34.67 40.22 33.17 45.26 33.17 47.13 35.04 49.01 33.17 51.45 33.17 54.22 35.94 53.16 37 50.83 34.67 49.63 34.67 47.13 37.16"/><rect class="cls-2" x="56.39" y="37.61" width="1.5" height="4.63" transform="translate(-11.49 52.1) rotate(-45)"/><polygon class="cls-2" points="57.33 48.44 56.27 47.38 57.72 45.93 56.27 44.48 57.33 43.42 59.84 45.93 57.33 48.44"/><polygon class="cls-2" points="47.5 47.72 40.05 40.27 41.11 39.21 47.5 45.6 50.41 42.69 52.9 45.18 58.78 45.18 58.78 46.68 52.28 46.68 50.41 44.81 47.5 47.72"/><polygon class="cls-2" points="59.94 42.74 56.39 42.74 56.39 41.24 58.44 41.24 58.44 39.19 59.94 39.19 59.94 42.74"/><polygon class="cls-2" points="59.94 35.32 58.44 35.32 58.44 33.27 56.39 33.27 56.39 31.77 59.94 31.77 59.94 35.32"/></g></g></svg>