<svg xmlns="http://www.w3.org/2000/svg" viewBox="0 0 50 50"><defs><style>.cls-1{fill:#3b48cc;}</style></defs><title>Amazon-ElastiCache_For-Redis_light-bg</title><g id="Working"><path class="cls-1" d="M25,46.15c-6.3,0-12.69-1.68-12.69-4.88V19.68h2V41.27c0,1,3.77,2.87,10.68,2.87s10.69-1.9,10.69-2.87V19.68h2V41.27C37.71,44.47,31.32,46.15,25,46.15Z"/><path class="cls-1" d="M18.8,31.19c-4.18-.83-6.48-2.36-6.48-4.31h2c0,.44,1.19,1.61,4.88,2.34Z"/><path class="cls-1" d="M32.35,30.93,31.86,29c2.8-.71,3.84-1.67,3.84-2.11h2C37.7,28.62,35.8,30.06,32.35,30.93Z"/><path class="cls-1" d="M25,24.56c-6.31,0-12.7-1.67-12.7-4.88s6.39-4.89,12.7-4.89,12.69,1.68,12.69,4.89S31.32,24.56,25,24.56Zm0-7.76c-6.92,0-10.69,1.9-10.69,2.88S18.1,22.56,25,22.56s10.68-1.9,10.68-2.88S31.93,16.8,25,16.8Z"/><path class="cls-1" d="M25,46.15c-6.31,0-12.7-1.68-12.7-4.88v-7.2a1,1,0,1,1,2,0c0,.44,1.2,1.61,4.88,2.35l-.4,2a14.72,14.72,0,0,1-4.48-1.54v4.42c0,1,3.78,2.87,10.7,2.87s10.68-1.9,10.68-2.87V36.84a12.55,12.55,0,0,1-3.35,1.28l-.49-1.94c2.8-.71,3.84-1.67,3.84-2.11a1,1,0,1,1,2,0v7.2C37.7,44.47,31.32,46.15,25,46.15Z"/><path class="cls-1" d="M6.84,29.22h-2V26.41a1,1,0,0,1,1-1h4.68v2H6.84Z"/><path class="cls-1" d="M45.16,30.22H39.54v-2h4.62v-.8H39.54v-2h5.62a1,1,0,0,1,1,1v2.81A1,1,0,0,1,45.16,30.22Z"/><path class="cls-1" d="M48,30.22H39.54v-2H47V13.77a4.07,4.07,0,0,1,0-7.72V5.86H3V6A4,4,0,0,1,5.85,9.91,4,4,0,0,1,3,13.78V28.21h7.48v2H2a1,1,0,0,1-1-1V12.92a1,1,0,0,1,1-1,1.91,1.91,0,0,0,1.81-2A1.92,1.92,0,0,0,2,7.9a1,1,0,0,1-1-1V4.85a1,1,0,0,1,1-1H48a1,1,0,0,1,1,1V6.9a1,1,0,0,1-1,1,1.93,1.93,0,0,0-1.79,2,1.92,1.92,0,0,0,1.79,2,1,1,0,0,1,1,1v16.3A1,1,0,0,1,48,30.22Z"/><path class="cls-1" d="M18.07,14.32h-2V8.64a1,1,0,0,1,1-1h6.55a1,1,0,0,1,1,1v4.73h-2V9.64H18.07Z"/><path class="cls-1" d="M34,14.32H32V9.64H27.44v3.73h-2V8.64a1,1,0,0,1,1-1H33a1,1,0,0,1,1,1Z"/><path class="cls-1" d="M42.35,23.66H39.54v-2h1.81v-12H36.8v5.54h-2V8.64a1,1,0,0,1,1-1h6.55a1,1,0,0,1,1,1v14A1,1,0,0,1,42.35,23.66Z"/><path class="cls-1" d="M10.51,23.66H7.71a1,1,0,0,1-1-1v-14a1,1,0,0,1,1-1h6.55a1,1,0,0,1,1,1v6.54h-2V9.64H8.71v12h1.8Z"/><path class="cls-1" d="M20.78,40.59V27.47h4.85a4.38,4.38,0,0,1,3.07,1.05,3.68,3.68,0,0,1,1.15,2.83,3.8,3.8,0,0,1-.65,2.22A4,4,0,0,1,27.32,35l3.35,5.6H28.39l-3-5.2H23.07v5.2Zm2.29-7h2.27a1.93,1.93,0,0,0,2.18-2.18,1.9,1.9,0,0,0-2.12-2.18H23.07Z"/></g></svg>