<svg xmlns="http://www.w3.org/2000/svg" width="50" height="50" viewBox="0 0 50 50"><title>Amazon-RDS_Amazon-Aurora_instance-alt_light-bg</title><g id="Working"><path d="M43.55,0H6.45A6.45,6.45,0,0,0,0,6.45v37.1A6.45,6.45,0,0,0,6.45,50h37.1A6.45,6.45,0,0,0,50,43.55V6.45A6.45,6.45,0,0,0,43.55,0ZM48,43.55A4.46,4.46,0,0,1,43.55,48H6.45A4.46,4.46,0,0,1,2,43.55V6.45A4.46,4.46,0,0,1,6.45,2h37.1A4.46,4.46,0,0,1,48,6.45Z" style="fill:#3b48cc"/><path d="M10.36,15.75l-.45-2.06H7.83l-.44,2.06H5.56L8,7.09H9.89l2.39,8.66ZM8.09,12.44H9.64L8.86,8.85Z" style="fill:#3b48cc"/><path d="M19.39,15.75V11.54a1.62,1.62,0,0,0-.14-.79.51.51,0,0,0-.48-.25,1.59,1.59,0,0,0-.83.3.59.59,0,0,1,0,.14v4.81H16.24V11.54a1.62,1.62,0,0,0-.14-.79.51.51,0,0,0-.48-.25,1.53,1.53,0,0,0-.81.3v4.95H13.09V9.36h1.4l.14.58a3.24,3.24,0,0,1,1.88-.74,1.28,1.28,0,0,1,1.25.76,3.22,3.22,0,0,1,1.9-.76,1.28,1.28,0,0,1,1.07.48,2.2,2.2,0,0,1,.38,1.38v4.69Z" style="fill:#3b48cc"/><path d="M25.57,15.75l-.15-.58a1.61,1.61,0,0,1-.61.54,1.87,1.87,0,0,1-.82.2,1.58,1.58,0,0,1-1.22-.5,2,2,0,0,1-.45-1.4,2,2,0,0,1,.55-1.48A2,2,0,0,1,24.36,12a4,4,0,0,1,1,.15v-.58a1.64,1.64,0,0,0-.17-.88.74.74,0,0,0-.63-.23,5.47,5.47,0,0,0-1.84.4V9.71a2.9,2.9,0,0,1,.95-.37,5.32,5.32,0,0,1,1.2-.14,2.15,2.15,0,0,1,1.58.49,2.21,2.21,0,0,1,.48,1.58v4.48Zm-1.08-1a1.2,1.2,0,0,0,.83-.4V13.09a2.08,2.08,0,0,0-.65-.09.71.71,0,0,0-.56.23,1,1,0,0,0-.19.67.94.94,0,0,0,.16.59A.47.47,0,0,0,24.49,14.71Z" style="fill:#3b48cc"/><path d="M27.92,15.75V14.54l2.59-3.87H28V9.36h4.29v1.21l-2.59,3.87h2.64v1.31Z" style="fill:#3b48cc"/><path d="M35.72,15.91A2.27,2.27,0,0,1,33.81,15a4,4,0,0,1-.68-2.48,4,4,0,0,1,.68-2.49,2.53,2.53,0,0,1,3.82,0,4,4,0,0,1,.68,2.49A4,4,0,0,1,37.63,15,2.28,2.28,0,0,1,35.72,15.91Zm0-1.3a.69.69,0,0,0,.67-.49,4.55,4.55,0,0,0,.2-1.56,4.55,4.55,0,0,0-.2-1.56.7.7,0,0,0-1.34,0,4.27,4.27,0,0,0-.21,1.56,4.27,4.27,0,0,0,.21,1.56A.69.69,0,0,0,35.72,14.61Z" style="fill:#3b48cc"/><path d="M42.73,15.75v-4.2a1.62,1.62,0,0,0-.15-.8.54.54,0,0,0-.51-.25,1.59,1.59,0,0,0-.85.3v4.95H39.51V9.36h1.4l.13.58A3.3,3.3,0,0,1,43,9.2a1.34,1.34,0,0,1,1.1.47,2.15,2.15,0,0,1,.38,1.39v4.69Z" style="fill:#3b48cc"/><path d="M10.36,28.75l-.45-2.06H7.83l-.44,2.06H5.56L8,20.09H9.89l2.39,8.66ZM8.09,25.44H9.64l-.78-3.59Z" style="fill:#3b48cc"/><path d="M16.48,28.75l-.14-.58a3,3,0,0,1-1.85.74,1.23,1.23,0,0,1-1.06-.49A2.33,2.33,0,0,1,13.07,27V22.36h1.71v4.12a2.05,2.05,0,0,0,.14.87.47.47,0,0,0,.46.26,1.35,1.35,0,0,0,.79-.29v-5h1.71v6.39Z" style="fill:#3b48cc"/><path d="M19.36,28.75V22.36h1.4l.18.83a2.72,2.72,0,0,1,.75-.68,1.52,1.52,0,0,1,.78-.21,1.81,1.81,0,0,1,.4,0v1.51a3.85,3.85,0,0,0-.66-.06,2.31,2.31,0,0,0-1.14.3v4.66Z" style="fill:#3b48cc"/><path d="M26,28.91A2.29,2.29,0,0,1,24,28a4,4,0,0,1-.67-2.48A4,4,0,0,1,24,23.07a2.54,2.54,0,0,1,3.83,0,4,4,0,0,1,.67,2.49A4,4,0,0,1,27.87,28,2.28,2.28,0,0,1,26,28.91Zm0-1.3a.68.68,0,0,0,.66-.49,4.27,4.27,0,0,0,.21-1.56A4.27,4.27,0,0,0,26.62,24a.69.69,0,0,0-1.33,0,4.27,4.27,0,0,0-.21,1.56,4.27,4.27,0,0,0,.21,1.56A.69.69,0,0,0,26,27.61Z" style="fill:#3b48cc"/><path d="M29.74,28.75V22.36h1.4l.19.83a2.72,2.72,0,0,1,.75-.68,1.52,1.52,0,0,1,.78-.21,1.87,1.87,0,0,1,.4,0v1.51a4.06,4.06,0,0,0-.67-.06,2.25,2.25,0,0,0-1.13.3v4.66Z" style="fill:#3b48cc"/><path d="M37,28.75l-.15-.58a1.54,1.54,0,0,1-.61.54,1.86,1.86,0,0,1-.81.2,1.58,1.58,0,0,1-1.23-.5,2,2,0,0,1-.45-1.4,2,2,0,0,1,.55-1.48A2.05,2.05,0,0,1,35.83,25a3.89,3.89,0,0,1,1,.15v-.58a1.55,1.55,0,0,0-.17-.88.74.74,0,0,0-.63-.23,5.37,5.37,0,0,0-1.83.4V22.71a2.81,2.81,0,0,1,1-.37,5.32,5.32,0,0,1,1.2-.14,2.13,2.13,0,0,1,1.57.49,2.18,2.18,0,0,1,.49,1.59v4.47Zm-1.07-1a1.18,1.18,0,0,0,.82-.4V26.09a2.08,2.08,0,0,0-.65-.09.69.69,0,0,0-.55.23,1,1,0,0,0-.2.67,1,1,0,0,0,.16.59A.47.47,0,0,0,36,27.71Z" style="fill:#3b48cc"/></g></svg>