<svg xmlns="http://www.w3.org/2000/svg" viewBox="0 0 50 50"><defs><style>.cls-1{fill:#3b48cc;}</style></defs><title>AWS-Database-Migration-Service_Database-Migration-Workflow_light-bg</title><g id="Working"><path class="cls-1" d="M25.05,12.87c-7.47,0-15-2-15-5.92S17.58,1,25.05,1s15,2,15,5.92S32.51,12.87,25.05,12.87Zm0-9.84C17.1,3,12,5.35,12,7s5.07,3.92,13,3.92,13-2.32,13-3.92S33,3,25.05,3Z"/><path class="cls-1" d="M25.05,32.56c-7.47,0-15-2-15-5.92V7h2V26.64c0,1.6,5.07,3.92,13,3.92s13-2.32,13-3.92V7h2V26.64C40.07,30.53,32.51,32.56,25.05,32.56Z"/><path class="cls-1" d="M25.12,19.89c-7.47,0-15-2-15-5.92h2c0,1.6,5.07,3.92,13,3.92s13-2.32,13-3.92h2C40.14,17.86,32.58,19.89,25.12,19.89Z"/><path class="cls-1" d="M25.12,26.75c-7.47,0-15-2-15-5.92h2c0,1.59,5.07,3.92,13,3.92s13-2.33,13-3.92h2C40.14,24.71,32.58,26.75,25.12,26.75Z"/><path class="cls-1" d="M24.88,38C17.4,38,11.69,35.9,10,32.53l1.79-.91c1,2,5.08,4.38,13.12,4.38,7.78,0,12.34-2.52,13.1-4.31l1.84.78C38.45,35.72,32.3,38,24.88,38Z"/><path class="cls-1" d="M24.88,45.19c-7.48,0-13.19-2.1-14.91-5.47l1.79-.9c1,2,5.08,4.37,13.12,4.37,7.78,0,12.34-2.52,13.1-4.31l1.84.78C38.45,42.91,32.3,45.19,24.88,45.19Z"/><rect class="cls-1" x="10.02" y="30.16" width="2" height="16.88"/><rect class="cls-1" x="38.14" y="37.66" width="2" height="9.38"/><rect class="cls-1" x="19.4" y="32.03" width="2" height="8.44"/><rect class="cls-1" x="28.76" y="33.91" width="2" height="14.06"/><rect class="cls-1" x="38.14" y="30.16" width="2" height="5.63"/></g></svg>