<svg xmlns="http://www.w3.org/2000/svg" xmlns:xlink="http://www.w3.org/1999/xlink" viewBox="0 0 75 75"><defs><style>.cls-1{fill:url(#OrangeGradient);}.cls-2{fill:#fff;}</style><linearGradient id="OrangeGradient" x1="86.87" y1="-288.75" x2="236.87" y2="-288.75" gradientTransform="translate(127.22 356.13) rotate(-45)" gradientUnits="userSpaceOnUse"><stop offset="0" stop-color="#c8511b"/><stop offset="1" stop-color="#f90"/></linearGradient></defs><title>Amazon-EC2-Auto-Scaling</title><g id="Reference"><rect id="Orange_Gradient" data-name="Orange Gradient" class="cls-1" width="75" height="75"/><g id="Icon_Test" data-name="Icon Test"><path class="cls-2" d="M36.5,15.91v9.58h2V15.91l4.66,4.66,1.41-1.42-6.36-6.36a1,1,0,0,0-1.42,0l-6.36,6.36,1.41,1.42Z"/><path class="cls-2" d="M38.5,59.08V49.49h-2v9.59l-4.66-4.66-1.41,1.42,6.36,6.36a1,1,0,0,0,1.42,0l6.36-6.36-1.41-1.42Z"/><path class="cls-2" d="M44.5,29.65V27.49h-2v2h-2v-2h-2v2h-2v-2h-2v2h-2v-2h-2v2.16a1.7,1.7,0,0,0-.85.84H27.5v2h2v2h-2v2h2v2h-2v2h2v2h-2v2h2.15a1.68,1.68,0,0,0,.85.85v2.15h2v-2h2v2h2v-2h2v2h2v-2h2v2h2V45.34a1.68,1.68,0,0,0,.85-.85H47.5v-2h-2v-2h2v-2h-2v-2h2v-2h-2v-2h2v-2H45.35A1.7,1.7,0,0,0,44.5,29.65Zm-1,13.84h-12v-12h12Z"/><path class="cls-2" d="M18.77,30.49l-1.41,1.42L22,36.49H12.5v2h9.59l-4.73,4.73,1.41,1.41,6.37-6.36a1,1,0,0,0,.29-.71,1,1,0,0,0-.29-.7Z"/><path class="cls-2" d="M62.5,36.49H53.05l4.59-4.58-1.41-1.42-6.37,6.37a1,1,0,0,0-.29.7,1,1,0,0,0,.29.71l6.37,6.36,1.41-1.41-4.73-4.73H62.5Z"/></g></g></svg>