<svg xmlns="http://www.w3.org/2000/svg" xmlns:xlink="http://www.w3.org/1999/xlink" viewBox="0 0 75 75"><defs><style>.cls-1{fill:url(#OrangeGradient);}.cls-2{fill:#fff;}.cls-3{fill:none;}</style><linearGradient id="OrangeGradient" x1="-15.54" y1="90.54" x2="90.53" y2="-15.53" gradientTransform="translate(0 0)" gradientUnits="userSpaceOnUse"><stop offset="0" stop-color="#c8511b"/><stop offset="1" stop-color="#f90"/></linearGradient></defs><title>Amazon-Lightsail</title><g id="Reference"><rect id="Orange_Gradient" data-name="Orange Gradient" class="cls-1" width="75" height="75"/><g id="Icon_Test" data-name="Icon Test"><g id="LIGHTSAIL-2"><g id="LS-Icon_2px-Scaled-White" data-name="LS-Icon 2px-Scaled-White"><path class="cls-2" d="M40.5,51.39h-.31a1,1,0,0,1-.69-.89c-.65-6.16-3-10.56-6.57-12.07a1,1,0,0,1-.53-1.31,1,1,0,0,1,.53-.53c3.5-1.52,5.89-5.92,6.57-12.09a1,1,0,0,1,1.11-.88,1,1,0,0,1,.62.32c2.24,2.47,6,7.52,6,13.56,0,6.42-4.58,12-6,13.56A1,1,0,0,1,40.5,51.39ZM35.34,37.5c2.86,2,4.88,5.66,5.78,10.48,1.67-2.25,4.07-6.23,4.07-10.48S43,29.5,41.13,27C40.24,31.82,38.21,35.5,35.34,37.5Z"/><polygon class="cls-2" points="32 26.59 31.65 27.65 30.6 28 31.65 28.35 32 29.41 32.35 28.35 33.41 28 32.35 27.65 32 26.59 32 26.59"/><polygon class="cls-2" points="32 30.69 31.33 28.67 29.31 28 31.33 27.33 32 25.31 32.67 27.33 34.69 28 32.67 28.67 32 30.69"/><polygon class="cls-2" points="50 41.59 49.65 42.65 48.59 43 49.65 43.35 50 44.41 50.35 43.35 51.41 43 50.35 42.65 50 41.59 50 41.59"/><polygon class="cls-2" points="50 45.39 49.4 43.6 47.61 43 49.4 42.4 50 40.61 50.6 42.4 52.39 43 50.6 43.6 50 45.39"/><polygon class="cls-2" points="30.96 45.08 30.49 46.49 29.08 46.96 30.49 47.42 30.96 48.83 31.43 47.42 32.83 46.96 31.43 46.49 30.96 45.08 30.96 45.08"/><path class="cls-2" d="M31,50.07l-.78-2.34L27.85,47l2.33-.78L31,43.85l.78,2.33,2.33.78-2.33.77ZM30.69,47l.2.06.07.2L31,47l.2-.06-.2-.07-.06-.2-.07.2Z"/><path class="cls-2" d="M37.56,56.58A19,19,0,0,1,18.83,40.85a1,1,0,1,1,2-.34,17,17,0,1,0,0-6,1,1,0,1,1-2-.36A19,19,0,1,1,37.56,56.58Z"/><path class="cls-2" d="M15.5,38.5h-2a1,1,0,0,1,0-2h2a1,1,0,0,1,0,2Z"/><path class="cls-2" d="M20.5,38.5h-2a1,1,0,0,1,0-2h2a1,1,0,0,1,0,2Z"/><path class="cls-2" d="M25.5,38.5h-2a1,1,0,0,1,0-2h2a1,1,0,0,1,0,2Z"/><path class="cls-2" d="M30.5,38.5h-2a1,1,0,0,1,0-2h2a1,1,0,0,1,0,2Z"/><rect class="cls-3" x="12.5" y="12.5" width="50" height="50"/></g></g></g></g></svg>