<svg xmlns="http://www.w3.org/2000/svg" viewBox="0 0 50 50"><defs><style>.cls-1{fill:#d86613;}</style></defs><title>Amazon-EC2-Container-Registry_Image_light-bg</title><g id="Working"><path class="cls-1" d="M28.5,42.41,13.8,27.71,5.71,35.8,4.29,34.39l8.8-8.8a1,1,0,0,1,1.41,0L29.91,41Z"/><path class="cls-1" d="M44.29,34.09,32.92,22.72,21.77,33.87l-1.41-1.41L32.22,20.6a1,1,0,0,1,1.41,0L45.71,32.68Z"/><path class="cls-1" d="M21.16,23.94a4.68,4.68,0,1,1,4.67-4.67A4.68,4.68,0,0,1,21.16,23.94Zm0-7.35a2.68,2.68,0,1,0,2.67,2.68A2.68,2.68,0,0,0,21.16,16.59Z"/><path class="cls-1" d="M44.66,45.83H5a1,1,0,0,1-1-1V5.17a1,1,0,0,1,1-1H44.66a1,1,0,0,1,1,1V44.83A1,1,0,0,1,44.66,45.83ZM6,43.83H43.66V6.17H6Z"/></g></svg>