<svg xmlns="http://www.w3.org/2000/svg" viewBox="0 0 50 50"><defs><style>.cls-1{fill:#d86613;}</style></defs><title>Amazon-EC2_Rescue_light-bg</title><g id="Working"><path class="cls-1" d="M42.05,48.5H8A6.45,6.45,0,0,1,1.5,42.05V8A6.45,6.45,0,0,1,8,1.5h34.1A6.45,6.45,0,0,1,48.5,8v34.1A6.45,6.45,0,0,1,42.05,48.5ZM8,3.5A4.46,4.46,0,0,0,3.5,8v34.1A4.46,4.46,0,0,0,8,46.5h34.1a4.46,4.46,0,0,0,4.45-4.45V8A4.46,4.46,0,0,0,42.05,3.5Z"/><path class="cls-1" d="M11.3,21l-1.93-.55A16.36,16.36,0,0,1,20.48,9.37L21,11.3A14.32,14.32,0,0,0,11.3,21Z"/><path class="cls-1" d="M29.52,40.63,29,38.7A14.32,14.32,0,0,0,38.7,29l1.93.55A16.36,16.36,0,0,1,29.52,40.63Z"/><path class="cls-1" d="M20.48,40.63A16.36,16.36,0,0,1,9.37,29.52L11.3,29A14.32,14.32,0,0,0,21,38.7Z"/><path class="cls-1" d="M38.7,21A14.32,14.32,0,0,0,29,11.3l.55-1.93A16.36,16.36,0,0,1,40.63,20.48Z"/><path class="cls-1" d="M18.05,21.24l-1.76-1a10,10,0,0,1,4-4l1,1.76A7.78,7.78,0,0,0,18.05,21.24Z"/><path class="cls-1" d="M29.72,33.71l-1-1.76A7.78,7.78,0,0,0,32,28.76l1.76,1A10,10,0,0,1,29.72,33.71Z"/><path class="cls-1" d="M20.28,33.71a10,10,0,0,1-4-4l1.76-1A7.78,7.78,0,0,0,21.24,32Z"/><path class="cls-1" d="M32,21.24a7.78,7.78,0,0,0-3.19-3.19l1-1.76a10,10,0,0,1,4,4Z"/><path class="cls-1" d="M28.75,19.44h-7.5a1,1,0,0,1-1-1V7.19a1,1,0,0,1,1-1h7.5a1,1,0,0,1,1,1V18.44A1,1,0,0,1,28.75,19.44Zm-6.5-2h5.5V8.19h-5.5Z"/><path class="cls-1" d="M28.75,43.81h-7.5a1,1,0,0,1-1-1V31.56a1,1,0,0,1,1-1h7.5a1,1,0,0,1,1,1V42.81A1,1,0,0,1,28.75,43.81Zm-6.5-2h5.5V32.56h-5.5Z"/><path class="cls-1" d="M18.44,29.75H7.19a1,1,0,0,1-1-1v-7.5a1,1,0,0,1,1-1H18.44a1,1,0,0,1,1,1v7.5A1,1,0,0,1,18.44,29.75Zm-10.25-2h9.25v-5.5H8.19Z"/><path class="cls-1" d="M42.81,29.75H31.56a1,1,0,0,1-1-1v-7.5a1,1,0,0,1,1-1H42.81a1,1,0,0,1,1,1v7.5A1,1,0,0,1,42.81,29.75Zm-10.25-2h9.25v-5.5H32.56Z"/></g></svg>