<svg xmlns="http://www.w3.org/2000/svg" viewBox="0 0 50 50"><defs><style>.cls-1{fill:#d86613;}</style></defs><title>Amazon-Elastic-Container-Service_Container1_light-bg</title><g id="Working"><path class="cls-1" d="M47.5,39.56H2.5a1,1,0,0,1-1-1V10.44a1,1,0,0,1,1-1h45a1,1,0,0,1,1,1V38.56A1,1,0,0,1,47.5,39.56Zm-44-2h43V11.44H3.5Z"/><rect class="cls-1" x="7.13" y="14.19" width="2" height="20.63"/><rect class="cls-1" x="12.75" y="14.19" width="2" height="20.63"/><rect class="cls-1" x="18.38" y="14.19" width="2" height="20.63"/><rect class="cls-1" x="24" y="14.19" width="2" height="20.63"/><rect class="cls-1" x="29.63" y="14.19" width="2" height="20.63"/><rect class="cls-1" x="35.25" y="14.19" width="2" height="20.63"/><rect class="cls-1" x="40.88" y="14.19" width="2" height="20.63"/></g></svg>