<svg xmlns="http://www.w3.org/2000/svg" width="75" height="75" viewBox="0 0 75 75"><title>AWS-Wavelength_light-bg</title><g id="Working"><rect id="Green_Light_BG" data-name="Green Light BG" width="75" height="75" style="fill:#3f8624"/><rect x="11" y="10" width="54" height="56" style="fill:none"/><rect width="75" height="75" style="fill:#d86613"/><g id="Page-1"><g id="White"><path id="Wavelength_Icon_64_White" data-name="Wavelength Icon 64 White" d="M38,58a23,23,0,0,1-4.65-.47l4.15-17,2,8.47h0l2,8.68A22.47,22.47,0,0,1,38,58ZM23.47,36.88h6c.24,4.89,1.54,9.27,3.55,12a14.38,14.38,0,0,1-9.59-12Zm9.59-15.24a16.92,16.92,0,0,0-2.47,5.26A20.22,20.22,0,0,1,27,25.73a14.57,14.57,0,0,1,6.09-4.09Zm15.41,4a22,22,0,0,1-3.57,1.18,16.54,16.54,0,0,0-2.45-5.2,14.41,14.41,0,0,1,6,4Zm-6,23.19c2-2.68,3.32-7.06,3.56-12h6a14.51,14.51,0,0,1-9.6,12Zm1.56-12c-.23,4.23-1.3,8-2.88,10.39L38.69,36.88Zm2-2a30.87,30.87,0,0,0-.64-6.11,22,22,0,0,0,4.33-1.51,14.26,14.26,0,0,1,2.4,7.62Zm-8.28-14c2,0,4,2.4,5.2,6.4a31.72,31.72,0,0,1-5.34.44,32.09,32.09,0,0,1-5.08-.39c1.21-4,3.25-6.45,5.22-6.45Zm-5.71,8.39a33.51,33.51,0,0,0,5.57.45,33.38,33.38,0,0,0,5.83-.5,29,29,0,0,1,.59,5.7H31.47a29.39,29.39,0,0,1,.58-5.65Zm-8.67,5.65a14.24,14.24,0,0,1,2.34-7.51,23.43,23.43,0,0,0,4.38,1.47,31.63,31.63,0,0,0-.63,6ZM34,46.58a22.7,22.7,0,0,1-2.46-9.7h4.83ZM63,35a24.9,24.9,0,0,0-1.6-8.81l-1.87.71A22.74,22.74,0,0,1,61,35,23.06,23.06,0,0,1,43.48,57.34L42,51.06a16.4,16.4,0,1,0-9.09-.17L31.41,57A23,23,0,1,1,53,17.54H48.29v2h7.85V11.69h-2v4.22A25,25,0,0,0,13,35,25,25,0,0,0,30.94,59l-1.49,6.1,1.94.47,1.49-6.08a24.9,24.9,0,0,0,9.09.21l1.37,5.86,1.95-.45-1.36-5.81A25,25,0,0,0,63,35Z" style="fill:#fff;fill-rule:evenodd"/></g></g></g></svg>