<svg xmlns="http://www.w3.org/2000/svg" width="75" height="75" viewBox="0 0 75 75"><title>AWS-Thinkbox-Stroke_light-bg</title><g id="Background"><rect id="Green_Light_BG" data-name="Green Light BG" width="75" height="75" style="fill:#d86613"/></g><g id="Working"><path d="M48.43,19.62l-4.14-2.39,1.13-2,4.14,2.39Zm12.8,26h0v5.53a1.13,1.13,0,0,1-.57,1l-15.23,8.8-.32.18-5.21,3-1.13-2,.87-.5a6,6,0,0,0,2.26-4.88v-.32c0-4.73-2.91-9.36-4.4-11.43-1.49,2.07-4.4,6.7-4.4,11.43v.32a6,6,0,0,0,2.25,4.88L36,62l-1.13,2-4.92-2.85-.36-.2L14.34,52.12a1.13,1.13,0,0,1-.57-1V25.05a1.14,1.14,0,0,1,.57-1L22,19.66a1.15,1.15,0,0,1,1.37.18,1.14,1.14,0,0,1,.18,1.36C18.69,29.62,16.18,37.6,16,44.94v5.55l7.58,4.38a18.53,18.53,0,0,1-2.54-9.39A38.47,38.47,0,0,1,24,31.58l-2.21-1.27,1.13-2,1.95,1.13A73.92,73.92,0,0,1,36.67,11.24a1.15,1.15,0,0,1,1.66,0A73.92,73.92,0,0,1,50.17,29.48l1.95-1.13,1.13,2L51,31.58a38.47,38.47,0,0,1,2.89,13.9,18.53,18.53,0,0,1-2.54,9.39L59,50.49V44.94c-.15-7.34-2.66-15.32-7.49-23.74a1.14,1.14,0,0,1,.18-1.36A1.15,1.15,0,0,1,53,19.66l7.63,4.41a1.14,1.14,0,0,1,.57,1V45.61ZM16,32.27a62,62,0,0,1,3.62-8.66L16,25.7Zm29.85,19.2c0-9.32-6.07-18.73-8.38-22-2.31,3.26-8.38,12.67-8.38,22a12.54,12.54,0,0,0,1.82,6.65,10,10,0,0,1-.1-1.35v-.32c0-7.17,5.57-13.74,5.8-14a1.14,1.14,0,0,1,1.72,0c.23.28,5.8,6.85,5.8,14v.32a10,10,0,0,1-.1,1.35A12.54,12.54,0,0,0,45.88,51.47Zm2.26,0a15.65,15.65,0,0,1-.85,5.11,16.1,16.1,0,0,0,4.38-11.1A35.85,35.85,0,0,0,49,32.74L46.68,34.1l-1.13-2,2.62-1.51A73.78,73.78,0,0,0,37.5,13.73a73.78,73.78,0,0,0-10.67,16.9l2.62,1.51-1.13,2L26,32.74a35.85,35.85,0,0,0-2.63,12.74,16.1,16.1,0,0,0,4.38,11.1,15.65,15.65,0,0,1-.85-5.11c0-12.27,9.36-24.09,9.76-24.59a1.13,1.13,0,0,1,1.76,0C38.78,27.38,48.14,39.2,48.14,51.47ZM59,25.7l-3.62-2.09A62,62,0,0,1,59,32.27ZM30.71,17.23l-1.13-2-4.14,2.39,1.13,2Z" style="fill:#fff"/></g></svg>