<svg xmlns="http://www.w3.org/2000/svg" viewBox="0 0 50 50"><defs><style>.cls-1{fill:#d86613;}</style></defs><title>AWS-Elastic-Beanstalk_Deployment_light-bg</title><g id="Working"><path class="cls-1" d="M23.64,31.15c-1.61,0-2.75-.1-3.13-.14l-.22,0a1,1,0,0,1-.86-.88,37.86,37.86,0,0,1-.08-5.91c0-.23,0-.5,0-.76l.05-.56,2,.22-.05.52c0,.21,0,.45,0,.68a38.17,38.17,0,0,0,0,4.77c3,.21,13.48.46,19.51-5.7s5.78-16.94,5.58-20C43.47,3.2,32.94,3,27,9.11c-.14.14-.3.31-.44.47a2.25,2.25,0,0,0-.21.24L24.74,8.57A4.09,4.09,0,0,1,25,8.24l.48-.52c7.72-7.88,21.42-6.3,22-6.23a1,1,0,0,1,.87.88C48.44,3,50,16.93,42.3,24.77,36.87,30.32,28.29,31.15,23.64,31.15Z"/><path class="cls-1" d="M20.62,31h-.08l-.25,0a1,1,0,0,1-.86-.88,39.23,39.23,0,0,1,0-7.21l2,.18a40.63,40.63,0,0,0-.13,5.19A109.58,109.58,0,0,0,34.14,17,110.52,110.52,0,0,0,45.57,3.36c-3.8-.15-13.12.13-18.62,5.75a7.4,7.4,0,0,0-.66.72L24.75,8.56a10.49,10.49,0,0,1,.77-.86c7.7-7.86,21.4-6.28,22-6.21a1,1,0,0,1,.79.58,1,1,0,0,1-.08,1A110.54,110.54,0,0,1,35.57,18.4,109.61,109.61,0,0,1,21.19,30.83,1,1,0,0,1,20.62,31Z"/><rect class="cls-1" x="19.28" y="28.28" width="2" height="19.69"/><path class="cls-1" d="M12.78,23.66A11.32,11.32,0,1,1,24.09,12.34,11.33,11.33,0,0,1,12.78,23.66ZM12.78,3a9.32,9.32,0,1,0,9.31,9.31A9.32,9.32,0,0,0,12.78,3Z"/><rect class="cls-1" x="11.78" y="6.33" width="2" height="13.32"/><path class="cls-1" d="M15.94,10.47,12.78,7.31,9.62,10.47,8.2,9.06l3.87-3.87a1,1,0,0,1,1.41,0l3.87,3.87Z"/></g></svg>