<svg xmlns="http://www.w3.org/2000/svg" width="75" height="75" viewBox="0 0 75 75"><title>AWS-Thinkbox-Krakatoa_light-bg</title><g id="Background"><rect id="Green_Light_BG" data-name="Green Light BG" width="75" height="75" style="fill:#d86613"/></g><g id="Working"><path d="M15.91,37.6H13.64V33.55h2.27ZM34.36,64.33h6.29V62.06H34.36Zm2-50.55v3.5h2.27v-3.5l3,1.75,1.14-2-4.74-2.74a1.14,1.14,0,0,0-1.13,0L32.2,13.56l1.13,2ZM59.09,37.6h2.28V33.55H59.09Zm2.27,10.1a7.74,7.74,0,0,1-8.06,7.39,6.42,6.42,0,0,1-6.13-6.69,5.35,5.35,0,0,1,5.58-5.12l-.09,2.27a3,3,0,0,0-2.22.81,3.09,3.09,0,0,0-1,2.14,4.15,4.15,0,0,0,1.08,3,4.11,4.11,0,0,0,2.88,1.33,5.34,5.34,0,0,0,3.92-1.43,5.42,5.42,0,0,0,1.77-3.78,7.12,7.12,0,0,0-6.79-7.41c-5.1-.22-8.63,3-8.85,8.05v5.24l5.82,3.36A1.14,1.14,0,0,1,48.7,59H26.31a1.14,1.14,0,0,1-.57-2.12l5.81-3.36V48.19c-.22-5-3.81-8.21-8.85-8a7.12,7.12,0,0,0-6.79,7.41,5.42,5.42,0,0,0,1.77,3.78,5.37,5.37,0,0,0,3.92,1.43,4.11,4.11,0,0,0,2.88-1.33,4.15,4.15,0,0,0,1.08-3,3.09,3.09,0,0,0-1-2.14,3,3,0,0,0-2.22-.81l-.09-2.27a5.35,5.35,0,0,1,5.58,5.12,6.42,6.42,0,0,1-6.13,6.69,7.74,7.74,0,0,1-8.06-7.39,9.39,9.39,0,0,1,9-9.78c6.33-.3,10.95,3.93,11.22,10.22v4l2.55-1.47v-5c-.51-9.5-9-17.53-20.45-19.44v3.17H13.65V24.93a1.16,1.16,0,0,1,.38-.85,1.33,1.33,0,0,1,.19-.14L19,21.21l1.13,2-2,1.17c8.28,1.85,15,6.77,18.31,13.12V34.39a16.62,16.62,0,0,0-9.58-15.08l-1.79,1-1.14-2,2.29-1.33a1.18,1.18,0,0,1,1-.06A18.9,18.9,0,0,1,37.5,27.92,18.92,18.92,0,0,1,47.85,17a1.16,1.16,0,0,1,1,.06l2.31,1.34-1.14,2-1.8-1a16.63,16.63,0,0,0-9.59,15.08h0v3.1C42,31.12,48.66,26.2,57,24.35l-2-1.17,1.14-2,4.73,2.73a.94.94,0,0,1,.19.14,1.13,1.13,0,0,1,.39.85v4.48H59.09V26.24c-11.41,1.91-19.93,9.93-20.45,19.47v5l2.54,1.47v-4C41.45,41.85,46,37.62,52.4,37.92A9.39,9.39,0,0,1,61.36,47.7Zm-23.86,5-6.95,4H44.46Z" style="fill:#fff"/></g></svg>