<svg xmlns="http://www.w3.org/2000/svg" viewBox="0 0 75 75"><defs><style>.cls-1{fill:#d86613;}.cls-2{fill:#fff;}</style></defs><title>AWS-Outposts_light-bg</title><g id="Reference"><rect id="Orange_Light_BG" data-name="Orange Light BG" class="cls-1" width="75" height="75"/><g id="Product_Icon" data-name="Product Icon"><path class="cls-2" d="M31.75,35.83H28.92l-.18,0A7,7,0,0,1,23,30.23c-.56-4.67,2.22-6.85,4.33-7.57a9.88,9.88,0,0,1,2.4-6.39,8.74,8.74,0,0,1,6.8-3h0A8.82,8.82,0,0,1,45,18.61a4.24,4.24,0,0,1,3-.51c3,.57,3.83,3.65,3.85,5.2l-2,0c0-.11-.08-2.85-2.26-3.27a2.13,2.13,0,0,0-2.19.93,1,1,0,0,1-1.81-.36,6.89,6.89,0,0,0-7-5.38h0a6.78,6.78,0,0,0-5.29,2.34,7.61,7.61,0,0,0-1.86,5.7,1,1,0,0,1-.83,1.12c-.42.08-4.13.89-3.57,5.56a5.07,5.07,0,0,0,4,3.87h2.73Z"/><rect class="cls-2" x="37.66" y="34.94" width="6.85" height="2"/><rect class="cls-2" x="37.66" y="38.86" width="6.85" height="2"/><rect class="cls-2" x="37.66" y="31" width="6.85" height="2"/><path class="cls-2" d="M46.14,33a1,1,0,1,1,1-1A1,1,0,0,1,46.14,33Zm0-1a0,0,0,0,0,0,0Z"/><path class="cls-2" d="M46.14,36.92a1,1,0,1,1,0-2,1,1,0,0,1,0,2Zm0-1a0,0,0,0,0,0,0Z"/><path class="cls-2" d="M46.14,40.83a1,1,0,1,1,1-1A1,1,0,0,1,46.14,40.83Zm0-1s0,0,0,0Z"/><path class="cls-2" d="M49.06,59.46H35.23a3,3,0,0,1-3-3V27.35a3,3,0,0,1,3-3H49.06a3,3,0,0,1,3,3V56.46A3,3,0,0,1,49.06,59.46ZM35.23,26.35a1,1,0,0,0-1,1V56.46a1,1,0,0,0,1,1H49.06a1,1,0,0,0,1-1V27.35a1,1,0,0,0-1-1Z"/><path class="cls-2" d="M39.56,61.76H35.33a1,1,0,0,1-1-1v-2.3a1,1,0,0,1,1-1h4.23a1,1,0,0,1,1,1v2.3A1,1,0,0,1,39.56,61.76Zm-3.23-2h2.23v-.3H36.33Z"/><path class="cls-2" d="M49.38,61.76H45.14a1,1,0,0,1-1-1v-2.3a1,1,0,0,1,1-1h4.24a1,1,0,0,1,1,1v2.3A1,1,0,0,1,49.38,61.76Zm-3.24-2h2.24v-.3H46.14Z"/></g></g></svg>