<svg xmlns="http://www.w3.org/2000/svg" xmlns:xlink="http://www.w3.org/1999/xlink" width="75" height="75" viewBox="0 0 75 75"><defs><linearGradient id="Orange_Gradient" x1="-20.83" y1="131.69" x2="-20.83" y2="-18.31" gradientTransform="translate(92.31 12.14) rotate(45)" gradientUnits="userSpaceOnUse"><stop offset="0" stop-color="#c8511b"/><stop offset="1" stop-color="#f90"/></linearGradient></defs><title>AWS-Thinkbox_XMesh</title><g id="Background"><rect id="Green_Gradient" data-name="Green Gradient" width="75" height="75" style="fill:url(#Orange_Gradient)"/></g><g id="Working"><path d="M42.72,55.44H45v4.5a1.15,1.15,0,0,1-.57,1l-6.34,3.66a1.16,1.16,0,0,1-1.14,0l-6.34-3.66a1.15,1.15,0,0,1-.57-1v-4.5h2.26V58l4.09-2.36V51.77h2.26v4.5a1.14,1.14,0,0,1-.56,1l-4.66,2.69L37.5,62.3l5.22-3ZM32.28,15.72l5.22-3,4.09,2.36-4.66,2.69a1.14,1.14,0,0,0-.56,1v4.5h2.26V19.38L42.72,17v2.54H45v-4.5a1.15,1.15,0,0,0-.57-1l-6.34-3.66a1.16,1.16,0,0,0-1.14,0l-6.34,3.66a1.15,1.15,0,0,0-.57,1v4.5h2.26Zm28.39,17L52.46,37.5l8.21,4.74a1.13,1.13,0,0,1,.56,1v7.33a1.13,1.13,0,0,1-.56,1l-6.35,3.66a1.12,1.12,0,0,1-.56.15,1.16,1.16,0,0,1-.57-.15L37.5,46.13,21.81,55.19a1.14,1.14,0,0,1-1.13,0l-6.35-3.66a1.13,1.13,0,0,1-.56-1V43.22a1.13,1.13,0,0,1,.56-1l8.22-4.74-8.22-4.74a1.13,1.13,0,0,1-.56-1V24.45a1.13,1.13,0,0,1,.56-1l6.35-3.66a1.09,1.09,0,0,1,1.13,0L37.5,28.87l15.69-9.06a1.09,1.09,0,0,1,1.13,0l6.35,3.66a1.13,1.13,0,0,1,.56,1v7.33A1.13,1.13,0,0,1,60.67,32.76ZM24.81,36.2l4.08-2.36-8.21-4.75a1.13,1.13,0,0,1-.57-1V22.74L16,25.1v6ZM50.2,38.8l-4.09,2.36,8.21,4.75a1.13,1.13,0,0,1,.57,1v5.37L59,49.9v-6Zm7.64-7-4.08-2.36-9.35,5.39-22.6,13a1.09,1.09,0,0,1-1.13,0L16,45.18V49.9l5.21,3,15.69-9.06a1.16,1.16,0,0,1,1.14,0l14.56,8.41V47.54l-9.35-5.4a1.13,1.13,0,0,1,0-2ZM59,25.1l-5.21-3L38.07,31.15a1.16,1.16,0,0,1-1.14,0L22.37,22.74v4.72l9.35,5.4a1.13,1.13,0,0,1,0,2L17.16,43.22l4.08,2.36,9.35-5.39,22.6-13.06a1.14,1.14,0,0,1,1.13,0L59,29.82Z" style="fill:#fff"/></g></svg>