<svg xmlns="http://www.w3.org/2000/svg" xmlns:xlink="http://www.w3.org/1999/xlink" width="75" height="75" viewBox="0 0 75 75"><defs><linearGradient id="Orange_Gradient" x1="-20.83" y1="131.69" x2="-20.83" y2="-18.31" gradientTransform="translate(92.31 12.14) rotate(45)" gradientUnits="userSpaceOnUse"><stop offset="0" stop-color="#c8511b"/><stop offset="1" stop-color="#f90"/></linearGradient></defs><title>AWS-Thinkbox-Sequoia</title><g id="Background"><rect id="Green_Gradient" data-name="Green Gradient" width="75" height="75" style="fill:url(#Orange_Gradient)"/></g><g id="Working"><path d="M50.59,20.26l-4.71-2.72L47,15.59l4.71,2.72ZM37.5,12.7l4.15,2.4,1.13-2-4.71-2.72a1.16,1.16,0,0,0-1.14,0l-4.71,2.72,1.13,2Zm-8.38,4.84L28,15.59l-4.71,2.72,1.13,2Zm8.38,29a1.17,1.17,0,0,0,.57-.16l3.37-1.94-1.13-2L37.5,44.08l-2.81-1.62-1.13,2,3.37,1.94A1.17,1.17,0,0,0,37.5,46.52ZM60.67,23.47,56,20.75l-1.13,2,3,1.74-3,1.74,1.13,2,3-1.74V48.59l-3-1.74-1.13,2,3,1.74L37.5,62.3,17.16,50.55l3-1.74-1.13-2-3,1.74V26.41l3,1.74,1.13-2-3-1.74,3-1.74-1.13-2-4.71,2.72a1.13,1.13,0,0,0-.56,1v26.1a1.13,1.13,0,0,0,.56,1l22.6,13a1.16,1.16,0,0,0,1.14,0l22.6-13a1.13,1.13,0,0,0,.56-1V24.45A1.13,1.13,0,0,0,60.67,23.47ZM19.73,34.71a18.25,18.25,0,0,0,6.45-13.54h2.26A16.86,16.86,0,0,0,31,30l-1.93,1.17a19.75,19.75,0,0,1-1.75-3.62,21.57,21.57,0,0,1-4.94,7.74l4.41,2.54c6.44-6.23,9.6-13.29,9.6-21.39a1.13,1.13,0,1,1,2.26,0c0,8.1,3.16,15.16,9.6,21.39l4.41-2.54a21.57,21.57,0,0,1-4.94-7.74A19.75,19.75,0,0,1,46,31.21L44,30a16.86,16.86,0,0,0,2.54-8.87h2.26a18.25,18.25,0,0,0,6.45,13.54,1.16,1.16,0,0,1,.36,1,1.09,1.09,0,0,1-.56.86L50,39.47a52.48,52.48,0,0,0,4.94,3.78,1.12,1.12,0,0,1,.49,1,1.14,1.14,0,0,1-.56.94L38.07,54.85a1.1,1.1,0,0,1-1.14,0L20.15,45.17a1.14,1.14,0,0,1-.56-.94,1.12,1.12,0,0,1,.49-1A52.31,52.31,0,0,0,25,39.47l-5.09-2.94a1.11,1.11,0,0,1-.55-.86A1.16,1.16,0,0,1,19.73,34.71Zm13.54-1L37.5,36.2l4.23-2.45a30.08,30.08,0,0,1-4.23-8.89A30.08,30.08,0,0,1,33.27,33.75ZM22.82,44.09,37.5,52.57l14.68-8.48a53.93,53.93,0,0,1-4.26-3.42l-3,1.75-1.13-2,2.45-1.41a38.17,38.17,0,0,1-3.11-3.47l-5,2.9a1.16,1.16,0,0,1-1.14,0l-5-2.9a39.73,39.73,0,0,1-3.11,3.47l2.43,1.41-1.13,2-3-1.75A53.93,53.93,0,0,1,22.82,44.09Z" style="fill:#fff"/></g></svg>