<svg xmlns="http://www.w3.org/2000/svg" xmlns:xlink="http://www.w3.org/1999/xlink" viewBox="0 0 75 75"><defs><style>.cls-1{fill:url(#OrangeGradient);}.cls-2{fill:#fff;}</style><linearGradient id="OrangeGradient" x1="-1139.35" y1="423.97" x2="-1139.35" y2="573.97" gradientTransform="translate(-1120.97 -415.32) rotate(-135)" gradientUnits="userSpaceOnUse"><stop offset="0" stop-color="#c8511b"/><stop offset="1" stop-color="#f90"/></linearGradient></defs><title>AWS-Elastic-Beanstalk</title><g id="Reference"><rect id="Orange_Gradient" data-name="Orange Gradient" class="cls-1" width="75" height="75"/><path class="cls-2" d="M52.5,47V45c2.41,0,8-.72,8-7.4,0-4-2.35-6.51-7-7.44a1,1,0,0,1-.8-.93c-.23-3.9-2.5-5.29-4.37-5.29a4.11,4.11,0,0,0-3.26,1.66,1,1,0,0,1-1.73-.26,13,13,0,0,0-3.13-5A11.17,11.17,0,0,0,21,27.84a11.9,11.9,0,0,0,.08,1.34,1,1,0,0,1-.75,1.09c-2.18.54-5.84,2.2-5.84,7.24,0,.2,0,.38,0,.55A7.62,7.62,0,0,0,22.35,45H23.5v2H22.35a9.62,9.62,0,0,1-9.83-8.81c0-.21,0-.43,0-.66A8.91,8.91,0,0,1,19,28.57c0-.24,0-.48,0-.73a13.18,13.18,0,0,1,22.6-8.91,14.67,14.67,0,0,1,3,4.28,5.94,5.94,0,0,1,3.7-1.29c2.8,0,5.75,2,6.3,6.42,5.08,1.25,7.87,4.51,7.87,9.24C62.5,44.52,57.33,47,52.5,47Z"/><path class="cls-2" d="M45.5,36.83a5.44,5.44,0,0,0-1,10.78V52h-6V34.93a5.44,5.44,0,1,0-2,0V47h-6V45.07a5.44,5.44,0,1,0-2,0V48a1,1,0,0,0,1,1h7V60h2V54h7a1,1,0,0,0,1-1V47.61a5.44,5.44,0,0,0-1-10.78ZM26.06,39.74a3.44,3.44,0,1,1,3.44,3.43A3.44,3.44,0,0,1,26.06,39.74Zm8-10.15A3.44,3.44,0,1,1,37.5,33,3.44,3.44,0,0,1,34.06,29.59ZM45.5,45.71a3.44,3.44,0,1,1,3.44-3.44A3.44,3.44,0,0,1,45.5,45.71Z"/></g></svg>