<svg xmlns="http://www.w3.org/2000/svg" viewBox="0 0 50 50"><defs><style>.cls-1{fill:#d86613;}</style></defs><title>AWS-Elastic-Beanstalk_Application_light-bg</title><g id="Working"><path class="cls-1" d="M14.9,31c-1.54,0-2.71-.09-3.29-.15l-.2,0a1,1,0,0,1-.88-.87c-.07-.59-1.61-14.57,6.08-22.41S38,1.27,38.6,1.34a1,1,0,0,1,.87.88c.07.59,1.61,14.56-6.08,22.41C28,30.14,19.67,31,14.9,31Zm-2.45-2.09c2.87.2,13.47.46,19.51-5.7s5.79-16.95,5.59-20C34.57,3.06,24,2.83,18,9S12.25,25.92,12.45,28.93Z"/><path class="cls-1" d="M11.71,30.87h-.13l-.17,0a1,1,0,0,1-.88-.87c-.07-.59-1.61-14.57,6.08-22.41S38,1.27,38.6,1.34a1,1,0,0,1,.71,1.55A109.68,109.68,0,0,1,26.66,18.25,108.49,108.49,0,0,1,12.29,30.69,1,1,0,0,1,11.71,30.87ZM35.26,3.19C30.91,3.19,23,3.94,18,9c-5.58,5.69-5.79,15.37-5.63,19.17A108.94,108.94,0,0,0,25.23,16.85,109.36,109.36,0,0,0,36.66,3.21Z"/><rect class="cls-1" x="10.37" y="28.13" width="2" height="19.69"/></g></svg>