<svg xmlns="http://www.w3.org/2000/svg" xmlns:xlink="http://www.w3.org/1999/xlink" viewBox="0 0 75 75"><defs><style>.cls-1{fill:url(#OrangeGradient);}.cls-2{fill:#fff;}</style><linearGradient id="OrangeGradient" x1="-2436.76" y1="961.37" x2="-2436.76" y2="1111.37" gradientTransform="translate(-2418.37 -952.72) rotate(-135)" gradientUnits="userSpaceOnUse"><stop offset="0" stop-color="#c8511b"/><stop offset="1" stop-color="#f90"/></linearGradient></defs><title>AWS-Serverless-Application-Repository</title><g id="Reference"><rect id="Orange_Gradient" data-name="Orange Gradient" class="cls-1" width="75" height="75"/><g id="Icon_Test" data-name="Icon Test"><path class="cls-2" d="M52.86,53.5H23.1c-4.87,0-10.28-3.55-10.58-8.83,0-.21,0-.42,0-.65s0-.27,0-.41a.41.41,0,0,1,0-.11,1.49,1.49,0,0,1,0-.21A8.87,8.87,0,0,1,19,35.08c0-.25,0-.49,0-.74a13.17,13.17,0,0,1,22.6-8.9,14.65,14.65,0,0,1,3,4.27,6,6,0,0,1,3.71-1.28c2.81,0,5.75,2,6.3,6.41C59.41,36,62.15,39,62.47,43.25a1,1,0,0,1,0,.25.57.57,0,0,1,0,.13c0,.16,0,.31,0,.47C62.5,52.82,55.12,53.5,52.86,53.5Zm-38.35-9v.07c.23,4.08,4.7,6.93,8.58,6.93H52.86c2.25,0,7.42-.7,7.63-7H46.31a4.14,4.14,0,0,1,.18,1.22,4.08,4.08,0,0,1-8.15,0,3.84,3.84,0,0,1,.19-1.22H28.7a1,1,0,0,1-.93-.63,1,1,0,0,1,.24-1.1,2.05,2.05,0,0,0,.65-1.5,2.08,2.08,0,0,0-4.15,0,2.05,2.05,0,0,0,.65,1.5,1,1,0,0,1,.23,1.1,1,1,0,0,1-.93.63Zm21-2h4.8A1,1,0,0,1,41,44.22a2.05,2.05,0,0,0-.65,1.5,2.08,2.08,0,0,0,4.15,0,2.05,2.05,0,0,0-.65-1.5,1,1,0,0,1-.23-1.1,1,1,0,0,1,.93-.62H60.36c-.56-3.09-2.86-5.06-6.85-5.86a1,1,0,0,1-.8-.93c-.23-3.89-2.51-5.28-4.38-5.28a4.09,4.09,0,0,0-3.26,1.65,1,1,0,0,1-1.73-.26,13.39,13.39,0,0,0-3.12-4.95A11.73,11.73,0,0,0,35.5,24v7.59a3.84,3.84,0,0,1,1.22-.19,4.08,4.08,0,0,1,0,8.16,4.15,4.15,0,0,1-1.22-.19Zm-5,0h3V37.62a1,1,0,0,1,1.73-.69,2,2,0,0,0,1.49.65,2.08,2.08,0,0,0,0-4.16,2,2,0,0,0-1.49.64,1,1,0,0,1-1.73-.68V23.59a11.74,11.74,0,0,0-5.9.85A11.36,11.36,0,0,0,21,34.34a10,10,0,0,0,.08,1.35,1,1,0,0,1-.76,1.09,7.1,7.1,0,0,0-5.71,5.72h8.07a4.16,4.16,0,0,1-.18-1.23,4.08,4.08,0,0,1,8.15,0A3.86,3.86,0,0,1,30.47,42.5Z"/></g></g></svg>