<svg xmlns="http://www.w3.org/2000/svg" xmlns:xlink="http://www.w3.org/1999/xlink" width="75" height="75" viewBox="0 0 75 75"><defs><linearGradient id="Orange_Gradient" x1="-20.83" y1="131.69" x2="-20.83" y2="-18.31" gradientTransform="translate(92.31 12.14) rotate(45)" gradientUnits="userSpaceOnUse"><stop offset="0" stop-color="#c8511b"/><stop offset="1" stop-color="#f90"/></linearGradient></defs><title>AWS-Thinkbox-Deadline</title><g id="Working"><rect id="Green_Gradient" data-name="Green Gradient" width="75" height="75" style="fill:url(#Orange_Gradient)"/><path d="M60.59,23.52l-4.7-2.71-1.13,2,3,1.74-7.88,4.55V18a1.13,1.13,0,0,0-1.69-1l-9.57,5.53V13.44l3,1.74,1.13-1.95-4.7-2.71a1.12,1.12,0,0,0-1.12,0l-22.53,13a1.12,1.12,0,0,0-.56,1v26a1.12,1.12,0,0,0,.56,1l4.7,2.71,1.13-1.95-3-1.74L25.11,46V57a1.13,1.13,0,0,0,1.69,1l9.57-5.53v9.11l-3-1.74-1.13,2,4.7,2.71a1.12,1.12,0,0,0,1.12,0l22.53-13a1.12,1.12,0,0,0,.56-1v-26A1.12,1.12,0,0,0,60.59,23.52Zm-22,1.63,9-5.2v10.4l-6.2,3.57v-1.3a1.12,1.12,0,0,0-1.12-1.12,1.16,1.16,0,0,0-.57.15l-1.12.65Zm9,7.8v10.4l-9,5.2V41.4l2.25-1.3a1.11,1.11,0,0,0,.56-1V36.52ZM26.24,29.7l-4.13-2.39-1.13,2,4.13,2.39v11.7l-6,3.47h0l-3,1.73V25.15L36.37,13.44V23.85Zm10.13-3.25V33.6l-2.25,1.3a1.11,1.11,0,0,0-.56,1v2.6l-6.2,3.58V31.65Zm0,23.4-9,5.21V44.65l6.2-3.57v1.3a1.11,1.11,0,0,0,.56,1,1.14,1.14,0,0,0,1.13,0l1.12-.65Zm-.56-9.42V36.52l3.38-2v3.91ZM58.9,49.85,38.63,61.56V51.15L48.76,45.3l4.13,2.39L54,45.74l-4.13-2.39V31.65l9-5.2Z" style="fill:#fff"/></g></svg>