<svg xmlns="http://www.w3.org/2000/svg" width="75" height="75" viewBox="0 0 75 75"><title>AWS-Compute-Optimizer_light-bg</title><g id="Background"><rect id="Green_Light_BG" data-name="Green Light BG" width="75" height="75" style="fill:#d86613"/></g><g id="Example"><path d="M58.77,51a3.15,3.15,0,0,0-2.09-2.61,3,3,0,0,0-2.2.12,6.55,6.55,0,0,0-1-1.32A5.76,5.76,0,0,0,47,45.93a6.12,6.12,0,0,0-3.46,5.26,4.22,4.22,0,0,0-2.57,4.07,4.65,4.65,0,0,0,2.2,4.05,2.9,2.9,0,0,0,1.56.41H57.82A4.34,4.34,0,0,0,62,55.29,4.29,4.29,0,0,0,58.77,51ZM57.7,57.72h-13a.92.92,0,0,1-.49-.1,2.66,2.66,0,0,1-1.27-2.36,2.28,2.28,0,0,1,1.85-2.4,1,1,0,0,0,.75-1l0-.55a4.11,4.11,0,0,1,2.24-3.52,4,4,0,0,1,1.57-.33,4,4,0,0,1,2.74,1.2,4.81,4.81,0,0,1,1.1,1.81,1,1,0,0,0,1.74.26,1,1,0,0,1,1.16-.38c.48.15.76.66.77,1.4a1,1,0,0,0,.83,1.09A2.46,2.46,0,0,1,60,55.29,2.35,2.35,0,0,1,57.7,57.72ZM37.89,16.47l-7.82-3.35a1,1,0,0,0-.94.09l-10.06,6.7a1,1,0,0,0-.44.83V28l-5.1,3.07a1,1,0,0,0-.49.86V44.2a1,1,0,0,0,.63.93l5,2v7.15a1,1,0,0,0,.48.85l11.17,6.71a1,1,0,0,0,1,0L38,58.5a1,1,0,0,0,.55-.89V17.39A1,1,0,0,0,37.89,16.47Zm-7,43.35L28.4,58.35,32.54,55l-1.25-1.57-4.72,3.78-5.94-3.56V46.94l4.06-3.06L23.5,42.29l-4,3L15,43.53V38.06L20.1,35l-1-1.71-4,2.44V32.49l4.57-2.75,4.6,2.74v3.4l-4.06,3,1.19,1.6,3.78-2.83,2.44,2.45V42h2V39.73a1,1,0,0,0-.29-.7L26.21,36V32.48l5.1-3.06a1,1,0,0,0,.49-.86V23h-2v5l-4.59,2.75L20.63,28V21.28l4.7-3.14v5.95h2V16.81l2.45-1.64,6.72,2.88V35.5l-2.87-2.15L32.43,35l4.07,3v2.37L25.7,49,27,50.57l9.55-7.64V57ZM42.62,16.16H40.85v-2h2.83a1,1,0,0,1,.72.31,1,1,0,0,1,.27.74l-.14,2.64a18.23,18.23,0,0,1,4.31,1.78l1.75-2a1,1,0,0,1,.72-.34,1.08,1.08,0,0,1,.74.29l5.85,5.85a1,1,0,0,1,.3.74,1,1,0,0,1-.33.71l-2,1.76A18.26,18.26,0,0,1,57.69,31l2.63-.15a1,1,0,0,1,.75.27,1,1,0,0,1,.31.73V40.1a1,1,0,0,1-.31.73,1,1,0,0,1-.75.27L57.71,41a18.5,18.5,0,0,1-2.22,5L53.8,44.94A16.67,16.67,0,0,0,56,39.69a1,1,0,0,1,1-.78l2.39.14V32.89L57,33a1,1,0,0,1-1-.77A16.54,16.54,0,0,0,53.77,27,1,1,0,0,1,54,25.73l1.79-1.6-4.36-4.35-1.6,1.79a1,1,0,0,1-1.27.19,16.67,16.67,0,0,0-5.25-2.17,1,1,0,0,1-.78-1Zm-1.77,28.5v-2a6.75,6.75,0,0,0,0-13.34v-2a8.74,8.74,0,0,1,0,17.35Z" style="fill:#fff"/></g></svg>