<svg xmlns="http://www.w3.org/2000/svg" width="75" height="75" viewBox="0 0 75 75"><title>AWS-Thinkbox-Draft_light-bg</title><g id="Background"><rect id="Green_Light_BG" data-name="Green Light BG" width="75" height="75" style="fill:#d86613"/></g><g id="Working"><path d="M26.76,45l0,0,4.69-2.71-1.13-2-3,1.75V32.93l.64.38,1.13-2-1.77-1V17.92a1.12,1.12,0,0,0-.57-1,1.09,1.09,0,0,0-1.13,0l-11.3,6.52h0l-.1.07h0a1.13,1.13,0,0,0-.46.81h0v0h0V50.55a1.13,1.13,0,0,0,.56,1L19,54.25l1.13-2-3-1.74ZM16,37.5V26.41l3,1.74,1.13-2-3-1.74,7.91-4.57V29l-.65-.37-1.13,2,1.78,1V43.37l-9,5.22ZM59,48.59l-9.6-5.54h0l-4.67-2.7-1.13,2,3,1.73-7.91,4.56v-.76H36.37V49.9l-10.7,6.18a1.09,1.09,0,0,0-.45.43,1.14,1.14,0,0,0,.41,1.55l11.3,6.52a1.16,1.16,0,0,0,1.14,0l22.48-13,.12-.07a1.13,1.13,0,0,0,.56-1V45.11H59Zm-20.34,13V58.16H36.37v3.48l-7.91-4.56,7.91-4.57v.76h2.26V51.2L48.8,45.33l9,5.22Zm22-38.17h0l-22.6-13a1.16,1.16,0,0,0-1.14,0l-4.71,2.72,1.13,2,3-1.74V29.89h2.26V26.41L46.54,31l-.66.38,1.13,2,1.79-1,10.74,6.2a1.13,1.13,0,0,0,1.69-1v-13A1.13,1.13,0,0,0,60.67,23.47ZM59,35.54,51.06,31l.66-.39-1.13-1.95-1.79,1L38.63,23.8V13.36l3,1.74h0l16.19,9.35-3,1.74,1.13,2,3-1.74ZM36.37,42.9V38.15l-4.11-2.37,1.13-2L37.5,36.2l4.11-2.38,1.13,2-4.11,2.37V42.9Z" style="fill:#fff"/></g></svg>