<svg xmlns="http://www.w3.org/2000/svg" width="75" height="75" viewBox="0 0 75 75"><title>AWS-Local-Zones_light-bg</title><g id="Working"><rect id="Green_Light_BG" data-name="Green Light BG" width="75" height="75" style="fill:#3f8624"/><rect x="11" y="10" width="54" height="56" style="fill:none"/><rect width="75" height="75" style="fill:#d86613"/><g id="Page-1"><g id="White"><path id="AWS-Titans_Icon_64_White" data-name="AWS-Titans Icon 64 White" d="M39.69,30.49a2.19,2.19,0,1,0-2.19,2.18,2.19,2.19,0,0,0,2.19-2.18Zm-.21-3.67L53.94,10.73l1.49,1.33L41,28.15a4.33,4.33,0,1,1-1.49-1.33Zm2.15,10.39.12.27A8.07,8.07,0,0,0,43.55,36a7.21,7.21,0,0,1-1.92,1.22ZM37.5,15.49a15,15,0,0,0-8.19,27.56l1.09-1.68A13,13,0,0,1,41.82,18.22l1.43-1.59a15,15,0,0,0-5.75-1.14Zm13.18,7.84-1.43,1.59A13,13,0,0,1,44.6,41.37l1.1,1.68a15,15,0,0,0,5-19.72ZM33.37,37.2A7.32,7.32,0,0,1,29,30.47a7.16,7.16,0,0,1,.81-3.34L28,26.21A9.34,9.34,0,0,0,32.58,39ZM47.37,27l-1.54,1.71a6.77,6.77,0,0,1,.22,1.75A7.32,7.32,0,0,1,43.56,36a0,0,0,0,0,0,0,7.21,7.21,0,0,1-1.92,1.22l.12.27L42.43,39a9.34,9.34,0,0,0,5.62-8.57A9.08,9.08,0,0,0,47.37,27ZM58.2,30.19C57.59,43,39.05,64.59,38.26,65.5a1,1,0,0,1-1.52,0C36,64.59,17.41,43,16.79,30.19c-.55-11.59,7.87-20.44,20-21h1.31a23.12,23.12,0,0,1,9.6,2.5l-1.4,1.56a20.78,20.78,0,0,0-8.24-2.06H36.86c-10.94.54-18.57,8.51-18.07,18.94C19.31,40.84,34,59.06,37.5,63.3,41,59.06,55.69,40.84,56.21,30.09a18.06,18.06,0,0,0-2.48-10.16L55.2,18.5a19.86,19.86,0,0,1,3,11.69Z" style="fill:#fff;fill-rule:evenodd"/></g></g></g></svg>