<svg xmlns="http://www.w3.org/2000/svg" viewBox="0 0 75 75"><defs><style>.cls-1{fill:#d86613;}.cls-2{fill:#fff;}</style></defs><title>AWS-Fargate_light-bg</title><g id="Reference"><rect id="Orange_Light_BG" data-name="Orange Light BG" class="cls-1" width="75" height="75"/><g id="Product_Icon" data-name="Product Icon"><path class="cls-2" d="M24.79,36.41a1.64,1.64,0,0,0,.24.23,5.32,5.32,0,0,0,.47.36l.11.06a4.82,4.82,0,0,0,.5.27l.31.13.1,0,.11,0,.25.11c.47.17,1,.37,1.58.55l.91.27.49.13a31,31,0,0,0,7.64.89h0a27.7,27.7,0,0,0,11.4-2.18,4.44,4.44,0,0,0,2.6-4V18.88a1.58,1.58,0,0,0-.9-1.42l-12.42-5.8a1.52,1.52,0,0,0-1.33,0L24.4,17.46a1.58,1.58,0,0,0-.9,1.42v14.4a4.44,4.44,0,0,0,1.09,2.92A2,2,0,0,0,24.79,36.41Zm5.1.14-.84-.25c-.54-.17-1-.35-1.41-.49l-.36-.15h0l-.34-.16a3.41,3.41,0,0,1-.33-.17l0,0-.25-.19L26.23,35a.3.3,0,0,0-.08-.08l-.08-.09a2.42,2.42,0,0,1-.59-1.59V20.08l11,5.15V37.47a27.82,27.82,0,0,1-6.15-.8Zm18.2-1.06a24.89,24.89,0,0,1-9.6,2V25.42l11-5v12.8A2.42,2.42,0,0,1,48.09,35.49ZM37.5,13.55l11.06,5.16L37.68,23.59l-.08-.05-10.75-5Z"/><path class="cls-2" d="M54.78,27.68l-.56,1.92c4.49,1.32,7.28,3.2,7.28,4.9,0,3.31-9.86,7-24,7s-24-3.69-24-7c0-1.7,2.79-3.58,7.28-4.9l-.56-1.92c-5.62,1.65-8.72,4.08-8.72,6.82,0,5.84,13.4,9,26,9s26-3.16,26-9C63.5,31.76,60.4,29.34,54.78,27.68Z"/><path class="cls-2" d="M54.72,46.64l-4.65-2a1.3,1.3,0,0,0-1.14,0l-4.75,2.05a1.22,1.22,0,0,0-.68,1.1v5.15L39.07,51a1.34,1.34,0,0,0-1.14,0l-4.46,1.93V47.77a1.25,1.25,0,0,0-.74-1.13l-4.66-2a1.28,1.28,0,0,0-1.13,0l-4.76,2.05a1.22,1.22,0,0,0-.68,1.1v6.08A1.25,1.25,0,0,0,22.24,55l4.65,2h0L27,57a1.33,1.33,0,0,0,.5.11A1,1,0,0,0,28,57l4.49-1.93v5.15a1.25,1.25,0,0,0,.74,1.12l4.64,2h0s0,0,.07,0a1.29,1.29,0,0,0,.54.12,1.1,1.1,0,0,0,.51-.12l4.77-2.05a1.24,1.24,0,0,0,.68-1.1V55.07L48.88,57h0L49,57a1.46,1.46,0,0,0,.54.12A1.1,1.1,0,0,0,50,57L54.78,55a1.22,1.22,0,0,0,.68-1.1V47.77A1.25,1.25,0,0,0,54.72,46.64Zm-5.24-.08,2.73,1.16-2.56,1.05L47,47.63Zm-11,6.38,2.73,1.16-2.56,1L36,54Zm-11-6.38,2.72,1.17-2.56,1L25,47.63Zm-4,2.6,3,1.28v4.2l-3-1.29Zm5,5.47v-4l3-1.23v4Zm6,.9,3,1.29V61l-3-1.29Zm5,5.48V57l3-1.24v4Zm6-11.85,3,1.28v4.2l-3-1.29Zm5,5.48v-4l3-1.24v4Z"/></g></g></svg>