<svg xmlns="http://www.w3.org/2000/svg" xmlns:xlink="http://www.w3.org/1999/xlink" width="75" height="75" viewBox="0 0 75 75"><defs><linearGradient id="Orange_Gradient" x1="-20.83" y1="131.69" x2="-20.83" y2="-18.31" gradientTransform="translate(92.31 12.14) rotate(45)" gradientUnits="userSpaceOnUse"><stop offset="0" stop-color="#c8511b"/><stop offset="1" stop-color="#f90"/></linearGradient></defs><title>AWS-Thinkbox-Frost</title><g id="Background"><rect id="Green_Gradient" data-name="Green Gradient" width="75" height="75" style="fill:url(#Orange_Gradient)"/></g><g id="Working"><path d="M60.67,36.52,51.09,31l4.32-2.5,4.13,2.38,1.13-2-3-1.73,3-1.75-1.13-2-3,1.75V21.73H54.26v4.81l-4.33,2.51V17.92a1.11,1.11,0,0,0-.56-1,1.09,1.09,0,0,0-1.13,0l-9.61,5.54v-5l4.15-2.39-1.13-2-3,1.74V11.4H36.37v3.48l-3-1.74-1.13,2,4.15,2.39v5L26.76,17a1.09,1.09,0,0,0-1.13,0,1.11,1.11,0,0,0-.56,1V29.05l-4.33-2.51V21.73H18.48v3.49l-3-1.75-1.13,2,3,1.75-3,1.73,1.13,2,4.13-2.38L23.91,31l-9.58,5.53a1.14,1.14,0,0,0,0,2L23.94,44l-4.33,2.49-4.15-2.39-1.13,2,3,1.74-3,1.74,1.13,2,3-1.74v3.48h2.26V48.48L25.07,46v11.1a1.11,1.11,0,0,0,.56,1,1.09,1.09,0,0,0,1.13,0l9.61-5.54v5L32.22,59.9l1.13,2,3-1.74V63.6h2.26V60.12l3,1.74,1.13-2-4.15-2.39v-5l9.61,5.54a1.09,1.09,0,0,0,1.13,0,1.11,1.11,0,0,0,.56-1V46l4.33,2.48v4.77h2.26V49.8l3,1.73,1.13-2-3-1.73,3-1.75-1.13-2-4.17,2.4L51,44l9.64-5.56a1.14,1.14,0,0,0,0-2Zm-22-11.42,9-5.22V30.37l-3.82,2.22-5.22-3Zm-11.3-5.22,9,5.22v4.48l-5.21,3-3.83-2.22ZM26.2,42.72l-9-5.22,9-5.2L30,34.55v6ZM36.37,49.9l-9,5.22V44.69l3.82-2.16,5.22,3Zm1.13-6.31-5.22-3v-6l5.22-3,5.22,3v6ZM47.67,55.12l-9-5.22V45.54l5.22-3,3.82,2.19Zm1.09-12.38L45,40.57v-6l3.86-2.25,9,5.2Z" style="fill:#fff"/></g></svg>