<svg xmlns="http://www.w3.org/2000/svg" xmlns:xlink="http://www.w3.org/1999/xlink" width="75" height="75" viewBox="0 0 75 75"><defs><linearGradient id="Orange_Gradient" x1="-20.83" y1="131.69" x2="-20.83" y2="-18.31" gradientTransform="translate(92.31 12.14) rotate(45)" gradientUnits="userSpaceOnUse"><stop offset="0" stop-color="#c8511b"/><stop offset="1" stop-color="#f90"/></linearGradient></defs><title>EC2-Image-Builder</title><g id="Background"><rect id="Green_Gradient" data-name="Green Gradient" width="75" height="75" style="fill:url(#Orange_Gradient)"/></g><g id="Example"><path d="M62.6,33.94v7.27a1.91,1.91,0,0,1-1.9,1.91h-3a18.72,18.72,0,0,1-1.32,3.18l2.13,2.13a1.91,1.91,0,0,1,0,2.7l-5.14,5.14a2,2,0,0,1-2.7,0l-2.13-2.13a18.72,18.72,0,0,1-3.18,1.32v3a1.91,1.91,0,0,1-1.91,1.91H39.8v-2h3.54V53.93l.74-.19A16.78,16.78,0,0,0,48.19,52l.67-.38L52,54.79l5-5-3.15-3.15.38-.66A16.4,16.4,0,0,0,56,41.86l.19-.74H60.6V34H56.15L56,33.29a16.25,16.25,0,0,0-1.71-4.11l-.38-.67L57,25.37l-5-5L48.86,23.5l-.67-.38a16.4,16.4,0,0,0-4.11-1.71l-.74-.2V16.76H39.87v-2h3.56a1.92,1.92,0,0,1,1.91,1.91v3A18.72,18.72,0,0,1,48.52,21l2.13-2.13a1.9,1.9,0,0,1,2.7,0L58.49,24a1.88,1.88,0,0,1,.56,1.35,1.92,1.92,0,0,1-.56,1.35l-2.13,2.13A18.72,18.72,0,0,1,57.68,32h3A1.91,1.91,0,0,1,62.6,33.94ZM40.31,46.57v2a11,11,0,0,0,0-22v2a9,9,0,0,1,0,18ZM17,37.57A18.23,18.23,0,0,0,35.2,55.79v-2a16.22,16.22,0,0,1,0-32.43v-2A18.23,18.23,0,0,0,17,37.57ZM12.4,14.76H38.5V60.38H12.4Zm2,43.62H36.5V16.76H14.4ZM30.48,31.13l-7,7,7,7,1.41-1.42-5.6-5.6,5.6-5.61Z" style="fill:#fff"/></g></svg>