<svg xmlns="http://www.w3.org/2000/svg" width="75" height="75" viewBox="0 0 75 75"><title>EC2-Image-Builder_light-bg</title><g id="Background"><rect id="Green_Light_BG" data-name="Green Light BG" width="75" height="75" style="fill:#d86613"/></g><g id="Example"><path d="M62.6,33.86v7.28A1.9,1.9,0,0,1,60.7,43h-3a18.39,18.39,0,0,1-1.32,3.18l2.13,2.14a1.91,1.91,0,0,1,0,2.7L53.35,56.2a2,2,0,0,1-2.7,0l-2.13-2.14a18.72,18.72,0,0,1-3.18,1.32v3a1.92,1.92,0,0,1-1.91,1.91H39.8v-2h3.54V53.86l.74-.2A16.75,16.75,0,0,0,48.19,52l.67-.39L52,54.72l5-5-3.15-3.15.38-.67A16.33,16.33,0,0,0,56,41.79l.19-.75H60.6V34H56.15L56,33.21a16.33,16.33,0,0,0-1.71-4.1l-.38-.67L57,25.29l-5-5-3.14,3.15L48.19,23a16.75,16.75,0,0,0-4.11-1.7l-.74-.2V16.69H39.87v-2h3.56a1.92,1.92,0,0,1,1.91,1.91v3a18.72,18.72,0,0,1,3.18,1.32l2.13-2.14a1.92,1.92,0,0,1,2.7,0l5.14,5.14a1.91,1.91,0,0,1,0,2.7l-2.13,2.14A18.39,18.39,0,0,1,57.68,32h3A1.9,1.9,0,0,1,62.6,33.86ZM40.31,46.49v2a11,11,0,0,0,0-22v2a9,9,0,0,1,0,18ZM17,37.5A18.23,18.23,0,0,0,35.2,55.72v-2a16.22,16.22,0,0,1,0-32.44v-2A18.23,18.23,0,0,0,17,37.5ZM12.4,14.69H38.5V60.31H12.4Zm2,43.62H36.5V16.69H14.4ZM30.48,31.05l-7,7,7,7,1.41-1.41-5.6-5.61,5.6-5.6Z" style="fill:#fff"/></g></svg>