<svg xmlns="http://www.w3.org/2000/svg" viewBox="0 0 75 75"><defs><style>.cls-1{fill:#d86613;}.cls-2{fill:#fff;}</style></defs><title>VMware-Cloud-On-AWS_light-bg</title><g id="Reference"><rect id="Orange_Light_BG" data-name="Orange Light BG" class="cls-1" width="75" height="75"/><g id="Product_Icon" data-name="Product Icon"><path class="cls-2" d="M22,49.5H45.15a18.7,18.7,0,0,1-2,2H22a9.8,9.8,0,0,1-10-9c0-.22,0-.44,0-.67a9.06,9.06,0,0,1,6.66-9.1c0-.26,0-.51,0-.77A13.39,13.39,0,0,1,39.42,21.12a14.63,14.63,0,0,1,2.26,1.8l.32.33a14.56,14.56,0,0,1,2.76,4.06c.11-.09.23-.17.35-.25a26,26,0,0,1-.38,3,.8.8,0,0,1-.46,0,1,1,0,0,1-.79-.64,13.32,13.32,0,0,0-3.19-5.06A11.43,11.43,0,0,0,20.64,32a12.62,12.62,0,0,0,.08,1.38,1,1,0,0,1-.82,1.1c-2.24.58-5.9,2.29-5.9,7.39,0,.19,0,.38,0,.56A7.81,7.81,0,0,0,22,49.5Z"/><path class="cls-2" d="M63,41.93C63,49,57.74,51.5,52.81,51.5H51.25l.11-.14c.45-.59.89-1.21,1.31-1.86h.14c2.46,0,8.19-.74,8.19-7.57,0-4.1-2.41-6.66-7.16-7.62a1,1,0,0,1-.8-.92A5.91,5.91,0,0,0,51,28.8c.09-.74.14-1.46.17-2.15v-.08a7.3,7.3,0,0,1,3.83,6C60.15,33.8,63,37.12,63,41.93Z"/><path class="cls-2" d="M37,47.5H27a1,1,0,0,1-1-1v-21a1,1,0,0,1,1-1H37a1,1,0,0,1,1,1v21A1,1,0,0,1,37,47.5Zm-9-2h8v-19H28Z"/><rect class="cls-2" x="29" y="28.5" width="6" height="2"/><rect class="cls-2" x="29" y="32.5" width="6" height="2"/><path class="cls-2" d="M50,38.9l-4.74,1.92a1.07,1.07,0,0,1-.76,0,1,1,0,0,1-.54-.55l-1.88-4.62,1.85-.76.91,2.26A37.4,37.4,0,0,0,47.14,26.5v-.33c.08-3.18-.63-5.35-2-5.93-1.1-.47-2.48.17-3.45.79l-1.08-1.68c2.49-1.6,4.27-1.4,5.32-.94,2.14.94,3.25,3.69,3.16,7.76v.4a39.61,39.61,0,0,1-2.51,11.54L49.25,37Z"/><path class="cls-2" d="M56.68,45.28,54.8,46l-.91-2.5a45.47,45.47,0,0,1-4.11,6.68l-.81,1c-3,3.74-6,5.75-8.46,5.75a4,4,0,0,1-1.6-.33,4.85,4.85,0,0,1-2.55-3.06h2.17a2.53,2.53,0,0,0,1.18,1.23c1.72.75,4.68-1.11,7.71-4.85.25-.32.51-.63.76-1A43.8,43.8,0,0,0,52,42.73l-2.43.89-.69-1.88L53.68,40a1,1,0,0,1,.77,0,1,1,0,0,1,.51.56Z"/></g></g></svg>