<svg id="Layer_1" data-name="Layer 1" xmlns="http://www.w3.org/2000/svg" width="100" height="100" viewBox="0 0 100 100"><defs><style>.cls-1{fill:#9d5025;}.cls-2{fill:#f58536;}.cls-3{fill:#fbbf93;}.cls-4{fill:#fff;}.cls-5{fill:#d16929;}</style></defs><title>Compute</title><rect class="cls-1" x="23.5" y="37.61" width="53" height="27.25"/><rect class="cls-2" x="23.5" y="35.13" width="53" height="27.25"/><rect class="cls-3" x="34.95" y="36.76" width="2.5" height="24"/><rect class="cls-3" x="25.75" y="36.76" width="2.5" height="24"/><rect class="cls-3" x="30.35" y="36.76" width="2.5" height="24"/><rect class="cls-3" x="62.55" y="36.76" width="2.5" height="24"/><rect class="cls-3" x="67.15" y="36.76" width="2.5" height="24"/><rect class="cls-3" x="71.75" y="36.76" width="2.5" height="24"/><rect class="cls-4" x="26.4" y="37.41" width="1.85" height="23.35"/><rect class="cls-4" x="31" y="37.41" width="1.85" height="23.35"/><rect class="cls-4" x="35.6" y="37.41" width="1.85" height="23.35"/><rect class="cls-4" x="63.2" y="37.41" width="1.85" height="23.35"/><rect class="cls-4" x="67.8" y="37.41" width="1.85" height="23.35"/><rect class="cls-4" x="72.4" y="37.41" width="1.85" height="23.35"/><rect class="cls-5" x="43.87" y="42.63" width="12.27" height="12.27" rx="2.5" ry="2.5"/><path class="cls-4" d="M53.63,55.65H46.37a3.25,3.25,0,0,1-3.25-3.25V45.13a3.25,3.25,0,0,1,3.25-3.25h7.27a3.25,3.25,0,0,1,3.25,3.25V52.4A3.25,3.25,0,0,1,53.63,55.65ZM46.37,43.38a1.75,1.75,0,0,0-1.75,1.75V52.4a1.75,1.75,0,0,0,1.75,1.75h7.27a1.75,1.75,0,0,0,1.75-1.75V45.13a1.75,1.75,0,0,0-1.75-1.75Z"/><path class="cls-4" d="M46.13,43.38a.75.75,0,0,1-.75-.75V39.88a.75.75,0,1,1,1.5,0v2.75A.75.75,0,0,1,46.13,43.38Z"/><path class="cls-4" d="M48.69,43.38a.75.75,0,0,1-.75-.75V39.88a.75.75,0,0,1,1.5,0v2.75A.75.75,0,0,1,48.69,43.38Z"/><path class="cls-4" d="M51.24,43.38a.75.75,0,0,1-.75-.75V39.88a.75.75,0,0,1,1.5,0v2.75A.75.75,0,0,1,51.24,43.38Z"/><path class="cls-4" d="M53.8,43.38a.75.75,0,0,1-.75-.75V39.88a.75.75,0,0,1,1.5,0v2.75A.75.75,0,0,1,53.8,43.38Z"/><path class="cls-4" d="M46.13,58.4a.75.75,0,0,1-.75-.75V54.9a.75.75,0,1,1,1.5,0v2.75A.75.75,0,0,1,46.13,58.4Z"/><path class="cls-4" d="M48.69,58.4a.75.75,0,0,1-.75-.75V54.9a.75.75,0,0,1,1.5,0v2.75A.75.75,0,0,1,48.69,58.4Z"/><path class="cls-4" d="M51.24,58.4a.75.75,0,0,1-.75-.75V54.9a.75.75,0,0,1,1.5,0v2.75A.75.75,0,0,1,51.24,58.4Z"/><path class="cls-4" d="M53.8,58.4a.75.75,0,0,1-.75-.75V54.9a.75.75,0,0,1,1.5,0v2.75A.75.75,0,0,1,53.8,58.4Z"/><path class="cls-4" d="M58.89,45.68H56.13a.75.75,0,0,1,0-1.5h2.75a.75.75,0,0,1,0,1.5Z"/><path class="cls-4" d="M58.89,48.23H56.13a.75.75,0,0,1,0-1.5h2.75a.75.75,0,0,1,0,1.5Z"/><path class="cls-4" d="M58.89,50.79H56.13a.75.75,0,1,1,0-1.5h2.75a.75.75,0,0,1,0,1.5Z"/><path class="cls-4" d="M58.89,53.34H56.13a.75.75,0,0,1,0-1.5h2.75a.75.75,0,0,1,0,1.5Z"/><path class="cls-4" d="M43.83,45.68H41.08a.75.75,0,0,1,0-1.5h2.75a.75.75,0,0,1,0,1.5Z"/><path class="cls-4" d="M43.83,48.23H41.08a.75.75,0,0,1,0-1.5h2.75a.75.75,0,0,1,0,1.5Z"/><path class="cls-4" d="M43.83,50.79H41.08a.75.75,0,0,1,0-1.5h2.75a.75.75,0,0,1,0,1.5Z"/><path class="cls-4" d="M43.83,53.34H41.08a.75.75,0,0,1,0-1.5h2.75a.75.75,0,0,1,0,1.5Z"/><rect class="cls-3" x="47.52" y="46.28" width="4.96" height="4.96"/><path class="cls-4" d="M52.48,51.74h-5a.5.5,0,0,1-.5-.5v-5a.5.5,0,0,1,.5-.5h5a.5.5,0,0,1,.5.5v5A.5.5,0,0,1,52.48,51.74Zm-4.46-1h4v-4H48Z"/></svg>