<svg id="Layer_1" data-name="Layer 1" xmlns="http://www.w3.org/2000/svg" width="100" height="100" viewBox="0 0 100 100"><defs><style>.cls-1{fill:#9d5025;}.cls-2{fill:#f58536;}</style></defs><title>Compute</title><rect class="cls-1" x="46.54" y="47.72" width="30.02" height="30.02" rx="3" ry="3"/><path class="cls-1" d="M50.46,24.74h-24a3,3,0,0,0-3,3v24a3,3,0,0,0,3,3H32V39.23a6,6,0,0,1,6-6H53.46V27.74A3,3,0,0,0,50.46,24.74Z"/><path class="cls-1" d="M62,36.23H38a3,3,0,0,0-3,3v24a3,3,0,0,0,3,3h5.55V50.72a6,6,0,0,1,6-6H65V39.23A3,3,0,0,0,62,36.23Z"/><rect class="cls-2" x="46.54" y="45.24" width="30.02" height="30.02" rx="3" ry="3"/><path class="cls-2" d="M50.46,22.26h-24a3,3,0,0,0-3,3v24a3,3,0,0,0,3,3H32V36.75a6,6,0,0,1,6-6H53.46V25.26A3,3,0,0,0,50.46,22.26Z"/><path class="cls-2" d="M62,33.75H38a3,3,0,0,0-3,3v24a3,3,0,0,0,3,3h5.55V48.24a6,6,0,0,1,6-6H65V36.75A3,3,0,0,0,62,33.75Z"/></svg>