<svg id="Layer_1" data-name="Layer 1" xmlns="http://www.w3.org/2000/svg" width="100" height="100" viewBox="0 0 100 100"><defs><style>.cls-1{fill:#9d5025;}.cls-2{fill:#f58536;}.cls-3{fill:#fff;}.cls-4{fill:#fbbf93;}</style></defs><title>Compute</title><g id="network_access_control_list" data-name="network access control list"><path class="cls-1" d="M19.57,50.24c0-16.81,13.62-29.43,30.43-29.43S80.43,33.43,80.43,50.24"/><path class="cls-1" d="M80.43,50.24C80.43,67,66.81,81.67,50,81.67S19.57,67,19.57,50.24"/><path class="cls-2" d="M50,18.33C33.19,18.33,19.57,31,19.57,47.76S33.19,79.19,50,79.19,80.43,64.57,80.43,47.76,66.81,18.33,50,18.33Z"/><path class="cls-3" d="M55,48.67V44.8a5,5,0,0,0-9.93,0v3.88H42.5v8.59h15V48.67Zm-2.43,0H47.46l0-3.88A2.37,2.37,0,0,1,50,42.43a2.48,2.48,0,0,1,2.56,2.37Z"/><rect class="cls-4" x="33.5" y="31.26" width="5" height="35"/><rect class="cls-4" x="61.5" y="31.26" width="5" height="35"/><polyline class="cls-3" points="26.5 50.67 26.5 53.26 31.5 49.26 26.5 45.26 26.5 47.86"/><polyline class="cls-3" points="73.5 47.86 73.5 45.26 68.5 49.26 73.5 53.26 73.5 50.67"/></g></svg>