<svg id="Layer_1" data-name="Layer 1" xmlns="http://www.w3.org/2000/svg" width="100" height="100" viewBox="0 0 100 100"><defs><style>.cls-1{fill:#fbbf93;}.cls-2{fill:#9d5025;}.cls-3{fill:#f58536;}</style></defs><title>Compute</title><polygon class="cls-1" points="62.55 67.85 70.4 68.95 64.83 80.75 56.79 68.95 62.55 67.85"/><polygon class="cls-1" points="37.46 67.86 43.19 68.95 35.16 80.75 29.62 68.96 37.46 67.86"/><polygon class="cls-2" points="35.16 80.75 29.62 78.58 29.62 68.96 35.16 70.26 41.84 74.85 35.16 80.75"/><polygon class="cls-2" points="16 64.15 25.53 66.06 36.4 46.97 25.53 25.7 16 30.47 16 64.15"/><polygon class="cls-3" points="49.99 76.73 55.83 75.16 55.83 66.9 49.99 67.85 49.99 76.73"/><polygon class="cls-2" points="49.99 76.73 44.19 75.16 44.19 66.91 49.99 67.85 49.99 76.73"/><polygon class="cls-3" points="35.16 80.75 43.19 78.57 43.19 68.95 35.16 70.26 35.16 80.75"/><polygon class="cls-3" points="41.84 64.29 25.53 66.06 25.53 25.7 41.84 30.11 41.84 64.29"/><polygon class="cls-2" points="64.83 80.75 56.79 78.57 56.79 68.95 64.83 70.26 69.45 74.29 64.83 80.75"/><polygon class="cls-1" points="49.99 70.26 58.15 71.82 49.99 86.53 41.84 71.82 49.99 70.26"/><polygon class="cls-2" points="49.99 86.53 41.84 83.35 41.84 71.82 49.99 73.73 55.13 79.17 49.99 86.53"/><polygon class="cls-2" points="57.16 64.17 74.45 66.04 81.74 48.25 74.45 25.7 57.16 30.38 57.16 64.17"/><polygon class="cls-2" points="31.89 67.33 49.99 70.95 56.27 44.17 49.99 13.47 31.89 22.52 31.89 67.33"/><polygon class="cls-3" points="64.83 70.26 70.4 68.95 70.4 78.57 64.83 80.75 64.83 70.26"/><polygon class="cls-3" points="58.15 71.82 49.99 73.73 49.99 86.53 58.15 83.35 58.15 71.82"/><polygon class="cls-3" points="74.45 25.7 84 30.48 84 64.14 74.45 66.04 74.45 25.7"/><polygon class="cls-3" points="49.99 13.47 68.17 22.56 68.17 67.3 49.99 70.93 49.99 13.47"/></svg>