<svg id="Layer_1" data-name="Layer 1" xmlns="http://www.w3.org/2000/svg" width="100" height="100" viewBox="0 0 100 100"><defs><style>.cls-1{fill:#9d5025;}.cls-2{fill:#f58536;}.cls-3{fill:#fff;}.cls-4{fill:#fbbf93;}</style></defs><title>Compute</title><circle class="cls-1" cx="50" cy="51.25" r="30.43"/><rect class="cls-1" x="19.57" y="48.75" width="60.86" height="2.5"/><circle class="cls-2" cx="50" cy="48.75" r="30.43"/><polygon class="cls-3" points="51.97 45.45 48.04 45.45 45.93 27.32 54.08 27.32 51.97 45.45"/><polygon class="cls-3" points="67.6 58.8 69.17 57.5 63.48 49 51.02 44.65 50 51.53 61.23 52.58 67.6 58.8"/><polygon class="cls-3" points="32.4 58.8 30.84 57.5 36.52 49 48.98 44.65 50 51.53 38.77 52.58 32.4 58.8"/><circle class="cls-3" cx="50" cy="27.32" r="5.65"/><path class="cls-2" d="M50,33.47a6.15,6.15,0,1,1,6.15-6.15A6.16,6.16,0,0,1,50,33.47Zm0-11.3a5.15,5.15,0,1,0,5.15,5.15A5.15,5.15,0,0,0,50,22.17Z"/><circle class="cls-2" cx="50" cy="27.32" r="1.85"/><circle class="cls-3" cx="50" cy="48.02" r="4.07"/><path class="cls-2" d="M50,52.59A4.57,4.57,0,1,1,54.58,48,4.58,4.58,0,0,1,50,52.59Zm0-8.15A3.57,3.57,0,1,0,53.58,48,3.58,3.58,0,0,0,50,44.45Z"/><circle class="cls-2" cx="50" cy="48.02" r="1.25"/><rect class="cls-3" x="36.87" y="57.4" width="26.26" height="14.51"/><rect class="cls-4" x="38.19" y="58.57" width="2" height="12.17"/><rect class="cls-4" x="41.79" y="58.57" width="2" height="12.17"/><rect class="cls-4" x="45.4" y="58.57" width="2" height="12.17"/><rect class="cls-4" x="49" y="58.57" width="2" height="12.17"/><rect class="cls-4" x="52.6" y="58.57" width="2" height="12.17"/><rect class="cls-4" x="56.21" y="58.57" width="2" height="12.17"/><rect class="cls-4" x="59.81" y="58.57" width="2" height="12.17"/></svg>