<svg xmlns="http://www.w3.org/2000/svg" xmlns:xlink="http://www.w3.org/1999/xlink" viewBox="0 0 75 75"><defs><style>.cls-1{fill:url(#RedGradient);}.cls-2{fill:#fff;}</style><linearGradient id="RedGradient" x1="-15.53" y1="90.53" x2="90.53" y2="-15.53" gradientTransform="translate(0 0)" gradientUnits="userSpaceOnUse"><stop offset="0" stop-color="#bd0816"/><stop offset="1" stop-color="#ff5252"/></linearGradient></defs><title>Alexa-For-Business</title><g id="Working"><rect id="Red_Gradient" data-name="Red Gradient" class="cls-1" width="75" height="75"/><g id="Icon_Test" data-name="Icon Test"><path class="cls-2" d="M35.22,55.92a1,1,0,0,1-1-1V52.14a3.72,3.72,0,0,0-1.42-3c-.49-.35-1.94-1.36-2.46-1.67-5.4-3.16-8.63-8.41-8.63-14a15.84,15.84,0,0,1,15.68-15.8l1.29.05h.14A15.81,15.81,0,0,1,52.7,29.12c0,.17.09.3.12.43A16.52,16.52,0,0,1,53.41,34c0,9.93-7.5,19.13-17.84,21.9A1.43,1.43,0,0,1,35.22,55.92Zm2.17-36.34a13.84,13.84,0,0,0-13.68,13.8c0,4.92,2.86,9.53,7.64,12.33.7.4,2.55,1.72,2.63,1.77a5.74,5.74,0,0,1,2.24,4.66v1.44c8.88-2.89,15.19-11,15.19-19.62A14.37,14.37,0,0,0,50.88,30a2,2,0,0,0-.08-.28s0-.09,0-.1a13.77,13.77,0,0,0-12.08-10h-.12ZM30.21,62.5a1,1,0,0,1-.61-.21,1,1,0,0,1-.38-.79v-9A20.83,20.83,0,1,1,58.34,33.34c0,12.71-9.87,24.48-23.45,28l-4.43,1.14A1.07,1.07,0,0,1,30.21,62.5Zm7.29-48a18.83,18.83,0,0,0-7.34,36.18,1.66,1.66,0,0,1,1.05,1.51v8l3.18-.82c12.72-3.28,22-14.24,22-26A18.86,18.86,0,0,0,37.5,14.5Zm7.71,13h-16v2h16Zm3,5h-19v2h19Zm-9,5h-10v2h10Z"/></g></g></svg>