<svg xmlns="http://www.w3.org/2000/svg" xmlns:xlink="http://www.w3.org/1999/xlink" viewBox="0 0 75 75"><defs><style>.cls-1{fill:url(#RedGradient);}.cls-2{fill:#fff;}</style><linearGradient id="RedGradient" x1="242.53" y1="-41.53" x2="136.47" y2="64.53" gradientTransform="translate(227 49) rotate(180)" gradientUnits="userSpaceOnUse"><stop offset="0" stop-color="#bd0816"/><stop offset="1" stop-color="#ff5252"/></linearGradient></defs><title>Amazon-WorkMail</title><g id="Working"><rect id="Red_Gradient" data-name="Red Gradient" class="cls-1" width="75" height="75"/><g id="Icon_Test" data-name="Icon Test"><path class="cls-2" d="M61.5,12.5h-48a1,1,0,0,0-1,1v48a1,1,0,0,0,1,1h48a1,1,0,0,0,1-1v-48A1,1,0,0,0,61.5,12.5Zm-2.42,2L37.5,36.09,15.92,14.5Zm1.42,46h-46V15.92L36.79,38.21a1,1,0,0,0,1.42,0L60.5,15.92Z"/></g></g></svg>