<svg xmlns="http://www.w3.org/2000/svg" xmlns:xlink="http://www.w3.org/1999/xlink" viewBox="0 0 75 75"><defs><style>.cls-1{fill:url(#RedGradient);}.cls-2{fill:#fff;fill-rule:evenodd;}</style><linearGradient id="RedGradient" x1="900.13" y1="337.75" x2="750.13" y2="337.75" gradientTransform="translate(859.78 -307.13) rotate(135)" gradientUnits="userSpaceOnUse"><stop offset="0" stop-color="#bd0816"/><stop offset="1" stop-color="#ff5252"/></linearGradient></defs><title>Amazon-Chime</title><g id="Working"><rect id="Red_Gradient" data-name="Red Gradient" class="cls-1" width="75" height="75"/><path class="cls-2" d="M62.44,35.87,47.73,31l-3.31,1.66V37.8a1,1,0,0,0,.69,1l.7.23-3.6,3.61A1,1,0,0,0,42,43.73l.33.67H37.09a.81.81,0,0,0-.76.56l-.29.85L32.22,42a.61.61,0,0,0-.7-.11l-.93.46V37a.67.67,0,0,0-.46-.64L29.18,36,33,32.25a.67.67,0,0,0,.12-.78l-.43-.87h5.16a.92.92,0,0,0,.89-.65l.26-.76L42.76,33a.67.67,0,0,0,.77.12l.89-.45L47.73,31h0l12-6A.67.67,0,0,0,60,23.88l-5.11-5.11a.67.67,0,0,0-.77-.12l-13.93,7,4.12-12.4A.93.93,0,0,0,43.37,12H36.72a.93.93,0,0,0-.89.64L31,27.26l-6-12a.68.68,0,0,0-1.09-.17l-5.08,5.09a.67.67,0,0,0-.13.78l7,13.92L12.89,30.63a.68.68,0,0,0-.89.64v7.21a.68.68,0,0,0,.46.64L27.25,44,15.16,50.09a.6.6,0,0,0-.15,1l5.19,5.19a.59.59,0,0,0,.7.12l14-7L30.7,61.93A.8.8,0,0,0,31.47,63h6.92a.82.82,0,0,0,.77-.55L44,47.74l5.84,11.63a1,1,0,0,0,1.58.26L56.08,55a1,1,0,0,0,.18-1.14L49.39,40.17l12.52,4.15A.83.83,0,0,0,63,43.54V36.65A.83.83,0,0,0,62.44,35.87ZM41,27.31l12.76-6.4a.67.67,0,0,1,.77.12l2.34,2.35a.66.66,0,0,1-.17,1.06l-12.76,6.4a.67.67,0,0,1-.77-.12l-2.34-2.35A.66.66,0,0,1,41,27.31Zm-8.1.2,4.31-13a1,1,0,0,1,.89-.64H40.8a.94.94,0,0,1,.89,1.23l-4.32,13a.93.93,0,0,1-.89.64H33.74A.93.93,0,0,1,32.85,27.51Zm-11.94-6.2a.7.7,0,0,1,.12-.79l2.33-2.32a.68.68,0,0,1,1.09.17L30.84,31.1a.68.68,0,0,1-.13.79l-2.33,2.32A.67.67,0,0,1,27.3,34ZM14.32,37.78a.67.67,0,0,1-.46-.64v-3.3a.67.67,0,0,1,.88-.64l13.53,4.49a.68.68,0,0,1,.47.64v3.3a.68.68,0,0,1-.89.64Zm19.81,9.87L21.27,54.11a.62.62,0,0,1-.71-.11l-2.43-2.43a.62.62,0,0,1,.16-1l10.45-5.24h0l2.41-1.21a.61.61,0,0,1,.71.11l2.43,2.43A.61.61,0,0,1,34.13,47.65Zm8.08-.33L37.82,60.58a.8.8,0,0,1-.77.56H34a.81.81,0,0,1-.76-1.07l4.39-13.26a.81.81,0,0,1,.77-.55h3A.8.8,0,0,1,42.21,47.32ZM54,53.49a1,1,0,0,1-.18,1.15L52,56.5a1,1,0,0,1-1.58-.26l-6.1-12.15A1,1,0,0,1,44.46,43l1.86-1.86a1,1,0,0,1,1.58.25Zm7.14-12.36a.71.71,0,0,1-.93.68L46.88,37.39a.91.91,0,0,1-.62-.86V33.46a.73.73,0,0,1,1-.68l13.26,4.4a1,1,0,0,1,.66.91Z"/></g></svg>