<svg xmlns="http://www.w3.org/2000/svg" xmlns:xlink="http://www.w3.org/1999/xlink" viewBox="0 0 75 75"><defs><style>.cls-1{fill:url(#GreenGradient);}.cls-2{fill:#fff;}</style><linearGradient id="GreenGradient" x1="235.9" y1="565.48" x2="235.9" y2="415.48" gradientTransform="translate(217.52 -476.13) rotate(45)" gradientUnits="userSpaceOnUse"><stop offset="0" stop-color="#1b660f"/><stop offset="1" stop-color="#6cae3e"/></linearGradient></defs><title>AWS-Budgets</title><g id="Working"><rect id="Green_Gradient" data-name="Green Gradient" class="cls-1" width="75" height="75"/><g id="Icon_Test" data-name="Icon Test"><path class="cls-2" d="M61.17,36.75,54.5,30.81v2.68l4.39,3.91L37.5,52.28,16.11,37.4l4.39-3.91V30.81l-6.67,5.94a1,1,0,0,0-.33.75V61.4a1.11,1.11,0,0,0,1.11,1.1H60.39a1.11,1.11,0,0,0,1.11-1.1V37.5A1,1,0,0,0,61.17,36.75ZM15.5,39.41l11.07,7.7L15.5,59ZM16.8,60.5,28.22,48.26l8.64,6a1.13,1.13,0,0,0,.64.2,1.06,1.06,0,0,0,.64-.2l8.64-6L58.2,60.5ZM59.5,59,48.43,47.11l11.07-7.7Z"/><path class="cls-2" d="M52.5,13.5V39.42l-2,1.39V14.5h-26V40.81l-2-1.39V13.5a1,1,0,0,1,1-1h28A1,1,0,0,1,52.5,13.5Z"/><path class="cls-2" d="M46.79,28.12a1.24,1.24,0,0,1-.91-.35,1.26,1.26,0,0,1-.35-.91,1.23,1.23,0,0,1,.35-.91,1.36,1.36,0,0,1,1.82,0,1.23,1.23,0,0,1,.35.91,1.26,1.26,0,0,1-.35.91A1.24,1.24,0,0,1,46.79,28.12ZM46,24.7l-.31-6.44a2.46,2.46,0,0,1,2.24,0L47.6,24.7Z"/><path class="cls-2" d="M44.54,28.5v4h-2v-1.2l-6.37,7.85a1,1,0,0,1-1.39.16l-3.11-2.4-3.39,4.23-1.56-1.24,4-5a1,1,0,0,1,1.39-.17l3.12,2.4L41.4,29.5H39.56v-2h4A1,1,0,0,1,44.54,28.5Z"/></g></g></svg>