<svg xmlns="http://www.w3.org/2000/svg" xmlns:xlink="http://www.w3.org/1999/xlink" viewBox="0 0 75 75"><defs><style>.cls-1{fill:url(#GreenGradient);}.cls-2{fill:#fff;}</style><linearGradient id="GreenGradient" x1="575.78" y1="203.4" x2="425.78" y2="203.4" gradientTransform="translate(535.43 -172.78) rotate(135)" gradientUnits="userSpaceOnUse"><stop offset="0" stop-color="#1b660f"/><stop offset="1" stop-color="#6cae3e"/></linearGradient></defs><title>AWS-Cost-Explorer</title><g id="Reference"><rect id="Green_Gradient" data-name="Green Gradient" class="cls-1" width="75" height="75"/><g id="Icon_Test" data-name="Icon Test"><path class="cls-2" d="M57.29,14.35V12.63h-2V14.4a4.5,4.5,0,0,0-3.4,4.36,1,1,0,0,0,0,.24l-4.83,2.54a4.48,4.48,0,0,0-2.67-1.78V12.63h-2v7.13a4.48,4.48,0,0,0-3.5,4.38,4.41,4.41,0,0,0,1.24,3.09L32.13,38a5.43,5.43,0,0,0-.75-.24V12.63h-2V37.77a4.37,4.37,0,0,0-2,1.12l-5.79-4A4.51,4.51,0,0,0,19.11,29a6.59,6.59,0,0,0-.72-.22V12.63h-2V28.81a4.49,4.49,0,0,0,0,8.76V60.63H52.82l-2-2H44.39v-.48a11.29,11.29,0,0,1-2-.42v.9h-11V46.54a4.58,4.58,0,0,0,2.75-1.84h0a4.54,4.54,0,0,0,.79-2.55v-.26a4.47,4.47,0,0,0-1.15-2.75l8-10.79a3,3,0,0,0,.6.18v6.62a11.29,11.29,0,0,1,2-.42v-6.2a4.51,4.51,0,0,0,3.44-5.12h0L52.46,21a4.44,4.44,0,0,0,2.93,2.15V39.53a11.81,11.81,0,0,1,2,4.54V23.14a4.5,4.5,0,0,0-.1-8.79ZM14.89,33.19a2.5,2.5,0,1,1,2.5,2.5A2.5,2.5,0,0,1,14.89,33.19Zm14.5,25.44h-11V37.57a4.26,4.26,0,0,0,2-1l5.85,4A4.1,4.1,0,0,0,26,42.15a4.49,4.49,0,0,0,3.44,4.36Zm1.05-14a2.5,2.5,0,1,1,2.5-2.5A2.5,2.5,0,0,1,30.44,44.63Zm13-18a2.5,2.5,0,1,1,2.5-2.5A2.5,2.5,0,0,1,43.39,26.63Zm13-5.37a2.5,2.5,0,1,1,2.5-2.5A2.5,2.5,0,0,1,56.39,21.26Z"/><path class="cls-2" d="M61.39,56.94l-6.54-6.56a9.88,9.88,0,1,0-9.07,5.93h0a9.57,9.57,0,0,0,4.44-1.07l6.46,6.39a3.34,3.34,0,0,0,4.7-4.69Zm-15.6-2.63a7.88,7.88,0,1,1,7.88-7.88h0a7.89,7.89,0,0,1-7.85,7.87ZM60,60.25a1.35,1.35,0,0,1-1.9,0L52,54.14a9.82,9.82,0,0,0,1.86-2L60,58.31a1.36,1.36,0,0,1,0,1.91l0,0Z"/><path class="cls-2" d="M42.39,50.18a5,5,0,1,1,6-8.11h0l-1.2,1.61a3,3,0,0,0-4.8,3,3,3,0,0,0,1.2,2Z"/></g></g></svg>