<svg xmlns="http://www.w3.org/2000/svg" viewBox="0 0 75 75"><defs><style>.cls-1{fill:#3f8624;}.cls-2{fill:#fff;}</style></defs><title>Reserved-Instance-Reporting_light-bg</title><g id="Reference"><rect id="Green_Light_BG" data-name="Green Light BG" class="cls-1" width="75" height="75"/><g id="Product_Icon" data-name="Product Icon"><path class="cls-2" d="M59.26,36.5,53.58,22.79,56.33,20l-1.42-1.42-2.77,2.77L38.5,15.75V12.5h-2v3.24L22.8,21.41,20,18.62,18.59,20l2.81,2.81L15.74,36.5H12.5v2h3.24l5.65,13.64-2.8,2.8L20,56.36l2.78-2.78L36.5,59.25V62.5h2V59.26L52.15,53.6l2.76,2.76,1.42-1.42L53.59,52.2l5.67-13.7H62.5v-2Zm-7.2,14.17-7.51-7.51-1.42,1.42,7.49,7.49L37.5,57.51,24.32,52.05l7.51-7.51-1.42-1.42-7.49,7.49L17.49,37.5l5.44-13.12,7.49,7.49,1.42-1.42-7.51-7.51L37.5,17.49l13.11,5.43-7.49,7.49,1.42,1.42,7.51-7.51L57.51,37.5Z"/><path class="cls-2" d="M37.5,30.5a7,7,0,1,0,7,7A7,7,0,0,0,37.5,30.5Zm0,12a5,5,0,1,1,5-5A5,5,0,0,1,37.5,42.5Z"/></g></g></svg>