<?xml version="1.0" encoding="utf-8"?>
<!-- Generator: Adobe Illustrator 21.0.0, SVG Export Plug-In . SVG Version: 6.00 Build 0)  -->
<svg version="1.1" id="Layer_1" xmlns="http://www.w3.org/2000/svg" xmlns:xlink="http://www.w3.org/1999/xlink" x="0px" y="0px"
	 width="100px" height="100px" viewBox="0 0 100 100" style="enable-background:new 0 0 100 100;" xml:space="preserve">
<style type="text/css">
	.st0{fill:#ABABAB;}
	.st1{fill:#FEB72F;}
	.st2{fill:#A2D8F2;}
	.st3{fill:#59BAE1;}
</style>
<g>
	<g>
		<path class="st0" d="M73.3,64.6c-3.4,0-6.1,2.7-6.1,6.1c0,0.7,0.1,1.4,0.3,2l-13.1,7.5c-1.1-1.2-2.7-1.9-4.5-1.9
			c-1.8,0-3.4,0.8-4.5,1.9l-13.4-7.7c0.2-0.6,0.3-1.2,0.3-1.8c0-3.4-2.7-6.1-6.1-6.1s-6.1,2.7-6.1,6.1c0,3.4,2.7,6.1,6.1,6.1
			c1.8,0,3.4-0.8,4.5-1.9l13.4,7.7c-0.2,0.6-0.3,1.2-0.3,1.8c0,3.4,2.7,6.1,6.1,6.1s6.1-2.7,6.1-6.1c0-0.6-0.1-1.2-0.3-1.8L69,75
			c1.1,1.1,2.6,1.8,4.3,1.8c3.4,0,6.1-2.7,6.1-6.1C79.4,67.4,76.6,64.6,73.3,64.6z"/>
	</g>
</g>
<g>
	<g>
		<path class="st0" d="M41.8,9.5c-3.4,0-6.1,2.7-6.1,6.1c0,0.6,0.1,1.2,0.3,1.8l-13.4,7.7c-1.1-1.2-2.7-1.9-4.5-1.9
			c-3.4,0-6.1,2.7-6.1,6.1c0,2.9,2,5.3,4.7,5.9v15.4c-2.7,0.6-4.7,3-4.7,5.9c0,3.4,2.7,6.1,6.1,6.1s6.1-2.7,6.1-6.1
			c0-2.9-2-5.3-4.7-5.9V35.2c2.7-0.6,4.7-3,4.7-5.9c0-0.6-0.1-1.2-0.3-1.8l13.4-7.7c1.1,1.2,2.7,1.9,4.5,1.9c3.4,0,6.1-2.7,6.1-6.1
			C47.9,12.2,45.2,9.5,41.8,9.5z"/>
	</g>
</g>
<g>
	<g>
		<path class="st0" d="M83.2,50.5V35.2c2.7-0.6,4.7-3,4.7-5.9c0-3.4-2.7-6.1-6.1-6.1c-1.8,0-3.3,0.8-4.5,1.9L64,17.4
			c0.2-0.6,0.3-1.2,0.3-1.8c0-3.4-2.7-6.1-6.1-6.1c-3.4,0-6.1,2.7-6.1,6.1c0,3.4,2.7,6.1,6.1,6.1c1.8,0,3.4-0.8,4.5-1.9L76,27.4
			c-0.2,0.6-0.3,1.2-0.3,1.8c0,2.9,2,5.3,4.7,5.9v15.4c-2.7,0.6-4.7,3-4.7,5.9c0,3.4,2.7,6.1,6.1,6.1s6.1-2.7,6.1-6.1
			C87.9,53.6,85.9,51.1,83.2,50.5z"/>
	</g>
</g>
<polygon class="st1" points="50,35.1 66.4,51.5 71.7,46.1 50,24.4 28.3,46.1 33.6,51.5 "/>
<polygon class="st2" points="50,37.2 31.5,55.7 36.8,61.1 50,47.9 63.2,61.1 68.5,55.7 "/>
<polygon class="st3" points="50,50 35.4,64.6 40.7,69.9 50,60.7 59.3,69.9 64.6,64.6 "/>
</svg>
