<svg id="Layer_1" data-name="Layer 1" xmlns="http://www.w3.org/2000/svg" width="100" height="100" viewBox="0 0 100 100"><defs><style>.cls-1{fill:#4b612c;}.cls-2{fill:#759c3e;}.cls-3{fill:#fff;}</style></defs><title>ManagementTools</title><rect class="cls-1" x="20.23" y="19.57" width="7.73" height="42.4"/><rect class="cls-1" x="30.97" y="30.3" width="7.73" height="42.4"/><polygon class="cls-1" points="79.77 83.44 79.77 54.06 66.75 41.04 41.7 41.04 41.7 83.44 79.77 83.44"/><polygon class="cls-2" points="53.01 24.3 45.27 16.56 20.23 16.56 20.23 58.96 27.96 58.96 27.96 24.3 53.01 24.3"/><polygon class="cls-2" points="63.74 35.03 56.01 27.3 30.97 27.3 30.97 69.7 38.7 69.7 38.7 35.03 63.74 35.03"/><polygon class="cls-2" points="79.77 80.43 79.77 51.06 66.75 38.04 41.7 38.04 41.7 80.43 79.77 80.43"/><rect class="cls-3" x="64.11" y="38.04" width="2.6" height="15.62"/><rect class="cls-3" x="64.11" y="51.06" width="15.66" height="2.6"/><rect class="cls-3" x="46.91" y="51.06" width="11.88" height="2.6"/><rect class="cls-3" x="46.91" y="60.66" width="27.92" height="2.6"/><rect class="cls-3" x="46.91" y="70.26" width="27.92" height="2.6"/></svg>