<svg id="Layer_1" data-name="Layer 1" xmlns="http://www.w3.org/2000/svg" width="100" height="100" viewBox="0 0 100 100"><defs><style>.cls-1{fill:#b7ca9d;}.cls-2{fill:#4b612c;}.cls-3{fill:#759c3e;}</style></defs><title>ManagementTools</title><polygon class="cls-1" points="86.24 65.43 50.01 60.1 13.76 65.43 49.99 91 86.24 65.43"/><polygon class="cls-2" points="21.02 64.81 27.14 66.64 41.53 44.57 27.14 22.5 21.02 24.85 21.02 64.81"/><polygon class="cls-3" points="48.82 62.91 27.14 66.72 27.14 22.5 48.82 27.38 48.82 62.91"/><polygon class="cls-2" points="39.15 70.33 30.7 67.8 30.7 13.23 39.15 9 64.19 41.28 39.15 70.33"/><polygon class="cls-3" points="68.11 63.61 39.15 70.4 39.15 9 68.11 20.29 68.11 63.61"/><polygon class="cls-2" points="49.99 78.28 13.76 65.43 13.76 72.89 49.99 91 49.99 78.28"/><polygon class="cls-3" points="86.24 72.88 49.99 91 49.99 78.28 86.24 65.43 86.24 72.88"/><polygon class="cls-1" points="76.06 53.08 67.27 53.08 42.23 54.78 50 73.59 76.06 53.08"/><polygon class="cls-2" points="42.23 71.26 50 73.59 49.99 55.62 42.23 54.78 42.23 71.26"/><polygon class="cls-3" points="76.06 53.08 49.99 55.62 50 73.59 76.06 65.74 76.06 53.08"/></svg>