<svg id="Layer_1" data-name="Layer 1" xmlns="http://www.w3.org/2000/svg" width="100" height="100" viewBox="0 0 100 100"><defs><style>.cls-1{fill:#4b612c;}.cls-2{fill:#759c3e;}.cls-3{fill:#fff;}</style></defs><title>ManagementTools</title><path class="cls-1" d="M54.81,79.33l-31.65-22,22-31.65,31.65,22Zm-28-22.69,27.31,19,19-27.31-27.31-19Z"/><rect class="cls-1" x="21.13" y="46.34" width="14.48" height="2.64"/><rect class="cls-1" x="25.3" y="40.26" width="14.48" height="2.64"/><rect class="cls-1" x="29.46" y="34.19" width="14.48" height="2.64"/><rect class="cls-1" x="53.51" y="23.52" width="2.64" height="14.48"/><rect class="cls-1" x="59.58" y="27.75" width="2.64" height="14.48"/><rect class="cls-1" x="65.66" y="31.98" width="2.64" height="14.48"/><rect class="cls-1" x="64.38" y="56.01" width="14.48" height="2.64"/><rect class="cls-1" x="60.22" y="62.08" width="14.48" height="2.64"/><rect class="cls-1" x="56.05" y="68.15" width="14.48" height="2.64"/><rect class="cls-1" x="43.84" y="66.98" width="2.64" height="14.48"/><rect class="cls-1" x="37.77" y="62.76" width="2.64" height="14.48"/><rect class="cls-1" x="31.7" y="58.53" width="2.64" height="14.48"/><rect class="cls-2" x="30.72" y="30.73" width="38.56" height="38.56" transform="translate(-19.61 62.47) rotate(-55.15)"/><polygon class="cls-3" points="47.18 34.35 37.42 34.35 39.26 31.71 47.18 31.71 47.18 34.35"/><polygon class="cls-2" points="29.46 31.71 39.22 31.71 37.38 34.35 29.46 34.35 29.46 31.71"/><polygon class="cls-2" points="25.3 37.78 35.06 37.78 33.21 40.42 25.3 40.42 25.3 37.78"/><polygon class="cls-2" points="21.13 43.85 30.89 43.85 29.05 46.49 21.13 46.49 21.13 43.85"/><polygon class="cls-3" points="42.95 40.42 33.19 40.42 35.04 37.78 42.95 37.78 42.95 40.42"/><polygon class="cls-3" points="38.73 46.49 28.97 46.49 30.81 43.85 38.73 43.85 38.73 46.49"/><polygon class="cls-3" points="34.34 52.83 34.34 62.59 31.7 60.75 31.7 52.83 34.34 52.83"/><polygon class="cls-3" points="40.41 57.05 40.41 66.81 37.77 64.97 37.77 57.05 40.41 57.05"/><polygon class="cls-3" points="46.49 61.28 46.49 71.04 43.84 69.2 43.84 61.28 46.49 61.28"/><polygon class="cls-3" points="52.82 65.66 62.58 65.66 60.74 68.31 52.82 68.31 52.82 65.66"/><polygon class="cls-3" points="57.05 59.59 66.81 59.59 64.96 62.24 57.05 62.24 57.05 59.59"/><polygon class="cls-3" points="61.27 53.52 71.03 53.52 69.19 56.17 61.27 56.17 61.27 53.52"/><polygon class="cls-2" points="56.16 21.04 56.16 30.8 53.51 28.95 53.51 21.04 56.16 21.04"/><polygon class="cls-2" points="62.23 25.3 62.23 35.06 59.59 33.22 59.59 25.3 62.23 25.3"/><polygon class="cls-2" points="68.3 29.57 68.3 39.33 65.66 37.49 65.66 29.57 68.3 29.57"/><polygon class="cls-2" points="70.54 68.31 60.77 68.31 62.62 65.67 70.54 65.67 70.54 68.31"/><polygon class="cls-2" points="74.7 62.24 64.94 62.24 66.78 59.59 74.7 59.59 74.7 62.24"/><polygon class="cls-2" points="78.87 56.17 69.11 56.17 70.95 53.52 78.87 53.52 78.87 56.17"/><polygon class="cls-2" points="43.84 78.98 43.84 69.22 46.49 71.06 46.49 78.98 43.84 78.98"/><polygon class="cls-2" points="37.77 74.71 37.77 64.95 40.41 66.8 40.41 74.71 37.77 74.71"/><polygon class="cls-2" points="31.7 70.45 31.7 60.69 34.34 62.53 34.34 70.45 31.7 70.45"/><polygon class="cls-3" points="65.66 47.19 65.66 37.43 68.3 39.27 68.3 47.19 65.66 47.19"/><polygon class="cls-3" points="59.59 42.96 59.59 33.2 62.23 35.05 62.23 42.96 59.59 42.96"/><polygon class="cls-3" points="53.51 38.74 53.51 28.98 56.16 30.82 56.16 38.74 53.51 38.74"/></svg>