<?xml version="1.0" encoding="utf-8"?>
<!-- Generator: Adobe Illustrator 21.0.0, SVG Export Plug-In . SVG Version: 6.00 Build 0)  -->
<svg version="1.1" id="Layer_1" xmlns="http://www.w3.org/2000/svg" xmlns:xlink="http://www.w3.org/1999/xlink" x="0px" y="0px"
	 width="100px" height="100px" viewBox="0 0 100 100" style="enable-background:new 0 0 100 100;" xml:space="preserve">
<style type="text/css">
	.st0{fill:#4B612C;}
	.st1{fill:#759C3E;}
	.st2{fill:#FFFFFF;}
	.st3{fill:#B7CA9D;}
</style>
<g>
	<path class="st0" d="M61.3,79H28.7c-5,0-8.5-5-6.7-9.7l12.8-33.9c2.1-5.6,7.5-9.4,13.6-9.4h32.6c5,0,8.5,5,6.7,9.7L74.8,69.7
		C72.7,75.3,67.3,79,61.3,79z"/>
	<path class="st1" d="M61.3,76.5H28.7c-5,0-8.5-5-6.7-9.7l12.8-33.9c2.1-5.6,7.5-9.4,13.6-9.4h32.6c5,0,8.5,5,6.7,9.7L74.8,67.2
		C72.7,72.8,67.3,76.5,61.3,76.5z"/>
	<g>
		<polygon class="st2" points="85,40.3 32,40.3 34.2,34.3 87.2,34.3 		"/>
	</g>
	<g>
		<polygon class="st2" points="69.4,59.7 32.1,59.7 37.1,47.5 74.4,47.5 		"/>
	</g>
	<g>
		<polygon class="st1" points="18.7,64.7 11.9,64.7 11.9,60.7 20.2,60.7 		"/>
	</g>
	<g>
		<polygon class="st1" points="23.5,52 11.9,52 11.9,48 25,48 		"/>
	</g>
	<g>
		<polygon class="st1" points="28.3,39.3 11.9,39.3 11.9,35.3 29.9,35.3 		"/>
	</g>
</g>
</svg>
