<svg id="Layer_1" data-name="Layer 1" xmlns="http://www.w3.org/2000/svg" width="100" height="100" viewBox="0 0 100 100"><defs><style>.cls-1{fill:#4b612c;}.cls-2{fill:#759c3e;}.cls-3{fill:#fff;}</style></defs><title>ManagementTools</title><path class="cls-1" d="M61.34,79H28.71A7.2,7.2,0,0,1,22,69.24L34.76,35.35A14.49,14.49,0,0,1,48.32,26H80.89a7.2,7.2,0,0,1,6.74,9.74L74.82,69.66A14.4,14.4,0,0,1,61.34,79Z"/><path class="cls-2" d="M61.34,76.5H28.71A7.2,7.2,0,0,1,22,66.76L34.76,32.87A14.49,14.49,0,0,1,48.32,23.5H80.89a7.2,7.2,0,0,1,6.74,9.74L74.82,67.18A14.4,14.4,0,0,1,61.34,76.5Z"/><polygon class="cls-3" points="84.98 40.26 31.98 40.26 34.25 34.26 87.25 34.26 84.98 40.26"/><polygon class="cls-3" points="69.39 59.74 32.06 59.74 37.06 47.49 74.39 47.49 69.39 59.74"/><polygon class="cls-2" points="18.68 64.74 11.91 64.74 11.91 60.74 20.24 60.74 18.68 64.74"/><polygon class="cls-2" points="23.48 52 11.91 52 11.91 48 25.05 48 23.48 52"/><polygon class="cls-2" points="28.3 39.26 11.91 39.26 11.91 35.26 29.86 35.26 28.3 39.26"/></svg>