<svg id="Layer_1" data-name="Layer 1" xmlns="http://www.w3.org/2000/svg" width="100" height="100" viewBox="0 0 100 100"><defs><style>.cls-1{fill:#4b612c;}.cls-2{fill:#759c3e;}.cls-3{fill:#fff;}.cls-4{fill:#b7ca9d;}</style></defs><title>ManagementTools</title><path class="cls-1" d="M69.55,46.86a19.91,19.91,0,0,0-2.64-6.35L69.44,38V35.51l-8.71-1.18a19.9,19.9,0,0,0-6.35-2.64V30.49H45.63v1.19a19.9,19.9,0,0,0-6.35,2.64l-8.71,1.18V38l2.53,2.53a19.91,19.91,0,0,0-2.64,6.35H26.88v8.75h3.56A19.91,19.91,0,0,0,33.08,62l-2.53,0v2.48l6.19,6.19,2.53-2.53a19.9,19.9,0,0,0,6.35,2.64v3.56h8.75V70.79a19.9,19.9,0,0,0,6.35-2.64l2.53,2.53,6.19-6.19V62l-2.53,0a19.91,19.91,0,0,0,2.64-6.35h3.56V46.86ZM62.49,57.54a14,14,0,0,1-6.19,6.19,13.9,13.9,0,0,1-12.6,0,14,14,0,0,1-6.19-6.19,13.9,13.9,0,0,1,0-12.6,14,14,0,0,1,6.19-6.19,13.9,13.9,0,0,1,12.6,0,14,14,0,0,1,6.19,6.19,13.9,13.9,0,0,1,0,12.6Z"/><path class="cls-2" d="M69.55,44.39A19.91,19.91,0,0,0,66.92,38l2.53-2.53-6.19-6.19-2.53,2.53a19.9,19.9,0,0,0-6.35-2.64V25.64H45.63v3.56a19.9,19.9,0,0,0-6.35,2.64l-2.53-2.53-6.19,6.19L33.08,38a19.91,19.91,0,0,0-2.64,6.35H26.88v8.75h3.56a19.91,19.91,0,0,0,2.64,6.35L30.56,62l6.19,6.19,2.53-2.53a19.9,19.9,0,0,0,6.35,2.64v3.56h8.75V68.31a19.9,19.9,0,0,0,6.35-2.64l2.53,2.53L69.44,62l-2.53-2.53a19.91,19.91,0,0,0,2.64-6.35h3.56V44.39Z"/><circle class="cls-3" cx="50" cy="48.76" r="15.33"/><rect class="cls-2" x="49.76" y="46.99" width="8.27" height="3.54"/><rect class="cls-2" x="48.23" y="38.08" width="3.54" height="12.45"/><path class="cls-4" d="M63.56,48.76h3.54A17.11,17.11,0,0,0,50,31.67V35.2A13.57,13.57,0,0,1,63.56,48.76Z"/><path class="cls-1" d="M63.56,48.76A13.56,13.56,0,1,1,50,35.2V31.67A17.09,17.09,0,1,0,67.09,48.76Z"/></svg>