<svg id="Layer_1" data-name="Layer 1" xmlns="http://www.w3.org/2000/svg" width="100" height="100" viewBox="0 0 100 100"><defs><style>.cls-1{fill:#4b612c;}.cls-2{fill:#759c3e;}.cls-3{fill:#fff;}</style></defs><title>ManagementTools</title><path class="cls-1" d="M60.7,73.13h0a7.85,7.85,0,0,1,6.89-7.47v-34H27.37V76H60.7V73.13Z"/><path class="cls-2" d="M60.65,71h0a7.85,7.85,0,0,1,6.94-7.48V29.67H27.37V73.85H60.65V71Z"/><path class="cls-1" d="M74.59,77.44V72.82a6.15,6.15,0,0,0-12.21,0v4.63H59.23V87.69H77.66V77.44Zm-3,0H65.33l0-4.63A2.87,2.87,0,0,1,68.49,70a3,3,0,0,1,3.14,2.82Z"/><path class="cls-2" d="M74.59,75.28V70.65a6.15,6.15,0,0,0-12.21,0v4.63H59.23V85.53H77.66V75.28Zm-3,0H65.33l0-4.63a2.87,2.87,0,0,1,3.14-2.82,3,3,0,0,1,3.14,2.82Z"/><polygon class="cls-1" points="66.69 24.75 66.69 26.89 27.89 26.89 27.89 24.75 47.29 19.51 66.69 24.75"/><polygon class="cls-2" points="61.21 19.23 33.78 19.23 27.89 24.75 28.31 24.75 66.69 24.75 61.21 19.23"/><rect class="cls-3" x="40.6" y="56.54" width="13.76" height="2.81"/><rect class="cls-3" x="40.6" y="50.15" width="13.76" height="2.81"/><rect class="cls-3" x="40.6" y="43.76" width="13.76" height="2.81"/><path class="cls-3" d="M35.29,37.37V65.74h24.4V37.37ZM56.88,62.93H38.09V40.18H56.88Z"/></svg>