<svg id="Layer_1" data-name="Layer 1" xmlns="http://www.w3.org/2000/svg" width="100" height="100" viewBox="0 0 100 100"><defs><style>.cls-1{fill:#4b612c;}.cls-2{fill:#fff;}.cls-3{fill:#4f4f4f;}.cls-4{fill:#759c3e;}</style></defs><title>ManagementTools</title><circle class="cls-1" cx="66.9" cy="30.64" r="13"/><path class="cls-1" d="M66.9,45.14a14.5,14.5,0,1,1,14.5-14.5A14.52,14.52,0,0,1,66.9,45.14Zm0-26a11.5,11.5,0,1,0,11.5,11.5A11.51,11.51,0,0,0,66.9,19.14Z"/><circle class="cls-2" cx="66.9" cy="28.16" r="13"/><path class="cls-3" d="M66.9,42.66a14.5,14.5,0,1,1,14.5-14.5A14.52,14.52,0,0,1,66.9,42.66Zm0-26a11.5,11.5,0,1,0,11.5,11.5A11.51,11.51,0,0,0,66.9,16.66Z"/><rect class="cls-3" x="60.88" y="27.66" width="7.01" height="3"/><rect class="cls-3" x="66.4" y="19.1" width="3" height="11.56"/><rect class="cls-1" x="27.7" y="50.04" width="10.71" height="26.44"/><rect class="cls-1" x="44.62" y="55.19" width="10.71" height="21.29"/><rect class="cls-1" x="47.14" y="59.28" width="5.66" height="48.45" transform="translate(133.48 33.53) rotate(90)"/><path class="cls-1" d="M61.54,46.86V76.48H72.25V46.86a11.2,11.2,0,0,1-10.71,0Z"/><rect class="cls-4" x="27.7" y="47.56" width="10.71" height="26.44"/><rect class="cls-4" x="44.62" y="52.71" width="10.71" height="21.29"/><rect class="cls-4" x="47.14" y="56.8" width="5.66" height="48.45" transform="translate(131 31.05) rotate(90)"/><path class="cls-4" d="M61.54,44.38V74H72.25V44.38a11.2,11.2,0,0,1-10.71,0Z"/></svg>