<svg id="Layer_1" data-name="Layer 1" xmlns="http://www.w3.org/2000/svg" width="100" height="100" viewBox="0 0 100 100"><defs><style>.cls-1{fill:#4b612c;}.cls-2{fill:#759c3e;}.cls-3{fill:#fff;}</style></defs><title>ManagementTools</title><path class="cls-1" d="M69.55,46.86a19.91,19.91,0,0,0-2.64-6.35L69.44,38V35.51l-8.71-1.18a19.9,19.9,0,0,0-6.35-2.64V30.49H45.63v1.19a19.9,19.9,0,0,0-6.35,2.64l-8.71,1.18V38l2.53,2.53a19.91,19.91,0,0,0-2.64,6.35H26.88v8.75h3.56A19.91,19.91,0,0,0,33.08,62l-2.53,0v2.48l6.19,6.19,2.53-2.53a19.9,19.9,0,0,0,6.35,2.64v3.56h8.75V70.79a19.9,19.9,0,0,0,6.35-2.64l2.53,2.53,6.19-6.19V62l-2.53,0a19.91,19.91,0,0,0,2.64-6.35h3.56V46.86ZM62.49,57.54a14,14,0,0,1-6.19,6.19,13.9,13.9,0,0,1-12.6,0,14,14,0,0,1-6.19-6.19,13.9,13.9,0,0,1,0-12.6,14,14,0,0,1,6.19-6.19,13.9,13.9,0,0,1,12.6,0,14,14,0,0,1,6.19,6.19,13.9,13.9,0,0,1,0,12.6Z"/><path class="cls-2" d="M69.55,44.39A19.91,19.91,0,0,0,66.92,38l2.53-2.53-6.19-6.19-2.53,2.53a19.9,19.9,0,0,0-6.35-2.64V25.64H45.63v3.56a19.9,19.9,0,0,0-6.35,2.64l-2.53-2.53-6.19,6.19L33.08,38a19.91,19.91,0,0,0-2.64,6.35H26.88v8.75h3.56a19.91,19.91,0,0,0,2.64,6.35L30.56,62l6.19,6.19,2.53-2.53a19.9,19.9,0,0,0,6.35,2.64v3.56h8.75V68.31a19.9,19.9,0,0,0,6.35-2.64l2.53,2.53L69.44,62l-2.53-2.53a19.91,19.91,0,0,0,2.64-6.35h3.56V44.39Z"/><path class="cls-3" d="M66.82,50.22l-5-8.64-5,8.64h2.87a9.82,9.82,0,0,1-15.58,6.43l-2.39,3.21a13.83,13.83,0,0,0,22-9.64Z"/><path class="cls-3" d="M40.29,47.3a9.82,9.82,0,0,1,15.58-6.43l2.39-3.21a13.83,13.83,0,0,0-22,9.64H33.18l5,8.64,5-8.64Z"/></svg>