<svg id="Layer_1" data-name="Layer 1" xmlns="http://www.w3.org/2000/svg" width="100" height="100" viewBox="0 0 100 100"><defs><style>.cls-1{fill:#b7ca9d;}.cls-2{fill:#4b612c;}.cls-3{fill:#759c3e;}</style></defs><title>ManagementTools</title><polygon class="cls-1" points="41.44 54.75 53.37 55.95 61.9 55.02 50.01 54.04 41.44 54.75"/><polygon class="cls-2" points="53.37 69.87 41.44 66.88 41.44 54.75 53.37 55.95 53.37 69.87"/><polygon class="cls-2" points="13.14 57.09 23.57 59.18 23.57 77.95 13.14 72.74 13.14 57.09"/><polygon class="cls-1" points="13.14 57.09 23.57 59.18 38.55 57.55 27.06 55.94 13.14 57.09"/><polygon class="cls-3" points="23.57 77.95 38.55 73.89 38.55 57.55 23.57 59.18 23.57 77.95"/><polygon class="cls-3" points="53.37 69.87 61.9 67.56 61.9 55.02 53.37 55.95 53.37 69.87"/><polygon class="cls-3" points="86.86 72.73 79.46 76.43 79.46 58.57 86.86 57.09 86.86 72.73"/><polygon class="cls-1" points="60.61 56.67 79.46 58.57 86.86 57.09 68.97 55.61 60.61 56.67"/><polygon class="cls-2" points="79.46 76.43 60.61 71.69 60.61 56.67 79.46 58.57 79.46 76.43"/><polygon class="cls-2" points="24.94 46.66 36.31 46.66 36.31 18.83 24.94 23.03 24.94 46.66"/><polygon class="cls-3" points="36.31 46.66 54.91 46.66 54.91 23.87 36.31 18.83 36.31 46.66"/><polygon class="cls-3" points="80.82 46.66 63.34 46.66 63.34 8.84 80.82 17.58 80.82 46.66"/><polygon class="cls-3" points="65.57 83.38 49.99 91.16 49.99 64.46 65.57 61.35 65.57 83.38"/><polygon class="cls-2" points="49.99 91.16 30.37 81.35 30.37 60.54 49.99 64.46 49.99 91.16"/><polygon class="cls-2" points="63.34 46.66 43.51 46.66 43.51 16.17 63.34 8.84 63.34 46.66"/><polygon class="cls-1" points="30.37 60.54 49.99 64.46 65.57 61.35 45.78 58.57 30.37 60.54"/></svg>