<?xml version="1.0" encoding="utf-8"?>
<!-- Generator: Adobe Illustrator 21.0.0, SVG Export Plug-In . SVG Version: 6.00 Build 0)  -->
<svg version="1.1" id="Layer_1" xmlns="http://www.w3.org/2000/svg" xmlns:xlink="http://www.w3.org/1999/xlink" x="0px" y="0px"
	 width="100px" height="100px" viewBox="0 0 100 100" style="enable-background:new 0 0 100 100;" xml:space="preserve">
<style type="text/css">
	.st0{fill:#4B612C;}
	.st1{fill:#759C3E;}
	.st2{fill:#FFFFFF;}
	.st3{fill:#B7CA9D;}
</style>
<g>
	<path class="st0" d="M32.6,26h34.8c5,0,9.1,4.1,9.1,9.1v34.8c0,5-4.1,9.1-9.1,9.1H32.6c-5,0-9.1-4.1-9.1-9.1V35.1
		C23.5,30.1,27.6,26,32.6,26z"/>
	<path class="st1" d="M32.6,23.5h34.8c5,0,9.1,4.1,9.1,9.1v34.8c0,5-4.1,9.1-9.1,9.1H32.6c-5,0-9.1-4.1-9.1-9.1V32.6
		C23.5,27.6,27.6,23.5,32.6,23.5z"/>
	<g>
		<rect x="28.8" y="30.5" class="st2" width="23.7" height="6"/>
	</g>
	<circle class="st3" cx="67.2" cy="33.5" r="3.3"/>
	<circle class="st3" cx="58" cy="33.5" r="3.3"/>
	<rect x="58.1" y="54.4" class="st1" width="10" height="3.7"/>
	<g>
		<rect x="30" y="56.2" class="st2" width="12.5" height="13.5"/>
		<rect x="43.7" y="42.7" class="st2" width="12.5" height="27"/>
		<rect x="57.5" y="49.5" class="st2" width="12.5" height="20.3"/>
		<path class="st1" d="M36.2,67.5L36.2,67.5c-2.5,0-4.5-2-4.5-4.5v0c0-2.5,2-4.5,4.5-4.5h0c2.5,0,4.5,2,4.5,4.5v0
			C40.7,65.5,38.7,67.5,36.2,67.5z"/>
		<rect x="59.2" y="58.5" class="st1" width="9" height="9"/>
		<polygon class="st1" points="54.5,67.5 45.5,67.5 50,58.5 		"/>
	</g>
</g>
</svg>
