<svg id="Layer_1" data-name="Layer 1" xmlns="http://www.w3.org/2000/svg" width="100" height="100" viewBox="0 0 100 100"><defs><style>.cls-1{fill:#4b612c;}.cls-2{fill:#fff;}.cls-3{fill:#759c3e;}</style></defs><title>ManagementTools</title><path class="cls-1" d="M78.52,35.05,50,18.61,21.48,35.05A2.88,2.88,0,0,0,20,37.55v47a1.83,1.83,0,0,0,1.83,1.83H78.13A1.83,1.83,0,0,0,80,84.53v-47A2.88,2.88,0,0,0,78.52,35.05Zm-49,44.53V41.68H70.43V79.59Z"/><rect class="cls-2" x="26.86" y="36.57" width="46.15" height="43.57"/><rect class="cls-3" x="29.44" y="67.25" width="8.31" height="8.31"/><rect class="cls-3" x="40.33" y="67.25" width="8.31" height="8.31"/><rect class="cls-3" x="51.22" y="67.25" width="8.31" height="8.31"/><rect class="cls-3" x="29.44" y="56.36" width="8.31" height="8.31"/><rect class="cls-3" x="40.33" y="56.36" width="8.31" height="8.31"/><rect class="cls-3" x="51.22" y="56.36" width="8.31" height="8.31"/><rect class="cls-3" x="29.44" y="45.47" width="8.31" height="8.31"/><rect class="cls-3" x="40.33" y="45.47" width="8.31" height="8.31"/><rect class="cls-3" x="62.11" y="67.25" width="8.31" height="8.31"/><path class="cls-3" d="M78.52,32.57,50,16.13,21.48,32.57A2.88,2.88,0,0,0,20,35.07V82a1.83,1.83,0,0,0,1.83,1.83H78.13A1.83,1.83,0,0,0,80,82v-47A2.88,2.88,0,0,0,78.52,32.57ZM27,77.95V38.35H73v39.6Z"/></svg>