<svg id="Layer_1" data-name="Layer 1" xmlns="http://www.w3.org/2000/svg" width="100" height="100" viewBox="0 0 100 100"><defs><style>.cls-1{fill:#4b612c;}.cls-2{fill:#759c3e;}.cls-3{fill:#fff;}</style></defs><title>ManagementTools</title><polygon class="cls-1" points="61.38 58.02 61.38 21.52 23.32 21.52 23.32 63.92 49.3 63.92 57.04 50.5 61.38 58.02"/><polygon class="cls-1" points="57.04 51.94 73.48 80.41 73.48 82.89 40.6 82.89 40.6 80.41 57.04 51.94"/><polygon class="cls-2" points="61.38 55.54 61.38 19.04 23.32 19.04 23.32 61.44 49.3 61.44 57.04 48.02 61.38 55.54"/><rect class="cls-3" x="40.21" y="26.6" width="16.83" height="3.12"/><rect class="cls-3" x="40.21" y="38.66" width="16.83" height="3.12"/><rect class="cls-3" x="28.66" y="25.3" width="2.85" height="5.72" transform="translate(-11.1 29.52) rotate(-45)"/><rect class="cls-3" x="28.78" y="25.57" width="9.17" height="2.79" transform="translate(-9.3 31.49) rotate(-45)"/><rect class="cls-3" x="28.78" y="37.46" width="9.17" height="2.79" transform="translate(-17.7 34.97) rotate(-45)"/><rect class="cls-3" x="28.78" y="49.35" width="9.17" height="2.79" transform="translate(-26.11 38.45) rotate(-45)"/><rect class="cls-3" x="28.66" y="37.19" width="2.85" height="5.72" transform="translate(-19.51 33) rotate(-45)"/><rect class="cls-3" x="28.66" y="49.08" width="2.85" height="5.72" transform="translate(-27.91 36.49) rotate(-45)"/><polygon class="cls-3" points="40.21 53.85 53.69 53.85 55.48 50.73 40.21 50.73 40.21 53.85"/><polygon class="cls-2" points="57.04 51.94 73.48 80.41 40.6 80.41 57.04 51.94"/><path class="cls-3" d="M69.86,78.32H44.22L57,56.12Zm-21.31-2.5h17L57,61.12Z"/><path class="cls-3" d="M55.94,72.5h2.2v2.16h-2.2Zm2.13-5.16-.55,4.32h-1L56,67.34V64.65h2.08Z"/></svg>