<svg id="Layer_1" data-name="Layer 1" xmlns="http://www.w3.org/2000/svg" xmlns:xlink="http://www.w3.org/1999/xlink" width="100" height="100" viewBox="0 0 100 100"><defs><style>.cls-1{fill:#9d5025;}.cls-2{clip-path:url(#clip-path);}.cls-3{isolation:isolate;}.cls-4{clip-path:url(#clip-path-2);}.cls-5{fill:#f58536;}</style><clipPath id="clip-path"><path class="cls-1" d="M76.1,32.91V51.43a56.69,56.69,0,0,0-18.73-4.75V28.16A56.73,56.73,0,0,1,76.1,32.91Z"/></clipPath><clipPath id="clip-path-2"><path class="cls-1" d="M41.9,33.41V47.19a59.66,59.66,0,0,0-18,6V29.79C28.29,27.48,34.42,34.64,41.9,33.41Z"/></clipPath></defs><title>NetworkingContentDelivery</title><rect class="cls-1" x="23.9" y="60.04" width="52.2" height="18.37"/><rect class="cls-1" x="36.21" y="28.72" width="26.85" height="12.87"/><path class="cls-1" d="M76.1,32.91V51.43a56.69,56.69,0,0,0-18.73-4.75V28.16A56.73,56.73,0,0,1,76.1,32.91Z"/><g class="cls-2"><g class="cls-3"><path class="cls-1" d="M76.1,48.25v3.18a56.69,56.69,0,0,0-18.73-4.75V43.51A56.73,56.73,0,0,1,76.1,48.25"/></g></g><path class="cls-1" d="M41.9,33.41V47.19a59.66,59.66,0,0,0-18,6V29.79C28.29,27.48,34.42,34.64,41.9,33.41Z"/><g class="cls-4"><g class="cls-3"><path class="cls-1" d="M41.9,44v3.18a59.66,59.66,0,0,0-18,6V50a59.76,59.76,0,0,1,18-6"/></g></g><path class="cls-5" d="M76.1,21.59V48.25a56.73,56.73,0,0,0-18.73-4.75V38.41H41.9V44a59.76,59.76,0,0,0-18,6V21.59Z"/><path class="cls-5" d="M57.37,48.88a57.19,57.19,0,0,1,18.73,4.8V75.23H23.9v-20a58.28,58.28,0,0,1,18-5.91v6.29H57.37Z"/></svg>