<svg id="Layer_1" data-name="Layer 1" xmlns="http://www.w3.org/2000/svg" width="100" height="100" viewBox="0 0 100 100"><defs><style>.cls-1{fill:#9d5025;}.cls-2{fill:#f58536;}.cls-3{fill:#fff;}</style></defs><title>NetworkingContentDelivery</title><circle class="cls-1" cx="50" cy="51.25" r="30.43"/><circle class="cls-2" cx="50" cy="48.75" r="30.43"/><rect class="cls-3" x="38.17" y="58.96" width="19.41" height="2.81"/><rect class="cls-3" x="38.17" y="53.15" width="19.41" height="2.81"/><rect class="cls-3" x="38.17" y="41.54" width="19.41" height="2.81"/><rect class="cls-3" x="24.34" y="47.15" width="44.34" height="3.21"/><rect class="cls-3" x="38.17" y="35.74" width="19.41" height="2.81"/><polygon class="cls-3" points="62.05 45.82 59.25 45.82 59.25 33.07 36.49 33.07 36.49 45.77 33.69 45.77 33.69 30.26 62.05 30.26 62.05 45.82"/><polygon class="cls-3" points="62.05 67.24 33.69 67.24 33.69 51.8 36.49 51.8 36.49 64.43 59.25 64.43 59.25 51.99 62.05 51.99 62.05 67.24"/><polygon class="cls-3" points="67.26 41.91 75.66 48.75 67.26 55.88 67.26 41.91"/></svg>