<svg xmlns="http://www.w3.org/2000/svg" viewBox="0 0 75 75"><defs><style>.cls-1{fill:#1c7b68;}.cls-2{fill:#fff;}</style></defs><title>Amazon-Appstream-2.0_light-bg</title><g id="Working"><rect id="Turquoise_Light_BG" data-name="Turquoise Light BG" class="cls-1" width="75" height="75"/><g id="Product_Icon" data-name="Product Icon"><path class="cls-2" d="M61.5,62.5a1,1,0,0,1-.71-.29l-18-18,1.42-1.42L60.5,59.09V14.5H15.91l16.3,16.29-1.42,1.42-18-18a1,1,0,0,1-.21-1.09,1,1,0,0,1,.92-.62h48a1,1,0,0,1,1,1v48a1,1,0,0,1-.62.92A.84.84,0,0,1,61.5,62.5Z"/><path class="cls-2" d="M38.5,62.5a1,1,0,0,1-.71-.29l-25-25a1,1,0,0,1-.21-1.09,1,1,0,0,1,.92-.62h25a1,1,0,0,1,1,1v25a1,1,0,0,1-.62.92A.84.84,0,0,1,38.5,62.5Zm-22.59-25L37.5,59.09V37.5Z"/></g></g></svg>