<svg xmlns="http://www.w3.org/2000/svg" xmlns:xlink="http://www.w3.org/1999/xlink" viewBox="0 0 75 75"><defs><style>.cls-1{fill:url(#TurquoiseGradient);}.cls-2{fill:#fff;}</style><linearGradient id="TurquoiseGradient" x1="1382.53" y1="-41.53" x2="1276.47" y2="64.53" gradientTransform="translate(1367 49) rotate(180)" gradientUnits="userSpaceOnUse"><stop offset="0" stop-color="#055f4e"/><stop offset="1" stop-color="#56c0a7"/></linearGradient></defs><title>Amazon-Appstream-2.0</title><g id="Working"><rect id="Turquoise_Gradient" data-name="Turquoise Gradient" class="cls-1" width="75" height="75"/><g id="Icon_Test" data-name="Icon Test"><path class="cls-2" d="M61.5,62.5a1,1,0,0,1-.71-.29l-18-18,1.42-1.42L60.5,59.09V14.5H15.91l16.3,16.29-1.42,1.42-18-18a1,1,0,0,1-.21-1.09,1,1,0,0,1,.92-.62h48a1,1,0,0,1,1,1v48a1,1,0,0,1-.62.92A.84.84,0,0,1,61.5,62.5Z"/><path class="cls-2" d="M38.5,62.5a1,1,0,0,1-.71-.29l-25-25a1,1,0,0,1-.21-1.09,1,1,0,0,1,.92-.62h25a1,1,0,0,1,1,1v25a1,1,0,0,1-.62.92A.84.84,0,0,1,38.5,62.5Zm-22.59-25L37.5,59.09V37.5Z"/></g></g></svg>