<svg xmlns="http://www.w3.org/2000/svg" viewBox="0 0 75 75"><defs><style>.cls-1{fill:#1c7b68;}.cls-2{fill:#fff;}</style></defs><title>Amazon-WorkDocs_light-bg</title><g id="Reference"><rect id="Red_Light_BG" data-name="Red Light BG" class="cls-1" width="75" height="75"/><g id="Product_Icon" data-name="Product Icon"><path class="cls-2" d="M62.21,36.79l-24-24a1,1,0,0,0-.71-.29h-24a1,1,0,0,0-1,1v48a1,1,0,0,0,1,1h48a1,1,0,0,0,1-1v-24A1,1,0,0,0,62.21,36.79ZM38.5,15.91,59.09,36.5H38.5Zm22,44.59h-22v-2h-2v2h-22v-22h2v-2h-2v-22h22v22h-3v2h3v3h2v-3h22Zm-42-24v2h3v-2Zm5,0v2h3v-2Zm5,0v2h3v-2Zm8,7v3h2v-3Zm0,5v3h2v-3Zm0,5v3h2v-3Z"/></g></g></svg>