<svg xmlns="http://www.w3.org/2000/svg" xmlns:xlink="http://www.w3.org/1999/xlink" viewBox="0 0 75 75"><defs><style>.cls-1{fill:url(#TurquoiseGradient);}.cls-2{fill:#fff;}</style><linearGradient id="TurquoiseGradient" x1="427.46" y1="-484.53" x2="533.53" y2="-378.46" gradientTransform="translate(469 518) rotate(-90)" gradientUnits="userSpaceOnUse"><stop offset="0" stop-color="#055f4e"/><stop offset="1" stop-color="#56c0a7"/></linearGradient></defs><title>Amazon-Workspaces</title><g id="Reference"><rect id="Turquoise_Gradient" data-name="Turquoise Gradient" class="cls-1" width="75" height="75"/><g id="Icon_Test" data-name="Icon Test"><path class="cls-2" d="M36.5,26.86v3h2v-3Zm-7.67,15-1-1.73,2.31-1.33,1,1.73Zm3.84-2.22-1-1.73L34,36.55l1,1.73ZM57,46l-1,1.74,2.6,1.5,1-1.74Zm-4.33-2.5-1,1.74,2.6,1.5,1-1.74ZM48.33,41l-1,1.74,2.6,1.5,1-1.74ZM62,28.09,44,17.7a1,1,0,0,0-1,0l-6.19,3.57L25,28.09a1,1,0,0,0-.5.87V49.74a1,1,0,0,0,.5.87L43,61a1,1,0,0,0,1,0L62,50.61a1,1,0,0,0,.5-.87V29A1,1,0,0,0,62,28.09ZM42.5,58.4l-16-9.23v-6l.8-.46-.8-1.39V30.69L35.71,36l.8,1.38.8-.46,5.19,3Zm1-20.2-5-2.89V31.86h-2v2.29L27.5,29l9-5.19v1.09h2V22.61l5-2.89L59.5,29Zm17,11-16,9.23V41.09l1.1.63,1-1.74-1.09-.63,15-8.65ZM34.23,17.92,27.36,14a1,1,0,0,0-1,0L13,21.7h0a1,1,0,0,0-.49.86V38a1,1,0,0,0,.52.88l7,3.86a1,1,0,0,0,.48.12,1,1,0,0,0,.51-.14,1,1,0,0,0,.49-.86V27l12.74-7.36a1,1,0,0,0,.5-.86A1,1,0,0,0,34.23,17.92ZM19.5,40.17l-5-2.76V24.27l5,2.75Zm1-14.89-5-2.72L26.86,16l4.87,2.78Z"/></g></g></svg>