<svg xmlns="http://www.w3.org/2000/svg" xmlns:xlink="http://www.w3.org/1999/xlink" viewBox="0 0 75 75"><defs><style>.cls-1{fill:url(#Turquoise_Gradient);}.cls-2{fill:#fff;}</style><linearGradient id="Turquoise_Gradient" x1="124.6" y1="296.78" x2="124.6" y2="146.78" gradientTransform="translate(106.22 -207.43) rotate(45)" gradientUnits="userSpaceOnUse"><stop offset="0" stop-color="#055f4e"/><stop offset="1" stop-color="#56c0a7"/></linearGradient></defs><title>Amazon-Workspaces copy</title><g id="Reference"><rect id="Green_Gradient" data-name="Green Gradient" class="cls-1" width="75" height="75"/><g id="ICONS_-_EDIT" data-name="ICONS - EDIT"><path class="cls-2" d="M25.47,46.18H14.6a1.12,1.12,0,0,1-1.12-1.12V14.6a1.12,1.12,0,0,1,1.12-1.12H45.06a1.12,1.12,0,0,1,1.12,1.12V25.28h-2V15.49H15.48V44.18h10Z"/><path class="cls-2" d="M60.41,61.52H29.93a1.11,1.11,0,0,1-1.11-1.11V49.5h2v10H59.51V30.83h-9.8v-2H60.4a1.11,1.11,0,0,1,1.11,1.11V60.42A1.09,1.09,0,0,1,60.41,61.52Z"/><path class="cls-2" d="M46.89,48.05H28.1A1.16,1.16,0,0,1,27,46.9V28.11A1.16,1.16,0,0,1,28.1,27H46.89A1.16,1.16,0,0,1,48,28.11V46.9A1.15,1.15,0,0,1,46.89,48.05ZM29,46.05H46V29H29Z"/></g></g></svg>