<svg xmlns="http://www.w3.org/2000/svg" xmlns:xlink="http://www.w3.org/1999/xlink" viewBox="0 0 75 75"><defs><style>.cls-1{fill:url(#Turquoise_Gradient);}.cls-2{fill:#fff;}</style><linearGradient id="Turquoise_Gradient" x1="179.53" y1="153.53" x2="73.47" y2="47.47" gradientTransform="translate(138 -89) rotate(90)" gradientUnits="userSpaceOnUse"><stop offset="0" stop-color="#055f4e"/><stop offset="1" stop-color="#56c0a7"/></linearGradient></defs><title>Amazon-Workspaces copy 2</title><g id="Reference"><rect id="Red_Gradient" data-name="Red Gradient" class="cls-1" width="75" height="75"/><g id="Icon_Test" data-name="Icon Test"><path class="cls-2" d="M62.21,36.79l-24-24a1,1,0,0,0-.71-.29h-24a1,1,0,0,0-1,1v48a1,1,0,0,0,1,1h48a1,1,0,0,0,1-1v-24A1,1,0,0,0,62.21,36.79ZM38.5,15.91,59.09,36.5H38.5Zm22,44.59h-22v-2h-2v2h-22v-22h2v-2h-2v-22h22v22h-3v2h3v3h2v-3h22Zm-42-24v2h3v-2Zm5,0v2h3v-2Zm5,0v2h3v-2Zm8,7v3h2v-3Zm0,5v3h2v-3Zm0,5v3h2v-3Z"/></g></g></svg>