<svg id="Layer_1" data-name="Layer 1" xmlns="http://www.w3.org/2000/svg" width="100" height="100" viewBox="0 0 100 100"><defs><style>.cls-1{fill:#19486f;}.cls-2{fill:#2e73b8;}.cls-3{isolation:isolate;}.cls-4{fill:#fff;}</style></defs><title>InternetOfThings</title><polygon class="cls-1" points="77.84 78.9 29.8 78.9 29.8 76.42 54.21 63.29 77.84 76.42 77.84 78.9"/><rect class="cls-2" x="29.8" y="60.5" width="48.04" height="15.92"/><g class="cls-3"><path class="cls-4" d="M32.36,63.06h1.71v4.29h3.15V63.06h1.71V73.77H37.22v-5H34.07v5H32.36Z"/><path class="cls-4" d="M43.08,64.5H40.52V63.06h6.76V64.5h-2.5v9.27H43.08Z"/><path class="cls-4" d="M50.63,64.5H48.08V63.06h6.76V64.5h-2.5v9.27H50.63Z"/><path class="cls-4" d="M56.44,63.06h3.39c2.05,0,3,1.29,3,3.12a2.9,2.9,0,0,1-3.13,3.17h-1.5v4.42H56.44Zm1.71,5h1.21a1.62,1.62,0,0,0,1.71-1.84c0-1.16-.46-1.86-1.83-1.86H58.15Z"/><path class="cls-4" d="M66.92,62.85h1.33L64.85,74H63.52Z"/><path class="cls-4" d="M75.43,73.77H69.22c0-4.62,4.45-4.51,4.45-7.81,0-.87-.37-1.61-1.32-1.61-1.28,0-1.49,1.14-1.49,2.22H69.25c0-2.12.87-3.42,3.13-3.42s3,1.29,3,2.83c0,3.53-3.45,3.75-4.26,6.35h4.3Z"/></g><path class="cls-1" d="M66.1,23.1H31.34a9.12,9.12,0,0,0-9.12,9.12V67a9.12,9.12,0,0,0,5.52,8.38V58H75.22V32.22A9.12,9.12,0,0,0,66.1,23.1Z"/><polygon class="cls-1" points="75.22 60.5 27.07 60.5 27.07 58.02 51.53 44.9 75.22 58.02 75.22 60.5"/><path class="cls-2" d="M66.1,20.62H31.34a9.12,9.12,0,0,0-9.12,9.12V64.5a9.12,9.12,0,0,0,5.52,8.38V58H75.22V29.74A9.12,9.12,0,0,0,66.1,20.62Z"/></svg>