<svg id="Layer_1" data-name="Layer 1" xmlns="http://www.w3.org/2000/svg" width="100" height="100" viewBox="0 0 100 100"><defs><style>.cls-1{fill:#19486f;}.cls-2{fill:#2e73b8;}.cls-3{fill:#fff;}</style></defs><title>InternetOfThings</title><rect class="cls-1" x="23.5" y="25.99" width="53" height="53" rx="9.12" ry="9.12"/><rect class="cls-2" x="23.5" y="23.51" width="53" height="53" rx="9.12" ry="9.12"/><rect class="cls-2" x="60" y="14.4" width="4" height="13.65"/><rect class="cls-2" x="36" y="14.4" width="4" height="13.65"/><rect class="cls-2" x="54" y="14.4" width="4" height="13.65"/><rect class="cls-2" x="42" y="14.4" width="4" height="13.65"/><rect class="cls-2" x="48" y="14.4" width="4" height="13.65"/><rect class="cls-2" x="14.4" y="60" width="18.1" height="4"/><rect class="cls-2" x="14.4" y="42" width="18.1" height="4"/><rect class="cls-2" x="14.4" y="54" width="18.1" height="4"/><rect class="cls-2" x="14.4" y="48" width="18.1" height="4"/><rect class="cls-2" x="14.4" y="36" width="18.1" height="4"/><rect class="cls-2" x="36" y="69.88" width="4" height="15.72"/><rect class="cls-2" x="60" y="69.88" width="4" height="15.72"/><rect class="cls-2" x="42" y="69.88" width="4" height="15.72"/><rect class="cls-2" x="54" y="69.88" width="4" height="15.72"/><rect class="cls-2" x="48" y="69.88" width="4" height="15.72"/><rect class="cls-2" x="69.67" y="54" width="15.94" height="4"/><rect class="cls-2" x="69.67" y="36" width="15.94" height="4"/><rect class="cls-2" x="69.67" y="48" width="15.94" height="4"/><rect class="cls-2" x="69.67" y="42" width="15.94" height="4"/><rect class="cls-2" x="69.67" y="60" width="15.94" height="4"/><path class="cls-3" d="M28.45,58.11H27.8a1.5,1.5,0,0,1,0-3h.66a1.5,1.5,0,0,1,0,3Z"/><path class="cls-3" d="M73.49,58.4h-.66a1.5,1.5,0,0,1,0-3h.66a1.5,1.5,0,0,1,0,3Z"/><path class="cls-2" d="M67.38,58h3.83v-3.4c0-7-8.37-7-8.37-7l-3.17-7.42H43.92l-2.17,7.17L29.83,50.65V58h2.86"/><path class="cls-3" d="M71.21,59.5H67.38a1.5,1.5,0,0,1,0-3h2.33v-1.9c0-5.35-6.17-5.54-6.88-5.54a1.51,1.51,0,0,1-1.38-.91l-2.78-6.51H45l-1.84,6.1a1.5,1.5,0,0,1-1,1l-10.82,3V56.5h1.36a1.5,1.5,0,0,1,0,3H29.83a1.5,1.5,0,0,1-1.5-1.5V50.65a1.5,1.5,0,0,1,1.1-1.44l11.12-3.11,1.93-6.38a1.5,1.5,0,0,1,1.44-1.07H59.67a1.5,1.5,0,0,1,1.38.91l2.8,6.55c3.54.32,8.86,2.36,8.86,8.49V58A1.5,1.5,0,0,1,71.21,59.5Z"/><path class="cls-2" d="M67.38,58h3.83v-3.4c0-7-8.37-7-8.37-7l-3.17-7.42H43.92l-2.17,7.17L29.83,50.65V58h2.86"/><path class="cls-3" d="M71.21,59.5H67.38a1.5,1.5,0,0,1,0-3h2.33v-1.9c0-5.35-6.17-5.54-6.88-5.54a1.51,1.51,0,0,1-1.38-.91l-2.78-6.51H45l-1.84,6.1a1.5,1.5,0,0,1-1,1l-10.82,3V56.5h1.36a1.5,1.5,0,0,1,0,3H29.83a1.5,1.5,0,0,1-1.5-1.5V50.65a1.5,1.5,0,0,1,1.1-1.44l11.12-3.11,1.93-6.38a1.5,1.5,0,0,1,1.44-1.07H59.67a1.5,1.5,0,0,1,1.38.91l2.8,6.55c3.54.32,8.86,2.36,8.86,8.49V58A1.5,1.5,0,0,1,71.21,59.5Z"/><circle class="cls-2" cx="36.98" cy="58" r="3.94"/><path class="cls-3" d="M37,63.44A5.44,5.44,0,1,1,42.42,58,5.44,5.44,0,0,1,37,63.44Zm0-7.87A2.44,2.44,0,1,0,39.42,58,2.44,2.44,0,0,0,37,55.57Z"/><circle class="cls-2" cx="62.83" cy="58" r="3.94"/><path class="cls-3" d="M62.83,63.44A5.44,5.44,0,1,1,68.27,58,5.44,5.44,0,0,1,62.83,63.44Zm0-7.87A2.44,2.44,0,1,0,65.27,58,2.44,2.44,0,0,0,62.83,55.57Z"/><path class="cls-3" d="M58.25,59.5H41.63a1.5,1.5,0,0,1,0-3H58.25a1.5,1.5,0,0,1,0,3Z"/></svg>