<svg id="Layer_1" data-name="Layer 1" xmlns="http://www.w3.org/2000/svg" width="100" height="100" viewBox="0 0 100 100"><defs><style>.cls-1{fill:#19486f;}.cls-2{fill:#2e73b8;}.cls-3{fill:#fff;}</style></defs><title>InternetOfThings</title><rect class="cls-1" x="23.5" y="25.99" width="53" height="53" rx="9.12" ry="9.12"/><rect class="cls-2" x="23.5" y="23.51" width="53" height="53" rx="9.12" ry="9.12"/><rect class="cls-2" x="60" y="14.4" width="4" height="13.65"/><rect class="cls-2" x="36" y="14.4" width="4" height="13.65"/><rect class="cls-2" x="54" y="14.4" width="4" height="13.65"/><rect class="cls-2" x="42" y="14.4" width="4" height="13.65"/><rect class="cls-2" x="48" y="14.4" width="4" height="13.65"/><rect class="cls-2" x="14.4" y="60" width="18.1" height="4"/><rect class="cls-2" x="14.4" y="42" width="18.1" height="4"/><rect class="cls-2" x="14.4" y="54" width="18.1" height="4"/><rect class="cls-2" x="14.4" y="48" width="18.1" height="4"/><rect class="cls-2" x="14.4" y="36" width="18.1" height="4"/><rect class="cls-2" x="36" y="69.88" width="4" height="15.72"/><rect class="cls-2" x="60" y="69.88" width="4" height="15.72"/><rect class="cls-2" x="42" y="69.88" width="4" height="15.72"/><rect class="cls-2" x="54" y="69.88" width="4" height="15.72"/><rect class="cls-2" x="48" y="69.88" width="4" height="15.72"/><rect class="cls-2" x="69.67" y="54" width="15.94" height="4"/><rect class="cls-2" x="69.67" y="36" width="15.94" height="4"/><rect class="cls-2" x="69.67" y="48" width="15.94" height="4"/><rect class="cls-2" x="69.67" y="42" width="15.94" height="4"/><rect class="cls-2" x="69.67" y="60" width="15.94" height="4"/><rect class="cls-3" x="39.15" y="32.15" width="21.7" height="38.58" rx="2" ry="2"/><circle class="cls-3" cx="50" cy="43.32" r="7.49"/><path class="cls-2" d="M50,51.81a8.49,8.49,0,1,1,8.49-8.49A8.5,8.5,0,0,1,50,51.81Zm0-15a6.49,6.49,0,1,0,6.49,6.49A6.5,6.5,0,0,0,50,36.83Z"/><circle class="cls-2" cx="50" cy="57.43" r="2.89"/><polygon class="cls-2" points="52.89 66.94 47.11 66.94 49.5 56.76 50.5 56.76 52.89 66.94"/></svg>