<svg id="Layer_1" data-name="Layer 1" xmlns="http://www.w3.org/2000/svg" width="100" height="100" viewBox="0 0 100 100"><defs><style>.cls-1{fill:#19486f;}.cls-2{fill:#2e73b8;}.cls-3{fill:#fff;}</style></defs><title>InternetOfThings</title><rect class="cls-1" x="23.5" y="25.99" width="53" height="53" rx="9.12" ry="9.12"/><rect class="cls-2" x="23.5" y="23.51" width="53" height="53" rx="9.12" ry="9.12"/><rect class="cls-2" x="60" y="14.4" width="4" height="13.65"/><rect class="cls-2" x="36" y="14.4" width="4" height="13.65"/><rect class="cls-2" x="54" y="14.4" width="4" height="13.65"/><rect class="cls-2" x="42" y="14.4" width="4" height="13.65"/><rect class="cls-2" x="48" y="14.4" width="4" height="13.65"/><rect class="cls-2" x="14.4" y="60" width="18.1" height="4"/><rect class="cls-2" x="14.4" y="42" width="18.1" height="4"/><rect class="cls-2" x="14.4" y="54" width="18.1" height="4"/><rect class="cls-2" x="14.4" y="48" width="18.1" height="4"/><rect class="cls-2" x="14.4" y="36" width="18.1" height="4"/><rect class="cls-2" x="36" y="69.88" width="4" height="15.72"/><rect class="cls-2" x="60" y="69.88" width="4" height="15.72"/><rect class="cls-2" x="42" y="69.88" width="4" height="15.72"/><rect class="cls-2" x="54" y="69.88" width="4" height="15.72"/><rect class="cls-2" x="48" y="69.88" width="4" height="15.72"/><rect class="cls-2" x="69.67" y="54" width="15.94" height="4"/><rect class="cls-2" x="69.67" y="36" width="15.94" height="4"/><rect class="cls-2" x="69.67" y="48" width="15.94" height="4"/><rect class="cls-2" x="69.67" y="42" width="15.94" height="4"/><rect class="cls-2" x="69.67" y="60" width="15.94" height="4"/><rect class="cls-3" x="33.15" y="45.66" width="33.7" height="20.61" rx="1.03" ry="1.03"/><rect class="cls-2" x="47.1" y="53.22" width="5.92" height="12.15" rx="0.75" ry="0.75"/><rect class="cls-2" x="38.58" y="53.22" width="4.83" height="5.52" rx="0.75" ry="0.75"/><rect class="cls-2" x="56.64" y="53.22" width="4.83" height="5.52" rx="0.75" ry="0.75"/><path class="cls-3" d="M50,32.1,27.32,45.18V47.3a1,1,0,0,0,1,1H71.68a1,1,0,0,0,1-1V45.18Z"/></svg>