<svg id="Layer_1" data-name="Layer 1" xmlns="http://www.w3.org/2000/svg" width="100" height="100" viewBox="0 0 100 100"><defs><style>.cls-1{fill:#19486f;}.cls-2{fill:#2e73b8;}.cls-3{fill:#fff;}</style></defs><title>InternetOfThings</title><rect class="cls-1" x="23.5" y="25.99" width="53" height="53" rx="9.12" ry="9.12"/><rect class="cls-2" x="23.5" y="23.51" width="53" height="53" rx="9.12" ry="9.12"/><rect class="cls-2" x="60" y="14.4" width="4" height="13.65"/><rect class="cls-2" x="36" y="14.4" width="4" height="13.65"/><rect class="cls-2" x="54" y="14.4" width="4" height="13.65"/><rect class="cls-2" x="42" y="14.4" width="4" height="13.65"/><rect class="cls-2" x="48" y="14.4" width="4" height="13.65"/><rect class="cls-2" x="14.4" y="60" width="18.1" height="4"/><rect class="cls-2" x="14.4" y="42" width="18.1" height="4"/><rect class="cls-2" x="14.4" y="54" width="18.1" height="4"/><rect class="cls-2" x="14.4" y="48" width="18.1" height="4"/><rect class="cls-2" x="14.4" y="36" width="18.1" height="4"/><rect class="cls-2" x="36" y="69.88" width="4" height="15.72"/><rect class="cls-2" x="60" y="69.88" width="4" height="15.72"/><rect class="cls-2" x="42" y="69.88" width="4" height="15.72"/><rect class="cls-2" x="54" y="69.88" width="4" height="15.72"/><rect class="cls-2" x="48" y="69.88" width="4" height="15.72"/><rect class="cls-2" x="69.67" y="54" width="15.94" height="4"/><rect class="cls-2" x="69.67" y="36" width="15.94" height="4"/><rect class="cls-2" x="69.67" y="48" width="15.94" height="4"/><rect class="cls-2" x="69.67" y="42" width="15.94" height="4"/><rect class="cls-2" x="69.67" y="60" width="15.94" height="4"/><path class="cls-3" d="M58.47,58.63,34.82,56.56a1.2,1.2,0,0,1-1.07-1L31.53,43.23a1.2,1.2,0,0,1,1.05-1.4l29.5-3.07a1.2,1.2,0,0,1,1.29,1.43L59.75,57.68A1.2,1.2,0,0,1,58.47,58.63Z"/><circle class="cls-3" cx="35.96" cy="69.05" r="3.1"/><circle class="cls-3" cx="62.22" cy="69.05" r="3.1"/><path class="cls-2" d="M35.81,61.45a.5.5,0,0,1-.5-.5V38.76a.5.5,0,0,1,1,0V60.95A.5.5,0,0,1,35.81,61.45Z"/><path class="cls-2" d="M40.86,61.45a.5.5,0,0,1-.5-.5V38.76a.5.5,0,0,1,1,0V60.95A.5.5,0,0,1,40.86,61.45Z"/><path class="cls-2" d="M45.91,61.45a.5.5,0,0,1-.5-.5V38.76a.5.5,0,0,1,1,0V60.95A.5.5,0,0,1,45.91,61.45Z"/><path class="cls-2" d="M71.75,44.75H28.6a.5.5,0,0,1,0-1H71.75a.5.5,0,0,1,0,1Z"/><path class="cls-2" d="M71.75,49.43H28.6a.5.5,0,1,1,0-1H71.75a.5.5,0,0,1,0,1Z"/><path class="cls-2" d="M71.75,54.11H28.6a.5.5,0,0,1,0-1H71.75a.5.5,0,0,1,0,1Z"/><path class="cls-2" d="M51,61.45a.5.5,0,0,1-.5-.5V38.76a.5.5,0,0,1,1,0V60.95A.5.5,0,0,1,51,61.45Z"/><path class="cls-2" d="M56,60.86a.5.5,0,0,1-.5-.5V38.8a.5.5,0,0,1,1,0V60.36A.5.5,0,0,1,56,60.86Z"/><path class="cls-3" d="M63.25,65H34.75a1.5,1.5,0,0,1,0-3h25.5l-3.09-4.12a1.5,1.5,0,0,1-.27-1.21L62,32.09a1.5,1.5,0,0,1,.93-1.1l5.78-2.21a1.5,1.5,0,1,1,1.07,2.8l-5,1.91L60,56.65l4.48,6a1.5,1.5,0,0,1-1.2,2.4Z"/><path class="cls-3" d="M59,59.51l-24.3-1.45a2.71,2.71,0,0,1-2.46-2.21L30.05,43.5a2.7,2.7,0,0,1,2.38-3.16l29.5-3.07.31,3-29.17,3,2.11,11.79,24,1.44Z"/></svg>