<svg id="Layer_1" data-name="Layer 1" xmlns="http://www.w3.org/2000/svg" width="100" height="100" viewBox="0 0 100 100"><defs><style>.cls-1{fill:#19486f;}.cls-2{fill:#2e73b8;}.cls-3{isolation:isolate;}.cls-4{fill:#fff;}</style></defs><title>InternetOfThings</title><polygon class="cls-1" points="75.22 60.5 32.78 60.5 32.78 58 54 42.33 75.22 58 75.22 60.5"/><polygon class="cls-1" points="77.84 78.9 40.3 78.9 40.3 76.42 59.38 63.29 77.84 76.42 77.84 78.9"/><rect class="cls-2" x="40.3" y="60.5" width="37.54" height="15.92"/><g class="cls-3"><path class="cls-4" d="M42.14,63.06h2.67L46.7,71h0l1.86-7.94H51.2V73.77H49.58V64.86h0l-2.16,8.91H45.95l-2.16-8.91h0v8.91H42.14Z"/><path class="cls-4" d="M58.55,73.62a3.31,3.31,0,0,1-1.68.36c-2.46,0-3.54-1.74-3.54-5.56s1.08-5.57,3.54-5.57,3.54,1.74,3.54,5.57a8.69,8.69,0,0,1-.84,4.24l1.1,1.16-1,.92Zm-.9-2.8.71.71a9.76,9.76,0,0,0,.35-3.15c0-3.6-.81-4.23-1.83-4.23S55,64.77,55,68.37s.81,4.32,1.83,4.32a1.67,1.67,0,0,0,.61-.1l-.81-.79Z"/><path class="cls-4" d="M64.29,64.5H61.74V63.06h6.76V64.5H66v9.27H64.29Z"/><path class="cls-4" d="M71.85,64.5H69.3V63.06h6.76V64.5h-2.5v9.27H71.85Z"/></g><path class="cls-1" d="M75.22,58V32.22A9.12,9.12,0,0,0,66.1,23.1H31.34a9.12,9.12,0,0,0-9.12,9.12V67a9.12,9.12,0,0,0,9.12,9.12h7V58Z"/><path class="cls-2" d="M75.22,58V29.74a9.12,9.12,0,0,0-9.12-9.12H31.34a9.12,9.12,0,0,0-9.12,9.12V64.5a9.12,9.12,0,0,0,9.12,9.12h7V58Z"/></svg>