<svg id="Layer_1" data-name="Layer 1" xmlns="http://www.w3.org/2000/svg" width="100" height="100" viewBox="0 0 100 100"><defs><style>.cls-1{fill:#19486f;}.cls-2{fill:#2e73b8;}.cls-3{fill:#fff;}</style></defs><title>InternetOfThings</title><rect class="cls-1" x="23.5" y="25.99" width="53" height="53" rx="9.12" ry="9.12"/><rect class="cls-2" x="23.5" y="23.51" width="53" height="53" rx="9.12" ry="9.12"/><rect class="cls-2" x="60" y="14.4" width="4" height="13.65"/><rect class="cls-2" x="36" y="14.4" width="4" height="13.65"/><rect class="cls-2" x="54" y="14.4" width="4" height="13.65"/><rect class="cls-2" x="42" y="14.4" width="4" height="13.65"/><rect class="cls-2" x="48" y="14.4" width="4" height="13.65"/><rect class="cls-2" x="14.4" y="60" width="18.1" height="4"/><rect class="cls-2" x="14.4" y="42" width="18.1" height="4"/><rect class="cls-2" x="14.4" y="54" width="18.1" height="4"/><rect class="cls-2" x="14.4" y="48" width="18.1" height="4"/><rect class="cls-2" x="14.4" y="36" width="18.1" height="4"/><rect class="cls-2" x="36" y="69.88" width="4" height="15.72"/><rect class="cls-2" x="60" y="69.88" width="4" height="15.72"/><rect class="cls-2" x="42" y="69.88" width="4" height="15.72"/><rect class="cls-2" x="54" y="69.88" width="4" height="15.72"/><rect class="cls-2" x="48" y="69.88" width="4" height="15.72"/><rect class="cls-2" x="69.67" y="54" width="15.94" height="4"/><rect class="cls-2" x="69.67" y="36" width="15.94" height="4"/><rect class="cls-2" x="69.67" y="48" width="15.94" height="4"/><rect class="cls-2" x="69.67" y="42" width="15.94" height="4"/><rect class="cls-2" x="69.67" y="60" width="15.94" height="4"/><rect class="cls-3" x="48.5" y="41.82" width="3" height="32.5"/><path class="cls-3" d="M67.3,41.66c-12.05-1.13-14.91-1.4-16.12-.76,0-1.37-1.49-3.8-7.89-14l-.83-1.33-2.64,1.42.65,1.42c5,11,6.24,13.6,7.4,14.32-1.2.66-2.54,3.18-8.22,13.86l-.74,1.39,2.55,1.57.9-1.27c7-9.86,8.66-12.2,8.71-13.57.61.37,1.68.52,4.26.52,2.38,0,6.05-.13,11.84-.33l1.58-.05.09-3Z"/><circle class="cls-3" cx="50" cy="42.82" r="3.5"/><circle class="cls-2" cx="50" cy="42.82" r="1"/></svg>