<svg id="Layer_1" data-name="Layer 1" xmlns="http://www.w3.org/2000/svg" width="100" height="100" viewBox="0 0 100 100"><defs><style>.cls-1{fill:#19486f;}.cls-2{fill:#2e73b8;}.cls-3{fill:#fff;}</style></defs><title>InternetOfThings</title><rect class="cls-1" x="12.5" y="54.49" width="75" height="22.17"/><rect class="cls-2" x="12.5" y="23.64" width="75" height="49.87"/><path class="cls-3" d="M87.5,62.32H74.89a1.5,1.5,0,0,1-1.5-1.5v-9a1.5,1.5,0,0,1,3,0v7.5H87.5Z"/><path class="cls-3" d="M87.5,70H64.17a1.5,1.5,0,0,1-1.5-1.5V51.81a1.5,1.5,0,0,1,3,0V67H87.5Z"/><circle class="cls-3" cx="74.89" cy="51.81" r="3.66"/><circle class="cls-3" cx="64.17" cy="51.81" r="3.66"/><circle class="cls-3" cx="53.86" cy="62.12" r="3.66"/><circle class="cls-3" cx="46.55" cy="36.25" r="3.66"/><circle class="cls-3" cx="51.82" cy="47.76" r="3.66"/><circle class="cls-3" cx="28.86" cy="36.25" r="3.66"/><circle class="cls-3" cx="18.87" cy="62.22" r="3.66"/><rect class="cls-3" x="65.39" y="26.74" width="19.01" height="19.01" rx="1.62" ry="1.62"/><path class="cls-3" d="M53.86,63.62a1.5,1.5,0,0,1-1.06-.44L37.51,47.9a1.5,1.5,0,0,1-.44-1.06V23.64h3V46.22L54.92,61.06a1.5,1.5,0,0,1-1.06,2.56Z"/><circle class="cls-3" cx="28.66" cy="47.82" r="3.66"/><circle class="cls-3" cx="30.94" cy="62.22" r="3.66"/><polygon class="cls-3" points="44.39 73.51 41.39 73.51 41.39 62.68 27.8 49.08 29.92 46.96 44.39 61.43 44.39 73.51"/><path class="cls-3" d="M74.89,37.75H46.22a1.5,1.5,0,0,1,0-3H74.89a1.5,1.5,0,0,1,0,3Z"/><path class="cls-3" d="M57.51,37.75a1.5,1.5,0,0,1-1.5-1.5V23.64h3V36.25A1.5,1.5,0,0,1,57.51,37.75Z"/><path class="cls-3" d="M30.85,63.72a1.5,1.5,0,0,1-1.06-.44l-12-12a1.5,1.5,0,0,1-.44-1.06V23.64h3v26L31.91,61.16a1.5,1.5,0,0,1-1.06,2.56Z"/><path class="cls-3" d="M30.94,37.75H18.88a1.5,1.5,0,0,1,0-3H30.94a1.5,1.5,0,1,1,0,3Z"/><rect class="cls-3" x="17.38" y="62.22" width="3" height="11.29"/><rect class="cls-3" x="44.07" y="48.6" width="10.81" height="3" transform="translate(-20.93 49.66) rotate(-45)"/><path class="cls-2" d="M56.84,19.9a2,2,0,0,1-1.41-.59,7.69,7.69,0,0,0-10.86,0,2,2,0,0,1-2.83-2.83,11.69,11.69,0,0,1,16.52,0,2,2,0,0,1-1.41,3.41Z"/><path class="cls-2" d="M62.27,14.47a2,2,0,0,1-1.41-.59,15.38,15.38,0,0,0-21.72,0,2,2,0,0,1-2.83-2.83,19.38,19.38,0,0,1,27.38,0,2,2,0,0,1-1.41,3.41Z"/><path class="cls-2" d="M50,86.93a11.64,11.64,0,0,1-8.26-3.42,2,2,0,0,1,2.83-2.83,7.69,7.69,0,0,0,10.86,0,2,2,0,0,1,2.83,2.83A11.64,11.64,0,0,1,50,86.93Z"/><path class="cls-2" d="M50,94.6a19.3,19.3,0,0,1-13.69-5.66,2,2,0,0,1,2.83-2.83,15.38,15.38,0,0,0,21.72,0,2,2,0,0,1,2.83,2.83A19.3,19.3,0,0,1,50,94.6Z"/></svg>