<svg xmlns="http://www.w3.org/2000/svg" viewBox="0 0 75 75"><defs><style>.cls-1{fill:#693cc5;}.cls-2{fill:#fff;}</style></defs><title>Amazon-GameLift_light-bg</title><g id="Reference"><rect id="Purple_Light_BG" data-name="Purple Light BG" class="cls-1" width="75" height="75"/><g id="Product_Icon" data-name="Product Icon"><path class="cls-2" d="M28.24,42.74c-.84.07-1.66.18-2.43.3a37.22,37.22,0,0,1-1.18-8.54H41.55a39.13,39.13,0,0,1-.36,4.43h2c.18-1.42.29-2.9.33-4.43h8.9a19.13,19.13,0,0,1-.64,4,8.08,8.08,0,0,1,2.24-.79,20.58,20.58,0,0,0,.42-4.18,21,21,0,0,0-21-21h-.41l-.43,0h-.12a21,21,0,0,0-5.07,41.08v-2.1A19,19,0,0,1,20.12,47a11.08,11.08,0,0,1,4.26-1.63,19.61,19.61,0,0,0,3.09,6V47.57A21.63,21.63,0,0,1,26.4,45l1.21-.16A8.56,8.56,0,0,1,28.24,42.74ZM24.63,32.5a36.94,36.94,0,0,1,1.19-8.58h0a47.71,47.71,0,0,0,7.8.59,49.52,49.52,0,0,0,6.78-.44,37.57,37.57,0,0,1,1.15,8.44Zm8.29-18h.26c2.67.06,5.1,3.07,6.64,7.62a50.06,50.06,0,0,1-6.2.37A46.77,46.77,0,0,1,26.41,22C27.94,17.56,30.31,14.63,32.92,14.51Zm10.63,18a38.59,38.59,0,0,0-1.16-8.76,13.74,13.74,0,0,0,5.8-2.24h0a18.91,18.91,0,0,1,4.26,11ZM46.85,20h0a12,12,0,0,1-5,1.8,18.64,18.64,0,0,0-3.64-6.72A19,19,0,0,1,46.85,20Zm-22.44,1.6a10.19,10.19,0,0,1-4.16-1.69,18.93,18.93,0,0,1,7.43-4.5A19.18,19.18,0,0,0,24.41,21.61Zm-5.51-.22h0a11.77,11.77,0,0,0,4.94,2.14,38.44,38.44,0,0,0-1.21,9H14.55A18.91,18.91,0,0,1,18.9,21.39Zm-.12,24.08a19,19,0,0,1-4.23-11h8.08a38.09,38.09,0,0,0,1.2,8.92A12.69,12.69,0,0,0,18.78,45.47Z"/><path class="cls-2" d="M62.47,57.83V47.63a.82.82,0,0,0-.06-.27,6,6,0,0,0,.06-.85,7,7,0,0,0-11.89-5H41.36a7,7,0,0,0-11.89,5,6,6,0,0,0,.06.85.88.88,0,0,0-.06.27V57.8a5.18,5.18,0,0,0,1.28,3.53,4,4,0,0,0,3,1.17c3.32,0,5-4.16,6.38-7.83.31-.79.6-1.53.89-2.17h9.94c.29.64.58,1.38.88,2.17,1.44,3.67,3.06,7.83,6.39,7.83a4,4,0,0,0,3-1.17A5.16,5.16,0,0,0,62.47,57.83Zm-2-11.32a5,5,0,1,1-5-5A5,5,0,0,1,60.47,46.51Zm-17.69-3h6.38a7,7,0,0,0,.56,7h-7.5a7,7,0,0,0,.56-7Zm-6.31-2a5,5,0,1,1-5,5A5,5,0,0,1,36.47,41.5Zm-2.74,19A2.06,2.06,0,0,1,32.19,60a3.33,3.33,0,0,1-.72-2.12V51.41a6.94,6.94,0,0,0,5,2.12,6.74,6.74,0,0,0,2.07-.32l-.29.73C37.11,56.86,35.69,60.5,33.73,60.5Zm26-.55a2.06,2.06,0,0,1-1.54.55c-2,0-3.38-3.64-4.52-6.56-.1-.25-.2-.49-.29-.73a6.74,6.74,0,0,0,2.07.32,7,7,0,0,0,5-2.12v6.45A3.31,3.31,0,0,1,59.75,60Z"/><polygon class="cls-2" points="35.47 49.5 37.47 49.5 37.47 47.5 39.47 47.5 39.47 45.51 37.47 45.51 37.47 43.51 35.47 43.51 35.47 45.51 33.47 45.51 33.47 47.5 35.47 47.5 35.47 49.5"/><path class="cls-2" d="M55.47,48.14a1.63,1.63,0,1,0-1.63-1.63A1.63,1.63,0,0,0,55.47,48.14Z"/></g></g></svg>