<svg xmlns="http://www.w3.org/2000/svg" viewBox="0 0 50 50"><defs><style>.cls-1{fill:#1c7b68;}</style></defs><title>Amazon-SageMaker_Model_light-bg</title><g id="Working"><path class="cls-1" d="M47.86,19.62a1,1,0,0,0-.51-.87l-5-2.81V9.43a1,1,0,0,0-.48-.85L31.2,2.05a1,1,0,0,0-1,0L25,5.14,19.83,2a1,1,0,0,0-1,0L8.08,8.58a1,1,0,0,0-.48.85v6.51L2.65,18.75a1,1,0,0,0-.51.87V30.38a1,1,0,0,0,.51.87L7.6,34.06v6.51a1,1,0,0,0,.48.85L18.79,48a1,1,0,0,0,.52.15,1.07,1.07,0,0,0,.52-.14L25,44.86,30.17,48a1.07,1.07,0,0,0,.52.14,1,1,0,0,0,.52-.15l10.71-6.53a1,1,0,0,0,.48-.85v-6.5l5-2.82a1,1,0,0,0,.51-.87V19.62ZM24,43.13l-4.68,2.8L9.6,40V33.48a1,1,0,0,0-.5-.87l-1.78-1h5.1v7.56a1,1,0,0,0,1,1H16.7a2.7,2.7,0,1,0,0-2H14.42V30.61a1,1,0,0,0-1-1H4.14V20.2l5-2.81a1,1,0,0,0,.5-.87v-2.4h1.52v5.21a2.7,2.7,0,1,0,2,0V14.12h2.63a2.7,2.7,0,1,0,0-2H9.6V10l9.72-5.92L24,6.87v12H18.38a1,1,0,0,0-1,1v7.06a2.7,2.7,0,1,0,2,0V20.86H24v4.19h0Zm-5.49-4a.7.7,0,1,1,1.39,0,.7.7,0,1,1-1.39,0ZM12.82,21.83a.7.7,0,1,1-.7-.69A.7.7,0,0,1,12.82,21.83Zm4.74-8.71a.7.7,0,1,1,1.39,0,.7.7,0,1,1-1.39,0Zm1.52,16.31a.7.7,0,1,1-.7-.7A.7.7,0,0,1,19.08,29.43ZM40.9,32.61a1,1,0,0,0-.5.87V40l-8.56,5.22V38.08h1.91a2.7,2.7,0,1,0,0-2H30.84a1,1,0,0,0-1,1v8.35L26,43.13V25.05h0V16.51h3.07v2.3a2.7,2.7,0,1,0,2,0v-2.3h3.16a1,1,0,0,0,1-1v-2a2.7,2.7,0,1,0-2,0v1H26V6.87l4.68-2.8L40.4,10v6.53a1,1,0,0,0,.5.87l5,2.81v3.37h-9.6a1,1,0,0,0-1,1v5H32.84a2.67,2.67,0,0,0-2.5-1.7,2.7,2.7,0,1,0,2.5,3.7h3.42a1,1,0,0,0,1-1v-5h8.6V29.8Zm-5.35,4.47a.7.7,0,1,1,1.4,0,.7.7,0,0,1-1.4,0ZM30.77,21.32a.7.7,0,0,1-1.4,0,.7.7,0,0,1,1.4,0ZM33.53,11a.7.7,0,1,1,1.4,0,.7.7,0,1,1-1.4,0ZM31,30.61a.7.7,0,0,1-1.4,0,.7.7,0,1,1,1.4,0Z"/></g></svg>