<svg xmlns="http://www.w3.org/2000/svg" xmlns:xlink="http://www.w3.org/1999/xlink" viewBox="0 0 75 75"><defs><style>.cls-1{fill:url(#TurquoiseGradient);}.cls-2{fill:#fff;}</style><linearGradient id="TurquoiseGradient" x1="575.78" y1="203.4" x2="425.78" y2="203.4" gradientTransform="translate(535.43 -172.78) rotate(135)" gradientUnits="userSpaceOnUse"><stop offset="0" stop-color="#055f4e"/><stop offset="1" stop-color="#56c0a7"/></linearGradient></defs><title>Amazon-Forecast</title><g id="Reference"><rect id="Turquoise_Gradient" data-name="Turquoise Gradient" class="cls-1" width="75" height="75"/><g id="Icon_Test" data-name="Icon Test"><polygon class="cls-2" points="57.96 59.53 51.03 59.53 51.03 57.53 55.96 57.53 55.96 26.05 57.96 26.05 57.96 59.53"/><polygon class="cls-2" points="51.03 59.53 13.59 59.53 13.59 17.42 49.57 17.42 49.57 19.42 15.59 19.42 15.59 57.53 51.03 57.53 51.03 59.53"/><path class="cls-2" d="M27.17,38.38H18.48v-2h8l2.69-7.09a1,1,0,0,1,.94-.64h9l3.34-6a1,1,0,0,1,.87-.51h9.14l6.42-5.36,1.28,1.54-6.69,5.59a1,1,0,0,1-.64.23H43.88l-3.34,6a1,1,0,0,1-.87.52H30.8l-2.7,7.09A1,1,0,0,1,27.17,38.38Z"/><polygon class="cls-2" points="61.41 20.91 59.41 20.91 59.41 17.47 55.98 17.47 55.98 15.47 61.41 15.47 61.41 20.91"/><path class="cls-2" d="M27.51,55.23H18.7V40.65h8.81Zm-6.81-2h4.81V42.65H20.7Z"/><path class="cls-2" d="M40,55.23H31.18V32.9H40Zm-6.81-2H38V34.9H33.18Z"/><path class="cls-2" d="M52.59,55.23H43.78V26.48h8.81Zm-6.81-2h4.81V28.48H45.78Z"/></g></g></svg>