<svg xmlns="http://www.w3.org/2000/svg" xmlns:xlink="http://www.w3.org/1999/xlink" width="75" height="75" viewBox="0 0 75 75"><defs><linearGradient id="Turquoise_Gradient" x1="-20.83" y1="131.69" x2="-20.83" y2="-18.31" gradientTransform="translate(92.31 12.14) rotate(45)" gradientUnits="userSpaceOnUse"><stop offset="0" stop-color="#055f4e"/><stop offset="1" stop-color="#56c0a7"/></linearGradient></defs><title>Amazon-Kendra</title><g id="Example"><rect id="Green_Gradient" data-name="Green Gradient" width="75" height="75" style="fill:url(#Turquoise_Gradient)"/><path d="M19.89,17.7H17.7v-2h2.19ZM37.76,56.21a14.19,14.19,0,0,0,3,2H13.32a1,1,0,0,1-1-1V14.32a3,3,0,0,1,3-3h42a3,3,0,0,1,3,3V41.88h-.23a13.49,13.49,0,0,0-1.77-3.71V22.08h-44V56.21ZM14.32,20.08h44V14.32a1,1,0,0,0-1-1h-42a1,1,0,0,0-1,1Zm50.33,40.4a3.93,3.93,0,0,1-3.18,3.18l-.37,0a2.63,2.63,0,0,1-1.89-.78l-6.57-6.73a11.66,11.66,0,0,1-5.75,1.52,11.82,11.82,0,1,1,10.28-6l6.72,6.54A2.65,2.65,0,0,1,64.65,60.48ZM46.89,55.69A9.79,9.79,0,1,0,37.1,45.9,9.81,9.81,0,0,0,46.89,55.69Zm15.78,4.52a.68.68,0,0,0-.18-.59L56,53.33A11.45,11.45,0,0,1,54.32,55l6.31,6.46a.68.68,0,0,0,.59.18,1.71,1.71,0,0,0,.93-.51A1.74,1.74,0,0,0,62.67,60.21ZM53.89,45.9a7,7,0,1,1-7-7A6.93,6.93,0,0,1,53.89,45.9Zm-2,0a5,5,0,1,0-5,5A4.95,4.95,0,0,0,51.89,45.9ZM22.08,17.7h2.19v-2H22.08Zm4.38,0h2.19v-2H26.46Zm8.75,0H54.92v-2H35.21ZM54.92,29.93H17.7v2H54.92ZM17.7,45.07H33.14a13.18,13.18,0,0,1,.26-2H17.7ZM36.83,36.5H17.7v2H35.27A13.77,13.77,0,0,1,36.83,36.5Z" style="fill:#fff"/></g></svg>