<svg xmlns="http://www.w3.org/2000/svg" width="75" height="75" viewBox="0 0 75 75"><title>Amazon-Fraud-Detector_light-bg</title><g id="Working"><rect id="Green_Light_BG" data-name="Green Light BG" width="75" height="75" style="fill:#3f8624"/><rect x="11" y="10" width="54" height="56" style="fill:none"/><rect width="75" height="75" style="fill:#1c7b68"/><g id="Page-1"><g id="White"><path id="AWS-Hawksnest_Icon_64_White" data-name="AWS-Hawksnest Icon 64 White" d="M49,48a6,6,0,1,1,6-6,6,6,0,0,1-6,6Zm0-14a8,8,0,1,0,8,8,8,8,0,0,0-8-8Zm1,11a1,1,0,1,1-1-1,1,1,0,0,1,1,1Zm-2-2h2V38H48ZM59.21,30.34l2.22-3.71,1.72,1-2.22,3.71Zm-14-3.07L43.9,23.36l1.89-.63,1.31,3.91ZM53,26.76l1-4,1.94.48-1,4Zm9.85,30.12c-.42.43-1.06.7-1.43.32l-5.4-5.51a11.54,11.54,0,0,0,1.73-1.54l5.43,5.28c.37.37.11,1-.33,1.45ZM39,42A10,10,0,1,1,49,52,10,10,0,0,1,39,42Zm-4,6.08A5,5,0,0,0,31,46c-.13,0-.25,0-.38,0l-4.27-8,4-8.1c.21,0,.41.06.63.06a4.9,4.9,0,0,0,3-1.06l6.67,4.41a11.91,11.91,0,0,0-2.83,13.13ZM31,54a3,3,0,1,1,3-3,3,3,0,0,1-3,3ZM17.6,57.54A6.42,6.42,0,0,0,17,57l5.34-10.79,4.08,2.85A5,5,0,0,0,26,51a4.89,4.89,0,0,0,.35,1.8ZM14,64a3,3,0,1,1,3-3,3,3,0,0,1-3,3ZM27.53,47.41l-4.32-3,2.05-4.15,3.4,6.36a5.26,5.26,0,0,0-1.13.8Zm-9.42-6.57A5,5,0,0,0,18.59,36l3.13-2.43,2.38,4.47-2.55,5.17ZM14,41a3,3,0,1,1,3-3,3,3,0,0,1-3,3Zm2.39-21.64a4.75,4.75,0,0,0,1.41-1.15l8.38,5.53A4.79,4.79,0,0,0,26,25a4.92,4.92,0,0,0,.58,2.29l-4.21,3.28ZM11,15a3,3,0,1,1,3,3,3,3,0,0,1-3-3ZM27.85,28.85a4.45,4.45,0,0,0,.61.43L25.2,35.87l-1.88-3.51ZM31,22a3,3,0,1,1-3,3,3,3,0,0,1,3-3ZM64.61,54,59,48.57A12,12,0,0,0,42.34,32l-7-4.61A4.93,4.93,0,0,0,36,25a5,5,0,0,0-8.92-3.06l-8.32-5.49A5,5,0,1,0,14,20c.15,0,.29,0,.44,0l6.33,11.85-3.33,2.58A5,5,0,0,0,14,33a5,5,0,1,0,2.62,9.24l4,2.81-5.49,11.1A4.91,4.91,0,0,0,14,56a5,5,0,1,0,5,5,4.92,4.92,0,0,0-.34-1.76l8.77-4.75a5,5,0,0,0,8.44-4.59l2.92-1.63A11.93,11.93,0,0,0,54.3,52.75L60,58.61a2.61,2.61,0,0,0,1.86.76,3.45,3.45,0,0,0,2.41-1.07,3,3,0,0,0,.32-4.3Z" style="fill:#fff;fill-rule:evenodd"/></g></g></g></svg>