<svg xmlns="http://www.w3.org/2000/svg" xmlns:xlink="http://www.w3.org/1999/xlink" viewBox="0 0 75 75"><defs><style>.cls-1{fill:url(#TurquoiseGradient);}.cls-2{fill:#fff;}</style><linearGradient id="TurquoiseGradient" x1="-1463.71" y1="558.32" x2="-1463.71" y2="708.32" gradientTransform="translate(-1445.32 -549.67) rotate(-135)" gradientUnits="userSpaceOnUse"><stop offset="0" stop-color="#055f4e"/><stop offset="1" stop-color="#56c0a7"/></linearGradient></defs><title>Amazon-SageMaker-Ground-Truth</title><g id="Reference"><rect id="Turquoise_Gradient" data-name="Turquoise Gradient" class="cls-1" width="75" height="75"/><g id="Icon_Test" data-name="Icon Test"><path class="cls-2" d="M48.46,57.23l-1-1.7,5.69-3.47V45.44a1,1,0,0,1,.51-.87l4-2.26-3.27-1.8a2.69,2.69,0,0,1-1.73.62,2.72,2.72,0,1,1,2.73-2.72,2,2,0,0,1,0,.35l3.36,1.85V32l-5-2.85a1,1,0,0,1-.51-.87V25.72H50.68a2.72,2.72,0,1,1,0-2h2.43V21.63l-9.86-6L38.5,18.47V28.53l5,2.92a2.72,2.72,0,1,1-1.13,2.21,3,3,0,0,1,.05-.52L37,30a1,1,0,0,1-.5-.86V18.47l-4.75-2.85-4.32,2.64v6.46h-2V19.48l-3.54,2.15v6l4.54,2.57L31,27.67V23h2v5.25a1,1,0,0,1-.5.87l-5,2.85v4.87a1,1,0,0,1-.71,1l-5.46,3.06-1-1.75,5.15-2.88V32L20.89,29.4,16.35,32v3.18l3.83-2.25,1,1.72-4.84,2.85v4.24l5,2.86a1,1,0,0,1,.51.87v6.62l5.69,3.47-1,1.7-6.17-3.76a1,1,0,0,1-.48-.85V46l-5-2.85a1,1,0,0,1-.51-.87V31.39a1,1,0,0,1,.51-.87l5-2.85v-6.6a1,1,0,0,1,.48-.85L31.22,13.6a1,1,0,0,1,1,0l5.24,3.14,5.24-3.14a1,1,0,0,1,1,0l10.85,6.62a1,1,0,0,1,.48.85v6.6l5,2.85a1,1,0,0,1,.51.87V42.3a1,1,0,0,1-.51.87l-5,2.85v6.6a1,1,0,0,1-.48.85Zm4.13-19.54a.72.72,0,1,0,.73.72A.72.72,0,0,0,52.59,37.69Zm-7.46-4.75a.72.72,0,1,0,.72.72A.72.72,0,0,0,45.13,32.94Zm3-8.94a.73.73,0,1,0,.72.72A.72.72,0,0,0,48.15,24Z"/><path class="cls-2" d="M45.35,61.55H29.65a1,1,0,0,1-1-1V44.85a1,1,0,0,1,.42-.81l7.85-5.61a1,1,0,0,1,1.16,0L45.93,44a1,1,0,0,1,.42.81v15.7A1,1,0,0,1,45.35,61.55Zm-14.7-2h13.7V45.37L37.5,40.48l-6.85,4.89Z"/><path class="cls-2" d="M42.44,56H32.66a1,1,0,0,1-1-1V49.13a1,1,0,0,1,1-1h9.78a1,1,0,0,1,1,1V55A1,1,0,0,1,42.44,56Zm-8.78-2h7.78V50.13H33.66Z"/><rect class="cls-2" x="34.16" y="51.13" width="6.64" height="2"/><path class="cls-2" d="M37.55,46.75a2.29,2.29,0,1,1,2.29-2.29A2.3,2.3,0,0,1,37.55,46.75Zm0-2.58a.29.29,0,1,0,.29.29A.29.29,0,0,0,37.55,44.17Z"/><rect class="cls-2" x="27.92" y="35.52" width="2" height="6.1" transform="translate(-19.18 41.81) rotate(-56.99)"/></g></g></svg>