<svg xmlns="http://www.w3.org/2000/svg" viewBox="0 0 75 75"><defs><style>.cls-1{fill:#1c7b68;}.cls-2{fill:#fff;}</style></defs><title>Amazon-SageMaker_light-bg</title><g id="Reference"><rect id="Turquoise_Light_BG" data-name="Turquoise Light BG" class="cls-1" width="75" height="75"/><g id="Product_Icon" data-name="Product Icon"><path class="cls-2" d="M43.74,62.76a1,1,0,0,1-.51-.14L37.5,59.19l-5.73,3.43a1,1,0,0,1-1,0L19,55.44a1,1,0,0,1-.47-.85v-7.2L13,44.28a1,1,0,0,1-.51-.87V31.59a1,1,0,0,1,.51-.87l5.5-3.11v-7.2a1,1,0,0,1,.47-.86l11.76-7.17a1,1,0,0,1,1,0l5.73,3.43,5.73-3.43a1,1,0,0,1,1,0L56,19.56a1,1,0,0,1,.48.85v7.2L62,30.72a1,1,0,0,1,.51.87V43.41a1,1,0,0,1-.51.87L56.5,47.39v7.2a1,1,0,0,1-.48.86L44.26,62.62A1.07,1.07,0,0,1,43.74,62.76Zm-5.25-5.3,5.25,3.13L54.5,54V46.81a1,1,0,0,1,.51-.87l4.43-2.52-3.72-2.05a2.87,2.87,0,1,1,1-2.17,3,3,0,0,1,0,.42l3.82,2.1V32.17L55,29.06a1,1,0,0,1-.51-.87V25.5H51.73a2.88,2.88,0,1,1,0-2H54.5V21L43.73,14.41,38.5,17.54v11l5.56,3.22a2.86,2.86,0,1,1-1.14,2.29,2.91,2.91,0,0,1,.06-.6L37,30a1,1,0,0,1-.5-.86V17.54l-5.24-3.13-4.77,2.9v7.06h-2V18.53L20.5,21v6.64l5,2.83,5-2.83V22.5h2v5.69a1,1,0,0,1-.51.87l-5.5,3.11v4.76L32,40.53a1,1,0,0,1,.46.84v3.36l4-2.36V38.13L31.21,35l1-1.72L38,36.69a1,1,0,0,1,.48.86v13h4.59a2.86,2.86,0,0,1,5.54,1,2.9,2.9,0,0,1-5.54,1h-4.6ZM27.08,58l4.18,2.55,5.25-3.13V44.69L25.33,51.27l-1-1.73L30.5,45.9v-4l-5-3.27-5.6,3.14-1-1.75,5.62-3.15V32.17l-5-2.83-5,2.83v3.64l4.28-2.51,1,1.72-5.3,3.11v4.69l5,2.83,5.06-3,1,1.72-5.06,3V54L25,56.79l5.22-3.07.06.09.24-.14,1,1.72Zm18.69-7.41a.87.87,0,1,0,.86.87A.86.86,0,0,0,45.77,50.63Zm8.08-12.3a.87.87,0,1,0,.87.87A.87.87,0,0,0,53.85,38.33Zm-8.08-5.15a.87.87,0,1,0,.86.87A.86.86,0,0,0,45.77,33.18ZM49,23.63a.87.87,0,1,0,.87.87A.86.86,0,0,0,49,23.63Z"/></g></g></svg>