<svg xmlns="http://www.w3.org/2000/svg" xmlns:xlink="http://www.w3.org/1999/xlink" viewBox="0 0 75 75"><defs><style>.cls-1{fill:url(#TurquoiseGradient);}.cls-2{fill:#fff;}</style><linearGradient id="TurquoiseGradient" x1="-469.63" y1="1054.76" x2="-319.63" y2="1054.76" gradientTransform="translate(-429.28 -987.37) rotate(-45)" gradientUnits="userSpaceOnUse"><stop offset="0" stop-color="#055f4e"/><stop offset="1" stop-color="#56c0a7"/></linearGradient></defs><title>Amazon-Translate</title><g id="Reference"><rect id="Turquoise_Gradient" data-name="Turquoise Gradient" class="cls-1" width="75" height="75"/><g id="Icon_Test" data-name="Icon Test"><path class="cls-2" d="M34,46.5H16a1,1,0,0,1-1-1v-6h2v5H34Zm5-25v5H37v-4H30a1,1,0,0,1-1-1v-7H17v20H15v-21a1,1,0,0,1,1-1H30.09a.94.94,0,0,1,.62.28l8,8A1,1,0,0,1,39,21.5Zm-3.41-1L31,15.91V20.5ZM30,12.5h0ZM32.7,39,27.58,25.11h-2.2L20.26,39h2.1l1.24-3.68h5.7L30.58,39ZM26.44,27l2.34,6.8H24.12ZM60,37.5v24a1,1,0,0,1-1,1H37a1,1,0,0,1-1-1v-32a1,1,0,0,1,1-1H51a.39.39,0,0,1,.15,0,.93.93,0,0,1,.56.27l8,8A1,1,0,0,1,60,37.5Zm-8-1h4.59L52,31.91Zm6,2H51a1,1,0,0,1-1-1v-7H38v30H58Zm-7-10a.39.39,0,0,1,.15,0v0Zm3.39,26.34A3.91,3.91,0,0,1,55,54a.51.51,0,0,0,.13-.5.52.52,0,0,0-.37-.35,13.51,13.51,0,0,1-5.24-2.37,15.43,15.43,0,0,0,3-5.1.68.68,0,0,0,.38-.28h1.56a.5.5,0,0,0,.5-.5V44a.5.5,0,0,0-.5-.5H49V42.16a.74.74,0,0,0,.28-.45.5.5,0,0,0-.11-.39.54.54,0,0,0-.36-.18l-1.24-.08a.48.48,0,0,0-.38.13.51.51,0,0,0-.16.37v1.95H41.64a.5.5,0,0,0-.5.5v.92a.5.5,0,0,0,.5.5h1.72a16.5,16.5,0,0,0,3.17,5.4,15.4,15.4,0,0,1-5.15,2.43.51.51,0,0,0-.34.33.5.5,0,0,0,.09.47,3,3,0,0,1,.47.73.51.51,0,0,0,.61.29A17.55,17.55,0,0,0,48,52.21a14.66,14.66,0,0,0,5.85,2.88.25.25,0,0,0,.12,0A.5.5,0,0,0,54.39,54.84ZM50.5,45.43a13,13,0,0,1-2.47,4,13.05,13.05,0,0,1-2.56-4ZM31,60.5a4,4,0,0,1-4-4V51.91l3.29,3.3,1.42-1.42-5-5a1,1,0,0,0-1.42,0l-5,5,1.42,1.42L25,51.91v4.55a6,6,0,0,0,6,6h3v-2ZM53.29,19.79,50,23.09V18.54a6,6,0,0,0-6-6H40v2h4a4,4,0,0,1,4,4v4.55l-3.29-3.3-1.42,1.42,5,5a1,1,0,0,0,1.42,0l5-5Z"/></g></g></svg>