<svg xmlns="http://www.w3.org/2000/svg" xmlns:xlink="http://www.w3.org/1999/xlink" viewBox="0 0 75 75"><defs><style>.cls-1{fill:url(#TurquoiseGradient);}.cls-2{fill:#fff;}</style><linearGradient id="TurquoiseGradient" x1="-80.08" y1="114.3" x2="69.92" y2="114.3" gradientTransform="translate(-39.73 -46.92) rotate(-45)" gradientUnits="userSpaceOnUse"><stop offset="0" stop-color="#055f4e"/><stop offset="1" stop-color="#56c0a7"/></linearGradient></defs><title>Amazon-Personalize</title><g id="Reference"><rect id="Turquoise_Gradient" data-name="Turquoise Gradient" class="cls-1" width="75" height="75"/><g id="Icon_Test" data-name="Icon Test"><path class="cls-2" d="M37.5,51.88A14.38,14.38,0,1,1,51.88,37.5,14.4,14.4,0,0,1,37.5,51.88Zm0-26.76A12.38,12.38,0,1,0,49.88,37.5,12.4,12.4,0,0,0,37.5,25.12Z"/><path class="cls-2" d="M19.12,30.59l-1.87-.71a21.81,21.81,0,0,1,20.29-14,1,1,0,0,1,.7,1.71L34.9,20.93l-1.41-1.42L35,18.06A19.8,19.8,0,0,0,19.12,30.59Z"/><path class="cls-2" d="M58.23,38.58a1,1,0,0,1-.71-.29L54.19,35l1.41-1.42L57.06,35A19.81,19.81,0,0,0,44.52,19.16l.71-1.87a21.81,21.81,0,0,1,14,20.29,1,1,0,0,1-1,1Z"/><path class="cls-2" d="M37.54,59.27a1,1,0,0,1-.71-1.7l3.34-3.34,1.41,1.41L40.12,57.1A19.84,19.84,0,0,0,56,44.57l1.87.71A21.82,21.82,0,0,1,37.54,59.27Z"/><path class="cls-2" d="M29.84,57.87a21.81,21.81,0,0,1-14-20.29,1,1,0,0,1,1.71-.71l3.34,3.34-1.42,1.41L18,40.17A19.82,19.82,0,0,0,30.55,56Z"/><rect class="cls-2" x="13.12" y="38.71" width="4.79" height="2" transform="translate(-26.44 32.16) rotate(-58.45)"/><rect class="cls-2" x="57.09" y="34.63" width="4.79" height="2" transform="translate(-2.01 67.66) rotate(-58.44)"/><rect class="cls-2" x="34.77" y="12.68" width="2" height="4.79" transform="translate(0.18 30.57) rotate(-46.37)"/><rect class="cls-2" x="38.27" y="57.53" width="2" height="4.79" transform="translate(-31.2 47) rotate(-46.37)"/><path class="cls-2" d="M37.45,37.51a4.81,4.81,0,1,1,4.8-4.81A4.82,4.82,0,0,1,37.45,37.51Zm0-7.61a2.81,2.81,0,1,0,2.8,2.8A2.81,2.81,0,0,0,37.45,29.9Z"/><path class="cls-2" d="M44.14,44.67H30.76a1,1,0,0,1-1-1,8,8,0,0,1,3.74-6.81,7.46,7.46,0,0,1,4-1.13,7.83,7.83,0,0,1,7.69,7.94A1,1,0,0,1,44.14,44.67Zm-12.3-2H43.06a5.78,5.78,0,0,0-5.61-4.94,5.52,5.52,0,0,0-2.9.83A6,6,0,0,0,31.84,42.67Z"/></g></g></svg>