<svg xmlns="http://www.w3.org/2000/svg" viewBox="0 0 50 50"><defs><style>.cls-1{fill:#1c7b68;}</style></defs><title>Amazon-Rekognition_Video_light-bg</title><g id="Working"><path class="cls-1" d="M27,0a22.85,22.85,0,0,0-9.16,1.9l.8,1.84A20.67,20.67,0,0,1,27,2a21,21,0,0,1,0,42,20.75,20.75,0,0,1-9.36-2.2l-.89,1.8A23,23,0,1,0,27,0Z"/><path class="cls-1" d="M8.2,32.34A20.51,20.51,0,0,1,6,23,20.94,20.94,0,0,1,8.69,12.73l-1.75-1a23,23,0,0,0-.53,21.49Z"/><path class="cls-1" d="M27,40a17,17,0,1,0-15-9.06L1.46,41.46a5,5,0,0,0,7.07,7.08L19.05,38A16.93,16.93,0,0,0,27,40ZM27,8A15,15,0,1,1,12,23,15,15,0,0,1,27,8ZM7.12,47.12a3,3,0,0,1-4.25-4.24L13.06,32.69a17,17,0,0,0,4.24,4.25Z"/><path class="cls-1" d="M19,32H35a1,1,0,0,0,1-1V15a1,1,0,0,0-1-1H19a1,1,0,0,0-1,1V31A1,1,0,0,0,19,32Zm1-16H34V30H20Z"/><path class="cls-1" d="M31.49,22.13l-7-4a1,1,0,0,0-1,0A1,1,0,0,0,23,19v8a1,1,0,0,0,1,1,1,1,0,0,0,.5-.13l7-4a1,1,0,0,0,0-1.74ZM25,25.28V20.72L29,23Z"/></g></svg>