<svg xmlns="http://www.w3.org/2000/svg" viewBox="0 0 50 50"><defs><style>.cls-1{fill:#1c7b68;}</style></defs><title>Amazon-SageMaker_Train_light-bg</title><g id="Working"><rect class="cls-1" x="6.47" y="36.56" width="21.4" height="2"/><rect class="cls-1" x="6.47" y="30.62" width="21.4" height="2"/><path class="cls-1" d="M47.61,31.56l-7.69-7.69a12.22,12.22,0,0,0-2-14.74,12.24,12.24,0,0,0-20.87,9.66H1.44V44.46H32.9V29.51a12.52,12.52,0,0,0,2.44-1.06L43,36.14a3.24,3.24,0,0,0,4.58,0A3.23,3.23,0,0,0,47.61,31.56ZM22,10.55a10.26,10.26,0,0,1,15.82,12.9v0A10,10,0,0,1,36.56,25l0,0a8.27,8.27,0,0,1-.77.69c-.14.12-.3.23-.45.34a10.29,10.29,0,0,1-3.69,1.69,10.61,10.61,0,0,1-2.49.27h-.32c-.28,0-.55,0-.82-.07l-.47-.07-.68-.14c-.15,0-.31-.07-.46-.12a9.28,9.28,0,0,1-1-.35l-.43-.2c-.21-.1-.43-.2-.64-.32l-.41-.24-.64-.43-.33-.25a9.42,9.42,0,0,1-.9-.79,8.29,8.29,0,0,1-.63-.7l-.18-.22q-.21-.27-.39-.54a2.2,2.2,0,0,1-.17-.25c-.14-.21-.27-.43-.39-.65a1.09,1.09,0,0,1-.08-.15c-.14-.26-.25-.52-.36-.78-.05-.11-.09-.23-.14-.35s-.12-.32-.17-.49l-.12-.4c0-.15-.08-.31-.11-.47s-.07-.27-.09-.4A10.27,10.27,0,0,1,22,10.55ZM30.9,30V42.46H3.44V20.79h14a.88.88,0,0,0,.05.15,12.64,12.64,0,0,0,.43,1.36l0,.08a12.59,12.59,0,0,0,.64,1.34l.2.34c.13.21.25.42.39.62H6.47v2H20.83c.26.24.51.48.78.69l.4.29a7.37,7.37,0,0,0,.67.47l.52.31.6.33.6.28.57.22.65.23.58.16.66.16.83.13.54.06c.35,0,.69,0,1,0h.44c.36,0,.71,0,1.07-.08Zm15.3,4.78a1.24,1.24,0,0,1-1.75,0L37,27.31c.29-.24.56-.48.82-.74l.1-.1h0l0,0c.29-.28.55-.58.81-.88h0L46.2,33A1.24,1.24,0,0,1,46.2,34.73Z"/><polygon class="cls-1" points="35.76 14.47 34.34 13.06 27.01 20.48 24.15 18.03 22.85 19.55 27.12 23.21 35.76 14.47"/></g></svg>