<svg xmlns="http://www.w3.org/2000/svg" viewBox="0 0 75 75"><defs><style>.cls-1{fill:#1c7b68;}.cls-2{fill:#fff;}</style></defs><title>Amazon-Comprehend_light-bg</title><g id="Reference"><rect id="Turquoise_Light_BG" data-name="Turquoise Light BG" class="cls-1" width="75" height="75"/><g id="Product_Icon" data-name="Product Icon"><path class="cls-2" d="M44.5,34.2V24.5a1,1,0,0,0-.29-.71l-11-11a1,1,0,0,0-.71-.29h-19a1,1,0,0,0-1,1v43a1,1,0,0,0,1,1h30a1,1,0,0,0,1-1V52.06a11.8,11.8,0,0,1-2-2.3V55.5h-28v-41h17v10a1,1,0,0,0,1,1h10v11A11.56,11.56,0,0,1,44.5,34.2Zm-11-10.7V15.91l7.59,7.59Zm-10,8h-6v-2h6Zm16,0h-14v-2h14Zm0,6h-22v-2h22Zm15.44,25H50.06a1,1,0,0,1-.93-.62l-1.21-3a1,1,0,0,1,.09-.94,1,1,0,0,1,.83-.44h7.32a1,1,0,0,1,.83.44,1,1,0,0,1,.09.94l-1.21,3A1,1,0,0,1,54.94,62.5Zm-4.21-2h3.54l.4-1H50.33Zm11.64-19A10,10,0,0,0,42.5,43.12a10,10,0,0,0,4.28,8.2,3.88,3.88,0,0,1,.72.59V55.5a1,1,0,0,0,1,1h8a1,1,0,0,0,1-1V51.9a4.33,4.33,0,0,1,.71-.57,9.92,9.92,0,0,0,4.29-8.2A10.19,10.19,0,0,0,62.37,41.48ZM57.05,49.7c-.58.4-1.55,1.07-1.55,2.1v2.7h-2v-7h2v-2h-6v2h2v7h-2V51.82c0-1-1-1.73-1.58-2.14A8,8,0,1,1,58,37.32a7.89,7.89,0,0,1,2.39,4.47A8,8,0,0,1,57.05,49.7ZM28.5,25.5h-11v-2h11Zm1,18h-12v-2h12Zm10,0h-8v-2h8Zm-9,6h-13v-2h13Z"/></g></g></svg>