<svg xmlns="http://www.w3.org/2000/svg" xmlns:xlink="http://www.w3.org/1999/xlink" viewBox="0 0 75 75"><defs><style>.cls-1{fill:url(#TurquoiseGradient);}.cls-2{fill:#fff;}</style><linearGradient id="TurquoiseGradient" x1="-2417.47" y1="-41.53" x2="-2523.54" y2="64.54" gradientTransform="translate(-2433 49) rotate(180)" gradientUnits="userSpaceOnUse"><stop offset="0" stop-color="#055f4e"/><stop offset="1" stop-color="#56c0a7"/></linearGradient></defs><title>Amazon-Transcribe</title><g id="Reference"><rect id="Turquoise_Gradient" data-name="Turquoise Gradient" class="cls-1" width="75" height="75"/><g id="Icon_Test" data-name="Icon Test"><path class="cls-2" d="M13.76,62.5a1.26,1.26,0,0,1-1.11-1.85l4.2-8.18a15.62,15.62,0,0,1-2.24-8.08A15.95,15.95,0,0,1,40.14,31.74l-1.2,1.6A13.88,13.88,0,0,0,18.83,51.88a1,1,0,0,1,.05,1l-3.44,6.7,6.88-3.42a1,1,0,0,1,1,.05A14,14,0,0,0,42.23,52l1.66,1.11A16,16,0,0,1,22.73,58.2l-8.4,4.17A1.31,1.31,0,0,1,13.76,62.5Zm.67-.94h0ZM39.5,40.63h-2V46.5h2Zm-3-4.09h-2v14h2Zm-3,3h-2v8h2Zm-3-3h-2v14h2Zm-3,2h-2v10h2Zm-3-1h-2v12h2Zm-3,3h-2v7h2Zm41,11v-16h-2v15h-15v2h16A1,1,0,0,0,62.5,51.5Zm-.3-28.74-10.08-10a.94.94,0,0,0-.62-.28h-18a1,1,0,0,0-1,1v13h2v-12h16v9a.89.89,0,0,0,.92,1H60.5v5h2v-6A1,1,0,0,0,62.2,22.76Zm-9.7-.26V15.89l6.56,6.61Zm-1.08-10h0Zm5.08,14h-10v2h10Zm-1,4h-13v2h13Zm-9-10h-8v2h8Zm-2,6h-6v2h6Zm-2,11h-2v12h2Zm3,2h-2v8h2Z"/></g></g></svg>