<svg xmlns="http://www.w3.org/2000/svg" xmlns:xlink="http://www.w3.org/1999/xlink" viewBox="0 0 75 75"><defs><style>.cls-1{fill:url(#TurquoiseGradient);}.cls-2{fill:#fff;}</style><linearGradient id="TurquoiseGradient" x1="806.75" y1="-382.13" x2="806.75" y2="-232.13" gradientTransform="translate(825.13 390.78) rotate(-135)" gradientUnits="userSpaceOnUse"><stop offset="0" stop-color="#055f4e"/><stop offset="1" stop-color="#56c0a7"/></linearGradient></defs><title>Amazon-Elastic-Inference</title><g id="Reference"><rect id="Turquoise_Gradient" data-name="Turquoise Gradient" class="cls-1" width="75" height="75"/><g id="Icon_Test" data-name="Icon Test"><path class="cls-2" d="M62,58.88H60a10.36,10.36,0,0,0-20.72,0h-2a12.36,12.36,0,0,1,24.72,0Z"/><path class="cls-2" d="M49.64,59.88H41.07v-1a8.8,8.8,0,0,1,8.57-8.58,8.59,8.59,0,0,1,8.58,8.58h-2a6.59,6.59,0,0,0-6.58-6.58,6.86,6.86,0,0,0-6.48,5.58h6.48Z"/><polygon class="cls-2" points="58.67 47.88 48.92 58.28 50.37 59.47 58.67 47.88"/><path class="cls-2" d="M50.37,60.47a1,1,0,0,1-.64-.23l-1.45-1.19a1,1,0,0,1-.09-1.46L58,47.19a1,1,0,0,1,1.54,1.27L51.18,60.05a1,1,0,0,1-.68.41Z"/><circle class="cls-2" cx="49.64" cy="58.88" r="0.95"/><path class="cls-2" d="M49.64,60.82a1.95,1.95,0,1,1,2-1.94A1.94,1.94,0,0,1,49.64,60.82Zm0-2v.11l.06,0A.06.06,0,0,0,49.64,58.82Z"/><path class="cls-2" d="M30.32,60.77a1,1,0,0,1-.52-.15L19,54a1,1,0,0,1-.48-.85V46.61l-5-2.84A1,1,0,0,1,13,42.9V32a1,1,0,0,1,.51-.87l5-2.84V21.77a1,1,0,0,1,.48-.86L29.8,14.32a1,1,0,0,1,1,0l5.23,3.12,5.21-3.12a1,1,0,0,1,1,0l10.81,6.59a1,1,0,0,1,.48.85v6.57l5,2.83a1,1,0,0,1,.51.88V42.91a1,1,0,0,1-.51.87L53.09,46.9l-1-1.74,3.95-2.24-3.24-1.79A2.71,2.71,0,0,1,48.37,39a2.72,2.72,0,0,1,5.43,0c0,.12,0,.24,0,.35l3.33,1.84V32.63l-5-2.84a1,1,0,0,1-.5-.87V26.41H49.18a2.72,2.72,0,1,1,0-2H51.6V22.33l-9.82-6-4.73,2.83v10l5,2.9a2.69,2.69,0,0,1,1.58-.51,2.71,2.71,0,1,1-2.71,2.71,2.84,2.84,0,0,1,.05-.51l-5.44-3.15a1,1,0,0,1-.5-.87V19.18l-4.73-2.83L26,19v6.44H24V20.19l-3.52,2.14v6L25,30.89l4.51-2.56V23.69h2v5.23a1,1,0,0,1-.51.87l-5,2.84V36.9l5,3.29a1,1,0,0,1,.46.84V44l3.51-2.07V38.1l-4.81-2.84,1-1.72,5.31,3.12a1,1,0,0,1,.49.86V49.21h2.66v2H37.05v5.13h0a1,1,0,0,1-.48.85l-5.74,3.44A1,1,0,0,1,30.32,60.77Zm-3.69-4.42,3.69,2.25,4.73-2.83V44.22l-10.14,6-1-1.72,5.64-3.32V41.57l-4.55-3-5.11,2.86-1-1.74L24,36.86V32.63l-4.52-2.56L15,32.63v3.15l3.8-2.24,1,1.72L15,38.1v4.22l4.5,2.55,4.61-2.71,1,1.72L20.51,46.6v6l4.09,2.49,4.75-2.8,0,.09.23-.13,1,1.72Zm24.45-18a.72.72,0,1,0,.72.71A.71.71,0,0,0,51.08,38.32Zm-7.43-4.73a.71.71,0,1,0,.72.71A.71.71,0,0,0,43.65,33.59Zm3-8.9a.72.72,0,1,0,.71.72A.71.71,0,0,0,46.66,24.69Z"/></g></g></svg>