<svg xmlns="http://www.w3.org/2000/svg" viewBox="0 0 75 75"><defs><style>.cls-1{fill:#1c7b68;}.cls-2{fill:#fff;}</style></defs><title>Amazon-Textract_light-bg</title><g id="Reference"><rect id="Turquoise_Light_BG" data-name="Turquoise Light BG" class="cls-1" width="75" height="75"/><g id="Product_Icon" data-name="Product Icon"><path class="cls-2" d="M61.44,56.6h-2V55.1h1.27V23.56l-6.77-5.89H33.7v1.15H32.2v-1.9a.74.74,0,0,1,.75-.75H54.2a.72.72,0,0,1,.49.18l7.25,6.3a.75.75,0,0,1,.25.56V55.85A.75.75,0,0,1,61.44,56.6Z"/><path class="cls-2" d="M58.27,58.83H30.71a.75.75,0,0,1-.75-.75V52.55h1.5v4.78H57.52V26.7l-5.86-5.86H31.46v5.89H30V20.09a.76.76,0,0,1,.75-.75H52a.75.75,0,0,1,.53.22l6.3,6.3a.75.75,0,0,1,.22.53V58.08A.75.75,0,0,1,58.27,58.83Z"/><path class="cls-2" d="M58.27,27.14H52a.76.76,0,0,1-.75-.75v-6.3h1.5v5.55h5.55Z"/><rect class="cls-2" x="32.88" y="39.74" width="7.26" height="1.5"/><rect class="cls-2" x="30.75" y="43.53" width="8.05" height="1.5"/><rect class="cls-2" x="42.88" y="39.76" width="11.75" height="1.5"/><rect class="cls-2" x="45.86" y="44.34" width="8.6" height="1.5"/><rect class="cls-2" x="40.01" y="30.99" width="14.45" height="1.5"/><rect class="cls-2" x="45.93" y="34.98" width="8.53" height="1.5"/><rect class="cls-2" x="23.3" y="39.54" width="4.12" height="1.5"/><rect class="cls-2" x="14.01" y="39.54" width="5.63" height="1.5"/><rect class="cls-2" x="17.81" y="36.4" width="5.34" height="1.5"/><rect class="cls-2" x="16.68" y="42.76" width="7.42" height="1.5"/><path class="cls-2" d="M31.53,48.92a9.24,9.24,0,1,1,9.24-9.24A9.24,9.24,0,0,1,31.53,48.92Zm0-17a7.74,7.74,0,1,0,7.74,7.74A7.75,7.75,0,0,0,31.53,31.94Z"/><path class="cls-2" d="M31.53,51.87A12.19,12.19,0,1,1,43.72,39.68,12.21,12.21,0,0,1,31.53,51.87Zm0-22.88A10.69,10.69,0,1,0,42.22,39.68,10.7,10.7,0,0,0,31.53,29Z"/><rect class="cls-2" x="30" y="36.1" width="1.5" height="4.15"/><path class="cls-2" d="M34,37.15h-1.5v-.4H28.93v.4h-1.5V36a.75.75,0,0,1,.75-.75h5.08A.74.74,0,0,1,34,36Z"/><rect class="cls-2" x="29.44" y="39.67" width="2.46" height="1.5"/><path class="cls-2" d="M15,42.81l-2-2a.75.75,0,0,1,0-1.07l2-2,1.06,1.06-1.45,1.45,1.45,1.46Z"/></g></g></svg>