<svg xmlns="http://www.w3.org/2000/svg" viewBox="0 0 75 75"><defs><style>.cls-1{fill:#1c7b68;}.cls-2{fill:#fff;}</style></defs><title>Amazon-Lex_light-bg</title><g id="Reference"><rect id="Turquoise_Light_BG" data-name="Turquoise Light BG" class="cls-1" width="75" height="75"/><g id="Product_Icon" data-name="Product Icon"><path class="cls-2" d="M43.4,12.51H14.6a2.11,2.11,0,0,0-2.1,2.11V33.4a2.11,2.11,0,0,0,2.1,2.11h3.84l.06.11V41a1.62,1.62,0,0,0,1,1.36,1.6,1.6,0,0,0,.57.11,1.56,1.56,0,0,0,1.07-.43l5.34-5.2V34.06l0,0-6,5.85V35.69A2,2,0,0,0,20,34.17a2.09,2.09,0,0,0-1.52-.66H14.6a.11.11,0,0,1-.1-.11V14.62a.11.11,0,0,1,.1-.11H43.4a.11.11,0,0,1,.1.11V30.51h2V14.62A2.11,2.11,0,0,0,43.4,12.51Zm-8.9,7h-17v-2h17Zm6,0h-4v-2h4Zm-14,5h-9v-2h9Zm14,0h-11v-2h11Zm-9,5h-14v-2h14Zm6,0h-4v-2h4ZM53,62.49a1.52,1.52,0,0,1-1-.41L45.2,55.5H30.57a2.19,2.19,0,0,1-2.07-2.17V34.1a2.57,2.57,0,0,1,2.55-2.59H60.53a2,2,0,0,1,2,2.15V53.38a2.1,2.1,0,0,1-2.07,2.12H54.58a.16.16,0,0,0-.09.14v5.29a1.51,1.51,0,0,1-.9,1.44A1.62,1.62,0,0,1,53,62.49Zm-.48-1.55h0Zm-7.22-7.43a1.82,1.82,0,0,1,1.26.5l6,5.83V55.62a2.11,2.11,0,0,1,2.08-2.11h5.85a.14.14,0,0,0,.07-.13V33.66a.16.16,0,0,0-.16-.16H30.94c-.3,0-.44.15-.44.48V53.28c0,.1.16.23.23.23Zm.89-2h-1.3A1,1,0,0,1,44,51l-.52-1a8.71,8.71,0,0,1-1-.42l-1.08.35a1,1,0,0,1-1-.24l-.92-.93a1,1,0,0,1-.25-1l.35-1.06a5,5,0,0,1-.46-1.09l-1-.49a1,1,0,0,1-.54-.9v-1.3a1,1,0,0,1,.54-.89l1-.51a7.75,7.75,0,0,1,.44-1.07l-.34-1.07a1,1,0,0,1,.25-1l.92-.92a1,1,0,0,1,1-.25l1.06.35A8.34,8.34,0,0,1,43.46,37L44,36a1,1,0,0,1,.89-.55h1.3a1,1,0,0,1,.89.55l.5,1a6.28,6.28,0,0,1,1.08.44l1-.34a1,1,0,0,1,1,.25l.92.92a1,1,0,0,1,.24,1l-.34,1.07A5.87,5.87,0,0,1,52,41.44L53,42a1,1,0,0,1,.55.89v1.3A1,1,0,0,1,53,45l-1,.5a6.72,6.72,0,0,1-.45,1.07l.35,1.07a1,1,0,0,1-.24,1l-.92.93a1,1,0,0,1-1,.24l-1.07-.35a6.81,6.81,0,0,1-1,.43l-.51,1A1,1,0,0,1,46.17,51.5Zm-.69-2h.07l.43-.85a1,1,0,0,1,.66-.52A4.59,4.59,0,0,0,48,47.57a1,1,0,0,1,.84-.1l.9.3.05-.06-.29-.9a1,1,0,0,1,.1-.83,5.07,5.07,0,0,0,.56-1.36,1,1,0,0,1,.52-.66l.84-.43v-.08L50.67,43a1,1,0,0,1-.52-.65A4.45,4.45,0,0,0,49.59,41a1,1,0,0,1-.1-.83l.29-.9-.05-.05-.89.28a1,1,0,0,1-.83-.1,5,5,0,0,0-1.37-.57,1,1,0,0,1-.66-.51l-.42-.84h-.08l-.43.84a1,1,0,0,1-.61.5A6.35,6.35,0,0,0,43,39.4a1,1,0,0,1-.83.1l-.89-.28-.06.05.29.9a1,1,0,0,1-.1.83,5,5,0,0,0-.56,1.37,1,1,0,0,1-.52.65l-.83.43v.08l.84.43a1,1,0,0,1,.53.71A3.48,3.48,0,0,0,41.45,46a1,1,0,0,1,.1.83l-.3.9.06.06.9-.3a1,1,0,0,1,.83.1,6.12,6.12,0,0,0,1.4.57,1,1,0,0,1,.61.51Zm0-3a3,3,0,1,1,3-3A3,3,0,0,1,45.52,46.5Zm0-4.21a1.21,1.21,0,1,0,1.2,1.2A1.2,1.2,0,0,0,45.52,42.29Z"/></g></g></svg>