<svg xmlns="http://www.w3.org/2000/svg" viewBox="0 0 75 75"><defs><style>.cls-1{fill:#1c7b68;}.cls-2{fill:#fff;}</style></defs><title>Amazon-Polly_light-bg</title><g id="Reference"><rect id="Turquoise_Light_BG" data-name="Turquoise Light BG" class="cls-1" width="75" height="75"/><g id="Product_Icon" data-name="Product Icon"><path class="cls-2" d="M27.54,50.5h-14a1,1,0,0,1-1-1v-8h2v7h13Z"/><path class="cls-2" d="M39.25,22.79l-10-10a1,1,0,0,0-.71-.29h-15a1,1,0,0,0-1,1v23h2v-22h13v9a1,1,0,0,0,1,1h9v2h2v-3A1,1,0,0,0,39.25,22.79Zm-9.71-.29V15.91l6.59,6.59Z"/><rect class="cls-2" x="16.54" y="29.5" width="8" height="2"/><path class="cls-2" d="M61.19,62.5a1.17,1.17,0,0,1-.55-.13l-8.36-4.18A15.88,15.88,0,0,1,28.77,46.54l2-.27a13.88,13.88,0,0,0,21,9.93,1,1,0,0,1,1,0l6.83,3.42-3.43-6.72a1,1,0,0,1,0-1,13.55,13.55,0,0,0,2.21-7.48A13.87,13.87,0,0,0,38,32.1l-.94-1.76a15.86,15.86,0,0,1,23.28,14,15.68,15.68,0,0,1-2.22,8.08l4.19,8.21a1.25,1.25,0,0,1-.22,1.45A1.26,1.26,0,0,1,61.19,62.5Zm-.65-.94h0Z"/><rect class="cls-2" x="42.54" y="40.5" width="2" height="8"/><rect class="cls-2" x="45.54" y="39.5" width="2" height="10"/><rect class="cls-2" x="48.54" y="38.5" width="2" height="12"/><rect class="cls-2" x="51.54" y="41.5" width="2" height="7"/><rect class="cls-2" x="36.54" y="40.5" width="2" height="8"/><rect class="cls-2" x="16.54" y="34.5" width="19" height="2"/><rect class="cls-2" x="16.54" y="39.5" width="14" height="2"/><rect class="cls-2" x="26.54" y="29.5" width="4" height="2"/><rect class="cls-2" x="39.54" y="42.5" width="2" height="4"/><rect class="cls-2" x="37.54" y="34.5" width="6" height="1.9"/></g></g></svg>