<svg xmlns="http://www.w3.org/2000/svg" xmlns:xlink="http://www.w3.org/1999/xlink" width="75" height="75" viewBox="0 0 75 75"><defs><linearGradient id="linear-gradient" x1="-21.11" y1="131.81" x2="-21.11" y2="-18.19" gradientTransform="translate(92.6 12.26) rotate(45)" gradientUnits="userSpaceOnUse"><stop offset="0" stop-color="#055f4e"/><stop offset="1" stop-color="#56c0a7"/></linearGradient></defs><title>Amazon-Augmented-AI</title><g id="Working"><rect id="Green_Gradient" data-name="Green Gradient" width="75" height="75" style="fill:url(#linear-gradient)"/><rect x="11" y="10" width="54" height="56" style="fill:none"/><rect width="75" height="75" style="fill:none"/><g id="Page-1"><g id="White"><path id="AWS_A2I_64_White" data-name="AWS A2I 64 White" d="M50.76,63.82a12.38,12.38,0,0,0-5.58-9.46,11,11,0,0,0-5.86-1.7c-6,0-10.95,4.92-11.44,11.16ZM39.34,50.66a6.24,6.24,0,1,0-6.23-6.23,6.24,6.24,0,0,0,6.23,6.23ZM52.8,64.82a1,1,0,0,1-1,1H26.85a1,1,0,0,1-1-1A14.12,14.12,0,0,1,35,51.42a8.24,8.24,0,1,1,8.66,0,13.35,13.35,0,0,1,2.58,1.25A14.41,14.41,0,0,1,52.8,64.82ZM18.44,39l1,1.71,5.85-3.51L29,39.36l1-1.71-4-2.41V30.92l6.5-3.72a1,1,0,0,0,.5-.87V16.8H31v9l-6,3.43-6-3.35V18.31l6-3.58V21.8h2V13.54l4.35-2.6L38,14.14V33.8h2V13.52a1,1,0,0,0-.57-.91l-7.7-3.7a1,1,0,0,0-.95,0L17.49,16.88a1,1,0,0,0-.49.86v7.58l-6.37,2.54a1,1,0,0,0-.63.93L9.94,44a1,1,0,0,0,.47.85L17,49v6.66a1,1,0,0,0,.4.8l5.26,4,1.2-1.6L19,55.11V48.39a1,1,0,0,0-.05-.3l5.78-3.46-1-1.72-6.42,3.85-5.34-3.34,0-5.6,6.19-3.72-1-1.71L12,35.48l0-6,5.49-2.19L24,30.91v4.72Zm31.23,1.15a12.08,12.08,0,0,0,.52-3.45A11.84,11.84,0,0,0,41.61,25.3l-.55,1.93a9.83,9.83,0,0,1,7.13,9.44,10.14,10.14,0,0,1-.43,2.87Zm16.26,1.33-3.77,9.88a1,1,0,0,1-1.35.55l-3.24-1.46-.4.66a12.61,12.61,0,0,1-3.41,4l-1.2-1.6A10.79,10.79,0,0,0,55.46,50c.28-.44.57-.92.91-1.43a1,1,0,0,1,1.24-.36l3.06,1.38,3-7.9-3.22-1a1,1,0,0,1-.68-1.1,21.84,21.84,0,0,0-.2-7.34,1,1,0,0,1,.62-1.13l3.14-1.19-3.46-7.72-3,1.55a1,1,0,0,1-1.26-.28,21.75,21.75,0,0,0-5.35-5A1,1,0,0,1,50,17.2l1.38-3.07-8-3-1.16,2.72L40.34,13l1.53-3.6a1,1,0,0,1,1.28-.55L53,12.64a1,1,0,0,1,.57.55,1,1,0,0,1,0,.79l-1.48,3.28a24.06,24.06,0,0,1,4.61,4.35L59.91,20a1,1,0,0,1,1.37.48l4.33,9.65a1,1,0,0,1,0,.8,1,1,0,0,1-.57.55L61.7,32.71a23.24,23.24,0,0,1,.17,6.34l3.43,1.09a1,1,0,0,1,.6.52,1,1,0,0,1,0,.79Z" style="fill:#fff;fill-rule:evenodd"/></g></g></g></svg>