<svg xmlns="http://www.w3.org/2000/svg" viewBox="0 0 75 75"><defs><style>.cls-1{fill:#1c7b68;}.cls-2{fill:#fff;}</style></defs><title>AWS-DeepRacer_light-bg</title><g id="Reference"><rect id="Turquoise_Light_BG" data-name="Turquoise Light BG" class="cls-1" width="75" height="75"/><g id="Product_Icon" data-name="Product Icon"><path class="cls-2" d="M16.51,53.92a3.39,3.39,0,0,1-1.23-.22c-2-.78-2.9-3-2.6-6.17h0s0-.18.13-1.42a16.09,16.09,0,0,1,.54-2.35l.08-.24-.14,0a1,1,0,0,1-.62-.84,12.67,12.67,0,0,1,.24-3.37l0-.13a12.66,12.66,0,0,1,.53-1.78,7,7,0,0,1,6.45-4.61,4.82,4.82,0,0,0,4-1.52l1.64-2.9c2.43-3.94,8.92-9.9,25.23-6a1,1,0,0,1,.76.83l2.36,0,.2,0A7.11,7.11,0,0,1,59.34,26,8,8,0,0,1,61,32l-.88,6.8A21.54,21.54,0,0,1,59,43.44l-.64,1.8-.93,2.25a1,1,0,0,1-.33.43v.29a3.22,3.22,0,0,1-.64,2.7,3.66,3.66,0,0,1-2.91,1.3H42.15A3.42,3.42,0,0,1,39.57,51,3.32,3.32,0,0,1,38.94,50a9.61,9.61,0,0,1-1.11,1.58c-.59.67-2.7,2.84-4.83,2.21-2.74-.81-3.73-5.09-2.29-10s4.57-7.94,7.31-7.13a3,3,0,0,1,.81.38l-1.08,1.68a1.28,1.28,0,0,0-.29-.14c-1.36-.39-3.72,2-4.83,5.77s-.43,7.07.93,7.47c.7.2,1.95-.68,2.77-1.62a10.93,10.93,0,0,0,2.07-4.15,12.06,12.06,0,0,0,.46-5,1,1,0,0,1,2-.37,14.77,14.77,0,0,1,.3,2.47L43,42.6c.27,1,.49,1.89.67,2.66.07.31.13.6.19.85H46A.43.43,0,0,1,46,46a3.51,3.51,0,0,1,3.08-1.83h4.22a1.9,1.9,0,0,1,1.66,1,2,2,0,0,1,.27,1h.56l.65-1.59.63-1.75a20.15,20.15,0,0,0,1-4.27L59,31.7a6,6,0,0,0-1.22-4.5,5.11,5.11,0,0,0-3.86-2l-.17,0-3,0a5,5,0,0,0-4.14,2,1,1,0,0,1-1.79-.64,4.36,4.36,0,0,1,1.87-3c-12.44-2-17.49,2.63-19.44,5.79l-1.67,3a1,1,0,0,1-.1.15A6.65,6.65,0,0,1,20,34.76a5,5,0,0,0-4.61,3.33,11.29,11.29,0,0,0-.43,1.41,1.4,1.4,0,0,1-.06.28c0,.19-.07.37-.09.55l.46-.39a1,1,0,0,1,1.48,1.32,12.67,12.67,0,0,0-1.44,3.11,12.85,12.85,0,0,0-.46,2l-.13,1.34c-.12,1.3-.11,3.56,1.34,4.12.95.37,2.19-.43,3-1.3A11.49,11.49,0,0,0,21.55,46c.81-2.56.79-5.14,0-6.56l1.73-1c1.11,1.91,1.19,5,.21,8.16a13.6,13.6,0,0,1-3,5.29A5.76,5.76,0,0,1,16.51,53.92Zm24.62-10.5a30.85,30.85,0,0,1-.37,5.16,1.35,1.35,0,0,0,.32,1.13,1.41,1.41,0,0,0,1.07.5H53.54a1.72,1.72,0,0,0,1.36-.55,1.33,1.33,0,0,0,.22-1.12.88.88,0,0,1,0-.16l0-.27H54a1,1,0,0,1-1-1.25l.15-.58a.56.56,0,0,1,0-.12H49.11a1.51,1.51,0,0,0-1.27.7l-.14.51a1,1,0,0,1-1,.74H43.28a1,1,0,0,1-1.14-.67c-.13-.4-.27-1-.44-1.72S41.36,44.25,41.13,43.42ZM16.75,51.18c-1.2-1.2-1.5-3.52-.74-5.93.9-2.88,3-4.82,4.91-4.62l-.21,2c-.81-.09-2.16,1.22-2.79,3.23-.57,1.82-.3,3.37.24,3.9Zm17.42-.87c-1.13-1.19-1.4-3.5-.7-5.89.85-2.89,2.81-4.85,4.69-4.64l-.22,2C37.31,41.7,36,42.89,35.39,45c-.54,1.84-.28,3.41.23,4Zm17.64-10A3.79,3.79,0,0,1,49,39.09a3.73,3.73,0,0,1-.92-3l.72-5.68a3.71,3.71,0,1,1,7.36.94l-.72,5.68a3.71,3.71,0,0,1-3.59,3.24Zm.65-11.1h-.05a1.69,1.69,0,0,0-1.65,1.49L50,36.38a1.75,1.75,0,0,0,.43,1.37,1.71,1.71,0,0,0,3-.93l.73-5.69h0a1.74,1.74,0,0,0-.43-1.36A1.68,1.68,0,0,0,52.46,29.21Z"/><path class="cls-2" d="M54.66,53.83c-.82,0-1.47,0-1.47,0a1,1,0,0,1-.6-1.78l.67-.53.26.32h1.56c1.86,0,3-.66,3.6-2,.84-2,.18-5-.83-7.23l1.81-.85c1.17,2.51,2,6.15.87,8.86-.62,1.45-2.06,3.19-5.43,3.21Z"/><path class="cls-2" d="M29.2,40.29l-1.73-1c2.75-4.72,5.59-7.16,8.42-7.22a5.93,5.93,0,0,1,4.79,2.63L39,35.78a4.16,4.16,0,0,0-3.08-1.72C33.86,34.12,31.54,36.27,29.2,40.29Z"/><rect class="cls-2" x="21.19" y="48.34" width="6.17" height="2"/><path class="cls-2" d="M51.44,36.53a2.78,2.78,0,1,1,2.77-2.77A2.77,2.77,0,0,1,51.44,36.53Zm0-3.55a.78.78,0,0,0-.78.78.77.77,0,0,0,.78.77.76.76,0,0,0,.77-.77A.77.77,0,0,0,51.44,33Z"/><rect class="cls-2" x="16.79" y="22.92" width="14.97" height="2"/><rect class="cls-2" x="21.25" y="26.52" width="6.33" height="2"/><rect class="cls-2" x="13.96" y="29.68" width="11.17" height="2"/></g></g></svg>