<svg xmlns="http://www.w3.org/2000/svg" xmlns:xlink="http://www.w3.org/1999/xlink" viewBox="0 0 75 75"><defs><style>.cls-1{fill:url(#TurquoiseGradient);}.cls-2{fill:#fff;}</style><linearGradient id="TurquoiseGradient" x1="-487.55" y1="-1181.07" x2="-487.55" y2="-1331.07" gradientTransform="translate(-505.93 1270.42) rotate(45)" gradientUnits="userSpaceOnUse"><stop offset="0" stop-color="#055f4e"/><stop offset="1" stop-color="#56c0a7"/></linearGradient></defs><title>AWS-Deep-Learning-AMIs</title><g id="Reference"><rect id="Turquoise_Gradient" data-name="Turquoise Gradient" class="cls-1" width="75" height="75"/><g id="Icon_Test" data-name="Icon Test"><path class="cls-2" d="M54.5,62.5a5,5,0,0,1-4.9-4H33.4a5,5,0,0,1-9.9-1A5,5,0,0,1,25,54L18.89,42.3a4.92,4.92,0,0,1-1.39.2,5,5,0,0,1,0-10,4.92,4.92,0,0,1,1.39.2L25,21.05A5,5,0,0,1,28.5,12.5a5,5,0,0,1,4.9,4H49.6a5,5,0,1,1,1.07,4.21L40,26.5l.88.87-1.42,1.42-1.29-1.3L29.5,32.15V34.5h-2V33.23l-5.21,2.82c0,.15.08.3.11.45H36.5v2H22.4c0,.15-.07.3-.11.45l5.21,2.82V40.5h2v2.35l8.59,4.64,1.3-1.3,1.42,1.42-.88.88,10.74,5.8A5,5,0,1,1,54.5,62.5Zm0-8a3,3,0,1,0,3,3A3,3,0,0,0,54.5,54.5Zm-26,0a3,3,0,1,0,3,3A3,3,0,0,0,28.5,54.5Zm4.9,2H49.6c0-.15.07-.3.11-.45L38.45,50,33,55.38A5.45,5.45,0,0,1,33.4,56.5Zm-3.9-3.9a5,5,0,0,1,2.32,1.16L36.62,49,29.5,45.12ZM20.66,41.37l6,11.48a4.68,4.68,0,0,1,.83-.25V44l-6.17-3.33A4.65,4.65,0,0,1,20.66,41.37ZM17.5,34.5a3,3,0,1,0,3,3A3,3,0,0,0,17.5,34.5Zm3.16-.87a4.65,4.65,0,0,1,.67.66L27.5,31V22.4a4.68,4.68,0,0,1-.83-.25ZM29.5,22.4v7.48L36.64,26l-4.81-4.8A4.93,4.93,0,0,1,29.5,22.4ZM33,19.6c1.56,1.57,3.47,3.46,5.44,5.42L49.71,19c0-.15-.08-.3-.11-.45H33.4A5.25,5.25,0,0,1,33,19.6ZM54.5,14.5a3,3,0,1,0,3,3A3,3,0,0,0,54.5,14.5Zm-26,0a3,3,0,1,0,3,3A3,3,0,0,0,28.5,14.5Zm24.29,35H48.21a1,1,0,0,1-1-1V46.63a7.76,7.76,0,0,1-.84-.34l-1.32,1.32a1,1,0,0,1-1.42,0l-3.24-3.24a1,1,0,0,1,0-1.42l1.32-1.32a7.76,7.76,0,0,1-.34-.84H39.5a1,1,0,0,1-1-1V35.21a1,1,0,0,1,1-1h1.87a7.76,7.76,0,0,1,.34-.84l-1.32-1.32a1,1,0,0,1,0-1.42l3.24-3.24a1,1,0,0,1,1.42,0l1.32,1.32a7.76,7.76,0,0,1,.84-.34V26.5a1,1,0,0,1,1-1h4.58a1,1,0,0,1,1,1v1.87a7.76,7.76,0,0,1,.84.34L56,27.39a1,1,0,0,1,1.42,0l3.24,3.24a1,1,0,0,1,0,1.42l-1.32,1.32a7.76,7.76,0,0,1,.34.84H61.5a1,1,0,0,1,1,1v4.58a1,1,0,0,1-1,1H59.63a7.76,7.76,0,0,1-.34.84L60.61,43a1,1,0,0,1,0,1.42l-3.24,3.24a1,1,0,0,1-1.42,0l-1.32-1.32a7.76,7.76,0,0,1-.84.34V48.5A1,1,0,0,1,52.79,49.5Zm-3.58-2h2.58V45.9a1,1,0,0,1,.74-1,7.55,7.55,0,0,0,1.79-.75,1,1,0,0,1,1.2.16l1.14,1.14,1.83-1.83-1.14-1.14a1,1,0,0,1-.16-1.2,7.55,7.55,0,0,0,.75-1.79,1,1,0,0,1,1-.74h1.6V36.21H58.9a1,1,0,0,1-1-.74,7.55,7.55,0,0,0-.75-1.79,1,1,0,0,1,.16-1.2l1.14-1.14-1.83-1.83-1.14,1.14a1,1,0,0,1-1.2.16,7.55,7.55,0,0,0-1.79-.75,1,1,0,0,1-.74-1V27.5H49.21v1.6a1,1,0,0,1-.74,1,7.55,7.55,0,0,0-1.79.75,1,1,0,0,1-1.2-.16l-1.14-1.14-1.83,1.83,1.14,1.14a1,1,0,0,1,.16,1.2,7.55,7.55,0,0,0-.75,1.79,1,1,0,0,1-1,.74H40.5v2.58h1.6a1,1,0,0,1,1,.74,7.55,7.55,0,0,0,.75,1.79,1,1,0,0,1-.16,1.2l-1.14,1.14,1.83,1.83,1.14-1.14a1,1,0,0,1,1.2-.16,7.55,7.55,0,0,0,1.79.75,1,1,0,0,1,.74,1Zm1.29-4.88a5.12,5.12,0,1,1,5.12-5.12A5.12,5.12,0,0,1,50.5,42.62Zm0-8.24a3.12,3.12,0,1,0,3.12,3.12A3.12,3.12,0,0,0,50.5,34.38Z"/></g></g></svg>