<svg xmlns="http://www.w3.org/2000/svg" xmlns:xlink="http://www.w3.org/1999/xlink" viewBox="0 0 75 75"><defs><style>.cls-1{fill:url(#Turquoise_Gradient);}.cls-2{fill:#fff;}</style><linearGradient id="Turquoise_Gradient" x1="-710.15" y1="-1718.47" x2="-710.15" y2="-1868.47" gradientTransform="translate(-728.53 1807.82) rotate(45)" gradientUnits="userSpaceOnUse"><stop offset="0" stop-color="#055f4e"/><stop offset="1" stop-color="#56c0a7"/></linearGradient></defs><title>TensorFlow-on-AWS copy</title><g id="Reference"><rect id="Green_Gradient" data-name="Green Gradient" class="cls-1" width="75" height="75"/><path class="cls-2" d="M65.22,36.79c-2.09-2.08-5.64-2.37-7.53-2.35.29-4-2.84-6.82-4.71-7.82a1,1,0,0,0-1.2.2A10.69,10.69,0,0,0,50,37.5H10.51a1,1,0,0,0-1,1c0,8.27,3.05,14.37,9.06,18.13C24,60,30.24,60.5,33.51,60.5c15.34,0,22.25-14.53,23.67-18a9.15,9.15,0,0,0,8.22-4.58A1,1,0,0,0,65.22,36.79ZM56.61,40.5a1,1,0,0,0-1,.67c-.05.18-6.18,17.33-22.05,17.33-5.07,0-21.39-1.39-22-19h40a1,1,0,0,0,.85-.47,1,1,0,0,0,0-1,9.11,9.11,0,0,1,.33-9.23c1.25.91,3.62,3.14,2.8,6.42a1,1,0,0,0,.66,1.25.93.93,0,0,0,.47,0s4.17-.41,6.57,1.21A7.13,7.13,0,0,1,56.61,40.5Z"/><path class="cls-2" d="M12.65,34a1,1,0,0,0,.86.49h30a1,1,0,0,0,.86-.49l3-5a1,1,0,0,0,0-1l-5-9a1,1,0,0,0-.86-.51H35.13L33.4,15.05a1,1,0,0,0-.89-.55h-8a1,1,0,0,0-.89.55L21.89,18.5H15.51a1,1,0,0,0-.87.51l-5,9a1,1,0,0,0,0,1ZM25.13,16.5h6.76L33.62,20a1,1,0,0,0,.89.55h6.41L43,24.26l-2.5,5,1.79.9,1.91-3.82,1.15,2.12-2.42,4H35.43l4.24-7.42-1.74-1-2,3.41H31.67l-2.05-4.13L31.88,20l-1.66-1.11L27.79,22.5H25.3l-1.66-3ZM13.27,25.58h4.86v-2H14.39L16.1,20.5h5.82l1.59,2.83L21.39,27.5H15.51v2H22A1,1,0,0,0,22.9,29l2.23-4.45H28l2.21,4.44a1,1,0,0,0,.89.56h3.79l-1.71,3h-19l-2.47-4Z"/></g></svg>