<svg xmlns="http://www.w3.org/2000/svg" xmlns:xlink="http://www.w3.org/1999/xlink" width="75" height="75" viewBox="0 0 75 75"><defs><linearGradient id="Turquoise_Gradient" x1="-299.53" y1="525.53" x2="-193.47" y2="419.47" gradientTransform="matrix(0, -1, -1, 0, 510, -209)" gradientUnits="userSpaceOnUse"><stop offset="0" stop-color="#055f4e"/><stop offset="1" stop-color="#56c0a7"/></linearGradient></defs><title>ARCH_Product-Icon_AWS-DeepComposer_primary-bg</title><g id="Categories_and_Colors" data-name="Categories and Colors"><rect id="Turquoise_Gradient-2" data-name="Turquoise Gradient" width="75" height="75" style="fill:url(#Turquoise_Gradient)"/></g><g id="Working"><rect x="10" y="10" width="55" height="55" style="fill:none"/></g><g id="Working_Review" data-name="Working/Review"><path id="_64px_Compound" data-name="64px Compound" d="M64.93,5.5H10.07A4.58,4.58,0,0,0,5.5,10.07V64.93a4.58,4.58,0,0,0,4.57,4.57H64.93a4.58,4.58,0,0,0,4.57-4.57V10.07A4.58,4.58,0,0,0,64.93,5.5Zm2.28,26.89a20.59,20.59,0,0,1-20.57,3.67v2.41a22.67,22.67,0,0,0,7.17,1.17,22.84,22.84,0,0,0,13.4-4.34V64.93a2.28,2.28,0,0,1-2.28,2.28H10.07a2.28,2.28,0,0,1-2.28-2.28V43.54l1.62-2.66a20.55,20.55,0,0,1,22.38-9.26V29.29a22.83,22.83,0,0,0-24,9.91V10.07a2.28,2.28,0,0,1,2.28-2.28H64.93a2.28,2.28,0,0,1,2.28,2.28ZM42.07,14.66a4,4,0,0,0-2.79-1.16,1.92,1.92,0,0,0-.6.05l-.17,0a4,4,0,0,0-3.3,3.93V38.9a10.28,10.28,0,1,0,8,10V27.11l2.37,2.34a4,4,0,0,0,6.82-2.86,4,4,0,0,0-1.18-2.83ZM49.6,27.81a1.71,1.71,0,0,1-2.41,0l-4.31-4.26a1.15,1.15,0,0,0-1.25-.24,1.14,1.14,0,0,0-.7,1.05V48.93a8,8,0,1,1-5-7.41,1.15,1.15,0,0,0,1.57-1.06v-23a1.7,1.7,0,0,1,1.38-1.67H39a.85.85,0,0,1,.23,0h.07a1.69,1.69,0,0,1,1.21.49l9.15,9.1a1.7,1.7,0,0,1,.5,1.21A1.67,1.67,0,0,1,49.6,27.81Z" style="fill:#fff"/></g></svg>