<svg xmlns="http://www.w3.org/2000/svg" viewBox="0 0 75 75"><defs><style>.cls-1{fill:#1c7b68;}.cls-2{fill:#fff;}</style></defs><title>AWS-DeepLens_light-bg</title><g id="Reference"><rect id="Turquoise_Light_BG" data-name="Turquoise Light BG" class="cls-1" width="75" height="75"/><g id="Product_Icon" data-name="Product Icon"><path class="cls-2" d="M49.5,62.5h-2V48.71A13.1,13.1,0,0,0,47,45.5H44.5v-2h1.78c-.45-1.11-1-1.93-1.31-2H42.5v-2H45c3.06,0,4.52,7.39,4.52,9.21Zm-4,0h-2v-12h2Zm-14,0h-2v-8h2Zm-4-9h-2V48.71C25.5,46.89,27,39.5,30,39.5H32.5v2H30c-.36.07-.85.89-1.3,2h10.7v2H28a13.1,13.1,0,0,0-.54,3.21Zm4-1h-2v-4h2Zm12-7H41.42v-2H43.5Zm-2-3h-2v-2h-4v2h-2v-4H28.79a3.3,3.3,0,0,1-3.29-3.29V15.79a3.3,3.3,0,0,1,3.29-3.29H37.5v2H28.79a1.28,1.28,0,0,0-1.29,1.29V35.21a1.28,1.28,0,0,0,1.29,1.29H46.21a1.28,1.28,0,0,0,1.29-1.29V15.79a1.28,1.28,0,0,0-1.29-1.29H43.5v-2h2.71a3.3,3.3,0,0,1,3.29,3.29V35.21a3.3,3.3,0,0,1-3.29,3.29H41.5Zm-4-11a6,6,0,1,1,6-6A6,6,0,0,1,37.5,31.5Zm0-10a4,4,0,1,0,4,4A4,4,0,0,0,37.5,21.5Zm4-7h-2v-2h2Zm-4,35A1.5,1.5,0,1,0,39,51,1.5,1.5,0,0,0,37.5,49.5Zm0,5A1.5,1.5,0,1,0,39,56,1.5,1.5,0,0,0,37.5,54.5Zm0,5A1.5,1.5,0,1,0,39,61,1.5,1.5,0,0,0,37.5,59.5Zm0-35.5A1.5,1.5,0,1,0,39,25.5,1.5,1.5,0,0,0,37.5,24Z"/></g></g></svg>