<?xml version="1.0" encoding="utf-8"?>
<!-- Generator: Adobe Illustrator 21.0.0, SVG Export Plug-In . SVG Version: 6.00 Build 0)  -->
<svg version="1.1" id="Layer_1" xmlns="http://www.w3.org/2000/svg" xmlns:xlink="http://www.w3.org/1999/xlink" x="0px" y="0px"
	 width="100px" height="100px" viewBox="0 0 100 100" style="enable-background:new 0 0 100 100;" xml:space="preserve">
<style type="text/css">
	.st0{fill:#C9EBEC;}
	.st1{fill:#00868C;}
	.st2{fill:#00B3BB;}
</style>
<g>
	<g>
		<polygon class="st0" points="63.1,48.7 63.1,39.4 59.6,41.1 63.1,48.7 		"/>
		<polygon class="st0" points="71.6,42.2 85.9,27.9 63.1,39.4 		"/>
	</g>
	<polygon class="st0" points="63.1,50.5 60.2,58.3 60.2,58.3 66.7,51.8 70.8,59.8 91,59.8 	"/>
	<polygon class="st1" points="63.1,39.4 63.1,48.7 91,48.7 71.6,42.2 63.1,39.4 	"/>
	<polygon class="st2" points="63.1,48.7 63.1,48.7 63.1,50.5 91,59.8 91,48.7 	"/>
	<polygon class="st0" points="51.4,63.1 60.6,63.1 57.8,71.6 72.1,85.9 58.9,59.6 	"/>
	<polygon class="st1" points="60.2,58.3 79.9,78.1 70.8,59.8 66.7,51.8 	"/>
	<polygon class="st2" points="60.2,58.3 60.2,58.3 58.9,59.6 72.1,85.9 79.9,78.1 	"/>
	<polygon class="st0" points="41.7,60.2 41.7,60.2 48.2,66.7 40.2,70.8 40.2,91 49.5,63.1 	"/>
	<polygon class="st1" points="51.4,63.1 51.3,63.1 51.3,91 57.8,71.6 60.6,63.1 	"/>
	<polygon class="st2" points="51.3,63.1 49.5,63.1 40.2,91 51.3,91 	"/>
	<g>
		<polygon class="st0" points="28.4,57.8 14.1,72.1 36.9,60.6 		"/>
		<polygon class="st0" points="36.9,51.3 36.9,60.6 40.4,58.9 36.9,51.3 		"/>
	</g>
	<polygon class="st1" points="41.7,60.2 22,79.9 40.2,70.8 48.2,66.7 	"/>
	<polygon class="st2" points="41.7,60.2 41.7,60.2 40.4,58.9 36.9,60.6 36.9,60.6 36.9,60.6 14.1,72.1 22,79.9 	"/>
	<polygon class="st0" points="39.8,41.7 39.8,41.7 33.3,48.2 29.2,40.2 9,40.2 36.9,49.5 	"/>
	<polygon class="st1" points="36.9,60.6 36.9,60.6 36.9,51.3 9,51.3 28.4,57.8 36.9,60.6 	"/>
	<polygon class="st2" points="36.9,51.3 36.9,51.3 36.9,49.5 9,40.2 9,51.3 	"/>
	<polygon class="st0" points="48.6,36.9 39.4,36.9 42.2,28.4 27.9,14.1 41.1,40.4 	"/>
	<polygon class="st1" points="39.8,41.7 20.1,21.9 29.2,40.2 33.3,48.2 	"/>
	<polygon class="st2" points="39.8,41.7 39.8,41.7 41.1,40.4 27.9,14.1 20.1,21.9 	"/>
	<polygon class="st0" points="58.3,39.8 58.3,39.8 51.8,33.3 59.8,29.2 59.8,9 50.5,36.9 	"/>
	<polygon class="st1" points="48.6,36.9 48.7,36.9 48.7,9 42.2,28.4 39.4,36.9 	"/>
	<polygon class="st2" points="48.7,36.9 50.5,36.9 59.8,9 48.7,9 	"/>
	<polygon class="st1" points="58.3,39.8 78,20.1 59.8,29.2 51.8,33.3 	"/>
	<polygon class="st2" points="58.3,39.8 58.3,39.8 59.6,41.1 63.1,39.4 63.1,39.4 85.9,27.9 78,20.1 	"/>
</g>
</svg>
