<svg xmlns="http://www.w3.org/2000/svg" viewBox="0 0 75 75"><defs><style>.cls-1{fill:#1c7b68;}.cls-2{fill:#fff;}</style></defs><title>AWS-DataSync_light-bg</title><g id="Reference"><rect id="Turquoise_Light_BG" data-name="Turquoise Light BG" class="cls-1" width="75" height="75"/><g id="Product_Icon" data-name="Product Icon"><path class="cls-2" d="M29.63,43.06h-2.8V41.12h2.8Zm-4.22-1.94H15.92v1.94h9.49ZM44.76,52.21h-11v1.94h11Zm-13.26.12H28.7v1.94h2.8ZM21.64,57a1,1,0,0,0,.55-.88V54.27h4.64V52.33H21.22a1,1,0,0,0-1,1v.78L15.77,50.5l4.48-3.59v.78a1,1,0,0,0,1,1H36.13V50.5a1,1,0,0,0,1.58.75l7-5.6a1,1,0,0,0,0-1.51l-7-5.61a1,1,0,0,0-1.58.76v1.83H31.5v1.94h5.6a1,1,0,0,0,1-1v-.78l4.48,3.58-4.48,3.59v-.79a1,1,0,0,0-1-1H22.19V44.89a1,1,0,0,0-1.57-.75l-7,5.6a1,1,0,0,0,0,1.51l7,5.61a1,1,0,0,0,.6.21A1,1,0,0,0,21.64,57Zm40.11-17.9c0-4.73-3.06-8.37-7.25-8.84-.37-4-3.2-6.54-7.42-6.54h-.16a12.29,12.29,0,0,0-10.65-5.77A12.51,12.51,0,0,0,23.8,29.51a9.64,9.64,0,0,0-8.69,9.57h1.94a7.69,7.69,0,0,1,7.68-7.68,1,1,0,0,0,1-1A10.58,10.58,0,0,1,36.27,19.87a10.34,10.34,0,0,1,9.24,5.27,1,1,0,0,0,.85.5h.72c3.46,0,5.52,2.06,5.52,5.52a1,1,0,0,0,1,1c3.56,0,6.24,3,6.24,6.95a7.7,7.7,0,0,1-7.68,7.69H45.78v1.94h6.35A9.64,9.64,0,0,0,61.75,39.08Z"/></g></g></svg>