<svg xmlns="http://www.w3.org/2000/svg" xmlns:xlink="http://www.w3.org/1999/xlink" viewBox="0 0 75 75"><defs><style>.cls-1{fill:url(#TurquoiseGradient);}.cls-2{fill:#fff;}</style><linearGradient id="TurquoiseGradient" x1="-15.53" y1="90.53" x2="90.53" y2="-15.53" gradientTransform="translate(0 0)" gradientUnits="userSpaceOnUse"><stop offset="0" stop-color="#055f4e"/><stop offset="1" stop-color="#56c0a7"/></linearGradient></defs><title>AWS-Snowball</title><g id="Reference"><rect id="Turquoise_Gradient" data-name="Turquoise Gradient" class="cls-1" width="75" height="75"/><g id="Icon_Test" data-name="Icon Test"><path class="cls-2" d="M55.32,53H19.68a3.19,3.19,0,0,1-3.18-3.18V25.18A3.19,3.19,0,0,1,19.68,22H29.5a1,1,0,0,1,.95.68L31.58,26H43.41l1.14-3.32a1,1,0,0,1,1-.68h9.83a3.17,3.17,0,0,1,3.17,3.17V49.82A3.19,3.19,0,0,1,55.32,53ZM19.68,24a1.18,1.18,0,0,0-1.18,1.18V49.82A1.18,1.18,0,0,0,19.68,51H55.32a1.18,1.18,0,0,0,1.18-1.18V25.17A1.18,1.18,0,0,0,55.33,24H46.21l-1.14,3.32a1,1,0,0,1-.94.68H30.87a1,1,0,0,1-.95-.68L28.79,24Z"/><path class="cls-2" d="M57.12,57H17.88a5.46,5.46,0,0,1-5.38-5.54V23.54A5.46,5.46,0,0,1,17.88,18H57.12a5.46,5.46,0,0,1,5.38,5.54V51.46A5.46,5.46,0,0,1,57.12,57ZM17.88,20a3.47,3.47,0,0,0-3.38,3.54V51.46A3.47,3.47,0,0,0,17.88,55H57.12a3.47,3.47,0,0,0,3.38-3.54V23.54A3.47,3.47,0,0,0,57.12,20Z"/><path class="cls-2" d="M50.5,46h-26a1,1,0,0,1-1-1V32a1,1,0,0,1,1-1h26a1,1,0,0,1,1,1V45A1,1,0,0,1,50.5,46Zm-25-2h24V33h-24Z"/><rect class="cls-2" x="33.5" y="22" width="8" height="2"/></g></g></svg>