<svg xmlns="http://www.w3.org/2000/svg" viewBox="0 0 75 75"><defs><style>.cls-1{fill:#1c7b68;}.cls-2{fill:#fff;}</style></defs><title>AWS-Database-Migration-Service_light-bg</title><g id="Reference"><rect id="Turquoise_Light_BG" data-name="Turquoise Light BG" class="cls-1" width="75" height="75"/><g id="Product_Icon" data-name="Product Icon"><path class="cls-2" d="M51.9,17.5c-.3-3.9-7.57-6-14.43-6S23.33,13.6,23,17.5h0v30c0,4.05,7.47,6.24,14.5,6.24S52,51.56,52,47.51v-30Zm-14.43-4c7.72,0,12.46,2.47,12.46,4.25S45.19,22,37.47,22,25,19.52,25,17.75,29.74,13.5,37.47,13.5Zm0,38.25C29.74,51.75,25,49.28,25,47.51V41.74c2.67,2,7.71,3,12.53,3s9.78-1,12.47-3v5.73C49.93,49.28,45.19,51.75,37.47,51.75Zm.06-9c-7.72,0-12.46-2.48-12.46-4.25H25V31.74c2.67,2,7.71,3,12.53,3s9.78-1,12.47-3V38.5C50,40.27,45.26,42.75,37.53,42.75Zm0-10c-7.72,0-12.46-2.48-12.46-4.25H25V21c2.69,1.94,7.68,3,12.47,3S47.33,23,50,21V28.5C50,30.27,45.26,32.75,37.53,32.75Z"/><rect class="cls-2" x="24" y="55.5" width="2" height="6"/><rect class="cls-2" x="49" y="55.5" width="2" height="6"/><rect class="cls-2" x="32" y="57.5" width="2" height="6"/><rect class="cls-2" x="41" y="57.5" width="2" height="6"/></g></g></svg>