<svg xmlns="http://www.w3.org/2000/svg" viewBox="0 0 75 75"><defs><style>.cls-1{fill:#1c7b68;}.cls-2{fill:#fff;}</style></defs><title>AWS-Transfer-for-SFTP_light-bg</title><g id="Reference"><rect id="Turquoise_Light_BG" data-name="Turquoise Light BG" class="cls-1" width="75" height="75"/><g id="Product_Icon" data-name="Product Icon"><path class="cls-2" d="M23.78,60H18.45v-2h5.33ZM58.21,31.77H48.69v1.95h7.57V58.07H38.49v2H58.21ZM21.39,57.07V33.72H38.17V31.77H19.44v25.3a1,1,0,1,1-2,0V27.14H27.9l2.64,2.63h7.63V27.83H31.34L28.71,25.2H15.5V57.07a2.95,2.95,0,1,0,5.89,0ZM58.21,27.83H53.93v1.94h2.33v1h2ZM44.14,46.56l8.55-9.21A1,1,0,0,0,52,35.72H47.69V28.8H45.74v7.89a1,1,0,0,0,1,1h3l-6.32,6.81-6.32-6.81h3a1,1,0,0,0,1-1V28.8H39.17v6.92H34.88a1,1,0,0,0-.71,1.63l8.55,9.21a1,1,0,0,0,1.42,0Zm10.1-22.7h4.29a1,1,0,0,0,.89-.59,1,1,0,0,0-.18-1.05L50.69,13a1,1,0,0,0-1.42,0l-8.55,9.2a1,1,0,0,0-.18,1.05,1,1,0,0,0,.89.59h4.29v8.55h2V22.88a1,1,0,0,0-1-1h-3L50,15.11l6.31,6.8h-3a1,1,0,0,0-1,1v9.53h2ZM37.57,59.35V54.46a2.93,2.93,0,0,0-2.93-2.93H27.7a2.93,2.93,0,0,0-2.93,2.93v4.89a2.93,2.93,0,0,0,2.93,2.93h6.94A2.93,2.93,0,0,0,37.57,59.35Zm-2.93-5.87a1,1,0,0,1,1,1v4.89a1,1,0,0,1-1,1H27.7a1,1,0,0,1-1-1V54.46a1,1,0,0,1,1-1Zm1-3.43a3.12,3.12,0,0,0-3.12-3.12h-2.6a3.13,3.13,0,0,0-3.13,3.12V52h1.95V50.05a1.17,1.17,0,0,1,1.18-1.17h2.6a1.17,1.17,0,0,1,1.17,1.17V52h2Z"/></g></g></svg>