<svg xmlns="http://www.w3.org/2000/svg" xmlns:xlink="http://www.w3.org/1999/xlink" viewBox="0 0 75 75"><defs><style>.cls-1{fill:url(#TurquoiseGradient);}.cls-2{fill:#fff;}</style><linearGradient id="TurquoiseGradient" x1="1224.48" y1="472.1" x2="1074.48" y2="472.1" gradientTransform="translate(1184.13 -441.48) rotate(135)" gradientUnits="userSpaceOnUse"><stop offset="0" stop-color="#055f4e"/><stop offset="1" stop-color="#56c0a7"/></linearGradient></defs><title>AWS-Application-Discovery-Service</title><g id="Reference"><rect id="Turquoise_Gradient" data-name="Turquoise Gradient" class="cls-1" width="75" height="75"/><g id="Icon_Test" data-name="Icon Test"><path class="cls-2" d="M37.54,53.43v8.11a1,1,0,0,1-1,1h-18a1,1,0,0,1-1-1V48.28a19.83,19.83,0,0,0,2,1.64V60.54h16V53.83A19.65,19.65,0,0,0,37.54,53.43ZM22.45,28.54a9.7,9.7,0,0,0-.55,2H35.54v-2Zm-.63,5a9.79,9.79,0,0,0,.44,2H35.54v-2Zm2,5a10.15,10.15,0,0,0,1.93,2h9.79v-2Zm14.72-14H25.18a9.29,9.29,0,0,0-1.7,2H37.54V41.46a10,10,0,0,0,2-1.49V25.54A1,1,0,0,0,38.54,24.54ZM61.05,61.05A5,5,0,0,1,54,61.1l0-.05L42.28,49.41a19.82,19.82,0,1,1,7.13-7.13L61.05,53.93A5,5,0,0,1,61.1,61Zm-11-28.74A17.73,17.73,0,1,0,32.31,50,17.73,17.73,0,0,0,50.05,32.31ZM59.54,55.4,48.24,44.06a20.2,20.2,0,0,1-4.18,4.18L55.4,59.54a3,3,0,0,0,5.06-3.22A2.89,2.89,0,0,0,59.54,55.4ZM46.9,32.31A14.6,14.6,0,1,0,32.29,46.9h0A14.63,14.63,0,0,0,46.9,32.31Zm-2.08,0A12.52,12.52,0,1,1,32.3,19.79h0A12.52,12.52,0,0,1,44.82,32.31Z"/></g></g></svg>