<svg xmlns="http://www.w3.org/2000/svg" xmlns:xlink="http://www.w3.org/1999/xlink" viewBox="0 0 75 75"><defs><style>.cls-1{fill:url(#TurquoiseGradient);}.cls-2{fill:#fff;}</style><linearGradient id="TurquoiseGradient" x1="-10.47" y1="-36.47" x2="-116.53" y2="-142.53" gradientTransform="translate(-52 101) rotate(90)" gradientUnits="userSpaceOnUse"><stop offset="0" stop-color="#055f4e"/><stop offset="1" stop-color="#56c0a7"/></linearGradient></defs><title>AWS-Server-Migration-Service</title><g id="Reference"><rect id="Turquoise_Gradient" data-name="Turquoise Gradient" class="cls-1" width="75" height="75"/><g id="Icon_Test" data-name="Icon Test"><path class="cls-2" d="M42.68,50.5v-2h9.48a10.26,10.26,0,0,0,4.92-1.74c1.23-.92,3.29-2.88,3.23-5.72A6.9,6.9,0,0,0,54,34.1a1,1,0,0,1-.9-1.09,2.26,2.26,0,0,0,0-.26,4.21,4.21,0,0,0-4.21-4.22A4.16,4.16,0,0,0,46,29.7a1,1,0,0,1-.92.26,1,1,0,0,1-.71-.63,10.33,10.33,0,0,0-9.61-6.69h-.11v-2h.11a12.32,12.32,0,0,1,11,6.78,6.16,6.16,0,0,1,3.19-.89,6.23,6.23,0,0,1,6.19,5.71A8.89,8.89,0,0,1,62.31,41a9,9,0,0,1-4,7.35A12,12,0,0,1,52.2,50.5Zm-10-1v-36a1,1,0,0,0-1-1h-18a1,1,0,0,0-1,1v36a1,1,0,0,0,1,1h18A1,1,0,0,0,32.68,49.5Zm-18-35h16v34h-16Zm14,4h-12v2h12Zm0,5h-12v2h12Zm4,29h-2v8h2Zm6,0h-2v10h2Zm6,0h-2v8h2Zm-16-24h-12v2h12Z"/></g></g></svg>