<svg xmlns="http://www.w3.org/2000/svg" xmlns:xlink="http://www.w3.org/1999/xlink" viewBox="0 0 75 75"><defs><style>.cls-1{fill:url(#TurquoiseGradient);}.cls-2{fill:#fff;}</style><linearGradient id="TurquoiseGradient" x1="-21.16" y1="83.33" x2="96.16" y2="-8.33" gradientTransform="translate(0 0)" gradientUnits="userSpaceOnUse"><stop offset="0" stop-color="#055f4e"/><stop offset="1" stop-color="#56c0a7"/></linearGradient></defs><title>AWS-Migration-Hub</title><g id="Reference"><rect id="Turquoise_Gradient" data-name="Turquoise Gradient" class="cls-1" width="75" height="75"/><g id="Icon_Test" data-name="Icon Test"><path class="cls-2" d="M36.79,36.93l-7.17,7.18L31,45.52l6.47-6.46L44,45.52l1.41-1.41-7.17-7.18A1,1,0,0,0,36.79,36.93Z"/><path class="cls-2" d="M47.29,39.32l-9.08-9.08a1,1,0,0,0-1.42,0l-9.08,9.08,1.41,1.42,8.38-8.38,8.38,8.38Z"/><path class="cls-2" d="M27.21,36,37.5,25.67,47.79,36l1.42-1.42-11-11a1,1,0,0,0-1.42,0l-11,11Z"/><path class="cls-2" d="M57.49,37.24v-7.8a4.35,4.35,0,1,0-4.06-7.31L47,18.36a4.23,4.23,0,0,0,.2-1.28,4.37,4.37,0,1,0-1.21,3l6.39,3.75a4.21,4.21,0,0,0-.23,1.38,4.35,4.35,0,0,0,3.35,4.23v7.8a4.36,4.36,0,1,0,2,0ZM42.85,19.43a2.35,2.35,0,1,1,2.35-2.35A2.35,2.35,0,0,1,42.85,19.43Zm11.3,5.78a2.35,2.35,0,1,1,2.35,2.34A2.35,2.35,0,0,1,54.15,25.21Zm2.35,18.6a2.35,2.35,0,1,1,2.35-2.34A2.35,2.35,0,0,1,56.5,43.81Z"/><path class="cls-2" d="M50.86,46a4.34,4.34,0,0,0-4.23,5.37l-5.87,3.65a1.8,1.8,0,0,0-.19-.2,4.32,4.32,0,0,0-6.14,0,1.8,1.8,0,0,0-.19.2l-5.9-3.66a4.35,4.35,0,1,0-7.27,1.93,4.33,4.33,0,0,0,6.15,0l.17-.17,5.9,3.66a4.56,4.56,0,0,0-.14,1.11,4.35,4.35,0,0,0,8.7,0,4.56,4.56,0,0,0-.14-1.11l5.83-3.62.24.26A4.35,4.35,0,1,0,50.86,46ZM25.8,51.91a2.4,2.4,0,0,1-3.32,0,2.35,2.35,0,1,1,3.32-3.32,2.34,2.34,0,0,1,0,3.32Zm13.36,7.67a2.34,2.34,0,1,1,.69-1.66A2.34,2.34,0,0,1,39.16,59.58ZM52.52,52a2.42,2.42,0,0,1-3.32,0,2.34,2.34,0,0,1,0-3.32,2.34,2.34,0,0,1,3.32,0A2.36,2.36,0,0,1,52.52,52Z"/><path class="cls-2" d="M22.85,41.47a4.34,4.34,0,0,0-3.36-4.23v-7.8a4.35,4.35,0,0,0,3.36-4.23,4.21,4.21,0,0,0-.23-1.38L29,20.08a4.34,4.34,0,1,0-1.21-3,4.23,4.23,0,0,0,.2,1.28l-6.43,3.77a4.35,4.35,0,1,0-4.07,7.31v7.8a4.34,4.34,0,1,0,5.35,4.23Zm9.3-26.74a2.35,2.35,0,1,1-2.35,2.35A2.35,2.35,0,0,1,32.15,14.73Zm-16,10.48a2.35,2.35,0,1,1,2.35,2.34A2.35,2.35,0,0,1,16.15,25.21Zm2.35,18.6a2.35,2.35,0,1,1,2.35-2.34A2.35,2.35,0,0,1,18.5,43.81Z"/></g></g></svg>