<svg xmlns="http://www.w3.org/2000/svg" xmlns:xlink="http://www.w3.org/1999/xlink" width="75" height="75" viewBox="0 0 75 75"><defs><linearGradient id="linear-gradient" x1="301.24" y1="678.32" x2="151.24" y2="678.32" gradientTransform="matrix(-0.71, 0.71, 0.71, 0.71, -282.16, -602.12)" gradientUnits="userSpaceOnUse"><stop offset="0" stop-color="#055f4e"/><stop offset="1" stop-color="#56c0a7"/></linearGradient></defs><title>AWS-CloudEndure-Migration</title><g id="Working"><rect id="Turquoise_Gradient" data-name="Turquoise Gradient" width="75" height="75" style="fill:url(#linear-gradient)"/><rect width="75" height="75" style="fill:none"/><path id="_64x" data-name="64x" d="M50,36.42,31.73,55.69l-1.46-1.38L48.59,35H39V33H52V46H50ZM33,46h2V37H26v2h5.69L18.27,53.32l1.46,1.36L33,40.53ZM57.57,29.89c-.44-3.78-2.43-6.52-5.39-7.38A6.61,6.61,0,0,0,46,23.86a17.14,17.14,0,0,0-3.55-5.28,15.08,15.08,0,0,0-17-3.39c-5.13,2.18-9,8.17-9,14,0,.34,0,.69,0,1a10.49,10.49,0,0,0-7.59,10.6c0,.38,0,.75,0,1.1.43,5.51,3.06,9.13,7.22,10l.39-2c-4.4-.87-5.41-5.47-5.62-8.14,0-.31,0-.62,0-.95a8.6,8.6,0,0,1,6.86-8.89,1,1,0,0,0,.8-1,.76.76,0,0,0,0-.15,14.35,14.35,0,0,1-.09-1.61c0-4.94,3.41-10.26,7.77-12.1A13.06,13.06,0,0,1,41,20a16,16,0,0,1,3.67,6,1,1,0,0,0,1.75.26,4.74,4.74,0,0,1,5.16-1.86c2.27.66,3.76,2.95,4,6.14h0a1,1,0,0,0,.82,1.14c2.48.42,8.23,2.16,8.23,9.15,0,8.33-8.05,9.11-8.31,9.14H43v2H56.44c.1,0,10.23-1,10.23-11.14C66.67,32.94,60.46,30.57,57.57,29.89Z" style="fill:#fff"/></g></svg>