<svg xmlns="http://www.w3.org/2000/svg" viewBox="0 0 75 75"><defs><style>.cls-1{fill:#3f8624;}.cls-2{fill:#fff;}</style></defs><title>Amazon-FreeRTOS_light-bg</title><g id="Reference"><rect id="Green_Light_BG" data-name="Green Light BG" class="cls-1" width="75" height="75"/><path class="cls-2" d="M62.5,23.5v-2h-4v-3a1,1,0,0,0-1-1h-40a1,1,0,0,0-1,1v3h-4v2h4v3h-4v2h4v3h-4v2h4v3h-4v2h4v3h-4v2h4v3h-4v2h4v3h-4v2h4v3a1,1,0,0,0,1,1h40a1,1,0,0,0,1-1v-3h4v-2h-4v-3h4v-2h-4v-3h4v-2h-4v-3h4v-2h-4v-3h4v-2h-4v-3h4v-2h-4v-3Zm-6,32h-38v-36h38Z"/><path class="cls-2" d="M48.61,33.39a11.71,11.71,0,0,0-7-7.1,4.12,4.12,0,0,0-8.22,0,11.78,11.78,0,0,0-7,7.11,4.13,4.13,0,0,0,.12,8.23,11.41,11.41,0,0,0,1.73,3l.22.27a11.55,11.55,0,0,0,4,3.1V52.5h2V48.74a11,11,0,0,0,2,.36v3.4h2V49.1a11,11,0,0,0,2-.35V52.5h2V48a11.91,11.91,0,0,0,6-6.4,4.13,4.13,0,0,0,.12-8.23ZM27.1,39.6a2.22,2.22,0,0,1-.37,0,2.13,2.13,0,0,1,0-4.26,1.75,1.75,0,0,1,.4,0,2.13,2.13,0,0,1,0,4.19Zm5.4,6.16A9.52,9.52,0,0,1,30,43.62s-.08-.09-.15-.19a9.49,9.49,0,0,1-1.33-2.2,4.1,4.1,0,0,0,2.22-2.73H32.5Zm4,1.33a9.15,9.15,0,0,1-2-.43V37.5a1,1,0,0,0-1-1H30.73a4.1,4.1,0,0,0-2.33-2.78,9.76,9.76,0,0,1,5.33-5.41,4.11,4.11,0,0,0,2.77,2.31Zm1-18.34A2.14,2.14,0,0,1,35.41,27a1.84,1.84,0,0,1,0-.41,2.13,2.13,0,0,1,4.26,0,1.84,1.84,0,0,1,0,.33A2.12,2.12,0,0,1,37.5,28.75Zm4,7.75a1,1,0,0,0-1,1v9.16a9,9,0,0,1-2,.43V30.62a4.13,4.13,0,0,0,2.78-2.32,9.76,9.76,0,0,1,5.32,5.42,4.1,4.1,0,0,0-2.33,2.78Zm1,9.26V38.5h1.77a4.09,4.09,0,0,0,2.23,2.73A10,10,0,0,1,42.5,45.76Zm5.83-6.13h-.06a2.13,2.13,0,1,1,0-4.26h0a2.13,2.13,0,0,1,0,4.26Z"/></g></svg>