<svg xmlns="http://www.w3.org/2000/svg" viewBox="0 0 75 75"><defs><style>.cls-1{fill:#3f8624;}.cls-2{fill:#fff;}</style></defs><title>AWS-IoT-Core_light-bg</title><g id="Reference"><rect id="Green_Light_BG" data-name="Green Light BG" class="cls-1" width="75" height="75"/><g id="Product_Icon" data-name="Product Icon"><path class="cls-2" d="M23,46.29h-.14a10.36,10.36,0,0,1-3.87-19.95,13.38,13.38,0,0,1,25.39-5.26A6.72,6.72,0,0,1,54.6,26.34a9.67,9.67,0,0,1,7.9,9.54,9.11,9.11,0,0,1-3,6.82l-1.37-1.46a7.12,7.12,0,0,0,2.37-5.32,7.7,7.7,0,0,0-7-7.72,1,1,0,0,1-.91-1.05V27a1.27,1.27,0,0,0,0-.2,4.75,4.75,0,0,0-4.73-4.76,4.68,4.68,0,0,0-3.26,1.32,1,1,0,0,1-.92.26A1,1,0,0,1,43,23a11.39,11.39,0,0,0-22.07,4,1,1,0,0,1-.68.95,8.36,8.36,0,0,0,2.57,16.3H23Z"/><path class="cls-2" d="M52.89,41.06a12.14,12.14,0,0,0-7.32-7.48,4.25,4.25,0,0,0-8.47,0,12.19,12.19,0,0,0-7.32,7.48A4.24,4.24,0,0,0,30,49.53a12.33,12.33,0,0,0,6.53,6.76v5.14h2V57a11.11,11.11,0,0,0,2,.31v4.17h2V57.24a11.26,11.26,0,0,0,2-.38v4.57h2V56.14a12.25,12.25,0,0,0,6.21-6.61,4.24,4.24,0,0,0,.18-8.47ZM30.14,47.54a2.25,2.25,0,1,1,2.25-2.25A2.25,2.25,0,0,1,30.14,47.54Zm6.36,6.53A10.44,10.44,0,0,1,32,49.13a4.2,4.2,0,0,0,2.28-2.72H36.5Zm4,1.19a10.37,10.37,0,0,1-2-.37V45.42a1,1,0,0,0-1-1H34.3a4.23,4.23,0,0,0-2.51-3,10.16,10.16,0,0,1,5.65-5.78,4.23,4.23,0,0,0,3.06,2.47Zm.84-19.1a2.25,2.25,0,1,1,2.25-2.25A2.25,2.25,0,0,1,41.34,36.16Zm4.19,8.27a1,1,0,0,0-1,1v9.36a10.7,10.7,0,0,1-2,.44V38a4.2,4.2,0,0,0,2.73-2.39,10.11,10.11,0,0,1,5.65,5.78,4.25,4.25,0,0,0-2.51,3Zm1,9.46V46.43h1.94a4.23,4.23,0,0,0,2.29,2.7A10.45,10.45,0,0,1,46.5,53.89Zm6-6.35a2.25,2.25,0,1,1,2.25-2.25A2.26,2.26,0,0,1,52.54,47.54Z"/></g></g></svg>