<svg xmlns="http://www.w3.org/2000/svg" viewBox="0 0 75 75"><defs><style>.cls-1{fill:#3f8624;}.cls-2{fill:#fff;}</style></defs><title>AWS-IoT-Device-Defender_light-bg</title><g id="Reference"><rect id="Green_Light_BG" data-name="Green Light BG" class="cls-1" width="75" height="75"/><g id="Product_Icon" data-name="Product Icon"><path class="cls-2" d="M57.54,17.51c-11.53-.09-18.65-2.9-19-4a1,1,0,0,0-1-1,1,1,0,0,0-1,.88.22.22,0,0,0,0,.11c-.41,1.14-7.53,3.93-19,4a1,1,0,0,0-1,1V33.86a8.22,8.22,0,0,1,2-1.23V19.49c8-.18,16.22-1.79,19-4.19,2.79,2.4,11,4,19,4.19V32.65a7.92,7.92,0,0,1,2,1.25V18.51A1,1,0,0,0,57.54,17.51Z"/><path class="cls-2" d="M47.71,39.5a5.58,5.58,0,0,0,5.56,5.1,5.45,5.45,0,0,0,3.25-1.06,5.51,5.51,0,0,0,2-2.65,5.31,5.31,0,0,0,0-3.74,5.56,5.56,0,0,0-2-2.65,5.45,5.45,0,0,0-3.25-1.06,5.62,5.62,0,0,0-5.38,4.06H42.52a1,1,0,0,0-1,1V58.38l-3,1.5V30.56a5.57,5.57,0,1,0-2,0V59.88l-3-1.5V38.5a1,1,0,0,0-1-1H27.1a5.58,5.58,0,0,0-8.58-3,5.55,5.55,0,0,0-2,2.55,5.51,5.51,0,0,0,0,4,5.63,5.63,0,0,0,2,2.56,5.57,5.57,0,0,0,8.75-4.09h4.25V57.38L21.4,52.32a5.17,5.17,0,0,1-2.88-4.65V46.44a8,8,0,0,1-2-1.24v2.47a7.17,7.17,0,0,0,4,6.43l16.57,8.29a1,1,0,0,0,.45.11,1.07,1.07,0,0,0,.46-.11L54.55,54.1a7.16,7.16,0,0,0,4-6.43V45.16a8,8,0,0,1-2,1.26v1.25a5.15,5.15,0,0,1-2.88,4.65L43.52,57.38V39.5Zm5.56-4.06a3.59,3.59,0,0,1,3.25,2.09,3.43,3.43,0,0,1,0,3A3.58,3.58,0,0,1,49.68,39,3.6,3.6,0,0,1,53.27,35.44ZM21.73,42.6a3.57,3.57,0,0,1-3.21-2,3.56,3.56,0,0,1,0-3.2,3.58,3.58,0,1,1,3.21,5.18ZM37.49,28.66a3.58,3.58,0,1,1,3.58-3.58A3.57,3.57,0,0,1,37.49,28.66Z"/></g></g></svg>