<svg xmlns="http://www.w3.org/2000/svg" viewBox="0 0 75 75"><defs><style>.cls-1{fill:#3f8624;}.cls-2{fill:#fff;}</style></defs><title>AWS-IoT-Analytics_light-bg</title><g id="Reference"><rect id="Green_Light_BG" data-name="Green Light BG" class="cls-1" width="75" height="75"/><g id="Product_Icon" data-name="Product Icon"><path class="cls-2" d="M57,32.72a5.49,5.49,0,0,0-1.58.23,22,22,0,0,0-4.5-7.49l.26-.26a5.51,5.51,0,1,0-1.42-1.42l-.26.26A21.9,21.9,0,0,0,42,19.56a5.27,5.27,0,0,0,.2-1.44,5.5,5.5,0,0,0-11,0c0,.14,0,.28,0,.41A22,22,0,0,0,15.47,51.3a5.5,5.5,0,0,0,7.68,7.87,22,22,0,0,0,27-3.25,22.14,22.14,0,0,0,6.2-12.23,5.44,5.44,0,0,0,.57,0,5.5,5.5,0,1,0,0-11ZM54.25,17.17a3.5,3.5,0,1,1-3.5,3.5A3.5,3.5,0,0,1,54.25,17.17Zm-.67,16.72a5.47,5.47,0,0,0-2.12,4.33,5.17,5.17,0,0,0,.13,1.19L24.54,53.29a4.64,4.64,0,0,0-.49-1L49.46,26.88A19.68,19.68,0,0,1,53.58,33.89ZM41.14,21.38A19.66,19.66,0,0,1,48,25.46L22.7,50.8a4.61,4.61,0,0,0-1-.6L35.44,23.47a5.4,5.4,0,0,0,1.28.15A5.48,5.48,0,0,0,41.14,21.38Zm-4.42-6.76a3.5,3.5,0,1,1-3.5,3.5A3.5,3.5,0,0,1,36.72,14.62ZM14.54,40.32A20.06,20.06,0,0,1,31.76,20.48a5.48,5.48,0,0,0,1.85,2.17l-13.87,27a2.17,2.17,0,0,0-.36,0,5.32,5.32,0,0,0-2.25.49A19.87,19.87,0,0,1,14.54,40.32Zm4.84,18.35a3.5,3.5,0,1,1,3.5-3.5A3.5,3.5,0,0,1,19.38,58.67ZM48.77,54.5a20,20,0,0,1-24.44,3,5.2,5.2,0,0,0,.54-2.18L52.38,41.26a5.45,5.45,0,0,0,2.08,1.85A20,20,0,0,1,48.77,54.5ZM57,41.72a3.5,3.5,0,1,1,3.5-3.5A3.5,3.5,0,0,1,57,41.72Z"/></g></g></svg>