<svg xmlns="http://www.w3.org/2000/svg" viewBox="0 0 75 75"><defs><style>.cls-1{fill:#3f8624;}.cls-2{fill:#fff;}.cls-3{fill:none;stroke:#fff;stroke-linejoin:round;stroke-width:2px;}</style></defs><title>AWS-IoT-Things-Graph_light-bg</title><g id="Reference"><rect id="Green_Light_BG" data-name="Green Light BG" class="cls-1" width="75" height="75"/><g id="Product_Icon" data-name="Product Icon"><path class="cls-2" d="M17.94,46.69a21.41,21.41,0,0,1-3.2-12.18l2,.08a19.37,19.37,0,0,0,2.9,11Z"/><path class="cls-2" d="M43.85,55.53l-.71-1.87a19.44,19.44,0,0,0,10.69-9.73l1.8.87A21.41,21.41,0,0,1,43.85,55.53Z"/><path class="cls-2" d="M54.2,27.6q-.23-.53-.48-1a19.6,19.6,0,0,0-24.34-9.51l-.7-1.87A21.58,21.58,0,0,1,55.5,25.68c.19.37.37.74.53,1.12Z"/><path class="cls-2" d="M30.79,30.14H27.64v-2h2.15V20.05H27.64v-2h3.15a1,1,0,0,1,1,1V29.14A1,1,0,0,1,30.79,30.14Z"/><rect class="cls-2" x="30.79" y="23.1" width="3.15" height="2"/><rect class="cls-2" x="38.07" y="22.8" width="3.15" height="2"/><path class="cls-2" d="M45.69,28.47H41.55a1,1,0,0,1-1-1V20.12a1,1,0,0,1,1-1h4.14a1,1,0,0,1,1,1v7.35A1,1,0,0,1,45.69,28.47Zm-3.14-2h2.14V21.12H42.55Z"/><path class="cls-2" d="M38.07,28.47H33.94a1,1,0,0,1-1-1V20.12a1,1,0,0,1,1-1h4.13a1,1,0,0,1,1,1v7.35A1,1,0,0,1,38.07,28.47Zm-3.13-2h2.13V21.12H34.94Z"/><rect class="cls-2" x="20.35" y="28.14" width="3.15" height="2"/><path class="cls-2" d="M19.73,33.82H15.59a1,1,0,0,1-1-1V25.46a1,1,0,0,1,1-1h4.14a1,1,0,0,1,1,1v7.36A1,1,0,0,1,19.73,33.82Zm-3.14-2h2.14V26.46H16.59Z"/><path class="cls-2" d="M27.64,23.18H23.5a1,1,0,0,1-1-1V14.83a1,1,0,0,1,1-1h4.14a1,1,0,0,1,1,1v7.35A1,1,0,0,1,27.64,23.18Zm-3.14-2h2.14V15.83H24.5Z"/><path class="cls-2" d="M27.64,33.82H23.5a1,1,0,0,1-1-1V25.46a1,1,0,0,1,1-1h4.14a1,1,0,0,1,1,1v7.36A1,1,0,0,1,27.64,33.82Zm-3.14-2h2.14V26.46H24.5Z"/><path class="cls-3" d="M18.28,48.41l.09.79.08.8.09.79,4,.56a9.48,9.48,0,0,0,1.37,2.5L22.2,57.51l.63.5.62.5.62.5,3.22-2.43a9.06,9.06,0,0,0,2.73.8l1.39,3.79.8-.09L33,61l.8-.09.55-4a9.15,9.15,0,0,0,2.5-1.35l3.66,1.69.5-.62.51-.63.5-.62-2.43-3.21a9.53,9.53,0,0,0,.81-2.74L44.17,48l-.08-.79-.09-.8-.08-.79-4-.56a9.17,9.17,0,0,0-1.37-2.52l1.68-3.64-.62-.5-.62-.5-.62-.5-3.2,2.41A9,9,0,0,0,32.43,39l-1.38-3.76-.8.08-.79.09-.8.09-.55,4a9.26,9.26,0,0,0-2.53,1.38L22,39.2l-.51.62-.5.62-.5.63,2.42,3.2A9.2,9.2,0,0,0,22.05,47Z"/><path class="cls-2" d="M31.22,54.38a6.16,6.16,0,0,1-5-9.7,6.16,6.16,0,0,1,8.58-1.49,6.16,6.16,0,0,1-2.48,11.1A6.53,6.53,0,0,1,31.22,54.38Zm0-10.31a4.16,4.16,0,1,0,3.4,6.54h0a4.07,4.07,0,0,0,.69-3.1,4.13,4.13,0,0,0-4.09-3.44Z"/><path class="cls-3" d="M49.1,41.85l.41.21.41.21.41.21,1.53-1.74a5.42,5.42,0,0,0,1.65.13l1.23,2,.44-.14.44-.14.43-.14-.15-2.33A5.46,5.46,0,0,0,57.15,39l2.27.53.21-.42.21-.41.21-.41L58.3,36.79a5.36,5.36,0,0,0,.13-1.64l2-1.23-.14-.44L60.12,33,60,32.6l-2.32.16A5.3,5.3,0,0,0,56.6,31.5l.52-2.26L56.71,29l-.41-.21-.41-.21-1.53,1.74a5.1,5.1,0,0,0-1.65-.13l-1.22-2-.44.14-.44.14-.44.15.15,2.3a5.19,5.19,0,0,0-1.26,1.08l-2.25-.52-.22.41-.21.41-.21.41,1.74,1.52A5.48,5.48,0,0,0,47.78,36l-2,1.22.14.44.14.44.14.44,2.31-.15a5.6,5.6,0,0,0,1.08,1.26Z"/><path class="cls-2" d="M53.11,39.53a4,4,0,0,1-1.47-7.68,4,4,0,0,1,5.12,5.27,3.91,3.91,0,0,1-2.18,2.12A4,4,0,0,1,53.11,39.53Zm0-6a1.89,1.89,0,0,0-.73.14,2,2,0,0,0-1.08,1,2,2,0,0,0,0,1.52,2,2,0,0,0,1.06,1.08,1.93,1.93,0,0,0,1.51,0A2,2,0,0,0,55,34.82a2,2,0,0,0-1.84-1.25Z"/></g></g></svg>