<svg xmlns="http://www.w3.org/2000/svg" viewBox="0 0 75 75"><defs><style>.cls-1{fill:#3f8624;}.cls-2{fill:#fff;}</style></defs><title>AWS-IoT-Events_light-bg</title><g id="Reference"><rect id="Green_Light_BG" data-name="Green Light BG" class="cls-1" width="75" height="75"/><g id="Product_Icon" data-name="Product Icon"><path class="cls-2" d="M45.38,52.2a15.89,15.89,0,0,1-14.15-8.66L33,42.63a13.9,13.9,0,0,0,20.84,4.69l1.22,1.58a15.79,15.79,0,0,1-8.69,3.27Z"/><path class="cls-2" d="M32.17,32l-1.9-.62A15.81,15.81,0,0,1,44.39,20.45l.13,2A13.81,13.81,0,0,0,32.17,32Z"/><path class="cls-2" d="M35.82,35.25l-2-.27a11.85,11.85,0,0,1,23.28-1l-1.95.45a9.85,9.85,0,0,0-19.35.86Z"/><path class="cls-2" d="M45.45,48.45A11.89,11.89,0,0,1,34,39.71l1.93-.52a9.88,9.88,0,0,0,10.12,7.24l.12,2Z"/><path class="cls-2" d="M25.32,57.27a4.17,4.17,0,1,1,4.16-4.17A4.17,4.17,0,0,1,25.32,57.27Zm0-6.33a2.17,2.17,0,1,0,2.16,2.16A2.17,2.17,0,0,0,25.32,50.94Z"/><path class="cls-2" d="M25.32,26.06a4.17,4.17,0,1,1,4.16-4.16A4.17,4.17,0,0,1,25.32,26.06Zm0-6.33a2.17,2.17,0,1,0,2.16,2.17A2.17,2.17,0,0,0,25.32,19.73Z"/><path class="cls-2" d="M17.66,41.76a4.17,4.17,0,1,1,4.17-4.17A4.17,4.17,0,0,1,17.66,41.76Zm0-6.33a2.17,2.17,0,1,0,2.17,2.16A2.16,2.16,0,0,0,17.66,35.43Z"/><rect class="cls-2" x="26.37" y="46.29" width="7.82" height="2" transform="translate(-24.91 36.94) rotate(-46.74)"/><rect class="cls-2" x="28.52" y="23.09" width="2" height="7.04" transform="translate(-10.17 28.65) rotate(-44.97)"/><rect class="cls-2" x="21.13" y="36.59" width="17.26" height="2"/><path class="cls-2" d="M45.62,45.31l-.47,0a8.19,8.19,0,1,1,8.4-10.22l-1.93.5a6.21,6.21,0,1,0-.23,3.78l1.87.72A8.17,8.17,0,0,1,45.62,45.31Z"/><rect class="cls-2" x="49.05" y="36.6" width="12.45" height="2"/><path class="cls-2" d="M58.47,45.32l-1.64-1.14A13.76,13.76,0,0,0,59,39.24l2,.42A15.78,15.78,0,0,1,58.47,45.32Z"/><path class="cls-2" d="M59.25,35.44a14.14,14.14,0,0,0-1-4.33l1.85-.75a15.5,15.5,0,0,1,1.12,5Z"/></g></g></svg>