<svg xmlns="http://www.w3.org/2000/svg" viewBox="0 0 50 50"><defs><style>.cls-1{fill:#3f8624;}</style></defs><title>AWS-IoT-Analytics_Pipeline_light-bg</title><g id="Working"><path class="cls-1" d="M46.93,12.28H39.07a1.57,1.57,0,0,0-1.57,1.57v2.23h-25V13.85a1.57,1.57,0,0,0-1.57-1.57H3.07A1.57,1.57,0,0,0,1.5,13.85v22.3a1.57,1.57,0,0,0,1.57,1.57h7.86a1.57,1.57,0,0,0,1.57-1.57V33.92h25v2.23a1.57,1.57,0,0,0,1.57,1.57h7.86a1.57,1.57,0,0,0,1.57-1.57V13.85A1.57,1.57,0,0,0,46.93,12.28ZM10.5,35.72h-7V14.28h7V35.72Zm2-3.8V18.08h25V31.92Zm34,3.8h-7V14.28h7Z"/><rect class="cls-1" x="23.88" y="19.67" width="6.92" height="2"/><rect class="cls-1" x="32.31" y="19.67" width="3.27" height="2"/></g></svg>