<svg xmlns="http://www.w3.org/2000/svg" viewBox="0 0 50 50"><defs><style>.cls-1{fill:#3f8624;}</style></defs><title>AWS-IoT-Analytics_Data-Set_light-bg</title><g id="Working"><path class="cls-1" d="M35.3,3V41H7.7V3H35.3m2-2H5.7V43H37.3V1Z"/><rect class="cls-1" x="30.16" y="7.75" width="2.51" height="2"/><rect class="cls-1" x="10.32" y="7.75" width="18.05" height="2"/><rect class="cls-1" x="20.37" y="14.38" width="12.31" height="2"/><rect class="cls-1" x="14.66" y="14.38" width="4.18" height="2"/><rect class="cls-1" x="10.32" y="14.38" width="2.26" height="2"/><rect class="cls-1" x="19.35" y="21" width="13.33" height="2"/><rect class="cls-1" x="10.32" y="21" width="7.25" height="2"/><rect class="cls-1" x="10.32" y="27.62" width="22.35" height="2"/><rect class="cls-1" x="28.75" y="34.25" width="3.93" height="2"/><rect class="cls-1" x="10.32" y="34.25" width="16.2" height="2"/><polygon class="cls-1" points="44.3 49.04 10.71 49.04 10.71 45.04 12.71 45.04 12.71 47.04 42.3 47.04 42.3 6.96 39.3 6.96 39.3 4.96 44.3 4.96 44.3 49.04"/></g></svg>