<svg xmlns="http://www.w3.org/2000/svg" viewBox="0 0 50 50"><defs><style>.cls-1{fill:#3f8624;}</style></defs><title>AWS-IoT-Greengrass_Connector_light-bg</title><g id="Working"><path class="cls-1" d="M21.2,16.79a1,1,0,0,0-1-1H14.53A9.22,9.22,0,0,0,5.37,24H0v2H5.37a9.22,9.22,0,0,0,9.16,8.21H20.2a1,1,0,0,0,1-1v-4.5H26v-2H21.2V23.29H26v-2H21.2Zm-2,15.42H14.53a7.21,7.21,0,0,1,0-14.42H19.2Z"/><path class="cls-1" d="M50,24H44.63a9.23,9.23,0,0,0-9.16-8.21H29.8a1,1,0,0,0-1,1V33.21a1,1,0,0,0,1,1h5.67A9.23,9.23,0,0,0,44.63,26H50ZM35.47,32.21H30.8V17.79h4.67a7.21,7.21,0,0,1,0,14.42Z"/></g></svg>