<svg xmlns="http://www.w3.org/2000/svg" viewBox="0 0 50 50"><defs><style>.cls-1{fill:#3f8624;}</style></defs><title>AWS-IoT-Analytics_Data-Store_light-bg</title><g id="Working"><path class="cls-1" d="M25,1.71c-8,0-16,2-16,5.68V42.61c0,3.73,8.07,5.68,16,5.68s16-1.95,16-5.68V7.39C41,3.66,33,1.71,25,1.71Zm0,2c8.44,0,14,2.22,14,3.68s-5.6,3.69-14,3.69S11,8.86,11,7.39,16.56,3.71,25,3.71Zm0,42.58c-8.44,0-14-2.22-14-3.68V33.76c2.89,1.84,8.48,2.8,14,2.8s11.15-1,14-2.8v8.85C39,44.07,33.44,46.29,25,46.29Zm0-11.73c-8.44,0-14-2.22-14-3.69V22c2.89,1.84,8.48,2.8,14,2.8s11.15-1,14-2.8v8.85C39,32.34,33.44,34.56,25,34.56Zm0-11.74c-9.22,0-14-2.4-14-3.69V10.29c2.89,1.84,8.48,2.79,14,2.79s11.15-.95,14-2.79v8.84C39,20.42,34.22,22.82,25,22.82Z"/><rect class="cls-1" x="13.6" y="15.85" width="2.37" height="2"/><rect class="cls-1" x="13.6" y="27.59" width="2.37" height="2"/><rect class="cls-1" x="13.6" y="39.33" width="2.37" height="2"/><rect class="cls-1" x="17.12" y="15.85" width="4.18" height="2"/><rect class="cls-1" x="17.12" y="27.59" width="4.18" height="2"/><rect class="cls-1" x="17.12" y="39.33" width="4.18" height="2"/></g></svg>