<svg xmlns="http://www.w3.org/2000/svg" viewBox="0 0 75 75"><defs><style>.cls-1{fill:#3f8624;}.cls-2{fill:#fff;}</style></defs><title>AWS-IoT-Button_light-bg</title><g id="Reference"><rect id="Green_Light_BG" data-name="Green Light BG" class="cls-1" width="75" height="75"/><g id="Product_Icon" data-name="Product Icon"><path class="cls-2" d="M61.38,62.5h-10v-2h9v-9h2v10A1,1,0,0,1,61.38,62.5Z"/><path class="cls-2" d="M23.38,62.5h-10a1,1,0,0,1-1-1v-10h2v9h9Z"/><path class="cls-2" d="M62.38,23.5h-2v-9h-9v-2h10a1,1,0,0,1,1,1Z"/><path class="cls-2" d="M14.38,23.5h-2v-10a1,1,0,0,1,1-1h10v2h-9Z"/><path class="cls-2" d="M52.62,49.5H22.29a12,12,0,0,1,0-24H52.71a12,12,0,0,1,0,24Zm-30.15-2H52.62a10,10,0,1,0,0-20H22.38a10,10,0,0,0,0,20Z"/><path class="cls-2" d="M52.45,45.5a8,8,0,1,1,8-8A8,8,0,0,1,52.45,45.5Zm0-14a6,6,0,1,0,6,6A6,6,0,0,0,52.45,31.5Z"/><path class="cls-2" d="M38.88,39.5a2.5,2.5,0,1,1,2.5-2.5A2.5,2.5,0,0,1,38.88,39.5Z"/></g></g></svg>