<svg xmlns="http://www.w3.org/2000/svg" xmlns:xlink="http://www.w3.org/1999/xlink" viewBox="0 0 75 75"><defs><style>.cls-1{fill:url(#GreenGradient);}.cls-2{fill:#fff;}</style><linearGradient id="GreenGradient" x1="-617.54" y1="370.47" x2="-511.47" y2="476.54" gradientTransform="translate(-386 -527) rotate(-90)" gradientUnits="userSpaceOnUse"><stop offset="0" stop-color="#1b660f"/><stop offset="1" stop-color="#6cae3e"/></linearGradient></defs><title>AWS-IoT-Device-Management_light-bg</title><g id="Reference"><rect id="Green_Gradient" data-name="Green Gradient" class="cls-1" width="75" height="75"/><g id="Icon_Test" data-name="Icon Test"><path class="cls-2" d="M60,23.93,38,11.22a1,1,0,0,0-1,0L15,23.93a1,1,0,0,0-.5.86V50.2a1,1,0,0,0,.5.86l22,12.7a1,1,0,0,0,1,0l22-12.7a1,1,0,0,0,.5-.86V24.79A1,1,0,0,0,60,23.93ZM58.5,49.62l-21,12.12-21-12.12V25.37l21-12.12,21,12.12Z"/><path class="cls-2" d="M49.15,30.57a11.67,11.67,0,0,0-23.3,0A11.66,11.66,0,0,0,37.5,50.75,11.66,11.66,0,0,0,49.15,30.57Zm-8.52,10a2.2,2.2,0,1,1,2.2,2.2A2.2,2.2,0,0,1,40.63,40.57Zm-2,.35a8.85,8.85,0,0,1-2.3,0,2.06,2.06,0,0,0,0-.35,4.2,4.2,0,0,0-2.49-3.83,9.06,9.06,0,0,1,1.21-2.14,4.2,4.2,0,0,0,4.82,0,9.06,9.06,0,0,1,1.21,2.14,4.2,4.2,0,0,0-2.49,3.83A2.06,2.06,0,0,0,38.65,40.92Zm-4.28-.35a2.2,2.2,0,1,1-2.2-2.2A2.21,2.21,0,0,1,34.37,40.57Zm.93-9.41a2.2,2.2,0,1,1,2.2,2.2A2.21,2.21,0,0,1,35.3,31.16Zm7.83,5.22a11.84,11.84,0,0,0-1.89-3.33,4,4,0,0,0,.46-1.89c0-.13,0-.25,0-.38a9.75,9.75,0,0,1,5.48.95,9.56,9.56,0,0,1-1.94,5.39A4.21,4.21,0,0,0,43.13,36.38ZM37.5,21.64A9.72,9.72,0,0,1,47,29.48a11.81,11.81,0,0,0-6-.63,4.2,4.2,0,0,0-7,0,11.79,11.79,0,0,0-6,.63A9.72,9.72,0,0,1,37.5,21.64Zm-4.18,9.14c0,.13,0,.25,0,.38a4,4,0,0,0,.46,1.89,11.84,11.84,0,0,0-1.89,3.33,4.21,4.21,0,0,0-2.09.74,9.56,9.56,0,0,1-1.94-5.39A9.75,9.75,0,0,1,33.32,30.78ZM32.17,50A9.67,9.67,0,0,1,26,33a11.57,11.57,0,0,0,2.49,5.68A4.13,4.13,0,0,0,28,40.57,4.2,4.2,0,0,0,32,44.76a11.53,11.53,0,0,0,3.47,4.69A9.65,9.65,0,0,1,32.17,50ZM34,44.33a4.19,4.19,0,0,0,1.67-1.48,11,11,0,0,0,3.62,0A4.19,4.19,0,0,0,41,44.33a9.48,9.48,0,0,1-3.48,4.1A9.48,9.48,0,0,1,34,44.33ZM42.83,50a9.65,9.65,0,0,1-3.33-.59A11.53,11.53,0,0,0,43,44.76,4.2,4.2,0,0,0,47,40.57a4.13,4.13,0,0,0-.47-1.92A11.57,11.57,0,0,0,49.05,33,9.67,9.67,0,0,1,42.83,50Z"/></g></g></svg>