<svg xmlns="http://www.w3.org/2000/svg" viewBox="0 0 50 50"><defs><style>.cls-1{fill:#3f8624;}</style></defs><title>AWS-IoT-Analytics_Notebook_light-bg</title><g id="Working"><path class="cls-1" d="M8.25,2.31V7.73H5.08v2H8.25v3.43H5.08v2H8.25v3.42H5.08v2H8.25V24H5.08v2H8.25v3.42H5.08v2H8.25v3.42H5.08v2H8.25v3.43H5.08v2H8.25v5.42H44.92V2.31ZM42.92,45.69H10.25V42.27h3.17v-2H10.25V36.84h3.17v-2H10.25V31.42h3.17v-2H10.25V26h3.17V24H10.25V20.58h3.17v-2H10.25V15.16h3.17v-2H10.25V9.73h3.17v-2H10.25V4.31H42.92Z"/><rect class="cls-1" x="17.44" y="14.3" width="20.2" height="2"/><rect class="cls-1" x="17.44" y="27.43" width="10.1" height="2"/><rect class="cls-1" x="17.44" y="7.73" width="20.2" height="2"/><rect class="cls-1" x="17.44" y="20.87" width="20.2" height="2"/></g></svg>