<svg xmlns="http://www.w3.org/2000/svg" xmlns:xlink="http://www.w3.org/1999/xlink" viewBox="0 0 75 75"><defs><style>.cls-1{fill:url(#GreenGradient);}.cls-2{fill:#fff;}</style><linearGradient id="GreenGradient" x1="-15.53" y1="90.53" x2="90.53" y2="-15.53" gradientTransform="translate(0 0)" gradientUnits="userSpaceOnUse"><stop offset="0" stop-color="#1b660f"/><stop offset="1" stop-color="#6cae3e"/></linearGradient></defs><title>AWS-IoT-1-Click</title><g id="Reference"><rect id="Green_Gradient" data-name="Green Gradient" class="cls-1" width="75" height="75"/><g id="Icon_Test" data-name="Icon Test"><path class="cls-2" d="M36.22,62.38a4.5,4.5,0,0,1,0-9l1.46-6H26.41a7,7,0,0,1-.93-.06L20.78,52a4.5,4.5,0,1,1-1.41-1.42l3.88-3.87a7.07,7.07,0,0,1-4.28-6c0-.16,0-.32,0-.49a6.81,6.81,0,0,1,4.75-6.72c0-.11,0-.22,0-.34a9.63,9.63,0,0,1,1.66-5.23L21.5,23a5.42,5.42,0,0,1-2.56.63,5.5,5.5,0,1,1,4.13-1.87l3.59,4.56a9,9,0,0,1,2.92-2,10,10,0,0,1,11.06,2.13,10.59,10.59,0,0,1,2.12,2.91A4.54,4.54,0,0,1,46,28.61l3.26-6.54a5,5,0,1,1,3.08,1.05A5,5,0,0,1,51.09,23l-3.18,6.38a5.59,5.59,0,0,1,2.28,3.95c3.73,1,5.77,3.43,5.77,7A6.47,6.47,0,0,1,52.6,46.4L55.92,51a4.54,4.54,0,1,1-1.51,1.32l-3.75-5.19a10.18,10.18,0,0,1-2.26.26H39.72l-1.56,6.44a4.5,4.5,0,0,1-1.94,8.56Zm0-7a2.5,2.5,0,1,0,2.5,2.5A2.5,2.5,0,0,0,36.22,55.38ZM58,52.46a2.5,2.5,0,1,0,2.5,2.5A2.5,2.5,0,0,0,58,52.46ZM17,51.88a2.5,2.5,0,1,0,2.5,2.5A2.5,2.5,0,0,0,17,51.88ZM25,35.2a4.88,4.88,0,0,0-4,5c0,.13,0,.26,0,.38a5.3,5.3,0,0,0,5.44,4.8h22c1.67,0,5.56-.5,5.56-5.13,0-2.78-1.64-4.52-4.88-5.17a1,1,0,0,1-.8-.92c-.11-1.83-.91-3.1-2.18-3.49a2.67,2.67,0,0,0-2.91,1,1,1,0,0,1-.94.38,1,1,0,0,1-.79-.64,9.16,9.16,0,0,0-2.21-3.51A7.88,7.88,0,0,0,25.7,33.14a7.46,7.46,0,0,0,.06,1A1,1,0,0,1,25,35.2Zm-6-20.58a3.5,3.5,0,1,0,3.5,3.5A3.51,3.51,0,0,0,18.94,14.62Zm33.44.5a3,3,0,1,0,3,3A3,3,0,0,0,52.38,15.12Z"/></g></g></svg>