<svg xmlns="http://www.w3.org/2000/svg" xmlns:xlink="http://www.w3.org/1999/xlink" viewBox="0 0 75 75"><defs><style>.cls-1{fill:url(#GreenGradient);}.cls-2{fill:#fff;}</style><linearGradient id="GreenGradient" x1="179.53" y1="153.53" x2="73.47" y2="47.47" gradientTransform="translate(138 -89) rotate(90)" gradientUnits="userSpaceOnUse"><stop offset="0" stop-color="#1b660f"/><stop offset="1" stop-color="#6cae3e"/></linearGradient></defs><title>AWS-IoT-Button</title><g id="Reference"><rect id="Green_Gradient" data-name="Green Gradient" class="cls-1" width="75" height="75"/><g id="Icon_Test" data-name="Icon Test"><path class="cls-2" d="M61.38,62.5h-10v-2h9v-9h2v10A1,1,0,0,1,61.38,62.5Z"/><path class="cls-2" d="M23.38,62.5h-10a1,1,0,0,1-1-1v-10h2v9h9Z"/><path class="cls-2" d="M62.38,23.5h-2v-9h-9v-2h10a1,1,0,0,1,1,1Z"/><path class="cls-2" d="M14.38,23.5h-2v-10a1,1,0,0,1,1-1h10v2h-9Z"/><path class="cls-2" d="M52.62,49.5H22.29a12,12,0,0,1,0-24H52.71a12,12,0,0,1,0,24Zm-30.15-2H52.62a10,10,0,1,0,0-20H22.38a10,10,0,0,0,0,20Z"/><path class="cls-2" d="M52.45,45.5a8,8,0,1,1,8-8A8,8,0,0,1,52.45,45.5Zm0-14a6,6,0,1,0,6,6A6,6,0,0,0,52.45,31.5Z"/><path class="cls-2" d="M38.88,39.5a2.5,2.5,0,1,1,2.5-2.5A2.5,2.5,0,0,1,38.88,39.5Z"/></g></g></svg>