<svg xmlns="http://www.w3.org/2000/svg" viewBox="0 0 50 50"><defs><style>.cls-1{fill:#3f8624;}</style></defs><title>AWS-IoT-Analytics_Channel_light-bg</title><g id="Working"><path class="cls-1" d="M36.61,16.51a7.85,7.85,0,0,0-4.79,1.63L21.69,7.85a4.4,4.4,0,0,0,.7-2.38,4.46,4.46,0,1,0-4.46,4.46,4.41,4.41,0,0,0,2.33-.68L30.39,19.54a8.39,8.39,0,0,0-.66,1L14.32,14.17a4.18,4.18,0,0,0,.07-.72A4.49,4.49,0,1,0,13.56,16L29,22.36a7.93,7.93,0,0,0-.24,1.29L17.26,24a4.44,4.44,0,1,0,0,2l11.51-.33a8.33,8.33,0,0,0,.52,1.85L13.56,34a4.45,4.45,0,1,0,.83,2.58,4.18,4.18,0,0,0-.07-.72l16-6.59a7.78,7.78,0,0,0,.59.68L20.26,40.75a4.41,4.41,0,0,0-2.33-.68,4.46,4.46,0,1,0,4.46,4.46,4.4,4.4,0,0,0-.7-2.38l10.8-11a7.91,7.91,0,1,0,4.12-14.67Zm-26.68-.6a2.46,2.46,0,1,1,2.46-2.46A2.46,2.46,0,0,1,9.93,15.91Zm3,11.55A2.46,2.46,0,1,1,15.39,25,2.46,2.46,0,0,1,12.93,27.46ZM9.93,39a2.46,2.46,0,1,1,2.46-2.46A2.46,2.46,0,0,1,9.93,39ZM15.47,5.47a2.46,2.46,0,1,1,2.46,2.46A2.46,2.46,0,0,1,15.47,5.47ZM17.93,47a2.46,2.46,0,1,1,2.46-2.46A2.46,2.46,0,0,1,17.93,47ZM36.61,30.34a5.92,5.92,0,1,1,5.92-5.92A5.93,5.93,0,0,1,36.61,30.34Z"/></g></svg>