<svg xmlns="http://www.w3.org/2000/svg" viewBox="0 0 75 75"><defs><style>.cls-1{fill:#3f8624;}.cls-2{fill:#fff;}</style></defs><title>AWS-IoT-Greengrass_light-bg</title><g id="Reference"><rect id="Green_Light_BG" data-name="Green Light BG" class="cls-1" width="75" height="75"/><g id="Product_Icon" data-name="Product Icon"><path class="cls-2" d="M53.58,19.28a4.62,4.62,0,0,0,.47-2,4.78,4.78,0,1,0-5.55,4.68V25.5h2V21.83a4.57,4.57,0,0,0,1.86-1A22.15,22.15,0,0,1,60.5,38.08,22.6,22.6,0,0,1,20.75,52.61,4.7,4.7,0,0,0,21.9,50.5h3.6v-2H22a4.75,4.75,0,1,0-2.86,5.26A24.49,24.49,0,1,0,53.58,19.28Zm-4.3.73a2.76,2.76,0,1,1,2.77-2.76A2.78,2.78,0,0,1,49.28,20ZM14.5,49.37a2.78,2.78,0,1,1,2.78,2.75A2.77,2.77,0,0,1,14.5,49.37Z"/><path class="cls-2" d="M22.28,27a4.75,4.75,0,0,0,2.53-.74L47.09,48.5H44.5v2h5a1,1,0,0,0,1-1v-5h-2v2.59L26.25,24.84a4.67,4.67,0,0,0,.8-2.63A4.78,4.78,0,1,0,22.28,27Zm0-7.51a2.76,2.76,0,1,1-2.78,2.75A2.77,2.77,0,0,1,22.28,19.46Z"/><rect class="cls-2" x="28.5" y="48.5" width="5" height="2"/><rect class="cls-2" x="36.5" y="48.5" width="5" height="2"/><rect class="cls-2" x="48.5" y="28.5" width="2" height="5"/><rect class="cls-2" x="48.5" y="36.5" width="2" height="5"/></g></g></svg>