<svg xmlns="http://www.w3.org/2000/svg" viewBox="0 0 50 50"><defs><style>.cls-1{fill:#3f8624;}</style></defs><title>IoT_Echo_light-bg</title><g id="Reference"><path class="cls-1" d="M25,25.23c-6.09,0-12.23-1.39-12.23-4.49h2c0,.68,3.14,2.49,10.23,2.49s10.24-1.81,10.24-2.49h2C37.23,23.84,31.08,25.23,25,25.23Z"/><ellipse class="cls-1" cx="19.32" cy="6.02" rx="1.83" ry="0.89"/><path class="cls-1" d="M25,29.46c-6.09,0-12.23-1.39-12.23-4.5h2c0,.69,3.14,2.5,10.23,2.5S35.23,25.65,35.23,25h2C37.23,28.07,31.08,29.46,25,29.46Z"/><path class="cls-1" d="M25,11c-6.05,0-12.15-1.39-12.15-4.49h2C14.81,7.21,17.93,9,25,9S35.11,7.21,35.11,6.53h2C37.11,9.63,31,11,25,11Z"/><path class="cls-1" d="M25,48.47c-6.75,0-10.66-2.19-12.06-4.24a1,1,0,0,1-.17-.56V6.77c0-.55.41-5.24,12.16-5.24.84,0,8.2,0,11.08,2.91a3.77,3.77,0,0,1,1.19,2.75l.05,36.48a1,1,0,0,1-.29.7C35.48,46.38,31.61,48.47,25,48.47ZM14.76,43.34C16,44.83,19.3,46.47,25,46.47S34,44.82,35.24,43.32L35.19,7.19a1.81,1.81,0,0,0-.6-1.34C32.65,3.92,27,3.49,24.92,3.53c-9.73,0-10.16,3.26-10.16,3.3Z"/></g></svg>