<svg xmlns="http://www.w3.org/2000/svg" viewBox="0 0 50 50"><defs><style>.cls-1{fill:#3f8624;}</style></defs><title>IoT_Alexa-skill_light-bg</title><g id="Reference"><path class="cls-1" d="M42.05,48.5H8A6.45,6.45,0,0,1,1.5,42.05V8A6.45,6.45,0,0,1,8,1.5h34.1A6.45,6.45,0,0,1,48.5,8v34.1A6.45,6.45,0,0,1,42.05,48.5ZM8,3.5A4.46,4.46,0,0,0,3.5,8v34.1A4.46,4.46,0,0,0,8,46.5h34.1a4.46,4.46,0,0,0,4.45-4.45V8A4.46,4.46,0,0,0,42.05,3.5Z"/><path class="cls-1" d="M22.65,40.81A1,1,0,0,1,22,40.6a1,1,0,0,1-.39-.79v-3a1.64,1.64,0,0,0-1-1.5A11.23,11.23,0,1,1,36.23,25c0,7.15-5.61,13.79-13.33,15.78Zm2.35-25A9.23,9.23,0,0,0,21.41,33.5a3.64,3.64,0,0,1,2.24,3.34v1.63c6.2-2.12,10.58-7.6,10.58-13.47A9.24,9.24,0,0,0,25,15.77Z"/><path class="cls-1" d="M25,41a16,16,0,1,1,7.72-2A15.9,15.9,0,0,1,25,41Zm0-30A14,14,0,1,0,39,25,14,14,0,0,0,25,11Z"/></g></svg>