<svg xmlns="http://www.w3.org/2000/svg" viewBox="0 0 50 50"><defs><style>.cls-1{fill:#3f8624;}</style></defs><title>IoT_HTTP-protocol_light-bg</title><g id="Reference"><path class="cls-1" d="M26.54,44.69V41.14H23.71v3.55H22.62v-7.8h1.09v3.36h2.83V36.89h1.09v7.8Z"/><path class="cls-1" d="M30.57,44.69V37.8H28.63v-.91h5v.91H31.66v6.89Z"/><path class="cls-1" d="M36.19,44.69V37.8H34.26v-.91h5v.91H37.28v6.89Z"/><path class="cls-1" d="M41.29,41.66v3H40.23v-7.8h2.29a1.92,1.92,0,0,1,1.1.31,2,2,0,0,1,.74.84,3,3,0,0,1,.25,1.24A2.5,2.5,0,0,1,44,41a1.94,1.94,0,0,1-1.51.65Zm0-.87H42.4a1,1,0,0,0,.83-.4,2.22,2.22,0,0,0,0-2.23,1,1,0,0,0-.83-.4H41.29Z"/><path class="cls-1" d="M15.62,48.5h-8A6.12,6.12,0,0,1,1.5,42.39V7.61A6.12,6.12,0,0,1,7.61,1.5H42.39A6.12,6.12,0,0,1,48.5,7.61v23h-2v-23A4.11,4.11,0,0,0,42.39,3.5H7.61A4.11,4.11,0,0,0,3.5,7.61V42.39A4.11,4.11,0,0,0,7.61,46.5h8Z"/><path class="cls-1" d="M48.5,48.5H17.44V32.44H48.5Zm-29.06-2H46.5V34.44H19.44Z"/><polygon class="cls-1" points="48.5 48.5 42.39 48.5 42.39 46.5 46.5 46.5 46.5 42.39 48.5 42.39 48.5 48.5"/></g></svg>