<svg xmlns="http://www.w3.org/2000/svg" viewBox="0 0 50 50"><defs><style>.cls-1{fill:#3f8624;}</style></defs><title>IoT_Bicycle_light-bg</title><g id="Reference"><path class="cls-1" d="M39.56,42.7H10.44A3.15,3.15,0,0,1,7.3,39.56V10.45a3.14,3.14,0,0,1,3.14-3.13H39.56a3.14,3.14,0,0,1,3.14,3.13V39.56A3.15,3.15,0,0,1,39.56,42.7ZM10.44,9.32A1.13,1.13,0,0,0,9.3,10.45V39.56a1.14,1.14,0,0,0,1.14,1.14H39.56a1.14,1.14,0,0,0,1.14-1.14V10.45a1.13,1.13,0,0,0-1.14-1.13Z"/><rect class="cls-1" x="13.45" y="3.03" width="2" height="5.27"/><rect class="cls-1" x="18.73" y="3.03" width="2" height="5.27"/><rect class="cls-1" x="24" y="3.03" width="2" height="5.27"/><rect class="cls-1" x="29.27" y="3.03" width="2" height="5.27"/><rect class="cls-1" x="34.55" y="3.03" width="2" height="5.27"/><rect class="cls-1" x="13.45" y="41.7" width="2" height="5.27"/><rect class="cls-1" x="18.73" y="41.7" width="2" height="5.27"/><rect class="cls-1" x="24" y="41.7" width="2" height="5.27"/><rect class="cls-1" x="29.27" y="41.7" width="2" height="5.27"/><rect class="cls-1" x="34.55" y="41.7" width="2" height="5.27"/><rect class="cls-1" x="3.03" y="13.45" width="5.27" height="2"/><rect class="cls-1" x="3.03" y="18.73" width="5.27" height="2"/><rect class="cls-1" x="3.03" y="24" width="5.27" height="2"/><rect class="cls-1" x="3.03" y="29.27" width="5.27" height="2"/><rect class="cls-1" x="3.03" y="34.55" width="5.27" height="2"/><rect class="cls-1" x="41.7" y="13.45" width="5.27" height="2"/><rect class="cls-1" x="41.7" y="18.73" width="5.27" height="2"/><rect class="cls-1" x="41.7" y="24" width="5.27" height="2"/><rect class="cls-1" x="41.7" y="29.27" width="5.27" height="2"/><rect class="cls-1" x="41.7" y="34.55" width="5.27" height="2"/><path class="cls-1" d="M17.09,36.55a6.28,6.28,0,1,1,6.27-6.28A6.28,6.28,0,0,1,17.09,36.55Zm0-10.55a4.28,4.28,0,1,0,4.27,4.27A4.27,4.27,0,0,0,17.09,26Z"/><path class="cls-1" d="M32.91,36.55a6.28,6.28,0,1,1,6.27-6.28A6.28,6.28,0,0,1,32.91,36.55Zm0-10.55a4.28,4.28,0,1,0,4.27,4.27A4.27,4.27,0,0,0,32.91,26Z"/><path class="cls-1" d="M18,21l-.73-3.35a1.87,1.87,0,0,1-.07-1.53,1.45,1.45,0,0,1,.93-.81.86.86,0,0,1,.28,0h3.07v2H19.23L20,20.52Z"/><path class="cls-1" d="M32,30.69,27.61,21a.94.94,0,0,1-.06-.66l.67-2.64,1.94.5-.59,2.29,4.25,9.35Z"/><rect class="cls-1" x="27.33" y="16.97" width="3.53" height="2"/><path class="cls-1" d="M18.07,30.46l-2-.38L18,20.42a1,1,0,0,1,1-.81h9.57a1,1,0,0,1,.94,1.31l-2.63,7.91a1,1,0,0,1-.75.67,1,1,0,0,1-.95-.33L19.55,22.8Zm3.09-8.85,4.32,4.93,1.65-4.93Z"/></g></svg>