<svg xmlns="http://www.w3.org/2000/svg" viewBox="0 0 50 50"><defs><style>.cls-1{fill:#3f8624;}</style></defs><title>IoT_HTTP-2-protocol_light-bg</title><g id="Reference"><path class="cls-1" d="M18.12,44.69V41.14H15.29v3.55H14.2v-7.8h1.09v3.36h2.83V36.89h1.09v7.8Z"/><path class="cls-1" d="M22.15,44.69V37.8H20.22v-.91h5v.91h-2v6.89Z"/><path class="cls-1" d="M27.78,44.69V37.8H25.84v-.91h5v.91H28.87v6.89Z"/><path class="cls-1" d="M32.87,41.66v3H31.81v-7.8H34.1a2,2,0,0,1,1.11.31,2,2,0,0,1,.73.84,2.86,2.86,0,0,1,.25,1.24A2.5,2.5,0,0,1,35.61,41a1.94,1.94,0,0,1-1.51.65Zm0-.87H34a1,1,0,0,0,.82-.4,2.22,2.22,0,0,0,0-2.23,1,1,0,0,0-.82-.4H32.87Z"/><path class="cls-1" d="M36.26,46.31l3.05-10.1h1l-3,10.1Z"/><path class="cls-1" d="M41.4,37.48a3.81,3.81,0,0,1,1-.56,2.68,2.68,0,0,1,1-.17,1.74,1.74,0,0,1,1.35.54,2.23,2.23,0,0,1,.48,1.53,3.15,3.15,0,0,1-.2,1.06,7.22,7.22,0,0,1-.75,1.37c-.36.54-1,1.38-1.84,2.5h3.06v.94H41.23v-.85c.76-1,1.33-1.79,1.73-2.38A10.14,10.14,0,0,0,43.82,40a2.8,2.8,0,0,0,.26-1.12c0-.78-.31-1.17-.91-1.17a3.42,3.42,0,0,0-1.77.72Z"/><path class="cls-1" d="M9.06,48.5H7.61A6.12,6.12,0,0,1,1.5,42.39V7.61A6.12,6.12,0,0,1,7.61,1.5H42.39A6.12,6.12,0,0,1,48.5,7.61v23h-2v-23A4.11,4.11,0,0,0,42.39,3.5H7.61A4.11,4.11,0,0,0,3.5,7.61V42.39A4.11,4.11,0,0,0,7.61,46.5H9.06Z"/><path class="cls-1" d="M48.5,48.5H10.88V32.44H48.5Zm-35.62-2H46.5V34.44H12.88Z"/><polygon class="cls-1" points="48.5 48.5 42.39 48.5 42.39 46.5 46.5 46.5 46.5 42.39 48.5 42.39 48.5 48.5"/></g></svg>