<svg xmlns="http://www.w3.org/2000/svg" viewBox="0 0 50 50"><defs><style>.cls-1{fill:#3f8624;}</style></defs><title>IoT_Certificate-manager_light-bg</title><g id="Reference"><path class="cls-1" d="M18.44,27.64a7.56,7.56,0,0,1,0-15.12,7.48,7.48,0,0,1,7,4.68h.89l1.41-1.51a1,1,0,0,1,1.47,0l1.41,1.51h.27l1.42-1.51a1,1,0,0,1,1.46,0l1.42,1.51h1.27a1,1,0,0,1,.64.23l2.28,1.88a1,1,0,0,1,.36.7,1,1,0,0,1-.26.74l-1.71,1.88A1,1,0,0,1,37,23H25.39A7.48,7.48,0,0,1,18.44,27.64Zm0-13.12a5.56,5.56,0,1,0,5.29,7.14,1,1,0,0,1,1-.71H36.54l.71-.77-1.2-1H34.7a1,1,0,0,1-.73-.31l-1-1.06-1,1.06a1,1,0,0,1-.73.31H30.14a1,1,0,0,1-.74-.31l-1-1.06-1,1.06a1,1,0,0,1-.73.31h-2a1,1,0,0,1-1-.71A5.52,5.52,0,0,0,18.44,14.52Zm-2,8.56a3,3,0,1,1,3-3A3,3,0,0,1,16.44,23.08Zm0-4a1,1,0,1,0,1,1A1,1,0,0,0,16.44,19.08Z"/><path class="cls-1" d="M25,38A18.34,18.34,0,1,1,43.34,19.61,18.36,18.36,0,0,1,25,38ZM25,3.27A16.34,16.34,0,1,0,41.34,19.61,16.36,16.36,0,0,0,25,3.27Z"/><path class="cls-1" d="M32.5,48.73a1.06,1.06,0,0,1-.57-.17L25,43.79l-6.93,4.77a1,1,0,0,1-1,.06,1,1,0,0,1-.53-.89V37h2v8.88l5.93-4.08a1,1,0,0,1,1.14,0l5.93,4.08V37h2V47.73a1,1,0,0,1-.53.89A1,1,0,0,1,32.5,48.73Z"/></g></svg>