<svg xmlns="http://www.w3.org/2000/svg" viewBox="0 0 50 50"><defs><style>.cls-1{fill:#3f8624;}</style></defs><title>IoT_Door-lock_light-bg</title><g id="Reference"><path class="cls-1" d="M39.56,42.7H10.44A3.15,3.15,0,0,1,7.3,39.56V10.45a3.14,3.14,0,0,1,3.14-3.13H39.56a3.14,3.14,0,0,1,3.14,3.13V39.56A3.15,3.15,0,0,1,39.56,42.7ZM10.44,9.32A1.13,1.13,0,0,0,9.3,10.45V39.56a1.14,1.14,0,0,0,1.14,1.14H39.56a1.14,1.14,0,0,0,1.14-1.14V10.45a1.13,1.13,0,0,0-1.14-1.13Z"/><rect class="cls-1" x="13.45" y="3.03" width="2" height="5.27"/><rect class="cls-1" x="18.73" y="3.03" width="2" height="5.27"/><rect class="cls-1" x="24" y="3.03" width="2" height="5.27"/><rect class="cls-1" x="29.27" y="3.03" width="2" height="5.27"/><rect class="cls-1" x="34.55" y="3.03" width="2" height="5.27"/><rect class="cls-1" x="13.45" y="41.7" width="2" height="5.27"/><rect class="cls-1" x="18.73" y="41.7" width="2" height="5.27"/><rect class="cls-1" x="24" y="41.7" width="2" height="5.27"/><rect class="cls-1" x="29.27" y="41.7" width="2" height="5.27"/><rect class="cls-1" x="34.55" y="41.7" width="2" height="5.27"/><rect class="cls-1" x="3.03" y="13.45" width="5.27" height="2"/><rect class="cls-1" x="3.03" y="18.73" width="5.27" height="2"/><rect class="cls-1" x="3.03" y="24" width="5.27" height="2"/><rect class="cls-1" x="3.03" y="29.27" width="5.27" height="2"/><rect class="cls-1" x="3.03" y="34.55" width="5.27" height="2"/><rect class="cls-1" x="41.7" y="13.45" width="5.27" height="2"/><rect class="cls-1" x="41.7" y="18.73" width="5.27" height="2"/><rect class="cls-1" x="41.7" y="24" width="5.27" height="2"/><rect class="cls-1" x="41.7" y="29.27" width="5.27" height="2"/><rect class="cls-1" x="41.7" y="34.55" width="5.27" height="2"/><path class="cls-1" d="M31.16,40.06H18.84a2.75,2.75,0,0,1-2.75-2.74V13.56a2.75,2.75,0,0,1,2.75-2.74H31.16a2.75,2.75,0,0,1,2.75,2.74V37.32A2.75,2.75,0,0,1,31.16,40.06ZM18.84,12.82a.74.74,0,0,0-.75.74V37.32a.74.74,0,0,0,.75.74H31.16a.74.74,0,0,0,.75-.74V13.56a.74.74,0,0,0-.75-.74Z"/><path class="cls-1" d="M25,25.56a5.4,5.4,0,1,1,5.39-5.39A5.4,5.4,0,0,1,25,25.56Zm0-8.79a3.4,3.4,0,1,0,3.39,3.4A3.4,3.4,0,0,0,25,16.77Z"/><path class="cls-1" d="M25,33.47a2.76,2.76,0,1,1,2.76-2.76A2.77,2.77,0,0,1,25,33.47ZM25,30a.75.75,0,0,0-.76.75.76.76,0,0,0,1.52,0A.75.75,0,0,0,25,30Z"/><rect class="cls-1" x="24" y="32.91" width="2" height="3.52"/></g></svg>