<svg xmlns="http://www.w3.org/2000/svg" viewBox="0 0 50 50"><defs><style>.cls-1{fill:#3f8624;}</style></defs><title>IoT_Rule_light-bg</title><g id="Reference"><path class="cls-1" d="M32.56,25.22h-2V19.44H19.44v5.78h-2V18.44a1,1,0,0,1,1-1H31.56a1,1,0,0,1,1,1Z"/><rect class="cls-1" x="24.22" y="27.07" width="1.56" height="2"/><path class="cls-1" d="M25,25.06a1,1,0,0,1-.65-.24L17.79,19.2l1.3-1.52L25,22.75l5.91-5.07,1.3,1.52-6.56,5.62A1,1,0,0,1,25,25.06Z"/><path class="cls-1" d="M25,48.5c-5.9,0-12.25-1.36-12.25-4.35V24.93a2.18,2.18,0,0,1,.08-.57c.31-1.07,1.42-1.92,3.41-2.59l.64,1.89c-1.55.53-2.07,1.05-2.13,1.26V44.15c0,.68,3.59,2.35,10.25,2.35s10.25-1.67,10.25-2.35V24.93c-.06-.22-.58-.74-2.13-1.27l.64-1.89c2,.67,3.1,1.52,3.41,2.6a2,2,0,0,1,.08.56V44.15C37.25,47.14,30.9,48.5,25,48.5Z"/><path class="cls-1" d="M25,29.08c-5.9,0-12.25-1.4-12.25-4.47h2c0,.72,3.59,2.47,10.25,2.47s10.25-1.75,10.25-2.47h2C37.25,27.68,30.9,29.08,25,29.08Z"/><path class="cls-1" d="M18.44,10.06H11.88a1,1,0,0,1-1-1V2.5a1,1,0,0,1,1-1h6.56a1,1,0,0,1,1,1V9.06A1,1,0,0,1,18.44,10.06Zm-5.56-2h4.56V3.5H12.88Z"/><path class="cls-1" d="M34.38,11a4.75,4.75,0,1,1,4.74-4.75A4.76,4.76,0,0,1,34.38,11Zm0-7.5a2.75,2.75,0,1,0,2.74,2.75A2.76,2.76,0,0,0,34.38,3.5Z"/><path class="cls-1" d="M26,16.56H24V13.74L17.91,9.91,19,8.22l6.56,4.12a1,1,0,0,1,.47.85Z"/><path class="cls-1" d="M26,16.56H24V13.19a1,1,0,0,1,.47-.85L31,8.22l1.06,1.69L26,13.74Z"/></g></svg>