<svg xmlns="http://www.w3.org/2000/svg" viewBox="0 0 50 50"><defs><style>.cls-1{fill:#3f8624;}</style></defs><title>IoT_House_light-bg</title><g id="Reference"><path class="cls-1" d="M39.56,42.7H10.44A3.15,3.15,0,0,1,7.3,39.56V10.45a3.14,3.14,0,0,1,3.14-3.13H39.56a3.14,3.14,0,0,1,3.14,3.13V39.56A3.15,3.15,0,0,1,39.56,42.7ZM10.44,9.32A1.13,1.13,0,0,0,9.3,10.45V39.56a1.14,1.14,0,0,0,1.14,1.14H39.56a1.14,1.14,0,0,0,1.14-1.14V10.45a1.13,1.13,0,0,0-1.14-1.13Z"/><rect class="cls-1" x="13.45" y="3.03" width="2" height="5.27"/><rect class="cls-1" x="18.73" y="3.03" width="2" height="5.27"/><rect class="cls-1" x="24" y="3.03" width="2" height="5.27"/><rect class="cls-1" x="29.27" y="3.03" width="2" height="5.27"/><rect class="cls-1" x="34.55" y="3.03" width="2" height="5.27"/><rect class="cls-1" x="13.45" y="41.7" width="2" height="5.27"/><rect class="cls-1" x="18.73" y="41.7" width="2" height="5.27"/><rect class="cls-1" x="24" y="41.7" width="2" height="5.27"/><rect class="cls-1" x="29.27" y="41.7" width="2" height="5.27"/><rect class="cls-1" x="34.55" y="41.7" width="2" height="5.27"/><rect class="cls-1" x="3.03" y="13.45" width="5.27" height="2"/><rect class="cls-1" x="3.03" y="18.73" width="5.27" height="2"/><rect class="cls-1" x="3.03" y="24" width="5.27" height="2"/><rect class="cls-1" x="3.03" y="29.27" width="5.27" height="2"/><rect class="cls-1" x="3.03" y="34.55" width="5.27" height="2"/><rect class="cls-1" x="41.7" y="13.45" width="5.27" height="2"/><rect class="cls-1" x="41.7" y="18.73" width="5.27" height="2"/><rect class="cls-1" x="41.7" y="24" width="5.27" height="2"/><rect class="cls-1" x="41.7" y="29.27" width="5.27" height="2"/><rect class="cls-1" x="41.7" y="34.55" width="5.27" height="2"/><path class="cls-1" d="M35.55,37.43h-4.4a1,1,0,0,1-1-1V28.64H26.88v7.79a1,1,0,0,1-1,1H14.45a1,1,0,0,1-1-1V26H11.81a1,1,0,0,1-1-1v-.83a1,1,0,0,1,.34-.75L24.35,11.94a1,1,0,0,1,1.3,0L38.84,23.37a1,1,0,0,1,.34.75V25a1,1,0,0,1-1,1H36.55V36.43A1,1,0,0,1,35.55,37.43Zm-3.4-2h2.4V25a1,1,0,0,1,.29-.71.94.94,0,0,1,.71-.29h1L25,14,13.54,24h.92a1,1,0,0,1,1,1V35.43h9.43V27.64a1,1,0,0,1,1-1h5.27a1,1,0,0,1,1,1Z"/><path class="cls-1" d="M21.48,32.15H18a1,1,0,0,1-1-1V27.64a1,1,0,0,1,1-1h3.51a1,1,0,0,1,1,1v3.51A1,1,0,0,1,21.48,32.15Zm-2.51-2h1.51V28.64H19Z"/></g></svg>