<svg xmlns="http://www.w3.org/2000/svg" viewBox="0 0 50 50"><defs><style>.cls-1{fill:#3f8624;}</style></defs><title>IoT_Travel_light-bg</title><g id="Reference"><path class="cls-1" d="M40.68,43.81H9.32a3.13,3.13,0,0,1-3.13-3.13V9.34A3.14,3.14,0,0,1,9.32,6.2H40.68a3.14,3.14,0,0,1,3.13,3.14V40.68A3.13,3.13,0,0,1,40.68,43.81ZM9.32,8.2A1.14,1.14,0,0,0,8.19,9.34V40.68a1.14,1.14,0,0,0,1.13,1.13H40.68a1.14,1.14,0,0,0,1.13-1.13V9.34A1.14,1.14,0,0,0,40.68,8.2Z"/><rect class="cls-1" x="12.75" y="1.56" width="2" height="5.63"/><rect class="cls-1" x="18.38" y="1.56" width="2" height="5.63"/><rect class="cls-1" x="24" y="1.56" width="2" height="5.63"/><rect class="cls-1" x="29.63" y="1.56" width="2" height="5.63"/><rect class="cls-1" x="35.25" y="1.56" width="2" height="5.63"/><rect class="cls-1" x="12.75" y="42.81" width="2" height="5.63"/><rect class="cls-1" x="18.38" y="42.81" width="2" height="5.63"/><rect class="cls-1" x="24" y="42.81" width="2" height="5.63"/><rect class="cls-1" x="29.63" y="42.81" width="2" height="5.63"/><rect class="cls-1" x="35.25" y="42.81" width="2" height="5.63"/><rect class="cls-1" x="1.56" y="12.75" width="5.62" height="2"/><rect class="cls-1" x="1.56" y="18.38" width="5.62" height="2"/><rect class="cls-1" x="1.56" y="24" width="5.62" height="2"/><rect class="cls-1" x="1.56" y="29.63" width="5.62" height="2"/><rect class="cls-1" x="1.56" y="35.25" width="5.62" height="2"/><rect class="cls-1" x="42.81" y="12.75" width="5.62" height="2"/><rect class="cls-1" x="42.81" y="18.38" width="5.62" height="2"/><rect class="cls-1" x="42.81" y="24" width="5.62" height="2"/><rect class="cls-1" x="42.81" y="29.63" width="5.62" height="2"/><rect class="cls-1" x="42.81" y="35.25" width="5.62" height="2"/><path class="cls-1" d="M20.31,40.06a1,1,0,0,1-.25,0,1,1,0,0,1-.71-.69l-2-6.78-6.71-1.9A1,1,0,0,1,10,30a1,1,0,0,1,.26-1l1.88-1.88a1,1,0,0,1,.7-.3h6.12l3.57-3.95L11.79,18a1,1,0,0,1-.57-.73,1,1,0,0,1,.28-.88l2.71-2.72a1,1,0,0,1,.93-.27l13.35,3.08L32,12.71c1.29-1.3,4.74-2.71,6.33-1.12A3.4,3.4,0,0,1,38.83,15a7,7,0,0,1-1.58,2.88l-3.79,3.55,3.08,13.34a1,1,0,0,1-.27.93l-2.71,2.72a1,1,0,0,1-.89.27,1,1,0,0,1-.73-.57L27.08,27.45l-3.89,3.61v6.13a1,1,0,0,1-.3.71L21,39.77A1,1,0,0,1,20.31,40.06ZM12.85,29.2l5.6,1.59a1,1,0,0,1,.69.68l1.65,5.69.4-.39V30.62a1,1,0,0,1,.32-.73L26.74,25a1,1,0,0,1,.87-.24,1,1,0,0,1,.72.56L33.16,36l1.31-1.3L31.38,21.33a1,1,0,0,1,.29-.95l4.19-3.92a5,5,0,0,0,1-2c.24-.85.14-1.34,0-1.47-.42-.43-2.53.15-3.47,1.09l-3.9,4.16a1,1,0,0,1-.95.29L15.23,15.46l-1.3,1.31,10.64,4.84a1,1,0,0,1,.57.7,1,1,0,0,1-.24.88l-4.78,5.29a1,1,0,0,1-.74.33H13.23Z"/><path class="cls-1" d="M24.35,17.09l-1.42-1.42,1.88-1.87a.41.41,0,0,0,0-.58.35.35,0,0,0-.57,0l-3.12,3.12L19.7,14.93l3.12-3.12a2.4,2.4,0,0,1,3.4,0,2.39,2.39,0,0,1,0,3.4Z"/><path class="cls-1" d="M35,30.25l-1.41-1.42,3.11-3.12a.37.37,0,0,0,.12-.29.37.37,0,0,0-.12-.28.4.4,0,0,0-.57,0L34.27,27,32.86,25.6l1.88-1.88a2.48,2.48,0,0,1,3.4,0,2.41,2.41,0,0,1,0,3.41Z"/></g></svg>