<svg xmlns="http://www.w3.org/2000/svg" viewBox="0 0 50 50"><defs><style>.cls-1{fill:#3f8624;}</style></defs><title>IoT_Windfarm_light-bg</title><g id="Reference"><path class="cls-1" d="M40.68,43.81H9.32a3.13,3.13,0,0,1-3.13-3.13V9.34A3.14,3.14,0,0,1,9.32,6.2H40.68a3.14,3.14,0,0,1,3.13,3.14V40.68A3.13,3.13,0,0,1,40.68,43.81ZM9.32,8.2A1.14,1.14,0,0,0,8.19,9.34V40.68a1.14,1.14,0,0,0,1.13,1.13H40.68a1.14,1.14,0,0,0,1.13-1.13V9.34A1.14,1.14,0,0,0,40.68,8.2Z"/><rect class="cls-1" x="12.75" y="1.56" width="2" height="5.63"/><rect class="cls-1" x="18.38" y="1.56" width="2" height="5.63"/><rect class="cls-1" x="24" y="1.56" width="2" height="5.63"/><rect class="cls-1" x="29.63" y="1.56" width="2" height="5.63"/><rect class="cls-1" x="35.25" y="1.56" width="2" height="5.63"/><rect class="cls-1" x="12.75" y="42.81" width="2" height="5.63"/><rect class="cls-1" x="18.38" y="42.81" width="2" height="5.63"/><rect class="cls-1" x="24" y="42.81" width="2" height="5.63"/><rect class="cls-1" x="29.63" y="42.81" width="2" height="5.63"/><rect class="cls-1" x="35.25" y="42.81" width="2" height="5.63"/><rect class="cls-1" x="1.56" y="12.75" width="5.63" height="2"/><rect class="cls-1" x="1.56" y="18.38" width="5.63" height="2"/><rect class="cls-1" x="1.56" y="24" width="5.63" height="2"/><rect class="cls-1" x="1.56" y="29.63" width="5.63" height="2"/><rect class="cls-1" x="1.56" y="35.25" width="5.63" height="2"/><rect class="cls-1" x="42.81" y="12.75" width="5.63" height="2"/><rect class="cls-1" x="42.81" y="18.38" width="5.63" height="2"/><rect class="cls-1" x="42.81" y="24" width="5.63" height="2"/><rect class="cls-1" x="42.81" y="29.63" width="5.63" height="2"/><rect class="cls-1" x="42.81" y="35.25" width="5.63" height="2"/><rect class="cls-1" x="25.87" y="27.82" width="2" height="12.18"/><rect class="cls-1" x="11.88" y="22.13" width="12.66" height="2"/><rect class="cls-1" x="31.19" y="23.44" width="2" height="11.87" transform="translate(-11.34 31.36) rotate(-45)"/><rect class="cls-1" x="24.51" y="14.52" width="12.33" height="2" transform="translate(3.08 36.02) rotate(-63.43)"/><path class="cls-1" d="M26.87,26.47a3.33,3.33,0,0,1-2.24-.87,3.34,3.34,0,0,1,2.09-5.81,3.36,3.36,0,0,1,2.4.86A3.34,3.34,0,0,1,27,26.46Zm0-4.69h-.07a1.37,1.37,0,0,0-.93.44,1.38,1.38,0,0,0-.35,1,1.37,1.37,0,0,0,.44.93,1.42,1.42,0,0,0,1,.35,1.37,1.37,0,0,0,.93-.44,1.38,1.38,0,0,0,.35-1,1.37,1.37,0,0,0-.44-.93A1.32,1.32,0,0,0,26.88,21.78Z"/></g></svg>