<svg xmlns="http://www.w3.org/2000/svg" viewBox="0 0 50 50"><defs><style>.cls-1{fill:#3f8624;}</style></defs><title>IoT_Coffee-pot_light-bg</title><g id="Reference"><path class="cls-1" d="M39.56,42.7H10.44A3.15,3.15,0,0,1,7.3,39.56V10.45a3.14,3.14,0,0,1,3.14-3.13H39.56a3.14,3.14,0,0,1,3.14,3.13V39.56A3.15,3.15,0,0,1,39.56,42.7ZM10.44,9.32A1.13,1.13,0,0,0,9.3,10.45V39.56a1.14,1.14,0,0,0,1.14,1.14H39.56a1.14,1.14,0,0,0,1.14-1.14V10.45a1.13,1.13,0,0,0-1.14-1.13Z"/><rect class="cls-1" x="13.45" y="3.03" width="2" height="5.27"/><rect class="cls-1" x="18.73" y="3.03" width="2" height="5.27"/><rect class="cls-1" x="24" y="3.03" width="2" height="5.27"/><rect class="cls-1" x="29.27" y="3.03" width="2" height="5.27"/><rect class="cls-1" x="34.55" y="3.03" width="2" height="5.27"/><rect class="cls-1" x="13.45" y="41.7" width="2" height="5.27"/><rect class="cls-1" x="18.73" y="41.7" width="2" height="5.27"/><rect class="cls-1" x="24" y="41.7" width="2" height="5.27"/><rect class="cls-1" x="29.27" y="41.7" width="2" height="5.27"/><rect class="cls-1" x="34.55" y="41.7" width="2" height="5.27"/><rect class="cls-1" x="3.03" y="13.45" width="5.27" height="2"/><rect class="cls-1" x="3.03" y="18.73" width="5.27" height="2"/><rect class="cls-1" x="3.03" y="24" width="5.27" height="2"/><rect class="cls-1" x="3.03" y="29.27" width="5.27" height="2"/><rect class="cls-1" x="3.03" y="34.55" width="5.27" height="2"/><rect class="cls-1" x="41.7" y="13.45" width="5.27" height="2"/><rect class="cls-1" x="41.7" y="18.73" width="5.27" height="2"/><rect class="cls-1" x="41.7" y="24" width="5.27" height="2"/><rect class="cls-1" x="41.7" y="29.27" width="5.27" height="2"/><rect class="cls-1" x="41.7" y="34.55" width="5.27" height="2"/><path class="cls-1" d="M31.61,31.26l-.11-2a3.24,3.24,0,0,0,3-3.23v-.25a4.19,4.19,0,0,0-4.19-4.18h-.1v-2h.1a6.19,6.19,0,0,1,6.19,6.18V26A5.23,5.23,0,0,1,31.61,31.26Z"/><path class="cls-1" d="M30.7,39.18H18.43a2.07,2.07,0,0,1-1.52-.69,3.5,3.5,0,0,1-.81-2.59l0-.33a3.75,3.75,0,0,1-2.49-3.29L10.84,19a1,1,0,0,1,.62-1.14l2.64-1a1,1,0,0,1,1.3.62l1.83,5.46L17.85,17a1,1,0,0,1,1-.9H29.39a1,1,0,0,1,1,.86L33,35.8a3.51,3.51,0,0,1-.78,2.68A2.09,2.09,0,0,1,30.7,39.18ZM18.19,34.92l-.09,1.14a1.3,1.3,0,0,0,.35,1.13H30.7A1.42,1.42,0,0,0,31,36L28.52,18.09H19.75l-1,9.6a1,1,0,0,1-.88.89,1,1,0,0,1-1.06-.68l-3-8.83-.86.32,2.64,12.55c.13,1,.66,1.73,1.22,1.73h.37a1,1,0,0,1,1,1A1.07,1.07,0,0,1,18.19,34.92Z"/><path class="cls-1" d="M36.43,37.47H31.15v-2h4.28v-.8a1,1,0,0,1,1-1h2.63v2H37.43v.8A1,1,0,0,1,36.43,37.47Z"/><rect class="cls-1" x="23.12" y="10.94" width="2" height="2.64"/><path class="cls-1" d="M29.39,18.09H18.85a1,1,0,0,1-1-1,4.52,4.52,0,0,1,4.51-4.52h3.52a4.52,4.52,0,0,1,4.51,4.52A1,1,0,0,1,29.39,18.09Zm-9.33-2h8.13a2.53,2.53,0,0,0-2.31-1.52H22.36A2.51,2.51,0,0,0,20.06,16.09Z"/><path class="cls-1" d="M39.06,39.18H36.43a1,1,0,0,1-1-1V36.43h2v.75h1.63Z"/></g></svg>