<svg xmlns="http://www.w3.org/2000/svg" viewBox="0 0 50 50"><defs><style>.cls-1{fill:#3f8624;}</style></defs><title>IoT_Cart_light-bg</title><g id="Reference"><path class="cls-1" d="M39.56,42.7H10.44A3.15,3.15,0,0,1,7.3,39.56V10.45a3.14,3.14,0,0,1,3.14-3.13H39.56a3.14,3.14,0,0,1,3.14,3.13V39.56A3.15,3.15,0,0,1,39.56,42.7ZM10.44,9.32A1.13,1.13,0,0,0,9.3,10.45V39.56a1.14,1.14,0,0,0,1.14,1.14H39.56a1.14,1.14,0,0,0,1.14-1.14V10.45a1.13,1.13,0,0,0-1.14-1.13Z"/><rect class="cls-1" x="13.45" y="3.03" width="2" height="5.27"/><rect class="cls-1" x="18.73" y="3.03" width="2" height="5.27"/><rect class="cls-1" x="24" y="3.03" width="2" height="5.27"/><rect class="cls-1" x="29.27" y="3.03" width="2" height="5.27"/><rect class="cls-1" x="34.55" y="3.03" width="2" height="5.27"/><rect class="cls-1" x="13.45" y="41.7" width="2" height="5.27"/><rect class="cls-1" x="18.73" y="41.7" width="2" height="5.27"/><rect class="cls-1" x="24" y="41.7" width="2" height="5.27"/><rect class="cls-1" x="29.27" y="41.7" width="2" height="5.27"/><rect class="cls-1" x="34.55" y="41.7" width="2" height="5.27"/><rect class="cls-1" x="3.03" y="13.45" width="5.27" height="2"/><rect class="cls-1" x="3.03" y="18.73" width="5.27" height="2"/><rect class="cls-1" x="3.03" y="24" width="5.27" height="2"/><rect class="cls-1" x="3.03" y="29.27" width="5.27" height="2"/><rect class="cls-1" x="3.03" y="34.55" width="5.27" height="2"/><rect class="cls-1" x="41.7" y="13.45" width="5.27" height="2"/><rect class="cls-1" x="41.7" y="18.73" width="5.27" height="2"/><rect class="cls-1" x="41.7" y="24" width="5.27" height="2"/><rect class="cls-1" x="41.7" y="29.27" width="5.27" height="2"/><rect class="cls-1" x="41.7" y="34.55" width="5.27" height="2"/><path class="cls-1" d="M32.57,30.39H19.79a1.57,1.57,0,0,1-1.53-1.08L15,18.93a1.46,1.46,0,0,1,.22-1.31A1.62,1.62,0,0,1,16.53,17h19.3a1.62,1.62,0,0,1,1.31.65,1.46,1.46,0,0,1,.22,1.31L34.1,29.31A1.58,1.58,0,0,1,32.57,30.39Zm-12.5-2H32.29l3-9.42H17.11Z"/><path class="cls-1" d="M15.24,18.22l-.72-2.83-3-.85.55-1.93,3,.85a1.67,1.67,0,0,1,1.35,1.21l.78,3Z"/><path class="cls-1" d="M20.17,37.87a3.2,3.2,0,1,1,3.19-3.2A3.2,3.2,0,0,1,20.17,37.87Zm0-4.4a1.2,1.2,0,1,0,1.19,1.2A1.2,1.2,0,0,0,20.17,33.47Z"/><rect class="cls-1" x="22.36" y="33.67" width="7.97" height="2"/><path class="cls-1" d="M32.47,37.87a3.2,3.2,0,1,1,3.2-3.2A3.21,3.21,0,0,1,32.47,37.87Zm0-4.4a1.2,1.2,0,1,0,1.2,1.2A1.2,1.2,0,0,0,32.47,33.47Z"/><rect class="cls-1" x="19.84" y="29.91" width="3.54" height="2" transform="translate(-15.64 36.82) rotate(-64.06)"/></g></svg>