<svg xmlns="http://www.w3.org/2000/svg" viewBox="0 0 50 50"><defs><style>.cls-1{fill:#3f8624;}</style></defs><title>IoT_Lightbulb_light-bg</title><g id="Reference"><path class="cls-1" d="M39.56,42.7H10.44A3.15,3.15,0,0,1,7.3,39.56V10.45a3.14,3.14,0,0,1,3.14-3.13H39.56a3.14,3.14,0,0,1,3.14,3.13V39.56A3.15,3.15,0,0,1,39.56,42.7ZM10.44,9.32A1.13,1.13,0,0,0,9.3,10.45V39.56a1.14,1.14,0,0,0,1.14,1.14H39.56a1.14,1.14,0,0,0,1.14-1.14V10.45a1.13,1.13,0,0,0-1.14-1.13Z"/><rect class="cls-1" x="13.45" y="3.03" width="2" height="5.27"/><rect class="cls-1" x="18.73" y="3.03" width="2" height="5.27"/><rect class="cls-1" x="24" y="3.03" width="2" height="5.27"/><rect class="cls-1" x="29.27" y="3.03" width="2" height="5.27"/><rect class="cls-1" x="34.55" y="3.03" width="2" height="5.27"/><rect class="cls-1" x="13.45" y="41.7" width="2" height="5.27"/><rect class="cls-1" x="18.73" y="41.7" width="2" height="5.27"/><rect class="cls-1" x="24" y="41.7" width="2" height="5.27"/><rect class="cls-1" x="29.27" y="41.7" width="2" height="5.27"/><rect class="cls-1" x="34.55" y="41.7" width="2" height="5.27"/><rect class="cls-1" x="3.03" y="13.45" width="5.27" height="2"/><rect class="cls-1" x="3.03" y="18.73" width="5.27" height="2"/><rect class="cls-1" x="3.03" y="24" width="5.27" height="2"/><rect class="cls-1" x="3.03" y="29.27" width="5.27" height="2"/><rect class="cls-1" x="3.03" y="34.55" width="5.27" height="2"/><rect class="cls-1" x="41.7" y="13.45" width="5.27" height="2"/><rect class="cls-1" x="41.7" y="18.73" width="5.27" height="2"/><rect class="cls-1" x="41.7" y="24" width="5.27" height="2"/><rect class="cls-1" x="41.7" y="29.27" width="5.27" height="2"/><rect class="cls-1" x="41.7" y="34.55" width="5.27" height="2"/><path class="cls-1" d="M28.52,33h-7a1,1,0,0,1-1-1V29.37a9.21,9.21,0,0,1-4.83-8.13,9.35,9.35,0,0,1,18.7,0,9.21,9.21,0,0,1-4.83,8.13V32A1,1,0,0,1,28.52,33Zm-6-2h5V28.76a1,1,0,0,1,.57-.91,7.23,7.23,0,0,0,4.26-6.61,7.35,7.35,0,0,0-14.7,0,7.23,7.23,0,0,0,4.26,6.61,1,1,0,0,1,.57.91Z"/><rect class="cls-1" x="24" y="24.12" width="2" height="7.91"/><rect class="cls-1" x="23.24" y="23.12" width="3.52" height="2"/><path class="cls-1" d="M27.58,39.18H22.39c-.8,0-1.38-.75-1.38-1.79v-.31a2.27,2.27,0,0,1,.09-.65,2.39,2.39,0,0,1-.09-.66v-.31c0-1,.58-1.79,1.38-1.79h5.19c.79,0,1.37.75,1.37,1.79v.31a2.39,2.39,0,0,1-.09.66,2.27,2.27,0,0,1,.09.65v.31C29,38.43,28.37,39.18,27.58,39.18Zm-4.57-2H27v-.1a.84.84,0,0,0,0-.12.92.92,0,0,1,0-1.1v-.19H23v.1a.29.29,0,0,0,0,.12A.93.93,0,0,1,23,37s0,0,0,.08Z"/></g></svg>