<svg xmlns="http://www.w3.org/2000/svg" viewBox="0 0 50 50"><defs><style>.cls-1,.cls-2{fill:#3f8624;}.cls-2{fill-rule:evenodd;}</style></defs><title>IoT_Fire-TV-stick_light-bg</title><g id="Reference"><path class="cls-1" d="M40.32,35.38H2.5a1,1,0,0,1-1-1V15.62a1,1,0,0,1,1-1H40.32a2.56,2.56,0,0,1,2.56,2.56V32.82A2.56,2.56,0,0,1,40.32,35.38Zm-36.82-2H40.32a.57.57,0,0,0,.56-.56V17.18a.57.57,0,0,0-.56-.56H3.5Z"/><path class="cls-1" d="M47.5,32.56H41.88a1,1,0,0,1-1-1V18.44a1,1,0,0,1,1-1H47.5a1,1,0,0,1,1,1V31.56A1,1,0,0,1,47.5,32.56Zm-4.62-2H46.5V19.44H42.88Z"/><path class="cls-2" d="M32.43,24.19A21.57,21.57,0,0,1,20.28,27.9,22,22,0,0,1,5.45,22.24c-.31-.28,0-.66.33-.44a30,30,0,0,0,14.85,3.93A29.53,29.53,0,0,0,32,23.42C32.51,23.18,33,23.78,32.43,24.19Z"/><path class="cls-2" d="M33.8,22.62c-.42-.53-2.78-.25-3.84-.12-.32,0-.37-.25-.08-.45,1.88-1.32,5-.94,5.32-.5s-.1,3.54-1.86,5c-.27.23-.53.11-.41-.19C33.33,25.38,34.22,23.16,33.8,22.62Z"/></g></svg>