<svg xmlns="http://www.w3.org/2000/svg" viewBox="0 0 50 50"><defs><style>.cls-1{fill:#3f8624;}</style></defs><title>IoT_Servo_light-bg</title><g id="Reference"><path class="cls-1" d="M47.5,41.94H2.5a1,1,0,0,1-1-1V9.06a1,1,0,0,1,1-1h45a1,1,0,0,1,1,1V40.94A1,1,0,0,1,47.5,41.94Zm-44-2h43V10.06H3.5Z"/><path class="cls-1" d="M12.34,28.81A3.81,3.81,0,1,1,16.16,25,3.82,3.82,0,0,1,12.34,28.81Zm0-5.62A1.81,1.81,0,1,0,14.16,25,1.81,1.81,0,0,0,12.34,23.19Z"/><path class="cls-1" d="M28.75,28.81h-7.5a1,1,0,0,1-.88-.53,1,1,0,0,1,.05-1l3.75-5.63a1,1,0,0,1,1.66,0l3.75,5.63a1,1,0,0,1,.05,1A1,1,0,0,1,28.75,28.81Zm-5.63-2h3.76L25,24Z"/><path class="cls-1" d="M36.7,18.43a1,1,0,0,1-.45-.1,1,1,0,0,1-.51-.63l-.25-.91a6,6,0,0,1-.85,0l-.3.89a1,1,0,0,1-1.36.59l-3-1.37a1,1,0,0,1-.54-.6,1,1,0,0,1,.08-.81l.47-.81c-.2-.2-.39-.4-.58-.62l-.84.41a1,1,0,0,1-.81,0,1,1,0,0,1-.56-.57L26,10.8a1,1,0,0,1,.05-.8,1,1,0,0,1,.63-.51l.91-.25V9.06a1,1,0,0,1,1-1H42a1,1,0,0,1,1,1c0,.23,0,.45,0,.67l.89.31a1,1,0,0,1,.59,1.36l-1.37,3a1,1,0,0,1-.6.54,1,1,0,0,1-.81-.09l-.8-.47c-.2.21-.41.4-.63.59l.41.85a.93.93,0,0,1,0,.8,1,1,0,0,1-.57.57l-3.1,1.16A1,1,0,0,1,36.7,18.43Zm-.47-3.7a1,1,0,0,1,1,.73l.17.65,1.05-.39-.3-.61a1,1,0,0,1,.36-1.27,5.88,5.88,0,0,0,1.41-1.32,1,1,0,0,1,1.29-.26l.58.33.46-1-.64-.22a1,1,0,0,1-.66-1.15l0-.15H29.65a1,1,0,0,1-.73.89l-.65.17.39,1.05.6-.29a1,1,0,0,1,1.27.34,5.74,5.74,0,0,0,1.33,1.41,1,1,0,0,1,.26,1.29l-.33.58,1,.46.22-.63a1,1,0,0,1,1.15-.66,5.39,5.39,0,0,0,1.92.07Z"/><path class="cls-1" d="M21.42,41.94H8a1,1,0,0,1-1-1c0-.22,0-.44,0-.67L6.09,40a1,1,0,0,1-.58-1.36l1.37-3a1,1,0,0,1,.6-.53,1,1,0,0,1,.8.08l.82.47c.2-.2.4-.39.62-.58l-.41-.84a1,1,0,0,1,0-.81,1,1,0,0,1,.57-.57L13,31.63a1,1,0,0,1,.8,0,1,1,0,0,1,.51.63l.25.91.85,0,.3-.89A1,1,0,0,1,17,31.76l3,1.37a1,1,0,0,1,.54.6,1,1,0,0,1-.08.81l-.47.81c.2.2.39.4.58.62l.84-.41a1,1,0,0,1,.81,0,1,1,0,0,1,.56.57L24,39.2A1,1,0,0,1,24,40a1,1,0,0,1-.63.51l-.9.25v.18A1,1,0,0,1,21.42,41.94Zm-12.37-2H20.36a1,1,0,0,1,.73-.89l.65-.17-.4-1.05-.6.29a1,1,0,0,1-1.27-.34,5.74,5.74,0,0,0-1.33-1.41,1,1,0,0,1-.26-1.29l.33-.58-1-.46-.22.63a1,1,0,0,1-1.14.66,5.67,5.67,0,0,0-1.92-.06,1,1,0,0,1-1.12-.73l-.18-.65-1,.39.29.61a1,1,0,0,1-.35,1.28,5.86,5.86,0,0,0-1.41,1.31,1,1,0,0,1-1.29.27l-.59-.34-.46,1,.64.22a1,1,0,0,1,.66,1.13Z"/></g></svg>