<svg xmlns="http://www.w3.org/2000/svg" viewBox="0 0 50 50"><defs><style>.cls-1{fill:#3f8624;}</style></defs><title>IoT_Utility_light-bg</title><g id="Reference"><path class="cls-1" d="M40.68,43.81H9.32a3.13,3.13,0,0,1-3.13-3.13V9.34A3.14,3.14,0,0,1,9.32,6.2H40.68a3.14,3.14,0,0,1,3.13,3.14V40.68A3.13,3.13,0,0,1,40.68,43.81ZM9.32,8.2A1.14,1.14,0,0,0,8.19,9.34V40.68a1.14,1.14,0,0,0,1.13,1.13H40.68a1.14,1.14,0,0,0,1.13-1.13V9.34A1.14,1.14,0,0,0,40.68,8.2Z"/><rect class="cls-1" x="12.75" y="1.56" width="2" height="5.63"/><rect class="cls-1" x="18.38" y="1.56" width="2" height="5.63"/><rect class="cls-1" x="24" y="1.56" width="2" height="5.63"/><rect class="cls-1" x="29.63" y="1.56" width="2" height="5.63"/><rect class="cls-1" x="35.25" y="1.56" width="2" height="5.63"/><rect class="cls-1" x="12.75" y="42.81" width="2" height="5.63"/><rect class="cls-1" x="18.38" y="42.81" width="2" height="5.63"/><rect class="cls-1" x="24" y="42.81" width="2" height="5.63"/><rect class="cls-1" x="29.63" y="42.81" width="2" height="5.63"/><rect class="cls-1" x="35.25" y="42.81" width="2" height="5.63"/><rect class="cls-1" x="1.56" y="12.75" width="5.63" height="2"/><rect class="cls-1" x="1.56" y="18.38" width="5.63" height="2"/><rect class="cls-1" x="1.56" y="24" width="5.63" height="2"/><rect class="cls-1" x="1.56" y="29.63" width="5.63" height="2"/><rect class="cls-1" x="1.56" y="35.25" width="5.63" height="2"/><rect class="cls-1" x="42.81" y="12.75" width="5.63" height="2"/><rect class="cls-1" x="42.81" y="18.38" width="5.63" height="2"/><rect class="cls-1" x="42.81" y="24" width="5.63" height="2"/><rect class="cls-1" x="42.81" y="29.63" width="5.63" height="2"/><rect class="cls-1" x="42.81" y="35.25" width="5.63" height="2"/><path class="cls-1" d="M36.25,29.75H30.54a1,1,0,0,1-1-1V26H11.88a1,1,0,0,1-1-1V19.38a1,1,0,0,1,1-1H30.24a7,7,0,0,1,7,7v3.36A1,1,0,0,1,36.25,29.75Zm-4.71-2h3.71V25.39a5,5,0,0,0-5-5H12.88V24H29.66a1.89,1.89,0,0,1,1.88,1.89Z"/><path class="cls-1" d="M33.91,40.06a3.35,3.35,0,0,1-3.35-3.34c0-1.17.9-2.84,2-4.75.2-.35.37-.65.47-.85a1,1,0,0,1,1.79,0c.1.2.27.5.47.85,1.08,1.91,2,3.58,2,4.75A3.35,3.35,0,0,1,33.91,40.06Zm0-6.44a10.84,10.84,0,0,0-1.35,3.1,1.35,1.35,0,0,0,2.69,0A10.76,10.76,0,0,0,33.91,33.62Z"/><path class="cls-1" d="M30.62,15.69H17.5a1,1,0,0,1-1-1V11.88a1,1,0,0,1,1-1H30.62a1,1,0,0,1,1,1v2.81A1,1,0,0,1,30.62,15.69Zm-12.12-2H29.62v-.81H18.5Z"/><rect class="cls-1" x="23.06" y="13.95" width="2" height="4.49"/></g></svg>