<svg xmlns="http://www.w3.org/2000/svg" viewBox="0 0 50 50"><defs><style>.cls-1{fill:#3f8624;}</style></defs><title>IoT_Thermostat_light-bg</title><g id="Reference"><path class="cls-1" d="M40.81,43.81H9.19a3,3,0,0,1-3-3V9.2a3,3,0,0,1,3-3H40.81a3,3,0,0,1,3,3V40.82A3,3,0,0,1,40.81,43.81ZM9.19,8.21a1,1,0,0,0-1,1V40.82a1,1,0,0,0,1,1H40.81a1,1,0,0,0,1-1V9.2a1,1,0,0,0-1-1Z"/><rect class="cls-1" x="12.75" y="1.56" width="2" height="5.63"/><rect class="cls-1" x="18.38" y="1.56" width="2" height="5.63"/><rect class="cls-1" x="24" y="1.56" width="2" height="5.63"/><rect class="cls-1" x="29.63" y="1.56" width="2" height="5.63"/><rect class="cls-1" x="35.25" y="1.56" width="2" height="5.63"/><rect class="cls-1" x="12.75" y="42.81" width="2" height="5.63"/><rect class="cls-1" x="18.38" y="42.81" width="2" height="5.63"/><rect class="cls-1" x="24" y="42.81" width="2" height="5.63"/><rect class="cls-1" x="29.63" y="42.81" width="2" height="5.63"/><rect class="cls-1" x="35.25" y="42.81" width="2" height="5.63"/><rect class="cls-1" x="1.56" y="12.75" width="5.63" height="2"/><rect class="cls-1" x="1.56" y="18.38" width="5.63" height="2"/><rect class="cls-1" x="1.56" y="24" width="5.63" height="2"/><rect class="cls-1" x="1.56" y="29.63" width="5.63" height="2"/><rect class="cls-1" x="1.56" y="35.25" width="5.63" height="2"/><rect class="cls-1" x="42.81" y="12.75" width="5.63" height="2"/><rect class="cls-1" x="42.81" y="18.38" width="5.63" height="2"/><rect class="cls-1" x="42.81" y="24" width="5.63" height="2"/><rect class="cls-1" x="42.81" y="29.63" width="5.63" height="2"/><rect class="cls-1" x="42.81" y="35.25" width="5.63" height="2"/><path class="cls-1" d="M25,39.59A14.59,14.59,0,1,1,39.59,25,14.6,14.6,0,0,1,25,39.59Zm0-27.18A12.59,12.59,0,1,0,37.59,25,12.61,12.61,0,0,0,25,12.41Z"/><rect class="cls-1" x="24" y="17.5" width="2" height="13.13"/><rect class="cls-1" x="22.19" y="18.38" width="2.81" height="2"/><rect class="cls-1" x="22.19" y="22.13" width="2.81" height="2"/><rect class="cls-1" x="22.19" y="25.88" width="2.81" height="2"/><path class="cls-1" d="M25,35.84a3.34,3.34,0,1,1,3.34-3.34A3.35,3.35,0,0,1,25,35.84Zm0-4.68a1.34,1.34,0,1,0,1.34,1.34A1.34,1.34,0,0,0,25,31.16Z"/><rect class="cls-1" x="33.99" y="20" width="3.49" height="2" transform="translate(-5.09 13.84) rotate(-20.5)"/><rect class="cls-1" x="28.01" y="13.58" width="3.5" height="2" transform="translate(4.17 35.64) rotate(-65.55)"/><rect class="cls-1" x="20" y="12.52" width="2" height="3.49" transform="translate(-3.67 8.26) rotate(-20.5)"/><rect class="cls-1" x="13.58" y="18.49" width="2" height="3.5" transform="translate(-9.88 25.14) rotate(-65.56)"/></g></svg>