<svg xmlns="http://www.w3.org/2000/svg" viewBox="0 0 50 50"><defs><style>.cls-1{fill:#3f8624;}</style></defs><title>IoT_Sensor_light-bg</title><g id="Reference"><path class="cls-1" d="M38.33,28.87H27.81v-2H38.25c.15,0,5.64-.56,5.64-6.14,0-4.7-3.93-5.87-5.62-6.16a1,1,0,0,1-.83-1.09c-.2-2.85-1.89-4.17-3.48-4.17a3.16,3.16,0,0,0-2.54,1.33,1,1,0,0,1-1.75-.26,11,11,0,0,0-2.54-4.15,9.13,9.13,0,0,0-10.26-2,9.49,9.49,0,0,0-5.37,8.26,10.94,10.94,0,0,0,.06,1.12,1,1,0,0,1-.74,1.09,5.79,5.79,0,0,0-4.71,6c0,.19,0,.36,0,.54a6.22,6.22,0,0,0,6.34,5.65h9.73v2H12.46a8.22,8.22,0,0,1-8.33-7.54c0-.22,0-.42,0-.65A7.74,7.74,0,0,1,9.51,13c0-.17,0-.34,0-.51a11.45,11.45,0,0,1,6.59-10.1A11.1,11.1,0,0,1,28.53,4.81,12.3,12.3,0,0,1,31,8.29a5.09,5.09,0,0,1,3-1c2.3,0,4.89,1.71,5.41,5.45,3.28.8,6.52,3.25,6.52,8A8,8,0,0,1,38.33,28.87Z"/><path class="cls-1" d="M45.62,48.56H4.38a1,1,0,0,1-1-1V35.38a1,1,0,0,1,1-1H45.62a1,1,0,0,1,1,1V47.56A1,1,0,0,1,45.62,48.56Zm-40.24-2H44.62V36.38H5.38Z"/><path class="cls-1" d="M11.41,45a3.53,3.53,0,1,1,3.53-3.53A3.53,3.53,0,0,1,11.41,45Zm0-5.06a1.53,1.53,0,1,0,1.53,1.53A1.53,1.53,0,0,0,11.41,39.94Z"/><path class="cls-1" d="M28.75,44.75h-7.5a1,1,0,0,1-.8-1.6l3.75-5.08a1,1,0,0,1,1.6,0l3.75,5.08a1,1,0,0,1-.8,1.6Zm-5.52-2h3.54L25,40.35Z"/><path class="cls-1" d="M28,23.9l-3-3-3,3-1.42-1.42,3.75-3.75a1,1,0,0,1,1.42,0l3.75,3.75Z"/><rect class="cls-1" x="24" y="19.89" width="2" height="14.48"/></g></svg>