<svg xmlns="http://www.w3.org/2000/svg" viewBox="0 0 50 50"><defs><style>.cls-1{fill:#3f8624;}</style></defs><title>IoT_Police-emergency_light-bg</title><g id="Reference"><path class="cls-1" d="M40.68,43.81H9.32a3.13,3.13,0,0,1-3.13-3.13V9.34A3.14,3.14,0,0,1,9.32,6.2H40.68a3.14,3.14,0,0,1,3.13,3.14V40.68A3.13,3.13,0,0,1,40.68,43.81ZM9.32,8.2A1.14,1.14,0,0,0,8.19,9.34V40.68a1.14,1.14,0,0,0,1.13,1.13H40.68a1.14,1.14,0,0,0,1.13-1.13V9.34A1.14,1.14,0,0,0,40.68,8.2Z"/><rect class="cls-1" x="12.75" y="1.56" width="2" height="5.63"/><rect class="cls-1" x="18.38" y="1.56" width="2" height="5.63"/><rect class="cls-1" x="24" y="1.56" width="2" height="5.63"/><rect class="cls-1" x="29.63" y="1.56" width="2" height="5.63"/><rect class="cls-1" x="35.25" y="1.56" width="2" height="5.63"/><rect class="cls-1" x="12.75" y="42.81" width="2" height="5.63"/><rect class="cls-1" x="18.38" y="42.81" width="2" height="5.63"/><rect class="cls-1" x="24" y="42.81" width="2" height="5.63"/><rect class="cls-1" x="29.63" y="42.81" width="2" height="5.63"/><rect class="cls-1" x="35.25" y="42.81" width="2" height="5.63"/><rect class="cls-1" x="1.56" y="12.75" width="5.63" height="2"/><rect class="cls-1" x="1.56" y="18.38" width="5.63" height="2"/><rect class="cls-1" x="1.56" y="24" width="5.63" height="2"/><rect class="cls-1" x="1.56" y="29.63" width="5.63" height="2"/><rect class="cls-1" x="1.56" y="35.25" width="5.63" height="2"/><rect class="cls-1" x="42.81" y="12.75" width="5.63" height="2"/><rect class="cls-1" x="42.81" y="18.38" width="5.63" height="2"/><rect class="cls-1" x="42.81" y="24" width="5.63" height="2"/><rect class="cls-1" x="42.81" y="29.63" width="5.63" height="2"/><rect class="cls-1" x="42.81" y="35.25" width="5.63" height="2"/><path class="cls-1" d="M25,38.45,24.39,38a12.77,12.77,0,0,0-4.83-2.15c-4-.71-6.34-2.92-6.34-5.92A7.44,7.44,0,0,1,14.48,26a4.41,4.41,0,0,0,.84-2.28,4.34,4.34,0,0,0-1.44-3L13.11,20l.63-.78s2.64-3.19,3.23-4l.71-1,.82.88a4.15,4.15,0,0,0,2.92,1.48A3.28,3.28,0,0,0,24.21,15L25,14l.79,1a3.28,3.28,0,0,0,2.79,1.61,4.15,4.15,0,0,0,2.92-1.48l.82-.88.71,1c.59.81,3.2,4,3.23,4l.64.78-.79.64a4.33,4.33,0,0,0-1.43,3A4.41,4.41,0,0,0,35.52,26a7.44,7.44,0,0,1,1.26,3.95c0,3-2.37,5.21-6.34,5.92A12.77,12.77,0,0,0,25.61,38ZM15.85,19.83a6,6,0,0,1,1.47,3.85A6.32,6.32,0,0,1,16.21,27a5.49,5.49,0,0,0-1,2.94c0,2.81,3.28,3.7,4.7,4A14.46,14.46,0,0,1,25,36a14.46,14.46,0,0,1,5.08-2.1c1.42-.26,4.7-1.15,4.7-4a5.49,5.49,0,0,0-1-2.94,6.32,6.32,0,0,1-1.11-3.29,6,6,0,0,1,1.47-3.85c-.56-.68-1.42-1.73-2-2.52a5.67,5.67,0,0,1-3.52,1.32A4.92,4.92,0,0,1,25,17.13a4.92,4.92,0,0,1-3.58,1.5,5.67,5.67,0,0,1-3.52-1.32C17.27,18.1,16.41,19.15,15.85,19.83Z"/></g></svg>