<svg xmlns="http://www.w3.org/2000/svg" viewBox="0 0 50 50"><defs><style>.cls-1{fill:#3f8624;}</style></defs><title>IoT_MQTT-protocol_light-bg</title><g id="Reference"><path class="cls-1" d="M25.63,44.69V38.58L24,42.68h-1l-1.6-4.1v6.11h-1v-7.8h1.23l1.85,4.77,1.87-4.77h1.18v7.8Z"/><path class="cls-1" d="M28.12,40.79a5,5,0,0,1,.77-3,2.76,2.76,0,0,1,4.35,0,5,5,0,0,1,.77,3,5.57,5.57,0,0,1-.54,2.62,2.53,2.53,0,0,1-1.54,1.32,3.35,3.35,0,0,0,.94.55,3.83,3.83,0,0,0,1.06.26v1A4.68,4.68,0,0,1,32.31,46a5.61,5.61,0,0,1-1.4-1.11,2.62,2.62,0,0,1-1.52-.54,3,3,0,0,1-.95-1.4A6.45,6.45,0,0,1,28.12,40.79Zm1.11,0a4.85,4.85,0,0,0,.46,2.35,1.59,1.59,0,0,0,2.75,0,4.74,4.74,0,0,0,.46-2.35,4.65,4.65,0,0,0-.46-2.33,1.59,1.59,0,0,0-2.75,0A4.77,4.77,0,0,0,29.23,40.79Z"/><path class="cls-1" d="M36.54,44.69V37.8H34.61v-.91h5v.91H37.64v6.89Z"/><path class="cls-1" d="M42.17,44.69V37.8H40.23v-.91h5v.91h-2v6.89Z"/><path class="cls-1" d="M15.62,48.5h-8A6.12,6.12,0,0,1,1.5,42.39V7.61A6.12,6.12,0,0,1,7.61,1.5H42.39A6.12,6.12,0,0,1,48.5,7.61v23h-2v-23A4.11,4.11,0,0,0,42.39,3.5H7.61A4.11,4.11,0,0,0,3.5,7.61V42.39A4.11,4.11,0,0,0,7.61,46.5h8Z"/><path class="cls-1" d="M48.5,48.5H17.44V32.44H48.5Zm-29.06-2H46.5V34.44H19.44Z"/><polygon class="cls-1" points="48.5 48.5 42.39 48.5 42.39 46.5 46.5 46.5 46.5 42.39 48.5 42.39 48.5 48.5"/></g></svg>