<svg xmlns="http://www.w3.org/2000/svg" viewBox="0 0 50 50"><defs><style>.cls-1{fill:#3f8624;}</style></defs><title>IoT_Factory_light-bg</title><g id="Reference"><path class="cls-1" d="M39.56,42.7H10.44A3.15,3.15,0,0,1,7.3,39.56V10.45a3.14,3.14,0,0,1,3.14-3.13H39.56a3.14,3.14,0,0,1,3.14,3.13V39.56A3.15,3.15,0,0,1,39.56,42.7ZM10.44,9.32A1.13,1.13,0,0,0,9.3,10.45V39.56a1.14,1.14,0,0,0,1.14,1.14H39.56a1.14,1.14,0,0,0,1.14-1.14V10.45a1.13,1.13,0,0,0-1.14-1.13Z"/><rect class="cls-1" x="13.45" y="3.03" width="2" height="5.27"/><rect class="cls-1" x="18.73" y="3.03" width="2" height="5.27"/><rect class="cls-1" x="24" y="3.03" width="2" height="5.27"/><rect class="cls-1" x="29.27" y="3.03" width="2" height="5.27"/><rect class="cls-1" x="34.55" y="3.03" width="2" height="5.27"/><rect class="cls-1" x="13.45" y="41.7" width="2" height="5.27"/><rect class="cls-1" x="18.73" y="41.7" width="2" height="5.27"/><rect class="cls-1" x="24" y="41.7" width="2" height="5.27"/><rect class="cls-1" x="29.27" y="41.7" width="2" height="5.27"/><rect class="cls-1" x="34.55" y="41.7" width="2" height="5.27"/><rect class="cls-1" x="3.03" y="13.45" width="5.27" height="2"/><rect class="cls-1" x="3.03" y="18.73" width="5.27" height="2"/><rect class="cls-1" x="3.03" y="24" width="5.27" height="2"/><rect class="cls-1" x="3.03" y="29.27" width="5.27" height="2"/><rect class="cls-1" x="3.03" y="34.55" width="5.27" height="2"/><rect class="cls-1" x="41.7" y="13.45" width="5.27" height="2"/><rect class="cls-1" x="41.7" y="18.73" width="5.27" height="2"/><rect class="cls-1" x="41.7" y="24" width="5.27" height="2"/><rect class="cls-1" x="41.7" y="29.27" width="5.27" height="2"/><rect class="cls-1" x="41.7" y="34.55" width="5.27" height="2"/><path class="cls-1" d="M37.3,38.3H26.76a1,1,0,0,1-1-1v-6H24.24v6a1,1,0,0,1-1,1H12.7a1,1,0,0,1-1-1V13.57a1,1,0,0,1,.41-.81,1,1,0,0,1,.91-.13l16.25,5.56V13.57a1,1,0,0,1,1-1h2.64a1,1,0,0,1,1,1v6.21l3.72,1.27a1,1,0,0,1,.67.94V37.3A1,1,0,0,1,37.3,38.3Zm-9.54-2H36.3V22.71l-3.71-1.27a1,1,0,0,1-.68-1V14.57h-.64v5a1,1,0,0,1-.42.81,1,1,0,0,1-.9.13L13.7,15V36.3h8.54v-6a1,1,0,0,1,1-1h3.52a1,1,0,0,1,1,1Z"/><path class="cls-1" d="M19.73,26.88H16.21a1,1,0,0,1-1-1V22.36a1,1,0,0,1,1-1h3.52a1,1,0,0,1,1,1v3.52A1,1,0,0,1,19.73,26.88Zm-2.52-2h1.52V23.36H17.21Z"/><path class="cls-1" d="M26.76,26.88H23.24a1,1,0,0,1-1-1V22.36a1,1,0,0,1,1-1h3.52a1,1,0,0,1,1,1v3.52A1,1,0,0,1,26.76,26.88Zm-2.52-2h1.52V23.36H24.24Z"/><path class="cls-1" d="M19.73,34.79H16.21a1,1,0,0,1-1-1V30.27a1,1,0,0,1,1-1h3.52a1,1,0,0,1,1,1v3.52A1,1,0,0,1,19.73,34.79Zm-2.52-2h1.52V31.27H17.21Z"/><path class="cls-1" d="M33.79,34.79H30.27a1,1,0,0,1-1-1V30.27a1,1,0,0,1,1-1h3.52a1,1,0,0,1,1,1v3.52A1,1,0,0,1,33.79,34.79Zm-2.52-2h1.52V31.27H31.27Z"/></g></svg>