<svg xmlns="http://www.w3.org/2000/svg" viewBox="0 0 50 50"><defs><style>.cls-1,.cls-2{fill:#3f8624;}.cls-2{fill-rule:evenodd;}</style></defs><title>IoT_Fire-TV_light-bg</title><g id="Reference"><path class="cls-1" d="M47.5,35.84H2.5a1,1,0,0,1-1-1V9.53a1,1,0,0,1,1-1h45a1,1,0,0,1,1,1V34.84A1,1,0,0,1,47.5,35.84Zm-44-2h43V10.53H3.5Z"/><rect class="cls-1" x="24" y="34.84" width="2" height="5.63"/><rect class="cls-1" x="18.44" y="39.47" width="13.12" height="2"/><path class="cls-2" d="M39.39,22.08A25.55,25.55,0,0,1,25,26.49,26.08,26.08,0,0,1,7.35,19.77c-.37-.33,0-.78.39-.52a35.59,35.59,0,0,0,17.63,4.67,35,35,0,0,0,13.45-2.75C39.48,20.89,40,21.61,39.39,22.08Z"/><path class="cls-2" d="M41,20.23c-.5-.64-3.3-.3-4.55-.15-.38,0-.44-.29-.1-.53,2.23-1.57,5.89-1.12,6.32-.59s-.12,4.2-2.21,5.95c-.32.27-.63.12-.48-.23C40.46,23.5,41.51,20.87,41,20.23Z"/></g></svg>