<svg xmlns="http://www.w3.org/2000/svg" viewBox="0 0 50 50"><defs><style>.cls-1{fill:#3f8624;}</style></defs><title>IoT_Simulator_light-bg</title><g id="Reference"><path class="cls-1" d="M38.33,28.87l-25.87,0a8.22,8.22,0,0,1-8.33-7.54c0-.21,0-.43,0-.64A7.74,7.74,0,0,1,9.51,13c0-.17,0-.35,0-.52a11.47,11.47,0,0,1,6.59-10.1A11.12,11.12,0,0,1,28.53,4.82a10.31,10.31,0,0,1,1.56,1.93L28.4,7.81a9,9,0,0,0-1.27-1.57,9.12,9.12,0,0,0-10.27-2,9.47,9.47,0,0,0-5.36,8.25,9.16,9.16,0,0,0,.07,1.14,1,1,0,0,1-.75,1.08,5.8,5.8,0,0,0-4.71,6c0,.18,0,.36,0,.53a6.22,6.22,0,0,0,6.34,5.65l25.79,0c.15,0,5.64-.56,5.64-6.15,0-4.69-3.93-5.87-5.63-6.17a1,1,0,0,1-.82-1.08c-.23-2.84-1.78-4-3.17-4.16l.21-2c2,.2,4.39,1.76,4.89,5.42,2.2.55,6.52,2.36,6.52,8A8,8,0,0,1,38.33,28.87Z"/><path class="cls-1" d="M32.5,48.56H16.56a1,1,0,0,1-1-1V31.63a1,1,0,0,1,1-1H32.5a1,1,0,0,1,1,1V47.56A1,1,0,0,1,32.5,48.56Zm-14.94-2H31.5V32.63H17.56Z"/><path class="cls-1" d="M21.72,39.42a3.11,3.11,0,1,1,3.11-3.11A3.11,3.11,0,0,1,21.72,39.42Zm0-4.22a1.11,1.11,0,1,0,1.11,1.11A1.11,1.11,0,0,0,21.72,35.2Z"/><rect class="cls-1" x="23.96" y="35.35" width="8.5" height="2"/><path class="cls-1" d="M27.34,46a3.11,3.11,0,1,1,3.11-3.11A3.12,3.12,0,0,1,27.34,46Zm0-4.22a1.11,1.11,0,1,0,1.11,1.11A1.11,1.11,0,0,0,27.34,41.77Z"/><rect class="cls-1" x="16.6" y="41.84" width="8.55" height="2"/><path class="cls-1" d="M31.56,25.2H17.5a1,1,0,0,1-1-1V10.14a1,1,0,0,1,1-1H31.56a1,1,0,0,1,1,1V24.2A1,1,0,0,1,31.56,25.2Zm-13.06-2H30.56V11.14H18.5Z"/><path class="cls-1" d="M22.65,17.39a2.64,2.64,0,1,1,2.64-2.64A2.64,2.64,0,0,1,22.65,17.39Zm0-3.28a.64.64,0,1,0,.64.64A.64.64,0,0,0,22.65,14.11Z"/><rect class="cls-1" x="24.11" y="13.75" width="7.5" height="2"/><path class="cls-1" d="M26.43,22.09a2.64,2.64,0,1,1,2.64-2.64A2.64,2.64,0,0,1,26.43,22.09Zm0-3.28a.64.64,0,1,0,.64.64A.64.64,0,0,0,26.43,18.81Z"/><rect class="cls-1" x="17.51" y="18.45" width="7.11" height="2"/></g></svg>