<svg xmlns="http://www.w3.org/2000/svg" viewBox="0 0 50 50"><defs><style>.cls-1{fill:#3f8624;}</style></defs><title>IoT_Camera_light-bg</title><g id="Reference"><path class="cls-1" d="M39.56,42.7H10.44A3.15,3.15,0,0,1,7.3,39.56V10.45a3.14,3.14,0,0,1,3.14-3.13H39.56a3.14,3.14,0,0,1,3.14,3.13V39.56A3.15,3.15,0,0,1,39.56,42.7ZM10.44,9.32A1.13,1.13,0,0,0,9.3,10.45V39.56a1.14,1.14,0,0,0,1.14,1.14H39.56a1.14,1.14,0,0,0,1.14-1.14V10.45a1.13,1.13,0,0,0-1.14-1.13Z"/><rect class="cls-1" x="13.45" y="3.03" width="2" height="5.27"/><rect class="cls-1" x="18.73" y="3.03" width="2" height="5.27"/><rect class="cls-1" x="24" y="3.03" width="2" height="5.27"/><rect class="cls-1" x="29.27" y="3.03" width="2" height="5.27"/><rect class="cls-1" x="34.55" y="3.03" width="2" height="5.27"/><rect class="cls-1" x="13.45" y="41.7" width="2" height="5.27"/><rect class="cls-1" x="18.73" y="41.7" width="2" height="5.27"/><rect class="cls-1" x="24" y="41.7" width="2" height="5.27"/><rect class="cls-1" x="29.27" y="41.7" width="2" height="5.27"/><rect class="cls-1" x="34.55" y="41.7" width="2" height="5.27"/><rect class="cls-1" x="3.03" y="13.45" width="5.27" height="2"/><rect class="cls-1" x="3.03" y="18.73" width="5.27" height="2"/><rect class="cls-1" x="3.03" y="24" width="5.27" height="2"/><rect class="cls-1" x="3.03" y="29.27" width="5.27" height="2"/><rect class="cls-1" x="3.03" y="34.55" width="5.27" height="2"/><rect class="cls-1" x="41.7" y="13.45" width="5.27" height="2"/><rect class="cls-1" x="41.7" y="18.73" width="5.27" height="2"/><rect class="cls-1" x="41.7" y="24" width="5.27" height="2"/><rect class="cls-1" x="41.7" y="29.27" width="5.27" height="2"/><rect class="cls-1" x="41.7" y="34.55" width="5.27" height="2"/><path class="cls-1" d="M26.18,34.23a8,8,0,1,1,8-8A8,8,0,0,1,26.18,34.23Zm0-14a6,6,0,1,0,6,6A6,6,0,0,0,26.18,20.27Z"/><path class="cls-1" d="M26.18,31.43a5.19,5.19,0,1,1,5.19-5.18A5.19,5.19,0,0,1,26.18,31.43Zm0-8.37a3.19,3.19,0,1,0,3.19,3.19A3.19,3.19,0,0,0,26.18,23.06Z"/><path class="cls-1" d="M18,19H14.45a1,1,0,0,1-1-1V16.41a1.92,1.92,0,0,1,1.74-2.08h2A1.91,1.91,0,0,1,19,16.41V18A1,1,0,0,1,18,19Zm-2.52-2H17v-.56a.22.22,0,0,0,0-.08h-1.5s0,.05,0,.08Z"/><path class="cls-1" d="M17.42,22.36H15a.53.53,0,0,1-.55-.5v-.75a.53.53,0,0,1,.55-.5h2.42a.53.53,0,0,1,.55.5v.75A.53.53,0,0,1,17.42,22.36Z"/><path class="cls-1" d="M36.55,36.55H13.43a2.64,2.64,0,0,1-2.63-2.64V19.59A2.63,2.63,0,0,1,13.43,17h7.28L21,15.58c.17-.83.89-2.13,2.1-2.13h6.29c1.21,0,1.94,1.3,2.11,2.13L31.79,17h4.76a2.63,2.63,0,0,1,2.63,2.63V33.91A2.64,2.64,0,0,1,36.55,36.55ZM13.43,19a.63.63,0,0,0-.63.63V33.91a.64.64,0,0,0,.63.64H36.55a.64.64,0,0,0,.63-.64V19.59a.63.63,0,0,0-.63-.63H31a1,1,0,0,1-1-.8L29.54,16a1.39,1.39,0,0,0-.27-.53h-6A1.26,1.26,0,0,0,23,16l-.46,2.18a1,1,0,0,1-1,.8Z"/></g></svg>