<svg xmlns="http://www.w3.org/2000/svg" viewBox="0 0 50 50"><defs><style>.cls-1{fill:#3f8624;}</style></defs><title>IoT_Shadow_light-bg</title><g id="Reference"><path class="cls-1" d="M40.07,32.56l-29.26,0a9.22,9.22,0,0,1-9.29-8.48c0-.23,0-.47,0-.72a8.62,8.62,0,0,1,6.12-8.68c0-.23,0-.46,0-.69A12.94,12.94,0,0,1,15,2.56,12.34,12.34,0,0,1,28.91,5.33a14.07,14.07,0,0,1,2.8,4.08,5.49,5.49,0,0,1,5-1c2.44.71,4.07,2.92,4.47,6,3.69.89,7.36,3.65,7.36,9C48.5,30.1,43,32.32,40.07,32.56ZM8.86,16.37a6.72,6.72,0,0,0-5.36,7c0,.2,0,.4,0,.6a7.21,7.21,0,0,0,7.29,6.6l29.18,0c.18,0,6.51-.65,6.51-7.16,0-5.48-4.53-6.85-6.48-7.18a1,1,0,0,1-.82-1.12c-.2-2.46-1.35-4.23-3.09-4.74a3.61,3.61,0,0,0-4,1.43,1,1,0,0,1-.95.39,1,1,0,0,1-.8-.66,12.69,12.69,0,0,0-2.92-4.78A10.36,10.36,0,0,0,15.75,4.4,11,11,0,0,0,9.6,14a9.36,9.36,0,0,0,.08,1.3,1,1,0,0,1-.78,1.1Z"/><path class="cls-1" d="M40,28.81H9.06a1,1,0,0,1-1-1V18.43a1,1,0,0,1,1-1H40a1,1,0,0,1,1,1v9.38A1,1,0,0,1,40,28.81Zm-29.94-2H39V19.43H10.06Z"/><path class="cls-1" d="M13.75,26.13a3,3,0,1,1,3-3A3,3,0,0,1,13.75,26.13Zm0-4a1,1,0,1,0,1,1A1,1,0,0,0,13.75,22.11Z"/><path class="cls-1" d="M27.5,26H21.25a1,1,0,0,1-.91-.58,1,1,0,0,1,.14-1.06l3.13-3.75a1,1,0,0,1,1.53,0l3.13,3.75a1,1,0,0,1,.14,1.06A1,1,0,0,1,27.5,26Zm-4.11-2h2l-1-1.19Z"/><path class="cls-1" d="M37.19,26.06H33.43a1,1,0,0,1-1-1V21.3a1,1,0,0,1,1-1h3.76a1,1,0,0,1,1,1v3.76A1,1,0,0,1,37.19,26.06Zm-2.76-2h1.76V22.3H34.43Z"/><path class="cls-1" d="M45.62,48.5H4.38a1,1,0,0,1-1-1V35.31a1,1,0,0,1,1-1H45.62a1,1,0,0,1,1,1V47.5A1,1,0,0,1,45.62,48.5Zm-40.24-2H44.62V36.31H5.38Z"/><path class="cls-1" d="M11.41,44.93a3.53,3.53,0,1,1,3.53-3.53A3.53,3.53,0,0,1,11.41,44.93Zm0-5.06a1.53,1.53,0,1,0,1.53,1.53A1.53,1.53,0,0,0,11.41,39.87Z"/><path class="cls-1" d="M28.75,44.68h-7.5a1,1,0,0,1-.89-.55,1,1,0,0,1,.09-1.05L24.2,38a1,1,0,0,1,1.6,0l3.75,5.08a1,1,0,0,1,.09,1.05A1,1,0,0,1,28.75,44.68Zm-5.52-2h3.54L25,40.28Z"/><path class="cls-1" d="M40.94,44.75H36.25a1,1,0,0,1-1-1V39.06a1,1,0,0,1,1-1h4.69a1,1,0,0,1,1,1v4.69A1,1,0,0,1,40.94,44.75Zm-3.69-2h2.69V40.06H37.25Z"/></g></svg>