<svg xmlns="http://www.w3.org/2000/svg" viewBox="0 0 50 50"><defs><style>.cls-1{fill:#3f8624;}</style></defs><title>IoT_Actuator_light-bg</title><g id="Reference"><path class="cls-1" d="M38.33,28.84H31.56v-2h6.69c.15,0,5.64-.56,5.64-6.14,0-4.69-3.93-5.88-5.63-6.17a1,1,0,0,1-.82-1.08c-.17-2.1-1.15-3.61-2.63-4a3.14,3.14,0,0,0-3.39,1.2l-1.6-1.2a5.11,5.11,0,0,1,5.55-1.92c2.16.64,3.63,2.58,4,5.24,2.2.56,6.52,2.36,6.52,8A8,8,0,0,1,38.33,28.84Z"/><path class="cls-1" d="M18.44,28.82h-6a8.21,8.21,0,0,1-8.32-7.53c0-.22,0-.43,0-.65A7.74,7.74,0,0,1,9.51,13c0-.18,0-.35,0-.52a11.45,11.45,0,0,1,6.59-10.1A11.12,11.12,0,0,1,28.53,4.78a12.81,12.81,0,0,1,3,4.89.92.92,0,0,1,.06.33h-1l-.93.33a10.71,10.71,0,0,0-2.54-4.13,9.14,9.14,0,0,0-10.27-2,9.49,9.49,0,0,0-5.36,8.26,8.9,8.9,0,0,0,.07,1.13,1,1,0,0,1-.75,1.09,5.79,5.79,0,0,0-4.71,6c0,.18,0,.36,0,.53a6.22,6.22,0,0,0,6.34,5.65h6Z"/><path class="cls-1" d="M25,33.53a1,1,0,0,1-.71-.29l-3.75-3.75L22,28.07l3,3.05,3-3.05,1.42,1.42-3.75,3.75A1,1,0,0,1,25,33.53Z"/><rect class="cls-1" x="24" y="21.28" width="2" height="10.8"/><path class="cls-1" d="M25,22.75a4.28,4.28,0,1,1,4.28-4.28A4.28,4.28,0,0,1,25,22.75Zm0-6.56a2.28,2.28,0,1,0,2.28,2.28A2.28,2.28,0,0,0,25,16.19Z"/><path class="cls-1" d="M45.62,48.6H4.38a1,1,0,0,1-1-1V35.41a1,1,0,0,1,1-1H45.62a1,1,0,0,1,1,1V47.6A1,1,0,0,1,45.62,48.6Zm-40.24-2H44.62V36.41H5.38Z"/><path class="cls-1" d="M11.41,45A3.58,3.58,0,1,1,15,41.44,3.57,3.57,0,0,1,11.41,45Zm0-5.15a1.58,1.58,0,1,0,0,3.15,1.58,1.58,0,0,0,0-3.15Z"/><path class="cls-1" d="M28.75,44.78h-7.5a1,1,0,0,1-.8-1.59L24.2,38.1a1,1,0,0,1,1.6,0l3.75,5.09a1,1,0,0,1-.8,1.59Zm-5.52-2h3.54L25,40.38Z"/><path class="cls-1" d="M40.94,44.85H36.25a1,1,0,0,1-1-1V39.16a1,1,0,0,1,1-1h4.69a1,1,0,0,1,1,1v4.69A1,1,0,0,1,40.94,44.85Zm-3.69-2h2.69V40.16H37.25Z"/></g></svg>