<svg xmlns="http://www.w3.org/2000/svg" viewBox="0 0 50 50"><defs><style>.cls-1{fill:#3f8624;}</style></defs><title>IoT_Car_light-bg</title><g id="Reference"><path class="cls-1" d="M39.56,42.7H10.44A3.15,3.15,0,0,1,7.3,39.56V10.45a3.14,3.14,0,0,1,3.14-3.13H39.56a3.14,3.14,0,0,1,3.14,3.13V39.56A3.15,3.15,0,0,1,39.56,42.7ZM10.44,9.32A1.13,1.13,0,0,0,9.3,10.45V39.56a1.14,1.14,0,0,0,1.14,1.14H39.56a1.14,1.14,0,0,0,1.14-1.14V10.45a1.13,1.13,0,0,0-1.14-1.13Z"/><rect class="cls-1" x="13.45" y="3.03" width="2" height="5.27"/><rect class="cls-1" x="18.73" y="3.03" width="2" height="5.27"/><rect class="cls-1" x="24" y="3.03" width="2" height="5.27"/><rect class="cls-1" x="29.27" y="3.03" width="2" height="5.27"/><rect class="cls-1" x="34.55" y="3.03" width="2" height="5.27"/><rect class="cls-1" x="13.45" y="41.7" width="2" height="5.27"/><rect class="cls-1" x="18.73" y="41.7" width="2" height="5.27"/><rect class="cls-1" x="24" y="41.7" width="2" height="5.27"/><rect class="cls-1" x="29.27" y="41.7" width="2" height="5.27"/><rect class="cls-1" x="34.55" y="41.7" width="2" height="5.27"/><rect class="cls-1" x="3.03" y="13.45" width="5.27" height="2"/><rect class="cls-1" x="3.03" y="18.73" width="5.27" height="2"/><rect class="cls-1" x="3.03" y="24" width="5.27" height="2"/><rect class="cls-1" x="3.03" y="29.27" width="5.27" height="2"/><rect class="cls-1" x="3.03" y="34.55" width="5.27" height="2"/><rect class="cls-1" x="41.7" y="13.45" width="5.27" height="2"/><rect class="cls-1" x="41.7" y="18.73" width="5.27" height="2"/><rect class="cls-1" x="41.7" y="24" width="5.27" height="2"/><rect class="cls-1" x="41.7" y="29.27" width="5.27" height="2"/><rect class="cls-1" x="41.7" y="34.55" width="5.27" height="2"/><rect class="cls-1" x="20.77" y="29.27" width="9.88" height="2"/><path class="cls-1" d="M38.57,31.27H36.35v-2h1.71v-1.4c0-1.82-.73-2.78-2.36-3.1a1,1,0,0,1-.71-.56l-2.34-5.08A.43.43,0,0,0,32.3,19H22.85a.13.13,0,0,0-.11.08l-1.25,3.79a1.71,1.71,0,0,1-1.08,1.25l-6.3,2a.78.78,0,0,1-.22,0,.27.27,0,0,0-.19.28v2.89h1.47v2h-2a1.5,1.5,0,0,1-1.5-1.51V26.38a2.27,2.27,0,0,1,1.9-2.26l6-1.86,1.26-3.83a2.12,2.12,0,0,1,2-1.46H32.3a2.41,2.41,0,0,1,2.13,1.27l2.17,4.69c2.24.64,3.46,2.37,3.46,4.94v1.89A1.5,1.5,0,0,1,38.57,31.27Z"/><path class="cls-1" d="M18,34.08a3.81,3.81,0,1,1,3.8-3.81A3.82,3.82,0,0,1,18,34.08Zm0-5.61a1.81,1.81,0,1,0,1.8,1.8A1.81,1.81,0,0,0,18,28.47Z"/><path class="cls-1" d="M33.45,34.08a3.81,3.81,0,1,1,3.81-3.81A3.81,3.81,0,0,1,33.45,34.08Zm0-5.61a1.81,1.81,0,1,0,1.81,1.8A1.81,1.81,0,0,0,33.45,28.47Z"/><rect class="cls-1" x="10.06" y="28.39" width="2.64" height="2"/></g></svg>