<svg xmlns="http://www.w3.org/2000/svg" viewBox="0 0 50 50"><defs><style>.cls-1{fill:#3f8624;}</style></defs><title>IoT_Over-the-air-update_light-bg</title><g id="Reference"><path class="cls-1" d="M27,30.34h5.83V24.51h-2v2.23A10.21,10.21,0,0,0,13.94,34.5h2a8.22,8.22,0,0,1,13.67-6.16H27Z"/><path class="cls-1" d="M24.16,42.72a8.21,8.21,0,0,1-5.45-2.07h2.64v-2H15.51v5.84h2V42.25A10.22,10.22,0,0,0,34.39,34.5h-2A8.23,8.23,0,0,1,24.16,42.72Z"/><path class="cls-1" d="M41.3,20.19c-.39-3.06-2-5.26-4.46-6a5.57,5.57,0,0,0-5,1,14.14,14.14,0,0,0-2.8-4.08A12.36,12.36,0,0,0,15.13,8.33,13,13,0,0,0,7.76,19.74c0,.23,0,.46,0,.69A8.6,8.6,0,0,0,1.66,29.1c0,.25,0,.49,0,.73A9.19,9.19,0,0,0,11,38.3h1v-2H11a7.2,7.2,0,0,1-7.3-6.6c0-.19,0-.39,0-.6a6.75,6.75,0,0,1,5.36-7h.05A1,1,0,0,0,9.84,21a11.34,11.34,0,0,1-.08-1.3,11,11,0,0,1,6.15-9.56,10.35,10.35,0,0,1,11.75,2.34,12.51,12.51,0,0,1,2.91,4.78,1,1,0,0,0,.8.66,1,1,0,0,0,.95-.4,3.65,3.65,0,0,1,4-1.43c1.75.51,2.9,2.28,3.09,4.75A1,1,0,0,0,40.19,22c1.94.33,6.47,1.7,6.47,7.17,0,6.52-6.32,7.14-6.51,7.16H37.38v2h2.85c2.92-.24,8.43-2.45,8.43-9.16C48.66,23.83,45,21.07,41.3,20.19Z"/></g></svg>