<svg xmlns="http://www.w3.org/2000/svg" viewBox="0 0 50 50"><defs><style>.cls-1{fill:#3f8624;}</style></defs><title>IoT_Device-gateway_light-bg</title><g id="Reference"><path class="cls-1" d="M34,33.14V17.2a1,1,0,0,0-1-1H17a1,1,0,0,0-1,1V33.14a1,1,0,0,0,1,1H33A1,1,0,0,0,34,33.14ZM18,32.14V29.41h6.84a3.11,3.11,0,1,0,0-2H18V18.2H32v2.73H25.13a3.11,3.11,0,1,0,0,2H32v9.21Zm8.67-3.69a1.11,1.11,0,1,1,1.11,1.11A1.11,1.11,0,0,1,26.7,28.45Zm-3.4-6.56a1.11,1.11,0,1,1-1.11-1.11A1.11,1.11,0,0,1,23.3,21.89Z"/><path class="cls-1" d="M13.55,11.1h3v-2h-3V4.62a1,1,0,0,0-1.7-.71L2,13.74a1.05,1.05,0,0,0-.29.71l0,25.07a1,1,0,0,0,.48.86L12,46.24a1,1,0,0,0,1,0,1,1,0,0,0,.5-.87v-4.3h3v-2h-3Zm-2,32.53L3.7,39l0-24.08L11.55,7Z"/><path class="cls-1" d="M48,13.77,38.15,3.91a1,1,0,0,0-1.7.71V9.1h-2.9v2h2.9v28h-2.9v2h2.9v4.3a1,1,0,0,0,.5.87,1,1,0,0,0,1,0l9.83-5.83a1,1,0,0,0,.49-.86l0-25.07A1,1,0,0,0,48,13.77ZM46.28,39l-7.83,4.65V7l7.85,7.86Z"/><rect class="cls-1" x="26.55" y="39.08" width="4" height="2"/><rect class="cls-1" x="19.55" y="39.08" width="4" height="2"/><rect class="cls-1" x="26.55" y="9.1" width="4" height="2"/><rect class="cls-1" x="19.55" y="9.1" width="4" height="2"/></g></svg>