<svg xmlns="http://www.w3.org/2000/svg" viewBox="0 0 50 50"><defs><style>.cls-1{fill:#3f8624;}</style></defs><title>IoT_Topic_light-bg</title><g id="Reference"><path class="cls-1" d="M34.44,12.76h-2V3.54H17.56v9.22h-2V2.54a1,1,0,0,1,1-1H33.44a1,1,0,0,1,1,1Z"/><rect class="cls-1" x="23.85" y="15.08" width="2.31" height="2"/><path class="cls-1" d="M25,11.44a1,1,0,0,1-.68-.27l-8.44-7.9,1.37-1.46L25,9.07l7.75-7.26,1.37,1.46-8.44,7.9A1,1,0,0,1,25,11.44Z"/><path class="cls-1" d="M25,48.46c-7.76,0-16-2.22-16-6.32V11.69a2.74,2.74,0,0,1,.09-.7c.35-1.47,1.79-2.73,4.29-3.74l.74,1.85c-1.78.72-2.9,1.58-3.09,2.37a.83.83,0,0,0,0,.22V42.14c0,1.8,5.33,4.32,14,4.32s14-2.52,14-4.32V11.69a.83.83,0,0,0,0-.22c-.19-.79-1.31-1.65-3.09-2.37l.74-1.85c2.5,1,3.94,2.27,4.3,3.75a3.1,3.1,0,0,1,.08.69V42.14C41,46.24,32.76,48.46,25,48.46Z"/><path class="cls-1" d="M25,17.1C17.05,17.1,9,15,9,11h2c0,1.68,5.45,4.12,14,4.12S39,12.66,39,11h2C41,15,33,17.1,25,17.1Z"/></g></svg>