<svg xmlns="http://www.w3.org/2000/svg" viewBox="0 0 50 50"><defs><style>.cls-1{fill:#3f8624;}</style></defs><title>IoT_Alexa-enabled-device_light-bg</title><g id="Reference"><rect class="cls-1" x="12.72" y="1.53" width="2" height="5.63"/><rect class="cls-1" x="18.34" y="1.53" width="2" height="5.63"/><rect class="cls-1" x="23.97" y="1.53" width="2" height="5.63"/><rect class="cls-1" x="29.59" y="1.53" width="2" height="5.63"/><rect class="cls-1" x="35.22" y="1.53" width="2" height="5.63"/><rect class="cls-1" x="12.72" y="42.78" width="2" height="5.63"/><rect class="cls-1" x="18.34" y="42.78" width="2" height="5.63"/><rect class="cls-1" x="1.53" y="12.72" width="5.63" height="2"/><rect class="cls-1" x="1.53" y="18.34" width="5.63" height="2"/><rect class="cls-1" x="1.53" y="23.97" width="5.63" height="2"/><rect class="cls-1" x="1.53" y="29.59" width="5.63" height="2"/><rect class="cls-1" x="1.53" y="35.22" width="5.63" height="2"/><rect class="cls-1" x="42.78" y="12.72" width="5.62" height="2"/><rect class="cls-1" x="42.78" y="18.34" width="5.62" height="2"/><path class="cls-1" d="M26,48.41H24V43.78H9.16a3,3,0,0,1-3-3V9.17a3,3,0,0,1,3-3H40.77a3,3,0,0,1,3,3V24h4.63v2H41.78V9.17a1,1,0,0,0-1-1H9.16a1,1,0,0,0-1,1V40.78a1,1,0,0,0,1,1H26Z"/><path class="cls-1" d="M35,48.33a1,1,0,0,1-1-1V45.2a.88.88,0,0,0-.57-.82A8.35,8.35,0,1,1,45,36.69C45,42,40.92,46.84,35.25,48.3Zm1.69-18a6.35,6.35,0,0,0-2.47,12.2A2.89,2.89,0,0,1,36,45.2V46c4.14-1.57,7-5.3,7-9.28A6.36,6.36,0,0,0,36.69,30.34Z"/><path class="cls-1" d="M36.69,48.47a11.78,11.78,0,1,1,0-23.56,11.78,11.78,0,0,1,0,23.56Zm0-21.56a9.77,9.77,0,1,0,9.78,9.78A9.78,9.78,0,0,0,36.69,26.91Z"/></g></svg>