<svg xmlns="http://www.w3.org/2000/svg" viewBox="0 0 50 50"><defs><style>.cls-1{fill:#3f8624;}</style></defs><title>IoT_Policy_light-bg</title><g id="Reference"><path class="cls-1" d="M23.81,40.52H3.74A2.23,2.23,0,0,1,1.5,38.29V7A2.24,2.24,0,0,1,3.74,4.77H26.58A2.24,2.24,0,0,1,28.81,7V21.72h-2V7a.23.23,0,0,0-.23-.24H3.74A.24.24,0,0,0,3.5,7V38.29a.23.23,0,0,0,.24.23H23.81Z"/><rect class="cls-1" x="9.47" y="8.17" width="2" height="9.28" transform="translate(-5.99 11.15) rotate(-45)"/><rect class="cls-1" x="5.83" y="11.81" width="9.28" height="2" transform="translate(-5.99 11.15) rotate(-45)"/><rect class="cls-1" x="9.47" y="18.48" width="2" height="9.28" transform="translate(-13.28 14.17) rotate(-45)"/><rect class="cls-1" x="5.83" y="22.12" width="9.28" height="2" transform="translate(-13.28 14.17) rotate(-45)"/><path class="cls-1" d="M9.38,37.71a1,1,0,0,1-.73-.31L5.53,34.12,7,32.74l2.41,2.52,5.52-5.8,1.45,1.38L10.1,37.4A1,1,0,0,1,9.38,37.71Z"/><path class="cls-1" d="M36.25,45.23A12.25,12.25,0,1,1,48.5,33,12.27,12.27,0,0,1,36.25,45.23Zm0-22.5A10.25,10.25,0,1,0,46.5,33,10.26,10.26,0,0,0,36.25,22.73Z"/><path class="cls-1" d="M32.17,38.65a5.22,5.22,0,1,1,0-10.44A5.49,5.49,0,0,1,37,31h.32l.86-.73a1,1,0,0,1,1.3,0l.88.73.85-.73a1,1,0,0,1,1.31,0l.85.73h.77a1,1,0,0,1,.68.27L46.3,32.7a1,1,0,0,1,.1,1.36l-1.13,1.41a1,1,0,0,1-.78.37H37A5.49,5.49,0,0,1,32.17,38.65Zm0-8.44a3.22,3.22,0,1,0,0,6.44,3.4,3.4,0,0,0,3.21-2.15,1,1,0,0,1,.94-.66H44l.25-.31L43.72,33H43a1,1,0,0,1-.65-.24l-.49-.41-.48.41a1,1,0,0,1-.65.24h-.76a1,1,0,0,1-.65-.24l-.49-.41-.48.41a1,1,0,0,1-.65.24H36.32a1,1,0,0,1-.94-.66A3.4,3.4,0,0,0,32.17,30.21Z"/><circle class="cls-1" cx="31.19" cy="33.43" r="1.31"/></g></svg>