<svg xmlns="http://www.w3.org/2000/svg" viewBox="0 0 50 50"><defs><style>.cls-1{fill:#3f8624;}</style></defs><title>IoT_Bank_light-bg</title><g id="Reference"><path class="cls-1" d="M40.68,43.81H9.32a3.13,3.13,0,0,1-3.13-3.13V9.34A3.14,3.14,0,0,1,9.32,6.2H40.68a3.14,3.14,0,0,1,3.13,3.14V40.68A3.13,3.13,0,0,1,40.68,43.81ZM9.32,8.2A1.14,1.14,0,0,0,8.19,9.34V40.68a1.14,1.14,0,0,0,1.13,1.13H40.68a1.14,1.14,0,0,0,1.13-1.13V9.34A1.14,1.14,0,0,0,40.68,8.2Z"/><rect class="cls-1" x="12.75" y="1.56" width="2" height="5.63"/><rect class="cls-1" x="18.38" y="1.56" width="2" height="5.63"/><rect class="cls-1" x="24" y="1.56" width="2" height="5.63"/><rect class="cls-1" x="29.63" y="1.56" width="2" height="5.63"/><rect class="cls-1" x="35.25" y="1.56" width="2" height="5.63"/><rect class="cls-1" x="12.75" y="42.81" width="2" height="5.63"/><rect class="cls-1" x="18.38" y="42.81" width="2" height="5.63"/><rect class="cls-1" x="24" y="42.81" width="2" height="5.63"/><rect class="cls-1" x="29.63" y="42.81" width="2" height="5.63"/><rect class="cls-1" x="35.25" y="42.81" width="2" height="5.63"/><rect class="cls-1" x="1.56" y="12.75" width="5.62" height="2"/><rect class="cls-1" x="1.56" y="18.38" width="5.62" height="2"/><rect class="cls-1" x="1.56" y="24" width="5.62" height="2"/><rect class="cls-1" x="1.56" y="29.63" width="5.62" height="2"/><rect class="cls-1" x="1.56" y="35.25" width="5.62" height="2"/><rect class="cls-1" x="42.81" y="12.75" width="5.62" height="2"/><rect class="cls-1" x="42.81" y="18.38" width="5.62" height="2"/><rect class="cls-1" x="42.81" y="24" width="5.62" height="2"/><rect class="cls-1" x="42.81" y="29.63" width="5.62" height="2"/><rect class="cls-1" x="42.81" y="35.25" width="5.62" height="2"/><path class="cls-1" d="M37.12,38.19H12.88a1,1,0,0,1-1-1V34.48a1,1,0,0,1,1-1h.81V21.31H11.88a1,1,0,0,1-1-1v-3a1,1,0,0,1,.67-.95l13.12-4.51a.94.94,0,0,1,.66,0l13.12,4.51a1,1,0,0,1,.68.95v3a1,1,0,0,1-1,1H36.31V33.48h.81a1,1,0,0,1,1,1v2.71A1,1,0,0,1,37.12,38.19Zm-23.24-2H36.12v-.71h-.81a1,1,0,0,1-1-1V20.31a1,1,0,0,1,1-1h1.82V18L25,13.87,12.88,18v1.27h1.81a1,1,0,0,1,1,1V34.48a1,1,0,0,1-1,1h-.81Z"/><path class="cls-1" d="M24.38,33.71V31.77a6.47,6.47,0,0,1-3.05-1V29c.77.35,1.37.6,1.82.75a5.18,5.18,0,0,0,1.23.27V27l-.64-.24a4.83,4.83,0,0,1-1.95-1.19,2.51,2.51,0,0,1-.6-1.71,3,3,0,0,1,.88-2.25,3.49,3.49,0,0,1,2.31-1V18.62h1.18v1.94a6.18,6.18,0,0,1,2.4.79v1.78a7.47,7.47,0,0,0-2.4-.83v3.06l.55.21a5.18,5.18,0,0,1,2.08,1.21,2.45,2.45,0,0,1,.62,1.7,3,3,0,0,1-.89,2.21,3.89,3.89,0,0,1-2.36,1.06v2Zm-1.2-10a1.12,1.12,0,0,0,.28.78,2.31,2.31,0,0,0,.92.58V22.29a1.32,1.32,0,0,0-.88.45A1.4,1.4,0,0,0,23.18,23.67Zm3.6,5a1.12,1.12,0,0,0-.28-.79,2.48,2.48,0,0,0-.94-.55V30a1.35,1.35,0,0,0,.87-.47A1.31,1.31,0,0,0,26.78,28.63Z"/></g></svg>