<svg xmlns="http://www.w3.org/2000/svg" viewBox="0 0 50 50"><defs><style>.cls-1{fill:#3f8624;}</style></defs><title>Amazon-S3-Glacier_Archive_light-bg</title><g id="Working"><path class="cls-1" d="M23.12,48.5H7.19a1,1,0,0,1-1-1V15.62a1,1,0,0,1,1-1H23.12a1,1,0,0,1,1,1V47.5A1,1,0,0,1,23.12,48.5Zm-14.93-2H22.12V16.62H8.19Z"/><path class="cls-1" d="M42.81,48.5H26.88a1,1,0,0,1-1-1V15.62a1,1,0,0,1,1-1H42.81a1,1,0,0,1,1,1V47.5A1,1,0,0,1,42.81,48.5Zm-14.93-2H41.81V16.62H27.88Z"/><path class="cls-1" d="M23.12,12.88H7.19a1,1,0,0,1-.85-1.53L12.13,2A1,1,0,0,1,13,1.5H23.12a1,1,0,0,1,1,1v9.38A1,1,0,0,1,23.12,12.88ZM9,10.88H22.12V3.5H13.54Z"/><path class="cls-1" d="M42.81,12.88H26.88a1,1,0,0,1-1-1V2.5a1,1,0,0,1,1-1H37a1,1,0,0,1,.85.47l5.79,9.38a1,1,0,0,1-.85,1.53Zm-14.93-2H41L36.46,3.5H27.88Z"/></g></svg>