<svg xmlns="http://www.w3.org/2000/svg" xmlns:xlink="http://www.w3.org/1999/xlink" viewBox="0 0 75 75"><defs><style>.cls-1{fill:url(#GreenGradient);}.cls-2{fill:#fff;}</style><linearGradient id="GreenGradient" x1="242.53" y1="-41.53" x2="136.46" y2="64.54" gradientTransform="translate(227 49) rotate(180)" gradientUnits="userSpaceOnUse"><stop offset="0" stop-color="#1b660f"/><stop offset="1" stop-color="#6cae3e"/></linearGradient></defs><title>Amazon-FSx-for-Lustre</title><g id="Reference"><rect id="Green_Gradient" data-name="Green Gradient" class="cls-1" width="75" height="75"/><g id="Icon_Test" data-name="Icon Test"><path class="cls-2" d="M61.82,45.92H60.4c0-4-2.27-8-7.34-8-5.41,0-7.34,4.14-7.34,8H44.3c0-4.35,2.3-9.43,8.76-9.43C59.08,36.49,61.82,41.38,61.82,45.92Z"/><path class="cls-2" d="M53.06,46H47v-.71a6.24,6.24,0,0,1,6.07-6.08,6,6,0,0,1,2.1.38l-.49,1.33a4.59,4.59,0,0,0-1.61-.29,4.87,4.87,0,0,0-4.59,3.95h4.59Z"/><polygon class="cls-2" points="59.46 37.46 52.55 44.83 53.58 45.67 59.46 37.46"/><polygon class="cls-2" points="53.71 46.7 51.51 44.9 58.95 36.97 60.04 37.87 53.71 46.7"/><path class="cls-2" d="M53.06,46.63a1.38,1.38,0,1,1,1.38-1.38A1.38,1.38,0,0,1,53.06,46.63Zm0-1.42,0,0A0,0,0,0,0,53.06,45.21Z"/><path class="cls-2" d="M13.18,45.69v-17h9.53V30H14.62V36.5h6.84v1.3H14.62v7.89Z"/><path class="cls-2" d="M27.41,37.12a6.93,6.93,0,0,1-2.77-1.76,3.66,3.66,0,0,1-.88-2.51,4.15,4.15,0,0,1,1.46-3.29,5.65,5.65,0,0,1,3.83-1.26,10.8,10.8,0,0,1,2.27.25,12.24,12.24,0,0,1,2.24.73v1.25a13.52,13.52,0,0,0-4.43-.89,4.53,4.53,0,0,0-2.9.82,2.85,2.85,0,0,0-1,2.34,2.68,2.68,0,0,0,.31,1.39,2.79,2.79,0,0,0,1,1,11.38,11.38,0,0,0,2,.92l2.62,1a6,6,0,0,1,2.57,1.68,3.79,3.79,0,0,1,.81,2.48,4.39,4.39,0,0,1-1.61,3.53,6.32,6.32,0,0,1-4.22,1.35,11.11,11.11,0,0,1-4.85-1V43.83a14,14,0,0,0,4.73.93,5.08,5.08,0,0,0,3.24-1,3.11,3.11,0,0,0,1.22-2.59,2.46,2.46,0,0,0-.67-1.72,5.64,5.64,0,0,0-2.13-1.27Z"/><polygon class="cls-2" points="40.74 35.99 37.85 31.86 35.79 31.86 39.7 37.38 40.74 35.99"/><path class="cls-2" d="M44.08,40.64l-1.55-2.21,4.7-6.57H45.29l-3.72,5.31-1,1.38,2.83,4.06A9.19,9.19,0,0,1,44.08,40.64Z"/><polygon class="cls-2" points="40.62 40.98 37.33 45.78 35.35 45.78 39.73 39.72 40.62 40.98"/></g></g></svg>