<svg xmlns="http://www.w3.org/2000/svg" viewBox="0 0 75 75"><defs><style>.cls-1{fill:#3f8624;}.cls-2{fill:#fff;}</style></defs><title>Amazon-FSx-for-Windows-File-Server_light-bg</title><g id="Reference"><rect id="Green_Light_BG" data-name="Green Light BG" class="cls-1" width="75" height="75"/><g id="Product_Icon" data-name="Product Icon"><path class="cls-2" d="M50,47.67a1.9,1.9,0,0,1-1.33-.55,1.86,1.86,0,0,1-.55-1.33V44.33H62v.82a2.51,2.51,0,0,1-2.51,2.52Zm-.46-1.92v0a.48.48,0,0,0,.13.32.47.47,0,0,0,.33.14h9.49a1.08,1.08,0,0,0,.77-.33,1.15,1.15,0,0,0,.14-.17Z"/><polygon class="cls-2" points="50.2 45.04 50.19 37.51 59.91 37.5 59.92 45.03 61.34 45.03 61.33 36.08 48.77 36.09 48.78 45.04 50.2 45.04"/><polygon class="cls-2" points="13 46.52 14.59 46.52 14.59 37.82 22.13 37.82 22.13 36.38 14.59 36.38 14.59 29.22 23.51 29.22 23.51 27.79 13 27.79 13 46.52"/><path class="cls-2" d="M32.83,37,29.94,35.9a13.93,13.93,0,0,1-2.2-1,3.25,3.25,0,0,1-1.11-1.06,3.07,3.07,0,0,1-.34-1.53,3.16,3.16,0,0,1,1.11-2.58,5,5,0,0,1,3.19-.9,14.91,14.91,0,0,1,4.89,1V28.41A13,13,0,0,0,33,27.62a11.78,11.78,0,0,0-2.5-.29,6.27,6.27,0,0,0-4.23,1.39,4.59,4.59,0,0,0-1.61,3.64,4.08,4.08,0,0,0,1,2.77,7.53,7.53,0,0,0,3.05,1.93l3.13,1.22a6.24,6.24,0,0,1,2.36,1.4,2.69,2.69,0,0,1,.72,1.89,3.47,3.47,0,0,1-1.33,2.87A5.65,5.65,0,0,1,30,45.49a15.31,15.31,0,0,1-5.22-1v1.38A12.12,12.12,0,0,0,30.13,47a7,7,0,0,0,4.66-1.49,4.84,4.84,0,0,0,1.77-3.89,4.16,4.16,0,0,0-.89-2.74A6.64,6.64,0,0,0,32.83,37Z"/><polygon class="cls-2" points="43.4 35.82 40.21 31.26 37.95 31.26 42.26 37.35 43.4 35.82"/><polygon class="cls-2" points="37.46 46.62 39.64 46.62 43.27 41.32 42.29 39.93 37.46 46.62"/><polygon class="cls-2" points="47.2 41.11 45.37 38.51 50.56 31.26 48.42 31.26 44.31 37.12 43.22 38.65 47.2 44.35 47.2 41.45 47.2 41.11"/></g></g></svg>