<svg xmlns="http://www.w3.org/2000/svg" xmlns:xlink="http://www.w3.org/1999/xlink" viewBox="0 0 75 75"><defs><style>.cls-1{fill:url(#GreenGradient);}.cls-2{fill:#fff;}</style><linearGradient id="GreenGradient" x1="749.53" y1="723.53" x2="643.47" y2="617.47" gradientTransform="translate(708 -659) rotate(90)" gradientUnits="userSpaceOnUse"><stop offset="0" stop-color="#1b660f"/><stop offset="1" stop-color="#6cae3e"/></linearGradient></defs><title>Amazon-Elastic-Block-Store-EBS</title><g id="Reference"><rect id="Green_Gradient" data-name="Green Gradient" class="cls-1" width="75" height="75"/><g id="Icon_Test" data-name="Icon Test"><path class="cls-2" d="M49.47,25.89a2.74,2.74,0,0,0-.09-.39c-.89-2.72-6.42-4.13-11.88-4.13s-11,1.41-11.88,4.13a2.74,2.74,0,0,0-.09.39,2.43,2.43,0,0,0,0,.38V48.6c0,3.22,6,4.9,12,4.9s12-1.68,12-4.9V26.27A2.43,2.43,0,0,0,49.47,25.89Zm-12-2.52c5.72,0,9.14,1.5,9.86,2.52-.74,1-4.16,2.51-9.86,2.51s-9.12-1.48-9.86-2.51C28.36,24.87,31.78,23.37,37.5,23.37Zm10,25.23c0,1-3.53,2.9-10,2.9s-10-1.92-10-2.9V28.34c2.27,1.36,6.15,2.06,10,2.06s7.73-.7,10-2.06Z"/><path class="cls-2" d="M25.62,25.5a2.74,2.74,0,0,0-.09.39,2.56,2.56,0,0,1,0-.39Z"/><path class="cls-2" d="M49.5,25.5a2.56,2.56,0,0,1,0,.39,2.74,2.74,0,0,0-.09-.39Z"/><path class="cls-2" d="M23.21,21.79l-1.42,1.42L14.5,15.92V21.5h-2v-8a1,1,0,0,1,1-1h8v2H15.92Z"/><path class="cls-2" d="M62.5,13.5v8h-2V15.92l-7.29,7.29-1.42-1.42,7.29-7.29H53.5v-2h8A1,1,0,0,1,62.5,13.5Z"/><path class="cls-2" d="M15.92,60.5H21.5v2h-8a1,1,0,0,1-1-1v-8h2v5.58l7.29-7.29,1.42,1.42Z"/><path class="cls-2" d="M62.5,53.5v8a1,1,0,0,1-1,1h-8v-2h5.58l-7.29-7.29,1.42-1.42,7.29,7.29V53.5Z"/></g></g></svg>