<svg xmlns="http://www.w3.org/2000/svg" viewBox="0 0 75 75"><defs><style>.cls-1{fill:#3f8624;}.cls-2{fill:#fff;}</style></defs><title>Amazon-Elastic-File-System_EFS_light-bg</title><g id="Reference"><rect id="Green_Light_BG" data-name="Green Light BG" class="cls-1" width="75" height="75"/><g id="Product_Icon" data-name="Product Icon"><path class="cls-2" d="M14.5,15.91l7.29,7.3,1.42-1.42-7.3-7.29H21.5v-2h-8a1,1,0,0,0-1,1v8h2Z"/><path class="cls-2" d="M61.5,12.5h-8v2h5.59l-7.3,7.29,1.42,1.42,7.29-7.3V21.5h2v-8A1,1,0,0,0,61.5,12.5Z"/><path class="cls-2" d="M21.79,51.79l-7.29,7.3V53.5h-2v8a1,1,0,0,0,1,1h8v-2H15.91l7.3-7.29Z"/><path class="cls-2" d="M60.5,59.09l-7.29-7.3-1.42,1.42,7.3,7.29H53.5v2h8a1,1,0,0,0,1-1v-8h-2Z"/><path class="cls-2" d="M29.6,23.24a9.41,9.41,0,0,1,10.61,2.09,11.25,11.25,0,0,1,2.64,4.29,1,1,0,0,0,1.74.26,3.33,3.33,0,0,1,2.66-1.39c1.54,0,3.4,1.18,3.59,4.5a1,1,0,0,0,.8.92c3.89.82,5.86,3,5.86,6.4,0,3.22-1.41,5.13-4.32,5.84l.47,1.94c3.77-.91,5.85-3.68,5.85-7.78s-2.38-7-6.73-8.19c-.51-3.88-3.08-5.63-5.52-5.63a5.16,5.16,0,0,0-3.1,1,12.77,12.77,0,0,0-2.53-3.62,11.44,11.44,0,0,0-12.79-2.52,11.81,11.81,0,0,0-6.78,10.4c0,.18,0,.36,0,.55a8,8,0,0,0-5.57,7.92c0,.19,0,.38,0,.57a8.29,8.29,0,0,0,5.66,7.34l.66-1.89a6.3,6.3,0,0,1-4.33-5.56c0-.15,0-.3,0-.46A6,6,0,0,1,23.38,34,1,1,0,0,0,24.13,33a10.45,10.45,0,0,1-.08-1.17A9.82,9.82,0,0,1,29.6,23.24Z"/><path class="cls-2" d="M53.45,42.82a1,1,0,0,0-.14-.9,1,1,0,0,0-.81-.42h-3a3.84,3.84,0,0,0-1.12-2.27,2.48,2.48,0,0,0-1.83-.73H36.27c-.26-.81-.76-1.83-1.53-2l-.19,0h-4c-.89,0-1.48,1.12-1.78,2H27.56a2.55,2.55,0,0,0-1.89.72A3.9,3.9,0,0,0,24.5,42V54.5a1,1,0,0,0,1,1h23a1,1,0,0,0,.94-.69h0Zm-2.34.68L49.5,48.34V43.5Zm-3.61,10h-21V42A1.86,1.86,0,0,1,27,40.69a.58.58,0,0,1,.46-.19h2a1,1,0,0,0,1-.94,4.61,4.61,0,0,1,.43-1.06H34.1a6,6,0,0,1,.39,1,1,1,0,0,0,1,1H46.57a.54.54,0,0,1,.39.19A1.88,1.88,0,0,1,47.5,42Z"/></g></g></svg>