<svg xmlns="http://www.w3.org/2000/svg" viewBox="0 0 50 50"><defs><style>.cls-1{fill:#3f8624;}</style></defs><title>Amazon-Simple-Storage-Service-S3_Bucket_light-bg</title><g id="Working"><path class="cls-1" d="M24.67,48.5c-6.39,0-16.5-1.45-16.63-5.34L3.51,9.55a1,1,0,0,1,2-.39c.5,1.93,8.05,4.63,19.2,4.63s18.69-2.7,19.19-4.63a1,1,0,0,1,2,.39L41.29,43.16c0,1.32-1.22,2.45-3.51,3.36a22.87,22.87,0,0,1-3.12.94A46.09,46.09,0,0,1,24.67,48.5ZM5.9,12.27,10,43s0,.09,0,.13c0,1.18,5.69,3.42,14.63,3.42a43.75,43.75,0,0,0,9.54-1A21,21,0,0,0,37,44.66c1.85-.73,2.26-1.39,2.26-1.58a.62.62,0,0,1,0-.13l4.13-30.68c-3.86,2.3-11.64,3.52-18.77,3.52S9.75,14.57,5.9,12.27Z"/><path class="cls-1" d="M24.67,15.79c-9.47,0-20.1-2.15-21.13-6.12a.79.79,0,0,1,0-.13l0-.41a.62.62,0,0,1,0-.13c0-4.42,11.18-7.5,21.22-7.5S45.89,4.58,45.89,9c0,0,0,.08,0,.13l-.06.41a.69.69,0,0,1,0,.13C44.76,13.64,34.13,15.79,24.67,15.79ZM5.48,9.21c.62,1.93,8.14,4.58,19.19,4.58s18.56-2.65,19.18-4.58l0-.27C43.74,7,35.86,3.5,24.67,3.5S5.59,7,5.45,8.94Z"/><path class="cls-1" d="M45.93,29.62c-4.76,0-15.18-4.71-21.7-7.91l.88-1.8c9,4.43,19.6,8.52,21.41,7.75-.14-.29-.81-1.19-4-2.92l-.16-.1,1-1.74.15.09c3.21,1.77,4.74,3.13,5,4.41a1.82,1.82,0,0,1-.4,1.52A2.77,2.77,0,0,1,45.93,29.62Z"/><path class="cls-1" d="M24.67,23a2.17,2.17,0,1,1,2.17-2.17A2.18,2.18,0,0,1,24.67,23Zm0-2.34a.17.17,0,0,0-.18.17c0,.19.35.19.35,0A.17.17,0,0,0,24.67,20.64Z"/></g></svg>