<svg xmlns="http://www.w3.org/2000/svg" viewBox="0 0 50 50"><defs><style>.cls-1{fill:#3f8624;}</style></defs><title>Amazon-S3-Glacier_Vault_light-bg</title><g id="Working"><path class="cls-1" d="M42.84,48.5H7.22a1,1,0,0,1-1-1V14.69a1,1,0,0,1,1-1H42.84a1,1,0,0,1,1,1V47.5A1,1,0,0,1,42.84,48.5Zm-34.62-2H41.84V15.69H8.22Z"/><path class="cls-1" d="M42.84,11.94H7.16a1,1,0,0,1-.9-.56,1,1,0,0,1,.1-1L12.7,1.9a1,1,0,0,1,.8-.4h23a1,1,0,0,1,.8.4l6.34,8.44a1,1,0,0,1,.1,1A1,1,0,0,1,42.84,11.94Zm-33.68-2H40.84L36,3.5H14Z"/><path class="cls-1" d="M30,24.23a7.12,7.12,0,0,0-9.94,0l-1.4-1.43a9.13,9.13,0,0,1,12.74,0Z"/><path class="cls-1" d="M22.72,38.16a9.13,9.13,0,0,1-6.84-8.83,9,9,0,0,1,.4-2.64l1.91.59a7.09,7.09,0,0,0,5,8.94Z"/><path class="cls-1" d="M27.28,38.16l-.5-1.94a7.09,7.09,0,0,0,5-8.94l1.91-.59a9,9,0,0,1,.4,2.64A9.13,9.13,0,0,1,27.28,38.16Z"/><rect class="cls-1" x="24.03" y="33.44" width="2" height="8.44"/><rect class="cls-1" x="27.82" y="23.89" width="9.04" height="2" transform="translate(-8.11 19.5) rotate(-29.99)"/><rect class="cls-1" x="16.66" y="20.38" width="2" height="9.04" transform="matrix(0.5, -0.87, 0.87, 0.5, -12.73, 27.73)"/><path class="cls-1" d="M25,34.39a5.06,5.06,0,1,1,5.06-5.06A5.07,5.07,0,0,1,25,34.39Zm0-8.12a3.06,3.06,0,1,0,3.06,3.06A3.06,3.06,0,0,0,25,26.27Z"/></g></svg>