<svg xmlns="http://www.w3.org/2000/svg" xmlns:xlink="http://www.w3.org/1999/xlink" viewBox="0 0 75 75"><defs><style>.cls-1{fill:url(#GreenGradient);}.cls-2{fill:#fff;}</style><linearGradient id="GreenGradient" x1="-332.54" y1="275.47" x2="-226.47" y2="381.54" gradientTransform="translate(-291 -242) rotate(-90)" gradientUnits="userSpaceOnUse"><stop offset="0" stop-color="#1b660f"/><stop offset="1" stop-color="#6cae3e"/></linearGradient></defs><title>Amazon-S3-Glacier</title><g id="Reference"><rect id="Green_Gradient" data-name="Green Gradient" class="cls-1" width="75" height="75"/><g id="Icon_Test" data-name="Icon Test"><path class="cls-2" d="M36.07,12.5c-10.68,0-22.57,3.26-22.57,7.93a.57.57,0,0,0,0,.13l.06.44a.59.59,0,0,0,0,.13l4.8,35.74c.13,4.1,10.89,5.63,17.68,5.63A54.91,54.91,0,0,0,43,62.06l-.26-2a52.66,52.66,0,0,1-6.65.42c-9.57,0-15.68-2.44-15.68-3.71a.57.57,0,0,0,0-.13L16,23.8a13.08,13.08,0,0,0,1.3.69,5.8,5.8,0,0,0,.62.27c.21.09.42.18.65.26s.78.29,1.2.42.75.23,1.15.34.79.22,1.2.31l.52.12a54.49,54.49,0,0,0,7.08,1.09c.53.05,1.08.1,1.62.13,1.59.11,3.2.17,4.77.17s3.18-.06,4.77-.17c.56,0,1.12-.08,1.67-.13,2-.19,3.89-.45,5.68-.8l.85-.18.57-.12.44-.11c.62-.14,1.22-.3,1.79-.48l.56-.17q.63-.2,1.2-.42c.23-.08.44-.17.65-.26a5.8,5.8,0,0,0,.62-.27,13.08,13.08,0,0,0,1.3-.69L54.06,39.46l1.11.33L56,40l.29-2.22c-.34-.21-.71-.42-1.13-.65L55,37.06l1-1.74.13.07.46.26,1.95-14.52a0,0,0,0,1,0,0,.36.36,0,0,1,0-.1l0-.44a.57.57,0,0,0,0-.13C58.63,15.76,46.74,12.5,36.07,12.5Zm19.46,9.35a10.28,10.28,0,0,1-2,1,6.07,6.07,0,0,1-.59.24c-.33.13-.68.25-1.06.37l-.62.19c-.63.2-1.32.38-2,.55l-.76.17-1.35.26c-.7.13-1.43.24-2.2.35q-.62.09-1.26.15c-.55.07-1.12.13-1.7.17s-.92.08-1.39.11c-1.42.09-2.91.14-4.47.14s-3-.05-4.47-.14c-.47,0-.94-.06-1.39-.11s-1.15-.1-1.7-.17-.85-.09-1.26-.15c-1.58-.22-3-.48-4.31-.78l-1.41-.36c-.45-.12-.87-.25-1.27-.38l-.59-.2c-.38-.13-.73-.27-1.06-.41a9.73,9.73,0,0,1-2.23-1.21,3.3,3.3,0,0,1-.5-.47,1.27,1.27,0,0,1-.16-.2,1.51,1.51,0,0,1-.12-.2.94.94,0,0,1-.06-.15v0h0l0-.24c.14-2.1,8.58-5.88,20.57-5.88s20.42,3.78,20.56,5.88l0,.24h0v0a.94.94,0,0,1-.06.15,1.51,1.51,0,0,1-.12.2,1.27,1.27,0,0,1-.16.2A3.3,3.3,0,0,1,55.53,21.85Z"/><path class="cls-2" d="M15.54,20.63a.82.82,0,0,0,.06.19.94.94,0,0,1-.06-.15Z"/><path class="cls-2" d="M16.38,21.69a10.13,10.13,0,0,0,2.23,1.21A9.73,9.73,0,0,1,16.38,21.69Z"/><path class="cls-2" d="M49.2,24.25c.73-.17,1.42-.36,2-.55C50.62,23.9,49.93,24.08,49.2,24.25Z"/><path class="cls-2" d="M55.53,21.85a10.28,10.28,0,0,1-2,1A10.85,10.85,0,0,0,55.53,21.85Z"/><path class="cls-2" d="M55.17,39.79,56,40l-.27,2-.08.57-2-.26.11-.85.27-2Z"/><path class="cls-2" d="M56.13,35.39l.46.26-.29,2.14c-.34-.21-.71-.42-1.13-.65L55,37.06l1-1.74Z"/><path class="cls-2" d="M56.59,20.63v0a.94.94,0,0,1-.06.15A.82.82,0,0,0,56.59,20.63Z"/><path class="cls-2" d="M61,41.63a2.77,2.77,0,0,1-2.27.82,13.16,13.16,0,0,1-3-.44l-1.11-.3-.84-.24A137.2,137.2,0,0,1,37.46,34.8l-.7-.33.86-1.8.7.33a144,144,0,0,0,15.74,6.46l1.11.33L56,40c2.45.61,3.24.44,3.45.35-.1-.24-.58-1-3.16-2.57-.34-.21-.71-.42-1.13-.65L55,37.06l1-1.74.13.07.46.26c3.12,1.76,4.61,3.13,4.86,4.41A1.89,1.89,0,0,1,61,41.63Z"/><path class="cls-2" d="M36.07,35.28A2.25,2.25,0,1,1,38.32,33,2.25,2.25,0,0,1,36.07,35.28Zm0-2.5a.25.25,0,0,0-.25.25c0,.27.5.27.5,0A.25.25,0,0,0,36.07,32.78Z"/><polygon class="cls-2" points="57.67 54.24 53.7 54.24 55.65 57.62 59 58.56 58.46 60.49 55.74 59.72 55 62.5 53.07 61.98 53.95 58.67 51.97 55.24 51.97 55.24 50.02 58.62 50.88 61.99 48.94 62.49 48.24 59.75 45.47 60.49 44.95 58.56 48.26 57.67 50.24 54.24 46.33 54.24 43.84 56.67 42.45 55.24 44.47 53.27 42.44 51.23 43.85 49.82 46.27 52.24 50.24 52.24 48.29 48.86 44.94 47.92 45.48 45.99 48.2 46.76 48.94 43.98 50.87 44.5 49.99 47.81 51.97 51.24 53.92 47.86 53.06 44.49 55 43.99 55.7 46.73 58.47 45.99 58.99 47.92 55.68 48.81 53.7 52.24 57.61 52.24 60.1 49.81 61.49 51.24 59.47 53.21 61.5 55.25 60.09 56.66 57.67 54.24"/></g></g></svg>