<svg xmlns="http://www.w3.org/2000/svg" viewBox="0 0 50 50"><defs><style>.cls-1{fill:#3f8624;}</style></defs><title>Amazon-Elastic-File-System_EFS_File-system_light-bg</title><g id="Reference"><path class="cls-1" d="M46.82,20.41H42.3V19a2.45,2.45,0,0,0-2.45-2.45H35a2.44,2.44,0,0,0-2.44,2.44v1.45H11.2A3.23,3.23,0,0,0,8,23.64v.85H4a1,1,0,0,0-.78.38,1,1,0,0,0-.19.84l.63,2.78H1A1,1,0,0,0,.09,29.9l8,17.92A1,1,0,0,0,9,48.5H49a1,1,0,0,0,1-1V23.64A3.26,3.26,0,0,0,46.82,20.41ZM10,23.63a1.23,1.23,0,0,1,1.22-1.24h22.3a1,1,0,0,0,1-1V18.94A.45.45,0,0,1,35,18.5h4.85a.45.45,0,0,1,.45.46v2.45a1,1,0,0,0,1,1h5.5A1.24,1.24,0,0,1,48,23.64V38.58L45,25.27a1,1,0,0,0-1-.78H10ZM5.25,26.49h38l2.56,11.24-3.85-8.65a1,1,0,0,0-.91-.59H5.71Zm4.4,20-7.11-16H40.35l7.11,16Z"/><path class="cls-1" d="M5,13.5v2H7v-2H8v2h2v-2h1v2h2v-2a1,1,0,0,0,1-1h2v-2H14v-1h2v-2H14v-1h2v-2H14a1,1,0,0,0-1-1v-2H11v2H10v-2H8v2H7v-2H5v2a1,1,0,0,0-1,1H2v2H4v1H2v2H4v1H2v2H4A1,1,0,0,0,5,13.5Zm1-8h6v6H6Z"/><path class="cls-1" d="M22,13.5v2h2v-2h1v2h2v-2h1v2h2v-2a1,1,0,0,0,1-1h2v-2H31v-1h2v-2H31v-1h2v-2H31a1,1,0,0,0-1-1v-2H28v2H27v-2H25v2H24v-2H22v2a1,1,0,0,0-1,1H19v2h2v1H19v2h2v1H19v2h2A1,1,0,0,0,22,13.5Zm1-8h6v6H23Z"/><path class="cls-1" d="M50,6.5v-2H48a1,1,0,0,0-1-1v-2H45v2H44v-2H42v2H41v-2H39v2a1,1,0,0,0-1,1H36v2h2v1H36v2h2v1H36v2h2a1,1,0,0,0,1,1v2h2v-2h1v2h2v-2h1v2h2v-2a1,1,0,0,0,1-1h2v-2H48v-1h2v-2H48v-1Zm-4,5H40v-6h6Z"/></g></svg>