<svg xmlns="http://www.w3.org/2000/svg" xmlns:xlink="http://www.w3.org/1999/xlink" viewBox="0 0 75 75"><defs><style>.cls-1{fill:url(#GreenGradient);}.cls-2{fill:#fff;}</style><linearGradient id="GreenGradient" x1="237.47" y1="-294.53" x2="343.53" y2="-188.47" gradientTransform="translate(279 328) rotate(-90)" gradientUnits="userSpaceOnUse"><stop offset="0" stop-color="#1b660f"/><stop offset="1" stop-color="#6cae3e"/></linearGradient></defs><title>Amazon-FSx</title><g id="Reference"><rect id="Green_Gradient" data-name="Green Gradient" class="cls-1" width="75" height="75"/><g id="Icon_Test" data-name="Icon Test"><path class="cls-2" d="M12.91,49.6V25.4H26.48v1.85H15v9.26H24.7v1.85H15V49.6Z"/><path class="cls-2" d="M33.19,37.38a9.92,9.92,0,0,1-3.95-2.5A5.3,5.3,0,0,1,28,31.3a5.92,5.92,0,0,1,2.07-4.69,8.07,8.07,0,0,1,5.47-1.8,15,15,0,0,1,3.23.37,16.53,16.53,0,0,1,3.19,1V28a19.24,19.24,0,0,0-6.32-1.26,6.38,6.38,0,0,0-4.12,1.17,4.07,4.07,0,0,0-1.43,3.33,3.92,3.92,0,0,0,.44,2A4.09,4.09,0,0,0,32,34.57a17.43,17.43,0,0,0,2.84,1.31l3.74,1.43a8.65,8.65,0,0,1,3.66,2.39,5.41,5.41,0,0,1,1.16,3.54,6.27,6.27,0,0,1-2.29,5,9,9,0,0,1-6,1.92,15.63,15.63,0,0,1-6.91-1.47V46.94a19.79,19.79,0,0,0,6.73,1.33,7.27,7.27,0,0,0,4.63-1.36,4.47,4.47,0,0,0,1.73-3.7,3.47,3.47,0,0,0-.95-2.45,8,8,0,0,0-3-1.81Z"/><polygon class="cls-2" points="52.18 35.78 48.06 29.89 45.13 29.89 50.71 37.75 52.18 35.78"/><polygon class="cls-2" points="59.13 49.73 62.09 49.73 54.73 39.24 61.44 29.89 58.66 29.89 53.36 37.46 51.94 39.43 59.13 49.73"/><polygon class="cls-2" points="52.01 42.88 47.32 49.73 44.51 49.73 50.74 41.09 52.01 42.88"/></g></g></svg>