<svg xmlns="http://www.w3.org/2000/svg" viewBox="0 0 75 75"><defs><style>.cls-1{fill:#3f8624;}.cls-2{fill:#fff;}</style></defs><title>AWS-Snowball-Edge_light-bg</title><g id="Reference"><rect id="Green_Light_BG" data-name="Green Light BG" class="cls-1" width="75" height="75"/><g id="Product_Icon" data-name="Product Icon"><path class="cls-2" d="M36.91,48.4H19.08a3.17,3.17,0,0,1-3.17-3.18V20.58a3.18,3.18,0,0,1,3.17-3.18h9.83a1,1,0,0,1,.94.68L31,21.4H42.82L44,18.08a1,1,0,0,1,.95-.68h9.83a3.19,3.19,0,0,1,3.17,3.18V36.4h-2V20.58a1.19,1.19,0,0,0-1.17-1.18H45.62l-1.14,3.33a1,1,0,0,1-.94.67H30.28a1,1,0,0,1-1-.67L28.19,19.4H19.08a1.19,1.19,0,0,0-1.17,1.18V45.22a1.19,1.19,0,0,0,1.17,1.18H36.91Z"/><path class="cls-2" d="M36.9,52.4H17.28a5.47,5.47,0,0,1-5.38-5.54V18.94a5.48,5.48,0,0,1,5.38-5.54H56.53a5.48,5.48,0,0,1,5.38,5.54V39.4h-2V18.94a3.47,3.47,0,0,0-3.38-3.54H17.28a3.47,3.47,0,0,0-3.38,3.54V46.86a3.46,3.46,0,0,0,3.38,3.54H36.9Z"/><path class="cls-2" d="M39.91,41.4h-16a1,1,0,0,1-1-1v-13a1,1,0,0,1,1-1h27a1,1,0,0,1,1,1v8h-2v-7h-25v11h15Z"/><rect class="cls-2" x="32.9" y="17.4" width="8" height="2"/><path class="cls-2" d="M50.73,39.4l.62.05.63,0,.62,0,.88,2a8.46,8.46,0,0,1,2.31,1.15L58,42.17l.41.47.41.47.41.47-.83,2.08a8,8,0,0,1,.82,2.42l1.93,1.15-.05.62,0,.62,0,.63L58.91,52a8.15,8.15,0,0,1-1.13,2.29l.55,2.18-.47.41-.47.41-.47.41-2.09-.83a8.38,8.38,0,0,1-2.41.82L51.27,59.6l-.62-.05-.62,0-.63,0-.88-2.06a8.2,8.2,0,0,1-2.3-1.13l-2.17.55-.41-.47-.41-.47-.41-.47.82-2.07a8.59,8.59,0,0,1-.83-2.44L40.9,49.77l.05-.62,0-.63,0-.62,2-.88a8,8,0,0,1,1.14-2.31l-.54-2.16.47-.41.47-.41.47-.41,2.06.82a8.16,8.16,0,0,1,2.45-.83l1.14-1.91m0-2a2,2,0,0,0-1.72,1l-.69,1.16a12.9,12.9,0,0,0-1.24.42l-1.26-.5a2.11,2.11,0,0,0-.74-.14,2,2,0,0,0-1.32.49l-.47.42-.47.41-.47.41a2,2,0,0,0-.62,2l.33,1.32a10.6,10.6,0,0,0-.58,1.17l-1.24.54A2,2,0,0,0,39,47.77l0,.62L39,49l0,.62a2,2,0,0,0,1,1.85l1.17.7a8.79,8.79,0,0,0,.42,1.22L41,54.68a2,2,0,0,0,.35,2.06l.42.47.41.47.41.47a2,2,0,0,0,1.5.68,2.05,2.05,0,0,0,.49-.06l1.34-.34A12.12,12.12,0,0,0,47,59l.54,1.26a2,2,0,0,0,1.71,1.21l.62,0,.63,0,.62,0h.13a2,2,0,0,0,1.72-1l.71-1.19A10.46,10.46,0,0,0,54.89,59l1.29.52a2.11,2.11,0,0,0,.74.14,2,2,0,0,0,1.32-.49l.47-.42.47-.41.47-.41a2,2,0,0,0,.62-2l-.34-1.35a10.79,10.79,0,0,0,.56-1.13l1.27-.55A2,2,0,0,0,63,51.23l0-.62,0-.62,0-.63a2,2,0,0,0-1-1.85l-1.18-.7a10.13,10.13,0,0,0-.41-1.21L61,44.32a2,2,0,0,0-.35-2.06l-.42-.47-.41-.47-.41-.47a2,2,0,0,0-1.5-.68,2.05,2.05,0,0,0-.49.06l-1.33.34A10.32,10.32,0,0,0,55,40l-.55-1.25a2,2,0,0,0-1.7-1.21l-.62,0-.62,0-.63,0Z"/><path class="cls-2" d="M51,54.18a4.68,4.68,0,1,1,4.68-4.68A4.69,4.69,0,0,1,51,54.18Zm0-7.36a2.68,2.68,0,1,0,2.68,2.68A2.68,2.68,0,0,0,51,46.82Z"/></g></g></svg>