<svg xmlns="http://www.w3.org/2000/svg" viewBox="0 0 50 50"><defs><style>.cls-1{fill:#3f8624;}</style></defs><title>AWS-Storage-Gateway_Cached-Volume_light-bg</title><g id="Working"><path class="cls-1" d="M42.81,48.5H31.56a1,1,0,0,1-1-1V41.94H19.44V47.5a1,1,0,0,1-1,1H7.19a1,1,0,0,1-1-1V2.5a1,1,0,0,1,1-1H42.81a1,1,0,0,1,1,1v45A1,1,0,0,1,42.81,48.5Zm-10.25-2h9.25V3.5H8.19v43h9.25V40.94a1,1,0,0,1,1-1H31.56a1,1,0,0,1,1,1Z"/><path class="cls-1" d="M16.2,14.45a3.65,3.65,0,0,1-1.58.35q-3,0-3-4a4.85,4.85,0,0,1,.78-3,2.66,2.66,0,0,1,2.28-1,3.64,3.64,0,0,1,1.45.31V8a4.7,4.7,0,0,0-1.32-.23,1.76,1.76,0,0,0-1.55.69,3.88,3.88,0,0,0-.49,2.22v.27a4.07,4.07,0,0,0,.47,2.22,1.71,1.71,0,0,0,1.52.68,5.53,5.53,0,0,0,1.46-.28Z"/><path class="cls-1" d="M21.21,14.69l-.54-2.11H18.32l-.53,2.11H16.67l2.25-7.8h1.19l2.25,7.8Zm-2.69-2.94h1.93l-1-3.81Z"/><path class="cls-1" d="M27.44,14.45a3.7,3.7,0,0,1-1.59.35q-3,0-3-4a4.85,4.85,0,0,1,.78-3,2.65,2.65,0,0,1,2.28-1,3.64,3.64,0,0,1,1.45.31V8A4.7,4.7,0,0,0,26,7.76a1.75,1.75,0,0,0-1.54.69A3.88,3.88,0,0,0,24,10.67v.27a4,4,0,0,0,.47,2.22,1.7,1.7,0,0,0,1.52.68,5.53,5.53,0,0,0,1.46-.28Z"/><path class="cls-1" d="M32.58,14.69V11.14H29.75v3.55H28.66V6.89h1.09v3.36h2.83V6.89h1.09v7.8Z"/><path class="cls-1" d="M35.36,14.69V6.89h4v.88H36.45v2.45h2.36v.88H36.45v2.71h2.86v.88Z"/></g></svg>