<svg xmlns="http://www.w3.org/2000/svg" viewBox="0 0 50 50"><defs><style>.cls-1{fill:#3f8624;}</style></defs><title>AWS-Snow-Family_Snowball-Import-Export_light-bg</title><g id="Working"><path class="cls-1" d="M6.72,23.59h-2V13.45a3,3,0,0,1,3-3H17a1,1,0,0,1,1,.67l1,3.08H30L31,11.08a1,1,0,0,1,.95-.67h9.21a3,3,0,0,1,3,3v5.46h-2V13.45a1,1,0,0,0-1-1h-8.5l-1.05,3.07a1,1,0,0,1-.95.68H18.25a1,1,0,0,1-.94-.68l-1.06-3.07H7.75a1,1,0,0,0-1,1Z"/><path class="cls-1" d="M41.18,39.59H7.75a3,3,0,0,1-3-3V29.22h2v7.33a1,1,0,0,0,1,1H41.18a1,1,0,0,0,1-1V33.91h2v2.64A3,3,0,0,1,41.18,39.59Z"/><path class="cls-1" d="M42.86,43.34H6.08A5.18,5.18,0,0,1,1,38.09V29.22H3v8.87a3.18,3.18,0,0,0,3.11,3.25H42.86A3.18,3.18,0,0,0,46,38.09V30.36h2v7.73A5.18,5.18,0,0,1,42.86,43.34ZM3,23.59H1V11.91A5.18,5.18,0,0,1,6.08,6.66H42.86A5.18,5.18,0,0,1,48,11.91V22.45H46V11.91a3.18,3.18,0,0,0-3.11-3.25H6.08A3.18,3.18,0,0,0,3,11.91Z"/><path class="cls-1" d="M38.59,23.59h-2V20.84H24.47v-2H37.59a1,1,0,0,1,1,1Z"/><path class="cls-1" d="M13.28,23.59h-2V19.84a1,1,0,0,1,1-1h5.63v2H13.28Z"/><path class="cls-1" d="M17.91,33H12.28a1,1,0,0,1-1-1V29.22h2V31h4.63Z"/><path class="cls-1" d="M37.59,33H24.47V31H36.59V29.22h2V32A1,1,0,0,1,37.59,33Z"/><rect class="cls-1" x="20.72" y="10.41" width="7.5" height="2"/><path class="cls-1" d="M42.05,32.74l-1.42-1.41,4.89-4.92-4.89-4.92,1.42-1.41,5.59,5.62a1,1,0,0,1,0,1.41Z"/><rect class="cls-1" x="28.22" y="25.41" width="18.71" height="2"/><path class="cls-1" d="M20.52,32.74,19.1,31.33,24,26.41l-4.9-4.92,1.42-1.41,5.6,5.62a1,1,0,0,1,0,1.41Z"/><rect class="cls-1" x="1.03" y="25.41" width="24.34" height="2"/></g></svg>