<svg xmlns="http://www.w3.org/2000/svg" viewBox="0 0 75 75"><defs><style>.cls-1{fill:#3f8624;}.cls-2{fill:#fff;}</style></defs><title>AWS-Backup_light-bg</title><g id="Reference"><rect id="Green_Light_BG" data-name="Green Light BG" class="cls-1" width="75" height="75"/><g id="Product_Icon" data-name="Product Icon"><rect class="cls-2" x="19.75" y="34.76" width="1.98" height="20.72" transform="translate(-12.35 8.1) rotate(-17.1)"/><rect class="cls-2" x="17.54" y="23.56" width="18.59" height="1.98" transform="translate(-9.23 19.83) rotate(-34.99)"/><rect class="cls-2" x="47.17" y="15.25" width="1.98" height="18.59" transform="translate(0.43 49.93) rotate(-55.01)"/><rect class="cls-2" x="43.9" y="44.13" width="20.72" height="1.98" transform="matrix(0.29, -0.96, 0.96, 0.29, -4.82, 83.71)"/><rect class="cls-2" x="28.36" y="56.31" width="18.28" height="1.98"/><path class="cls-2" d="M37.5,21.73a4,4,0,1,1,4-4A4,4,0,0,1,37.5,21.73Zm0-6.09a2.06,2.06,0,1,0,2.06,2.06A2.06,2.06,0,0,0,37.5,15.64Z"/><path class="cls-2" d="M25.31,61.34a4,4,0,1,1,4-4A4,4,0,0,1,25.31,61.34Zm0-6.09a2.06,2.06,0,1,0,2.06,2A2.05,2.05,0,0,0,25.31,55.25Z"/><path class="cls-2" d="M49.69,61.34a4,4,0,1,1,4-4A4,4,0,0,1,49.69,61.34Zm0-6.09a2.06,2.06,0,1,0,2.05,2A2.05,2.05,0,0,0,49.69,55.25Z"/><path class="cls-2" d="M16.94,36.21a4,4,0,1,1,4-4A4,4,0,0,1,16.94,36.21Zm0-6.1a2.06,2.06,0,1,0,2,2.06A2.06,2.06,0,0,0,16.94,30.11Z"/><path class="cls-2" d="M58.06,36.21a4,4,0,1,1,4-4A4,4,0,0,1,58.06,36.21Zm0-6.1a2.06,2.06,0,1,0,2.06,2.06A2.06,2.06,0,0,0,58.06,30.11Z"/><rect class="cls-2" x="36.51" y="20.74" width="1.98" height="5.33"/><rect class="cls-2" x="21.66" y="31.93" width="1.98" height="5.8" transform="translate(-18.29 41.92) rotate(-66.79)"/><rect class="cls-2" x="25.61" y="51.74" width="5.49" height="1.98" transform="translate(-31.25 47.08) rotate(-56.31)"/><rect class="cls-2" x="45.65" y="49.99" width="1.98" height="5.49" transform="translate(-21.42 34.73) rotate(-33.69)"/><rect class="cls-2" x="49.45" y="33.84" width="5.8" height="1.98" transform="matrix(0.92, -0.39, 0.39, 0.92, -9.49, 23.45)"/><path class="cls-2" d="M29.58,35.24a1,1,0,0,1-1-.91l-.28-3.8,2-.14.2,2.8L33.3,33l.15,2-3.8.28Z"/><path class="cls-2" d="M37.49,49.51A10.22,10.22,0,0,1,27.26,39.35l2,0a8.15,8.15,0,0,0,3.32,6.57,8.26,8.26,0,0,0,11.55-1.69,8.25,8.25,0,0,0-1.69-11.55,8.26,8.26,0,0,0-11.55,1.69l-1.59-1.19a10.24,10.24,0,1,1,8.2,16.35Z"/></g></g></svg>