<svg xmlns="http://www.w3.org/2000/svg" viewBox="0 0 50 50"><defs><style>.cls-1{fill:#3f8624;}</style></defs><title>AWS-Storage-Gateway_Virtual-Tape-Library_light-bg</title><g id="Working"><path class="cls-1" d="M42.81,48.5H31.56a1,1,0,0,1-1-1V41.94H19.44V47.5a1,1,0,0,1-1,1H7.19a1,1,0,0,1-1-1V2.5a1,1,0,0,1,1-1H42.81a1,1,0,0,1,1,1v45A1,1,0,0,1,42.81,48.5Zm-10.25-2h9.25V3.5H8.19v43h9.25V40.94a1,1,0,0,1,1-1H31.56a1,1,0,0,1,1,1Z"/><path class="cls-1" d="M19.1,15.62,16.66,7.18H18l1.78,7.17,1.8-7.17h1.25l-2.44,8.44Z"/><path class="cls-1" d="M25.41,15.62V8.17h-2.1v-1H28.7v1H26.59v7.45Z"/><path class="cls-1" d="M29.78,15.62V7.18H31v7.46H34v1Z"/><path class="cls-1" d="M17,35.38a7.1,7.1,0,1,1,7.09-7.1A7.11,7.11,0,0,1,17,35.38Zm0-12.19a5.1,5.1,0,1,0,5.09,5.09A5.09,5.09,0,0,0,17,23.19Z"/><path class="cls-1" d="M33,35.38a7.1,7.1,0,1,1,7.09-7.1A7.11,7.11,0,0,1,33,35.38Zm0-12.19a5.1,5.1,0,1,0,5.09,5.09A5.09,5.09,0,0,0,33,23.19Z"/><rect class="cls-1" x="17.5" y="33.38" width="15.94" height="2"/></g></svg>