<svg xmlns="http://www.w3.org/2000/svg" xmlns:xlink="http://www.w3.org/1999/xlink" viewBox="0 0 75 75"><defs><style>.cls-1{fill:url(#GreenGradient);}.cls-2{fill:#fff;}</style><linearGradient id="GreenGradient" x1="-2797.47" y1="-41.53" x2="-2903.53" y2="64.53" gradientTransform="translate(-2813 49) rotate(180)" gradientUnits="userSpaceOnUse"><stop offset="0" stop-color="#1b660f"/><stop offset="1" stop-color="#6cae3e"/></linearGradient></defs><title>AWS-Storage-Gateway</title><g id="Reference"><rect id="Green_Gradient" data-name="Green Gradient" class="cls-1" width="75" height="75"/><g id="Icon_Test" data-name="Icon Test"><path class="cls-2" d="M54.61,26.07c-.4-3.12-2.08-5.39-4.59-6.16a5.94,5.94,0,0,0-5.42,1,14.21,14.21,0,0,0-3-4.28A13.2,13.2,0,0,0,19,25.57v.73a8.92,8.92,0,0,0-6.5,9V36a8.9,8.9,0,0,0,8,8.27v-2a7,7,0,0,1-6-6.43v-.55c0-5,3.58-6.66,5.76-7.22a1,1,0,0,0,.83-1.11A9.94,9.94,0,0,1,21,25.57,11.19,11.19,0,0,1,40.2,18.09a13.12,13.12,0,0,1,3.12,5,1,1,0,0,0,1.29.59,1,1,0,0,0,.44-.33,4,4,0,0,1,4.43-1.52c1.9.58,3.08,2.44,3.24,5.11a1,1,0,0,0,.8.92c4.65.94,7,3.45,7,7.46s-2,6.4-6,6.87v2c5.18-.52,8-3.63,8-8.88C62.48,30.59,59.69,27.29,54.61,26.07Z"/><path class="cls-2" d="M51.48,62.29h-5a1,1,0,0,1-1-1V36.91a16.29,16.29,0,0,0-7.7-2,16.61,16.61,0,0,0-8.3,2.29V61.29a1,1,0,0,1-1,1h-5a1,1,0,0,1-1-1V34.09a1.05,1.05,0,0,1,.34-.75c3.68-3.25,9.14-5.11,15-5.11A23.24,23.24,0,0,1,52.1,32.79a1,1,0,0,1,.38.78V61.29A1,1,0,0,1,51.48,62.29Zm-4-2h3V34.07a21.43,21.43,0,0,0-12.69-3.84,21,21,0,0,0-13.31,4.32V60.29h3V36.61a.93.93,0,0,1,.47-.87,19.22,19.22,0,0,1,9.83-2.84,18.65,18.65,0,0,1,9.13,2.52,1,1,0,0,1,.57.87Z"/></g></g></svg>