<svg xmlns="http://www.w3.org/2000/svg" xmlns:xlink="http://www.w3.org/1999/xlink" viewBox="0 0 75 75"><defs><style>.cls-1{fill:url(#GreenGradient);}.cls-2{fill:#fff;}</style><linearGradient id="GreenGradient" x1="-2019.02" y1="-871.4" x2="-2169.02" y2="-871.4" gradientTransform="translate(-2059.37 902.02) rotate(135)" gradientUnits="userSpaceOnUse"><stop offset="0" stop-color="#1b660f"/><stop offset="1" stop-color="#6cae3e"/></linearGradient></defs><title>AWS-Snowmobile</title><g id="Reference"><rect id="Green_Gradient" data-name="Green Gradient" class="cls-1" width="75" height="75"/><g id="Icon_Test" data-name="Icon Test"><path class="cls-2" d="M47.56,29.5H20.48a1,1,0,0,0-1,1V44.54a1,1,0,0,0,1,1H22.4a3.81,3.81,0,0,0,7,.54,3.81,3.81,0,0,0,7-.54H47.56a1,1,0,0,0,.67-.27,3.82,3.82,0,0,0,7.5-.73h.83a1,1,0,0,0,1-1V38.39A5.91,5.91,0,0,0,51.6,32.5H48.52v-2A1,1,0,0,0,47.56,29.5ZM26,46.14a1.92,1.92,0,1,1,1.92-1.92A1.92,1.92,0,0,1,26,46.14Zm6.72,0a1.92,1.92,0,1,1,1.92-1.92A1.92,1.92,0,0,1,32.72,46.14Zm13.8-2.64h-10a3.82,3.82,0,0,0-7.13-1.1,3.82,3.82,0,0,0-7.13,1.1h-.71v-12h25v12Zm5.4,2.64a1.92,1.92,0,1,1,1.92-1.92A1.92,1.92,0,0,1,51.92,46.14ZM51.6,34.5a3.91,3.91,0,0,1,3.92,3.89V42.5h-.19a3.81,3.81,0,0,0-6.81,0v-8Z"/><rect class="cls-2" x="14.52" y="30.5" width="3" height="2"/><rect class="cls-2" x="12.52" y="35.5" width="5" height="2"/><rect class="cls-2" x="13.52" y="40.5" width="4" height="2"/><path class="cls-2" d="M38.48,13.5a24,24,0,0,0-21.81,14l1.74.8a22.09,22.09,0,1,1-.74,16.56l-1.81.64a24,24,0,1,0,22.62-32Z"/></g></g></svg>