<svg xmlns="http://www.w3.org/2000/svg" width="75" height="75" viewBox="0 0 75 75"><title>AWS-CloudEndure-Disaster-Recovery_light-bg</title><g id="Example"><rect id="Green_Light_BG" data-name="Green Light BG" width="75" height="75" style="fill:#3f8624"/><path id="_64x" data-name="64x" d="M35.06,62.67a1,1,0,0,1-.41-.09,1,1,0,0,1-.58-1.09L36.53,48H31.68a1,1,0,0,1-.86-.49,1,1,0,0,1,0-1l7.64-14a1,1,0,0,1,.88-.52h9.93a1,1,0,0,1,.85,1.53L44.8,42h4.43a1,1,0,0,1,.9.56,1,1,0,0,1-.1,1L35.85,62.27A1,1,0,0,1,35.06,62.67ZM33.37,46h4.35a1,1,0,0,1,.77.36,1,1,0,0,1,.22.82L36.79,57.73,47.22,44H43a1,1,0,0,1-.85-1.53L47.45,34H39.91Zm22,5.94c.1,0,9.93-.92,9.93-10.81,0-7.67-6-10-8.82-10.64-.43-3.66-2.35-6.31-5.23-7.15a6.43,6.43,0,0,0-6,1.29,16.63,16.63,0,0,0-3.42-5.08,14.6,14.6,0,0,0-16.51-3.29c-5,2.11-8.72,7.92-8.72,13.53,0,.32,0,.65,0,1A10.17,10.17,0,0,0,9.25,41.05c0,.36,0,.72,0,1.06.49,6.24,3.73,9.83,8.9,9.83H29V50H18.19c-5.46,0-6.67-5.07-6.9-8a8.77,8.77,0,0,1,0-.9,8.28,8.28,0,0,1,6.59-8.57h0a1,1,0,0,0,.79-1.1,13.82,13.82,0,0,1-.09-1.58c0-4.77,3.29-9.9,7.5-11.69A12.59,12.59,0,0,1,40.38,21a15.29,15.29,0,0,1,3.55,5.83,1,1,0,0,0,1.75.26,4.54,4.54,0,0,1,5-1.79c2.19.63,3.62,2.84,3.86,5.91a1,1,0,0,0,.82,1.13c2.39.41,7.94,2.09,7.94,8.83,0,8-7.77,8.85-8,8.87H52v1.94Z" style="fill:#fff"/></g><g id="Working"><rect width="75" height="75" style="fill:none"/></g></svg>