<?xml version="1.0" encoding="UTF-8"?>
<svg width="75px" height="75px" viewBox="0 0 75 75" version="1.1" xmlns="http://www.w3.org/2000/svg" xmlns:xlink="http://www.w3.org/1999/xlink">
    <!-- Generator: Sketch 55.2 (78181) - https://sketchapp.com -->
    <title>EFS-Standard_primary</title>
    <desc>Created with Sketch.</desc>
    <defs>
        <linearGradient x1="-20.7106756%" y1="120.710676%" x2="120.710681%" y2="-20.7106807%" id="linearGradient-1">
            <stop stop-color="#1A660E" offset="0%"></stop>
            <stop stop-color="#6BAE3D" offset="100%"></stop>
        </linearGradient>
    </defs>
    <g id="EFS-Standard_primary" stroke="none" stroke-width="1" fill="none" fill-rule="evenodd">
        <g id="Group-18">
            <polygon id="Fill-1" fill="url(#linearGradient-1)" points="0 75 75 75 75 0 0 0"></polygon>
            <g id="Group-17" transform="translate(11.000000, 11.000000)" fill="#FFFFFF">
                <path d="M41,30.3491 L41,18.6151 L49,14.8251 L49,26.1391 L41,30.3491 Z M31,48.7401 L31,37.0931 L39,33.5131 L39,44.7401 L31,48.7401 Z M21,33.6531 L29,37.4421 L29,48.9651 L21,44.7541 L21,33.6531 Z M10,14.7261 L18,18.5161 L18,30.1801 L10,26.1801 L10,14.7261 Z M18.839,9.3051 L27.119,13.3951 L19.274,16.9061 L11.444,13.1971 L18.839,9.3051 Z M29,14.7441 L29,26.1581 L20,30.8941 L20,18.7721 L29,14.7441 Z M39,30.4061 L31,26.4071 L31,15.0981 L39,18.6781 L39,30.4061 Z M29.616,35.5211 L22.188,32.0031 L29.755,28.0201 L37.606,31.9461 L29.616,35.5211 Z M40.242,9.4031 L47.6,13.2751 L39.936,16.9061 L32.128,13.4121 L40.242,9.4031 Z M50.466,12.5241 L40.723,7.3951 C40.439,7.2471 40.101,7.2421 39.813,7.3841 L29.591,12.4331 L29.61,12.3941 L19.268,7.2861 C18.981,7.1431 18.643,7.1481 18.359,7.2971 L8.534,12.4681 C8.206,12.6411 8,12.9821 8,13.3531 L8,26.7981 C8,27.1771 8.214,27.5231 8.553,27.6921 L18.895,32.8631 L19,32.6531 L19,45.3581 C19,45.7291 19.206,46.0701 19.534,46.2431 L29.277,51.3711 C29.423,51.4481 29.583,51.4861 29.743,51.4861 C29.896,51.4861 30.05,51.4511 30.19,51.3811 L30.952,51.0001 L31,51.0001 L31,50.9761 L40.447,46.2521 C40.786,46.0831 41,45.7371 41,45.3581 L41,32.6091 L50.466,27.6271 C50.794,27.4541 51,27.1131 51,26.7421 L51,13.4091 C51,13.0371 50.794,12.6971 50.466,12.5241 L50.466,12.5241 Z" id="Fill-3"></path>
                <polygon id="Fill-5" points="17.189 4.2256 11.539 0.9296 10.531 2.6566 16.181 5.9536"></polygon>
                <polygon id="Fill-7" points="12.5679 6.5674 7.2809 3.6434 6.3139 5.3934 11.5999 8.3174"></polygon>
                <polygon id="Fill-9" points="8.4131 10.1333 2.1741 6.5433 1.1771 8.2763 7.4161 11.8663"></polygon>
                <polygon id="Fill-11" points="5.4766 17.6118 6.4686 15.8758 3.5846 14.2278 2.5926 15.9638"></polygon>
                <polygon id="Fill-13" points="3.3574 29.7769 11.3574 33.9629 12.2844 32.1909 4.2844 28.0049"></polygon>
                <polygon id="Fill-15" points="6.7866 23.4072 1.6146 20.4852 0.6316 22.2262 5.8036 25.1482"></polygon>
            </g>
        </g>
    </g>
</svg>