<?xml version="1.0" encoding="UTF-8"?>
<svg width="75px" height="75px" viewBox="0 0 75 75" version="1.1" xmlns="http://www.w3.org/2000/svg" xmlns:xlink="http://www.w3.org/1999/xlink">
    <!-- Generator: Sketch 55.2 (78181) - https://sketchapp.com -->
    <title>EFS-Standard_light-bg</title>
    <desc>Created with Sketch.</desc>
    <g id="EFS-Standard_light-bg" stroke="none" stroke-width="1" fill="none" fill-rule="evenodd">
        <g id="Group-17">
            <polygon id="Fill-1" fill="#3F8624" points="0 75 75 75 75 0 0 0"></polygon>
            <g id="Group-16" transform="translate(11.000000, 11.000000)" fill="#FFFFFF">
                <path d="M41,30.3691 L41,18.6341 L49,14.8451 L49,26.1581 L41,30.3691 Z M31,48.7601 L31,37.1141 L39,33.5331 L39,44.7601 L31,48.7601 Z M21,33.6731 L29,37.4621 L29,48.9841 L21,44.7741 L21,33.6731 Z M10,14.7461 L18,18.5341 L18,30.1991 L10,26.1991 L10,14.7461 Z M18.839,9.3241 L27.119,13.4151 L19.274,16.9261 L11.443,13.2171 L18.839,9.3241 Z M29,14.7651 L29,26.1781 L20,30.9141 L20,18.7931 L29,14.7651 Z M39,30.4261 L31,26.4271 L31,15.1181 L39,18.6981 L39,30.4261 Z M29.616,35.5421 L22.188,32.0221 L29.755,28.0401 L37.606,31.9661 L29.616,35.5421 Z M40.242,9.4231 L47.601,13.2961 L39.936,16.9261 L32.128,13.4321 L40.242,9.4231 Z M50.466,12.5441 L40.723,7.4161 C40.439,7.2651 40.103,7.2621 39.813,7.4041 L29.59,12.4551 L29.61,12.4141 L19.268,7.3061 C18.981,7.1631 18.643,7.1681 18.359,7.3171 L8.534,12.4881 C8.206,12.6611 8,13.0021 8,13.3731 L8,26.8171 C8,27.1961 8.214,27.5421 8.553,27.7121 L18.895,32.8831 L19,32.6731 L19,45.3781 C19,45.7491 19.206,46.0901 19.534,46.2631 L29.277,51.3901 C29.423,51.4681 29.583,51.5061 29.743,51.5061 C29.896,51.5061 30.05,51.4711 30.19,51.4001 L30.993,50.9991 L31,50.9991 L31,50.9961 L40.447,46.2721 C40.786,46.1021 41,45.7571 41,45.3781 L41,32.6291 L50.466,27.6461 C50.794,27.4731 51,27.1331 51,26.7621 L51,13.4291 C51,13.0571 50.794,12.7171 50.466,12.5441 L50.466,12.5441 Z" id="Fill-2"></path>
                <polygon id="Fill-4" points="17.189 4.2461 11.539 0.9491 10.531 2.6761 16.181 5.9731"></polygon>
                <polygon id="Fill-6" points="12.5679 6.5869 7.2809 3.6629 6.3139 5.4129 11.5999 8.3369"></polygon>
                <polygon id="Fill-8" points="8.4131 10.1523 2.1741 6.5623 1.1771 8.2973 7.4161 11.8863"></polygon>
                <polygon id="Fill-10" points="5.4766 17.6318 6.4686 15.8958 3.5846 14.2468 2.5926 15.9838"></polygon>
                <polygon id="Fill-12" points="3.3569 29.7959 11.3569 33.9829 12.2849 32.2109 4.2849 28.0249"></polygon>
                <polygon id="Fill-14" points="6.7866 23.4268 1.6146 20.5048 0.6316 22.2468 5.8036 25.1688"></polygon>
            </g>
        </g>
    </g>
</svg>