<?xml version="1.0" encoding="UTF-8"?>
<svg width="75px" height="75px" viewBox="0 0 75 75" version="1.1" xmlns="http://www.w3.org/2000/svg" xmlns:xlink="http://www.w3.org/1999/xlink">
    <!-- Generator: Sketch 55.2 (78181) - https://sketchapp.com -->
    <title>EFS-Standard_light-bg</title>
    <desc>Created with Sketch.</desc>
    <g id="EFS-Standard_light-bg" stroke="none" stroke-width="1" fill="none" fill-rule="evenodd">
        <g id="Group-7">
            <polygon id="Fill-1" fill="#3F8624" points="0 75 75 75 75 0 0 0"></polygon>
            <g id="Group-6" transform="translate(13.000000, 12.000000)" fill="#FFFFFF">
                <path d="M36.4419,27.1055 L36.4419,13.5325 L46.4419,8.7965 L46.4419,22.0905 L36.4419,27.1055 Z M24.4419,48.3285 L24.4419,34.8485 C24.4669,34.8395 24.4959,34.8435 24.5209,34.8325 L34.4419,30.3915 L34.4419,43.3285 L24.4419,48.3285 Z M13.4419,29.9705 L22.4419,34.2335 L22.4419,48.0795 L13.4419,43.3425 L13.4419,29.9705 Z M2.4419,9.1085 L11.4419,13.3715 L11.4419,26.5895 L2.4419,22.0895 L2.4419,9.1085 Z M47.9079,6.4825 L36.6969,0.5825 C36.4139,0.4315 36.0749,0.4275 35.7879,0.5705 L27.6369,4.5965 L28.5239,6.3895 L36.2159,2.5885 L45.0549,7.2415 L35.9019,11.5765 L31.1179,9.4345 L30.3009,11.2605 L34.4419,13.1145 L34.4419,26.9945 L30.6079,25.0785 L29.7129,26.8675 L33.3539,28.6865 L24.1249,32.8185 L14.8999,28.4495 L18.3459,26.6355 L17.4149,24.8665 L13.4419,26.9565 L13.4419,13.2665 L18.7309,10.9005 L17.9149,9.0745 L12.3239,11.5765 L3.5169,7.4055 L12.6679,2.5885 L21.1239,6.7655 L22.0079,4.9725 L13.0949,0.5705 C12.8079,0.4285 12.4699,0.4325 12.1869,0.5825 L0.9759,6.4825 C0.6479,6.6555 0.4419,6.9965 0.4419,7.3675 L0.4419,22.7085 C0.4419,23.0865 0.6559,23.4325 0.9949,23.6025 L11.4419,28.8265 L11.4419,29.0195 L11.4419,43.9465 C11.4419,44.3175 11.6479,44.6585 11.9759,44.8315 L23.1809,50.7285 C23.3269,50.8055 23.4869,50.8435 23.6469,50.8435 C23.7999,50.8435 23.9539,50.8085 24.0939,50.7385 L35.8889,44.8405 C36.2279,44.6705 36.4419,44.3255 36.4419,43.9465 L36.4419,29.3425 L47.8899,23.6015 C48.2279,23.4325 48.4419,23.0855 48.4419,22.7085 L48.4419,7.3675 C48.4419,6.9965 48.2359,6.6555 47.9079,6.4825 L47.9079,6.4825 Z" id="Fill-2"></path>
                <path d="M27.8442,21.9062 C27.8442,23.3912 26.8192,24.6322 25.4422,24.9832 L25.4422,18.9632 C26.6922,19.4132 27.8442,20.3502 27.8442,21.9062 M21.4722,13.5342 C21.4722,12.2082 22.2872,11.0712 23.4422,10.5922 L23.4422,16.2992 C22.3722,15.7982 21.4722,14.9082 21.4722,13.5342 M19.4722,13.5342 C19.4722,15.8102 21.0292,17.6892 23.4422,18.4542 L23.4422,24.8492 C22.2872,24.3702 21.4722,23.2322 21.4722,21.9062 C21.4722,21.3532 21.0252,20.9062 20.4722,20.9062 C19.9192,20.9062 19.4722,21.3532 19.4722,21.9062 C19.4722,24.3442 21.1702,26.3832 23.4422,26.9332 L23.4422,29.0192 C23.4422,29.5722 23.8892,30.0192 24.4422,30.0192 C24.9942,30.0192 25.4422,29.5722 25.4422,29.0192 L25.4422,27.0132 C27.9282,26.6322 29.8442,24.4972 29.8442,21.9062 C29.8442,19.5002 28.0932,17.5532 25.4422,16.8842 L25.4422,10.4582 C26.8192,10.8092 27.8442,12.0502 27.8442,13.5342 C27.8442,14.0872 28.2912,14.5342 28.8442,14.5342 C29.3972,14.5342 29.8442,14.0872 29.8442,13.5342 C29.8442,10.9432 27.9282,8.8092 25.4422,8.4272 L25.4422,5.0192 C25.4422,4.4672 24.9942,4.0192 24.4422,4.0192 C23.8892,4.0192 23.4422,4.4672 23.4422,5.0192 L23.4422,8.5082 C21.1702,9.0582 19.4722,11.0952 19.4722,13.5342" id="Fill-4"></path>
            </g>
        </g>
    </g>
</svg>