<?xml version="1.0" encoding="UTF-8"?>
<svg width="75px" height="75px" viewBox="0 0 75 75" version="1.1" xmlns="http://www.w3.org/2000/svg" xmlns:xlink="http://www.w3.org/1999/xlink">
    <!-- Generator: Sketch 55.2 (78181) - https://sketchapp.com -->
    <title>EFS-Standard_primary</title>
    <desc>Created with Sketch.</desc>
    <defs>
        <linearGradient x1="-20.7106756%" y1="120.710676%" x2="120.710681%" y2="-20.7106807%" id="linearGradient-1">
            <stop stop-color="#1A660E" offset="0%"></stop>
            <stop stop-color="#6BAE3D" offset="100%"></stop>
        </linearGradient>
    </defs>
    <g id="EFS-Standard_primary" stroke="none" stroke-width="1" fill="none" fill-rule="evenodd">
        <g id="Group-8">
            <polygon id="Fill-1" fill="url(#linearGradient-1)" points="0 75 75 75 75 0 0 0"></polygon>
            <g id="Group-7" transform="translate(13.000000, 12.000000)" fill="#FFFFFF">
                <path d="M36.4419,27.0859 L36.4419,13.5129 L46.4419,8.7769 L46.4419,22.0709 L36.4419,27.0859 Z M24.4419,48.3079 L24.4419,34.8279 C24.4669,34.8189 24.4959,34.8219 24.5209,34.8109 L34.4419,30.3709 L34.4419,43.3079 L24.4419,48.3079 Z M13.4419,29.9509 L22.4419,34.2129 L22.4419,48.0599 L13.4419,43.3229 L13.4419,29.9509 Z M2.4419,9.0889 L11.4419,13.3519 L11.4419,26.5699 L2.4419,22.0699 L2.4419,9.0889 Z M47.9079,6.4619 L36.6969,0.5619 C36.4139,0.4139 36.0749,0.4089 35.7879,0.5499 L27.6369,4.5769 L28.5239,6.3699 L36.2159,2.5689 L45.0549,7.2209 L35.9019,11.5559 L31.1179,9.4149 L30.3009,11.2399 L34.4419,13.0939 L34.4419,26.9749 L30.6079,25.0579 L29.7129,26.8469 L33.3539,28.6669 L24.1249,32.7969 L14.9009,28.4289 L18.3459,26.6159 L17.4149,24.8459 L13.4419,26.9369 L13.4419,13.2469 L18.7309,10.8799 L17.9149,9.0539 L12.3239,11.5559 L3.5169,7.3849 L12.6679,2.5689 L21.1229,6.7459 L22.0089,4.9529 L13.0959,0.5499 C12.8069,0.4079 12.4699,0.4139 12.1869,0.5619 L0.9759,6.4619 C0.6479,6.6349 0.4419,6.9759 0.4419,7.3469 L0.4419,22.6879 C0.4419,23.0669 0.6559,23.4129 0.9949,23.5829 L11.4419,28.8059 L11.4419,28.9999 L11.4419,43.9259 C11.4419,44.2969 11.6479,44.6379 11.9759,44.8109 L23.1809,50.7089 C23.3269,50.7849 23.4869,50.8239 23.6469,50.8239 C23.7999,50.8239 23.9539,50.7889 24.0939,50.7179 L35.8889,44.8209 C36.2279,44.6509 36.4419,44.3049 36.4419,43.9259 L36.4419,29.3229 L47.8899,23.5819 C48.2279,23.4119 48.4419,23.0659 48.4419,22.6879 L48.4419,7.3469 C48.4419,6.9759 48.2359,6.6349 47.9079,6.4619 L47.9079,6.4619 Z" id="Fill-3"></path>
                <path d="M27.8442,21.8867 C27.8442,23.3717 26.8192,24.6117 25.4422,24.9637 L25.4422,18.9437 C26.6922,19.3927 27.8442,20.3307 27.8442,21.8867 M21.4722,13.5147 C21.4722,12.1887 22.2872,11.0517 23.4422,10.5727 L23.4422,16.2797 C22.3722,15.7787 21.4722,14.8877 21.4722,13.5147 M19.4722,13.5147 C19.4722,15.7917 21.0292,17.6707 23.4422,18.4337 L23.4422,24.8287 C22.2872,24.3497 21.4722,23.2127 21.4722,21.8867 C21.4722,21.3347 21.0252,20.8867 20.4722,20.8867 C19.9192,20.8867 19.4722,21.3347 19.4722,21.8867 C19.4722,24.3247 21.1702,26.3627 23.4422,26.9137 L23.4422,28.9997 C23.4422,29.5527 23.8892,29.9997 24.4422,29.9997 C24.9942,29.9997 25.4422,29.5527 25.4422,28.9997 L25.4422,26.9937 C27.9282,26.6117 29.8442,24.4777 29.8442,21.8867 C29.8442,19.4807 28.0932,17.5337 25.4422,16.8637 L25.4422,10.4377 C26.8192,10.7897 27.8442,12.0297 27.8442,13.5147 C27.8442,14.0667 28.2912,14.5147 28.8442,14.5147 C29.3972,14.5147 29.8442,14.0667 29.8442,13.5147 C29.8442,10.9237 27.9282,8.7897 25.4422,8.4077 L25.4422,4.9997 C25.4422,4.4477 24.9942,3.9997 24.4422,3.9997 C23.8892,3.9997 23.4422,4.4477 23.4422,4.9997 L23.4422,8.4877 C21.1702,9.0387 19.4722,11.0757 19.4722,13.5147" id="Fill-5"></path>
            </g>
        </g>
    </g>
</svg>