<svg xmlns="http://www.w3.org/2000/svg" width="50" height="50" viewBox="0 0 50 50"><title>Multiple-Volume_Resource-Icon_light-bg</title><g id="Working"><path d="M6.8,6.12.38,14.62l31.43-.15L26.25,6.12ZM4.41,12.6,7.8,8.12H25.18l2.91,4.36ZM.69,43.88H31.55V15.7H.69Zm2-26.18H29.55V41.88H2.69ZM35.9,9.16l5.5,7.28-8.28,0v-2h4.24l-2.46-3.26H31.76l-1.34-2Zm6.88,7.14h2.81l-1.55-2H42.25l-1.55-2H45l4.58,6.07-6.84,0Zm-9.6,1.2h8V41.22h-8v-2h6V19.5h-6Zm9.64,1.93h6.59V38.62h-6.6v-2h4.6V21.43H42.82Z" style="fill:#3f8624"/></g></svg>