<svg xmlns="http://www.w3.org/2000/svg" viewBox="0 0 50 50"><defs><style>.cls-1{fill:#d6242d;}</style></defs><title>AWS-RoboMaker_Cloud-Extension-ROS_light-bg</title><g id="Working"><path class="cls-1" d="M45,18.83a4,4,0,1,1,4-4A4,4,0,0,1,45,18.83Zm0-5.92a2,2,0,1,0,2,2A2,2,0,0,0,45,12.91Z"/><path class="cls-1" d="M45,29.19a4,4,0,1,1,4-4A4,4,0,0,1,45,29.19Zm0-5.92a2,2,0,1,0,2,2A2,2,0,0,0,45,23.27Z"/><path class="cls-1" d="M25,18.83a4,4,0,1,1,4-4A4,4,0,0,1,25,18.83Zm0-5.92a2,2,0,1,0,2,2A2,2,0,0,0,25,12.91Z"/><path class="cls-1" d="M14.66,9.21a4,4,0,1,1,4-4A4,4,0,0,1,14.66,9.21Zm0-5.92a2,2,0,1,0,2,2A2,2,0,0,0,14.66,3.29Z"/><path class="cls-1" d="M14.66,49.17a4,4,0,1,1,4-4A4,4,0,0,1,14.66,49.17Zm0-5.92a2,2,0,1,0,2,2A2,2,0,0,0,14.66,43.25Z"/><path class="cls-1" d="M5,29.19a4,4,0,1,1,4-4A4,4,0,0,1,5,29.19Zm0-5.92a2,2,0,1,0,2,2A2,2,0,0,0,5,23.27Z"/><path class="cls-1" d="M5,18.83a4,4,0,1,1,4-4A4,4,0,0,1,5,18.83Zm0-5.92a2,2,0,1,0,2,2A2,2,0,0,0,5,12.91Z"/><path class="cls-1" d="M45,7a1.74,1.74,0,1,1,1.74-1.74A1.74,1.74,0,0,1,45,7Zm0-2a.26.26,0,0,0-.26.26c0,.29.52.29.52,0A.26.26,0,0,0,45,5Z"/><path class="cls-1" d="M35.38,47a1.74,1.74,0,1,1,1.74-1.74A1.74,1.74,0,0,1,35.38,47Zm0-2a.26.26,0,0,0-.26.26c0,.29.52.29.52,0A.26.26,0,0,0,35.38,45Z"/><path class="cls-1" d="M45,37.33a1.74,1.74,0,1,1,1.74-1.74A1.74,1.74,0,0,1,45,37.33Zm0-2a.26.26,0,0,0-.26.26c0,.29.52.29.52,0A.26.26,0,0,0,45,35.33Z"/><path class="cls-1" d="M35.38,16.61a1.74,1.74,0,1,1,1.74-1.74A1.74,1.74,0,0,1,35.38,16.61Zm0-2a.26.26,0,0,0-.26.26c0,.29.52.29.52,0A.26.26,0,0,0,35.38,14.61Z"/><path class="cls-1" d="M25,7a1.74,1.74,0,1,1,1.74-1.74A1.74,1.74,0,0,1,25,7Zm0-2a.26.26,0,0,0-.26.26c0,.29.52.29.52,0A.26.26,0,0,0,25,5Z"/><path class="cls-1" d="M5,37.33a1.74,1.74,0,1,1,1.74-1.74A1.74,1.74,0,0,1,5,37.33Zm0-2a.26.26,0,0,0-.26.26c0,.29.52.29.52,0A.26.26,0,0,0,5,35.33Z"/><path class="cls-1" d="M14.66,27a1.74,1.74,0,1,1,1.74-1.74A1.74,1.74,0,0,1,14.66,27Zm0-2a.26.26,0,0,0-.26.26c0,.29.52.29.52,0A.26.26,0,0,0,14.66,25Z"/><path class="cls-1" d="M24.28,27A1.74,1.74,0,1,1,26,25.23,1.74,1.74,0,0,1,24.28,27Zm0-2a.26.26,0,0,0-.26.26c0,.29.52.29.52,0A.26.26,0,0,0,24.28,25Z"/><path class="cls-1" d="M24.28,35.94A1.74,1.74,0,1,1,26,34.2,1.74,1.74,0,0,1,24.28,35.94Zm0-2a.26.26,0,0,0-.26.26c0,.29.52.29.52,0A.26.26,0,0,0,24.28,33.94Z"/><path class="cls-1" d="M5,47a1.74,1.74,0,1,1,1.74-1.74A1.74,1.74,0,0,1,5,47Zm0-2a.26.26,0,0,0-.26.26c0,.29.52.29.52,0A.26.26,0,0,0,5,45Z"/><path class="cls-1" d="M5,7A1.74,1.74,0,1,1,6.78,5.25,1.74,1.74,0,0,1,5,7ZM5,5a.26.26,0,0,0-.26.26c0,.29.52.29.52,0A.26.26,0,0,0,5,5Z"/><path class="cls-1" d="M35.38,28.45a3.22,3.22,0,1,1,3.22-3.22A3.22,3.22,0,0,1,35.38,28.45Zm0-4.44a1.22,1.22,0,1,0,1.22,1.22A1.22,1.22,0,0,0,35.38,24Z"/><path class="cls-1" d="M35.38,38.81a3.22,3.22,0,1,1,3.22-3.22A3.22,3.22,0,0,1,35.38,38.81Zm0-4.44a1.22,1.22,0,1,0,1.22,1.22A1.22,1.22,0,0,0,35.38,34.37Z"/><path class="cls-1" d="M45,48.43a3.22,3.22,0,1,1,3.22-3.22A3.22,3.22,0,0,1,45,48.43ZM45,44a1.22,1.22,0,1,0,1.22,1.22A1.22,1.22,0,0,0,45,44Z"/><path class="cls-1" d="M35.38,8.47A3.22,3.22,0,1,1,38.6,5.25,3.22,3.22,0,0,1,35.38,8.47Zm0-4.44A1.22,1.22,0,1,0,36.6,5.25,1.22,1.22,0,0,0,35.38,4Z"/><path class="cls-1" d="M14.66,18.09a3.22,3.22,0,1,1,3.22-3.22A3.22,3.22,0,0,1,14.66,18.09Zm0-4.44a1.22,1.22,0,1,0,1.22,1.22A1.22,1.22,0,0,0,14.66,13.65Z"/><path class="cls-1" d="M14.66,38.81a3.22,3.22,0,1,1,3.22-3.22A3.22,3.22,0,0,1,14.66,38.81Zm0-4.44a1.22,1.22,0,1,0,1.22,1.22A1.22,1.22,0,0,0,14.66,34.37Z"/><path class="cls-1" d="M25,48.43a3.22,3.22,0,1,1,3.22-3.22A3.22,3.22,0,0,1,25,48.43ZM25,44a1.22,1.22,0,1,0,1.22,1.22A1.22,1.22,0,0,0,25,44Z"/></g></svg>