<svg xmlns="http://www.w3.org/2000/svg" viewBox="0 0 50 50"><defs><style>.cls-1{fill:#d6242d;}</style></defs><title>AWS-RoboMaker_Development-Environment_light-bg</title><g id="Working"><path class="cls-1" d="M23.75,24.48l-1.41-1.41,2.59-2.59-2.59-2.59,1.41-1.42,3.3,3.3a1,1,0,0,1,.29.71,1,1,0,0,1-.29.7Z"/><rect class="cls-1" x="26.86" y="23.11" width="5.7" height="2"/><path class="cls-1" d="M11.78,10.18a3.34,3.34,0,1,1,3.34-3.33A3.34,3.34,0,0,1,11.78,10.18Zm0-4.67a1.34,1.34,0,1,0,1.34,1.34A1.34,1.34,0,0,0,11.78,5.51Z"/><path class="cls-1" d="M11.78,41.7a3.34,3.34,0,1,1,3.34-3.34A3.34,3.34,0,0,1,11.78,41.7Zm0-4.67a1.34,1.34,0,1,0,1.34,1.33A1.34,1.34,0,0,0,11.78,37Z"/><path class="cls-1" d="M4.2,25.94A3.34,3.34,0,1,1,7.53,22.6,3.35,3.35,0,0,1,4.2,25.94Zm0-4.67A1.34,1.34,0,1,0,5.53,22.6,1.34,1.34,0,0,0,4.2,21.27Z"/><path class="cls-1" d="M4.2,17.77a3.34,3.34,0,1,1,3.33-3.34A3.35,3.35,0,0,1,4.2,17.77Zm0-4.67a1.34,1.34,0,1,0,1.33,1.33A1.34,1.34,0,0,0,4.2,13.1Z"/><path class="cls-1" d="M35.71,8.43A1.59,1.59,0,1,1,37.3,6.85,1.58,1.58,0,0,1,35.71,8.43Zm0-2a.41.41,0,0,0-.41.42.41.41,0,0,0,.41.41.41.41,0,0,0,.42-.41A.42.42,0,0,0,35.71,6.43Z"/><path class="cls-1" d="M35.07,20.33a1.58,1.58,0,1,1,1.58-1.58A1.58,1.58,0,0,1,35.07,20.33Zm0-2a.42.42,0,1,0,.42.42A.42.42,0,0,0,35.07,18.33Z"/><path class="cls-1" d="M20,8.43a1.59,1.59,0,1,1,1.58-1.58A1.59,1.59,0,0,1,20,8.43Zm0-2a.42.42,0,0,0-.42.42.42.42,0,0,0,.83,0A.42.42,0,0,0,20,6.43Z"/><path class="cls-1" d="M4.2,32.36a1.59,1.59,0,1,1,1.58-1.58A1.59,1.59,0,0,1,4.2,32.36Zm0-2a.42.42,0,0,0-.42.42.41.41,0,0,0,.42.41.41.41,0,0,0,.41-.41A.41.41,0,0,0,4.2,30.36Z"/><path class="cls-1" d="M11.78,24.19a1.59,1.59,0,1,1,1.59-1.59A1.59,1.59,0,0,1,11.78,24.19Zm0-2a.42.42,0,0,0,0,.83.42.42,0,1,0,0-.83Z"/><path class="cls-1" d="M4.2,40a1.59,1.59,0,1,1,1.58-1.59A1.59,1.59,0,0,1,4.2,40Zm0-2a.41.41,0,0,0-.42.41.42.42,0,0,0,.42.42.41.41,0,0,0,.41-.42A.41.41,0,0,0,4.2,38Z"/><path class="cls-1" d="M4.2,8.43A1.59,1.59,0,1,1,5.78,6.85,1.59,1.59,0,0,1,4.2,8.43Zm0-2a.42.42,0,0,0-.42.42.41.41,0,0,0,.42.41.41.41,0,0,0,.41-.41A.41.41,0,0,0,4.2,6.43Z"/><path class="cls-1" d="M28.13,9.6a2.75,2.75,0,1,1,2.75-2.75A2.75,2.75,0,0,1,28.13,9.6Zm0-3.5a.75.75,0,0,0,0,1.5.75.75,0,0,0,0-1.5Z"/><path class="cls-1" d="M11.78,17.19a2.76,2.76,0,1,1,2.76-2.76A2.76,2.76,0,0,1,11.78,17.19Zm0-3.51a.76.76,0,1,0,.76.75A.76.76,0,0,0,11.78,13.68Z"/><path class="cls-1" d="M11.78,33.53a2.75,2.75,0,1,1,2.76-2.75A2.76,2.76,0,0,1,11.78,33.53Zm0-3.5a.75.75,0,0,0,0,1.5.75.75,0,1,0,0-1.5Z"/><path class="cls-1" d="M31.34,44.85H18.48a1,1,0,0,1-1-1V13a1,1,0,0,1,1-1H39.06a1,1,0,0,1,1,1V27.46h-2V14H19.48V42.85H31.34Z"/><path class="cls-1" d="M39.38,46.78a9,9,0,1,1,9-9A9,9,0,0,1,39.38,46.78Zm0-16.07a7,7,0,1,0,7,7A7,7,0,0,0,39.38,30.71Z"/><rect class="cls-1" x="38.38" y="32.92" width="2" height="10.18"/><path class="cls-1" d="M37.41,36.42,36,35l2.68-2.68a1,1,0,0,1,1.42,0L42.76,35l-1.41,1.41-2-2Z"/><path class="cls-1" d="M24.64,31a1.59,1.59,0,1,1,1.59-1.59A1.59,1.59,0,0,1,24.64,31Zm0-2a.42.42,0,0,0,0,.83.42.42,0,1,0,0-.83Z"/><path class="cls-1" d="M24,41.06a3.34,3.34,0,1,1,3.34-3.34A3.34,3.34,0,0,1,24,41.06Zm0-4.67a1.34,1.34,0,0,0,0,2.67,1.34,1.34,0,1,0,0-2.67Z"/></g></svg>