<svg xmlns="http://www.w3.org/2000/svg" viewBox="0 0 50 50"><defs><style>.cls-1{fill:#d6242d;}</style></defs><title>AWS-RoboMaker_Simulation_light-bg</title><g id="Working"><rect class="cls-1" x="14.76" y="43.01" width="34.36" height="2"/><path class="cls-1" d="M12.21,45H2V43h9.21V6.57h2V44A1,1,0,0,1,12.21,45Z"/><rect class="cls-1" x="2" y="19.64" width="10.21" height="2"/><rect class="cls-1" x="2" y="12.38" width="10.21" height="2"/><rect class="cls-1" x="2" y="26.97" width="10.21" height="2"/><rect class="cls-1" x="2" y="35.02" width="10.21" height="2"/><path class="cls-1" d="M3,41.46H1V6.57a1,1,0,0,1,1-1H49.12v2H3Z"/><rect class="cls-1" x="14.76" y="8.98" width="34.36" height="2"/><rect class="cls-1" x="4.55" y="8.98" width="1.7" height="2"/><path class="cls-1" d="M45.91,25.34a1.49,1.49,0,1,1,1.48-1.49A1.49,1.49,0,0,1,45.91,25.34Zm0-2a.52.52,0,1,0,.51.51A.51.51,0,0,0,45.91,23.34Z"/><path class="cls-1" d="M45.91,18.79a2.45,2.45,0,1,1,2.44-2.44A2.45,2.45,0,0,1,45.91,18.79Zm0-2.89a.45.45,0,1,0,.44.45A.45.45,0,0,0,45.91,15.9Z"/><path class="cls-1" d="M45.42,35a2.93,2.93,0,1,1,2.93-2.93A2.93,2.93,0,0,1,45.42,35Zm0-3.86a.93.93,0,1,0,.93.93A.93.93,0,0,0,45.42,31.17Z"/><path class="cls-1" d="M34.89,36H20.15a5.27,5.27,0,0,1-.9-10.45A4.51,4.51,0,0,1,23.66,22v2a2.52,2.52,0,0,0-2.51,2.52,1,1,0,0,1-1,1A3.23,3.23,0,0,0,17,30.73,3.29,3.29,0,0,0,20.15,34H34.89a4,4,0,0,0,0-8,1,1,0,0,1-1-1A3.92,3.92,0,0,0,30,21.13v-2a5.92,5.92,0,0,1,5.83,5A6,6,0,0,1,34.89,36Z"/><path class="cls-1" d="M27.65,27.07a2.61,2.61,0,1,1,2.6-2.6A2.61,2.61,0,0,1,27.65,27.07Zm0-3.21a.61.61,0,1,0,.6.61A.61.61,0,0,0,27.65,23.86Z"/><path class="cls-1" d="M33.8,32.31a1.4,1.4,0,1,1,1.4-1.4A1.4,1.4,0,0,1,33.8,32.31Zm0-2a.6.6,0,1,0,.6.6A.6.6,0,0,0,33.8,30.31Z"/><path class="cls-1" d="M27.65,20.41A1.41,1.41,0,1,1,29.05,19,1.41,1.41,0,0,1,27.65,20.41Zm0-2a.59.59,0,0,0-.6.59.6.6,0,1,0,1.2,0A.59.59,0,0,0,27.65,18.41Z"/><path class="cls-1" d="M27.65,33.1a2.21,2.21,0,1,1,2.2-2.2A2.21,2.21,0,0,1,27.65,33.1Zm0-2.41a.21.21,0,0,0-.21.21c0,.22.41.22.41,0A.2.2,0,0,0,27.65,30.69Z"/><path class="cls-1" d="M40.77,24.26a2.93,2.93,0,1,1,2.93-2.93A2.93,2.93,0,0,1,40.77,24.26Zm0-3.85a.93.93,0,1,0,.93.92A.93.93,0,0,0,40.77,20.41Z"/></g></svg>