<svg xmlns="http://www.w3.org/2000/svg" viewBox="0 0 75 75"><defs><style>.cls-1{fill:#d6242d;}.cls-2{fill:#fff;}</style></defs><title>AWS-RoboMaker_light-bg</title><g id="Reference"><rect id="Red_Light_BG" data-name="Red Light BG" class="cls-1" width="75" height="75"/><g id="Product_Icon" data-name="Product Icon"><path class="cls-2" d="M31.09,48.45A3.48,3.48,0,1,0,27.62,45,3.48,3.48,0,0,0,31.09,48.45Zm0-5A1.48,1.48,0,1,1,29.62,45,1.47,1.47,0,0,1,31.09,43.5Z"/><path class="cls-2" d="M44.6,48.45A3.48,3.48,0,1,0,41.13,45,3.48,3.48,0,0,0,44.6,48.45Zm0-5A1.48,1.48,0,1,1,43.13,45,1.47,1.47,0,0,1,44.6,43.5Z"/><path class="cls-2" d="M61.74,48.69,58.32,47V44H54.85A16.16,16.16,0,0,0,41.23,29V27.09a3.57,3.57,0,0,0-7.13,0V29A16.15,16.15,0,0,0,20.48,44H17V47l-3.42,1.71v8.07L17,58.47v3H58.32v-3l3.42-1.71ZM56.32,46V59.42H54.9V46ZM36.1,27.09a1.57,1.57,0,0,1,3.13,0v1.64c-.52,0-1-.07-1.57-.07s-1,0-1.56.07Zm1.56,3.57c8.69,0,15.24,6.18,15.24,14.38V59.42H22.43V45C22.43,36.84,29,30.66,37.66,30.66ZM15.59,55.53v-5.6L17,49.22v7ZM19,46h1.42V59.42H19Zm40.73,9.49-1.42.71v-7l1.42.71Z"/><path class="cls-2" d="M30.21,20.77l1.42,1.42a8.35,8.35,0,0,1,11.81,0l1.41-1.41a10.36,10.36,0,0,0-14.64,0Z"/><path class="cls-2" d="M37.53,15.58a12.39,12.39,0,0,1,8.85,3.67l1.42-1.42a14.52,14.52,0,0,0-20.53,0l1.42,1.42A12.39,12.39,0,0,1,37.53,15.58Z"/><path class="cls-2" d="M22.19,29.29a3,3,0,1,0-3-3A3,3,0,0,0,22.19,29.29Zm0-3.93a1,1,0,1,1-1,1A1,1,0,0,1,22.19,25.36Z"/><path class="cls-2" d="M16.23,35.25a3,3,0,1,0-3-3A3,3,0,0,0,16.23,35.25Zm0-3.94a1,1,0,1,1-1,1A1,1,0,0,1,16.23,31.31Z"/><path class="cls-2" d="M20.92,32.82a1.49,1.49,0,1,0,1.49-1.49A1.49,1.49,0,0,0,20.92,32.82Zm2,0a.51.51,0,1,1-.51-.51A.51.51,0,0,1,22.92,32.82Z"/><path class="cls-2" d="M28.63,27.81a1.49,1.49,0,1,0-1.49-1.49A1.49,1.49,0,0,0,28.63,27.81Zm0-2a.51.51,0,0,1,0,1,.51.51,0,0,1,0-1Z"/><path class="cls-2" d="M16.23,27.81a1.49,1.49,0,1,0-1.49-1.49A1.49,1.49,0,0,0,16.23,27.81Zm0-2a.51.51,0,1,1-.51.51A.51.51,0,0,1,16.23,25.81Z"/><path class="cls-2" d="M16.12,36.8a2.48,2.48,0,1,0,2.47,2.47A2.48,2.48,0,0,0,16.12,36.8Zm0,3a.48.48,0,0,1-.48-.48.48.48,0,0,1,.95,0A.48.48,0,0,1,16.12,39.75Z"/></g></g></svg>