<svg xmlns="http://www.w3.org/2000/svg" viewBox="0 0 50 50"><defs><style>.cls-1{fill:#d6242d;}</style></defs><title>AWS-RoboMaker_Fleet-Management_light-bg</title><g id="Working"><path class="cls-1" d="M14,8.82a4,4,0,1,1,4-4A4,4,0,0,1,14,8.82Zm0-6a2,2,0,1,0,2,2A2,2,0,0,0,14,2.83Z"/><path class="cls-1" d="M5,17.89a4,4,0,1,1,4-4A4,4,0,0,1,5,17.89Zm0-6a2,2,0,1,0,2,2A2,2,0,0,0,5,11.9Z"/><path class="cls-1" d="M14.37,16.47a1.75,1.75,0,1,1,1.75-1.75A1.75,1.75,0,0,1,14.37,16.47Zm0-2a.25.25,0,0,0-.25.25c0,.28.51.28.51,0A.26.26,0,0,0,14.37,14.47Z"/><path class="cls-1" d="M23.85,6.58A1.75,1.75,0,1,1,25.6,4.83,1.75,1.75,0,0,1,23.85,6.58Zm0-2a.25.25,0,0,0-.25.25c0,.28.5.28.5,0A.25.25,0,0,0,23.85,4.58Z"/><path class="cls-1" d="M5,36.6a1.75,1.75,0,1,1,1.74-1.74A1.74,1.74,0,0,1,5,36.6Zm0-2a.26.26,0,0,0-.26.26c0,.27.51.27.51,0A.26.26,0,0,0,5,34.6Z"/><path class="cls-1" d="M5,6.58A1.75,1.75,0,1,1,6.71,4.83,1.75,1.75,0,0,1,5,6.58Zm0-2a.26.26,0,0,0-.26.25c0,.28.51.28.51,0A.25.25,0,0,0,5,4.58Z"/><path class="cls-1" d="M33.66,8.07a3.25,3.25,0,1,1,3.25-3.24A3.24,3.24,0,0,1,33.66,8.07Zm0-4.49a1.25,1.25,0,1,0,1.25,1.25A1.24,1.24,0,0,0,33.66,3.58Z"/><path class="cls-1" d="M4.79,27.79A3.25,3.25,0,1,1,8,24.54,3.26,3.26,0,0,1,4.79,27.79Zm0-4.49A1.25,1.25,0,1,0,6,24.54,1.25,1.25,0,0,0,4.79,23.3Z"/><path class="cls-1" d="M40,24.3a11.49,11.49,0,0,0-20.76,0l-1.81-.86a13.5,13.5,0,0,1,24.38,0Z"/><path class="cls-1" d="M29.57,42.71A13.56,13.56,0,0,1,17.38,35l1.81-.86a11.49,11.49,0,0,0,20.76,0l1.81.86A13.55,13.55,0,0,1,29.57,42.71Z"/><path class="cls-1" d="M39.66,43.71l-1.15-1.64a15.72,15.72,0,0,0-7.26-28.5l.21-2a17.72,17.72,0,0,1,8.2,32.13Z"/><path class="cls-1" d="M27.68,46.87a17.72,17.72,0,0,1-8.2-32.13l1.15,1.64a15.72,15.72,0,0,0,7.26,28.5Z"/><path class="cls-1" d="M29.57,15.36a2.79,2.79,0,1,1,2.78-2.79A2.79,2.79,0,0,1,29.57,15.36Zm0-3.57a.79.79,0,1,0,.78.78A.78.78,0,0,0,29.57,11.79Z"/><path class="cls-1" d="M29.57,48.66a2.79,2.79,0,1,1,2.78-2.78A2.79,2.79,0,0,1,29.57,48.66Zm0-3.57a.79.79,0,0,0-.78.79.78.78,0,0,0,1.56,0A.79.79,0,0,0,29.57,45.09Z"/><rect class="cls-1" x="18.86" y="28.23" width="21.41" height="2"/><path class="cls-1" d="M29.57,23.68a17.4,17.4,0,0,1-9.48-2.47l1.12-1.65a15.62,15.62,0,0,0,8.36,2.12,15.62,15.62,0,0,0,8.36-2.12l1.12,1.65A17.4,17.4,0,0,1,29.57,23.68Z"/><path class="cls-1" d="M37.93,38.89a15.62,15.62,0,0,0-8.36-2.12,15.62,15.62,0,0,0-8.36,2.12l-1.12-1.65a17.4,17.4,0,0,1,9.48-2.47,17.4,17.4,0,0,1,9.48,2.47Z"/><path class="cls-1" d="M17.08,32a2.79,2.79,0,1,1,2.78-2.78A2.79,2.79,0,0,1,17.08,32Zm0-3.57a.79.79,0,1,0,.78.79A.78.78,0,0,0,17.08,28.44Z"/><path class="cls-1" d="M42.06,32a2.79,2.79,0,1,1,2.78-2.78A2.78,2.78,0,0,1,42.06,32Zm0-3.57a.79.79,0,1,0,.78.79A.78.78,0,0,0,42.06,28.44Z"/><path class="cls-1" d="M29.57,42.71c-3.39,0-5.16-6.78-5.16-13.48s1.77-13.49,5.16-13.49,5.16,6.78,5.16,13.49S33,42.71,29.57,42.71Zm0-25c-1.07,0-3.16,4.05-3.16,11.49s2.09,11.48,3.16,11.48,3.16-4.05,3.16-11.48S30.64,17.74,29.57,17.74Z"/></g></svg>