<svg id="Layer_1" data-name="Layer 1" xmlns="http://www.w3.org/2000/svg" width="100" height="100" viewBox="0 0 100 100"><defs><style>.cls-1{fill:#759c3e;}.cls-2{isolation:isolate;}.cls-3{fill:#fff;}.cls-4{fill:#4f4f4f;}</style></defs><title>SecurityIdentityCompliance</title><path class="cls-1" d="M67.38,22.09a3,3,0,0,1,3,3v47.4a3,3,0,0,1-3,3H32.62a3,3,0,0,1-3-3V25.05a3,3,0,0,1,3-3H67.38Z"/><g class="cls-2"><path class="cls-3" d="M44.16,63.91A2.05,2.05,0,0,0,41.84,62c-1.05,0-2.1.38-2.1,1.6s1.5,1.33,3,1.67,3,.87,3,2.71c0,2-2,2.8-3.67,2.8-2.1,0-3.88-1-3.88-3.31h1.18c0,1.58,1.31,2.26,2.73,2.26,1.13,0,2.38-.35,2.38-1.71s-1.5-1.51-3-1.84-3-.76-3-2.48c0-1.9,1.69-2.75,3.4-2.75,1.92,0,3.38.91,3.46,3Z"/><path class="cls-3" d="M49.38,62.22H46.25V61.17h7.5v1.05H50.63v8.33H49.38Z"/><path class="cls-3" d="M60.22,63.91A2.05,2.05,0,0,0,57.9,62c-1.05,0-2.1.38-2.1,1.6s1.5,1.33,3,1.67,3,.87,3,2.71c0,2-2,2.8-3.67,2.8-2.1,0-3.88-1-3.88-3.31h1.18c0,1.58,1.31,2.26,2.73,2.26,1.13,0,2.38-.35,2.38-1.71s-1.5-1.51-3-1.84-3-.76-3-2.48c0-1.9,1.69-2.75,3.4-2.75,1.92,0,3.38.91,3.46,3Z"/></g><circle class="cls-3" cx="50" cy="39.71" r="13"/><path class="cls-4" d="M50,54.21a14.5,14.5,0,1,1,14.5-14.5A14.52,14.52,0,0,1,50,54.21Zm0-26a11.5,11.5,0,1,0,11.5,11.5A11.51,11.51,0,0,0,50,28.21Z"/><rect class="cls-4" x="43.99" y="39.21" width="7.01" height="3"/><rect class="cls-4" x="49.5" y="30.65" width="3" height="11.56"/></svg>