<svg id="Layer_1" data-name="Layer 1" xmlns="http://www.w3.org/2000/svg" width="100" height="100" viewBox="0 0 100 100"><defs><style>.cls-1{fill:#b7ca9d;}.cls-2{fill:#4b612c;}.cls-3{fill:#759c3e;}.cls-4{fill:#3c4929;}</style></defs><title>SecurityIdentityCompliance</title><polygon class="cls-1" points="70.46 64.21 60.93 63.31 53.64 64.21 63.42 76.05 70.46 64.21"/><polygon class="cls-1" points="46.35 64.21 39.06 63.31 29.53 64.21 36.57 76.09 46.35 64.21"/><polygon class="cls-2" points="46.35 54.53 15.92 54.53 15.92 40.06 26.87 36.78 46.35 54.53"/><polygon class="cls-2" points="53.37 54.53 73.24 54.53 84.08 47.46 73.24 36.82 53.37 40.15 53.37 54.53"/><polygon class="cls-3" points="46.35 54.53 26.87 54.53 26.87 36.78 46.35 40.06 46.35 54.53"/><polygon class="cls-4" points="69.75 42.02 50 44.45 30.24 42.02 49.98 13.39 69.75 42.02"/><polygon class="cls-2" points="29.53 64.21 36.57 65.31 36.57 76.09 29.53 73.89 29.53 64.21"/><polygon class="cls-2" points="29.53 49.77 36.57 49.23 46.35 54.53 36.57 60.01 29.53 59.45 29.53 49.77"/><polygon class="cls-3" points="36.57 65.31 46.35 64.21 46.35 73.89 36.57 76.09 36.57 65.31"/><polygon class="cls-3" points="36.57 49.23 46.35 49.77 46.35 59.45 36.57 60.01 36.57 49.23"/><polygon class="cls-3" points="63.42 76.05 70.46 73.86 70.46 64.21 63.42 65.31 63.42 76.05"/><polygon class="cls-2" points="63.42 65.31 53.64 64.21 53.64 73.86 63.42 76.05 63.42 65.31"/><polygon class="cls-2" points="53.64 59.42 63.42 59.97 70.46 53.61 63.42 49.22 53.64 49.76 53.64 59.42"/><polygon class="cls-4" points="59.85 48.95 50 49.54 40.14 48.95 49.99 41.7 59.85 48.95"/><polygon class="cls-3" points="49.99 48.19 59.85 48.95 59.85 43.24 49.99 41.7 49.99 48.19"/><polygon class="cls-2" points="49.99 54.54 40.14 54.54 40.14 65.85 49.99 67.39 59.85 60.96 49.99 54.54"/><polygon class="cls-1" points="59.85 71.46 50 69.65 40.14 71.46 49.99 86.61 59.85 71.46"/><polygon class="cls-3" points="49.99 86.61 59.85 82.77 59.85 71.46 49.99 73.77 49.99 86.61"/><polygon class="cls-3" points="49.99 67.39 59.85 65.85 59.85 54.54 49.99 54.54 49.99 67.39"/><polygon class="cls-2" points="49.99 41.7 40.14 43.24 40.14 48.95 49.99 48.19 49.99 41.7"/><polygon class="cls-2" points="49.98 38.07 30.24 42.02 30.24 23.26 49.98 13.39 49.98 38.07"/><polygon class="cls-3" points="84.08 54.53 73.24 54.53 73.24 36.82 84.08 40.07 84.08 54.53"/><polygon class="cls-3" points="69.75 42.02 50 38.07 50 13.39 69.75 23.27 69.75 42.02"/><polygon class="cls-3" points="63.42 59.97 70.46 59.42 70.46 49.76 63.42 49.22 63.42 59.97"/><polygon class="cls-2" points="49.99 73.77 40.14 71.46 40.14 82.77 49.99 86.61 49.99 73.77"/></svg>