<svg id="Layer_1" data-name="Layer 1" xmlns="http://www.w3.org/2000/svg" width="100" height="100" viewBox="0 0 100 100"><defs><style>.cls-1{fill:#648339;}.cls-2{fill:#3c4929;}.cls-3{fill:#b7ca9d;}.cls-4{fill:#759c3e;}.cls-5{fill:#4b612c;}</style></defs><title>SecurityIdentityCompliance</title><polygon class="cls-1" points="72.31 81.58 35.39 70.82 55.93 52.37 72.31 74.61 72.31 81.58"/><polygon class="cls-2" points="27.69 81.58 49.91 75.11 50 69.53 26.27 59.49 27.69 81.58"/><polygon class="cls-3" points="35.39 29.36 72.3 18.41 68.75 40.32 17.94 37.92 35.39 29.36"/><polygon class="cls-4" points="83.94 62.89 72.3 81.59 53.84 70.4 50 50 53.84 29.57 72.3 18.41 83.94 37.13 83.94 62.89"/><polygon class="cls-5" points="53.84 70.4 17.94 62.23 17.94 37.92 53.84 29.57 53.84 70.4"/><polygon class="cls-1" points="50 25.03 27.7 18.41 31.25 40.32 50 30.45 50 25.03"/><polygon class="cls-5" points="16.06 62.89 27.7 81.59 46.16 70.4 48.81 50 46.16 29.57 27.7 18.41 16.06 37.13 16.06 62.89"/><polygon class="cls-4" points="50 69.53 46.16 70.4 46.16 29.57 50 30.45 50 69.53"/></svg>