<svg id="Layer_1" data-name="Layer 1" xmlns="http://www.w3.org/2000/svg" width="100" height="100" viewBox="0 0 100 100"><defs><style>.cls-1{fill:#4b612c;}.cls-2{fill:#759c3e;}.cls-3{fill:#b7ca9d;}</style></defs><title>SecurityIdentityCompliance</title><polygon class="cls-1" points="16.06 25.97 20.39 23.81 28.7 40.6 20.39 55.22 16.06 54.78 16.06 25.97"/><polygon class="cls-2" points="28.7 25.74 20.39 23.81 20.39 55.22 28.7 54.9 28.7 25.74"/><polygon class="cls-1" points="25.63 21.19 31.89 18.05 41.27 38.23 31.89 56.38 25.63 55.75 25.63 21.19"/><polygon class="cls-3" points="83.94 64.46 50 60.14 16.06 64.46 50 91 83.94 64.46"/><polygon class="cls-1" points="58.31 46.67 70.91 45.68 68.11 56.38 58.31 55.81 58.31 46.67"/><polygon class="cls-1" points="72.89 47.03 82.69 47.03 79.61 55.24 72.89 54.9 72.89 47.03"/><polygon class="cls-2" points="44.08 21.98 31.89 18.05 31.89 56.38 44.08 55.58 44.08 21.98"/><polygon class="cls-2" points="83.94 64.46 50 74.6 50 91 83.94 74.03 83.94 64.46"/><polygon class="cls-1" points="39.86 14.07 50 9 72.49 27.51 50 58.2 39.86 57.17 39.86 14.07"/><polygon class="cls-1" points="16.06 64.46 50 74.6 50 91 16.06 74.03 16.06 64.46"/><polygon class="cls-2" points="60.14 14.13 50 9 50 58.2 60.14 57.17 60.14 14.13"/><polygon class="cls-2" points="79.61 31.55 83.94 33.03 83.94 54.78 79.61 55.24 79.61 31.55"/><polygon class="cls-2" points="74.37 44.19 68.11 43.62 68.11 56.38 74.37 55.81 74.37 44.19"/><polygon class="cls-2" points="50 9 83.94 25.97 83.94 50 50 50 50 9"/></svg>