<svg id="Layer_1" data-name="Layer 1" xmlns="http://www.w3.org/2000/svg" width="100" height="100" viewBox="0 0 100 100"><defs><style>.cls-1{fill:#4b612c;}.cls-2{fill:#759c3e;}</style></defs><title>SecurityIdentityCompliance</title><circle class="cls-1" cx="34.1" cy="51.24" r="2.81"/><rect class="cls-1" x="31.29" y="48.76" width="5.62" height="2.48"/><path class="cls-1" d="M23,37.48v28H77v-28ZM69.33,55.81H48.55a10.76,10.76,0,1,1,0-9.15h6.36l1.13,2,4.21-.39,1.62,1.66,1.48.32,3.84-2.3L72,51.58Z"/><circle class="cls-2" cx="34.1" cy="48.76" r="2.81"/><path class="cls-2" d="M23,35V63H77V35ZM69.33,53.33H48.55a10.76,10.76,0,1,1,0-9.15h6.36l1.13,2,4.21-.39,1.62,1.66,1.48.32,3.84-2.3L72,49.1Z"/></svg>