<svg id="Layer_1" data-name="Layer 1" xmlns="http://www.w3.org/2000/svg" width="100" height="100" viewBox="0 0 100 100"><defs><style>.cls-1{fill:#b7ca9d;}.cls-2{fill:#4b612c;}.cls-3{fill:#759c3e;}</style></defs><title>SecurityIdentityCompliance</title><polygon class="cls-1" points="83.95 67.84 49.95 61.47 16.05 67.84 49.95 91 83.95 67.84"/><polyline class="cls-2" points="16.08 67.84 16.08 74.03 20.4 76.19 50.02 91 50.02 80.67"/><polyline class="cls-3" points="83.92 67.84 83.92 74.03 79.6 76.19 49.98 91 49.98 80.67"/><polygon class="cls-1" points="50.02 58.74 64.37 60.26 50.02 74.48 35.67 60.26 50.02 58.74"/><polygon class="cls-2" points="35.67 70.3 50.02 74.61 50.02 62.33 35.67 60.26 35.67 70.3"/><polygon class="cls-3" points="64.37 70.3 50.02 74.61 50.02 62.33 64.37 60.26 64.37 70.3"/><polygon class="cls-2" points="35.67 16.21 50.02 9 63.75 35.1 50.02 55.24 35.67 54.09 35.67 16.21"/><polygon class="cls-3" points="64.37 54.09 50.02 55.24 50.02 9 64.37 16.21 64.37 54.09"/></svg>