<svg xmlns="http://www.w3.org/2000/svg" viewBox="0 0 75 75"><defs><style>.cls-1{fill:#3b48cc;}.cls-2{fill:#fff;}</style></defs><title>AWS-Ground-Station_light-bg</title><g id="Working"><rect id="Blue_Light_BG" data-name="Blue Light BG" class="cls-1" width="75" height="75"/><g id="Product_Icon" data-name="Product Icon"><polygon class="cls-2" points="46.96 61.47 40.26 61.47 40.26 42.01 42.26 42.01 42.26 59.47 44.96 59.47 44.96 45.84 46.96 45.84 46.96 61.47"/><path class="cls-2" d="M46.34,46.84h-4.4v-2h4c2.31-1.08,7.5-3.56,8.57-6.35H46.19v-2H56.66v1c0,4.54-6.83,7.73-10.12,9.26Z"/><path class="cls-2" d="M46.1,46.59,44.77,45.1s3.36-3.1,2.83-7.46l2-.25A11.28,11.28,0,0,1,46.1,46.59Z"/><polygon class="cls-2" points="38.2 61.4 30.02 61.4 30.02 41.17 32.02 41.17 32.02 59.4 36.2 59.4 36.2 41.17 38.2 41.17 38.2 61.4"/><path class="cls-2" d="M24.2,21.46l-1.79-.89a12.68,12.68,0,0,1,22.7,0l-1.79.9a10.68,10.68,0,0,0-19.12,0Z"/><path class="cls-2" d="M26.66,22.69l-1.79-.89a9.93,9.93,0,0,1,17.79,0l-1.79.89a7.94,7.94,0,0,0-14.21,0Z"/><path class="cls-2" d="M38.41,23.91a5.18,5.18,0,0,0-9.29,0L27.33,23A7.18,7.18,0,0,1,40.2,23Z"/><path class="cls-2" d="M36.74,42.17H30.8l-.2-.09c-8.25-3.86-12.26-7.75-12.26-11.9v-1H48.51v1c0,5.37-6.29,9.43-11.57,11.9Zm-5.5-2h5.05c3.61-1.71,9.28-5,10.11-9H20.46C21,33.39,23.49,36.52,31.24,40.17Z"/><rect class="cls-2" x="32.76" y="30.22" width="2" height="10.42"/><path class="cls-2" d="M37.18,41.91l-1.33-1.49.66.75-.66-.75s4.55-4.17,3.82-10.08l2-.25C42.51,37.06,37.4,41.72,37.18,41.91Z"/><path class="cls-2" d="M31,41.91c-.22-.19-5.33-4.85-4.48-11.82l2,.25c-.73,5.94,3.78,10,3.82,10.08Z"/><polygon class="cls-2" points="31.55 30.9 29.81 29.91 32.21 25.74 35.49 25.74 37.72 29.94 35.95 30.88 34.29 27.74 33.36 27.74 31.55 30.9"/><path class="cls-2" d="M34.52,27H33l-2-2V23.5l2-2h1.51l2,2V25Zm-1.4-2.72.65.65.64-.65-.64-.65Z"/></g></g></svg>