<svg xmlns="http://www.w3.org/2000/svg" viewBox="0 0 75 75"><defs><style>.cls-1{fill:#cc2264;}.cls-2{fill:#fff;}</style></defs><title>Amazon-Sumerian_light-bg</title><g id="Working"><rect id="Pink_Light_BG" data-name="Pink Light BG" class="cls-1" width="75" height="75"/><g id="Product_Icon" data-name="Product Icon"><path class="cls-2" d="M37.2,61.69l-.17.1a1,1,0,0,1-1,0l-.17-.1ZM57.05,25.74,37,14.18a1,1,0,0,0-1,0L23.56,21.37l1,1.74,11-6.33v2.91h2V16.78l17.1,9.86L37,36.83l-12-7L24,31.6l11.58,6.69V59.18L19,49.62l3.1-1.79-1-1.73-3.53,2V33.69h-2V49.37a1,1,0,0,0,.5.87L35.53,61.5l.33.19H37.2l.33-.19,3.55-2-1-1.74-2.55,1.47V38.83l18-10.39v19.2L54,46.73l-1,1.73,1.83,1.07L52.2,51l1,1.74L57,50.55a1,1,0,0,0,.5-.87V26.59A1,1,0,0,0,57.05,25.74Zm-19.52,6v4h-2v-4Zm0-9v5h-2v-5Zm-2,38.81v.19h.33Zm1.67.19h.33V61.5Zm7.27-20.5-1,1.72-4.32-2.52,1-1.72Zm6.91,4-1,1.72-4.32-2.52,1-1.72Zm-16.5-4.78-3.29,1.9-1-1.73,3.29-1.9ZM29,43.84l-4.33,2.49-1-1.73L28,42.1ZM23.71,26.43A5.59,5.59,0,1,0,18.12,32,5.59,5.59,0,0,0,23.71,26.43Zm-2,0a3.59,3.59,0,1,1-3.59-3.59A3.59,3.59,0,0,1,21.71,26.43ZM54.26,57.71a5.6,5.6,0,1,0-5.6,5.6A5.6,5.6,0,0,0,54.26,57.71Zm-2,0a3.6,3.6,0,1,1-3.6-3.59A3.61,3.61,0,0,1,52.26,57.71ZM62.47,17.29a5.59,5.59,0,1,0-5.59,5.59A5.6,5.6,0,0,0,62.47,17.29Zm-2,0a3.59,3.59,0,1,1-3.59-3.6A3.59,3.59,0,0,1,60.47,17.29Z"/></g></g></svg>