<svg xmlns="http://www.w3.org/2000/svg" viewBox="0 0 50 50"><defs><style>.cls-1{fill:#693cc5;}</style></defs><title>Amazon-EMR_EMR-engine-MapR-M5_light-bg</title><g id="Working"><path class="cls-1" d="M15.11,29.37V24.82L14,27.77H12.9l-1.09-2.92v4.52H10.64V22.88h1.5l1.34,3.64,1.34-3.64h1.46v6.49Z"/><path class="cls-1" d="M19.73,29.37l-.11-.43a1.13,1.13,0,0,1-.46.4,1.24,1.24,0,0,1-.61.16,1.18,1.18,0,0,1-.92-.38,1.56,1.56,0,0,1-.34-1.05A1.47,1.47,0,0,1,17.71,27a1.5,1.5,0,0,1,1.11-.41,2.69,2.69,0,0,1,.72.12v-.44a1.28,1.28,0,0,0-.12-.66.59.59,0,0,0-.48-.17,4.1,4.1,0,0,0-1.37.3v-.85a2,2,0,0,1,.71-.28,3.82,3.82,0,0,1,.9-.11,1.63,1.63,0,0,1,1.18.37A1.68,1.68,0,0,1,20.72,26v3.35Zm-.81-.77a.89.89,0,0,0,.62-.3v-.92a1.39,1.39,0,0,0-.48-.07.52.52,0,0,0-.42.18.73.73,0,0,0-.15.5.74.74,0,0,0,.12.44A.37.37,0,0,0,18.92,28.6Z"/><path class="cls-1" d="M21.81,31.31V24.58h1.05L23,25a1.64,1.64,0,0,1,.55-.38,1.4,1.4,0,0,1,.61-.15,1.31,1.31,0,0,1,1.17.63,3.31,3.31,0,0,1,.41,1.83,3.52,3.52,0,0,1-.42,1.87,1.33,1.33,0,0,1-1.18.67,1.44,1.44,0,0,1-.53-.11,1.39,1.39,0,0,1-.47-.29v2.25Zm1.89-5.89a1,1,0,0,0-.6.2v2.66a1,1,0,0,0,.61.22.56.56,0,0,0,.54-.35A3,3,0,0,0,24.42,27a3.07,3.07,0,0,0-.17-1.2A.57.57,0,0,0,23.7,25.42Z"/><path class="cls-1" d="M29.6,29.37,28.47,27H28v2.4H26.68V22.88h2.05a1.76,1.76,0,0,1,1.37.55,2,2,0,0,1,.52,1.49,2.4,2.4,0,0,1-.26,1.14,1.7,1.7,0,0,1-.72.71L31,29.37ZM28,26h.61a.64.64,0,0,0,.56-.27,1.37,1.37,0,0,0,.19-.8,1.39,1.39,0,0,0-.19-.8.64.64,0,0,0-.56-.27H28Z"/><path class="cls-1" d="M38.12,29.37V24.82L37,27.77H35.91l-1.09-2.92v4.52H33.65V22.88h1.5l1.34,3.64,1.34-3.64H39.3v6.49Z"/><path class="cls-1" d="M40.39,28.19a3.78,3.78,0,0,0,1.41.29.91.91,0,0,0,.71-.27,1.2,1.2,0,0,0,.25-.8,1,1,0,0,0-.28-.81,1.2,1.2,0,0,0-.85-.25,6.83,6.83,0,0,0-1,.09v-.79l.15-2.77h3.06v1h-2l-.09,1.55a2.62,2.62,0,0,1,.62-.07,1.58,1.58,0,0,1,1.5,1,2.34,2.34,0,0,1,.21,1,2.26,2.26,0,0,1-.27,1.12,1.84,1.84,0,0,1-.75.74,2.21,2.21,0,0,1-1.08.26,4.12,4.12,0,0,1-.81-.08,3.63,3.63,0,0,1-.74-.26Z"/><path class="cls-1" d="M32.22,41.16H24.69a5.05,5.05,0,0,1-5.05-4.69H8.82a2.62,2.62,0,0,1-2.63-2.61v-17a3.07,3.07,0,0,1,3.09-3.06h5.31V12.69a2.61,2.61,0,0,1,2.61-2.6h9.93a2.61,2.61,0,0,1,2.62,2.6v1.08h4.44a3.08,3.08,0,0,1,3.09,3.06v.84H39.9V17A3.08,3.08,0,0,1,43,13.9h2.42A3.07,3.07,0,0,1,48.5,17V35.28a3.07,3.07,0,0,1-3.09,3.06H43a3.07,3.07,0,0,1-3.09-3.06v-.69H37.25v1.55A5,5,0,0,1,32.22,41.16ZM9.28,15.77a1.08,1.08,0,0,0-1.09,1.06v17a.62.62,0,0,0,.63.61h11.8a1,1,0,0,1,1,1v.67a3.05,3.05,0,0,0,3.07,3h7.53a3,3,0,0,0,3-3V33.59a1,1,0,0,1,1-1h4.69a1,1,0,0,1,1,1v1.69A1.07,1.07,0,0,0,43,36.34h2.38a1.07,1.07,0,0,0,1.09-1.06V17a1.08,1.08,0,0,0-1.09-1.06H43A1.08,1.08,0,0,0,41.9,17v1.71a1,1,0,0,1-1,1H36.28a1,1,0,0,1-1-1V16.83a1.08,1.08,0,0,0-1.09-1.06H28.75a1,1,0,0,1-1-1V12.69a.61.61,0,0,0-.62-.6H17.2a.6.6,0,0,0-.61.6v2.08a1,1,0,0,1-1,1Z"/><rect class="cls-1" x="1.5" y="14.84" width="2" height="20.63"/><rect class="cls-1" x="2.5" y="24.16" width="4.69" height="2"/><rect class="cls-1" x="15.63" y="5.41" width="13.13" height="2"/><rect class="cls-1" x="21.19" y="6.41" width="2" height="4.69"/></g></svg>