<svg xmlns="http://www.w3.org/2000/svg" xmlns:xlink="http://www.w3.org/1999/xlink" viewBox="0 0 75 75"><defs><style>.cls-1{fill:url(#PurpleGradient);}.cls-2{fill:#fff;}</style><linearGradient id="PurpleGradient" x1="-15.53" y1="90.53" x2="90.53" y2="-15.53" gradientTransform="translate(0 0)" gradientUnits="userSpaceOnUse"><stop offset="0" stop-color="#4d27a8"/><stop offset="1" stop-color="#a166ff"/></linearGradient></defs><title>Amazon-Quicksight</title><g id="Working"><rect id="Purple_Gradient" data-name="Purple Gradient" class="cls-1" width="75" height="75"/><g id="Icon_Test" data-name="Icon Test"><path class="cls-2" d="M59.61,27.5h-.12v32h-44V55.37h-.12A5.47,5.47,0,0,1,13.49,55V60.5a1,1,0,0,0,1,1h46a1,1,0,0,0,1-1V27.16A5.26,5.26,0,0,1,59.61,27.5Zm.88-14h-46a1,1,0,0,0-1,1V45a5.26,5.26,0,0,1,1.88-.34h.12V15.5h44v1.24h.12a5,5,0,0,1,1.88.34V14.5A1,1,0,0,0,60.49,13.5Z"/><path class="cls-2" d="M59.61,18.23a3.89,3.89,0,0,0-3.89,3.89,3.55,3.55,0,0,0,.41,1.72l-16.73,17a3.85,3.85,0,0,0-.91-.34V32.6a3.88,3.88,0,1,0-4.88-3.75,3.59,3.59,0,0,0,.22,1.26L17.21,46.58A3.88,3.88,0,1,0,19.26,50a3.83,3.83,0,0,0-.59-2L35,31.84a3.64,3.64,0,0,0,1.52.76v7.9a3.87,3.87,0,1,0,4.33,1.75l16.67-16.9a3.88,3.88,0,1,0,2.15-7.12ZM15.37,51.88A1.88,1.88,0,1,1,17.26,50a1.88,1.88,0,0,1-1.89,1.88Zm20.24-23a1.88,1.88,0,1,1,1.91,1.85h0a1.88,1.88,0,0,1-1.88-1.88Zm1.88,17.24a1.89,1.89,0,1,1,1.88-1.9h0A1.89,1.89,0,0,1,37.49,46.12ZM59.61,24a1.89,1.89,0,1,1,1.88-1.9v0A1.9,1.9,0,0,1,59.61,24Z"/></g></g></svg>