<svg xmlns="http://www.w3.org/2000/svg" viewBox="0 0 75 75"><defs><style>.cls-1{fill:#693cc5;}.cls-2{fill:#fff;}</style></defs><title>Amazon-Athena_light-bg</title><g id="Working"><rect id="Purple_Light_BG" data-name="Purple Light BG" class="cls-1" width="75" height="75"/><g id="Product_Icon" data-name="Product Icon"><path class="cls-2" d="M61.12,54.42l-4.58-4.61A24,24,0,0,0,36.59,12.5,24.12,24.12,0,0,0,15,26.13l1.8.86a22,22,0,0,1,41.83,9.5,21.73,21.73,0,0,1-3.49,11.87l-3.79-3.8A16.49,16.49,0,1,0,21.11,31.5H14.5v2h6.05a15.58,15.58,0,0,0-.37,3H12.5v2h7.75a14.85,14.85,0,0,0,.55,3H14.61v2h6.91a16.46,16.46,0,0,0,23.16,7.89l3.67,3.67a22,22,0,0,1-30.08-6.4l-1.66,1.11A24,24,0,0,0,49.8,56.51l4.61,4.61a4.74,4.74,0,0,0,6.71-6.7ZM36.66,51.48A14.49,14.49,0,1,1,51.15,37,14.51,14.51,0,0,1,36.66,51.48Zm23,8.21a2.78,2.78,0,0,1-3.86,0l-9.42-9.42a16.37,16.37,0,0,0,3.83-4l9.46,9.51a2.72,2.72,0,0,1,0,3.86Z"/><path class="cls-2" d="M45.88,38.45A5.79,5.79,0,0,0,44,36.21l.66-4.87h0v0l0-.13,0-.14c0-.05,0-.1,0-.14,0-2.37-5.22-3.25-8.51-3.25s-8.5.88-8.5,3.25a.71.71,0,0,0,0,.14l0,.14a.51.51,0,0,0,0,.13s0,0,0,0h0l1.67,12.45c.13,2.48,6.11,2.55,6.8,2.55a17.81,17.81,0,0,0,3.86-.4,9.66,9.66,0,0,0,1.24-.38c1.09-.43,1.66-1,1.7-1.77l.52-3.89a4.86,4.86,0,0,0,1,.11,1.27,1.27,0,0,0,1.28-.62A1.18,1.18,0,0,0,45.88,38.45ZM41.82,37.3c-1.28-.49-2.83-1.16-4.3-1.87a1.43,1.43,0,1,0-1.36,1.89,1.28,1.28,0,0,0,.48-.09,48.42,48.42,0,0,0,4.91,2.12L41,43.47a2.3,2.3,0,0,1-.46.23,7.12,7.12,0,0,1-1,.29,15.45,15.45,0,0,1-3.4.35,10.43,10.43,0,0,1-4.82-.87l-1.4-10.41a23.76,23.76,0,0,0,12.45,0Zm-5.66-5.41a15.53,15.53,0,0,1-6.3-1,13.79,13.79,0,0,1,6.3-1.23,13.79,13.79,0,0,1,6.3,1.23A15.49,15.49,0,0,1,36.16,31.89Z"/></g></g></svg>