<svg xmlns="http://www.w3.org/2000/svg" xmlns:xlink="http://www.w3.org/1999/xlink" viewBox="0 0 75 75"><defs><style>.cls-1{fill:url(#PurpleGradient);}.cls-2{fill:#fff;}</style><linearGradient id="PurpleGradient" x1="-770.47" y1="-796.47" x2="-876.53" y2="-902.53" gradientTransform="translate(-812 861) rotate(90)" gradientUnits="userSpaceOnUse"><stop offset="0" stop-color="#4d27a8"/><stop offset="1" stop-color="#a166ff"/></linearGradient></defs><title>Amazon-Kinesis-Video-Streams</title><g id="Working"><rect id="Purple_Gradient" data-name="Purple Gradient" class="cls-1" width="75" height="75"/><g id="Icon_Test" data-name="Icon Test"><path class="cls-2" d="M14.48,13.76a7.64,7.64,0,0,1,.1-1.26h-2a8.88,8.88,0,0,0-.08,1.26c0,11.64,18.09,20.75,41.18,20.74H62.5v-2H53.68C32.07,32.5,14.48,24.09,14.48,13.76Z"/><path class="cls-2" d="M12.5,27.85v2.91c4.37,3.77,12.46,5.73,20.39,6.73h0c-7.93,1-16,3-20.38,6.81V47c2.73-3.52,9.83-6.11,20-7.45l.19,0a137.57,137.57,0,0,1,17.57-1H62.5v-2H50.26C30.69,36.47,16.62,33.25,12.5,27.85Z"/><path class="cls-2" d="M58.37,28.5c-18.56,0-32.55-6.13-32.55-14.17,0-.36,0-1.35,0-1.83H23.74c0,.68,0,1.81,0,1.83,0,9.37,14.57,16.17,34.64,16.17H62.5v-2Z"/><path class="cls-2" d="M12.5,61.27a8.38,8.38,0,0,0,.08,1.23h2a8.38,8.38,0,0,1-.09-1.23c0-6.61,7.2-12.43,18-15.77V43.4C20.43,47,12.5,53.57,12.5,61.27Z"/><path class="cls-2" d="M23.77,60.57s0,1.27,0,1.93h2c0-.41,0-1.54,0-1.93,0-3.37,2.48-6.4,6.73-8.77V49.56C27,52.37,23.77,56.19,23.77,60.57Z"/><path class="cls-2" d="M58.48,40.5h-20a4,4,0,0,0-4,4v14a4,4,0,0,0,4,4h20a4,4,0,0,0,4-4v-14A4,4,0,0,0,58.48,40.5Zm2,18a2,2,0,0,1-2,2h-20a2,2,0,0,1-2-2v-14a2,2,0,0,1,2-2h20a2,2,0,0,1,2,2Z"/><path class="cls-2" d="M54.93,50.58l-11-5a1,1,0,0,0-1,.07,1,1,0,0,0-.46.84v10a1,1,0,0,0,.46.84,1,1,0,0,0,.54.16,1.06,1.06,0,0,0,.42-.09l11-5a1,1,0,0,0,.59-.91A1,1,0,0,0,54.93,50.58ZM44.5,54.94V48.05l7.62,3.44Z"/></g></g></svg>