<svg xmlns="http://www.w3.org/2000/svg" viewBox="0 0 75 75"><defs><style>.cls-1{fill:#693cc5;}.cls-2{fill:#fff;}</style></defs><title>Amazon-Kinesis-Data-Analytics_light-bg</title><g id="Working"><rect id="Purple_Light_BG" data-name="Purple Light BG" class="cls-1" width="75" height="75"/><g id="Product_Icon" data-name="Product Icon"><path class="cls-2" d="M62.5,32.5v2H53.68c-23.09,0-41.18-9.1-41.18-20.74a8.88,8.88,0,0,1,.08-1.26h2a7.64,7.64,0,0,0-.1,1.26c0,10.33,17.59,18.74,39.2,18.74Z"/><path class="cls-2" d="M32.5,35.45v2c-7.8-1-15.7-2.93-20-6.58V28C15.23,31.51,22.33,34.1,32.5,35.45Z"/><path class="cls-2" d="M32.5,37.54v2c-10.17,1.34-17.27,3.93-20,7.45V44.1C16.8,40.45,24.69,38.53,32.5,37.54Z"/><path class="cls-2" d="M62.5,28.49v2H58.35c-20.07,0-34.64-6.8-34.64-16.17,0,0,0-1.15,0-1.83h2.11c0,.48,0,1.47,0,1.83,0,8,14,14.17,32.55,14.17Z"/><path class="cls-2" d="M32.5,43.4v2.1c-10.84,3.34-18,9.16-18,15.77a8.38,8.38,0,0,0,.09,1.23h-2a8.38,8.38,0,0,1-.08-1.23C12.5,53.57,20.43,47,32.5,43.4Z"/><path class="cls-2" d="M32.5,49.56V51.8c-4.25,2.37-6.73,5.4-6.73,8.77,0,.39,0,1.52,0,1.93h-2c0-.66,0-1.91,0-1.93C23.77,56.19,27,52.37,32.5,49.56Z"/><path class="cls-2" d="M51.5,61.5h-2v-12h-2v12h-2v-13a1,1,0,0,1,1-1h4a1,1,0,0,1,1,1Z"/><path class="cls-2" d="M43.5,61.5h-2v-9h-2v9h-2v-10a1,1,0,0,1,1-1h4a1,1,0,0,1,1,1Z"/><path class="cls-2" d="M59.5,61.5h-2v-16h-2v16h-2v-17a1,1,0,0,1,1-1h4a1,1,0,0,1,1,1Z"/><rect class="cls-2" x="35.5" y="60.5" width="26" height="2"/><path class="cls-2" d="M62.5,62.5h-2v-22h-24v22h-2v-23a1,1,0,0,1,1-1h26a1,1,0,0,1,1,1Z"/></g></g></svg>