<svg xmlns="http://www.w3.org/2000/svg" viewBox="0 0 50 50"><defs><style>.cls-1{fill:#693cc5;}</style></defs><title>Amazon-EMR_EMR-engine-MapR-M7_light-bg</title><g id="Working"><path class="cls-1" d="M15.11,31.09V26.54L14,29.49H12.9l-1.09-2.92v4.52H10.64V24.6h1.5l1.34,3.63,1.34-3.63h1.46v6.49Z"/><path class="cls-1" d="M19.73,31.09l-.11-.43a1.13,1.13,0,0,1-.46.4,1.35,1.35,0,0,1-.61.16,1.18,1.18,0,0,1-.92-.38,1.58,1.58,0,0,1-.34-1.05,1.47,1.47,0,0,1,.42-1.11,1.5,1.5,0,0,1,1.11-.41,3.08,3.08,0,0,1,.72.11V28a1.28,1.28,0,0,0-.12-.66.59.59,0,0,0-.48-.17,4.1,4.1,0,0,0-1.37.3v-.85a2.14,2.14,0,0,1,.71-.29,4.43,4.43,0,0,1,.9-.1,1.59,1.59,0,0,1,1.18.37,1.66,1.66,0,0,1,.36,1.19v3.35Zm-.81-.77a.89.89,0,0,0,.62-.3V29.1a1.39,1.39,0,0,0-.48-.07.5.5,0,0,0-.42.18.73.73,0,0,0-.15.5.74.74,0,0,0,.12.44A.37.37,0,0,0,18.92,30.32Z"/><path class="cls-1" d="M21.81,33V26.3h1.05l.1.41a1.64,1.64,0,0,1,.55-.38,1.4,1.4,0,0,1,.61-.15,1.34,1.34,0,0,1,1.18.63,3.4,3.4,0,0,1,.4,1.83,3.52,3.52,0,0,1-.42,1.87,1.33,1.33,0,0,1-1.18.67,1.44,1.44,0,0,1-.53-.11,1.39,1.39,0,0,1-.47-.29V33Zm1.89-5.89a1,1,0,0,0-.6.2V30a1,1,0,0,0,.61.22.55.55,0,0,0,.54-.35,3,3,0,0,0,.17-1.18,3,3,0,0,0-.17-1.2A.55.55,0,0,0,23.7,27.14Z"/><path class="cls-1" d="M29.6,31.09l-1.13-2.41H28v2.41H26.68V24.6h2.05a1.76,1.76,0,0,1,1.37.55,2,2,0,0,1,.52,1.49,2.4,2.4,0,0,1-.26,1.14,1.7,1.7,0,0,1-.72.71L31,31.09ZM28,27.71h.61a.64.64,0,0,0,.56-.27,1.78,1.78,0,0,0,0-1.6.64.64,0,0,0-.56-.27H28Z"/><path class="cls-1" d="M38.12,31.09V26.54L37,29.49H35.91l-1.09-2.92v4.52H33.65V24.6h1.5l1.34,3.63,1.34-3.63H39.3v6.49Z"/><path class="cls-1" d="M41,31.09l1.84-5.43H40.25V24.6h3.84v.94l-1.8,5.55Z"/><path class="cls-1" d="M32.22,42.88H24.69a5.05,5.05,0,0,1-5.05-4.69H8.82a2.62,2.62,0,0,1-2.63-2.61v-17a3.07,3.07,0,0,1,3.09-3.06h5.31V14.41a2.61,2.61,0,0,1,2.61-2.6h9.93a2.61,2.61,0,0,1,2.62,2.6v1.08h4.44a3.08,3.08,0,0,1,3.09,3.06v.84H39.9v-.71A3.08,3.08,0,0,1,43,15.62h2.42a3.07,3.07,0,0,1,3.09,3.06V37a3.07,3.07,0,0,1-3.09,3.06H43A3.07,3.07,0,0,1,39.94,37v-.69H37.25v1.55A5,5,0,0,1,32.22,42.88ZM9.28,17.49a1.07,1.07,0,0,0-1.09,1.06v17a.62.62,0,0,0,.63.61h11.8a1,1,0,0,1,1,1v.67a3.05,3.05,0,0,0,3.07,3h7.53a3,3,0,0,0,3-3V35.31a1,1,0,0,1,1-1h4.69a1,1,0,0,1,1,1V37A1.07,1.07,0,0,0,43,38.06h2.39A1.07,1.07,0,0,0,46.5,37V18.68a1.07,1.07,0,0,0-1.09-1.06H43a1.07,1.07,0,0,0-1.09,1.06v1.71a1,1,0,0,1-1,1H36.28a1,1,0,0,1-1-1V18.55a1.07,1.07,0,0,0-1.09-1.06H28.75a1,1,0,0,1-1-1V14.41a.61.61,0,0,0-.62-.6H17.2a.6.6,0,0,0-.61.6v2.08a1,1,0,0,1-1,1Z"/><rect class="cls-1" x="1.5" y="16.56" width="2" height="20.63"/><rect class="cls-1" x="2.5" y="25.88" width="4.69" height="2"/><rect class="cls-1" x="15.63" y="7.13" width="13.13" height="2"/><rect class="cls-1" x="21.19" y="8.13" width="2" height="4.69"/></g></svg>