<svg xmlns="http://www.w3.org/2000/svg" viewBox="0 0 50 50"><defs><style>.cls-1{fill:#693cc5;}</style></defs><title>Amazon-EMR_EMR-engine_light-bg</title><g id="Working"><path class="cls-1" d="M32.22,42.88H24.69a5.05,5.05,0,0,1-5.05-4.69H8.82a2.62,2.62,0,0,1-2.63-2.61v-17a3.07,3.07,0,0,1,3.09-3.06h5.31V14.41a2.61,2.61,0,0,1,2.61-2.6h9.93a2.61,2.61,0,0,1,2.62,2.6v1.08h4.44a3.08,3.08,0,0,1,3.09,3.06v.84H39.9v-.71A3.08,3.08,0,0,1,43,15.62h2.42a3.07,3.07,0,0,1,3.09,3.06V37a3.07,3.07,0,0,1-3.09,3.06H43A3.07,3.07,0,0,1,39.94,37v-.69H37.25v1.55A5,5,0,0,1,32.22,42.88ZM9.28,17.49a1.07,1.07,0,0,0-1.09,1.06v17a.62.62,0,0,0,.63.61h11.8a1,1,0,0,1,1,1v.67a3.05,3.05,0,0,0,3.07,3h7.53a3,3,0,0,0,3-3V35.31a1,1,0,0,1,1-1h4.69a1,1,0,0,1,1,1V37A1.07,1.07,0,0,0,43,38.06h2.38A1.07,1.07,0,0,0,46.5,37V18.68a1.07,1.07,0,0,0-1.09-1.06H43a1.07,1.07,0,0,0-1.09,1.06v1.71a1,1,0,0,1-1,1H36.28a1,1,0,0,1-1-1V18.55a1.07,1.07,0,0,0-1.09-1.06H28.75a1,1,0,0,1-1-1V14.41a.61.61,0,0,0-.62-.6H17.2a.6.6,0,0,0-.61.6v2.08a1,1,0,0,1-1,1Z"/><rect class="cls-1" x="1.5" y="16.56" width="2" height="20.63"/><rect class="cls-1" x="2.5" y="25.88" width="4.69" height="2"/><rect class="cls-1" x="15.63" y="7.13" width="13.13" height="2"/><rect class="cls-1" x="21.19" y="8.13" width="2" height="4.69"/></g></svg>