<svg xmlns="http://www.w3.org/2000/svg" viewBox="0 0 75 75"><defs><style>.cls-1{fill:#693cc5;}.cls-2{fill:#fff;}</style></defs><title>Amazon-Managed-Streaming-for-Kafka_light-bg</title><g id="Working"><rect id="Purple_Light_BG" data-name="Purple Light BG" class="cls-1" width="75" height="75"/><g id="Product_Icon" data-name="Product Icon"><polygon class="cls-2" points="33.61 34.48 33.61 25.47 35.43 25.47 35.43 29.48 37.89 25.47 39.9 25.47 37.05 29.69 40.14 34.48 37.98 34.48 35.43 30.13 35.43 34.48 33.61 34.48"/><path class="cls-2" d="M50.93,33.48a3.91,3.91,0,0,0-1.46.27l-9.82-14.9a4,4,0,0,0-3.22-6.37,4,4,0,0,0-3.2,6.39L23.4,33.75a4,4,0,0,0-1.47-.27,4,4,0,1,0,3.87,5H47.06a4,4,0,1,0,3.87-5Zm-29,6a2,2,0,1,1,2-2A2,2,0,0,1,21.93,39.48Zm14.5-25a2,2,0,1,1-2,2A2,2,0,0,1,36.43,14.48Zm10.63,22H25.8A4,4,0,0,0,25,34.93L34.8,20.12a3.89,3.89,0,0,0,1.63.36,3.85,3.85,0,0,0,1.66-.37l9.76,14.81A3.82,3.82,0,0,0,47.06,36.52Zm3.87,3a2,2,0,1,1,2-2A2,2,0,0,1,50.93,39.48Z"/><path class="cls-2" d="M62.48,52.32l-.69.58a6.2,6.2,0,0,1-7.55,0l-1.37-1.16a8.28,8.28,0,0,0-10.24,0L41.25,52.9a6.2,6.2,0,0,1-7.55,0l-1.37-1.16a8.28,8.28,0,0,0-10.24,0L20.71,52.9a6.2,6.2,0,0,1-7.55,0l-.66-.55v2.57a8.37,8.37,0,0,0,9.56-.5l1.38-1.17a6.18,6.18,0,0,1,7.54,0l1.37,1.17a8.33,8.33,0,0,0,10.25,0L44,53.25a6.18,6.18,0,0,1,7.54,0l1.38,1.17A7.9,7.9,0,0,0,58,56.18a8.06,8.06,0,0,0,4.48-1.3V52.35Z"/><path class="cls-2" d="M62.48,58.67l-.69.57a6.2,6.2,0,0,1-7.55,0l-1.37-1.16a8.29,8.29,0,0,0-10.24,0l-1.38,1.16a6.2,6.2,0,0,1-7.55,0l-1.37-1.16a8.29,8.29,0,0,0-10.24,0l-1.38,1.16a6.2,6.2,0,0,1-7.55,0l-.66-.56v2.57a8.34,8.34,0,0,0,9.56-.5l1.38-1.15a6.13,6.13,0,0,1,7.54,0l1.37,1.15a8.3,8.3,0,0,0,10.25,0L44,59.6a6.13,6.13,0,0,1,7.54,0l1.38,1.15A7.91,7.91,0,0,0,58,62.52a8.05,8.05,0,0,0,4.48-1.29V58.68Z"/><path class="cls-2" d="M62.48,45.17l-.69.57a6.18,6.18,0,0,1-7.55,0l-1.37-1.16a8.32,8.32,0,0,0-10.24,0l-1.38,1.16a6.18,6.18,0,0,1-7.55,0l-1.37-1.16a8.32,8.32,0,0,0-10.24,0l-1.38,1.16a6.18,6.18,0,0,1-7.55,0l-.66-.56v2.57a8.34,8.34,0,0,0,9.56-.5l1.38-1.15a6.15,6.15,0,0,1,7.54,0l1.38,1.15a8.29,8.29,0,0,0,10.24,0L44,46.1a6.15,6.15,0,0,1,7.54,0l1.38,1.15A7.91,7.91,0,0,0,58,49a8.05,8.05,0,0,0,4.48-1.29V45.18Z"/></g></g></svg>