<svg xmlns="http://www.w3.org/2000/svg" viewBox="0 0 50 50"><defs><style>.cls-1{fill:#693cc5;}</style></defs><title>Amazon-Redshift_Dense-compute-node_light-bg</title><g id="Working"><rect class="cls-1" x="15.21" y="12.69" width="12.08" height="2" transform="translate(-3.87 16.47) rotate(-39.11)"/><rect class="cls-1" x="20.25" y="30.27" width="2" height="12.08" transform="translate(-20.33 29.89) rotate(-50.89)"/><rect class="cls-1" x="30.56" y="23.03" width="2" height="15.81" transform="translate(-7.77 51.08) rotate(-71.54)"/><rect class="cls-1" x="23.66" y="18.07" width="15.81" height="2" transform="matrix(0.95, -0.32, 0.32, 0.95, -4.41, 10.96)"/><rect class="cls-1" x="33.84" y="9.05" width="2" height="21.58" transform="translate(-5.12 23.14) rotate(-34.38)"/><path class="cls-1" d="M42.49,13.6c-3.36-2.64-8.65-6.5-8.7-6.54L35,5.44c.06,0,5.38,3.92,8.77,6.59Z"/><path class="cls-1" d="M34.38,11.94H25.94a1,1,0,0,1-1-1V2.5a1,1,0,0,1,1-1h8.44a1,1,0,0,1,1,1v8.44A1,1,0,0,1,34.38,11.94Zm-7.44-2h6.44V3.5H26.94Z"/><rect class="cls-1" x="24.05" y="29.16" width="21.58" height="2" transform="translate(-9.72 41.89) rotate(-55.63)"/><path class="cls-1" d="M35,44.56l-1.17-1.62c.05,0,5.34-3.9,8.7-6.54L43.73,38C40.34,40.64,35,44.52,35,44.56Z"/><path class="cls-1" d="M34.38,48.5H25.94a1,1,0,0,1-1-1V39.06a1,1,0,0,1,1-1h8.44a1,1,0,0,1,1,1V47.5A1,1,0,0,1,34.38,48.5Zm-7.44-2h6.44V40.06H26.94Z"/><path class="cls-1" d="M47.5,38.19H39.06a1,1,0,0,1-1-1V28.75a1,1,0,0,1,1-1H47.5a1,1,0,0,1,1,1v8.44A1,1,0,0,1,47.5,38.19Zm-7.44-2H46.5V29.75H40.06Z"/><path class="cls-1" d="M47.5,22.25H39.06a1,1,0,0,1-1-1V12.81a1,1,0,0,1,1-1H47.5a1,1,0,0,1,1,1v8.44A1,1,0,0,1,47.5,22.25Zm-7.44-2H46.5V13.81H40.06Z"/><path class="cls-1" d="M24.06,33.5H2.5a1,1,0,0,1-1-1v-15a1,1,0,0,1,1-1H24.06a1,1,0,0,1,1,1v15A1,1,0,0,1,24.06,33.5ZM3.5,31.5H23.06v-13H3.5Z"/><path class="cls-1" d="M7.39,29.06V20.62H9.94a2.81,2.81,0,0,1,2.39,1.07,5.14,5.14,0,0,1,.81,3.14,5.19,5.19,0,0,1-.8,3.16A2.74,2.74,0,0,1,10,29.06ZM9.1,21.92v5.84h.72A1.28,1.28,0,0,0,11,27.07,4.42,4.42,0,0,0,11.39,25v-.25A4.36,4.36,0,0,0,11,22.6a1.28,1.28,0,0,0-1.2-.68Z"/><path class="cls-1" d="M19.58,28.82a4.25,4.25,0,0,1-1.81.38q-3.4,0-3.41-4.32a5.19,5.19,0,0,1,.89-3.26,3.05,3.05,0,0,1,2.56-1.14,4.4,4.4,0,0,1,1.67.33v1.34A5.13,5.13,0,0,0,18,21.9a1.6,1.6,0,0,0-1.42.67,4,4,0,0,0-.45,2.14V25a4,4,0,0,0,.44,2.11,1.54,1.54,0,0,0,1.39.67,6.56,6.56,0,0,0,1.6-.29Z"/></g></svg>