<svg xmlns="http://www.w3.org/2000/svg" xmlns:xlink="http://www.w3.org/1999/xlink" viewBox="0 0 75 75"><defs><style>.cls-1{fill:url(#PurpleGradient);}.cls-2{fill:#fff;}</style><linearGradient id="PurpleGradient" x1="-142.53" y1="85.47" x2="-36.47" y2="191.53" gradientTransform="translate(-101 -52) rotate(-90)" gradientUnits="userSpaceOnUse"><stop offset="0" stop-color="#4d27a8"/><stop offset="1" stop-color="#a166ff"/></linearGradient></defs><title>Amazon-Kinesis</title><g id="Working"><rect id="Purple_Gradient" data-name="Purple Gradient" class="cls-1" width="75" height="75"/><g id="Icon_Test" data-name="Icon Test"><path class="cls-2" d="M62.53,32.5v2H53.71c-23.09,0-41.18-9.1-41.18-20.74a8.88,8.88,0,0,1,.08-1.26h2a7.64,7.64,0,0,0-.1,1.26c0,10.33,17.58,18.74,39.2,18.74Z"/><path class="cls-2" d="M62.53,36.5v2H50.29c-19.57,0-33.64,3.17-37.76,8.49V44.31C16.9,40.49,25,38.51,32.91,37.5h0c-7.93-1-16-3-20.39-6.73V27.85c4.07,5.34,17.87,8.55,37.1,8.65Z"/><path class="cls-2" d="M62.53,28.49v2H58.39c-20.08,0-34.65-6.8-34.65-16.17,0,0,0-1.15,0-1.83h2.11c0,.48,0,1.47,0,1.83,0,8,14,14.17,32.55,14.17Z"/><path class="cls-2" d="M62.53,40.5v2H53.71c-21.63,0-39.22,8.44-39.22,18.77a8.38,8.38,0,0,0,.09,1.23h-2a8.38,8.38,0,0,1-.08-1.23c0-11.65,18.11-20.77,41.23-20.77Z"/><path class="cls-2" d="M62.53,44.5v2H58.39c-18.58,0-32.59,6-32.59,14.07,0,.39,0,1.52,0,1.93h-2c0-.66,0-1.91,0-1.93,0-9.32,14.56-16.07,34.61-16.07Z"/></g></g></svg>