<svg xmlns="http://www.w3.org/2000/svg" viewBox="0 0 50 50"><defs><style>.cls-1{fill:#693cc5;}</style></defs><title>Amazon-EMR_HDFS-cluster_light-bg</title><g id="Working"><rect class="cls-1" x="15.21" y="12.69" width="12.08" height="2" transform="translate(-3.87 16.47) rotate(-39.11)"/><rect class="cls-1" x="20.25" y="30.27" width="2" height="12.08" transform="translate(-20.33 29.89) rotate(-50.89)"/><rect class="cls-1" x="27.28" y="18.48" width="2" height="22.73" transform="translate(-8.97 47.23) rotate(-71.56)"/><rect class="cls-1" x="16.92" y="19.16" width="22.73" height="2" transform="matrix(0.95, -0.32, 0.32, 0.95, -4.92, 9.98)"/><rect class="cls-1" x="33.84" y="9.05" width="2" height="21.58" transform="translate(-5.12 23.14) rotate(-34.38)"/><path class="cls-1" d="M42.49,13.6c-3.36-2.64-8.65-6.5-8.7-6.54L35,5.44c.06,0,5.38,3.92,8.77,6.59Z"/><path class="cls-1" d="M34.38,11.94H25.94a1,1,0,0,1-1-1V2.5a1,1,0,0,1,1-1h8.44a1,1,0,0,1,1,1v8.44A1,1,0,0,1,34.38,11.94Zm-7.44-2h6.44V3.5H26.94Z"/><rect class="cls-1" x="24.05" y="29.16" width="21.58" height="2" transform="translate(-9.72 41.89) rotate(-55.63)"/><path class="cls-1" d="M35,44.56l-1.17-1.62c.05,0,5.34-3.9,8.7-6.54L43.73,38C40.34,40.64,35,44.52,35,44.56Z"/><path class="cls-1" d="M34.38,48.5H25.94a1,1,0,0,1-1-1V39.06a1,1,0,0,1,1-1h8.44a1,1,0,0,1,1,1V47.5A1,1,0,0,1,34.38,48.5Zm-7.44-2h6.44V40.06H26.94Z"/><path class="cls-1" d="M47.5,38.19H39.06a1,1,0,0,1-1-1V28.75a1,1,0,0,1,1-1H47.5a1,1,0,0,1,1,1v8.44A1,1,0,0,1,47.5,38.19Zm-7.44-2H46.5V29.75H40.06Z"/><path class="cls-1" d="M47.5,22.25H39.06a1,1,0,0,1-1-1V12.81a1,1,0,0,1,1-1H47.5a1,1,0,0,1,1,1v8.44A1,1,0,0,1,47.5,22.25Zm-7.44-2H46.5V13.81H40.06Z"/><path class="cls-1" d="M17.5,33.5H2.5a1,1,0,0,1-1-1v-15a1,1,0,0,1,1-1h15a1,1,0,0,1,1,1v15A1,1,0,0,1,17.5,33.5Zm-14-2h13v-13H3.5Z"/></g></svg>