<svg xmlns="http://www.w3.org/2000/svg" viewBox="0 0 75 75"><defs><style>.cls-1{fill:#693cc5;}.cls-2{fill:#fff;}</style></defs><title>Amazon-CloudSearch_light-bg</title><g id="Working"><rect id="Purple_Light_BG" data-name="Purple Light BG" class="cls-1" width="75" height="75"/><g id="Product_Icon" data-name="Product Icon"><path class="cls-2" d="M60.87,52.6,47.55,39.23A18.43,18.43,0,1,0,30.93,49.71a18.16,18.16,0,0,0,8.91-2.31l13.1,13.1a5.6,5.6,0,0,0,7.93-7.9ZM30.93,47.71A16.42,16.42,0,1,1,47.35,31.3,16.43,16.43,0,0,1,30.93,47.71ZM59.45,59.08a3.59,3.59,0,0,1-5.09,0L41.58,46.32a18.63,18.63,0,0,0,5-5.27l12.9,13A3.59,3.59,0,0,1,59.45,59.08Zm-2-26.32a5.8,5.8,0,0,1-2.61,4.74A7.69,7.69,0,0,1,51,38.87h-1.1a20.47,20.47,0,0,0,.68-2H51a5.84,5.84,0,0,0,2.75-1,4,4,0,0,0,1.8-3.12A3.77,3.77,0,0,0,52.05,29a1.12,1.12,0,0,1-.69-.37,1,1,0,0,1-.22-.75v-.09a2.12,2.12,0,0,0-.34-1.15,18.68,18.68,0,0,0-.91-2.89,4.16,4.16,0,0,1,3.2,3.39A5.78,5.78,0,0,1,57.5,32.76ZM44.18,25.63l0,.24a2.91,2.91,0,0,0-2.56.7A1,1,0,0,1,40,26.2a7.32,7.32,0,0,0-12.3-2.26,7.17,7.17,0,0,0-1.85,4.82,1,1,0,0,1-.69.95,5.23,5.23,0,0,0-3.51,3.92v0a5.39,5.39,0,0,0-.09,1,5.24,5.24,0,0,0,5.24,5.22H42.52a15.49,15.49,0,0,1-1.8,2h-14a7.19,7.19,0,0,1-7.12-8.5s0,0,0-.06a7.16,7.16,0,0,1,4.19-5.24,9.34,9.34,0,0,1,9.29-8.58,9.34,9.34,0,0,1,8.18,4.86,4.53,4.53,0,0,1,2-.53A12.81,12.81,0,0,1,44.18,25.63Z"/></g></g></svg>