<svg xmlns="http://www.w3.org/2000/svg" viewBox="0 0 75 75"><defs><style>.cls-1{fill:#693cc5;}.cls-2{fill:#fff;}</style></defs><title>Amazon-Kinesis-Data-Firehose_light-bg</title><g id="Working"><rect id="Purple_Light_BG" data-name="Purple Light BG" class="cls-1" width="75" height="75"/><g id="Product_Icon" data-name="Product Icon"><path class="cls-2" d="M37.5,27.45h-5a1,1,0,0,0-1,1v18a1,1,0,0,0,1,1h5a1,1,0,0,0,1-1v-18A1,1,0,0,0,37.5,27.45Zm-1,18h-3v-16h3Z"/><path class="cls-2" d="M49.72,32.47,38.5,30l-.78-.16a1,1,0,0,0-.85.19,1,1,0,0,0-.37.77V44.12a1,1,0,0,0,.37.79,1.08,1.08,0,0,0,.63.21l.22,0,.78-.18,11.22-2.49a1,1,0,0,0,.78-1v-8A1,1,0,0,0,49.72,32.47ZM48.5,40.66l-10,2.22V32l10,2.23Z"/><path class="cls-2" d="M62.5,32V34.1a35.86,35.86,0,0,1-10,1.35v-2A33.45,33.45,0,0,0,62.5,32Z"/><path class="cls-2" d="M62.5,35.9v2a80.57,80.57,0,0,1-10,.53v-2A77.83,77.83,0,0,0,62.5,35.9Z"/><path class="cls-2" d="M62.5,37.16v2a66.63,66.63,0,0,0-10-.72v-2A66.78,66.78,0,0,1,62.5,37.16Z"/><path class="cls-2" d="M62.5,40.85V43a32.15,32.15,0,0,0-10-1.53v-2A34.72,34.72,0,0,1,62.5,40.85Z"/><path class="cls-2" d="M29.5,32.45v2a39.76,39.76,0,0,1-17-4.83V27.28C16.91,30.16,22.78,31.89,29.5,32.45Z"/><path class="cls-2" d="M29.5,36.43v2c-2.9-.13-6.2-.4-9.52-.88A55.08,55.08,0,0,1,12.5,36V33.93A72.07,72.07,0,0,0,29.5,36.43Z"/><path class="cls-2" d="M29.5,36.68v2a72.59,72.59,0,0,0-17,2.5V39.11A53.58,53.58,0,0,1,20,37.57C23.3,37.08,26.6,36.82,29.5,36.68Z"/><path class="cls-2" d="M29.5,29.16v2c-13.79-1.6-16.91-8.67-16.91-14.69,0-.23,0-4,0-4l2,0h0c0,.22,0,3.82,0,4.05C14.59,21.66,17.35,27.67,29.5,29.16Z"/><path class="cls-2" d="M29.5,40.59v2c-6.71.56-12.58,2.34-17,5.2V45.46A40,40,0,0,1,29.5,40.59Z"/><path class="cls-2" d="M29.5,43.92v2c-7.76.95-14.91,4.11-14.91,12.5,0,.06,0,.37,0,.78,0,.87,0,2.9,0,3.15l-.82.07-1.17.09a.26.26,0,0,1,0-.09c0-.24,0-.89,0-3.24,0-.42,0-.7,0-.76C12.59,52.48,15.71,45.51,29.5,43.92Z"/></g></g></svg>