<svg xmlns="http://www.w3.org/2000/svg" viewBox="0 0 75 75"><defs><style>.cls-1{fill:#693cc5;}.cls-2{fill:#fff;}</style></defs><title>Amazon-EMR_light-bg</title><g id="Working"><rect id="Purple_Light_BG" data-name="Purple Light BG" class="cls-1" width="75" height="75"/><g id="Product_Icon" data-name="Product Icon"><path class="cls-2" d="M56.62,41.39a5.43,5.43,0,0,0-2.36.53L52,37.57l2.8-5.28a5.5,5.5,0,0,0,5.73-9.07,5.5,5.5,0,0,0-7.78,0,5.52,5.52,0,0,0-1.47,5.11l-3.55,1.1L43.78,22l.07-.07a5.5,5.5,0,1,0-8.32-.63l-4.28,5.9a12.1,12.1,0,1,0,0,20.66l4.26,5.91a5.5,5.5,0,1,0,8.31-.62l-.06-.06,3.88-7.33,3.45,1.09v.08a5.5,5.5,0,1,0,5.5-5.5ZM54.15,24.64a3.59,3.59,0,0,1,5,0,3.5,3.5,0,1,1-5,0Zm-2.09,5.54a5.12,5.12,0,0,0,.67.82l.32.29-2.19,4.14-2.21-4.19ZM37.48,15.53a3.5,3.5,0,0,1,5,4.94,3.58,3.58,0,0,1-5,0,3.5,3.5,0,0,1,0-4.94ZM37,22.64a5.44,5.44,0,0,0,3,.86,5.51,5.51,0,0,0,2.13-.43l3.66,7-9.57,3A11.71,11.71,0,0,0,33.51,29c-.21-.21-.42-.41-.64-.6Zm-19.19,22a10.1,10.1,0,1,1,14.28,0A10.12,10.12,0,0,1,17.82,44.64ZM42.44,59.47a3.58,3.58,0,0,1-5,0,3.5,3.5,0,1,1,5,0Zm-.32-7.53a5.5,5.5,0,0,0-5.11.42l-4.12-5.73c.22-.19.42-.38.62-.58a11.84,11.84,0,0,0,2.64-4l9.58,3Zm4.56-8.62-9.93-3.14a12.17,12.17,0,0,0,0-5.27l9.93-3.07,3,5.74Zm4.84,1.52-2.9-.91,2.22-4.21,1.79,3.4A5,5,0,0,0,51.52,44.84Zm7.58,4.52a3.59,3.59,0,0,1-5,0,3.5,3.5,0,1,1,5,0ZM30,36.5v2H26v4H24v-4H20v-2h4v-4h2v4Z"/></g></g></svg>