<svg xmlns="http://www.w3.org/2000/svg" viewBox="0 0 75 75"><defs><style>.cls-1{fill:#693cc5;}.cls-2{fill:#fff;}</style></defs><title>AWS-Glue_light-bg</title><g id="Working"><rect id="Purple_Light_BG" data-name="Purple Light BG" class="cls-1" width="75" height="75"/><g id="Product_Icon" data-name="Product Icon"><path class="cls-2" d="M37.56,62.5a1,1,0,0,1-.64-.23l-6.06-5a1,1,0,0,1-.3-1.11,1,1,0,0,1,.94-.66h3v-3h2v4a1,1,0,0,1-1,1H34.28l3.27,2.7,3.21-2.7H39.5a1,1,0,0,1-1-1v-4h2v3h3a1,1,0,0,1,.64,1.76l-5.94,5A1,1,0,0,1,37.56,62.5Z"/><path class="cls-2" d="M46.47,25l-.24,2a18.9,18.9,0,0,1,4.83,1c-1.77.77-6.76,1.5-13.56,1.5-7,0-12-.8-13.59-1.5,1.44-.61,5.58-1.43,12.59-1.5v-2c-13.61.14-15,2.49-15,3.5a1.5,1.5,0,0,0,0,.2,1.12,1.12,0,0,0,.12.35l.2.35a1.12,1.12,0,0,0,.16.22,2.39,2.39,0,0,0,.33.27L33.5,46.84v2.67a1,1,0,0,0,.65.94,9.87,9.87,0,0,0,3.42.64,8.71,8.71,0,0,0,3.3-.66,1,1,0,0,0,.63-.92V46.83L52.64,29.4l0,0A1.68,1.68,0,0,0,53.5,28C53.5,26.93,52.67,25.74,46.47,25ZM39.66,46a1,1,0,0,0-.16.54V48.8a6.74,6.74,0,0,1-4,0V46.54a1,1,0,0,0-.16-.54L25.41,30.49a62.43,62.43,0,0,0,12.09,1,63.8,63.8,0,0,0,12.07-1Z"/><path class="cls-2" d="M43.5,27.5h-4a1,1,0,0,1-1-1v-4a1,1,0,0,1,1-1h4a1,1,0,0,1,1,1v4A1,1,0,0,1,43.5,27.5Zm-3-2h2v-2h-2Z"/><path class="cls-2" d="M41.5,18.5h-4a1,1,0,0,1-1-1v-4a1,1,0,0,1,1-1h4a1,1,0,0,1,1,1v4A1,1,0,0,1,41.5,18.5Zm-3-2h2v-2h-2Z"/><path class="cls-2" d="M33.5,23.5h-4a1,1,0,0,1-1-1v-4a1,1,0,0,1,1-1h4a1,1,0,0,1,1,1v4A1,1,0,0,1,33.5,23.5Zm-3-2h2v-2h-2Z"/></g></g></svg>