<svg xmlns="http://www.w3.org/2000/svg" viewBox="0 0 50 50"><defs><style>.cls-1{fill:#693cc5;}</style></defs><title>AWS-Glue_Crawlers_light-bg</title><g id="Working"><path class="cls-1" d="M48.22,0h-47a1,1,0,0,0-1,1V33a1,1,0,0,0,1,1h19V32h-3V26h5V24h-5V17h30v5h2V1A1,1,0,0,0,48.22,0Zm-43,32h-3V9h3Zm0-25h-3V2h3Zm10,25h-8V26h8Zm0-8h-8V17h8Zm0-9h-8V9h8Zm-8-8V2h40V7Zm10,8V9h30v6Z"/><path class="cls-1" d="M47.21,43a5.64,5.64,0,0,0-2.45-1,14.32,14.32,0,0,0,.48-3.72c0-.14,0-.28,0-.41a4.41,4.41,0,0,0,2.14-.88,6.53,6.53,0,0,0,2.41-4.6l-2-.21a4.56,4.56,0,0,1-1.62,3.21,2.51,2.51,0,0,1-1.13.49,13.33,13.33,0,0,0-1.57-4.55,5.93,5.93,0,0,0,3.63-5.91l-2,.07c.07,2.14-1.21,3.95-2.88,4.08a7.82,7.82,0,0,0-1-.95,7.53,7.53,0,0,0-.84-3.18,8.59,8.59,0,0,0,1.25-4.23,2,2,0,1,0-3-1.76,2,2,0,0,0,1,1.7,9.18,9.18,0,0,1-.55,2.54,4,4,0,0,0-5.79,0,8.79,8.79,0,0,1-.56-2.54,2,2,0,1,0-3.05-1.7,2,2,0,0,0,1.06,1.77A8.41,8.41,0,0,0,32,25.49a7.68,7.68,0,0,0-.84,3.18,8,8,0,0,0-1,1c-1.66-.18-2.92-2-2.82-4.15l-2-.09a5.94,5.94,0,0,0,3.6,6,13.13,13.13,0,0,0-1.56,4.5,2.36,2.36,0,0,1-1.12-.48,4.56,4.56,0,0,1-1.62-3.21l-2,.21a6.53,6.53,0,0,0,2.41,4.6,4.42,4.42,0,0,0,2.13.88c0,.13,0,.27,0,.41a14.45,14.45,0,0,0,.5,3.8A5.31,5.31,0,0,0,23,46.43l2,.27a3.46,3.46,0,0,1,3.35-2.62c.15.35.32.7.5,1,1.71,3.1,4.35,4.88,7.23,4.88a8.83,8.83,0,0,0,7.48-4.88A9.4,9.4,0,0,0,44.1,44a3.77,3.77,0,0,1,2,.68,3,3,0,0,1,1.36,2l2-.27A5,5,0,0,0,47.21,43Zm-11-18.5c1.17,0,2.27,1.17,2.77,2.73a3.44,3.44,0,0,0-.53-.21,2.19,2.19,0,0,0-1.87.43,3,3,0,0,0-.33.23,2.61,2.61,0,0,1-.41-.23A2.21,2.21,0,0,0,34,27.05a3.33,3.33,0,0,0-.52.21C34,25.7,35.05,24.53,36.22,24.53Zm-7,13.81c0-4.36,2.22-8.26,5.29-9.35l.31.19c.13.08.27.17.43.25V39.86a2.61,2.61,0,0,0-.54.24L30,42.81A12.2,12.2,0,0,1,29.19,38.34ZM36.09,48c-2,0-3.85-1.2-5.21-3.38l4.8-2.78a1.07,1.07,0,0,1,1.08,0l4.78,2.76A6.69,6.69,0,0,1,36.09,48Zm6.34-5.18-4.67-2.7a2.61,2.61,0,0,0-.54-.24V29.44l.44-.26L38,29c3.07,1.09,5.28,5,5.28,9.35A12.2,12.2,0,0,1,42.43,42.81Z"/></g></svg>