<svg xmlns="http://www.w3.org/2000/svg" viewBox="0 0 75 75"><defs><style>.cls-1{fill:#693cc5;}.cls-2{fill:#fff;}</style></defs><title>AWS-Data-Pipeline_light-bg</title><g id="Working"><rect id="Purple_Light_BG" data-name="Purple Light BG" class="cls-1" width="75" height="75"/><g id="Product_Icon" data-name="Product Icon"><path class="cls-2" d="M59.13,27.83H56.85a3.37,3.37,0,0,0-3.36,3.36v.31h-12v-6h1.61a3.54,3.54,0,0,0,2.46,1,3.85,3.85,0,0,0,3.69-4,3.85,3.85,0,0,0-3.69-4,3.46,3.46,0,0,0-2.39,1H41.46a4.32,4.32,0,0,0-4-4.34,4.32,4.32,0,0,0-4,4.34H31.92a3.46,3.46,0,0,0-2.39-1,3.85,3.85,0,0,0-3.68,4,3.85,3.85,0,0,0,3.68,4,3.5,3.5,0,0,0,2.46-1H33.5v6H21.43v-.33a3.35,3.35,0,0,0-3.35-3.34H15.85a3.35,3.35,0,0,0-3.35,3.34V56.51a3.35,3.35,0,0,0,3.35,3.35h2.23a3.35,3.35,0,0,0,3.35-3.35H53.49a3.37,3.37,0,0,0,3.36,3.36h2.28A3.37,3.37,0,0,0,62.5,56.5V31.19A3.37,3.37,0,0,0,59.13,27.83ZM19.5,56.51a1.36,1.36,0,0,1-1.37,1.35H15.86a1.35,1.35,0,0,1-1.36-1.35v-2h5Zm0-4h-5v-17h5Zm0-19h-5V31.17a1.35,1.35,0,0,1,1.36-1.34h2.27a1.35,1.35,0,0,1,1.37,1.34Zm18-16.36a2.32,2.32,0,0,1,2,2.36h-4A2.32,2.32,0,0,1,37.46,17.14ZM31.54,23.5a.87.87,0,0,0-.79.34,1.56,1.56,0,0,1-1.22.66,1.87,1.87,0,0,1-1.68-2,1.87,1.87,0,0,1,1.68-2,1.54,1.54,0,0,1,1.19.61,1,1,0,0,0,.77.37H43.58a1,1,0,0,0,.78-.37,1.54,1.54,0,0,1,1.18-.61,1.87,1.87,0,0,1,1.69,2,1.87,1.87,0,0,1-1.69,2,1.56,1.56,0,0,1-1.22-.66.87.87,0,0,0-.79-.34Zm8,2v6h-4v-6Zm14,29h-32v-3h32Zm0-5h-32v-12h32Zm0-14h-32v-2h32Zm7,21a1.36,1.36,0,0,1-1.36,1.36H56.85a1.36,1.36,0,0,1-1.36-1.36v-2h5Zm0-4h-5v-17h5Zm0-19h-5V31.19a1.36,1.36,0,0,1,1.36-1.36h2.29a1.36,1.36,0,0,1,1.36,1.36Z"/></g></g></svg>