<svg xmlns="http://www.w3.org/2000/svg" xmlns:xlink="http://www.w3.org/1999/xlink" viewBox="0 0 75 75"><defs><style>.cls-1{fill:url(#PurpleGradient);}.cls-2{fill:#fff;}</style><linearGradient id="PurpleGradient" x1="-2042.54" y1="1985.47" x2="-1936.47" y2="2091.54" gradientTransform="translate(-2001 -1952) rotate(-90)" gradientUnits="userSpaceOnUse"><stop offset="0" stop-color="#4d27a8"/><stop offset="1" stop-color="#a166ff"/></linearGradient></defs><title>AWS-Lake-Formation</title><g id="Working"><rect id="Purple_Gradient" data-name="Purple Gradient" class="cls-1" width="75" height="75"/><g id="Icon_Test" data-name="Icon Test"><path class="cls-2" d="M37.53,61.92q-.84,0-1.68-.06a22.09,22.09,0,0,1-15.2-7.66A22.35,22.35,0,0,1,18,29l1.75,1A20.25,20.25,0,1,0,32.69,20l-.47-2a22.24,22.24,0,1,1,5.31,43.84Z"/><path class="cls-2" d="M26.65,45a1,1,0,0,1-.64-.23l-3.77-3.12a1,1,0,0,1,.63-1.77h1.49V38.37h2v2.49a1,1,0,0,1-.74,1l1,.84,1-.83a1,1,0,0,1-.78-1V38.37h2v1.49h1.49a1,1,0,0,1,.94.66,1,1,0,0,1-.3,1.11l-3.7,3.11A1,1,0,0,1,26.65,45Z"/><path class="cls-2" d="M26.65,37.87a6.35,6.35,0,0,1-2.25-.43,1,1,0,0,1-.66-.93V35L16.43,23.54l1.68-1.08,7.47,11.66a1,1,0,0,1,.16.54v1.1a3.79,3.79,0,0,0,1.74,0V34.66a1,1,0,0,1,.16-.54l7.47-11.69L36.8,23.5,29.48,35v1.56a1,1,0,0,1-.63.92A5.65,5.65,0,0,1,26.65,37.87Z"/><path class="cls-2" d="M26.61,25.67c-1.39,0-8.41-.08-9.92-1.6a.92.92,0,0,1-.17-.22l-.12-.22a.93.93,0,0,1-.12-.33c0-.05,0-.14,0-.19,0-1.63,3.28-2.49,9.76-2.56l0,2a34.76,34.76,0,0,0-6.51.56,37,37,0,0,0,7.07.56,38.28,38.28,0,0,0,7.07-.56c-.43-.09-1-.18-1.68-.27l.24-2c3.35.41,4.71,1.06,4.71,2.25a1.42,1.42,0,0,1-.66,1.17C34.85,25.3,30.18,25.67,26.61,25.67Z"/><path class="cls-2" d="M30.35,23.18H27.86a1,1,0,0,1-1-1v-2.5a1,1,0,0,1,1-1h2.49a1,1,0,0,1,1,1v2.5A1,1,0,0,1,30.35,23.18Zm-1.49-2h.49v-.5h-.49Z"/><path class="cls-2" d="M29.1,17.57H26.61a1,1,0,0,1-1-1V14.08a1,1,0,0,1,1-1H29.1a1,1,0,0,1,1,1v2.49A1,1,0,0,1,29.1,17.57Zm-1.49-2h.49v-.49h-.49Z"/><path class="cls-2" d="M24.12,20.68H21.63a1,1,0,0,1-1-1V17.19a1,1,0,0,1,1-1h2.49a1,1,0,0,1,1,1v2.49A1,1,0,0,1,24.12,20.68Zm-1.49-2h.49v-.49h-.49Z"/><path class="cls-2" d="M46.56,54.1a3.93,3.93,0,0,1-2.91-1.3,3.91,3.91,0,0,1-5.82,0,3.91,3.91,0,0,1-5.82,0,3.91,3.91,0,0,1-2.91,1.3v-2A1.91,1.91,0,0,0,31,50.19h2a1.91,1.91,0,1,0,3.82,0h2a1.91,1.91,0,1,0,3.82,0h2a1.92,1.92,0,0,0,1.91,1.91Z"/><path class="cls-2" d="M51.52,32.75a3.91,3.91,0,0,1-2.91-1.3,3.91,3.91,0,0,1-5.82,0,3.91,3.91,0,0,1-5.82,0,3.87,3.87,0,0,1-2.91,1.3v-2A1.91,1.91,0,0,0,36,28.84h2a1.91,1.91,0,1,0,3.82,0h2a1.91,1.91,0,1,0,3.82,0h2a1.92,1.92,0,0,0,1.91,1.91Z"/><path class="cls-2" d="M53.25,42.8a3.91,3.91,0,0,1-2.91-1.3,3.91,3.91,0,0,1-5.82,0,3.9,3.9,0,0,1-5.81,0,3.91,3.91,0,0,1-2.91,1.3v-2a1.92,1.92,0,0,0,1.91-1.91h2a1.91,1.91,0,1,0,3.81,0h2a1.91,1.91,0,0,0,3.82,0h2a1.91,1.91,0,0,0,3.82,0h2A3.91,3.91,0,0,1,53.25,42.8Z"/></g></g></svg>