<svg xmlns="http://www.w3.org/2000/svg" viewBox="0 0 50 50"><defs><style>.cls-1{fill:#693cc5;}</style></defs><title>AWS-Glue_Data-catalog_light-bg</title><g id="Working"><path class="cls-1" d="M47,50H11a1,1,0,0,1-1-1V1a1,1,0,0,1,1-1H47a1,1,0,0,1,1,1V49A1,1,0,0,1,47,50ZM12,48H46V2H12Z"/><path class="cls-1" d="M8,50H5.12A3.12,3.12,0,0,1,2,46.88V3.14A3.15,3.15,0,0,1,5.14,0H8V2H5.13A1.14,1.14,0,0,0,4,3.13V46.86A1.14,1.14,0,0,0,5.14,48H8Z"/><rect class="cls-1" x="16" y="5" width="27" height="2"/><rect class="cls-1" x="16" y="9" width="27" height="2"/><rect class="cls-1" x="16" y="40" width="27" height="2"/><rect class="cls-1" x="16" y="44" width="27" height="2"/><path class="cls-1" d="M29,37.5a5,5,0,0,1-2.58-.82,1,1,0,0,1-.46-.84V32.39L18.11,16.83l1.78-.91,8,15.78a1,1,0,0,1,.11.45v3.09a2.06,2.06,0,0,0,2,0V32.11a1,1,0,0,1,.11-.45l8-15.78,1.78.91L32,32.35v3.49a1,1,0,0,1-.44.82A4.62,4.62,0,0,1,29,37.5Z"/><path class="cls-1" d="M29.05,19.78c-1.83,0-11-.16-11-3.32s9.14-3.31,11-3.31,11,.16,11,3.31S30.88,19.78,29.05,19.78Zm-8.77-3.32c.91.54,3.92,1.32,8.77,1.32s7.87-.78,8.77-1.32c-.9-.53-3.91-1.31-8.77-1.31S21.19,15.93,20.28,16.46Z"/></g></svg>