<svg id="Working" xmlns="http://www.w3.org/2000/svg" width="50" height="50" viewBox="0 0 50 50"><title>AWS-Data-Lakes_Resource-icon_light-bg</title><path d="M33.72,41.91c0,1.93-3.27,3.74-8.34,4.6-1.27.22-2.61.38-4,.48-.57,0-1.14.07-1.72.09-1.16,0-2.37,0-3.53,0-.58,0-1.15,0-1.72-.09-1.38-.1-2.73-.26-4-.48-5.07-.86-8.34-2.67-8.34-4.6V35.12c3.12,2.08,9.48,3,15.81,3v-2c-10.32,0-15.81-2.36-15.81-4.07V23.56c3.25,2.17,10,3.19,16.36,3.19v-2c-10.14,0-16.36-2.45-16.36-4.2V12.12c3.13,2.19,9.49,3.32,15.81,3.32s12.69-1.13,15.82-3.32v3.57h2V8.09c0-4.17-7.49-7.2-17.82-7.2S.09,3.92.09,8.09V41.91c0,3.1,3.64,5.5,10,6.58,1.32.22,2.73.39,4.18.49.59,0,1.18.08,1.79.1s1.21,0,1.83,0,1.24,0,1.84,0,1.2-.06,1.79-.1c1.45-.1,2.86-.27,4.18-.49,6.36-1.08,10-3.48,10-6.58v-1h-2ZM2.09,8.09c0-2.51,6.35-5.2,15.81-5.2s15.82,2.69,15.82,5.2V9c0,1.85-6,4.44-15.82,4.44S2.09,10.85,2.09,9ZM49.91,33.31v2c-.27,0-.68.89-.92,1.42-.5,1.09-1.19,2.58-2.74,2.58S44,37.82,43.5,36.73c-.24-.53-.65-1.42-.92-1.42s-.68.89-.92,1.42c-.5,1.09-1.18,2.58-2.74,2.58s-2.24-1.49-2.74-2.58c-.24-.53-.65-1.42-.92-1.42s-.68.89-.92,1.42c-.5,1.09-1.18,2.58-2.74,2.58s-2.24-1.49-2.74-2.58c-.24-.53-.65-1.42-.92-1.42s-.68.89-.92,1.42c-.5,1.09-1.19,2.58-2.74,2.58S22,37.82,21.54,36.73c-.24-.53-.65-1.42-.92-1.42v-2c1.55,0,2.24,1.49,2.74,2.58.24.53.64,1.42.92,1.42s.68-.89.92-1.42c.5-1.09,1.18-2.58,2.74-2.58s2.24,1.49,2.74,2.58c.24.53.65,1.42.92,1.42s.68-.89.92-1.42c.5-1.09,1.18-2.58,2.74-2.58S37.5,34.8,38,35.89c.24.53.65,1.42.92,1.42s.68-.89.92-1.42c.5-1.09,1.18-2.58,2.74-2.58s2.24,1.49,2.74,2.58c.25.53.65,1.42.93,1.42s.68-.89.92-1.42C47.67,34.8,48.35,33.31,49.91,33.31Zm0-7.64v2c-.27,0-.68.89-.92,1.42-.5,1.09-1.19,2.58-2.74,2.58S44,30.18,43.5,29.09c-.24-.53-.65-1.42-.92-1.42s-.68.89-.92,1.42c-.5,1.09-1.18,2.58-2.74,2.58s-2.24-1.49-2.74-2.58c-.24-.53-.65-1.42-.92-1.42s-.68.89-.92,1.42c-.5,1.09-1.18,2.58-2.74,2.58s-2.24-1.49-2.74-2.58c-.24-.53-.65-1.42-.92-1.42s-.68.89-.92,1.42c-.5,1.09-1.19,2.58-2.74,2.58S22,30.18,21.54,29.09c-.24-.53-.65-1.42-.92-1.42v-2c1.55,0,2.24,1.49,2.74,2.59.24.52.64,1.41.92,1.41s.68-.89.92-1.41c.5-1.1,1.18-2.59,2.74-2.59s2.24,1.49,2.74,2.59c.24.52.65,1.41.92,1.41s.68-.89.92-1.41c.5-1.1,1.18-2.59,2.74-2.59s2.24,1.5,2.74,2.59c.24.53.65,1.41.92,1.41s.68-.89.92-1.42c.5-1.09,1.18-2.58,2.74-2.58s2.24,1.49,2.74,2.59c.25.52.65,1.41.93,1.41s.68-.89.92-1.41C47.67,27.16,48.35,25.67,49.91,25.67Zm0-7.63v2c-.27,0-.68.89-.92,1.42C48.49,22.55,47.8,24,46.25,24S44,22.55,43.5,21.46c-.24-.53-.65-1.42-.92-1.42s-.68.88-.92,1.41c-.5,1.1-1.18,2.59-2.74,2.59s-2.24-1.49-2.74-2.59c-.24-.52-.65-1.41-.92-1.41s-.68.89-.92,1.41c-.5,1.1-1.18,2.59-2.74,2.59s-2.24-1.49-2.74-2.59c-.24-.52-.65-1.41-.92-1.41s-.68.89-.92,1.41c-.5,1.1-1.19,2.59-2.74,2.59S22,22.55,21.54,21.45c-.24-.52-.65-1.41-.92-1.41V18c1.55,0,2.24,1.49,2.74,2.58.24.53.64,1.42.92,1.42s.68-.89.92-1.42c.5-1.09,1.18-2.58,2.74-2.58s2.24,1.49,2.74,2.58c.24.53.65,1.42.92,1.42s.68-.89.92-1.42C33,19.53,33.7,18,35.26,18S37.5,19.53,38,20.62c.24.53.65,1.42.92,1.42s.68-.89.92-1.42C40.34,19.53,41,18,42.58,18s2.24,1.49,2.74,2.58c.25.53.65,1.42.93,1.42s.68-.89.92-1.42C47.67,19.53,48.35,18,49.91,18Z" style="fill:#693cc5"/></svg>