<svg xmlns="http://www.w3.org/2000/svg" viewBox="0 0 75 75"><defs><style>.cls-1{fill:#d6242d;}.cls-2{fill:#fff;}</style></defs><title>AWS-Amplify_light-bg</title><g id="Reference"><rect id="Red_Light_BG" data-name="Red Light BG" class="cls-1" width="75" height="75"/><g id="Product_Icon" data-name="Product Icon"><path class="cls-2" d="M40.4,55.88H14.32a1,1,0,0,1-.87-1.49L26.23,31.56a1,1,0,0,1,.84-.51,1,1,0,0,1,.87.45L31.52,37a1,1,0,0,1,.05,1l-5.2,10H37.5a1,1,0,0,1,.9.56l2.9,6a1,1,0,0,1-.06,1A1,1,0,0,1,40.4,55.88ZM16,53.88H38.8l-1.93-4H24.72a1,1,0,0,1-.86-.48,1,1,0,0,1,0-1l5.7-10.89L27.17,34Z"/><path class="cls-2" d="M50.45,55.88h-6.3a1,1,0,0,1-.88-.51L28.79,29.12a1,1,0,0,1,0-.89L31.14,23a1,1,0,0,1,.85-.59,1,1,0,0,1,.92.49l18.4,31.53a1,1,0,0,1-.86,1.5Zm-5.71-2h4L32.16,25.53l-1.38,3.06Z"/><path class="cls-2" d="M60.68,55.88H54.2a1,1,0,0,1-.87-.5L33.39,20.62a1,1,0,0,1,0-1,1,1,0,0,1,.86-.5H40.4a1,1,0,0,1,.86.49L61.54,54.38a1,1,0,0,1-.86,1.5Zm-5.9-2h4.15L39.82,21.12H36Z"/></g></g></svg>