<svg xmlns="http://www.w3.org/2000/svg" viewBox="0 0 75 75"><defs><style>.cls-1{fill:#d6242d;}.cls-2{fill:#fff;}</style></defs><title>AWS-Device-Farm_light-bg</title><g id="Reference"><rect id="Red_Light_BG" data-name="Red Light BG" class="cls-1" width="75" height="75"/><g id="Product_Icon" data-name="Product Icon"><path class="cls-2" d="M37.62,24.13a3.75,3.75,0,1,1,3.75-3.75A3.75,3.75,0,0,1,37.62,24.13Zm0-5.5a1.75,1.75,0,1,0,1.75,1.75A1.75,1.75,0,0,0,37.62,18.63Z"/><path class="cls-2" d="M52.55,50a3.75,3.75,0,1,1,3.75-3.75A3.75,3.75,0,0,1,52.55,50Zm0-5.5a1.75,1.75,0,1,0,1.75,1.75A1.76,1.76,0,0,0,52.55,44.49Z"/><path class="cls-2" d="M22.69,50a3.75,3.75,0,1,1,3.75-3.75A3.75,3.75,0,0,1,22.69,50Zm0-5.5a1.75,1.75,0,1,0,1.75,1.75A1.76,1.76,0,0,0,22.69,44.49Z"/><path class="cls-2" d="M60,23.93,38,11.22a1,1,0,0,0-1,0L15,23.93a1,1,0,0,0-.5.86V50.2a1,1,0,0,0,.5.86l22,12.7a1,1,0,0,0,1,0l22-12.7a1,1,0,0,0,.5-.86V24.79A1,1,0,0,0,60,23.93ZM58.5,49.62l-21,12.12-21-12.12V25.37l21-12.13,21,12.13Z"/><path class="cls-2" d="M52.55,25.25A3.75,3.75,0,0,0,48.8,29a3.33,3.33,0,0,0,.09.78,3.6,3.6,0,0,0,.92,1.77,3.71,3.71,0,0,0,2.74,1.2,3.75,3.75,0,0,0,0-7.5Zm0,5.5A1.75,1.75,0,1,1,54.3,29,1.76,1.76,0,0,1,52.55,30.75Z"/><path class="cls-2" d="M41.37,37.65a3.8,3.8,0,0,0-.17-1.12l8.61-5a3.6,3.6,0,0,1-.92-1.77l-8.78,5.08a3.68,3.68,0,0,0-2.49-1,3.74,3.74,0,0,0-2.59,1l-8.71-5a3.37,3.37,0,0,0,.12-.9,3.76,3.76,0,1,0-1.09,2.64l8.66,5a3.64,3.64,0,0,0-.14,1,3.75,3.75,0,0,0,2.63,3.58v10a3.76,3.76,0,1,0,2-.06V41.29A3.74,3.74,0,0,0,41.37,37.65ZM23.57,30.5a1.64,1.64,0,0,1-.88.25,1.67,1.67,0,0,1-1.12-.42A1.72,1.72,0,0,1,20.94,29a1.75,1.75,0,0,1,1.75-1.75,1.6,1.6,0,0,1,.53.09A1.71,1.71,0,0,1,24.43,29a.09.09,0,0,1,0,.05A1.73,1.73,0,0,1,23.57,30.5Zm15.8,24.35a1.75,1.75,0,1,1-1.75-1.75A1.75,1.75,0,0,1,39.37,54.85ZM37.62,39.4a1.75,1.75,0,1,1,1.75-1.75A1.76,1.76,0,0,1,37.62,39.4Z"/><rect class="cls-2" x="21.5" y="35.09" width="2" height="5"/><rect class="cls-2" x="51.5" y="35.09" width="2" height="5"/><rect class="cls-2" x="27.78" y="23.59" width="4.52" height="2" transform="translate(-8.2 17.94) rotate(-29.44)"/><rect class="cls-2" x="43.99" y="22.27" width="2" height="4.52" transform="translate(1.09 50.96) rotate(-59.65)"/><rect class="cls-2" x="29.05" y="48.24" width="2" height="4.52" transform="translate(-28.7 51.82) rotate(-60.54)"/><rect class="cls-2" x="42.72" y="49.55" width="4.52" height="2" transform="matrix(0.86, -0.51, 0.51, 0.86, -19.38, 29.65)"/></g></g></svg>