<svg xmlns="http://www.w3.org/2000/svg" viewBox="0 0 50 50"><defs><style>.cls-1{fill:#232f3e;}</style></defs><title>Client_light-bg</title><g id="Working"><path class="cls-1" d="M45.48,34.91h-41a3,3,0,0,1-3-3V5a3,3,0,0,1,3-3h41a3,3,0,0,1,3,3V31.89A3,3,0,0,1,45.48,34.91ZM4.52,4a1,1,0,0,0-1,1V31.89a1,1,0,0,0,1,1h41a1,1,0,0,0,1-1V5a1,1,0,0,0-1-1Z"/><path class="cls-1" d="M45,48H5A3.53,3.53,0,0,1,1.5,44.51V40.18A3.53,3.53,0,0,1,5,36.66H45a3.53,3.53,0,0,1,3.52,3.52v4.33A3.53,3.53,0,0,1,45,48ZM5,38.66A1.52,1.52,0,0,0,3.5,40.18v4.33A1.52,1.52,0,0,0,5,46H45a1.52,1.52,0,0,0,1.52-1.52V40.18A1.52,1.52,0,0,0,45,38.66Z"/><path class="cls-1" d="M43.75,31.16H6.25a1,1,0,0,1-1-1V6.72a1,1,0,0,1,1-1h37.5a1,1,0,0,1,1,1V30.16A1,1,0,0,1,43.75,31.16Zm-36.5-2h35.5V7.72H7.25Z"/><rect class="cls-1" x="31.5" y="40.41" width="13.25" height="3.88" rx="1"/></g></svg>