<svg xmlns="http://www.w3.org/2000/svg" viewBox="0 0 50 50"><defs><style>.cls-1{fill:#232f3e;}</style></defs><title>Disk_light-bg</title><g id="Working"><path class="cls-1" d="M25,48.5A23.5,23.5,0,1,1,48.5,25,23.52,23.52,0,0,1,25,48.5Zm0-45A21.5,21.5,0,1,0,46.5,25,21.52,21.52,0,0,0,25,3.5Z"/><path class="cls-1" d="M25,35.38A10.38,10.38,0,1,1,35.38,25,10.4,10.4,0,0,1,25,35.38Zm0-18.76A8.38,8.38,0,1,0,33.38,25,8.39,8.39,0,0,0,25,16.62Z"/><path class="cls-1" d="M25,30.69A5.69,5.69,0,1,1,30.69,25,5.69,5.69,0,0,1,25,30.69Zm0-9.38A3.69,3.69,0,1,0,28.69,25,3.7,3.7,0,0,0,25,21.31Z"/></g></svg>