<svg xmlns="http://www.w3.org/2000/svg" viewBox="0 0 50 50"><defs><style>.cls-1{fill:#232f3e;}</style></defs><title>Forums_light-bg</title><g id="Working"><path class="cls-1" d="M47.5,11.47H2.5a1,1,0,0,1-1-1V3a1,1,0,0,1,1-1h45a1,1,0,0,1,1,1v7.5A1,1,0,0,1,47.5,11.47Zm-44-2h43V4H3.5Z"/><path class="cls-1" d="M47.5,23.66H2.5a1,1,0,0,1-1-1V15.08a1,1,0,0,1,1-1h45a1,1,0,0,1,1,1v7.58A1,1,0,0,1,47.5,23.66Zm-44-2h43V16.08H3.5Z"/><path class="cls-1" d="M47.5,35.92H2.5a1,1,0,0,1-1-1V27.34a1,1,0,0,1,1-1h45a1,1,0,0,1,1,1v7.58A1,1,0,0,1,47.5,35.92Zm-44-2h43V28.34H3.5Z"/><path class="cls-1" d="M47.5,48H2.5a1,1,0,0,1-1-1v-7.5a1,1,0,0,1,1-1h45a1,1,0,0,1,1,1V47A1,1,0,0,1,47.5,48Zm-44-2h43v-5.5H3.5Z"/><rect class="cls-1" x="23.13" y="5.72" width="21.56" height="2"/><rect class="cls-1" x="5.31" y="17.91" width="25.31" height="2"/><rect class="cls-1" x="23.13" y="30.09" width="21.56" height="2"/><rect class="cls-1" x="5.31" y="42.28" width="25.31" height="2"/></g></svg>