<svg xmlns="http://www.w3.org/2000/svg" viewBox="0 0 50 50"><defs><style>.cls-1{fill:#232f3e;}</style></defs><title>Generic-database_light-bg</title><g id="Working"><path class="cls-1" d="M25,48.5c-8.67,0-17.88-2.39-17.88-6.83V8.33C7.12,3.89,16.33,1.5,25,1.5S42.88,3.89,42.88,8.33V41.67C42.88,46.11,33.67,48.5,25,48.5Zm0-45C15.16,3.5,9.12,6.31,9.12,8.33V41.67c0,2,6,4.83,15.88,4.83s15.88-2.81,15.88-4.83V8.33C40.88,6.31,34.84,3.5,25,3.5Z"/><path class="cls-1" d="M25,14.15c-8.67,0-17.88-2.39-17.88-6.83h2c0,2,6,4.83,15.88,4.83S40.88,9.34,40.88,7.32h2C42.88,11.76,33.67,14.15,25,14.15Z"/></g></svg>