<svg xmlns="http://www.w3.org/2000/svg" width="50" height="50" viewBox="0 0 50 50"><title>Generic_Firewall</title><g id="Working"><path d="M46,31H43V26a1,1,0,0,0-1-1H31a1,1,0,0,0-1,1v5H23a1,1,0,0,0-1,1v6a1,1,0,0,0,1,1h3v4a1,1,0,0,0,1,1H38a1,1,0,0,0,1-1V39h7a1,1,0,0,0,1-1V32A1,1,0,0,0,46,31ZM32,27h9v4H32Zm-8,6H34v4H24Zm13,9H28V39h9Zm8-5H36V33h9Z" style="fill:#232f3e"/><path d="M14.68,6.68c-2.06-1.31-5.25-.76-5.91-.13a1,1,0,0,0,.06,1.5,9.67,9.67,0,0,1,2.76,9.5C10.27,15.8,8,13.49,5.42,13.49a1,1,0,0,0-.83.44,1,1,0,0,0-.1.93c0,.07,2.43,6.19.09,9.74l0,.08a4,4,0,0,0-.32.52A10.43,10.43,0,0,0,6,37.4l.65.59q.4.33.84.63c.34.23.71.47,1.14.72l2,1.09c.66.32,1.36.63,2.07.93l.76-1.85c-.67-.28-1.33-.57-1.91-.86l-1.93-1c-.36-.21-.7-.43-1-.64a7.87,7.87,0,0,1-.65-.48L7.35,36A8.42,8.42,0,0,1,6,26.11c.06-.11.13-.21.2-.32l.06-.09c2-3.1,1.33-7.4.67-9.79a12.51,12.51,0,0,1,4.15,4.48,1,1,0,0,0,.95.51,1,1,0,0,0,.86-.65c2.23-6.11.06-10.34-1.51-12.37a4,4,0,0,1,2.23.48Z" style="fill:#232f3e"/><path d="M24.53,25.64a1,1,0,0,0,.49,1,1,1,0,0,0,1.12-.08c.1-.08,2-1.66,2.9-5.53a7.32,7.32,0,0,1,1.14,2.2l1.89-.63a7.78,7.78,0,0,0-3.24-4.44,1,1,0,0,0-1.47.77,13.59,13.59,0,0,1-.59,2.83A15.64,15.64,0,0,0,17.4,8.16a1,1,0,0,0-1,1.73c2.72,2,4,5.52,3.41,9.47l-.23,1.27a15.8,15.8,0,0,1-1.68,4.29l-.68,1.34c-3.32,7.39-.51,14.8-.39,15.11a1,1,0,0,0,.93.63h.08a21,21,0,0,0,2.61-.42l-.44-1.95c-.62.13-1.15.22-1.55.28-.58-1.94-1.83-7.47.57-12.79l.64-1.26A18.12,18.12,0,0,0,21.58,21l.25-1.35a13.55,13.55,0,0,0-.56-6.41C23.5,15.67,25.51,19.59,24.53,25.64Z" style="fill:#232f3e"/></g></svg>