<svg xmlns="http://www.w3.org/2000/svg" viewBox="0 0 50 50"><defs><style>.cls-1{fill:#232f3e;}</style></defs><title>Internet-alt2_light-bg</title><g id="Working"><path class="cls-1" d="M39.4,39.86h-5v-2h5c4.78,0,7.1-2.12,7.1-6.48,0-3.71-2.19-6.05-6.51-6.93a1,1,0,0,1-.8-.92c-.21-3.61-2.31-4.89-4-4.89a3.78,3.78,0,0,0-3,1.53,1,1,0,0,1-1.73-.26,12,12,0,0,0-2.92-4.62A10.62,10.62,0,0,0,15.74,13,10.59,10.59,0,0,0,9.6,22.24a10.23,10.23,0,0,0,.08,1.25,1,1,0,0,1-.75,1.09A6.58,6.58,0,0,0,3.5,31.31c0,.16,0,.32,0,.47.2,3.54,3.18,6.08,7.09,6.08h5v2h-5c-5,0-8.82-3.33-9.08-7.92,0-.25,0-.44,0-.63a8.41,8.41,0,0,1,6.12-8.43c0-.21,0-.42,0-.64A12.58,12.58,0,0,1,15,11.16a12.59,12.59,0,0,1,13.91,2.69,13.24,13.24,0,0,1,2.81,4,5.66,5.66,0,0,1,3.45-1.17c2.65,0,5.43,1.87,6,6,4.76,1.2,7.38,4.28,7.38,8.72C48.5,36.85,45.27,39.86,39.4,39.86Zm-10.65,0h-7.5v-2h7.5Z"/><path class="cls-1" d="M31.56,38.92a1,1,0,0,1-.7-.29L25.23,33l1.41-1.41,4.92,4.91,4.92-4.91L37.89,33l-5.62,5.63A1,1,0,0,1,31.56,38.92Z"/><rect class="cls-1" x="30.56" y="22.92" width="2" height="14.06"/><path class="cls-1" d="M23.36,29.25l-4.92-4.92-4.92,4.92-1.41-1.41,5.62-5.63a1,1,0,0,1,1.41,0l5.63,5.63Z"/><rect class="cls-1" x="17.44" y="22.92" width="2" height="16.88"/></g></svg>