<svg xmlns="http://www.w3.org/2000/svg" viewBox="0 0 50 50"><defs><style>.cls-1{fill:#232f3e;}</style></defs><title>Internet-alt1_light-bg</title><g id="Working"><path class="cls-1" d="M39.4,31.89h-5v-2h5c4.78,0,7.1-2.12,7.1-6.48,0-3.71-2.19-6.05-6.51-6.93a1,1,0,0,1-.8-.92c-.21-3.61-2.31-4.89-4-4.89a3.78,3.78,0,0,0-3,1.53,1,1,0,0,1-1.73-.26A12,12,0,0,0,27.5,7.32,10.62,10.62,0,0,0,15.74,5.05,10.6,10.6,0,0,0,9.6,14.27a10.23,10.23,0,0,0,.08,1.25,1,1,0,0,1-.75,1.09c-2,.51-5.43,2.05-5.43,6.73,0,.18,0,.35,0,.52.19,3.49,3.17,6,7.08,6h5v2h-5c-5,0-8.82-3.33-9.08-7.92,0-.21,0-.42,0-.63a8.42,8.42,0,0,1,6.12-8.43c0-.21,0-.42,0-.64A12.41,12.41,0,0,1,28.89,5.88a13.37,13.37,0,0,1,2.81,4,5.7,5.7,0,0,1,3.45-1.17c2.65,0,5.43,1.87,6,6,4.77,1.2,7.38,4.28,7.38,8.72C48.5,28.88,45.27,31.89,39.4,31.89Zm-10.65,0h-7.5v-2h7.5Z"/><path class="cls-1" d="M31.56,47.82a1,1,0,0,1-.7-.29l-5.63-5.62,1.41-1.42,4.92,4.92,4.92-4.92,1.41,1.42-5.62,5.62A1,1,0,0,1,31.56,47.82Z"/><rect class="cls-1" x="30.56" y="29.95" width="2" height="15.94"/><path class="cls-1" d="M23.36,21.28l-4.92-4.92-4.92,4.92-1.41-1.41,5.62-5.63a1,1,0,0,1,1.41,0l5.63,5.63Z"/><rect class="cls-1" x="17.44" y="14.95" width="2" height="16.88"/></g></svg>