<svg xmlns="http://www.w3.org/2000/svg" viewBox="0 0 50 50"><defs><style>.cls-1{fill:#232f3e;}</style></defs><title>Internet-gateway_light-bg</title><g id="Working"><path class="cls-1" d="M39.4,39.86H10.6c-5,0-8.82-3.33-9.08-7.92,0-.21,0-.42,0-.63a8.41,8.41,0,0,1,6.12-8.43c0-.21,0-.42,0-.64s0-.33,0-.5h0a12.41,12.41,0,0,1,21.27-7.89,13.24,13.24,0,0,1,2.81,4,5.7,5.7,0,0,1,3.45-1.17c2.65,0,5.43,1.87,6,6,4.77,1.2,7.38,4.28,7.38,8.72C48.5,36.85,45.27,39.86,39.4,39.86ZM20,12.15a11.2,11.2,0,0,0-4.27.87A10.59,10.59,0,0,0,9.6,22.24a10.36,10.36,0,0,0,.08,1.25,1,1,0,0,1-.75,1.09c-2,.51-5.43,2.05-5.43,6.73,0,.18,0,.35,0,.52.19,3.49,3.17,6,7.08,6H39.4c4.78,0,7.1-2.12,7.1-6.48,0-3.71-2.19-6.05-6.51-6.93a1,1,0,0,1-.8-.92c-.21-3.61-2.31-4.89-4-4.89a3.78,3.78,0,0,0-3,1.53,1,1,0,0,1-1.73-.26,12,12,0,0,0-2.92-4.62A10.63,10.63,0,0,0,20,12.15Z"/><path class="cls-1" d="M19.67,35.13l-1.38-1.44a9.2,9.2,0,0,1,12.39-.28l-1.31,1.51a7.25,7.25,0,0,0-4.73-1.77A7.16,7.16,0,0,0,19.67,35.13Z"/><path class="cls-1" d="M17,32.3,15.6,30.85a13.12,13.12,0,0,1,17.65-.39L31.93,32A11.11,11.11,0,0,0,17,32.3Z"/><path class="cls-1" d="M14.28,29.46,12.9,28a17,17,0,0,1,22.91-.5L34.5,29a15,15,0,0,0-20.22.44Z"/></g></svg>