<svg xmlns="http://www.w3.org/2000/svg" viewBox="0 0 50 50"><defs><style>.cls-1{fill:#232f3e;}</style></defs><title>Mobile-client_light-bg</title><g id="Working"><path class="cls-1" d="M32.42,48.5H17.58c-3,0-4.83-1.53-4.83-4V6.38A4.86,4.86,0,0,1,17.58,1.5H32.42a4.86,4.86,0,0,1,4.83,4.88V10h-2V6.38A2.86,2.86,0,0,0,32.42,3.5H17.58a2.86,2.86,0,0,0-2.83,2.88V44.51c0,1.32,1,2,2.83,2H32.42c1.87,0,2.83-.67,2.83-2V42.16h2v2.35C37.25,47,35.39,48.5,32.42,48.5Z"/><rect class="cls-1" x="24.06" y="5.25" width="5.63" height="2"/><path class="cls-1" d="M20.31,8A1.7,1.7,0,1,1,22,6.25,1.69,1.69,0,0,1,20.31,8Zm0-2a.3.3,0,1,0,.32.3A.31.31,0,0,0,20.31,6Z"/><path class="cls-1" d="M37.25,38.12h-2V11H13.75V9h22.5a1,1,0,0,1,1,1Z"/><path class="cls-1" d="M36.25,42.88H13.75v-2h21.5V36.25h2v5.63A1,1,0,0,1,36.25,42.88Z"/></g></svg>