<svg xmlns="http://www.w3.org/2000/svg" viewBox="0 0 50 50"><defs><style>.cls-1{fill:#232f3e;}</style></defs><title>Multimedia_light-bg</title><g id="Working"><path class="cls-1" d="M24.71,35.84A10.38,10.38,0,1,1,35.09,25.47,10.38,10.38,0,0,1,24.71,35.84Zm0-18.75a8.38,8.38,0,1,0,8.38,8.38A8.38,8.38,0,0,0,24.71,17.09Z"/><path class="cls-1" d="M21.25,32.09a1.07,1.07,0,0,1-.49-.12,1,1,0,0,1-.51-.88V19.84A1,1,0,0,1,21.78,19l9.07,5.63a1,1,0,0,1,.48.85,1,1,0,0,1-.48.85l-9.07,5.62A1,1,0,0,1,21.25,32.09Zm1-10.45V29.3l6.18-3.83Z"/><path class="cls-1" d="M46.38,47.09H3.62A2.12,2.12,0,0,1,1.5,45V5A2.12,2.12,0,0,1,3.62,2.91H46.38A2.12,2.12,0,0,1,48.5,5V45A2.12,2.12,0,0,1,46.38,47.09ZM3.62,4.91A.12.12,0,0,0,3.5,5V45a.12.12,0,0,0,.12.12H46.38A.12.12,0,0,0,46.5,45V5a.12.12,0,0,0-.12-.12Z"/><path class="cls-1" d="M11.88,12.41H7.19a1,1,0,0,1-1-1V7.66a1,1,0,0,1,1-1h4.69a1,1,0,0,1,1,1v3.75A1,1,0,0,1,11.88,12.41Zm-3.69-2h2.69V8.66H8.19Z"/><path class="cls-1" d="M22.19,12.41H17.5a1,1,0,0,1-1-1V7.66a1,1,0,0,1,1-1h4.69a1,1,0,0,1,1,1v3.75A1,1,0,0,1,22.19,12.41Zm-3.69-2h2.69V8.66H18.5Z"/><path class="cls-1" d="M32.5,12.41H27.81a1,1,0,0,1-1-1V7.66a1,1,0,0,1,1-1H32.5a1,1,0,0,1,1,1v3.75A1,1,0,0,1,32.5,12.41Zm-3.69-2H31.5V8.66H28.81Z"/><path class="cls-1" d="M42.81,12.41H38.12a1,1,0,0,1-1-1V7.66a1,1,0,0,1,1-1h4.69a1,1,0,0,1,1,1v3.75A1,1,0,0,1,42.81,12.41Zm-3.69-2h2.69V8.66H39.12Z"/><path class="cls-1" d="M11.88,43.34H7.19a1,1,0,0,1-1-1V38.59a1,1,0,0,1,1-1h4.69a1,1,0,0,1,1,1v3.75A1,1,0,0,1,11.88,43.34Zm-3.69-2h2.69V39.59H8.19Z"/><path class="cls-1" d="M22.19,43.34H17.5a1,1,0,0,1-1-1V38.59a1,1,0,0,1,1-1h4.69a1,1,0,0,1,1,1v3.75A1,1,0,0,1,22.19,43.34Zm-3.69-2h2.69V39.59H18.5Z"/><path class="cls-1" d="M32.5,43.34H27.81a1,1,0,0,1-1-1V38.59a1,1,0,0,1,1-1H32.5a1,1,0,0,1,1,1v3.75A1,1,0,0,1,32.5,43.34Zm-3.69-2H31.5V39.59H28.81Z"/><path class="cls-1" d="M42.81,43.34H38.12a1,1,0,0,1-1-1V38.59a1,1,0,0,1,1-1h4.69a1,1,0,0,1,1,1v3.75A1,1,0,0,1,42.81,43.34Zm-3.69-2h2.69V39.59H39.12Z"/></g></svg>