<svg xmlns="http://www.w3.org/2000/svg" viewBox="0 0 50 50"><defs><style>.cls-1{fill:#232f3e;}</style></defs><title>Office-building_light-bg</title><g id="Working"><path class="cls-1" d="M39.06,48.5H10.94a1,1,0,0,1-1-1V13.75a1,1,0,0,1,1-1h6.5V2.5a1,1,0,0,1,1-1H31.56a1,1,0,0,1,1,1V12.75h6.5a1,1,0,0,1,1,1V47.5A1,1,0,0,1,39.06,48.5Zm-27.12-2H38.06V14.75h-6.5a1,1,0,0,1-1-1V3.5H19.44V13.75a1,1,0,0,1-1,1h-6.5Z"/><rect class="cls-1" x="22.13" y="5.31" width="2" height="8.44"/><rect class="cls-1" x="25.88" y="5.31" width="2" height="8.44"/><rect class="cls-1" x="17.44" y="16.56" width="2" height="4.69"/><rect class="cls-1" x="17.44" y="24.06" width="2" height="4.69"/><rect class="cls-1" x="17.44" y="31.56" width="2" height="4.69"/><rect class="cls-1" x="17.44" y="39.06" width="2" height="5.62"/><rect class="cls-1" x="13.69" y="16.56" width="2" height="4.69"/><rect class="cls-1" x="13.69" y="24.06" width="2" height="4.69"/><rect class="cls-1" x="13.69" y="31.56" width="2" height="4.69"/><rect class="cls-1" x="13.69" y="39.06" width="2" height="5.62"/><rect class="cls-1" x="22.13" y="16.56" width="2" height="4.69"/><rect class="cls-1" x="22.13" y="24.06" width="2" height="4.69"/><rect class="cls-1" x="22.13" y="31.56" width="2" height="4.69"/><rect class="cls-1" x="22.13" y="39.06" width="2" height="5.62"/><rect class="cls-1" x="25.88" y="16.56" width="2" height="4.69"/><rect class="cls-1" x="25.88" y="24.06" width="2" height="4.69"/><rect class="cls-1" x="25.88" y="31.56" width="2" height="4.69"/><rect class="cls-1" x="25.88" y="39.06" width="2" height="5.62"/><rect class="cls-1" x="30.56" y="16.56" width="2" height="4.69"/><rect class="cls-1" x="30.56" y="24.06" width="2" height="4.69"/><rect class="cls-1" x="30.56" y="31.56" width="2" height="4.69"/><rect class="cls-1" x="30.56" y="39.06" width="2" height="5.62"/><rect class="cls-1" x="34.31" y="16.56" width="2" height="4.69"/><rect class="cls-1" x="34.31" y="24.06" width="2" height="4.69"/><rect class="cls-1" x="34.31" y="31.56" width="2" height="4.69"/><rect class="cls-1" x="34.31" y="39.06" width="2" height="5.62"/></g></svg>