<svg xmlns="http://www.w3.org/2000/svg" viewBox="0 0 50 50"><defs><style>.cls-1{fill:#232f3e;}</style></defs><title>SAML-token_light-bg</title><g id="Working"><path class="cls-1" d="M20.5,48.5a1,1,0,0,1-.71-.29l-18-18a1,1,0,0,1,0-1.42l27-27a1,1,0,0,1,.71-.29h18a1,1,0,0,1,1,1v18a1,1,0,0,1-.29.71l-27,27A1,1,0,0,1,20.5,48.5ZM3.91,29.5,20.5,46.09l26-26V3.5H29.91Z"/><path class="cls-1" d="M39.41,14.29a3.72,3.72,0,0,1-2.62-1.08h0a3.72,3.72,0,1,1,2.62,1.08Zm0-5.4a1.71,1.71,0,0,0-1.2.5,1.68,1.68,0,0,0-.5,1.2,1.7,1.7,0,0,0,.5,1.2h0a1.74,1.74,0,0,0,2.4,0,1.7,1.7,0,0,0-1.2-2.9Z"/><path class="cls-1" d="M19.9,36.93a7.54,7.54,0,1,1,2.78-14.54l.65-.64v-2a1,1,0,0,1,1-1h2l.22-.22v-2a1,1,0,0,1,1-1h2l.91-.91a1,1,0,0,1,.64-.29l3-.2a1,1,0,0,1,1.06.92l.2,2.61a1,1,0,0,1-.29.79l-8.17,8.17a7.53,7.53,0,0,1-7,10.31Zm0-13.08a5.55,5.55,0,0,0-5.53,5.55A5.46,5.46,0,0,0,16,33.31a5.53,5.53,0,0,0,8.83-6.45A1,1,0,0,1,25,25.7l8.34-8.34-.09-1.17-1.65.11-.94.94a1,1,0,0,1-.71.29H28.54V19a1,1,0,0,1-.29.7l-.81.81a1,1,0,0,1-.7.29H25.33v1.41a1,1,0,0,1-.3.71L23.6,24.3a1,1,0,0,1-1.16.18A5.52,5.52,0,0,0,19.9,23.85Zm-1.4,9.94a3,3,0,1,1,2.11-.87A3,3,0,0,1,18.5,33.79Zm0-4a.94.94,0,0,0-.7.29,1,1,0,0,0,0,1.4,1,1,0,1,0,1.4-1.4A1,1,0,0,0,18.5,29.82Z"/></g></svg>