<svg xmlns="http://www.w3.org/2000/svg" viewBox="0 0 50 50"><defs><style>.cls-1{fill:#232f3e;}</style></defs><title>SDK_light-bg</title><g id="Working"><path class="cls-1" d="M25,37.53,14.15,31.26V18.74L25,12.47l10.85,6.27V31.26Zm-8.85-7.42L25,35.22l8.85-5.11V19.89L25,14.78l-8.85,5.11Z"/><path class="cls-1" d="M25,47.15,5.81,36.08V13.92L25,2.85,44.19,13.92V36.08ZM7.81,34.92,25,44.85l17.19-9.93V15.08L25,5.15,7.81,15.08Z"/><rect class="cls-1" x="23.59" y="18.75" width="21" height="2" transform="translate(-5.31 19.69) rotate(-29.99)"/><rect class="cls-1" x="14.91" y="9.25" width="2" height="21" transform="matrix(0.5, -0.87, 0.87, 0.5, -9.15, 23.65)"/><rect class="cls-1" x="24" y="25" width="2" height="21"/></g></svg>