<svg xmlns="http://www.w3.org/2000/svg" viewBox="0 0 50 50"><defs><style>.cls-1{fill:#232f3e;}</style></defs><title>SSL-padlock_light-bg</title><g id="Working"><path class="cls-1" d="M34.37,37.24H15.62a1,1,0,0,1-1-1v-16a1,1,0,0,1,1-1H34.38a1,1,0,0,1,1,1v16A1,1,0,0,1,34.37,37.24Zm-17.75-2H33.37v-14H16.63Z"/><path class="cls-1" d="M29.61,20.25V16.2A4.43,4.43,0,0,0,25,11.93h0a4.45,4.45,0,0,0-4.62,4.22l0,4.08h-2l0-4.08A6.44,6.44,0,0,1,25,9.93h0a6.44,6.44,0,0,1,6.58,6.28v4Z"/><path class="cls-1" d="M25,30h0a3.3,3.3,0,1,1,0-6.59h0a3.29,3.29,0,0,1,3.29,3.3h0A3.28,3.28,0,0,1,25,30Zm0-4.59A1.3,1.3,0,1,0,25,28h0a1.28,1.28,0,0,0,1.29-1.29h0a1.28,1.28,0,0,0-.38-.92,1.3,1.3,0,0,0-.91-.38Z"/><rect class="cls-1" x="24" y="28.74" width="2" height="4.69"/><path class="cls-1" d="M25,48.49a1,1,0,0,1-.61-.21,28.11,28.11,0,0,0-10.54-4.69C6.12,42.21,1.5,38,1.5,32.31A14.35,14.35,0,0,1,4,24.61c1-1.75,1.89-3.27,1.89-5.31a10,10,0,0,0-3.4-7.15,1,1,0,0,1-.37-.68,1,1,0,0,1,.23-.74c0-.07,5.51-6.68,6.76-8.39a1,1,0,0,1,.75-.41,1,1,0,0,1,.79.31,9.68,9.68,0,0,0,6.88,3.43c2.61,0,4.67-1.17,6.68-3.79a1,1,0,0,1,1.58,0c2,2.62,4.07,3.79,6.68,3.79a9.68,9.68,0,0,0,6.88-3.43,1,1,0,0,1,.79-.31,1,1,0,0,1,.75.41c1.25,1.71,6.71,8.32,6.76,8.39a1,1,0,0,1,.23.74,1,1,0,0,1-.37.68,10.11,10.11,0,0,0-3.4,7.15c0,2,.88,3.56,1.89,5.31a14.35,14.35,0,0,1,2.5,7.7c0,5.68-4.62,9.9-12.35,11.28a27.92,27.92,0,0,0-10.54,4.69A1,1,0,0,1,25,48.49ZM4.48,11.28a11.75,11.75,0,0,1,3.41,8,12.12,12.12,0,0,1-2.16,6.31c-1.15,2-2.23,3.84-2.23,6.7,0,6.86,8.19,8.86,10.7,9.32A29.16,29.16,0,0,1,25,46.26a29.16,29.16,0,0,1,10.8-4.63c2.51-.46,10.7-2.46,10.7-9.32,0-2.86-1.08-4.73-2.23-6.7a12.12,12.12,0,0,1-2.16-6.31,11.75,11.75,0,0,1,3.41-8C44.29,9.79,41.47,6.36,40,4.44a11.21,11.21,0,0,1-7.51,3.23A9.55,9.55,0,0,1,25,4.06a9.55,9.55,0,0,1-7.47,3.61A11.21,11.21,0,0,1,10,4.44C8.53,6.36,5.71,9.79,4.48,11.28Z"/></g></svg>