<svg xmlns="http://www.w3.org/2000/svg" viewBox="0 0 50 50"><defs><style>.cls-1{fill:#232f3e;}</style></defs><title>Tape-storage_light-bg</title><g id="Working"><rect class="cls-1" x="17.5" y="33.19" width="15" height="2"/><path class="cls-1" d="M12.81,36.31A11.31,11.31,0,1,1,24.12,25,11.32,11.32,0,0,1,12.81,36.31Zm0-20.62A9.31,9.31,0,1,0,22.12,25,9.33,9.33,0,0,0,12.81,15.69Z"/><path class="cls-1" d="M12.81,28a3,3,0,1,1,3-3A3,3,0,0,1,12.81,28Zm0-4a1,1,0,1,0,1,1A1,1,0,0,0,12.81,24Z"/><rect class="cls-1" x="8.67" y="17.12" width="2" height="3.97" transform="translate(-8.18 7.28) rotate(-29.62)"/><rect class="cls-1" x="7.79" y="29.27" width="3.97" height="2" transform="translate(-21.28 23.39) rotate(-59.62)"/><rect class="cls-1" x="17.37" y="23.41" width="3.97" height="2"/><path class="cls-1" d="M37.19,36.31A11.31,11.31,0,1,1,48.5,25,11.32,11.32,0,0,1,37.19,36.31Zm0-20.62A9.31,9.31,0,1,0,46.5,25,9.32,9.32,0,0,0,37.19,15.69Z"/><path class="cls-1" d="M37.19,28a3,3,0,1,1,3-3A3,3,0,0,1,37.19,28Zm0-4a1,1,0,1,0,1,1A1,1,0,0,0,37.19,24Z"/><rect class="cls-1" x="33.05" y="17.12" width="2" height="3.97" transform="translate(-4.99 19.33) rotate(-29.62)"/><rect class="cls-1" x="32.17" y="29.27" width="3.97" height="2" transform="translate(-9.23 44.42) rotate(-59.62)"/><rect class="cls-1" x="41.75" y="23.41" width="3.97" height="2"/></g></svg>