<svg xmlns="http://www.w3.org/2000/svg" viewBox="0 0 50 50"><defs><style>.cls-1{fill:#232f3e;}</style></defs><title>Toolkit_light-bg</title><g id="Working"><path class="cls-1" d="M25,47.15,5.81,36.08V13.92L25,2.85,44.19,13.92V36.08ZM7.81,34.92,25,44.85l17.19-9.93V15.08L25,5.15,7.81,15.08Z"/><path class="cls-1" d="M33.6,38.36,21.05,25.81l4.26-4.26L37.86,34.1ZM23.88,25.81l9.72,9.72L35,34.1l-9.72-9.72Z"/><rect class="cls-1" x="19.72" y="16.96" width="2" height="8.59" transform="translate(-8.96 20.88) rotate(-45)"/><path class="cls-1" d="M16.78,19.59h-.1A2.32,2.32,0,0,1,15,18.78l-2.92-3.47,2.67-2.67,3.47,2.93a2.28,2.28,0,0,1-1.47,4Zm-2-4.16,1.73,2.06a.29.29,0,0,0,.21.1.27.27,0,0,0,.2-.08.28.28,0,0,0,.09-.21.31.31,0,0,0-.1-.21L14.9,15.36Z"/><path class="cls-1" d="M17.48,38.38a4.94,4.94,0,0,1-2.16-.49L14,37.28l2.5-2.5-.48-.48-2.5,2.5L13,35.53a5,5,0,0,1,5.69-7.06L20,27.1l1.42,1.42-2.26,2.25-.6-.23a3,3,0,0,0-3.23.68,3.08,3.08,0,0,0-.87,1.84l1.59-1.59,3.31,3.31-1.59,1.59a3.08,3.08,0,0,0,1.84-.87,3,3,0,0,0,.68-3.22l-.23-.61,2.42-2.42,1.42,1.41L22.37,32.2A5.05,5.05,0,0,1,21,36.91,5,5,0,0,1,17.48,38.38Z"/><path class="cls-1" d="M30.16,24.4,28.75,23,31,20.78l.6.24a3,3,0,0,0,3.22-.69,3,3,0,0,0,.87-1.83l-1.58,1.58-3.31-3.31,1.58-1.58a3,3,0,0,0-1.83.87,3,3,0,0,0-.69,3.22l.24.61-2.31,2.3-1.42-1.41,1.43-1.43a5,5,0,0,1,7.05-5.68l1.27.61-2.49,2.49.48.48,2.5-2.49L37.18,16a5,5,0,0,1-5.69,7Z"/></g></svg>