<svg xmlns="http://www.w3.org/2000/svg" viewBox="0 0 75 75"><defs><style>.cls-1{fill:#3b48cc;}.cls-2{fill:#fff;}</style></defs><title>AWS-Cloud9_light-bg</title><g id="Reference"><rect id="Blue_Light_BG" data-name="Blue Light BG" class="cls-1" width="75" height="75"/><g id="Product_Icon" data-name="Product Icon"><path class="cls-2" d="M52.5,53.49H22.35a9.62,9.62,0,0,1-9.83-8.81c0-.22,0-.44,0-.66A8.9,8.9,0,0,1,19,35.08c0-.25,0-.49,0-.74a13.17,13.17,0,0,1,22.6-8.9,14.11,14.11,0,0,1,3,4.28,5.93,5.93,0,0,1,5.42-1c2.51.76,4.19,3,4.59,6.15,5.08,1.26,7.87,4.52,7.87,9.25C62.5,51,57.33,53.49,52.5,53.49ZM20.26,36.8C18.08,37.36,14.5,39,14.5,44c0,.19,0,.37,0,.55a7.62,7.62,0,0,0,7.83,6.92H52.5c2.41,0,8-.72,8-7.4,0-4-2.35-6.51-7-7.45a1,1,0,0,1-.8-.92c-.17-2.67-1.35-4.54-3.25-5.12a4,4,0,0,0-4.39,1.49,1,1,0,0,1-.94.38,1,1,0,0,1-.79-.65,13.22,13.22,0,0,0-3.12-4.95A11.17,11.17,0,0,0,21,34.34a10.09,10.09,0,0,0,.08,1.35A1,1,0,0,1,20.26,36.8Z"/><path class="cls-2" d="M32.5,45.87a8,8,0,0,0,3.32.82,3.92,3.92,0,0,0,3.2-1.3,6.83,6.83,0,0,0,1.25-4,6.62,6.62,0,0,1-1.76.83,6.7,6.7,0,0,1-2,.3,4.5,4.5,0,0,1-3.38-1.28,4.8,4.8,0,0,1-1.24-3.5,5.52,5.52,0,0,1,.62-2.63,4.63,4.63,0,0,1,1.8-1.82A5.23,5.23,0,0,1,37,32.59a4.74,4.74,0,0,1,4.06,1.87,9,9,0,0,1,1.4,5.45,10.52,10.52,0,0,1-1.65,6.36,5.5,5.5,0,0,1-4.69,2.22,6.53,6.53,0,0,1-3.63-.94Zm4.77-5.14A7,7,0,0,0,39,40.51a6.88,6.88,0,0,0,1.55-.62v-.31q-.06-5.19-3.32-5.19a2.65,2.65,0,0,0-2.08.87,3.34,3.34,0,0,0-.78,2.32,3.29,3.29,0,0,0,.75,2.34A2.83,2.83,0,0,0,37.27,40.73Z"/></g></g></svg>