<svg xmlns="http://www.w3.org/2000/svg" xmlns:xlink="http://www.w3.org/1999/xlink" viewBox="0 0 75 75"><defs><style>.cls-1{fill:url(#BlueGradient);}.cls-2{fill:#fff;}</style><linearGradient id="BlueGradient" x1="-15.53" y1="90.53" x2="90.53" y2="-15.53" gradientTransform="translate(0 0)" gradientUnits="userSpaceOnUse"><stop offset="0" stop-color="#2e27ad"/><stop offset="1" stop-color="#527fff"/></linearGradient></defs><title>AWS-Command-Line-Interface</title><g id="Reference"><rect id="Blue_Gradient" data-name="Blue Gradient" class="cls-1" width="75" height="75"/><g id="Icon_Test" data-name="Icon Test"><path class="cls-2" d="M61.5,61.5h-7v-2h6v-44h-46v44h28v2h-29a1,1,0,0,1-1-1v-46a1,1,0,0,1,1-1h48a1,1,0,0,1,1,1v46A1,1,0,0,1,61.5,61.5Z"/><rect class="cls-2" x="13.5" y="21.5" width="48" height="2"/><rect class="cls-2" x="16.5" y="17.5" width="2" height="2"/><rect class="cls-2" x="20.5" y="17.5" width="2" height="2"/><rect class="cls-2" x="24.5" y="17.5" width="2" height="2"/><path class="cls-2" d="M24,50.81l-1.41-1.42,8.89-8.88-8.89-8.89L24,30.2l9.6,9.6a1,1,0,0,1,.29.71,1,1,0,0,1-.29.7Z"/><rect class="cls-2" x="35.5" y="45.5" width="15" height="2"/></g></g></svg>