<svg xmlns="http://www.w3.org/2000/svg" xmlns:xlink="http://www.w3.org/1999/xlink" viewBox="0 0 75 75"><defs><style>.cls-1{fill:url(#BlueGradient);}.cls-2{fill:#fff;}</style><linearGradient id="BlueGradient" x1="-1463.7" y1="558.32" x2="-1463.7" y2="708.32" gradientTransform="translate(-1445.32 -549.67) rotate(-135)" gradientUnits="userSpaceOnUse"><stop offset="0" stop-color="#2e27ad"/><stop offset="1" stop-color="#527fff"/></linearGradient></defs><title>AWS-X-Ray</title><g id="Reference"><rect id="Blue_Gradient" data-name="Blue Gradient" class="cls-1" width="75" height="75"/><g id="Icon_Test" data-name="Icon Test"><path class="cls-2" d="M54.64,45.42l-.28-2c2.8-.39,6.14-2,6.14-7.33,0-5-3.8-6.84-7-7.48a1,1,0,0,1-.8-.92c-.22-3.91-2.49-5.3-4.37-5.3a4.07,4.07,0,0,0-3.25,1.64,1,1,0,0,1-.95.39,1,1,0,0,1-.79-.64,13.27,13.27,0,0,0-3.12-5A11.16,11.16,0,0,0,21,26.33a12.08,12.08,0,0,0,.08,1.35,1,1,0,0,1-.75,1.09C18.16,29.31,14.5,31,14.5,36c0,.19,0,.37,0,.55.16,3,2.73,5.69,6.24,6.62l-.52,1.94c-4.33-1.16-7.51-4.64-7.72-8.46,0-.22,0-.42,0-.65a8.92,8.92,0,0,1,6.53-9c0-.25,0-.49,0-.74A13.18,13.18,0,0,1,41.62,17.4a14.92,14.92,0,0,1,3,4.29,6,6,0,0,1,3.71-1.28c2.81,0,5.76,2,6.3,6.42,5.08,1.26,7.87,4.53,7.87,9.28C62.5,41.33,59.63,44.72,54.64,45.42Z"/><path class="cls-2" d="M37.5,31.54a15,15,0,1,0,15,15A15,15,0,0,0,37.5,31.54Zm0,28a13,13,0,1,1,13-13A13,13,0,0,1,37.5,59.54Z"/><polygon class="cls-2" points="45.5 51.49 45.5 53.49 29.5 53.49 29.5 51.49 31.5 51.49 31.5 45.54 33.5 45.54 33.5 51.49 36.5 51.49 36.5 42.54 38.5 42.54 38.5 51.49 41.5 51.49 41.5 39.54 43.5 39.54 43.5 51.49 45.5 51.49"/></g></g></svg>