<svg xmlns="http://www.w3.org/2000/svg" viewBox="0 0 75 75"><defs><style>.cls-1{fill:#3b48cc;}.cls-2{fill:#fff;}</style></defs><title>AWS-Tools-And-SDKs_light-bg</title><g id="Reference"><rect id="Blue_Light_BG" data-name="Blue Light BG" class="cls-1" width="75" height="75"/><g id="Product_Icon" data-name="Product Icon"><path class="cls-2" d="M37.5,63.9a1,1,0,0,1-.5-.13L15,51.07a1,1,0,0,1-.5-.87V24.8a1,1,0,0,1,.5-.87l22-12.7a1,1,0,0,1,1,0l22,12.7a1,1,0,0,1,.5.87V50.2a1,1,0,0,1-.5.87L38,63.77A1,1,0,0,1,37.5,63.9Zm-21-14.28,20,11.55V53.1h2v8.07l20-11.55V26.54l-6.65,3.84-1-1.73,6.66-3.85-20-11.55-20,11.54,6.67,3.86-1,1.73L16.5,26.52Zm21,1.58a1,1,0,0,1-.5-.13L26,44.72a1,1,0,0,1-.5-.87V31.15a1,1,0,0,1,.5-.87l11-6.35a1,1,0,0,1,1,0l11,6.35a1,1,0,0,1,.5.87v12.7a1,1,0,0,1-.5.87L38,51.07A1,1,0,0,1,37.5,51.2Zm-10-7.93,9,5.2V38.08l-9-5.2Zm11-5.19V48.47l9-5.2V32.88Zm-10-6.93,9,5.2,9-5.2-9-5.2Z"/></g></g></svg>