<svg xmlns="http://www.w3.org/2000/svg" width="50" height="50" viewBox="0 0 50 50"><title>Cloud9_Resource_light-bg</title><g id="Working"><path d="M37.39,37.57H12.48a8.13,8.13,0,0,1-8.3-7.44c0-.18,0-.37,0-.56a7.59,7.59,0,0,1,5.39-7.51c0-.16,0-.32,0-.48a11.06,11.06,0,0,1,19-7.49A12.07,12.07,0,0,1,31,17.49a5,5,0,0,1,4.47-.75,5.84,5.84,0,0,1,3.89,5.11c4.21,1.08,6.52,3.82,6.52,7.78C45.83,35.49,41.47,37.57,37.39,37.57ZM10.79,23.78a5.66,5.66,0,0,0-4.62,5.79c0,.15,0,.3,0,.44a6.13,6.13,0,0,0,6.3,5.56H37.39c1.94,0,6.44-.58,6.44-5.94,0-3.22-1.9-5.23-5.64-6a1,1,0,0,1-.8-.92c-.13-2.13-1.06-3.61-2.56-4.07a3.16,3.16,0,0,0-3.44,1.17,1,1,0,0,1-.94.38,1,1,0,0,1-.79-.65,10.63,10.63,0,0,0-2.53-4,9.06,9.06,0,0,0-15.59,6,10,10,0,0,0,.07,1.09A1,1,0,0,1,10.79,23.78Zm10.3,7.43a6.69,6.69,0,0,0,2.75.67,3.23,3.23,0,0,0,2.64-1.07,5.63,5.63,0,0,0,1-3.32,5.75,5.75,0,0,1-1.46.68,5.64,5.64,0,0,1-1.63.24,3.71,3.71,0,0,1-2.79-1.05,4,4,0,0,1-1-2.89,4.48,4.48,0,0,1,.52-2.18,3.81,3.81,0,0,1,1.48-1.5,4.36,4.36,0,0,1,2.22-.56,3.93,3.93,0,0,1,3.35,1.55,7.45,7.45,0,0,1,1.16,4.51A8.68,8.68,0,0,1,28,31.54a4.55,4.55,0,0,1-3.87,1.84,5.4,5.4,0,0,1-3-.79ZM24.85,27a5.52,5.52,0,0,0,1.39-.18,5.26,5.26,0,0,0,1.29-.51V26q-.06-4.29-2.75-4.29a2.21,2.21,0,0,0-1.72.72,2.77,2.77,0,0,0-.64,1.92A2.68,2.68,0,0,0,23,26.29,2.32,2.32,0,0,0,24.85,27Z" style="fill:#3b48cc"/></g></svg>