<svg id="Layer_1" data-name="Layer 1" xmlns="http://www.w3.org/2000/svg" width="100" height="100" viewBox="0 0 100 100"><defs><style>.cls-1{fill:#99bce3;}.cls-2{fill:#19486f;}.cls-3{fill:#205b99;}.cls-4{fill:#5294cf;}.cls-5{font-size:21px;font-family:HelveticaNeue-CondensedBold, Helvetica Neue;font-weight:700;}</style></defs><title>Database</title><polygon class="cls-1" points="83.95 64.42 50 60.19 16.05 64.42 50 91 83.95 64.42"/><polygon class="cls-2" points="84.17 35.59 49.78 39.8 15.83 35.58 50 9 84.17 35.59"/><polygon class="cls-3" points="50 9 15.83 25.97 15.83 35.59 50 25.4 50 9"/><polygon class="cls-3" points="50 74.6 15.83 64.42 15.83 74.03 50 91 50 74.6"/><polygon class="cls-3" points="50 62.4 35.19 60.23 35.19 39.94 50 37.8 63.95 50.1 50 62.4"/><polygon class="cls-4" points="50 9 84.17 25.97 84.17 35.59 50 25.4 50 9"/><polygon class="cls-4" points="50 74.6 84.17 64.42 84.17 74.03 50 91 50 74.6"/><polygon class="cls-4" points="50 62.4 64.81 60.23 64.81 39.94 50 37.8 50 62.4"/><text class="cls-5" transform="translate(-34.65 -6.33)">Amazon ElastiCache</text></svg>