<svg id="Layer_1" data-name="Layer 1" xmlns="http://www.w3.org/2000/svg" width="100" height="100" viewBox="0 0 100 100"><defs><style>.cls-1{fill:#19486f;}.cls-2{fill:#2e73b8;}.cls-3{fill:#fff;}</style></defs><title>Database</title><polygon class="cls-1" points="47 79.24 22 79.24 22 76.76 34.5 69.74 47 76.76 47 79.24"/><polygon class="cls-1" points="78 79.24 53 79.24 53 76.76 65.5 69.74 78 76.76 78 79.24"/><polygon class="cls-1" points="47 58.57 22 58.57 22 56.09 34.5 49.07 47 56.09 47 58.57"/><polygon class="cls-1" points="78 58.57 53 58.57 53 56.09 65.5 49.07 78 56.09 78 58.57"/><polygon class="cls-1" points="47 37.91 22 37.91 22 35.43 34.5 28.41 47 35.43 47 37.91"/><polygon class="cls-1" points="78 37.91 53 37.91 53 35.43 65.5 28.41 78 35.43 78 37.91"/><rect class="cls-2" x="22" y="20.76" width="25" height="14.67"/><rect class="cls-2" x="22" y="41.43" width="25" height="14.67"/><rect class="cls-2" x="22" y="62.09" width="25" height="14.67"/><rect class="cls-2" x="53" y="20.76" width="25" height="14.67"/><rect class="cls-2" x="53" y="41.43" width="25" height="14.67"/><rect class="cls-2" x="53" y="62.09" width="25" height="14.67"/><circle class="cls-3" cx="65.5" cy="28.09" r="5"/><circle class="cls-3" cx="65.5" cy="48.76" r="5"/><circle class="cls-3" cx="65.5" cy="69.43" r="5"/></svg>