<svg id="Layer_1" data-name="Layer 1" xmlns="http://www.w3.org/2000/svg" width="100" height="100" viewBox="0 0 100 100"><defs><style>.cls-1{fill:#19486f;}.cls-2{fill:#205b99;}.cls-3{fill:#99bce3;}.cls-4{fill:#2e73b8;}.cls-5{fill:#5294cf;}</style></defs><title>Database</title><path class="cls-1" d="M82,59.3V51.63l-2.69,0V48.39l2.68,0V40.88l-2.68-1.4v-1.8L82,37.44V29.81L74,21h0L59.61,13.83H39.53L25.05,21v0h0l-7,8.8v7.65l2,.23v1.84l-2,1.19v7.65l2,0v3.21l-2,0v7.62l2,1.2v1.86l-2,.24,0,7.62,7,8.81h0v0l14.46,7.18h20.1L74,79h0l8-8.81v-7.6l-2.68-.26V60.64Zm-23.22-2L43.43,75.65l3-15.81-6.52-2,6.34-12.29-5.9-2.8L55.74,24.32l-3,15.81,6.52,2L52.89,54.47Z"/><polygon class="cls-2" points="25.08 67.97 25.08 79 39.52 86.17 39.54 72.43 25.08 67.97"/><polygon class="cls-2" points="39.52 27.21 39.52 13.83 25.05 20.99 25.08 32 39.52 27.21"/><polygon class="cls-3" points="46.29 45.51 43.68 45.97 39.53 46.69 35.93 42.28 40.39 42.71 46.29 45.51"/><polygon class="cls-3" points="44.03 63.65 46.46 59.84 39.95 57.79 35.91 61.09 39.54 65.33 44.03 63.65"/><polygon class="cls-2" points="52.71 40.13 55.3 36.41 58.48 35.82 55.91 33.24 57.06 27.21 59.18 26.53 59.61 13.92 55.74 24.32 52.71 40.13"/><polygon class="cls-2" points="55.65 53.69 52.88 54.47 59.23 42.18 63.28 38.9 66.23 45.48 58.94 47.31 55.83 53.34 57.68 54.05 55.65 53.69"/><polygon class="cls-2" points="58.78 57.26 63.55 57.51 59.62 66.4 56.09 66.4 51.03 72.43 53.96 83.5 39.54 86.11 43.43 75.65 58.78 57.26"/><polygon class="cls-4" points="55.3 36.41 59.61 37.77 59.61 33.24 55.91 33.24 55.3 36.41"/><polygon class="cls-4" points="42.99 47.31 43.68 45.97 39.52 44 39.52 47.31 39.63 47.31 42.99 47.31"/><polygon class="cls-4" points="55.63 53.7 59.61 55.62 59.61 53.34 55.81 53.34 55.63 53.7"/><polygon class="cls-4" points="44.03 63.65 39.52 62.24 39.52 66.4 43.48 66.4 44.03 63.65"/><polygon class="cls-4" points="43.47 33.24 39.52 33.24 39.52 37.97 43.47 33.24"/><polygon class="cls-4" points="39.52 72.43 39.52 86.12 42.27 72.43 39.52 72.43"/><polygon class="cls-4" points="59.61 66.4 59.61 62.21 56.09 66.4 59.61 66.4"/><polygon class="cls-4" points="59.61 27.21 59.61 13.92 57.06 27.21 59.61 27.21"/><polygon class="cls-4" points="39.52 86.12 39.52 86.17 59.61 86.17 59.61 72.43 51.03 72.43 39.52 86.12"/><polygon class="cls-4" points="39.52 27.21 48.5 27.21 59.61 13.91 59.61 13.83 39.52 13.83 39.52 27.21"/><polygon class="cls-5" points="59.62 55.62 63.55 57.51 59.62 62.2 59.62 66.4 73.94 63.31 73.95 63.3 73.95 52.3 59.62 53.34 59.62 55.62"/><polygon class="cls-5" points="59.62 13.83 59.61 13.83 59.62 13.9 59.62 27.21 73.95 31.84 73.95 31.84 73.95 20.99 59.62 13.83"/><polygon class="cls-5" points="59.62 37.77 63.26 38.91 59.62 45.97 58.92 47.31 59.61 47.31 59.62 47.31 73.95 47.77 73.95 36.62 59.62 33.24 59.62 37.77"/><polygon class="cls-5" points="59.62 86.17 73.95 78.99 73.95 67.99 59.62 72.43 59.62 86.17"/><polygon class="cls-4" points="73.95 63.3 82 59.3 82 51.63 73.95 52.3 73.95 63.3"/><polygon class="cls-4" points="81.99 37.47 81.99 29.82 73.95 20.99 73.95 31.85 81.99 37.47"/><polygon class="cls-4" points="73.95 36.62 73.95 47.77 81.99 48.37 81.99 40.88 73.95 36.62"/><polygon class="cls-4" points="73.95 78.99 81.99 70.22 81.99 62.58 73.95 67.99 73.95 78.99"/><polygon class="cls-2" points="25.49 63.31 33.38 65.05 39.52 66.4 39.52 62.24 35.91 61.09 39.53 54.07 39.91 53.34 39.53 53.34 29.75 52.63 25.08 52.3 25.08 63.22 25.24 63.26 25.49 63.31"/><polygon class="cls-2" points="39.53 47.31 39.52 44 35.95 42.29 39.52 37.97 39.52 33.24 25.23 36.62 25.08 36.66 25.08 47.66 30.03 47.54 39.53 47.31"/></svg>